<?xml version="1.0" encoding="utf-8"?>
<!-- Generator: Adobe Illustrator 15.0.0, SVG Export Plug-In  -->
<!DOCTYPE svg PUBLIC "-//W3C//DTD SVG 1.1//EN" "http://www.w3.org/Graphics/SVG/1.1/DTD/svg11.dtd" [
	<!ENTITY ns_flows "http://ns.adobe.com/Flows/1.0/">
]>
<svg version="1.1"
	 xmlns="http://www.w3.org/2000/svg" xmlns:xlink="http://www.w3.org/1999/xlink" xmlns:a="http://ns.adobe.com/AdobeSVGViewerExtensions/3.0/"
	 x="0px" y="0px" width="200px" height="200px" viewBox="-1.056 -0.5 200 200" enable-background="new -1.056 -0.5 200 200"
	 xml:space="preserve">
<defs>
</defs>
<linearGradient id="SVGID_1_" gradientUnits="userSpaceOnUse" x1="8.3398" y1="-402.5996" x2="8.3398" y2="-205.5996" gradientTransform="matrix(1 0 0 -1 91.1602 -204.5996)">
	<stop  offset="0.0303" style="stop-color:#1A1A1A"/>
	<stop  offset="0.3636" style="stop-color:#4D4D4D"/>
	<stop  offset="1" style="stop-color:#000000"/>
</linearGradient>
<path fill="url(#SVGID_1_)" stroke="#000000" stroke-width="2" stroke-miterlimit="10" d="M198,188.15c0,5.438-4.41,9.85-9.85,9.85
	H10.85C5.41,198,1,193.59,1,188.15V10.85C1,5.41,5.409,1,10.85,1h177.301c5.439,0,9.85,4.41,9.85,9.85V188.15z"/>
<linearGradient id="SVGID_2_" gradientUnits="userSpaceOnUse" x1="-81.6602" y1="-305.5996" x2="97.3403" y2="-305.5996" gradientTransform="matrix(1 0 0 -1 91.1602 -204.5996)">
	<stop  offset="0" style="stop-color:#4F1A1A"/>
	<stop  offset="0.1515" style="stop-color:#601A18"/>
	<stop  offset="0.2424" style="stop-color:#FF1700"/>
	<stop  offset="0.6303" style="stop-color:#FF1C1E"/>
	<stop  offset="0.8061" style="stop-color:#5E1D22"/>
	<stop  offset="1" style="stop-color:#521D25"/>
</linearGradient>
<path fill="url(#SVGID_2_)" stroke="#FFFFFF" stroke-miterlimit="10" d="M188.5,180.65c0,5.438-4.41,9.85-9.85,9.85H19.35
	c-5.439,0-9.85-4.41-9.85-9.85V21.35c0-5.438,4.41-9.85,9.85-9.85h159.301c5.439,0,9.85,4.41,9.85,9.85V180.65z"/>
<linearGradient id="SVGID_3_" gradientUnits="userSpaceOnUse" x1="-51.1113" y1="252.7715" x2="68.8463" y2="180.6937" gradientTransform="matrix(1 0 0 1 91.1602 -199.1191)">
	<stop  offset="0" style="stop-color:#4F1A1A"/>
	<stop  offset="0.0424" style="stop-color:#601A18"/>
</linearGradient>
<polygon fill="url(#SVGID_3_)" points="171.356,29.428 57.842,29.881 57.786,29.771 25.675,29.73 18.375,12 52.042,12 97.287,12 
	178.288,12 "/>
<linearGradient id="SVGID_4_" gradientUnits="userSpaceOnUse" x1="-19.8247" y1="-416.063" x2="53.4126" y2="-360.8746" gradientTransform="matrix(1 0 0 -1 91.1602 -204.5996)">
	<stop  offset="0.6121" style="stop-color:#FF1700"/>
	<stop  offset="1" style="stop-color:#521D25"/>
</linearGradient>
<polygon fill="url(#SVGID_4_)" points="60.254,169.915 55.161,190 166.038,190 155.139,170.297 "/>
<linearGradient id="SVGID_5_" gradientUnits="userSpaceOnUse" x1="-53.5874" y1="-372.2197" x2="3.3039" y2="-406.4036" gradientTransform="matrix(1 0 0 -1 91.1602 -204.5996)">
	<stop  offset="0" style="stop-color:#601A18"/>
	<stop  offset="0.2" style="stop-color:#FF1700"/>
</linearGradient>
<polygon fill="url(#SVGID_5_)" points="36.289,170.082 24.125,190 101.556,190 92.996,170.461 "/>
<linearGradient id="SVGID_6_" gradientUnits="userSpaceOnUse" x1="272.5952" y1="236.2734" x2="403.2798" y2="236.2734" gradientTransform="matrix(-0.002 1.0911 0.9521 0.0017 -127.6126 -268.959)">
	<stop  offset="0.0303" style="stop-color:#4F1A1A"/>
	<stop  offset="0.5273" style="stop-color:#FF1700"/>
	<stop  offset="1" style="stop-color:#911700"/>
</linearGradient>
<path fill="url(#SVGID_6_)" stroke="#530000" stroke-width="0.463" stroke-miterlimit="10" d="M40.75,171.357
	c-3.619-0.008-6.547-3.371-6.542-7.512l0.233-127.588c0.008-4.141,2.95-7.492,6.568-7.486l111.576,0.203
	c3.619,0.008,6.551,3.369,6.541,7.51l-0.23,127.592c-0.01,4.14-2.951,7.488-6.568,7.484L40.75,171.357z"/>
</svg>
