<?xml version="1.0" standalone="no"?>
<!DOCTYPE svg PUBLIC "-//W3C//DTD SVG 20010904//EN"
 "http://www.w3.org/TR/2001/REC-SVG-20010904/DTD/svg10.dtd">
<svg version="1.0" xmlns="http://www.w3.org/2000/svg"
 width="1600.000000pt" height="1600.000000pt" viewBox="0 0 1600.000000 1600.000000"
 preserveAspectRatio="xMidYMid meet">
<metadata>
Created by potrace 1.15, written by Peter Selinger 2001-2017
</metadata>
<g transform="translate(0.000000,1600.000000) scale(0.100000,-0.100000)"
fill="#000000" stroke="none">
<path d="M7500 13108 l0 -1393 -448 448 -447 447 -358 -358 -357 -357 1055
-1055 1055 -1055 1055 1055 1055 1055 -357 357 -358 358 -447 -447 -448 -448
0 1393 0 1392 -500 0 -500 0 0 -1392z"/>
<path d="M3748 9753 l-358 -358 447 -447 448 -448 -1393 0 -1392 0 0 -500 0
-500 1392 0 1393 0 -448 -448 -447 -447 358 -358 357 -357 1055 1055 1055
1055 -1055 1055 -1055 1055 -357 -357z"/>
<path d="M10840 9055 l-1055 -1055 1055 -1055 1055 -1055 357 357 358 358
-447 447 -448 448 1393 0 1392 0 0 500 0 500 -1392 0 -1393 0 448 448 447 447
-358 358 -357 357 -1055 -1055z"/>
<path d="M7801 8985 c-211 -48 -366 -131 -510 -276 -126 -125 -203 -256 -258
-434 -25 -84 -27 -102 -27 -275 0 -173 2 -191 27 -275 55 -178 132 -309 258
-434 125 -126 256 -203 434 -258 84 -25 102 -27 275 -27 173 0 191 2 275 27
178 55 309 132 434 258 126 125 203 256 258 434 25 84 27 102 27 275 0 173 -2
191 -27 275 -55 178 -132 309 -258 434 -125 126 -258 204 -434 257 -78 23
-112 27 -250 30 -114 3 -178 -1 -224 -11z"/>
<path d="M6942 5157 l-1052 -1052 357 -358 358 -357 447 447 448 448 0 -1393
0 -1392 500 0 500 0 0 1392 0 1393 448 -448 447 -447 358 358 357 357 -1053
1053 c-578 578 -1054 1052 -1057 1052 -3 0 -479 -474 -1058 -1053z"/>
</g>
</svg>
