<?xml version="1.0" encoding="utf-8"?>
<!-- Generator: Adobe Illustrator 15.0.0, SVG Export Plug-In  -->
<!DOCTYPE svg PUBLIC "-//W3C//DTD SVG 1.1//EN" "http://www.w3.org/Graphics/SVG/1.1/DTD/svg11.dtd" [
	<!ENTITY ns_flows "http://ns.adobe.com/Flows/1.0/">
]>
<svg version="1.1"
	 xmlns="http://www.w3.org/2000/svg" xmlns:xlink="http://www.w3.org/1999/xlink" xmlns:a="http://ns.adobe.com/AdobeSVGViewerExtensions/3.0/"
	 x="0px" y="0px" width="550px" height="400px" viewBox="1 0 550 400" enable-background="new 1 0 550 400" xml:space="preserve">
<defs>
</defs>
<radialGradient id="SVGID_1_" cx="390.332" cy="373.0938" r="10.0005" gradientUnits="userSpaceOnUse">
	<stop  offset="0" style="stop-color:#999999"/>
	<stop  offset="0.8242" style="stop-color:#B3B3B3"/>
	<stop  offset="1" style="stop-color:#1A1A1A"/>
</radialGradient>
<circle fill="url(#SVGID_1_)" stroke="#1A1A1A" stroke-miterlimit="10" cx="390.332" cy="373.095" r="10"/>
<path stroke="#000000" stroke-miterlimit="10" d="M550.5,370.719c0,16.447-13.581,29.781-30.334,29.781H33.834
	C17.081,400.5,3.5,387.166,3.5,370.719V33.281C3.5,16.833,17.081,3.5,33.834,3.5h486.332c16.753,0,30.334,13.333,30.334,29.781
	V370.719z"/>
<linearGradient id="SVGID_2_" gradientUnits="userSpaceOnUse" x1="274.0005" y1="397.5" x2="274.0005" y2="0.5005">
	<stop  offset="0" style="stop-color:#1A1A1A"/>
	<stop  offset="0.1879" style="stop-color:#666666"/>
	<stop  offset="0.8545" style="stop-color:#1A1A1A"/>
	<stop  offset="0.9455" style="stop-color:#262626"/>
	<stop  offset="0.9455" style="stop-color:#2E2E2E"/>
	<stop  offset="0.9515" style="stop-color:#4D4D4D"/>
	<stop  offset="1" style="stop-color:#999999"/>
</linearGradient>
<path fill="url(#SVGID_2_)" stroke="#000000" stroke-miterlimit="10" d="M547.5,367.719c0,16.447-13.581,29.781-30.334,29.781
	H30.834C14.081,397.5,0.5,384.166,0.5,367.719V30.281C0.5,13.833,14.081,0.5,30.834,0.5h486.332
	c16.753,0,30.334,13.333,30.334,29.781V367.719z"/>
<linearGradient id="SVGID_3_" gradientUnits="userSpaceOnUse" x1="273.5005" y1="321.5" x2="273.5005" y2="34.5005">
	<stop  offset="0" style="stop-color:#000000"/>
	<stop  offset="0.8545" style="stop-color:#1A1A1A"/>
	<stop  offset="0.9758" style="stop-color:#000000"/>
</linearGradient>
<rect x="15.5" y="34.5" fill="url(#SVGID_3_)" stroke="#CCCCCC" stroke-miterlimit="10" width="516" height="287"/>
<rect x="16" y="37" fill="#232323" width="514" height="282"/>
<linearGradient id="SVGID_4_" gradientUnits="userSpaceOnUse" x1="273.0005" y1="344" x2="273.0005" y2="335">
	<stop  offset="0" style="stop-color:#1A1A1A"/>
	<stop  offset="0.497" style="stop-color:#808080"/>
	<stop  offset="1" style="stop-color:#1A1A1A"/>
</linearGradient>
<path fill="url(#SVGID_4_)" stroke="#1A1A1A" stroke-width="2" stroke-miterlimit="10" d="M523,339.5c0-2.485-1.952-4.5-4.36-4.5
	H27.36c-2.408,0-4.36,2.015-4.36,4.5l0,0c0,2.485,1.952,4.5,4.36,4.5H518.64C521.048,344,523,341.985,523,339.5L523,339.5z"/>
<circle fill="#232323" stroke="#1A1A1A" stroke-miterlimit="10" cx="43" cy="373.667" r="15"/>
<linearGradient id="SVGID_5_" gradientUnits="userSpaceOnUse" x1="43" y1="387.667" x2="43" y2="357.667">
	<stop  offset="0" style="stop-color:#1A1A1A"/>
	<stop  offset="1" style="stop-color:#4D4D4D"/>
</linearGradient>
<circle fill="url(#SVGID_5_)" stroke="#808080" stroke-miterlimit="10" cx="43" cy="372.667" r="15"/>
<rect x="44" y="366" fill="#F9F9F9" width="4" height="15"/>
<rect x="37" y="366" fill="#F9F9F9" width="4" height="15"/>
<circle fill="#232323" stroke="#1A1A1A" stroke-linecap="round" stroke-miterlimit="10" cx="350" cy="373.667" r="15"/>
<linearGradient id="SVGID_6_" gradientUnits="userSpaceOnUse" x1="350" y1="387.667" x2="350" y2="357.667">
	<stop  offset="0" style="stop-color:#1A1A1A"/>
	<stop  offset="1" style="stop-color:#4D4D4D"/>
</linearGradient>
<circle fill="url(#SVGID_6_)" stroke="#808080" stroke-linecap="round" stroke-miterlimit="10" cx="350" cy="372.667" r="15"/>
<rect x="351" y="366" display="none" fill="#F9F9F9" width="4" height="15"/>
<polygon fill="#FFFFFF" points="338,369.851 338,376.15 339.225,377 343,377 343,369 339.4,369 "/>
<polygon fill="#FFFFFF" points="344,368.451 344,377.551 349.048,382 350.601,382 352,380.329 352,365.694 350.426,364 349.069,364 
	"/>
<path fill="none" stroke="#FFFFFF" stroke-miterlimit="10" d="M353.666,370.087c0,0,4.082,2.84,0,6.033"/>
<path fill="none" stroke="#FFFFFF" stroke-miterlimit="10" d="M357.748,365.001c0,0,10.41,6.21,0.769,16.266"/>
<path fill="none" stroke="#FFFFFF" stroke-miterlimit="10" d="M355.736,367.78c0,0,7.513,4.674,0,11.298"/>
<circle fill="#232323" stroke="#1A1A1A" stroke-miterlimit="10" cx="185" cy="373.667" r="15"/>
<linearGradient id="SVGID_7_" gradientUnits="userSpaceOnUse" x1="185" y1="387.667" x2="185" y2="357.667">
	<stop  offset="0" style="stop-color:#1A1A1A"/>
	<stop  offset="1" style="stop-color:#4D4D4D"/>
</linearGradient>
<circle fill="url(#SVGID_7_)" stroke="#808080" stroke-miterlimit="10" cx="185" cy="372.667" r="15"/>
<rect x="186" y="366" display="none" fill="#F9F9F9" width="4" height="15"/>
<polygon fill="#F9F9F9" points="184,363.4 195.394,372.401 184,381.4 "/>
<rect x="178" y="364" fill="#F9F9F9" width="4" height="17"/>
<circle fill="#232323" stroke="#1A1A1A" stroke-miterlimit="10" cx="140" cy="373.667" r="15"/>
<linearGradient id="SVGID_8_" gradientUnits="userSpaceOnUse" x1="140" y1="387.667" x2="140" y2="357.667">
	<stop  offset="0" style="stop-color:#1A1A1A"/>
	<stop  offset="1" style="stop-color:#4D4D4D"/>
</linearGradient>
<circle fill="url(#SVGID_8_)" stroke="#808080" stroke-miterlimit="10" cx="140" cy="372.667" r="15"/>
<rect x="141" y="366" display="none" fill="#F9F9F9" width="4" height="15"/>
<polygon fill="#F9F9F9" points="134,363.4 149.394,372.401 134,381.4 "/>
<circle fill="#232323" stroke="#1A1A1A" stroke-miterlimit="10" cx="92" cy="373.667" r="15"/>
<linearGradient id="SVGID_9_" gradientUnits="userSpaceOnUse" x1="92" y1="387.667" x2="92" y2="357.667">
	<stop  offset="0" style="stop-color:#1A1A1A"/>
	<stop  offset="1" style="stop-color:#4D4D4D"/>
</linearGradient>
<circle fill="url(#SVGID_9_)" stroke="#808080" stroke-miterlimit="10" cx="92" cy="372.667" r="15"/>
<rect x="93" y="366" display="none" fill="#F9F9F9" width="4" height="15"/>
<rect x="85" y="366" fill="#F9F9F9" width="15" height="15"/>
<linearGradient id="SVGID_10_" gradientUnits="userSpaceOnUse" x1="448" y1="377" x2="448" y2="369">
	<stop  offset="0" style="stop-color:#1A1A1A"/>
	<stop  offset="0.497" style="stop-color:#808080"/>
	<stop  offset="1" style="stop-color:#1A1A1A"/>
</linearGradient>
<path fill="url(#SVGID_10_)" stroke="#1A1A1A" stroke-width="2" stroke-miterlimit="10" d="M523,373c0-2.209-2.015-4-4.5-4h-141
	c-2.485,0-4.5,1.791-4.5,4l0,0c0,2.209,2.015,4,4.5,4h141C520.985,377,523,375.209,523,373L523,373z"/>
<radialGradient id="SVGID_11_" cx="390.332" cy="373.0938" r="10.0005" gradientUnits="userSpaceOnUse">
	<stop  offset="0" style="stop-color:#999999"/>
	<stop  offset="0.8242" style="stop-color:#B3B3B3"/>
	<stop  offset="1" style="stop-color:#1A1A1A"/>
</radialGradient>
<circle fill="url(#SVGID_11_)" stroke="#1A1A1A" stroke-miterlimit="10" cx="390.332" cy="373.095" r="10"/>
<linearGradient id="SVGID_12_" gradientUnits="userSpaceOnUse" x1="273.0005" y1="344" x2="273.0005" y2="335">
	<stop  offset="0" style="stop-color:#1A1A1A"/>
	<stop  offset="0.497" style="stop-color:#808080"/>
	<stop  offset="1" style="stop-color:#1A1A1A"/>
</linearGradient>
<path fill="url(#SVGID_12_)" stroke="#1A1A1A" stroke-width="2" stroke-miterlimit="10" d="M523,339.5c0-2.485-1.952-4.5-4.36-4.5
	H27.36c-2.408,0-4.36,2.015-4.36,4.5l0,0c0,2.485,1.952,4.5,4.36,4.5H518.64C521.048,344,523,341.985,523,339.5L523,339.5z"/>
<circle fill="#232323" stroke="#1A1A1A" stroke-miterlimit="10" cx="43" cy="373.667" r="15"/>
<linearGradient id="SVGID_13_" gradientUnits="userSpaceOnUse" x1="43" y1="387.667" x2="43" y2="357.667">
	<stop  offset="0" style="stop-color:#1A1A1A"/>
	<stop  offset="1" style="stop-color:#4D4D4D"/>
</linearGradient>
<circle fill="url(#SVGID_13_)" stroke="#808080" stroke-miterlimit="10" cx="43" cy="372.667" r="15"/>
<rect x="44" y="366" fill="#F9F9F9" width="4" height="15"/>
<rect x="37" y="366" fill="#F9F9F9" width="4" height="15"/>
<circle fill="#232323" stroke="#1A1A1A" stroke-linecap="round" stroke-miterlimit="10" cx="350" cy="373.667" r="15"/>
<linearGradient id="SVGID_14_" gradientUnits="userSpaceOnUse" x1="350" y1="387.667" x2="350" y2="357.667">
	<stop  offset="0" style="stop-color:#1A1A1A"/>
	<stop  offset="1" style="stop-color:#4D4D4D"/>
</linearGradient>
<circle fill="url(#SVGID_14_)" stroke="#808080" stroke-linecap="round" stroke-miterlimit="10" cx="350" cy="372.667" r="15"/>
<rect x="351" y="366" display="none" fill="#F9F9F9" width="4" height="15"/>
<polygon fill="#FFFFFF" points="338,369.851 338,376.15 339.225,377 343,377 343,369 339.4,369 "/>
<polygon fill="#FFFFFF" points="344,368.451 344,377.551 349.048,382 350.601,382 352,380.329 352,365.694 350.426,364 349.069,364 
	"/>
<path fill="none" stroke="#FFFFFF" stroke-miterlimit="10" d="M353.666,370.087c0,0,4.082,2.84,0,6.033"/>
<path fill="none" stroke="#FFFFFF" stroke-miterlimit="10" d="M357.748,365.001c0,0,10.41,6.21,0.769,16.266"/>
<path fill="none" stroke="#FFFFFF" stroke-miterlimit="10" d="M355.736,367.78c0,0,7.513,4.674,0,11.298"/>
<circle fill="#232323" stroke="#1A1A1A" stroke-miterlimit="10" cx="185" cy="373.667" r="15"/>
<linearGradient id="SVGID_15_" gradientUnits="userSpaceOnUse" x1="185" y1="387.667" x2="185" y2="357.667">
	<stop  offset="0" style="stop-color:#1A1A1A"/>
	<stop  offset="1" style="stop-color:#4D4D4D"/>
</linearGradient>
<circle fill="url(#SVGID_15_)" stroke="#808080" stroke-miterlimit="10" cx="185" cy="372.667" r="15"/>
<rect x="186" y="366" display="none" fill="#F9F9F9" width="4" height="15"/>
<polygon fill="#F9F9F9" points="184,363.4 195.394,372.401 184,381.4 "/>
<rect x="178" y="364" fill="#F9F9F9" width="4" height="17"/>
<circle fill="#232323" stroke="#1A1A1A" stroke-miterlimit="10" cx="140" cy="373.667" r="15"/>
<linearGradient id="SVGID_16_" gradientUnits="userSpaceOnUse" x1="140" y1="387.667" x2="140" y2="357.667">
	<stop  offset="0" style="stop-color:#1A1A1A"/>
	<stop  offset="1" style="stop-color:#4D4D4D"/>
</linearGradient>
<circle fill="url(#SVGID_16_)" stroke="#808080" stroke-miterlimit="10" cx="140" cy="372.667" r="15"/>
<rect x="141" y="366" display="none" fill="#F9F9F9" width="4" height="15"/>
<polygon fill="#F9F9F9" points="134,363.4 149.394,372.401 134,381.4 "/>
<circle fill="#232323" stroke="#1A1A1A" stroke-miterlimit="10" cx="92" cy="373.667" r="15"/>
<linearGradient id="SVGID_17_" gradientUnits="userSpaceOnUse" x1="92" y1="387.667" x2="92" y2="357.667">
	<stop  offset="0" style="stop-color:#1A1A1A"/>
	<stop  offset="1" style="stop-color:#4D4D4D"/>
</linearGradient>
<circle fill="url(#SVGID_17_)" stroke="#808080" stroke-miterlimit="10" cx="92" cy="372.667" r="15"/>
<rect x="93" y="366" display="none" fill="#F9F9F9" width="4" height="15"/>
<rect x="85" y="366" fill="#F9F9F9" width="15" height="15"/>
<linearGradient id="SVGID_18_" gradientUnits="userSpaceOnUse" x1="448" y1="377" x2="448" y2="369">
	<stop  offset="0" style="stop-color:#1A1A1A"/>
	<stop  offset="0.497" style="stop-color:#808080"/>
	<stop  offset="1" style="stop-color:#1A1A1A"/>
</linearGradient>
<path fill="url(#SVGID_18_)" stroke="#1A1A1A" stroke-width="2" stroke-miterlimit="10" d="M523,373c0-2.209-2.015-4-4.5-4h-141
	c-2.485,0-4.5,1.791-4.5,4l0,0c0,2.209,2.015,4,4.5,4h141C520.985,377,523,375.209,523,373L523,373z"/>
<radialGradient id="SVGID_19_" cx="390.332" cy="373.0938" r="10.0005" gradientUnits="userSpaceOnUse">
	<stop  offset="0" style="stop-color:#999999"/>
	<stop  offset="0.8242" style="stop-color:#B3B3B3"/>
	<stop  offset="1" style="stop-color:#1A1A1A"/>
</radialGradient>
<circle fill="url(#SVGID_19_)" stroke="#1A1A1A" stroke-miterlimit="10" cx="390.332" cy="373.095" r="10"/>
<path stroke="#000000" stroke-miterlimit="10" d="M550.5,370.719c0,16.447-13.581,29.781-30.334,29.781H33.834
	C17.081,400.5,3.5,387.166,3.5,370.719V33.281C3.5,16.833,17.081,3.5,33.834,3.5h486.332c16.753,0,30.334,13.333,30.334,29.781
	V370.719z"/>
<linearGradient id="SVGID_20_" gradientUnits="userSpaceOnUse" x1="274.0005" y1="397.5" x2="274.0005" y2="0.5005">
	<stop  offset="0" style="stop-color:#1A1A1A"/>
	<stop  offset="0.1879" style="stop-color:#666666"/>
	<stop  offset="0.8545" style="stop-color:#1A1A1A"/>
	<stop  offset="0.9455" style="stop-color:#262626"/>
	<stop  offset="0.9455" style="stop-color:#2E2E2E"/>
	<stop  offset="0.9515" style="stop-color:#4D4D4D"/>
	<stop  offset="1" style="stop-color:#999999"/>
</linearGradient>
<path fill="url(#SVGID_20_)" stroke="#000000" stroke-miterlimit="10" d="M547.5,367.719c0,16.447-13.581,29.781-30.334,29.781
	H30.834C14.081,397.5,0.5,384.166,0.5,367.719V30.281C0.5,13.833,14.081,0.5,30.834,0.5h486.332
	c16.753,0,30.334,13.333,30.334,29.781V367.719z"/>
<linearGradient id="SVGID_21_" gradientUnits="userSpaceOnUse" x1="273.5005" y1="321.5" x2="273.5005" y2="34.5005">
	<stop  offset="0" style="stop-color:#000000"/>
	<stop  offset="0.8545" style="stop-color:#1A1A1A"/>
	<stop  offset="0.9758" style="stop-color:#000000"/>
</linearGradient>
<rect x="15.5" y="34.5" fill="url(#SVGID_21_)" stroke="#CCCCCC" stroke-miterlimit="10" width="516" height="287"/>
<rect x="16" y="37" fill="#232323" width="514" height="282"/>
</svg>
