<?xml version="1.0" encoding="utf-8"?>
<!-- Generator: Adobe Illustrator 15.0.0, SVG Export Plug-In  -->
<!DOCTYPE svg PUBLIC "-//W3C//DTD SVG 1.1//EN" "http://www.w3.org/Graphics/SVG/1.1/DTD/svg11.dtd" [
	<!ENTITY ns_flows "http://ns.adobe.com/Flows/1.0/">
]>
<svg version="1.1"
	 xmlns="http://www.w3.org/2000/svg" xmlns:xlink="http://www.w3.org/1999/xlink" xmlns:a="http://ns.adobe.com/AdobeSVGViewerExtensions/3.0/"
	 x="0px" y="0px" width="115px" height="200px" enable-background="new -1.306 -5.017 115 200"
	 xml:space="preserve">
<defs>
</defs>
<path d="M30.994,75.465L0,94.735V30.994l13.609-13.61l17.385,17.385V75.465z M30.994,158.475l-17.385,17.383L0,162.383v-63.74
	l30.994,15.363V158.475z M94.732,13.611L77.35,30.994H35.035L17.383,13.611L30.994,0h50.131L94.732,13.611z M94.732,179.766
	l-13.607,13.477H30.994l-13.611-13.477l17.652-17.383H77.35L94.732,179.766z M112.389,94.735L81.125,75.465V34.769l17.381-17.385
	l13.883,13.61V94.735z M112.389,162.383l-13.883,13.475l-17.381-17.383v-44.469l31.264-15.363V162.383z"/>
</svg>
