<?xml version="1.0" encoding="utf-8"?>
<!-- Generator: Adobe Illustrator 15.0.0, SVG Export Plug-In  -->
<!DOCTYPE svg PUBLIC "-//W3C//DTD SVG 1.1//EN" "http://www.w3.org/Graphics/SVG/1.1/DTD/svg11.dtd" [
	<!ENTITY ns_flows "http://ns.adobe.com/Flows/1.0/">
]>
<svg version="1.1"
	 xmlns="http://www.w3.org/2000/svg" xmlns:xlink="http://www.w3.org/1999/xlink" xmlns:a="http://ns.adobe.com/AdobeSVGViewerExtensions/3.0/"
	 x="0px" y="0px" width="115px" height="200px" enable-background="new -0.004 -5.016 115 200"
	 xml:space="preserve">
<defs>
</defs>
<path d="M32.295,75.465L1.303,94.734v-63.74l13.609-13.611l17.383,17.385V75.465z M105.604,96.621L78.652,110.23H36.338
	L9.119,96.621l27.219-17.384h42.314L105.604,96.621z M96.037,13.61L78.652,30.994H36.338L18.686,13.61L32.295,0h50.131L96.037,13.61
	z M96.037,179.766l-13.611,13.477H13.607L0,179.766l17.654-17.383h60.998L96.037,179.766z M113.689,94.734l-31.264-19.27V34.768
	l17.385-17.385l13.879,13.611V94.734z M113.689,162.383l-13.879,13.477l-17.385-17.385v-44.471l31.264-15.361V162.383z"/>
</svg>
