<?xml version="1.0" encoding="utf-8"?>
<!-- Generator: Adobe Illustrator 15.0.0, SVG Export Plug-In  -->
<!DOCTYPE svg PUBLIC "-//W3C//DTD SVG 1.1//EN" "http://www.w3.org/Graphics/SVG/1.1/DTD/svg11.dtd" [
	<!ENTITY ns_flows "http://ns.adobe.com/Flows/1.0/">
]>
<svg version="1.1"
	 xmlns="http://www.w3.org/2000/svg" xmlns:xlink="http://www.w3.org/1999/xlink" xmlns:a="http://ns.adobe.com/AdobeSVGViewerExtensions/3.0/"
	 x="0px" y="0px" width="115px" height="200px" enable-background="new -0.003 -5.016 115 200"
	 xml:space="preserve">
<defs>
</defs>
<path d="M32.297,158.475l-17.385,17.385L1.303,162.383v-63.74l30.994,15.361V158.475z M105.604,96.621L78.652,110.23H36.34
	L9.119,96.621L36.34,79.237h42.313L105.604,96.621z M96.037,13.61L78.652,30.994H17.654L0,13.61L13.611,0h68.816L96.037,13.61z
	 M114.994,179.766l-13.611,13.477H32.297l-13.609-13.477l17.652-17.383h61.27L114.994,179.766z M113.689,94.734l-31.262-19.27
	V34.768l17.381-17.385l13.881,13.611V94.734z"/>
</svg>
