<?xml version="1.0" encoding="utf-8"?>
<!-- Generator: Adobe Illustrator 15.0.0, SVG Export Plug-In  -->
<!DOCTYPE svg PUBLIC "-//W3C//DTD SVG 1.1//EN" "http://www.w3.org/Graphics/SVG/1.1/DTD/svg11.dtd" [
	<!ENTITY ns_flows "http://ns.adobe.com/Flows/1.0/">
]>
<svg version="1.1"
	 xmlns="http://www.w3.org/2000/svg" xmlns:xlink="http://www.w3.org/1999/xlink" xmlns:a="http://ns.adobe.com/AdobeSVGViewerExtensions/3.0/"
	 x="0px" y="0px" width="115px" height="200px" enable-background="new -0.004 -5.016 115 200"
	 xml:space="preserve">
<defs>
</defs>
<path d="M106.908,96.621L79.957,110.23L28.819,110.1L1.6,96.489l27.22-17.384l51.138,0.132L106.908,96.621z M97.34,13.61
	L79.957,30.994H17.654L0,13.61L13.61,0h70.118L97.34,13.61z M97.34,179.766l-13.611,13.477H13.61L0,179.766l17.654-17.383h62.303
	L97.34,179.766z M114.992,94.734l-31.264-19.27V34.768l17.385-17.385l13.879,13.611V94.734z M114.992,162.383l-13.879,13.477
	l-17.385-17.385v-44.471l31.264-15.361V162.383z"/>
</svg>
