<?xml version="1.0" encoding="utf-8"?>
<!-- Generator: Adobe Illustrator 15.0.0, SVG Export Plug-In  -->
<!DOCTYPE svg PUBLIC "-//W3C//DTD SVG 1.1//EN" "http://www.w3.org/Graphics/SVG/1.1/DTD/svg11.dtd" [
	<!ENTITY ns_flows "http://ns.adobe.com/Flows/1.0/">
]>
<svg version="1.1"
	 xmlns="http://www.w3.org/2000/svg" xmlns:xlink="http://www.w3.org/1999/xlink" xmlns:a="http://ns.adobe.com/AdobeSVGViewerExtensions/3.0/"
	 x="0px" y="0px" width="115px" height="200px" enable-background="new -0.655 -3.379 115 200"
	 xml:space="preserve">
<defs>
</defs>
<path d="M30.992,75.465L0,94.734v-63.74l13.609-13.611l17.383,17.385V75.465z M104.303,96.621L77.352,110.23H35.035L7.814,96.621
	l27.221-17.384h42.316L104.303,96.621z M113.689,13.61L96.307,30.994H35.035L17.385,13.61L30.992,0h69.09L113.689,13.61z
	 M94.732,179.766l-13.609,13.477H30.992l-13.607-13.477l17.65-17.383h42.316L94.732,179.766z M112.389,162.383l-13.881,13.477
	l-17.385-17.385v-44.471l31.266-15.361V162.383z"/>
</svg>
