<?xml version="1.0" encoding="utf-8"?>
<!-- Generator: Adobe Illustrator 15.0.0, SVG Export Plug-In  -->
<!DOCTYPE svg PUBLIC "-//W3C//DTD SVG 1.1//EN" "http://www.w3.org/Graphics/SVG/1.1/DTD/svg11.dtd" [
	<!ENTITY ns_flows "http://ns.adobe.com/Flows/1.0/">
]>
<svg version="1.1"
	 xmlns="http://www.w3.org/2000/svg" xmlns:xlink="http://www.w3.org/1999/xlink" xmlns:a="http://ns.adobe.com/AdobeSVGViewerExtensions/3.0/"
	 x="0px" y="0px" width="115px" height="200px" enable-background="new -1.307 -3.379 115 200"
	 xml:space="preserve">
<defs>
</defs>
<path d="M30.996,75.467L0,94.734v-63.74l13.611-13.609L30.996,34.77V75.467z M30.996,158.475l-17.385,17.385L0,162.384v-63.74
	l30.996,15.362V158.475z M104.304,96.621l-26.953,13.611H35.039L7.816,96.621l27.223-17.383h42.312L104.304,96.621z M94.734,13.611
	L77.351,30.994H35.039L17.384,13.611L30.996,0h50.127L94.734,13.611z M94.734,179.768l-13.611,13.475H30.996l-13.612-13.475
	l17.655-17.384h42.312L94.734,179.768z M112.387,94.734L81.123,75.467V34.77l17.384-17.385l13.88,13.609V94.734z M112.387,162.384
	l-13.88,13.476l-17.384-17.385v-44.469l31.264-15.362V162.384z"/>
</svg>
