<?xml version="1.0" encoding="utf-8"?>
<!-- Generator: Adobe Illustrator 15.0.0, SVG Export Plug-In  -->
<!DOCTYPE svg PUBLIC "-//W3C//DTD SVG 1.1//EN" "http://www.w3.org/Graphics/SVG/1.1/DTD/svg11.dtd" [
	<!ENTITY ns_flows "http://ns.adobe.com/Flows/1.0/">
]>
<svg version="1.1"
	 xmlns="http://www.w3.org/2000/svg" xmlns:xlink="http://www.w3.org/1999/xlink" xmlns:a="http://ns.adobe.com/AdobeSVGViewerExtensions/3.0/"
	 x="0px" y="0px" width="32px" height="32px" viewBox="-0.5 -0.167 32 32" enable-background="new -0.5 -0.167 32 32"
	 xml:space="preserve">
<defs>
</defs>
<circle fill="#232323" stroke="#1A1A1A" stroke-linecap="round" stroke-miterlimit="10" cx="15.5" cy="16.5" r="15"/>
<linearGradient id="SVGID_1_" gradientUnits="userSpaceOnUse" x1="15.5" y1="30.5" x2="15.5" y2="0.5">
	<stop  offset="0" style="stop-color:#1A1A1A"/>
	<stop  offset="1" style="stop-color:#4D4D4D"/>
</linearGradient>
<circle fill="url(#SVGID_1_)" stroke="#808080" stroke-linecap="round" stroke-miterlimit="10" cx="15.5" cy="15.5" r="15"/>
<rect x="16.5" y="8.833" display="none" fill="#F9F9F9" width="4" height="15"/>
<polygon fill="#FFFFFF" points="3.5,12.684 3.5,18.983 4.725,19.833 8.5,19.833 8.5,11.833 4.9,11.833 "/>
<polygon fill="#FFFFFF" points="9.5,11.284 9.5,20.384 14.548,24.833 16.101,24.833 17.5,23.162 17.5,8.527 15.926,6.833 
	14.569,6.833 "/>
<path fill="none" stroke="#FFFFFF" stroke-miterlimit="10" d="M19.166,12.92c0,0,4.082,2.84,0,6.033"/>
<path fill="none" stroke="#FFFFFF" stroke-miterlimit="10" d="M23.248,7.834c0,0,10.41,6.21,0.769,16.266"/>
<path fill="none" stroke="#FFFFFF" stroke-miterlimit="10" d="M21.236,10.613c0,0,7.513,4.674,0,11.298"/>
</svg>
