<?xml version="1.0" encoding="utf-8"?>
<!-- Generator: Adobe Illustrator 15.0.0, SVG Export Plug-In  -->
<!DOCTYPE svg PUBLIC "-//W3C//DTD SVG 1.1//EN" "http://www.w3.org/Graphics/SVG/1.1/DTD/svg11.dtd" [
	<!ENTITY ns_flows "http://ns.adobe.com/Flows/1.0/">
]>
<svg version="1.1"
	 xmlns="http://www.w3.org/2000/svg" xmlns:xlink="http://www.w3.org/1999/xlink" xmlns:a="http://ns.adobe.com/AdobeSVGViewerExtensions/3.0/"
	 x="0px" y="0px" width="400px" height="320px" viewBox="1 0 400 320" enable-background="new 1 0 400 320" xml:space="preserve">
<defs>
</defs>
<path fill="#1A1A1A" stroke="#000000" stroke-miterlimit="10" d="M18.5,215.837c0,3.128-1.898,5.663-4.239,5.663H4.739
	c-2.341,0-4.239-2.535-4.239-5.663V85.163c0-3.128,1.898-5.663,4.239-5.663h9.521c2.341,0,4.239,2.535,4.239,5.663V215.837z"/>
<linearGradient id="SVGID_1_" gradientUnits="userSpaceOnUse" x1="205.3545" y1="262" x2="205.3545" y2="217">
	<stop  offset="0.0182" style="stop-color:#1A1A1A"/>
	<stop  offset="1" style="stop-color:#808080"/>
</linearGradient>
<polygon fill="url(#SVGID_1_)" points="297.348,262 113.36,262 130.318,217 284.63,217 "/>
<linearGradient id="SVGID_2_" gradientUnits="userSpaceOnUse" x1="389.1299" y1="156.1699" x2="400.4868" y2="156.1699">
	<stop  offset="0.0182" style="stop-color:#333333"/>
	<stop  offset="0.1939" style="stop-color:#666666"/>
	<stop  offset="0.4848" style="stop-color:#818181"/>
	<stop  offset="1" style="stop-color:#CACACA"/>
</linearGradient>
<ellipse fill="url(#SVGID_2_)" cx="394.809" cy="156.17" rx="5.678" ry="153.442"/>
<linearGradient id="SVGID_3_" gradientUnits="userSpaceOnUse" x1="391" y1="312" x2="391" y2="1">
	<stop  offset="0.0182" style="stop-color:#333333"/>
	<stop  offset="0.1939" style="stop-color:#666666"/>
	<stop  offset="0.4848" style="stop-color:#B1B1B1"/>
	<stop  offset="1" style="stop-color:#4D4D4D"/>
</linearGradient>
<path fill="url(#SVGID_3_)" d="M395,306.854c0,2.842-0.655,5.146-1.464,5.146h-5.072c-0.809,0-1.464-2.304-1.464-5.146V6.146
	C387,3.304,387.655,1,388.464,1h5.072C394.345,1,395,3.304,395,6.146V306.854z"/>
<linearGradient id="SVGID_4_" gradientUnits="userSpaceOnUse" x1="200.5" y1="233.5" x2="200.5" y2="65.5">
	<stop  offset="0.0182" style="stop-color:#333333"/>
	<stop  offset="0.3394" style="stop-color:#666666"/>
	<stop  offset="0.4848" style="stop-color:#818181"/>
	<stop  offset="0.697" style="stop-color:#989898"/>
	<stop  offset="1" style="stop-color:#333333"/>
</linearGradient>
<rect x="60.5" y="65.5" fill="url(#SVGID_4_)" stroke="#000000" stroke-miterlimit="10" width="280" height="168"/>
<path fill="#1A1A1A" d="M68,241.573c0,4.102-2.489,7.427-5.56,7.427H14.56c-3.07,0-5.56-3.325-5.56-7.427V57.427
	C9,53.325,11.489,50,14.56,50H62.44c3.07,0,5.56,3.325,5.56,7.427V241.573z"/>
<linearGradient id="SVGID_5_" gradientUnits="userSpaceOnUse" x1="35.5" y1="249" x2="35.5" y2="50">
	<stop  offset="0.0182" style="stop-color:#333333"/>
	<stop  offset="0.1939" style="stop-color:#666666"/>
	<stop  offset="0.4848" style="stop-color:#818181"/>
	<stop  offset="1" style="stop-color:#989898"/>
</linearGradient>
<path fill="url(#SVGID_5_)" d="M65,241.573c0,4.102-2.489,7.427-5.56,7.427H11.56C8.489,249,6,245.675,6,241.573V57.427
	C6,53.325,8.489,50,11.56,50h47.88c3.071,0,5.56,3.325,5.56,7.427V241.573z"/>
<linearGradient id="SVGID_6_" gradientUnits="userSpaceOnUse" x1="207" y1="236" x2="207" y2="229">
	<stop  offset="0" style="stop-color:#4D4D4D"/>
	<stop  offset="0.9939" style="stop-color:#1A1A1A"/>
</linearGradient>
<rect x="83" y="229" fill="url(#SVGID_6_)" width="248" height="7"/>
<rect x="83" y="235" fill="#FFFFFF" width="248" height="1"/>
<linearGradient id="SVGID_7_" gradientUnits="userSpaceOnUse" x1="207" y1="225" x2="207" y2="217">
	<stop  offset="0" style="stop-color:#4D4D4D"/>
	<stop  offset="0.9939" style="stop-color:#1A1A1A"/>
</linearGradient>
<rect x="83" y="217" fill="url(#SVGID_7_)" width="248" height="8"/>
<rect x="83" y="224" fill="#FFFFFF" width="248" height="1"/>
<linearGradient id="SVGID_8_" gradientUnits="userSpaceOnUse" x1="207" y1="214" x2="207" y2="206">
	<stop  offset="0" style="stop-color:#4D4D4D"/>
	<stop  offset="0.9939" style="stop-color:#1A1A1A"/>
</linearGradient>
<rect x="83" y="206" fill="url(#SVGID_8_)" width="248" height="8"/>
<rect x="83" y="213" fill="#FFFFFF" width="248" height="1"/>
<linearGradient id="SVGID_9_" gradientUnits="userSpaceOnUse" x1="207" y1="203" x2="207" y2="195">
	<stop  offset="0" style="stop-color:#4D4D4D"/>
	<stop  offset="0.9939" style="stop-color:#1A1A1A"/>
</linearGradient>
<rect x="83" y="195" fill="url(#SVGID_9_)" width="248" height="8"/>
<rect x="83" y="201" fill="#FFFFFF" width="248" height="2"/>
<linearGradient id="SVGID_10_" gradientUnits="userSpaceOnUse" x1="207" y1="191" x2="207" y2="183">
	<stop  offset="0" style="stop-color:#4D4D4D"/>
	<stop  offset="0.9939" style="stop-color:#1A1A1A"/>
</linearGradient>
<rect x="83" y="183" fill="url(#SVGID_10_)" width="248" height="8"/>
<rect x="83" y="190" fill="#FFFFFF" width="248" height="1"/>
<linearGradient id="SVGID_11_" gradientUnits="userSpaceOnUse" x1="207" y1="180" x2="207" y2="172">
	<stop  offset="0" style="stop-color:#4D4D4D"/>
	<stop  offset="0.9939" style="stop-color:#1A1A1A"/>
</linearGradient>
<rect x="83" y="172" fill="url(#SVGID_11_)" width="248" height="8"/>
<rect x="83" y="179" fill="#FFFFFF" width="248" height="1"/>
<linearGradient id="SVGID_12_" gradientUnits="userSpaceOnUse" x1="207" y1="169" x2="207" y2="161">
	<stop  offset="0" style="stop-color:#4D4D4D"/>
	<stop  offset="0.9939" style="stop-color:#1A1A1A"/>
</linearGradient>
<rect x="83" y="161" fill="url(#SVGID_12_)" width="248" height="8"/>
<rect x="83" y="167" fill="#FFFFFF" width="248" height="2"/>
<linearGradient id="SVGID_13_" gradientUnits="userSpaceOnUse" x1="207" y1="157" x2="207" y2="149">
	<stop  offset="0" style="stop-color:#4D4D4D"/>
	<stop  offset="0.9939" style="stop-color:#1A1A1A"/>
</linearGradient>
<rect x="83" y="149" fill="url(#SVGID_13_)" width="248" height="8"/>
<rect x="83" y="156" fill="#FFFFFF" width="248" height="1"/>
<linearGradient id="SVGID_14_" gradientUnits="userSpaceOnUse" x1="207" y1="146" x2="207" y2="138">
	<stop  offset="0" style="stop-color:#4D4D4D"/>
	<stop  offset="0.9939" style="stop-color:#1A1A1A"/>
</linearGradient>
<rect x="83" y="138" fill="url(#SVGID_14_)" width="248" height="8"/>
<rect x="83" y="145" fill="#FFFFFF" width="248" height="1"/>
<linearGradient id="SVGID_15_" gradientUnits="userSpaceOnUse" x1="207" y1="135" x2="207" y2="127">
	<stop  offset="0" style="stop-color:#4D4D4D"/>
	<stop  offset="0.9939" style="stop-color:#1A1A1A"/>
</linearGradient>
<rect x="83" y="127" fill="url(#SVGID_15_)" width="248" height="8"/>
<rect x="83" y="133" fill="#FFFFFF" width="248" height="2"/>
<linearGradient id="SVGID_16_" gradientUnits="userSpaceOnUse" x1="207" y1="123" x2="207" y2="115">
	<stop  offset="0" style="stop-color:#4D4D4D"/>
	<stop  offset="0.9939" style="stop-color:#1A1A1A"/>
</linearGradient>
<rect x="83" y="115" fill="url(#SVGID_16_)" width="248" height="8"/>
<rect x="83" y="122" fill="#FFFFFF" width="248" height="1"/>
<linearGradient id="SVGID_17_" gradientUnits="userSpaceOnUse" x1="207" y1="113" x2="207" y2="105">
	<stop  offset="0" style="stop-color:#4D4D4D"/>
	<stop  offset="0.9939" style="stop-color:#1A1A1A"/>
</linearGradient>
<rect x="83" y="105" fill="url(#SVGID_17_)" width="248" height="8"/>
<rect x="83" y="111" fill="#FFFFFF" width="248" height="2"/>
<linearGradient id="SVGID_18_" gradientUnits="userSpaceOnUse" x1="207" y1="103" x2="207" y2="95">
	<stop  offset="0" style="stop-color:#4D4D4D"/>
	<stop  offset="0.9939" style="stop-color:#1A1A1A"/>
</linearGradient>
<rect x="83" y="95" fill="url(#SVGID_18_)" width="248" height="8"/>
<rect x="83" y="101" fill="#FFFFFF" width="248" height="2"/>
<linearGradient id="SVGID_19_" gradientUnits="userSpaceOnUse" x1="207" y1="81" x2="207" y2="73">
	<stop  offset="0" style="stop-color:#4D4D4D"/>
	<stop  offset="0.9939" style="stop-color:#1A1A1A"/>
</linearGradient>
<rect x="83" y="73" fill="url(#SVGID_19_)" width="248" height="8"/>
<rect x="83" y="79" fill="#FFFFFF" width="248" height="2"/>
<linearGradient id="SVGID_20_" gradientUnits="userSpaceOnUse" x1="207" y1="71" x2="207" y2="63">
	<stop  offset="0" style="stop-color:#4D4D4D"/>
	<stop  offset="0.9939" style="stop-color:#1A1A1A"/>
</linearGradient>
<rect x="83" y="63" fill="url(#SVGID_20_)" width="248" height="8"/>
<rect x="83" y="69" fill="#FFFFFF" width="248" height="2"/>
<linearGradient id="SVGID_21_" gradientUnits="userSpaceOnUse" x1="207" y1="81" x2="207" y2="73">
	<stop  offset="0" style="stop-color:#4D4D4D"/>
	<stop  offset="0.9939" style="stop-color:#1A1A1A"/>
</linearGradient>
<rect x="83" y="73" fill="url(#SVGID_21_)" width="248" height="8"/>
<rect x="83" y="79" fill="#FFFFFF" width="248" height="2"/>
<linearGradient id="SVGID_22_" gradientUnits="userSpaceOnUse" x1="207" y1="91" x2="207" y2="84">
	<stop  offset="0" style="stop-color:#4D4D4D"/>
	<stop  offset="0.9939" style="stop-color:#1A1A1A"/>
</linearGradient>
<rect x="83" y="84" fill="url(#SVGID_22_)" width="248" height="7"/>
<linearGradient id="SVGID_23_" gradientUnits="userSpaceOnUse" x1="191.5" y1="285" x2="191.5" y2="262">
	<stop  offset="0" style="stop-color:#1A1A1A"/>
	<stop  offset="0.903" style="stop-color:#818181"/>
	<stop  offset="1" style="stop-color:#CACACA"/>
</linearGradient>
<rect x="65" y="262" fill="url(#SVGID_23_)" width="253" height="23"/>
<linearGradient id="SVGID_24_" gradientUnits="userSpaceOnUse" x1="361.5" y1="312" x2="361.5" y2="1">
	<stop  offset="0.0182" style="stop-color:#333333"/>
	<stop  offset="0.1939" style="stop-color:#666666"/>
	<stop  offset="0.4848" style="stop-color:#818181"/>
	<stop  offset="1" style="stop-color:#989898"/>
</linearGradient>
<path fill="url(#SVGID_24_)" d="M387,306.854c0,2.842-1.725,5.146-3.853,5.146h-43.295c-2.128,0-3.853-2.304-3.853-5.146V6.146
	C336,3.304,337.725,1,339.853,1h43.295C385.275,1,387,3.304,387,6.146V306.854z"/>
<linearGradient id="SVGID_25_" gradientUnits="userSpaceOnUse" x1="349" y1="311" x2="349" y2="0">
	<stop  offset="0.0182" style="stop-color:#B1B1B1"/>
	<stop  offset="1" style="stop-color:#F0F0F0"/>
</linearGradient>
<path opacity="0.5" fill="url(#SVGID_25_)" d="M362,305.854c0,2.842-1.725,5.146-3.853,5.146h-18.295
	c-2.128,0-3.853-2.304-3.853-5.146V5.146C336,2.304,337.725,0,339.853,0h18.295C360.275,0,362,2.304,362,5.146V305.854z"/>
<rect x="333" y="292" fill="#1A1A1A" width="54" height="11"/>
<rect x="333" y="300" fill="#FFFFFF" width="54" height="3"/>
<rect x="333" y="266" fill="#1A1A1A" width="54" height="11"/>
<rect x="333" y="275" fill="#FFFFFF" width="54" height="2"/>
<rect x="333" y="240" fill="#1A1A1A" width="54" height="11"/>
<rect x="333" y="249" fill="#FFFFFF" width="54" height="2"/>
<rect x="333" y="215" fill="#1A1A1A" width="54" height="10"/>
<rect x="333" y="223" fill="#FFFFFF" width="54" height="2"/>
<rect x="333" y="189" fill="#1A1A1A" width="54" height="11"/>
<rect x="333" y="198" fill="#FFFFFF" width="54" height="2"/>
<rect x="333" y="164" fill="#1A1A1A" width="54" height="11"/>
<rect x="333" y="173" fill="#FFFFFF" width="54" height="2"/>
<rect x="333" y="139" fill="#1A1A1A" width="54" height="10"/>
<rect x="333" y="147" fill="#FFFFFF" width="54" height="2"/>
<rect x="333" y="113" fill="#1A1A1A" width="54" height="11"/>
<rect x="333" y="121" fill="#FFFFFF" width="54" height="3"/>
<rect x="333" y="88" fill="#1A1A1A" width="54" height="11"/>
<rect x="333" y="96" fill="#FFFFFF" width="54" height="3"/>
<rect x="333" y="62" fill="#1A1A1A" width="54" height="11"/>
<rect x="333" y="71" fill="#FFFFFF" width="54" height="2"/>
<rect x="333" y="36" fill="#1A1A1A" width="54" height="11"/>
<rect x="333" y="45" fill="#FFFFFF" width="54" height="2"/>
<rect x="333" y="11" fill="#1A1A1A" width="54" height="10"/>
<rect x="333" y="19" fill="#FFFFFF" width="54" height="2"/>
<linearGradient id="SVGID_26_" gradientUnits="userSpaceOnUse" x1="101.3145" y1="210.3521" x2="281.6851" y2="336.6489">
	<stop  offset="0" style="stop-color:#1A1A1A"/>
	<stop  offset="0.4667" style="stop-color:#818181;stop-opacity:0.67"/>
	<stop  offset="0.6" style="stop-color:#B1B1B1"/>
	<stop  offset="1" style="stop-color:#CACACA;stop-opacity:0.56"/>
</linearGradient>
<rect x="65.5" y="261.5" fill="url(#SVGID_26_)" stroke="#000000" stroke-miterlimit="10" width="252" height="24"/>
<path fill="#1A1A1A" stroke="#000000" stroke-miterlimit="10" d="M328.5,314.837c0,3.127-1.898,5.663-4.239,5.663H9.739
	c-2.341,0-4.239-2.536-4.239-5.663v-32.674c0-3.127,1.898-5.663,4.239-5.663h314.521c2.341,0,4.239,2.536,4.239,5.663V314.837z"/>
</svg>
