<?xml version="1.0" encoding="utf-8"?>
<!-- Generator: Adobe Illustrator 15.0.0, SVG Export Plug-In  -->
<!DOCTYPE svg PUBLIC "-//W3C//DTD SVG 1.1//EN" "http://www.w3.org/Graphics/SVG/1.1/DTD/svg11.dtd" [
	<!ENTITY ns_flows "http://ns.adobe.com/Flows/1.0/">
]>
<svg version="1.1"
	 xmlns="http://www.w3.org/2000/svg" xmlns:xlink="http://www.w3.org/1999/xlink" xmlns:a="http://ns.adobe.com/AdobeSVGViewerExtensions/3.0/"
	 x="0px" y="0px" width="72px" height="70px" viewBox="0 0.061 72 70" enable-background="new 0 0.061 72 70" xml:space="preserve">
<defs>
</defs>
<g>
	<path fill="#4D4D4D" d="M35,0.061h36v15.765c0,14.497-5.83,28.013-16.306,38.061C44.491,63.672,30.91,69.061,16.563,69.061H0v-36
		h16.563C26.85,33.061,35,25.508,35,15.826V0.061z"/>
	<path fill="#4E4E4E" d="M35,0.061h36v15.765c0,14.467-5.872,28.01-16.327,38.037c-10.183,9.765-23.791,15.198-38.11,15.198H0v-36
		h16.563C26.912,33.061,35,25.566,35,15.826V0.061z"/>
	<path fill="#4F4F4F" d="M35,0.061h36v15.765c0,14.437-5.913,28.007-16.348,38.013c-10.163,9.745-23.797,15.222-38.089,15.222H0v-36
		h16.563C26.973,33.061,35,25.625,35,15.826V0.061z"/>
	<path fill="#505050" d="M35,0.061h36v15.765c0,14.408-5.954,28.004-16.368,37.99c-10.144,9.725-23.804,15.245-38.068,15.245H0v-36
		h16.563C27.035,33.061,35,25.684,35,15.826V0.061z"/>
	<path fill="#515151" d="M35,0.061h35v15.765c0,14.378-5.495,28.002-15.889,37.966C43.987,63.497,30.8,69.061,16.563,69.061H0v-36
		h16.563C27.096,33.061,35,25.743,35,15.826V0.061z"/>
	<path fill="#525252" d="M35,0.061h35v15.765c0,14.348-5.536,27.5-15.91,37.442c-10.104,9.685-23.318,14.792-37.527,14.792H0v-34
		h16.563C27.157,34.061,35,25.802,35,15.826V0.061z"/>
	<path fill="#535353" d="M36,0.061h34v15.765c0,14.318-5.577,27.497-15.931,37.418C43.984,62.91,30.745,68.061,16.563,68.061H0v-34
		h16.563C27.219,34.061,36,25.86,36,15.826V0.061z"/>
	<path fill="#545454" d="M36,0.061h34v15.765c0,14.289-5.618,27.494-15.951,37.395c-10.065,9.645-23.332,14.84-37.486,14.84H0v-34
		h16.563C27.28,34.061,36,25.919,36,15.826V0.061z"/>
	<path fill="#555555" d="M36,0.061h34v15.765c0,14.259-5.66,27.491-15.972,37.372C43.982,62.822,30.69,68.061,16.563,68.061H0v-34
		h16.563C27.342,34.061,36,25.978,36,15.826V0.061z"/>
	<path fill="#565656" d="M36,0.061h34v15.765c0,14.229-5.701,27.488-15.992,37.348c-10.026,9.604-23.346,14.887-37.444,14.887H0v-34
		h16.563C27.403,34.061,36,26.037,36,15.826V0.061z"/>
	<path fill="#575757" d="M36,0.061h34v15.765c0,14.2-5.742,27.485-16.013,37.324C43.98,62.734,30.635,68.061,16.563,68.061H0v-34
		h16.563C27.464,34.061,36,26.096,36,15.826V0.061z"/>
	<path fill="#585858" d="M36,0.061h34v15.765c0,14.17-5.783,27.483-16.034,37.3c-9.987,9.564-23.359,14.935-37.403,14.935H0v-34
		h16.563C27.526,34.061,36,26.154,36,15.826V0.061z"/>
	<path fill="#595959" d="M36,0.061h34v15.765c0,14.14-5.824,27.48-16.055,37.277c-9.967,9.544-23.366,14.958-37.382,14.958H0v-34
		h16.563C27.587,34.061,36,26.213,36,15.826V0.061z"/>
	<path fill="#5A5A5A" d="M36,0.061h34v15.765c0,14.11-5.865,27.477-16.075,37.253c-9.948,9.523-23.373,14.981-37.361,14.981H0v-34
		h16.563C27.649,34.061,36,26.272,36,15.826V0.061z"/>
	<path fill="#5B5B5B" d="M36,0.061h33v15.765c0,14.081-5.407,26.975-15.596,36.729c-9.928,9.504-22.879,14.505-36.84,14.505H0v-33
		h16.563C27.71,34.061,36,26.331,36,15.826V0.061z"/>
	<path fill="#5C5C5C" d="M37,0.061h32v15.765c0,14.051-5.447,26.972-15.617,36.706c-9.908,9.484-22.886,14.529-36.819,14.529H0v-32
		h16.563C27.772,35.061,37,26.389,37,15.826V0.061z"/>
	<path fill="#5D5D5D" d="M37,0.061h32v15.765c0,14.021-5.489,26.969-15.637,36.682c-9.889,9.464-22.893,14.553-36.799,14.553H0v-32
		h16.563C27.833,35.061,37,26.448,37,15.826V0.061z"/>
	<path fill="#5E5E5E" d="M37,0.061h32v15.765c0,13.992-5.53,26.966-15.658,36.659c-9.869,9.443-22.9,14.576-36.778,14.576H0v-32
		h16.563C27.895,35.061,37,26.507,37,15.826V0.061z"/>
	<path fill="#5F5F5F" d="M37,0.061h32v15.765c0,13.962-5.571,26.963-15.679,36.634c-9.85,9.424-22.907,14.601-36.758,14.601H0v-32
		h16.563C27.956,35.061,37,26.566,37,15.826V0.061z"/>
	<path fill="#606060" d="M37,0.061h32v15.765c0,13.932-5.612,26.96-15.7,36.611c-9.83,9.403-22.914,14.624-36.737,14.624H0v-32
		h16.563C28.018,35.061,37,26.625,37,15.826V0.061z"/>
	<path fill="#616161" d="M37,0.061h32v15.765c0,13.903-5.653,26.958-15.72,36.587c-9.811,9.384-22.92,14.647-36.716,14.647H0v-32
		h16.563C28.079,35.061,37,26.683,37,15.826V0.061z"/>
	<path fill="#626262" d="M37,0.061h32v15.765c0,13.873-5.694,26.956-15.741,36.564c-9.79,9.363-22.927,14.671-36.695,14.671H0v-32
		h16.563C28.141,35.061,37,26.742,37,15.826V0.061z"/>
	<path fill="#636363" d="M37,0.061h32v15.765c0,13.843-5.735,26.953-15.762,36.541c-9.771,9.343-22.934,14.694-36.675,14.694H0v-32
		h16.563C28.202,35.061,37,26.801,37,15.826V0.061z"/>
	<path fill="#646464" d="M37,0.061h31v15.765c0,13.813-5.277,26.45-15.283,36.016c-9.751,9.323-22.44,14.219-36.154,14.219H0v-31
		h16.563c11.7,0,20.437-8.202,20.437-19.235V0.061z"/>
	<path fill="#656565" d="M38,0.061h30v15.765c0,13.784-5.318,26.447-15.303,35.993c-9.732,9.304-22.448,14.242-36.134,14.242H0v-30
		h16.563C28.325,36.061,38,26.918,38,15.826V0.061z"/>
	<path fill="#666666" d="M38,0.061h30v15.765c0,13.754-5.359,26.444-15.324,35.969c-9.712,9.283-22.454,14.266-36.112,14.266H0v-30
		h16.563C28.386,36.061,38,26.977,38,15.826V0.061z"/>
	<path fill="#676767" d="M38,0.061h30v15.765c0,13.725-5.4,26.441-15.345,35.946c-9.692,9.263-22.461,14.289-36.092,14.289H0v-30
		h16.563C28.448,36.061,38,27.036,38,15.826V0.061z"/>
	<path fill="#686868" d="M38,0.061h30v15.765c0,13.695-5.441,26.438-15.365,35.921c-9.673,9.243-22.468,14.313-36.071,14.313H0v-30
		h16.563C28.509,36.061,38,27.095,38,15.826V0.061z"/>
	<path fill="#696969" d="M38,0.061h30v15.765c0,13.665-5.482,26.436-15.387,35.898c-9.653,9.223-22.474,14.336-36.05,14.336H0v-30
		h16.563C28.571,36.061,38,27.153,38,15.826V0.061z"/>
	<path fill="#6A6A6A" d="M38,0.061h30v15.765c0,13.635-5.524,26.433-15.407,35.875c-9.634,9.203-22.482,14.36-36.03,14.36H0v-30
		h16.563C28.632,36.061,38,27.212,38,15.826V0.061z"/>
	<path fill="#6B6B6B" d="M38,0.061h30v15.765c0,13.605-5.564,26.43-15.428,35.851c-9.614,9.183-22.488,14.384-36.009,14.384H0v-30
		h16.563c12.13,0,21.437-8.79,21.437-20.235V0.061z"/>
	<path fill="#6C6C6C" d="M38,0.061h30v15.765c0,13.576-5.606,26.427-15.448,35.828c-9.595,9.162-22.495,14.407-35.988,14.407H0v-30
		h16.563C28.755,36.061,38,27.33,38,15.826V0.061z"/>
	<path fill="#6D6D6D" d="M38,0.061h30v15.765c0,13.546-5.647,25.924-15.469,35.303c-9.575,9.144-22.502,13.932-35.967,13.932H0v-29
		h16.563C28.816,36.061,38,27.389,38,15.826V0.061z"/>
	<path fill="#6E6E6E" d="M39,0.061h28v15.765c0,13.517-5.188,25.922-14.989,35.28c-9.556,9.123-22.009,13.955-35.447,13.955H0v-29
		h16.563C28.878,36.061,39,27.447,39,15.826V0.061z"/>
	<path fill="#6F6F6F" d="M39,0.061h28v15.765c0,13.487-5.229,25.919-15.011,35.256c-9.535,9.103-22.016,13.979-35.426,13.979H0v-28
		h16.563C28.939,37.061,39,27.506,39,15.826V0.061z"/>
	<path fill="#707070" d="M39,0.061h28v15.765c0,13.457-5.271,25.916-15.031,35.232c-9.516,9.083-22.022,14.002-35.405,14.002H0v-28
		h16.563C29,37.061,39,27.565,39,15.826V0.061z"/>
	<path fill="#717171" d="M39,0.061h28v15.765c0,13.427-5.312,25.914-15.052,35.209c-9.496,9.063-22.029,14.025-35.385,14.025H0v-28
		h16.563C29.062,37.061,39,27.624,39,15.826V0.061z"/>
	<path fill="#727272" d="M39,0.061h28v15.765c0,13.398-5.354,25.911-15.072,35.185c-9.478,9.043-22.037,14.05-35.364,14.05H0v-28
		h16.563C29.124,37.061,39,27.683,39,15.826V0.061z"/>
	<path fill="#737373" d="M39,0.061h28v15.765c0,13.368-5.394,25.908-15.093,35.162C42.45,60.01,29.864,65.061,16.563,65.061H0v-28
		h16.563C29.185,37.061,39,27.741,39,15.826V0.061z"/>
	<path fill="#747474" d="M39,0.061h28v15.765c0,13.338-5.436,25.905-15.114,35.138c-9.438,9.002-22.05,14.097-35.322,14.097H0v-28
		h16.563C29.247,37.061,39,27.8,39,15.826V0.061z"/>
	<path fill="#757575" d="M39,0.061h28v15.765c0,13.309-5.477,25.902-15.135,35.114c-9.418,8.982-22.057,14.121-35.302,14.121H0v-28
		h16.563C29.308,37.061,39,27.859,39,15.826V0.061z"/>
	<path fill="#767676" d="M39,0.061h28v15.765c0,13.279-5.518,25.9-15.156,35.09c-9.398,8.963-22.063,14.145-35.281,14.145H0v-28
		h16.563C29.37,37.061,39,27.917,39,15.826V0.061z"/>
	<path fill="#777777" d="M40,0.061h26v15.765c0,13.249-5.059,25.397-14.676,34.567c-9.379,8.942-21.571,13.668-34.761,13.668H0v-27
		h16.563C29.431,37.061,40,27.976,40,15.826V0.061z"/>
	<path fill="#787878" d="M40,0.061h26v15.765c0,13.22-5.1,25.394-14.697,34.543c-9.358,8.922-21.577,13.691-34.739,13.691H0v-26
		h16.563C29.492,38.061,40,28.035,40,15.826V0.061z"/>
	<path fill="#797979" d="M40,0.061h26v15.765c0,13.19-5.141,25.392-14.718,34.52c-9.339,8.902-21.583,13.715-34.719,13.715H0v-26
		h16.563C29.554,38.061,40,28.094,40,15.826V0.061z"/>
	<path fill="#7A7A7A" d="M40,0.061h26v15.765c0,13.16-5.182,25.389-14.738,34.497c-9.32,8.882-21.591,13.738-34.698,13.738H0v-26
		h16.563C29.615,38.061,40,28.152,40,15.826V0.061z"/>
	<path fill="#7B7B7B" d="M40,0.061h26v15.765c0,13.13-5.224,25.386-14.759,34.472c-9.301,8.862-21.598,13.763-34.678,13.763H0v-26
		h16.563C29.677,38.061,40,28.211,40,15.826V0.061z"/>
	<path fill="#7C7C7C" d="M40,0.061h26v15.765c0,13.101-5.265,25.383-14.78,34.449c-9.281,8.842-21.604,13.786-34.657,13.786H0v-26
		h16.563C29.738,38.061,40,28.27,40,15.826V0.061z"/>
	<path fill="#7D7D7D" d="M40,0.061h26v15.765c0,13.071-5.306,25.38-14.801,34.425c-9.261,8.821-21.611,13.81-34.636,13.81H0v-26
		h16.563C29.799,38.061,40,28.329,40,15.826V0.061z"/>
	<path fill="#7E7E7E" d="M40,0.061h26v15.765c0,13.042-5.347,25.377-14.821,34.401c-9.241,8.802-21.618,13.833-34.615,13.833H0v-26
		h16.563C29.861,38.061,40,28.388,40,15.826V0.061z"/>
	<path fill="#7F7F7F" d="M40,0.061h26v15.765c0,13.012-5.388,25.375-14.842,34.378c-9.222,8.781-21.625,13.856-34.595,13.856H0v-26
		h16.563C29.922,38.061,40,28.446,40,15.826V0.061z"/>
	<path fill="#808080" d="M40,0.061h26v15.765c0,12.982-5.429,24.872-14.863,33.854c-9.202,8.762-21.631,13.381-34.574,13.381H0v-25
		h16.563C29.984,38.061,40,28.505,40,15.826V0.061z"/>
	<path fill="#818181" d="M41,0.061h24v15.765c0,12.952-4.971,24.87-14.384,33.831c-9.183,8.741-21.138,13.404-34.053,13.404H0v-25
		h16.563C30.045,38.061,41,28.564,41,15.826V0.061z"/>
	<path fill="#828282" d="M41,0.061h24v15.765c0,12.922-5.011,24.867-14.404,33.807c-9.163,8.721-21.145,13.428-34.032,13.428H0v-24
		h16.563C30.107,39.061,41,28.623,41,15.826V0.061z"/>
	<path fill="#838383" d="M41,0.061h24v15.765c0,12.893-5.053,24.864-14.425,33.783c-9.143,8.701-21.151,13.452-34.011,13.452H0v-24
		h16.563C30.168,39.061,41,28.682,41,15.826V0.061z"/>
	<path fill="#848484" d="M41,0.061h24v15.765c0,12.863-5.094,24.861-14.445,33.759c-9.124,8.682-21.159,13.476-33.991,13.476H0v-24
		h16.563C30.229,39.061,41,28.74,41,15.826V0.061z"/>
	<path fill="#858585" d="M41,0.061h24v15.765c0,12.833-5.135,24.858-14.466,33.736c-9.104,8.661-21.166,13.499-33.97,13.499H0v-24
		h16.563C30.291,39.061,41,28.799,41,15.826V0.061z"/>
	<path fill="#868686" d="M41,0.061h24v15.765c0,12.804-5.176,24.855-14.487,33.712c-9.084,8.641-21.172,13.522-33.949,13.522H0v-24
		h16.563C30.353,39.061,41,28.858,41,15.826V0.061z"/>
	<path fill="#878787" d="M41,0.061h24v15.765c0,12.774-5.217,24.853-14.508,33.688c-9.064,8.621-21.179,13.546-33.929,13.546H0v-24
		h16.563C30.414,39.061,41,28.917,41,15.826V0.061z"/>
	<path fill="#888888" d="M41,0.061h24v15.765c0,12.745-5.258,24.85-14.528,33.665c-9.045,8.601-21.186,13.57-33.908,13.57H0v-24
		h16.563C30.476,39.061,41,28.976,41,15.826V0.061z"/>
	<path fill="#898989" d="M41,0.061h24v15.765c0,12.715-5.3,24.347-14.549,33.141c-9.025,8.581-21.193,13.094-33.887,13.094H0v-23
		h16.563C30.537,39.061,41,29.034,41,15.826V0.061z"/>
	<path fill="#8A8A8A" d="M42,0.061h22v15.765c0,12.685-4.841,24.344-14.07,33.118c-9.006,8.561-20.699,13.117-33.366,13.117H0v-23
		h16.563C30.598,39.061,42,29.093,42,15.826V0.061z"/>
	<path fill="#8B8B8B" d="M42,0.061h22v15.765c0,12.655-4.882,24.342-14.091,33.094c-8.986,8.541-20.707,13.141-33.346,13.141H0v-22
		h16.563C30.66,40.061,42,29.152,42,15.826V0.061z"/>
	<path fill="#8C8C8C" d="M42,0.061h22v15.765c0,12.625-4.923,24.339-14.111,33.07c-8.967,8.521-20.713,13.165-33.325,13.165H0v-22
		h16.563C30.721,40.061,42,29.21,42,15.826V0.061z"/>
	<path fill="#8D8D8D" d="M42,0.061h22v15.765c0,12.596-4.964,24.336-14.132,33.046c-8.947,8.5-20.72,13.188-33.305,13.188H0v-22
		h16.563C30.783,40.061,42,29.269,42,15.826V0.061z"/>
	<path fill="#8E8E8E" d="M42,0.061h22v15.765c0,12.566-5.005,24.333-14.153,33.023C40.92,57.33,29.12,62.061,16.563,62.061H0v-22
		h16.563C30.844,40.061,42,29.328,42,15.826V0.061z"/>
	<path fill="#8F8F8F" d="M42,0.061h22v15.765c0,12.537-5.046,24.331-14.174,33c-8.908,8.46-20.733,13.235-33.263,13.235H0v-22
		h16.563C30.906,40.061,42,29.387,42,15.826V0.061z"/>
	<path fill="#909090" d="M42,0.061h22v15.765c0,12.507-5.088,24.328-14.194,32.976c-8.889,8.44-20.741,13.259-33.242,13.259H0v-22
		h16.563C30.967,40.061,42,29.445,42,15.826V0.061z"/>
	<path fill="#919191" d="M42,0.061h22v15.765c0,12.477-5.128,24.325-14.215,32.952c-8.869,8.42-20.748,13.283-33.222,13.283H0v-22
		h16.563C31.028,40.061,42,29.504,42,15.826V0.061z"/>
	<path fill="#929292" d="M42,0.061h22v15.765c0,12.447-5.17,23.822-14.236,32.428c-8.849,8.4-20.754,12.807-33.201,12.807H0v-21
		h16.563C31.09,40.061,42,29.563,42,15.826V0.061z"/>
	<path fill="#939393" d="M43,0.061h21v15.765c0,12.418-5.211,23.82-14.257,32.405c-8.829,8.38-20.761,12.83-33.18,12.83H0v-21
		h16.563C31.151,40.061,43,29.622,43,15.826V0.061z"/>
	<path fill="#949494" d="M43,0.061h20v15.765c0,12.388-4.752,23.817-13.777,32.381c-8.81,8.359-20.268,12.854-32.659,12.854H0v-21
		h16.563C31.213,40.061,43,29.681,43,15.826V0.061z"/>
	<path fill="#959595" d="M43,0.061h20v15.765c0,12.358-4.793,23.814-13.798,32.357c-8.79,8.34-20.275,12.877-32.639,12.877H0v-20
		h16.563C31.274,41.061,43,29.739,43,15.826V0.061z"/>
	<path fill="#969696" d="M43,0.061h20v15.765c0,12.329-4.835,23.811-13.818,32.334C40.411,56.479,28.9,61.061,16.563,61.061H0v-20
		h16.563C31.335,41.061,43,29.798,43,15.826V0.061z"/>
	<path fill="#979797" d="M43,0.061h20v15.765c0,12.299-4.875,23.808-13.839,32.31c-8.751,8.3-20.288,12.925-32.597,12.925H0v-20
		h16.563C31.397,41.061,43,29.857,43,15.826V0.061z"/>
	<path fill="#989898" d="M43,0.061h20v15.765c0,12.269-4.917,23.805-13.86,32.287c-8.731,8.279-20.295,12.948-32.576,12.948H0v-20
		h16.563C31.458,41.061,43,29.916,43,15.826V0.061z"/>
	<path fill="#999999" d="M43,0.061h20v15.765c0,12.24-4.958,23.803-13.881,32.263c-8.712,8.259-20.302,12.972-32.556,12.972H0v-20
		h16.563C31.52,41.061,43,29.975,43,15.826V0.061z"/>
	<path fill="#9A9A9A" d="M43,0.061h20v15.765c0,12.21-4.999,23.8-13.901,32.239c-8.692,8.239-20.309,12.996-32.535,12.996H0v-20
		h16.563C31.582,41.061,43,30.033,43,15.826V0.061z"/>
	<path fill="#9B9B9B" d="M43,0.061h20v15.765c0,12.18-5.041,23.297-13.922,31.715c-8.672,8.22-20.315,12.52-32.514,12.52H0v-19
		h16.563C31.643,41.061,43,30.092,43,15.826V0.061z"/>
	<path fill="#9C9C9C" d="M44,0.061h19v15.765c0,12.15-5.081,23.294-13.943,31.692c-8.652,8.199-20.322,12.543-32.493,12.543H0v-19
		h16.563C31.704,41.061,44,30.151,44,15.826V0.061z"/>
	<path fill="#9D9D9D" d="M44,0.061h18v15.765c0,12.121-4.623,23.292-13.463,31.668c-8.633,8.179-19.83,12.566-31.973,12.566H0v-19
		h16.563C31.766,41.061,44,30.209,44,15.826V0.061z"/>
	<path fill="#9E9E9E" d="M44,0.061h18v15.765c0,12.091-4.664,23.289-13.484,31.644c-8.614,8.159-19.836,12.591-31.952,12.591H0v-18
		h16.563C31.827,42.061,44,30.269,44,15.826V0.061z"/>
	<path fill="#9F9F9F" d="M44,0.061h18v15.765c0,12.062-4.705,23.286-13.505,31.621c-8.594,8.139-19.843,12.614-31.932,12.614H0v-18
		h16.563C31.889,42.061,44,30.327,44,15.826V0.061z"/>
	<path fill="#A0A0A0" d="M44,0.061h18v15.765c0,12.032-4.746,23.283-13.526,31.597c-8.574,8.119-19.849,12.638-31.91,12.638H0v-18
		h16.563C31.95,42.061,44,30.386,44,15.826V0.061z"/>
	<path fill="#A1A1A1" d="M44,0.061h18v15.765c0,12.002-4.787,23.281-13.547,31.574c-8.555,8.099-19.856,12.661-31.89,12.661H0v-18
		h16.563C32.012,42.061,44,30.445,44,15.826V0.061z"/>
	<path fill="#A2A2A2" d="M44,0.061h18v15.765c0,11.972-4.828,23.278-13.567,31.55c-8.535,8.078-19.863,12.685-31.869,12.685H0v-18
		h16.563C32.073,42.061,44,30.503,44,15.826V0.061z"/>
	<path fill="#A3A3A3" d="M44,0.061h18v15.765c0,11.942-4.869,23.275-13.588,31.526c-8.516,8.059-19.87,12.709-31.849,12.709H0v-18
		h16.563C32.134,42.061,44,30.562,44,15.826V0.061z"/>
	<path fill="#A4A4A4" d="M44,0.061h18v15.765c0,11.913-4.911,22.772-13.609,31.003c-8.496,8.039-19.877,12.232-31.828,12.232H0v-17
		h16.563C32.196,42.061,44,30.621,44,15.826V0.061z"/>
	<path fill="#A5A5A5" d="M45,0.061h17v15.765c0,11.883-4.952,22.77-13.63,30.979c-8.476,8.019-19.883,12.256-31.807,12.256H0v-17
		h16.563C32.257,42.061,45,30.68,45,15.826V0.061z"/>
	<path fill="#A6A6A6" d="M45,0.061h17v15.765c0,11.854-4.993,22.767-13.65,30.956c-8.456,7.998-19.89,12.279-31.786,12.279H0v-17
		h16.563C32.319,42.061,45,30.738,45,15.826V0.061z"/>
	<path fill="#A7A7A7" d="M45,0.061h16v15.765c0,11.824-4.534,22.764-13.171,30.932c-8.437,7.978-19.397,12.303-31.266,12.303H0v-17
		h16.563C32.38,42.061,45,30.797,45,15.826V0.061z"/>
	<path fill="#A8A8A8" d="M45,0.061h16v15.765c0,11.794-4.575,22.761-13.191,30.908c-8.418,7.959-19.404,12.327-31.245,12.327H0v-16
		h16.563C32.442,43.061,45,30.856,45,15.826V0.061z"/>
	<path fill="#A9A9A9" d="M45,0.061h16v15.765c0,11.764-4.616,22.759-13.213,30.884c-8.397,7.938-19.411,12.351-31.224,12.351H0v-16
		h16.563C32.503,43.061,45,30.915,45,15.826V0.061z"/>
	<path fill="#AAAAAA" d="M45,0.061h16v15.765c0,11.735-4.658,22.756-13.233,30.861c-8.378,7.918-19.418,12.374-31.204,12.374H0v-16
		h16.563C32.564,43.061,45,30.974,45,15.826V0.061z"/>
	<path fill="#ABABAB" d="M45,0.061h16v15.765c0,11.705-4.698,22.753-13.254,30.837c-8.358,7.897-19.424,12.397-31.183,12.397H0v-16
		h16.563C32.626,43.061,45,31.032,45,15.826V0.061z"/>
	<path fill="#ACACAC" d="M45,0.061h16v15.765c0,11.675-4.74,22.75-13.274,30.813c-8.339,7.879-19.432,12.422-31.162,12.422H0v-16
		h16.563C32.688,43.061,45,31.091,45,15.826V0.061z"/>
	<path fill="#ADADAD" d="M45,0.061h16v15.765c0,11.646-4.781,22.248-13.295,30.29c-8.319,7.858-19.438,11.945-31.141,11.945H0v-15
		h16.563C32.749,43.061,45,31.15,45,15.826V0.061z"/>
	<path fill="#AEAEAE" d="M46,0.061h15v15.765c0,11.616-4.822,22.245-13.316,30.266c-8.299,7.838-19.445,11.969-31.12,11.969H0v-15
		h16.563C32.811,43.061,46,31.208,46,15.826V0.061z"/>
	<path fill="#AFAFAF" d="M46,0.061h15v15.765c0,11.586-4.863,22.242-13.337,30.242c-8.28,7.818-19.452,11.993-31.1,11.993H0v-15
		h16.563C32.872,43.061,46,31.268,46,15.826V0.061z"/>
	<path fill="#B0B0B0" d="M46,0.061h15v15.765c0,11.557-4.904,22.239-13.357,30.219c-8.26,7.798-19.458,12.016-31.079,12.016H0v-15
		h16.563C32.933,43.061,46,31.326,46,15.826V0.061z"/>
	<path fill="#B1B1B1" d="M46,0.061h14v15.765c0,11.527-4.445,22.237-12.878,30.195c-8.241,7.778-18.966,12.04-30.559,12.04H0v-14
		h16.563C32.995,44.061,46,31.385,46,15.826V0.061z"/>
	<path fill="#B2B2B2" d="M46,0.061h14v15.765c0,11.497-4.487,22.234-12.899,30.171c-8.221,7.758-18.972,12.063-30.537,12.063H0v-14
		h16.563C33.056,44.061,46,31.444,46,15.826V0.061z"/>
	<path fill="#B3B3B3" d="M46,0.061h14v15.765c0,11.467-4.528,22.231-12.919,30.148c-8.202,7.737-18.979,12.087-30.517,12.087H0v-14
		h16.563C33.118,44.061,46,31.502,46,15.826V0.061z"/>
	<path fill="#B4B4B4" d="M46,0.061h14v15.765c0,11.438-4.569,22.228-12.94,30.124c-8.182,7.718-18.986,12.111-30.496,12.111H0v-14
		h16.563C33.179,44.061,46,31.562,46,15.826V0.061z"/>
	<path fill="#B5B5B5" d="M46,0.061h14v15.765c0,11.408-4.61,22.225-12.961,30.1c-8.162,7.698-18.993,12.135-30.476,12.135H0v-14
		h16.563C33.24,44.061,46,31.62,46,15.826V0.061z"/>
	<path fill="#B6B6B6" d="M46,0.061h14v15.765c0,11.378-4.651,21.722-12.982,29.577c-8.143,7.678-19,11.658-30.455,11.658H0v-13
		h16.563C33.302,44.061,46,31.679,46,15.826V0.061z"/>
	<path fill="#B7B7B7" d="M47,0.061h13v15.765c0,11.349-4.692,21.72-13.002,29.553c-8.123,7.657-19.007,11.682-30.435,11.682H0v-13
		h16.563C33.363,44.061,47,31.738,47,15.826V0.061z"/>
	<path fill="#B8B8B8" d="M47,0.061h13v15.765c0,11.319-4.733,21.717-13.023,29.53c-8.104,7.637-19.013,11.705-30.413,11.705H0v-13
		h16.563C33.425,44.061,47,31.796,47,15.826V0.061z"/>
	<path fill="#B9B9B9" d="M47,0.061h13v15.765c0,11.289-4.775,21.714-13.044,29.506c-8.084,7.617-19.02,11.729-30.393,11.729H0v-13
		h16.563C33.486,44.061,47,31.855,47,15.826V0.061z"/>
	<path fill="#BABABA" d="M47,0.061h12v15.765c0,11.259-4.316,21.711-12.565,29.482c-8.064,7.598-18.526,11.753-29.872,11.753H0v-13
		h16.563C33.548,44.061,47,31.914,47,15.826V0.061z"/>
	<path fill="#BBBBBB" d="M47,0.061h12v15.765c0,11.23-4.357,21.708-12.586,29.458c-8.044,7.577-18.533,11.776-29.851,11.776H0v-12
		h16.563C33.609,45.061,47,31.973,47,15.826V0.061z"/>
	<path fill="#BCBCBC" d="M47,0.061h12v15.765c0,11.2-4.398,21.706-12.606,29.435c-8.025,7.557-18.541,11.8-29.831,11.8H0v-12h16.563
		C33.67,45.061,47,32.031,47,15.826V0.061z"/>
	<path fill="#BDBDBD" d="M47,0.061h12v15.765c0,11.17-4.439,21.703-12.627,29.411c-8.005,7.537-18.547,11.824-29.81,11.824H0v-12
		h16.563C33.732,45.061,47,32.09,47,15.826V0.061z"/>
	<path fill="#BEBEBE" d="M47,0.061h12v15.765c0,11.141-4.48,21.7-12.647,29.388c-7.986,7.517-18.554,11.847-29.789,11.847H0v-12
		h16.563C33.793,45.061,47,32.149,47,15.826V0.061z"/>
	<path fill="#BFBFBF" d="M47,0.061h12v15.765c0,11.111-4.521,21.698-12.668,29.364c-7.966,7.497-18.561,11.871-29.768,11.871H0v-12
		h16.563C33.855,45.061,47,32.208,47,15.826V0.061z"/>
	<path fill="#C0C0C0" d="M48,0.061h11v15.765c0,11.082-4.563,21.195-12.689,28.84c-7.947,7.477-18.568,11.395-29.748,11.395H0v-11
		h16.563C33.917,45.061,48,32.267,48,15.826V0.061z"/>
	<path fill="#C1C1C1" d="M48,0.061h11v15.765c0,11.052-4.604,21.192-12.71,28.817C38.363,52.1,27.716,56.061,16.563,56.061H0v-11
		h16.563C33.978,45.061,48,32.325,48,15.826V0.061z"/>
	<path fill="#C2C2C2" d="M48,0.061h11v15.765c0,11.022-4.645,21.189-12.73,28.793c-7.907,7.437-18.581,11.442-29.706,11.442H0v-11
		h16.563C34.039,45.061,48,32.384,48,15.826V0.061z"/>
	<path fill="#C3C3C3" d="M48,0.061h11v15.765c0,10.992-4.687,21.187-12.751,28.769c-7.888,7.417-18.588,11.466-29.685,11.466H0v-11
		h16.563C34.101,45.061,48,32.443,48,15.826V0.061z"/>
	<path fill="#C4C4C4" d="M48,0.061h10v15.765c0,10.962-4.228,21.184-12.271,28.746c-7.868,7.396-18.095,11.489-29.165,11.489H0v-10
		h16.563C34.162,46.061,48,32.501,48,15.826V0.061z"/>
	<path fill="#C5C5C5" d="M48,0.061h10v15.765c0,10.933-4.269,21.181-12.292,28.722c-7.849,7.376-18.102,11.513-29.144,11.513H0v-10
		h16.563c17.66,0,31.437-13.5,31.437-30.235V0.061z"/>
	<path fill="#C6C6C6" d="M48,0.061h10v15.765c0,10.903-4.31,21.178-12.313,28.698c-7.829,7.356-18.108,11.537-29.123,11.537H0v-10
		h16.563C34.285,46.061,48,32.619,48,15.826V0.061z"/>
	<path fill="#C7C7C7" d="M48,0.061h10v15.765c0,10.874-4.351,21.175-12.334,28.675c-7.81,7.336-18.115,11.56-29.103,11.56H0v-10
		h16.563C34.347,46.061,48,32.678,48,15.826V0.061z"/>
	<path fill="#C8C8C8" d="M48,0.061h10v15.765c0,10.844-4.392,21.172-12.355,28.651c-7.79,7.316-18.122,11.584-29.082,11.584H0v-10
		h16.563C34.408,46.061,48,32.737,48,15.826V0.061z"/>
	<path fill="#C9C9C9" d="M48,0.061h10v15.765c0,10.814-4.434,20.67-12.375,28.127c-7.77,7.296-18.129,11.107-29.061,11.107H0v-9
		h16.563C34.469,46.061,48,32.795,48,15.826V0.061z"/>
	<path fill="#CACACA" d="M49,0.061h9v15.765c0,10.784-4.475,20.667-12.396,28.104c-7.75,7.275-18.136,11.131-29.04,11.131H0v-9
		h16.563C34.531,46.061,49,32.854,49,15.826V0.061z"/>
	<path fill="#CBCBCB" d="M49,0.061h9v15.765c0,10.755-4.516,20.665-12.417,28.08c-7.73,7.256-18.143,11.155-29.02,11.155H0v-9
		h16.563C34.592,46.061,49,32.913,49,15.826V0.061z"/>
	<path fill="#CCCCCC" d="M49,0.061h9v15.765c0,10.725-4.557,20.662-12.438,28.057c-7.711,7.235-18.149,11.178-28.999,11.178H0v-9
		h16.563C34.654,46.061,49,32.972,49,15.826V0.061z"/>
	<path fill="#CDCDCD" d="M49,0.061h8v15.765c0,10.695-4.098,20.659-11.958,28.033c-7.691,7.216-17.657,11.202-28.479,11.202H0v-9
		h16.563C34.715,46.061,49,33.031,49,15.826V0.061z"/>
	<path fill="#CECECE" d="M49,0.061h8v15.765c0,10.666-4.139,20.656-11.979,28.009c-7.672,7.195-17.663,11.226-28.458,11.226H0v-8
		h16.563C34.777,47.061,49,33.089,49,15.826V0.061z"/>
	<path fill="#CFCFCF" d="M49,0.061h8v15.765c0,10.636-4.18,20.653-12,27.986c-7.652,7.175-17.67,11.249-28.437,11.249H0v-8h16.563
		C34.838,47.061,49,33.148,49,15.826V0.061z"/>
	<path fill="#D0D0D0" d="M49,0.061h8v15.765c0,10.606-4.222,20.65-12.021,27.962c-7.633,7.155-17.677,11.273-28.416,11.273H0v-8
		h16.563C34.899,47.061,49,33.207,49,15.826V0.061z"/>
	<path fill="#D1D1D1" d="M49,0.061h8v15.765c0,10.577-4.262,20.648-12.041,27.938c-7.613,7.135-17.684,11.297-28.396,11.297H0v-8
		h16.563C34.961,47.061,49,33.266,49,15.826V0.061z"/>
	<path fill="#D2D2D2" d="M49,0.061h8v15.765c0,10.547-4.304,20.145-12.062,27.415c-7.593,7.115-17.69,10.82-28.375,10.82H0v-7
		h16.563C35.022,47.061,49,33.324,49,15.826V0.061z"/>
	<path fill="#D3D3D3" d="M50,0.061h7v15.765c0,10.517-4.345,20.142-12.083,27.391c-7.573,7.095-17.697,10.844-28.354,10.844H0v-7
		h16.563C35.084,47.061,50,33.383,50,15.826V0.061z"/>
	<path fill="#D4D4D4" d="M50,0.061h7v15.765c0,10.487-4.386,20.139-12.104,27.367c-7.554,7.075-17.704,10.868-28.333,10.868H0v-7
		h16.563C35.146,47.061,50,33.442,50,15.826V0.061z"/>
	<path fill="#D5D5D5" d="M50,0.061h7v15.765c0,10.458-4.427,20.137-12.124,27.344c-7.535,7.055-17.711,10.891-28.313,10.891H0v-7
		h16.563C35.207,47.061,50,33.501,50,15.826V0.061z"/>
	<path fill="#D6D6D6" d="M50,0.061h7v15.765c0,10.428-4.468,20.134-12.145,27.32c-7.516,7.035-17.718,10.915-28.292,10.915H0v-7
		h16.563C35.268,47.061,50,33.56,50,15.826V0.061z"/>
	<path fill="#D7D7D7" d="M50,0.061h6v15.765c0,10.398-4.01,20.131-11.666,27.296c-7.495,7.015-17.224,10.938-27.771,10.938H0v-7
		h16.563C35.33,47.061,50,33.618,50,15.826V0.061z"/>
	<path fill="#D8D8D8" d="M50,0.061h6v15.765c0,10.369-4.051,20.128-11.687,27.273c-7.476,6.994-17.231,10.962-27.75,10.962H0v-6
		h16.563C35.391,48.061,50,33.677,50,15.826V0.061z"/>
	<path fill="#D9D9D9" d="M50,0.061h6v15.765c0,10.339-4.092,20.125-11.707,27.249c-7.456,6.975-17.238,10.986-27.729,10.986H0v-6
		h16.563C35.453,48.061,50,33.736,50,15.826V0.061z"/>
	<path fill="#DADADA" d="M50,0.061h6v15.765c0,10.309-4.133,20.123-11.728,27.225c-7.437,6.955-17.245,11.01-27.709,11.01H0v-6
		h16.563C35.514,48.061,50,33.794,50,15.826V0.061z"/>
	<path fill="#DBDBDB" d="M50,0.061h6v15.765c0,10.279-4.174,19.62-11.749,26.702C36.834,49.462,27,53.061,16.563,53.061H0v-5h16.563
		C35.575,48.061,50,33.854,50,15.826V0.061z"/>
	<path fill="#DCDCDC" d="M51,0.061h5v15.765c0,10.25-4.215,19.618-11.77,26.678c-7.396,6.914-17.258,10.557-27.667,10.557H0v-5
		h16.563C35.637,48.061,51,33.912,51,15.826V0.061z"/>
	<path fill="#DDDDDD" d="M51,0.061h5v15.765c0,10.22-4.257,19.615-11.79,26.655c-7.378,6.894-17.265,10.58-27.646,10.58H0v-5h16.563
		C35.698,48.061,51,33.971,51,15.826V0.061z"/>
	<path fill="#DEDEDE" d="M51,0.061h5v15.765c0,10.19-4.297,19.612-11.811,26.631c-7.358,6.875-17.272,10.604-27.626,10.604H0v-5
		h16.563C35.76,48.061,51,34.03,51,15.826V0.061z"/>
	<path fill="#DFDFDF" d="M51,0.061h5v15.765c0,10.161-4.339,19.609-11.831,26.607C36.83,49.288,26.89,53.061,16.563,53.061H0v-5
		h16.563C35.821,48.061,51,34.088,51,15.826V0.061z"/>
	<path fill="#E0E0E0" d="M51,0.061h4v15.765c0,10.131-3.88,19.606-11.353,26.583c-7.318,6.834-16.785,10.651-27.084,10.651H0v-5
		h16.563C35.883,48.061,51,34.147,51,15.826V0.061z"/>
	<path fill="#E1E1E1" d="M51,0.061h4v15.765c0,10.101-3.921,19.604-11.373,26.56C36.328,49.2,26.834,53.061,16.563,53.061H0v-4
		h16.563C35.944,49.061,51,34.206,51,15.826V0.061z"/>
	<path fill="#E2E2E2" d="M51,0.061h4v15.765c0,10.072-3.962,19.601-11.394,26.536c-7.279,6.795-16.799,10.699-27.043,10.699H0v-4
		h16.563C36.005,49.061,51,34.265,51,15.826V0.061z"/>
	<path fill="#E3E3E3" d="M51,0.061h4v15.765c0,10.042-4.003,19.598-11.414,26.513c-7.26,6.774-16.807,10.722-27.022,10.722H0v-4
		h16.563C36.067,49.061,51,34.324,51,15.826V0.061z"/>
	<path fill="#E4E4E4" d="M51,0.061h4v15.765c0,10.012-4.044,19.095-11.435,25.989c-7.24,6.754-16.813,10.246-27.001,10.246H0v-3
		h16.563C36.128,49.061,51,34.382,51,15.826V0.061z"/>
</g>
</svg>
