<?xml version="1.0" encoding="utf-8"?>
<!-- Generator: Adobe Illustrator 15.0.0, SVG Export Plug-In  -->
<!DOCTYPE svg PUBLIC "-//W3C//DTD SVG 1.1//EN" "http://www.w3.org/Graphics/SVG/1.1/DTD/svg11.dtd" [
	<!ENTITY ns_flows "http://ns.adobe.com/Flows/1.0/">
]>
<svg version="1.1"
	 xmlns="http://www.w3.org/2000/svg" xmlns:xlink="http://www.w3.org/1999/xlink" xmlns:a="http://ns.adobe.com/AdobeSVGViewerExtensions/3.0/"
	 x="0px" y="0px" width="72px" height="72px" viewBox="0 0.5 72 72" enable-background="new 0 0.5 72 72" xml:space="preserve">
<defs>
</defs>
<g>
	<polygon fill="#4D4D4D" points="35,72 0,72 0,0 72,0 72,35 35,35 	"/>
	<polygon fill="#4E4E4E" points="35,72 0,72 0,0 72,0 72,35 35,35 	"/>
	<polygon fill="#4F4F4F" points="35,72 0,72 0,0 72,0 72,35 35,35 	"/>
	<polygon fill="#505050" points="35,72 0,72 0,0 72,0 72,35 35,35 	"/>
	<polygon fill="#515151" points="35,72 0,72 0,0 72,0 72,35 35,35 	"/>
	<polygon fill="#525252" points="35,72 0,72 0,0 72,0 72,35 35,35 	"/>
	<polygon fill="#535353" points="34,72 1,72 1,1 72,1 72,34 34,34 	"/>
	<polygon fill="#545454" points="34,72 1,72 1,1 72,1 72,34 34,34 	"/>
	<polygon fill="#555555" points="34,72 1,72 1,1 72,1 72,34 34,34 	"/>
	<polygon fill="#565656" points="34,72 1,72 1,1 72,1 72,34 34,34 	"/>
	<polygon fill="#575757" points="34,72 1,72 1,1 72,1 72,34 34,34 	"/>
	<polygon fill="#585858" points="34,72 1,72 1,1 72,1 72,34 34,34 	"/>
	<polygon fill="#595959" points="34,72 1,72 1,1 72,1 72,34 34,34 	"/>
	<polygon fill="#5A5A5A" points="34,72 1,72 1,1 72,1 72,34 34,34 	"/>
	<polygon fill="#5B5B5B" points="34,72 1,72 1,1 72,1 72,34 34,34 	"/>
	<polygon fill="#5C5C5C" points="34,72 1,72 1,1 72,1 72,34 34,34 	"/>
	<polygon fill="#5D5D5D" points="33,72 2,72 2,2 72,2 72,33 33,33 	"/>
	<polygon fill="#5E5E5E" points="33,72 2,72 2,2 72,2 72,33 33,33 	"/>
	<polygon fill="#5F5F5F" points="33,72 2,72 2,2 72,2 72,33 33,33 	"/>
	<polygon fill="#606060" points="33,72 2,72 2,2 72,2 72,33 33,33 	"/>
	<polygon fill="#616161" points="33,72 2,72 2,2 72,2 72,33 33,33 	"/>
	<polygon fill="#626262" points="33,72 2,72 2,2 72,2 72,33 33,33 	"/>
	<polygon fill="#636363" points="33,72 2,72 2,2 72,2 72,33 33,33 	"/>
	<polygon fill="#646464" points="33,72 2,72 2,2 72,2 72,33 33,33 	"/>
	<polygon fill="#656565" points="33,72 2,72 2,2 72,2 72,33 33,33 	"/>
	<polygon fill="#666666" points="33,72 2,72 2,2 72,2 72,33 33,33 	"/>
	<polygon fill="#676767" points="32,72 3,72 3,3 72,3 72,32 32,32 	"/>
	<polygon fill="#686868" points="32,72 3,72 3,3 72,3 72,32 32,32 	"/>
	<polygon fill="#696969" points="32,72 3,72 3,3 72,3 72,32 32,32 	"/>
	<polygon fill="#6A6A6A" points="32,72 3,72 3,3 72,3 72,32 32,32 	"/>
	<polygon fill="#6B6B6B" points="32,72 3,72 3,3 72,3 72,32 32,32 	"/>
	<polygon fill="#6C6C6C" points="32,72 3,72 3,3 72,3 72,32 32,32 	"/>
	<polygon fill="#6D6D6D" points="32,72 3,72 3,3 72,3 72,32 32,32 	"/>
	<polygon fill="#6E6E6E" points="32,72 3,72 3,3 72,3 72,32 32,32 	"/>
	<polygon fill="#6F6F6F" points="32,72 3,72 3,3 72,3 72,32 32,32 	"/>
	<polygon fill="#707070" points="32,72 3,72 3,3 72,3 72,32 32,32 	"/>
	<polygon fill="#717171" points="31,72 4,72 4,4 72,4 72,31 31,31 	"/>
	<polygon fill="#727272" points="31,72 4,72 4,4 72,4 72,31 31,31 	"/>
	<polygon fill="#737373" points="31,72 4,72 4,4 72,4 72,31 31,31 	"/>
	<polygon fill="#747474" points="31,72 4,72 4,4 72,4 72,31 31,31 	"/>
	<polygon fill="#757575" points="31,72 4,72 4,4 72,4 72,31 31,31 	"/>
	<polygon fill="#767676" points="31,72 4,72 4,4 72,4 72,31 31,31 	"/>
	<polygon fill="#777777" points="31,72 4,72 4,4 72,4 72,31 31,31 	"/>
	<polygon fill="#787878" points="31,72 4,72 4,4 72,4 72,31 31,31 	"/>
	<polygon fill="#797979" points="31,72 4,72 4,4 72,4 72,31 31,31 	"/>
	<polygon fill="#7A7A7A" points="31,72 4,72 4,4 72,4 72,31 31,31 	"/>
	<polygon fill="#7B7B7B" points="30,72 5,72 5,5 72,5 72,30 30,30 	"/>
	<polygon fill="#7C7C7C" points="30,72 5,72 5,5 72,5 72,30 30,30 	"/>
	<polygon fill="#7D7D7D" points="30,72 5,72 5,5 72,5 72,30 30,30 	"/>
	<polygon fill="#7E7E7E" points="30,72 5,72 5,5 72,5 72,30 30,30 	"/>
	<polygon fill="#7F7F7F" points="30,72 5,72 5,5 72,5 72,30 30,30 	"/>
	<polygon fill="#808080" points="30,72 5,72 5,5 72,5 72,30 30,30 	"/>
	<polygon fill="#818181" points="30,72 5,72 5,5 72,5 72,30 30,30 	"/>
	<polygon fill="#828282" points="30,72 5,72 5,5 72,5 72,30 30,30 	"/>
	<polygon fill="#838383" points="30,72 5,72 5,5 72,5 72,30 30,30 	"/>
	<polygon fill="#848484" points="30,72 5,72 5,5 72,5 72,30 30,30 	"/>
	<polygon fill="#858585" points="29,72 6,72 6,6 72,6 72,29 29,29 	"/>
	<polygon fill="#868686" points="29,72 6,72 6,6 72,6 72,29 29,29 	"/>
	<polygon fill="#878787" points="29,72 6,72 6,6 72,6 72,29 29,29 	"/>
	<polygon fill="#888888" points="29,72 6,72 6,6 72,6 72,29 29,29 	"/>
	<polygon fill="#898989" points="29,72 6,72 6,6 72,6 72,29 29,29 	"/>
	<polygon fill="#8A8A8A" points="29,72 6,72 6,6 72,6 72,29 29,29 	"/>
	<polygon fill="#8B8B8B" points="29,72 6,72 6,6 72,6 72,29 29,29 	"/>
	<polygon fill="#8C8C8C" points="29,72 6,72 6,6 72,6 72,29 29,29 	"/>
	<polygon fill="#8D8D8D" points="29,72 6,72 6,6 72,6 72,29 29,29 	"/>
	<polygon fill="#8E8E8E" points="29,72 6,72 6,6 72,6 72,29 29,29 	"/>
	<polygon fill="#8F8F8F" points="28,72 7,72 7,7 72,7 72,28 28,28 	"/>
	<polygon fill="#909090" points="28,72 7,72 7,7 72,7 72,28 28,28 	"/>
	<polygon fill="#919191" points="28,72 7,72 7,7 72,7 72,28 28,28 	"/>
	<polygon fill="#929292" points="28,72 7,72 7,7 72,7 72,28 28,28 	"/>
	<polygon fill="#939393" points="28,72 7,72 7,7 72,7 72,28 28,28 	"/>
	<polygon fill="#949494" points="28,72 7,72 7,7 72,7 72,28 28,28 	"/>
	<polygon fill="#959595" points="28,72 7,72 7,7 72,7 72,28 28,28 	"/>
	<polygon fill="#969696" points="28,72 7,72 7,7 72,7 72,28 28,28 	"/>
	<polygon fill="#979797" points="28,72 7,72 7,7 72,7 72,28 28,28 	"/>
	<polygon fill="#989898" points="28,72 7,72 7,7 72,7 72,28 28,28 	"/>
	<polygon fill="#999999" points="27,72 8,72 8,8 72,8 72,27 27,27 	"/>
	<polygon fill="#9A9A9A" points="27,72 8,72 8,8 72,8 72,27 27,27 	"/>
	<polygon fill="#9B9B9B" points="27,72 8,72 8,8 72,8 72,27 27,27 	"/>
	<polygon fill="#9C9C9C" points="27,72 8,72 8,8 72,8 72,27 27,27 	"/>
	<polygon fill="#9D9D9D" points="27,72 8,72 8,8 72,8 72,27 27,27 	"/>
	<polygon fill="#9E9E9E" points="27,72 8,72 8,8 72,8 72,27 27,27 	"/>
	<polygon fill="#9F9F9F" points="27,72 8,72 8,8 72,8 72,27 27,27 	"/>
	<polygon fill="#A0A0A0" points="27,72 8,72 8,8 72,8 72,27 27,27 	"/>
	<polygon fill="#A1A1A1" points="27,72 8,72 8,8 72,8 72,27 27,27 	"/>
	<polygon fill="#A2A2A2" points="27,72 8,72 8,8 72,8 72,27 27,27 	"/>
	<polygon fill="#A3A3A3" points="26,72 9,72 9,9 72,9 72,26 26,26 	"/>
	<polygon fill="#A4A4A4" points="26,72 9,72 9,9 72,9 72,26 26,26 	"/>
	<polygon fill="#A5A5A5" points="26,72 9,72 9,9 72,9 72,26 26,26 	"/>
	<polygon fill="#A6A6A6" points="26,72 9,72 9,9 72,9 72,26 26,26 	"/>
	<polygon fill="#A7A7A7" points="26,72 9,72 9,9 72,9 72,26 26,26 	"/>
	<polygon fill="#A8A8A8" points="26,72 9,72 9,9 72,9 72,26 26,26 	"/>
	<polygon fill="#A9A9A9" points="26,72 9,72 9,9 72,9 72,26 26,26 	"/>
	<polygon fill="#AAAAAA" points="26,72 9,72 9,9 72,9 72,26 26,26 	"/>
	<polygon fill="#ABABAB" points="26,72 9,72 9,9 72,9 72,26 26,26 	"/>
	<polygon fill="#ACACAC" points="26,72 9,72 9,9 72,9 72,26 26,26 	"/>
	<polygon fill="#ADADAD" points="25,72 10,72 10,10 72,10 72,25 25,25 	"/>
	<polygon fill="#AEAEAE" points="25,72 10,72 10,10 72,10 72,25 25,25 	"/>
	<polygon fill="#AFAFAF" points="25,72 10,72 10,10 72,10 72,25 25,25 	"/>
	<polygon fill="#B0B0B0" points="25,72 10,72 10,10 72,10 72,25 25,25 	"/>
	<polygon fill="#B1B1B1" points="25,72 10,72 10,10 72,10 72,25 25,25 	"/>
	<polygon fill="#B2B2B2" points="25,72 10,72 10,10 72,10 72,25 25,25 	"/>
	<polygon fill="#B3B3B3" points="25,72 10,72 10,10 72,10 72,25 25,25 	"/>
	<polygon fill="#B4B4B4" points="25,72 10,72 10,10 72,10 72,25 25,25 	"/>
	<polygon fill="#B5B5B5" points="25,72 10,72 10,10 72,10 72,25 25,25 	"/>
	<polygon fill="#B6B6B6" points="25,72 10,72 10,10 72,10 72,25 25,25 	"/>
	<polygon fill="#B7B7B7" points="24,72 11,72 11,11 72,11 72,24 24,24 	"/>
	<polygon fill="#B8B8B8" points="24,72 11,72 11,11 72,11 72,24 24,24 	"/>
	<polygon fill="#B9B9B9" points="24,72 11,72 11,11 72,11 72,24 24,24 	"/>
	<polygon fill="#BABABA" points="24,72 11,72 11,11 72,11 72,24 24,24 	"/>
	<polygon fill="#BBBBBB" points="24,72 11,72 11,11 72,11 72,24 24,24 	"/>
	<polygon fill="#BCBCBC" points="24,72 11,72 11,11 72,11 72,24 24,24 	"/>
	<polygon fill="#BDBDBD" points="24,72 11,72 11,11 72,11 72,24 24,24 	"/>
	<polygon fill="#BEBEBE" points="24,72 11,72 11,11 72,11 72,24 24,24 	"/>
	<polygon fill="#BFBFBF" points="24,72 11,72 11,11 72,11 72,24 24,24 	"/>
	<polygon fill="#C0C0C0" points="24,72 11,72 11,11 72,11 72,24 24,24 	"/>
	<polygon fill="#C1C1C1" points="23,72 12,72 12,12 72,12 72,23 23,23 	"/>
	<polygon fill="#C2C2C2" points="23,72 12,72 12,12 72,12 72,23 23,23 	"/>
	<polygon fill="#C3C3C3" points="23,72 12,72 12,12 72,12 72,23 23,23 	"/>
	<polygon fill="#C4C4C4" points="23,72 12,72 12,12 72,12 72,23 23,23 	"/>
	<polygon fill="#C5C5C5" points="23,72 12,72 12,12 72,12 72,23 23,23 	"/>
	<polygon fill="#C6C6C6" points="23,72 12,72 12,12 72,12 72,23 23,23 	"/>
	<polygon fill="#C7C7C7" points="23,72 12,72 12,12 72,12 72,23 23,23 	"/>
	<polygon fill="#C8C8C8" points="23,72 12,72 12,12 72,12 72,23 23,23 	"/>
	<polygon fill="#C9C9C9" points="23,72 12,72 12,12 72,12 72,23 23,23 	"/>
	<polygon fill="#CACACA" points="23,72 12,72 12,12 72,12 72,23 23,23 	"/>
	<polygon fill="#CBCBCB" points="22,72 13,72 13,13 72,13 72,22 22,22 	"/>
	<polygon fill="#CCCCCC" points="22,72 13,72 13,13 72,13 72,22 22,22 	"/>
	<polygon fill="#CDCDCD" points="22,72 13,72 13,13 72,13 72,22 22,22 	"/>
	<polygon fill="#CECECE" points="22,72 13,72 13,13 72,13 72,22 22,22 	"/>
	<polygon fill="#CFCFCF" points="22,72 13,72 13,13 72,13 72,22 22,22 	"/>
	<polygon fill="#D0D0D0" points="22,72 13,72 13,13 72,13 72,22 22,22 	"/>
	<polygon fill="#D1D1D1" points="22,72 13,72 13,13 72,13 72,22 22,22 	"/>
	<polygon fill="#D2D2D2" points="22,72 13,72 13,13 72,13 72,22 22,22 	"/>
	<polygon fill="#D3D3D3" points="22,72 13,72 13,13 72,13 72,22 22,22 	"/>
	<polygon fill="#D4D4D4" points="22,72 13,72 13,13 72,13 72,22 22,22 	"/>
	<polygon fill="#D5D5D5" points="21,72 14,72 14,14 72,14 72,21 21,21 	"/>
	<polygon fill="#D6D6D6" points="21,72 14,72 14,14 72,14 72,21 21,21 	"/>
	<polygon fill="#D7D7D7" points="21,72 14,72 14,14 72,14 72,21 21,21 	"/>
	<polygon fill="#D8D8D8" points="21,72 14,72 14,14 72,14 72,21 21,21 	"/>
	<polygon fill="#D9D9D9" points="21,72 14,72 14,14 72,14 72,21 21,21 	"/>
	<polygon fill="#DADADA" points="21,72 14,72 14,14 72,14 72,21 21,21 	"/>
	<polygon fill="#DBDBDB" points="21,72 14,72 14,14 72,14 72,21 21,21 	"/>
	<polygon fill="#DCDCDC" points="21,72 14,72 14,14 72,14 72,21 21,21 	"/>
	<polygon fill="#DDDDDD" points="21,72 14,72 14,14 72,14 72,21 21,21 	"/>
	<polygon fill="#DEDEDE" points="21,72 14,72 14,14 72,14 72,21 21,21 	"/>
	<polygon fill="#DFDFDF" points="20,72 15,72 15,15 72,15 72,20 20,20 	"/>
	<polygon fill="#E0E0E0" points="20,72 15,72 15,15 72,15 72,20 20,20 	"/>
	<polygon fill="#E1E1E1" points="20,72 15,72 15,15 72,15 72,20 20,20 	"/>
	<polygon fill="#E2E2E2" points="20,72 15,72 15,15 72,15 72,20 20,20 	"/>
	<polygon fill="#E3E3E3" points="20,72 15,72 15,15 72,15 72,20 20,20 	"/>
	<polygon fill="#E4E4E4" points="20,72 15,72 15,15 72,15 72,20 20,20 	"/>
</g>
</svg>
