<?xml version="1.0" encoding="utf-8"?>
<!-- Generator: Adobe Illustrator 15.0.0, SVG Export Plug-In  -->
<!DOCTYPE svg PUBLIC "-//W3C//DTD SVG 1.1//EN" "http://www.w3.org/Graphics/SVG/1.1/DTD/svg11.dtd" [
	<!ENTITY ns_flows "http://ns.adobe.com/Flows/1.0/">
]>
<svg version="1.1"
	 xmlns="http://www.w3.org/2000/svg" xmlns:xlink="http://www.w3.org/1999/xlink" xmlns:a="http://ns.adobe.com/AdobeSVGViewerExtensions/3.0/"
	 x="0px" y="0px" width="72px" height="72px" viewBox="0 0 72 72" enable-background="new 0 0 72 72" xml:space="preserve">
<defs>
</defs>
<g>
	<polygon fill="#4D4D4D" points="37,0 72,0 72,72 0,72 0,37 37,37 	"/>
	<polygon fill="#4E4E4E" points="37,0 72,0 72,72 0,72 0,37 37,37 	"/>
	<polygon fill="#4F4F4F" points="37,0 72,0 72,72 0,72 0,37 37,37 	"/>
	<polygon fill="#505050" points="37,0 72,0 72,72 0,72 0,37 37,37 	"/>
	<polygon fill="#515151" points="37,0 72,0 72,72 0,72 0,37 37,37 	"/>
	<polygon fill="#525252" points="37,0 72,0 72,72 0,72 0,37 37,37 	"/>
	<polygon fill="#535353" points="38,0 71,0 71,71 0,71 0,38 38,38 	"/>
	<polygon fill="#545454" points="38,0 71,0 71,71 0,71 0,38 38,38 	"/>
	<polygon fill="#555555" points="38,0 71,0 71,71 0,71 0,38 38,38 	"/>
	<polygon fill="#565656" points="38,0 71,0 71,71 0,71 0,38 38,38 	"/>
	<polygon fill="#575757" points="38,0 71,0 71,71 0,71 0,38 38,38 	"/>
	<polygon fill="#585858" points="38,0 71,0 71,71 0,71 0,38 38,38 	"/>
	<polygon fill="#595959" points="38,0 71,0 71,71 0,71 0,38 38,38 	"/>
	<polygon fill="#5A5A5A" points="38,0 71,0 71,71 0,71 0,38 38,38 	"/>
	<polygon fill="#5B5B5B" points="38,0 71,0 71,71 0,71 0,38 38,38 	"/>
	<polygon fill="#5C5C5C" points="38,0 71,0 71,71 0,71 0,38 38,38 	"/>
	<polygon fill="#5D5D5D" points="39,0 70,0 70,70 0,70 0,39 39,39 	"/>
	<polygon fill="#5E5E5E" points="39,0 70,0 70,70 0,70 0,39 39,39 	"/>
	<polygon fill="#5F5F5F" points="39,0 70,0 70,70 0,70 0,39 39,39 	"/>
	<polygon fill="#606060" points="39,0 70,0 70,70 0,70 0,39 39,39 	"/>
	<polygon fill="#616161" points="39,0 70,0 70,70 0,70 0,39 39,39 	"/>
	<polygon fill="#626262" points="39,0 70,0 70,70 0,70 0,39 39,39 	"/>
	<polygon fill="#636363" points="39,0 70,0 70,70 0,70 0,39 39,39 	"/>
	<polygon fill="#646464" points="39,0 70,0 70,70 0,70 0,39 39,39 	"/>
	<polygon fill="#656565" points="39,0 70,0 70,70 0,70 0,39 39,39 	"/>
	<polygon fill="#666666" points="39,0 70,0 70,70 0,70 0,39 39,39 	"/>
	<polygon fill="#676767" points="40,0 69,0 69,69 0,69 0,40 40,40 	"/>
	<polygon fill="#686868" points="40,0 69,0 69,69 0,69 0,40 40,40 	"/>
	<polygon fill="#696969" points="40,0 69,0 69,69 0,69 0,40 40,40 	"/>
	<polygon fill="#6A6A6A" points="40,0 69,0 69,69 0,69 0,40 40,40 	"/>
	<polygon fill="#6B6B6B" points="40,0 69,0 69,69 0,69 0,40 40,40 	"/>
	<polygon fill="#6C6C6C" points="40,0 69,0 69,69 0,69 0,40 40,40 	"/>
	<polygon fill="#6D6D6D" points="40,0 69,0 69,69 0,69 0,40 40,40 	"/>
	<polygon fill="#6E6E6E" points="40,0 69,0 69,69 0,69 0,40 40,40 	"/>
	<polygon fill="#6F6F6F" points="40,0 69,0 69,69 0,69 0,40 40,40 	"/>
	<polygon fill="#707070" points="40,0 69,0 69,69 0,69 0,40 40,40 	"/>
	<polygon fill="#717171" points="41,0 68,0 68,68 0,68 0,41 41,41 	"/>
	<polygon fill="#727272" points="41,0 68,0 68,68 0,68 0,41 41,41 	"/>
	<polygon fill="#737373" points="41,0 68,0 68,68 0,68 0,41 41,41 	"/>
	<polygon fill="#747474" points="41,0 68,0 68,68 0,68 0,41 41,41 	"/>
	<polygon fill="#757575" points="41,0 68,0 68,68 0,68 0,41 41,41 	"/>
	<polygon fill="#767676" points="41,0 68,0 68,68 0,68 0,41 41,41 	"/>
	<polygon fill="#777777" points="41,0 68,0 68,68 0,68 0,41 41,41 	"/>
	<polygon fill="#787878" points="41,0 68,0 68,68 0,68 0,41 41,41 	"/>
	<polygon fill="#797979" points="41,0 68,0 68,68 0,68 0,41 41,41 	"/>
	<polygon fill="#7A7A7A" points="41,0 68,0 68,68 0,68 0,41 41,41 	"/>
	<polygon fill="#7B7B7B" points="42,0 67,0 67,67 0,67 0,42 42,42 	"/>
	<polygon fill="#7C7C7C" points="42,0 67,0 67,67 0,67 0,42 42,42 	"/>
	<polygon fill="#7D7D7D" points="42,0 67,0 67,67 0,67 0,42 42,42 	"/>
	<polygon fill="#7E7E7E" points="42,0 67,0 67,67 0,67 0,42 42,42 	"/>
	<polygon fill="#7F7F7F" points="42,0 67,0 67,67 0,67 0,42 42,42 	"/>
	<polygon fill="#808080" points="42,0 67,0 67,67 0,67 0,42 42,42 	"/>
	<polygon fill="#818181" points="42,0 67,0 67,67 0,67 0,42 42,42 	"/>
	<polygon fill="#828282" points="42,0 67,0 67,67 0,67 0,42 42,42 	"/>
	<polygon fill="#838383" points="42,0 67,0 67,67 0,67 0,42 42,42 	"/>
	<polygon fill="#848484" points="42,0 67,0 67,67 0,67 0,42 42,42 	"/>
	<polygon fill="#858585" points="43,0 66,0 66,66 0,66 0,43 43,43 	"/>
	<polygon fill="#868686" points="43,0 66,0 66,66 0,66 0,43 43,43 	"/>
	<polygon fill="#878787" points="43,0 66,0 66,66 0,66 0,43 43,43 	"/>
	<polygon fill="#888888" points="43,0 66,0 66,66 0,66 0,43 43,43 	"/>
	<polygon fill="#898989" points="43,0 66,0 66,66 0,66 0,43 43,43 	"/>
	<polygon fill="#8A8A8A" points="43,0 66,0 66,66 0,66 0,43 43,43 	"/>
	<polygon fill="#8B8B8B" points="43,0 66,0 66,66 0,66 0,43 43,43 	"/>
	<polygon fill="#8C8C8C" points="43,0 66,0 66,66 0,66 0,43 43,43 	"/>
	<polygon fill="#8D8D8D" points="43,0 66,0 66,66 0,66 0,43 43,43 	"/>
	<polygon fill="#8E8E8E" points="43,0 66,0 66,66 0,66 0,43 43,43 	"/>
	<polygon fill="#8F8F8F" points="44,0 65,0 65,65 0,65 0,44 44,44 	"/>
	<polygon fill="#909090" points="44,0 65,0 65,65 0,65 0,44 44,44 	"/>
	<polygon fill="#919191" points="44,0 65,0 65,65 0,65 0,44 44,44 	"/>
	<polygon fill="#929292" points="44,0 65,0 65,65 0,65 0,44 44,44 	"/>
	<polygon fill="#939393" points="44,0 65,0 65,65 0,65 0,44 44,44 	"/>
	<polygon fill="#949494" points="44,0 65,0 65,65 0,65 0,44 44,44 	"/>
	<polygon fill="#959595" points="44,0 65,0 65,65 0,65 0,44 44,44 	"/>
	<polygon fill="#969696" points="44,0 65,0 65,65 0,65 0,44 44,44 	"/>
	<polygon fill="#979797" points="44,0 65,0 65,65 0,65 0,44 44,44 	"/>
	<polygon fill="#989898" points="44,0 65,0 65,65 0,65 0,44 44,44 	"/>
	<polygon fill="#999999" points="45,0 64,0 64,64 0,64 0,45 45,45 	"/>
	<polygon fill="#9A9A9A" points="45,0 64,0 64,64 0,64 0,45 45,45 	"/>
	<polygon fill="#9B9B9B" points="45,0 64,0 64,64 0,64 0,45 45,45 	"/>
	<polygon fill="#9C9C9C" points="45,0 64,0 64,64 0,64 0,45 45,45 	"/>
	<polygon fill="#9D9D9D" points="45,0 64,0 64,64 0,64 0,45 45,45 	"/>
	<polygon fill="#9E9E9E" points="45,0 64,0 64,64 0,64 0,45 45,45 	"/>
	<polygon fill="#9F9F9F" points="45,0 64,0 64,64 0,64 0,45 45,45 	"/>
	<polygon fill="#A0A0A0" points="45,0 64,0 64,64 0,64 0,45 45,45 	"/>
	<polygon fill="#A1A1A1" points="45,0 64,0 64,64 0,64 0,45 45,45 	"/>
	<polygon fill="#A2A2A2" points="45,0 64,0 64,64 0,64 0,45 45,45 	"/>
	<polygon fill="#A3A3A3" points="46,0 63,0 63,63 0,63 0,46 46,46 	"/>
	<polygon fill="#A4A4A4" points="46,0 63,0 63,63 0,63 0,46 46,46 	"/>
	<polygon fill="#A5A5A5" points="46,0 63,0 63,63 0,63 0,46 46,46 	"/>
	<polygon fill="#A6A6A6" points="46,0 63,0 63,63 0,63 0,46 46,46 	"/>
	<polygon fill="#A7A7A7" points="46,0 63,0 63,63 0,63 0,46 46,46 	"/>
	<polygon fill="#A8A8A8" points="46,0 63,0 63,63 0,63 0,46 46,46 	"/>
	<polygon fill="#A9A9A9" points="46,0 63,0 63,63 0,63 0,46 46,46 	"/>
	<polygon fill="#AAAAAA" points="46,0 63,0 63,63 0,63 0,46 46,46 	"/>
	<polygon fill="#ABABAB" points="46,0 63,0 63,63 0,63 0,46 46,46 	"/>
	<polygon fill="#ACACAC" points="46,0 63,0 63,63 0,63 0,46 46,46 	"/>
	<polygon fill="#ADADAD" points="47,0 62,0 62,62 0,62 0,47 47,47 	"/>
	<polygon fill="#AEAEAE" points="47,0 62,0 62,62 0,62 0,47 47,47 	"/>
	<polygon fill="#AFAFAF" points="47,0 62,0 62,62 0,62 0,47 47,47 	"/>
	<polygon fill="#B0B0B0" points="47,0 62,0 62,62 0,62 0,47 47,47 	"/>
	<polygon fill="#B1B1B1" points="47,0 62,0 62,62 0,62 0,47 47,47 	"/>
	<polygon fill="#B2B2B2" points="47,0 62,0 62,62 0,62 0,47 47,47 	"/>
	<polygon fill="#B3B3B3" points="47,0 62,0 62,62 0,62 0,47 47,47 	"/>
	<polygon fill="#B4B4B4" points="47,0 62,0 62,62 0,62 0,47 47,47 	"/>
	<polygon fill="#B5B5B5" points="47,0 62,0 62,62 0,62 0,47 47,47 	"/>
	<polygon fill="#B6B6B6" points="47,0 62,0 62,62 0,62 0,47 47,47 	"/>
	<polygon fill="#B7B7B7" points="48,0 61,0 61,61 0,61 0,48 48,48 	"/>
	<polygon fill="#B8B8B8" points="48,0 61,0 61,61 0,61 0,48 48,48 	"/>
	<polygon fill="#B9B9B9" points="48,0 61,0 61,61 0,61 0,48 48,48 	"/>
	<polygon fill="#BABABA" points="48,0 61,0 61,61 0,61 0,48 48,48 	"/>
	<polygon fill="#BBBBBB" points="48,0 61,0 61,61 0,61 0,48 48,48 	"/>
	<polygon fill="#BCBCBC" points="48,0 61,0 61,61 0,61 0,48 48,48 	"/>
	<polygon fill="#BDBDBD" points="48,0 61,0 61,61 0,61 0,48 48,48 	"/>
	<polygon fill="#BEBEBE" points="48,0 61,0 61,61 0,61 0,48 48,48 	"/>
	<polygon fill="#BFBFBF" points="48,0 61,0 61,61 0,61 0,48 48,48 	"/>
	<polygon fill="#C0C0C0" points="48,0 61,0 61,61 0,61 0,48 48,48 	"/>
	<polygon fill="#C1C1C1" points="49,0 60,0 60,60 0,60 0,49 49,49 	"/>
	<polygon fill="#C2C2C2" points="49,0 60,0 60,60 0,60 0,49 49,49 	"/>
	<polygon fill="#C3C3C3" points="49,0 60,0 60,60 0,60 0,49 49,49 	"/>
	<polygon fill="#C4C4C4" points="49,0 60,0 60,60 0,60 0,49 49,49 	"/>
	<polygon fill="#C5C5C5" points="49,0 60,0 60,60 0,60 0,49 49,49 	"/>
	<polygon fill="#C6C6C6" points="49,0 60,0 60,60 0,60 0,49 49,49 	"/>
	<polygon fill="#C7C7C7" points="49,0 60,0 60,60 0,60 0,49 49,49 	"/>
	<polygon fill="#C8C8C8" points="49,0 60,0 60,60 0,60 0,49 49,49 	"/>
	<polygon fill="#C9C9C9" points="49,0 60,0 60,60 0,60 0,49 49,49 	"/>
	<polygon fill="#CACACA" points="49,0 60,0 60,60 0,60 0,49 49,49 	"/>
	<polygon fill="#CBCBCB" points="50,0 59,0 59,59 0,59 0,50 50,50 	"/>
	<polygon fill="#CCCCCC" points="50,0 59,0 59,59 0,59 0,50 50,50 	"/>
	<polygon fill="#CDCDCD" points="50,0 59,0 59,59 0,59 0,50 50,50 	"/>
	<polygon fill="#CECECE" points="50,0 59,0 59,59 0,59 0,50 50,50 	"/>
	<polygon fill="#CFCFCF" points="50,0 59,0 59,59 0,59 0,50 50,50 	"/>
	<polygon fill="#D0D0D0" points="50,0 59,0 59,59 0,59 0,50 50,50 	"/>
	<polygon fill="#D1D1D1" points="50,0 59,0 59,59 0,59 0,50 50,50 	"/>
	<polygon fill="#D2D2D2" points="50,0 59,0 59,59 0,59 0,50 50,50 	"/>
	<polygon fill="#D3D3D3" points="50,0 59,0 59,59 0,59 0,50 50,50 	"/>
	<polygon fill="#D4D4D4" points="50,0 59,0 59,59 0,59 0,50 50,50 	"/>
	<polygon fill="#D5D5D5" points="51,0 58,0 58,58 0,58 0,51 51,51 	"/>
	<polygon fill="#D6D6D6" points="51,0 58,0 58,58 0,58 0,51 51,51 	"/>
	<polygon fill="#D7D7D7" points="51,0 58,0 58,58 0,58 0,51 51,51 	"/>
	<polygon fill="#D8D8D8" points="51,0 58,0 58,58 0,58 0,51 51,51 	"/>
	<polygon fill="#D9D9D9" points="51,0 58,0 58,58 0,58 0,51 51,51 	"/>
	<polygon fill="#DADADA" points="51,0 58,0 58,58 0,58 0,51 51,51 	"/>
	<polygon fill="#DBDBDB" points="51,0 58,0 58,58 0,58 0,51 51,51 	"/>
	<polygon fill="#DCDCDC" points="51,0 58,0 58,58 0,58 0,51 51,51 	"/>
	<polygon fill="#DDDDDD" points="51,0 58,0 58,58 0,58 0,51 51,51 	"/>
	<polygon fill="#DEDEDE" points="51,0 58,0 58,58 0,58 0,51 51,51 	"/>
	<polygon fill="#DFDFDF" points="52,0 57,0 57,57 0,57 0,52 52,52 	"/>
	<polygon fill="#E0E0E0" points="52,0 57,0 57,57 0,57 0,52 52,52 	"/>
	<polygon fill="#E1E1E1" points="52,0 57,0 57,57 0,57 0,52 52,52 	"/>
	<polygon fill="#E2E2E2" points="52,0 57,0 57,57 0,57 0,52 52,52 	"/>
	<polygon fill="#E3E3E3" points="52,0 57,0 57,57 0,57 0,52 52,52 	"/>
	<polygon fill="#E4E4E4" points="52,0 57,0 57,57 0,57 0,52 52,52 	"/>
</g>
</svg>
