<?xml version="1.0" encoding="utf-8"?>
<!-- Generator: Adobe Illustrator 15.0.0, SVG Export Plug-In  -->
<!DOCTYPE svg PUBLIC "-//W3C//DTD SVG 1.1//EN" "http://www.w3.org/Graphics/SVG/1.1/DTD/svg11.dtd" [
	<!ENTITY ns_flows "http://ns.adobe.com/Flows/1.0/">
]>
<svg version="1.1"
	 xmlns="http://www.w3.org/2000/svg" xmlns:xlink="http://www.w3.org/1999/xlink" xmlns:a="http://ns.adobe.com/AdobeSVGViewerExtensions/3.0/"
	 x="0px" y="0px" width="72px" height="70px" viewBox="-2 0.061 72 70" enable-background="new -2 0.061 72 70"
	 xml:space="preserve">
<defs>
</defs>
<g>
	<path fill="#4D4D4D" d="M36,0.061H0v15.765c0,14.497,5.769,28.013,16.245,38.061c10.203,9.785,23.722,15.174,38.069,15.174H70v-36
		H54.313C44.027,33.061,36,25.508,36,15.826V0.061z"/>
	<path fill="#4E4E4E" d="M36,0.061H0v15.765c0,14.467,5.81,28.01,16.266,38.037c10.183,9.765,23.729,15.198,38.048,15.198H70v-36
		H54.313C43.966,33.061,36,25.566,36,15.826V0.061z"/>
	<path fill="#4F4F4F" d="M36,0.061H0v15.765c0,14.437,5.851,28.007,16.286,38.013c10.163,9.745,23.736,15.222,38.027,15.222H70v-36
		H54.313C43.904,33.061,36,25.625,36,15.826V0.061z"/>
	<path fill="#505050" d="M36,0.061H0v15.765c0,14.408,5.892,28.004,16.307,37.99c10.144,9.725,23.743,15.245,38.007,15.245H70v-36
		H54.313C43.843,33.061,36,25.684,36,15.826V0.061z"/>
	<path fill="#515151" d="M36,0.061H0v15.765c0,14.378,5.934,28.002,16.327,37.966c10.124,9.705,23.75,15.269,37.986,15.269H70v-36
		H54.313C43.782,33.061,36,25.743,36,15.826V0.061z"/>
	<path fill="#525252" d="M35,0.061H1v15.765c0,14.348,5.475,27.5,15.849,37.442c10.104,9.685,23.256,14.792,37.465,14.792H70v-34
		H54.313C43.72,34.061,35,25.802,35,15.826V0.061z"/>
	<path fill="#535353" d="M35,0.061H1v15.765c0,14.318,5.516,27.497,15.869,37.418c10.085,9.665,23.263,14.816,37.444,14.816H70v-34
		H54.313C43.659,34.061,35,25.86,35,15.826V0.061z"/>
	<path fill="#545454" d="M35,0.061H1v15.765C1,30.115,6.557,43.32,16.89,53.221c10.065,9.645,23.27,14.84,37.424,14.84H70v-34
		H54.313C43.597,34.061,35,25.919,35,15.826V0.061z"/>
	<path fill="#555555" d="M35,0.061H1v15.765c0,14.259,5.598,27.491,15.91,37.372c10.046,9.624,23.277,14.863,37.403,14.863H70v-34
		H54.313C43.536,34.061,35,25.978,35,15.826V0.061z"/>
	<path fill="#565656" d="M35,0.061H1v15.765c0,14.229,5.639,27.488,15.931,37.348c10.026,9.604,23.284,14.887,37.382,14.887H70v-34
		H54.313C43.474,34.061,35,26.037,35,15.826V0.061z"/>
	<path fill="#575757" d="M35,0.061H1v15.765c0,14.2,5.68,27.485,15.952,37.324c10.006,9.584,23.29,14.911,37.361,14.911H70v-34
		H54.313C43.413,34.061,35,26.096,35,15.826V0.061z"/>
	<path fill="#585858" d="M35,0.061H1v15.765c0,14.17,5.722,27.483,15.973,37.3c9.987,9.564,23.297,14.935,37.341,14.935H70v-34
		H54.313C43.352,34.061,35,26.154,35,15.826V0.061z"/>
	<path fill="#595959" d="M35,0.061H1v15.765c0,14.14,5.762,27.48,15.993,37.277c9.967,9.544,23.304,14.958,37.32,14.958H70v-34
		H54.313C43.29,34.061,35,26.213,35,15.826V0.061z"/>
	<path fill="#5A5A5A" d="M35,0.061H1v15.765c0,14.11,5.804,27.477,16.014,37.253c9.948,9.523,23.311,14.981,37.299,14.981H70v-34
		H54.313C43.229,34.061,35,26.272,35,15.826V0.061z"/>
	<path fill="#5B5B5B" d="M34,0.061H1v15.765c0,14.081,5.845,26.975,16.035,36.729c9.928,9.504,23.317,14.505,37.278,14.505H70v-33
		H54.313C43.167,34.061,34,26.331,34,15.826V0.061z"/>
	<path fill="#5C5C5C" d="M34,0.061H2v15.765c0,14.051,5.386,26.972,15.556,36.706c9.908,9.484,22.824,14.529,36.758,14.529H70v-32
		H54.313C43.105,35.061,34,26.389,34,15.826V0.061z"/>
	<path fill="#5D5D5D" d="M34,0.061H2v15.765c0,14.021,5.427,26.969,15.576,36.682c9.889,9.464,22.832,14.553,36.737,14.553H70v-32
		H54.313C43.044,35.061,34,26.448,34,15.826V0.061z"/>
	<path fill="#5E5E5E" d="M34,0.061H2v15.765c0,13.992,5.469,26.966,15.597,36.659c9.869,9.443,22.838,14.576,36.717,14.576H70v-32
		H54.313C42.983,35.061,34,26.507,34,15.826V0.061z"/>
	<path fill="#5F5F5F" d="M34,0.061H2v15.765C2,29.788,7.509,42.79,17.618,52.46c9.85,9.424,22.845,14.601,36.696,14.601H70v-32
		H54.313C42.921,35.061,34,26.566,34,15.826V0.061z"/>
	<path fill="#606060" d="M34,0.061H2v15.765c0,13.932,5.551,26.96,15.639,36.611c9.83,9.403,22.852,14.624,36.675,14.624H70v-32
		H54.313C42.86,35.061,34,26.625,34,15.826V0.061z"/>
	<path fill="#616161" d="M34,0.061H2v15.765c0,13.903,5.592,26.958,15.659,36.587c9.811,9.384,22.858,14.647,36.654,14.647H70v-32
		H54.313C42.798,35.061,34,26.683,34,15.826V0.061z"/>
	<path fill="#626262" d="M34,0.061H2v15.765C2,29.699,7.633,42.782,17.68,52.39c9.791,9.363,22.866,14.671,36.634,14.671H70v-32
		H54.313C42.737,35.061,34,26.742,34,15.826V0.061z"/>
	<path fill="#636363" d="M34,0.061H2v15.765c0,13.843,5.674,26.953,15.701,36.541c9.771,9.343,22.872,14.694,36.613,14.694H70v-32
		H54.313C42.675,35.061,34,26.801,34,15.826V0.061z"/>
	<path fill="#646464" d="M33,0.061H2v15.765c0,13.813,5.715,26.45,15.722,36.016c9.751,9.323,22.878,14.219,36.592,14.219H70v-31
		H54.313C42.614,35.061,33,26.859,33,15.826V0.061z"/>
	<path fill="#656565" d="M33,0.061H3v15.765C3,29.61,8.256,42.273,18.242,51.819c9.732,9.304,22.386,14.242,36.072,14.242H70v-30
		H54.313C42.553,36.061,33,26.918,33,15.826V0.061z"/>
	<path fill="#666666" d="M33,0.061H3v15.765C3,29.58,8.297,42.27,18.263,51.795c9.712,9.283,22.393,14.266,36.051,14.266H70v-30
		H54.313C42.491,36.061,33,26.977,33,15.826V0.061z"/>
	<path fill="#676767" d="M33,0.061H3v15.765c0,13.725,5.339,26.441,15.283,35.946c9.692,9.263,22.4,14.289,36.03,14.289H70v-30
		H54.313C42.43,36.061,33,27.036,33,15.826V0.061z"/>
	<path fill="#686868" d="M33,0.061H3v15.765c0,13.695,5.38,26.438,15.304,35.921c9.673,9.243,22.406,14.313,36.009,14.313H70v-30
		H54.313C42.368,36.061,33,27.095,33,15.826V0.061z"/>
	<path fill="#696969" d="M33,0.061H3v15.765c0,13.665,5.421,26.436,15.325,35.898c9.653,9.223,22.413,14.336,35.988,14.336H70v-30
		H54.313C42.307,36.061,33,27.153,33,15.826V0.061z"/>
	<path fill="#6A6A6A" d="M33,0.061H3v15.765c0,13.635,5.462,26.433,15.346,35.875c9.634,9.203,22.42,14.36,35.968,14.36H70v-30
		H54.313C42.246,36.061,33,27.212,33,15.826V0.061z"/>
	<path fill="#6B6B6B" d="M33,0.061H3v15.765c0,13.605,5.503,26.43,15.366,35.851c9.614,9.183,22.427,14.384,35.947,14.384H70v-30
		H54.313C42.184,36.061,33,27.271,33,15.826V0.061z"/>
	<path fill="#6C6C6C" d="M33,0.061H3v15.765c0,13.576,5.544,26.427,15.387,35.828c9.594,9.162,22.434,14.407,35.926,14.407H70v-30
		H54.313C42.123,36.061,33,27.33,33,15.826V0.061z"/>
	<path fill="#6D6D6D" d="M32,0.061H3v15.765C3,29.373,8.586,41.75,18.408,51.129c9.574,9.144,22.44,13.932,35.905,13.932H70v-29
		H54.313C42.061,36.061,32,27.389,32,15.826V0.061z"/>
	<path fill="#6E6E6E" d="M32,0.061H3v15.765c0,13.517,5.627,25.922,15.429,35.28c9.555,9.123,22.447,13.955,35.885,13.955H70v-29
		H54.313C42,36.061,32,27.447,32,15.826V0.061z"/>
	<path fill="#6F6F6F" d="M32,0.061H4v15.765c0,13.487,5.168,25.919,14.949,35.256c9.536,9.103,21.954,13.979,35.364,13.979H70v-28
		H54.313C41.938,37.061,32,27.506,32,15.826V0.061z"/>
	<path fill="#707070" d="M32,0.061H4v15.765c0,13.457,5.209,25.916,14.97,35.232c9.517,9.083,21.961,14.002,35.344,14.002H70v-28
		H54.313C41.877,37.061,32,27.565,32,15.826V0.061z"/>
	<path fill="#717171" d="M32,0.061H4v15.765C4,29.253,9.25,41.74,18.991,51.036c9.496,9.063,21.967,14.025,35.322,14.025H70v-28
		H54.313C41.815,37.061,32,27.624,32,15.826V0.061z"/>
	<path fill="#727272" d="M32,0.061H4v15.765c0,13.398,5.292,25.911,15.011,35.185c9.477,9.043,21.975,14.05,35.302,14.05H70v-28
		H54.313C41.754,37.061,32,27.683,32,15.826V0.061z"/>
	<path fill="#737373" d="M32,0.061H4v15.765c0,13.368,5.332,25.908,15.032,35.162c9.457,9.022,21.981,14.073,35.281,14.073H70v-28
		H54.313C41.692,37.061,32,27.741,32,15.826V0.061z"/>
	<path fill="#747474" d="M32,0.061H4v15.765c0,13.338,5.374,25.905,15.053,35.138c9.438,9.002,21.988,14.097,35.261,14.097H70v-28
		H54.313C41.631,37.061,32,27.8,32,15.826V0.061z"/>
	<path fill="#757575" d="M32,0.061H4v15.765C4,29.135,9.415,41.729,19.074,50.94c9.418,8.982,21.995,14.121,35.24,14.121H70v-28
		H54.313C41.569,37.061,32,27.859,32,15.826V0.061z"/>
	<path fill="#767676" d="M31,0.061H4v15.765c0,13.279,5.456,25.9,15.095,35.09c9.397,8.963,22.001,14.145,35.219,14.145H70v-28
		H54.313C41.508,37.061,31,27.917,31,15.826V0.061z"/>
	<path fill="#777777" d="M31,0.061H4v15.765c0,13.249,5.497,25.397,15.115,34.567c9.379,8.942,22.008,13.668,35.198,13.668H70v-27
		H54.313C41.447,37.061,31,27.976,31,15.826V0.061z"/>
	<path fill="#787878" d="M31,0.061H5v15.765c0,13.22,5.039,25.394,14.636,34.543c9.359,8.922,21.516,13.691,34.678,13.691H70v-26
		H54.313C41.385,38.061,31,28.035,31,15.826V0.061z"/>
	<path fill="#797979" d="M31,0.061H5v15.765c0,13.19,5.079,25.392,14.656,34.52c9.34,8.902,21.522,13.715,34.657,13.715H70v-26
		H54.313C41.324,38.061,31,28.094,31,15.826V0.061z"/>
	<path fill="#7A7A7A" d="M31,0.061H5v15.765c0,13.16,5.121,25.389,14.678,34.497c9.319,8.882,21.528,13.738,34.636,13.738H70v-26
		H54.313C41.262,38.061,31,28.152,31,15.826V0.061z"/>
	<path fill="#7B7B7B" d="M31,0.061H5v15.765c0,13.13,5.162,25.386,14.698,34.472c9.3,8.862,21.536,13.763,34.616,13.763H70v-26
		H54.313C41.201,38.061,31,28.211,31,15.826V0.061z"/>
	<path fill="#7C7C7C" d="M31,0.061H5v15.765c0,13.101,5.203,25.383,14.719,34.449c9.28,8.842,21.542,13.786,34.595,13.786H70v-26
		H54.313C41.139,38.061,31,28.27,31,15.826V0.061z"/>
	<path fill="#7D7D7D" d="M31,0.061H5v15.765c0,13.071,5.244,25.38,14.739,34.425c9.261,8.821,21.55,13.81,34.574,13.81H70v-26
		H54.313C41.078,38.061,31,28.329,31,15.826V0.061z"/>
	<path fill="#7E7E7E" d="M31,0.061H5v15.765c0,13.042,5.285,25.377,14.76,34.401c9.241,8.802,21.556,13.833,34.553,13.833H70v-26
		H54.313C41.017,38.061,31,28.388,31,15.826V0.061z"/>
	<path fill="#7F7F7F" d="M30,0.061H5v15.765c0,13.012,5.326,25.375,14.78,34.378c9.222,8.781,21.564,13.856,34.533,13.856H70v-26
		H54.313C40.955,38.061,30,28.446,30,15.826V0.061z"/>
	<path fill="#808080" d="M30,0.061H5v15.765c0,12.982,5.367,24.872,14.802,33.854c9.202,8.762,21.57,13.381,34.512,13.381H70v-25
		H54.313C40.894,38.061,30,28.505,30,15.826V0.061z"/>
	<path fill="#818181" d="M30,0.061H5v15.765c0,12.952,5.409,24.87,14.822,33.831c9.183,8.741,21.577,13.404,34.491,13.404H70v-25
		H54.313C40.832,38.061,30,28.564,30,15.826V0.061z"/>
	<path fill="#828282" d="M30,0.061H6v15.765c0,12.922,4.95,24.867,14.343,33.807c9.163,8.721,21.083,13.428,33.97,13.428H70v-24
		H54.313C40.771,39.061,30,28.623,30,15.826V0.061z"/>
	<path fill="#838383" d="M30,0.061H6v15.765c0,12.893,4.991,24.864,14.364,33.783c9.143,8.701,21.09,13.452,33.949,13.452H70v-24
		H54.313C40.709,39.061,30,28.682,30,15.826V0.061z"/>
	<path fill="#848484" d="M30,0.061H6v15.765c0,12.863,5.032,24.861,14.384,33.759c9.124,8.682,21.098,13.476,33.929,13.476H70v-24
		H54.313C40.648,39.061,30,28.74,30,15.826V0.061z"/>
	<path fill="#858585" d="M30,0.061H6v15.765c0,12.833,5.074,24.858,14.405,33.736c9.104,8.661,21.104,13.499,33.908,13.499H70v-24
		H54.313C40.586,39.061,30,28.799,30,15.826V0.061z"/>
	<path fill="#868686" d="M30,0.061H6v15.765c0,12.804,5.114,24.855,14.426,33.712c9.085,8.641,21.111,13.522,33.888,13.522H70v-24
		H54.313C40.525,39.061,30,28.858,30,15.826V0.061z"/>
	<path fill="#878787" d="M30,0.061H6v15.765C6,28.6,11.156,40.679,20.447,49.515c9.064,8.621,21.118,13.546,33.867,13.546H70v-24
		H54.313C40.463,39.061,30,28.917,30,15.826V0.061z"/>
	<path fill="#888888" d="M30,0.061H6v15.765c0,12.745,5.197,24.85,14.467,33.665c9.045,8.601,21.125,13.57,33.846,13.57H70v-24
		H54.313C40.402,39.061,30,28.976,30,15.826V0.061z"/>
	<path fill="#898989" d="M29,0.061H6v15.765c0,12.715,5.238,24.347,14.488,33.141c9.025,8.581,21.131,13.094,33.825,13.094H70v-23
		H54.313C40.341,39.061,29,29.034,29,15.826V0.061z"/>
	<path fill="#8A8A8A" d="M29,0.061H6v15.765c0,12.685,5.279,24.344,14.509,33.118c9.006,8.561,21.138,13.117,33.805,13.117H70v-23
		H54.313C40.279,39.061,29,29.093,29,15.826V0.061z"/>
	<path fill="#8B8B8B" d="M29,0.061H6v15.765c0,12.655,5.32,24.342,14.53,33.094c8.986,8.541,21.145,13.141,33.784,13.141H70v-22
		H54.313C40.218,40.061,29,29.152,29,15.826V0.061z"/>
	<path fill="#8C8C8C" d="M29,0.061H7v15.765c0,12.625,4.861,24.339,14.05,33.07c8.967,8.521,20.652,13.165,33.264,13.165H70v-22
		H54.313C40.156,40.061,29,29.21,29,15.826V0.061z"/>
	<path fill="#8D8D8D" d="M29,0.061H7v15.765c0,12.596,4.902,24.336,14.071,33.046c8.947,8.5,20.659,13.188,33.243,13.188H70v-22
		H54.313C40.095,40.061,29,29.269,29,15.826V0.061z"/>
	<path fill="#8E8E8E" d="M29,0.061H7v15.765c0,12.566,4.944,24.333,14.092,33.023c8.927,8.48,20.666,13.212,33.222,13.212H70v-22
		H54.313C40.033,40.061,29,29.328,29,15.826V0.061z"/>
	<path fill="#8F8F8F" d="M29,0.061H7v15.765c0,12.537,4.985,24.331,14.112,33c8.908,8.46,20.672,13.235,33.201,13.235H70v-22H54.313
		C39.972,40.061,29,29.387,29,15.826V0.061z"/>
	<path fill="#909090" d="M29,0.061H7v15.765c0,12.507,5.026,24.328,14.133,32.976c8.888,8.44,20.679,13.259,33.18,13.259H70v-22
		H54.313C39.911,40.061,29,29.445,29,15.826V0.061z"/>
	<path fill="#919191" d="M29,0.061H7v15.765c0,12.477,5.067,24.325,14.154,32.952c8.869,8.42,20.686,13.283,33.16,13.283H70v-22
		H54.313C39.849,40.061,29,29.504,29,15.826V0.061z"/>
	<path fill="#929292" d="M28,0.061H7v15.765c0,12.447,5.108,23.822,14.175,32.428c8.849,8.4,20.692,12.807,33.139,12.807H70v-21
		H54.313C39.788,40.061,28,29.563,28,15.826V0.061z"/>
	<path fill="#939393" d="M28,0.061H7v15.765c0,12.418,5.149,23.82,14.195,32.405c8.829,8.38,20.7,12.83,33.118,12.83H70v-21H54.313
		C39.726,40.061,28,29.622,28,15.826V0.061z"/>
	<path fill="#949494" d="M28,0.061H7v15.765c0,12.388,5.191,23.817,14.216,32.381c8.81,8.359,20.706,12.854,33.097,12.854H70v-21
		H54.313C39.665,40.061,28,29.681,28,15.826V0.061z"/>
	<path fill="#959595" d="M28,0.061H8v15.765c0,12.358,4.731,23.814,13.736,32.357c8.79,8.34,20.214,12.877,32.577,12.877H70v-20
		H54.313C39.603,41.061,28,29.739,28,15.826V0.061z"/>
	<path fill="#969696" d="M28,0.061H8v15.765c0,12.329,4.773,23.811,13.758,32.334c8.771,8.319,20.22,12.901,32.556,12.901H70v-20
		H54.313C39.542,41.061,28,29.798,28,15.826V0.061z"/>
	<path fill="#979797" d="M28,0.061H8v15.765c0,12.299,4.814,23.808,13.778,32.31c8.751,8.3,20.227,12.925,32.535,12.925H70v-20
		H54.313C39.48,41.061,28,29.857,28,15.826V0.061z"/>
	<path fill="#989898" d="M28,0.061H8v15.765c0,12.269,4.855,23.805,13.799,32.287c8.731,8.279,20.234,12.948,32.515,12.948H70v-20
		H54.313C39.419,41.061,28,29.916,28,15.826V0.061z"/>
	<path fill="#999999" d="M28,0.061H8v15.765c0,12.24,4.896,23.803,13.819,32.263c8.712,8.259,20.241,12.972,32.494,12.972H70v-20
		H54.313C39.357,41.061,28,29.975,28,15.826V0.061z"/>
	<path fill="#9A9A9A" d="M28,0.061H8v15.765c0,12.21,4.938,23.8,13.84,32.239c8.692,8.239,20.248,12.996,32.473,12.996H70v-20
		H54.313C39.296,41.061,28,30.033,28,15.826V0.061z"/>
	<path fill="#9B9B9B" d="M27,0.061H8v15.765c0,12.18,4.979,23.297,13.861,31.715c8.672,8.22,20.254,12.52,32.452,12.52H70v-19
		H54.313C39.234,41.061,27,30.092,27,15.826V0.061z"/>
	<path fill="#9C9C9C" d="M27,0.061H8v15.765c0,12.15,5.021,23.294,13.882,31.692c8.653,8.199,20.261,12.543,32.432,12.543H70v-19
		H54.313C39.173,41.061,27,30.151,27,15.826V0.061z"/>
	<path fill="#9D9D9D" d="M27,0.061H8v15.765c0,12.121,5.061,23.292,13.902,31.668c8.633,8.179,20.268,12.566,32.411,12.566H70v-19
		H54.313C39.112,41.061,27,30.209,27,15.826V0.061z"/>
	<path fill="#9E9E9E" d="M27,0.061H8v15.765c0,12.091,5.103,23.289,13.923,31.644c8.614,8.159,20.275,12.591,32.391,12.591H70v-18
		H54.313C39.05,42.061,27,30.269,27,15.826V0.061z"/>
	<path fill="#9F9F9F" d="M27,0.061H9v15.765c0,12.062,4.644,23.286,13.444,31.621c8.594,8.139,19.781,12.614,31.869,12.614H70v-18
		H54.313C38.989,42.061,27,30.327,27,15.826V0.061z"/>
	<path fill="#A0A0A0" d="M27,0.061H9v15.765c0,12.032,4.685,23.283,13.465,31.597c8.574,8.119,19.788,12.638,31.849,12.638H70v-18
		H54.313C38.927,42.061,27,30.386,27,15.826V0.061z"/>
	<path fill="#A1A1A1" d="M27,0.061H9v15.765C9,27.828,13.726,39.107,22.485,47.4c8.555,8.099,19.795,12.661,31.828,12.661H70v-18
		H54.313C38.866,42.061,27,30.445,27,15.826V0.061z"/>
	<path fill="#A2A2A2" d="M27,0.061H9v15.765c0,11.972,4.767,23.278,13.506,31.55c8.535,8.078,19.802,12.685,31.808,12.685H70v-18
		H54.313C38.804,42.061,27,30.503,27,15.826V0.061z"/>
	<path fill="#A3A3A3" d="M27,0.061H9v15.765c0,11.942,4.808,23.275,13.527,31.526c8.516,8.059,19.809,12.709,31.787,12.709H70v-18
		H54.313C38.743,42.061,27,30.562,27,15.826V0.061z"/>
	<path fill="#A4A4A4" d="M26,0.061H9v15.765c0,11.913,4.85,22.772,13.548,31.003c8.495,8.039,19.815,12.232,31.766,12.232H70v-17
		H54.313C38.682,42.061,26,30.621,26,15.826V0.061z"/>
	<path fill="#A5A5A5" d="M26,0.061H9v15.765c0,11.883,4.891,22.77,13.568,30.979c8.477,8.019,19.822,12.256,31.745,12.256H70v-17
		H54.313C38.62,42.061,26,30.68,26,15.826V0.061z"/>
	<path fill="#A6A6A6" d="M26,0.061H9v15.765c0,11.854,4.932,22.767,13.589,30.956c8.457,7.998,19.83,12.279,31.725,12.279H70v-17
		H54.313C38.559,42.061,26,30.738,26,15.826V0.061z"/>
	<path fill="#A7A7A7" d="M26,0.061H9v15.765C9,27.65,13.973,38.59,22.61,46.758c8.437,7.978,19.836,12.303,31.704,12.303H70v-17
		H54.313C38.497,42.061,26,30.797,26,15.826V0.061z"/>
	<path fill="#A8A8A8" d="M26,0.061H10v15.765c0,11.794,4.514,22.761,13.131,30.908c8.417,7.959,19.342,12.327,31.183,12.327H70v-16
		H54.313C38.436,43.061,26,30.856,26,15.826V0.061z"/>
	<path fill="#A9A9A9" d="M26,0.061H10v15.765c0,11.764,4.555,22.759,13.151,30.884c8.397,7.938,19.35,12.351,31.162,12.351H70v-16
		H54.313C38.375,43.061,26,30.915,26,15.826V0.061z"/>
	<path fill="#AAAAAA" d="M26,0.061H10v15.765c0,11.735,4.596,22.756,13.172,30.861c8.378,7.918,19.356,12.374,31.142,12.374H70v-16
		H54.313c-16,0-28.313-12.087-28.313-27.235V0.061z"/>
	<path fill="#ABABAB" d="M26,0.061H10v15.765c0,11.705,4.638,22.753,13.192,30.837c8.358,7.897,19.364,12.397,31.121,12.397H70v-16
		H54.313C38.251,43.061,26,31.032,26,15.826V0.061z"/>
	<path fill="#ACACAC" d="M26,0.061H10v15.765c0,11.675,4.679,22.75,13.213,30.813c8.339,7.879,19.37,12.422,31.1,12.422H70v-16
		H54.313C38.19,43.061,26,31.091,26,15.826V0.061z"/>
	<path fill="#ADADAD" d="M25,0.061H10v15.765c0,11.646,4.72,22.248,13.234,30.29c8.319,7.858,19.376,11.945,31.079,11.945H70v-15
		H54.313C38.128,43.061,25,31.15,25,15.826V0.061z"/>
	<path fill="#AEAEAE" d="M25,0.061H10v15.765c0,11.616,4.761,22.245,13.255,30.266c8.3,7.838,19.384,11.969,31.059,11.969H70v-15
		H54.313C38.067,43.061,25,31.208,25,15.826V0.061z"/>
	<path fill="#AFAFAF" d="M25,0.061H10v15.765c0,11.586,4.802,22.242,13.275,30.242c8.28,7.818,19.391,11.993,31.038,11.993H70v-15
		H54.313C38.006,43.061,25,31.268,25,15.826V0.061z"/>
	<path fill="#B0B0B0" d="M25,0.061H10v15.765c0,11.557,4.843,22.239,13.296,30.219c8.26,7.798,19.397,12.016,31.017,12.016H70v-15
		H54.313C37.944,43.061,25,31.326,25,15.826V0.061z"/>
	<path fill="#B1B1B1" d="M25,0.061H10v15.765c0,11.527,4.885,22.237,13.317,30.195c8.24,7.778,19.404,12.04,30.996,12.04H70v-14
		H54.313C37.883,44.061,25,31.385,25,15.826V0.061z"/>
	<path fill="#B2B2B2" d="M25,0.061H11v15.765c0,11.497,4.425,22.234,12.838,30.171c8.221,7.758,18.911,12.063,30.476,12.063H70v-14
		H54.313C37.821,44.061,25,31.444,25,15.826V0.061z"/>
	<path fill="#B3B3B3" d="M25,0.061H11v15.765c0,11.467,4.467,22.231,12.858,30.148c8.202,7.737,18.918,12.087,30.455,12.087H70v-14
		H54.313C37.76,44.061,25,31.502,25,15.826V0.061z"/>
	<path fill="#B4B4B4" d="M25,0.061H11v15.765c0,11.438,4.508,22.228,12.879,30.124c8.183,7.718,18.925,12.111,30.435,12.111H70v-14
		H54.313C37.698,44.061,25,31.562,25,15.826V0.061z"/>
	<path fill="#B5B5B5" d="M25,0.061H11v15.765c0,11.408,4.549,22.225,12.9,30.1c8.162,7.698,18.932,12.135,30.414,12.135H70v-14
		H54.313C37.637,44.061,25,31.62,25,15.826V0.061z"/>
	<path fill="#B6B6B6" d="M24,0.061H11v15.765c0,11.378,4.59,21.722,12.921,29.577c8.143,7.678,18.938,11.658,30.393,11.658H70v-13
		H54.313C37.576,44.061,24,31.679,24,15.826V0.061z"/>
	<path fill="#B7B7B7" d="M24,0.061H11v15.765c0,11.349,4.631,21.72,12.941,29.553c8.123,7.657,18.945,11.682,30.372,11.682H70v-13
		H54.313C37.514,44.061,24,31.738,24,15.826V0.061z"/>
	<path fill="#B8B8B8" d="M24,0.061H11v15.765c0,11.319,4.673,21.717,12.962,29.53c8.104,7.637,18.952,11.705,30.352,11.705H70v-13
		H54.313C37.453,44.061,24,31.796,24,15.826V0.061z"/>
	<path fill="#B9B9B9" d="M24,0.061H11v15.765c0,11.289,4.714,21.714,12.983,29.506c8.084,7.617,18.958,11.729,30.331,11.729H70v-13
		H54.313C37.391,44.061,24,31.855,24,15.826V0.061z"/>
	<path fill="#BABABA" d="M24,0.061H11v15.765c0,11.259,4.755,21.711,13.004,29.482c8.063,7.598,18.965,11.753,30.31,11.753H70v-13
		H54.313C37.33,44.061,24,31.914,24,15.826V0.061z"/>
	<path fill="#BBBBBB" d="M24,0.061H12v15.765c0,11.23,4.296,21.708,12.524,29.458c8.045,7.577,18.472,11.776,29.789,11.776H70v-12
		H54.313C37.268,45.061,24,31.973,24,15.826V0.061z"/>
	<path fill="#BCBCBC" d="M24,0.061H12v15.765c0,11.2,4.337,21.706,12.545,29.435c8.025,7.557,18.479,11.8,29.769,11.8H70v-12H54.313
		C37.207,45.061,24,32.031,24,15.826V0.061z"/>
	<path fill="#BDBDBD" d="M24,0.061H12v15.765c0,11.17,4.378,21.703,12.565,29.411c8.006,7.537,18.486,11.824,29.748,11.824H70v-12
		H54.313C37.146,45.061,24,32.09,24,15.826V0.061z"/>
	<path fill="#BEBEBE" d="M24,0.061H12v15.765c0,11.141,4.42,21.7,12.587,29.388c7.985,7.517,18.492,11.847,29.727,11.847H70v-12
		H54.313C37.084,45.061,24,32.149,24,15.826V0.061z"/>
	<path fill="#BFBFBF" d="M23,0.061H12v15.765c0,11.111,4.46,21.698,12.607,29.364c7.966,7.497,18.5,11.871,29.706,11.871H70v-12
		H54.313C37.022,45.061,23,32.208,23,15.826V0.061z"/>
	<path fill="#C0C0C0" d="M23,0.061H12v15.765c0,11.082,4.502,21.195,12.628,28.84c7.946,7.477,18.506,11.395,29.686,11.395H70v-11
		H54.313C36.961,45.061,23,32.267,23,15.826V0.061z"/>
	<path fill="#C1C1C1" d="M23,0.061H12v15.765c0,11.052,4.543,21.192,12.648,28.817c7.927,7.457,18.514,11.418,29.665,11.418H70v-11
		H54.313C36.899,45.061,23,32.325,23,15.826V0.061z"/>
	<path fill="#C2C2C2" d="M23,0.061H12v15.765c0,11.022,4.584,21.189,12.669,28.793c7.907,7.437,18.52,11.442,29.644,11.442H70v-11
		H54.313C36.838,45.061,23,32.384,23,15.826V0.061z"/>
	<path fill="#C3C3C3" d="M23,0.061H12v15.765c0,10.992,4.625,21.187,12.69,28.769c7.888,7.417,18.526,11.466,29.623,11.466H70v-11
		H54.313C36.777,45.061,23,32.443,23,15.826V0.061z"/>
	<path fill="#C4C4C4" d="M23,0.061H12v15.765c0,10.962,4.666,21.184,12.711,28.746c7.868,7.396,18.534,11.489,29.603,11.489H70v-10
		H54.313C36.715,46.061,23,32.501,23,15.826V0.061z"/>
	<path fill="#C5C5C5" d="M23,0.061H13v15.765c0,10.933,4.208,21.181,12.231,28.722c7.849,7.376,18.041,11.513,29.082,11.513H70v-10
		H54.313C36.654,46.061,23,32.561,23,15.826V0.061z"/>
	<path fill="#C6C6C6" d="M23,0.061H13v15.765c0,10.903,4.249,21.178,12.252,28.698c7.829,7.356,18.048,11.537,29.062,11.537H70v-10
		H54.313C36.592,46.061,23,32.619,23,15.826V0.061z"/>
	<path fill="#C7C7C7" d="M23,0.061H13v15.765c0,10.874,4.29,21.175,12.273,28.675c7.809,7.336,18.054,11.56,29.04,11.56H70v-10
		H54.313C36.531,46.061,23,32.678,23,15.826V0.061z"/>
	<path fill="#C8C8C8" d="M22,0.061h-9v15.765c0,10.844,4.331,21.172,12.294,28.651c7.79,7.316,18.061,11.584,29.02,11.584H70v-10
		H54.313C36.47,46.061,22,32.737,22,15.826V0.061z"/>
	<path fill="#C9C9C9" d="M22,0.061h-9v15.765c0,10.814,4.372,20.67,12.314,28.127c7.77,7.296,18.068,11.107,28.999,11.107H70v-9
		H54.313C36.408,46.061,22,32.795,22,15.826V0.061z"/>
	<path fill="#CACACA" d="M22,0.061h-9v15.765c0,10.784,4.413,20.667,12.335,28.104c7.751,7.275,18.075,11.131,28.979,11.131H70v-9
		H54.313C36.347,46.061,22,32.854,22,15.826V0.061z"/>
	<path fill="#CBCBCB" d="M22,0.061h-9v15.765c0,10.755,4.455,20.665,12.356,28.08c7.73,7.256,18.082,11.155,28.958,11.155H70v-9
		H54.313C36.285,46.061,22,32.913,22,15.826V0.061z"/>
	<path fill="#CCCCCC" d="M22,0.061h-9v15.765c0,10.725,4.496,20.662,12.377,28.057c7.711,7.235,18.088,11.178,28.937,11.178H70v-9
		H54.313C36.224,46.061,22,32.972,22,15.826V0.061z"/>
	<path fill="#CDCDCD" d="M22,0.061h-9v15.765c0,10.695,4.537,20.659,12.397,28.033c7.691,7.216,18.095,11.202,28.916,11.202H70v-9
		H54.313C36.162,46.061,22,33.031,22,15.826V0.061z"/>
	<path fill="#CECECE" d="M22,0.061h-8v15.765c0,10.666,4.078,20.656,11.918,28.009c7.672,7.195,17.602,11.226,28.396,11.226H70v-8
		H54.313C36.101,47.061,22,33.089,22,15.826V0.061z"/>
	<path fill="#CFCFCF" d="M22,0.061h-8v15.765c0,10.636,4.119,20.653,11.939,27.986c7.652,7.175,17.608,11.249,28.375,11.249H70v-8
		H54.313C36.04,47.061,22,33.148,22,15.826V0.061z"/>
	<path fill="#D0D0D0" d="M22,0.061h-8v15.765c0,10.606,4.16,20.65,11.96,27.962c7.632,7.155,17.615,11.273,28.354,11.273H70v-8
		H54.313C35.978,47.061,22,33.207,22,15.826V0.061z"/>
	<path fill="#D1D1D1" d="M22,0.061h-8v15.765c0,10.577,4.201,20.648,11.98,27.938c7.613,7.135,17.623,11.297,28.333,11.297H70v-8
		H54.313C35.917,47.061,22,33.266,22,15.826V0.061z"/>
	<path fill="#D2D2D2" d="M21,0.061h-7v15.765c0,10.547,4.243,20.145,12.001,27.415c7.593,7.115,17.629,10.82,28.313,10.82H70v-7
		H54.313C35.855,47.061,21,33.324,21,15.826V0.061z"/>
	<path fill="#D3D3D3" d="M21,0.061h-7v15.765c0,10.517,4.284,20.142,12.021,27.391c7.574,7.095,17.636,10.844,28.292,10.844H70v-7
		H54.313C35.793,47.061,21,33.383,21,15.826V0.061z"/>
	<path fill="#D4D4D4" d="M21,0.061h-7v15.765c0,10.487,4.325,20.139,12.042,27.367c7.554,7.075,17.643,10.868,28.271,10.868H70v-7
		H54.313C35.732,47.061,21,33.442,21,15.826V0.061z"/>
	<path fill="#D5D5D5" d="M21,0.061h-7v15.765c0,10.458,4.366,20.137,12.063,27.344c7.535,7.055,17.65,10.891,28.25,10.891H70v-7
		H54.313C35.671,47.061,21,33.501,21,15.826V0.061z"/>
	<path fill="#D6D6D6" d="M21,0.061h-7v15.765c0,10.428,4.407,20.134,12.084,27.32c7.515,7.035,17.656,10.915,28.229,10.915H70v-7
		H54.313C35.609,47.061,21,33.56,21,15.826V0.061z"/>
	<path fill="#D7D7D7" d="M21,0.061h-7v15.765c0,10.398,4.448,20.131,12.104,27.296c7.495,7.015,17.664,10.938,28.209,10.938H70v-7
		H54.313C35.548,47.061,21,33.618,21,15.826V0.061z"/>
	<path fill="#D8D8D8" d="M21,0.061h-6v15.765c0,10.369,3.99,20.128,11.625,27.273c7.476,6.994,17.17,10.962,27.688,10.962H70v-6
		H54.313C35.486,48.061,21,33.677,21,15.826V0.061z"/>
	<path fill="#D9D9D9" d="M21,0.061h-6v15.765c0,10.339,4.03,20.125,11.646,27.249c7.456,6.975,17.176,10.986,27.667,10.986H70v-6
		H54.313C35.425,48.061,21,33.736,21,15.826V0.061z"/>
	<path fill="#DADADA" d="M21,0.061h-6v15.765c0,10.309,4.072,20.123,11.667,27.225c7.437,6.955,17.184,11.01,27.647,11.01H70v-6
		H54.313C35.363,48.061,21,33.794,21,15.826V0.061z"/>
	<path fill="#DBDBDB" d="M20,0.061h-5v15.765c0,10.279,4.113,19.62,11.688,26.702c7.417,6.935,17.19,10.533,27.626,10.533H70v-5
		H54.313C35.302,48.061,20,33.854,20,15.826V0.061z"/>
	<path fill="#DCDCDC" d="M20,0.061h-5v15.765c0,10.25,4.154,19.618,11.708,26.678c7.397,6.914,17.198,10.557,27.605,10.557H70v-5
		H54.313C35.241,48.061,20,33.912,20,15.826V0.061z"/>
	<path fill="#DDDDDD" d="M20,0.061h-5v15.765c0,10.22,4.195,19.615,11.729,26.655c7.377,6.894,17.204,10.58,27.584,10.58H70v-5
		H54.313C35.179,48.061,20,33.971,20,15.826V0.061z"/>
	<path fill="#DEDEDE" d="M20,0.061h-5v15.765c0,10.19,4.236,19.612,11.75,26.631c7.358,6.875,17.211,10.604,27.564,10.604H70v-5
		H54.313C35.118,48.061,20,34.03,20,15.826V0.061z"/>
	<path fill="#DFDFDF" d="M20,0.061h-5v15.765c0,10.161,4.277,19.609,11.771,26.607c7.338,6.854,17.218,10.628,27.543,10.628H70v-5
		H54.313C35.056,48.061,20,34.088,20,15.826V0.061z"/>
	<path fill="#E0E0E0" d="M20,0.061h-5v15.765c0,10.131,4.319,19.606,11.791,26.583c7.319,6.834,17.225,10.651,27.522,10.651H70v-5
		H54.313C34.995,48.061,20,34.147,20,15.826V0.061z"/>
	<path fill="#E1E1E1" d="M20,0.061h-4v15.765c0,10.101,3.86,19.604,11.312,26.56c7.299,6.813,16.731,10.675,27.001,10.675H70v-4
		H54.313C34.934,49.061,20,34.206,20,15.826V0.061z"/>
	<path fill="#E2E2E2" d="M20,0.061h-4v15.765c0,10.072,3.901,19.601,11.332,26.536c7.28,6.795,16.739,10.699,26.981,10.699H70v-4
		H54.313C34.872,49.061,20,34.265,20,15.826V0.061z"/>
	<path fill="#E3E3E3" d="M20,0.061h-4v15.765c0,10.042,3.942,19.598,11.354,26.513c7.26,6.774,16.745,10.722,26.96,10.722H70v-4
		H54.313C34.811,49.061,20,34.324,20,15.826V0.061z"/>
	<path fill="#E4E4E4" d="M19,0.061h-3v15.765c0,10.012,3.983,19.095,11.374,25.989c7.24,6.754,16.752,10.246,26.939,10.246H70v-3
		H54.313C34.749,49.061,19,34.382,19,15.826V0.061z"/>
</g>
</svg>
