<?xml version="1.0" encoding="utf-8"?>
<!-- Generator: Adobe Illustrator 15.0.0, SVG Export Plug-In  -->
<!DOCTYPE svg PUBLIC "-//W3C//DTD SVG 1.1//EN" "http://www.w3.org/Graphics/SVG/1.1/DTD/svg11.dtd" [
	<!ENTITY ns_flows "http://ns.adobe.com/Flows/1.0/">
]>
<svg version="1.1"
	 xmlns="http://www.w3.org/2000/svg" xmlns:xlink="http://www.w3.org/1999/xlink" xmlns:a="http://ns.adobe.com/AdobeSVGViewerExtensions/3.0/"
	 x="0px" y="0px" width="72px" height="70px" viewBox="1 -1 72 70" enable-background="new 1 -1 72 70" xml:space="preserve">
<defs>
</defs>
<g>
	<path fill="#4D4D4D" d="M35,69h36V53.235c0-14.497-5.83-28.013-16.306-38.061C44.491,5.389,30.91,0,16.563,0H0v36h16.563
		C26.85,36,35,43.553,35,53.235V69z"/>
	<path fill="#4E4E4E" d="M35,69h36V53.235c0-14.467-5.872-28.01-16.327-38.037C44.49,5.433,30.883,0,16.563,0H0v36h16.563
		C26.912,36,35,43.495,35,53.235V69z"/>
	<path fill="#4F4F4F" d="M35,69h36V53.235c0-14.437-5.913-28.007-16.348-38.013C44.489,5.477,30.855,0,16.563,0H0v36h16.563
		C26.973,36,35,43.436,35,53.235V69z"/>
	<path fill="#505050" d="M35,69h36V53.235c0-14.408-5.954-28.004-16.368-37.99C44.488,5.521,30.828,0,16.563,0H0v36h16.563
		C27.035,36,35,43.377,35,53.235V69z"/>
	<path fill="#515151" d="M35,69h35V53.235c0-14.378-5.495-28.002-15.889-37.966C43.987,5.564,30.8,0,16.563,0H0v36h16.563
		C27.096,36,35,43.318,35,53.235V69z"/>
	<path fill="#525252" d="M35,69h35V53.235c0-14.348-5.536-27.5-15.91-37.442C43.986,6.108,30.772,1,16.563,1H0v34h16.563
		C27.157,35,35,43.259,35,53.235V69z"/>
	<path fill="#535353" d="M36,69h34V53.235c0-14.318-5.577-27.497-15.931-37.418C43.984,6.151,30.745,1,16.563,1H0v34h16.563
		C27.219,35,36,43.201,36,53.235V69z"/>
	<path fill="#545454" d="M36,69h34V53.235c0-14.289-5.618-27.494-15.951-37.395C43.984,6.195,30.717,1,16.563,1H0v34h16.563
		C27.28,35,36,43.142,36,53.235V69z"/>
	<path fill="#555555" d="M36,69h34V53.235c0-14.259-5.66-27.491-15.972-37.372C43.982,6.239,30.69,1,16.563,1H0v34h16.563
		C27.342,35,36,43.083,36,53.235V69z"/>
	<path fill="#565656" d="M36,69h34V53.235c0-14.229-5.701-27.488-15.992-37.348C43.981,6.283,30.662,1,16.563,1H0v34h16.563
		C27.403,35,36,43.024,36,53.235V69z"/>
	<path fill="#575757" d="M36,69h34V53.235c0-14.2-5.742-27.485-16.013-37.324C43.98,6.327,30.635,1,16.563,1H0v34h16.563
		C27.464,35,36,42.965,36,53.235V69z"/>
	<path fill="#585858" d="M36,69h34V53.235c0-14.17-5.783-27.483-16.034-37.3C43.979,6.37,30.607,1,16.563,1H0v34h16.563
		C27.526,35,36,42.907,36,53.235V69z"/>
	<path fill="#595959" d="M36,69h34V53.235c0-14.14-5.824-27.48-16.055-37.277C43.979,6.414,30.58,1,16.563,1H0v34h16.563
		C27.587,35,36,42.848,36,53.235V69z"/>
	<path fill="#5A5A5A" d="M36,69h34V53.235c0-14.11-5.865-27.477-16.075-37.253C43.977,6.458,30.552,1,16.563,1H0v34h16.563
		C27.649,35,36,42.789,36,53.235V69z"/>
	<path fill="#5B5B5B" d="M36,69h33V53.235c0-14.081-5.407-26.975-15.596-36.729C43.476,7.001,30.524,2,16.563,2H0v33h16.563
		C27.71,35,36,42.73,36,53.235V69z"/>
	<path fill="#5C5C5C" d="M37,69h32V53.235c0-14.051-5.447-26.972-15.617-36.706C43.475,7.045,30.497,2,16.563,2H0v32h16.563
		C27.772,34,37,42.672,37,53.235V69z"/>
	<path fill="#5D5D5D" d="M37,69h32V53.235c0-14.021-5.489-26.969-15.637-36.682C43.474,7.089,30.47,2,16.563,2H0v32h16.563
		C27.833,34,37,42.613,37,53.235V69z"/>
	<path fill="#5E5E5E" d="M37,69h32V53.235c0-13.992-5.53-26.966-15.658-36.659C43.473,7.133,30.442,2,16.563,2H0v32h16.563
		C27.895,34,37,42.554,37,53.235V69z"/>
	<path fill="#5F5F5F" d="M37,69h32V53.235c0-13.962-5.571-26.963-15.679-36.634C43.472,7.177,30.415,2,16.563,2H0v32h16.563
		C27.956,34,37,42.495,37,53.235V69z"/>
	<path fill="#606060" d="M37,69h32V53.235c0-13.932-5.612-26.96-15.7-36.611C43.471,7.22,30.387,2,16.563,2H0v32h16.563
		C28.018,34,37,42.437,37,53.235V69z"/>
	<path fill="#616161" d="M37,69h32V53.235c0-13.903-5.653-26.958-15.72-36.587C43.469,7.264,30.359,2,16.563,2H0v32h16.563
		C28.079,34,37,42.378,37,53.235V69z"/>
	<path fill="#626262" d="M37,69h32V53.235c0-13.873-5.694-26.956-15.741-36.564C43.469,7.308,30.332,2,16.563,2H0v32h16.563
		C28.141,34,37,42.319,37,53.235V69z"/>
	<path fill="#636363" d="M37,69h32V53.235c0-13.843-5.735-26.953-15.762-36.541C43.467,7.352,30.304,2,16.563,2H0v32h16.563
		C28.202,34,37,42.26,37,53.235V69z"/>
	<path fill="#646464" d="M37,69h31V53.235c0-13.813-5.277-26.45-15.283-36.016C42.966,7.896,30.277,3,16.563,3H0v31h16.563
		C28.263,34,37,42.202,37,53.235V69z"/>
	<path fill="#656565" d="M38,69h30V53.235c0-13.784-5.318-26.447-15.303-35.993C42.965,7.938,30.249,3,16.563,3H0v30h16.563
		C28.325,33,38,42.143,38,53.235V69z"/>
	<path fill="#666666" d="M38,69h30V53.235c0-13.754-5.359-26.444-15.324-35.969C42.964,7.982,30.222,3,16.563,3H0v30h16.563
		C28.386,33,38,42.084,38,53.235V69z"/>
	<path fill="#676767" d="M38,69h30V53.235c0-13.725-5.4-26.441-15.345-35.946C42.963,8.026,30.194,3,16.563,3H0v30h16.563
		C28.448,33,38,42.025,38,53.235V69z"/>
	<path fill="#686868" d="M38,69h30V53.235c0-13.695-5.441-26.438-15.365-35.921C42.962,8.07,30.167,3,16.563,3H0v30h16.563
		C28.509,33,38,41.966,38,53.235V69z"/>
	<path fill="#696969" d="M38,69h30V53.235c0-13.665-5.482-26.436-15.387-35.898C42.96,8.113,30.139,3,16.563,3H0v30h16.563
		C28.571,33,38,41.908,38,53.235V69z"/>
	<path fill="#6A6A6A" d="M38,69h30V53.235C68,39.6,62.476,26.802,52.593,17.36C42.959,8.157,30.111,3,16.563,3H0v30h16.563
		C28.632,33,38,41.849,38,53.235V69z"/>
	<path fill="#6B6B6B" d="M38,69h30V53.235c0-13.605-5.564-26.43-15.428-35.851C42.958,8.201,30.084,3,16.563,3H0v30h16.563
		C28.693,33,38,41.79,38,53.235V69z"/>
	<path fill="#6C6C6C" d="M38,69h30V53.235c0-13.576-5.606-26.427-15.448-35.828C42.957,8.245,30.057,3,16.563,3H0v30h16.563
		C28.755,33,38,41.731,38,53.235V69z"/>
	<path fill="#6D6D6D" d="M38,69h30V53.235c0-13.546-5.647-25.924-15.469-35.303C42.956,8.788,30.029,4,16.563,4H0v29h16.563
		C28.816,33,38,41.672,38,53.235V69z"/>
	<path fill="#6E6E6E" d="M39,69h28V53.235c0-13.517-5.188-25.922-14.989-35.28C42.455,8.832,30.001,4,16.563,4H0v29h16.563
		C28.878,33,39,41.614,39,53.235V69z"/>
	<path fill="#6F6F6F" d="M39,69h28V53.235c0-13.487-5.229-25.919-15.011-35.256C42.454,8.876,29.974,4,16.563,4H0v28h16.563
		C28.939,32,39,41.555,39,53.235V69z"/>
	<path fill="#707070" d="M39,69h28V53.235c0-13.457-5.271-25.916-15.031-35.232C42.453,8.92,29.946,4,16.563,4H0v28h16.563
		C29,32,39,41.496,39,53.235V69z"/>
	<path fill="#717171" d="M39,69h28V53.235c0-13.427-5.312-25.914-15.052-35.209C42.452,8.963,29.919,4,16.563,4H0v28h16.563
		C29.062,32,39,41.438,39,53.235V69z"/>
	<path fill="#727272" d="M39,69h28V53.235c0-13.398-5.354-25.911-15.072-35.185C42.45,9.007,29.891,4,16.563,4H0v28h16.563
		C29.124,32,39,41.378,39,53.235V69z"/>
	<path fill="#737373" d="M39,69h28V53.235c0-13.368-5.394-25.908-15.093-35.162C42.45,9.051,29.864,4,16.563,4H0v28h16.563
		C29.185,32,39,41.32,39,53.235V69z"/>
	<path fill="#747474" d="M39,69h28V53.235c0-13.338-5.436-25.905-15.114-35.138C42.448,9.095,29.836,4,16.563,4H0v28h16.563
		C29.247,32,39,41.261,39,53.235V69z"/>
	<path fill="#757575" d="M39,69h28V53.235c0-13.309-5.477-25.902-15.135-35.114C42.447,9.139,29.809,4,16.563,4H0v28h16.563
		C29.308,32,39,41.202,39,53.235V69z"/>
	<path fill="#767676" d="M39,69h28V53.235c0-13.279-5.518-25.9-15.156-35.09C42.446,9.182,29.781,4,16.563,4H0v28h16.563
		C29.37,32,39,41.144,39,53.235V69z"/>
	<path fill="#777777" d="M40,69h26V53.235c0-13.249-5.059-25.397-14.676-34.567C41.945,9.726,29.753,5,16.563,5H0v27h16.563
		C29.431,32,40,41.085,40,53.235V69z"/>
	<path fill="#787878" d="M40,69h26V53.235c0-13.22-5.1-25.394-14.697-34.543C41.944,9.77,29.726,5,16.563,5H0v26h16.563
		C29.492,31,40,41.026,40,53.235V69z"/>
	<path fill="#797979" d="M40,69h26V53.235c0-13.19-5.141-25.392-14.718-34.52C41.943,9.813,29.699,5,16.563,5H0v26h16.563
		C29.554,31,40,40.967,40,53.235V69z"/>
	<path fill="#7A7A7A" d="M40,69h26V53.235c0-13.16-5.182-25.389-14.738-34.497C41.941,9.856,29.671,5,16.563,5H0v26h16.563
		C29.615,31,40,40.909,40,53.235V69z"/>
	<path fill="#7B7B7B" d="M40,69h26V53.235c0-13.13-5.224-25.386-14.759-34.472C41.94,9.9,29.644,5,16.563,5H0v26h16.563
		C29.677,31,40,40.85,40,53.235V69z"/>
	<path fill="#7C7C7C" d="M40,69h26V53.235c0-13.101-5.265-25.383-14.78-34.449C41.939,9.944,29.616,5,16.563,5H0v26h16.563
		C29.738,31,40,40.791,40,53.235V69z"/>
	<path fill="#7D7D7D" d="M40,69h26V53.235c0-13.071-5.306-25.38-14.801-34.425C41.938,9.988,29.588,5,16.563,5H0v26h16.563
		C29.799,31,40,40.732,40,53.235V69z"/>
	<path fill="#7E7E7E" d="M40,69h26V53.235c0-13.042-5.347-25.377-14.821-34.401C41.938,10.032,29.561,5,16.563,5H0v26h16.563
		C29.861,31,40,40.673,40,53.235V69z"/>
	<path fill="#7F7F7F" d="M40,69h26V53.235c0-13.012-5.388-25.375-14.842-34.378C41.937,10.075,29.533,5,16.563,5H0v26h16.563
		C29.922,31,40,40.615,40,53.235V69z"/>
	<path fill="#808080" d="M40,69h26V53.235c0-12.982-5.429-24.872-14.863-33.854C41.935,10.619,29.506,6,16.563,6H0v25h16.563
		C29.984,31,40,40.556,40,53.235V69z"/>
	<path fill="#818181" d="M41,69h24V53.235c0-12.952-4.971-24.87-14.384-33.831C41.434,10.663,29.478,6,16.563,6H0v25h16.563
		C30.045,31,41,40.497,41,53.235V69z"/>
	<path fill="#828282" d="M41,69h24V53.235c0-12.922-5.011-24.867-14.404-33.807C41.433,10.707,29.451,6,16.563,6H0v24h16.563
		C30.107,30,41,40.438,41,53.235V69z"/>
	<path fill="#838383" d="M41,69h24V53.235c0-12.893-5.053-24.864-14.425-33.783C41.432,10.75,29.423,6,16.563,6H0v24h16.563
		C30.168,30,41,40.379,41,53.235V69z"/>
	<path fill="#848484" d="M41,69h24V53.235c0-12.863-5.094-24.861-14.445-33.759C41.431,10.794,29.396,6,16.563,6H0v24h16.563
		C30.229,30,41,40.321,41,53.235V69z"/>
	<path fill="#858585" d="M41,69h24V53.235c0-12.833-5.135-24.858-14.466-33.736C41.43,10.838,29.368,6,16.563,6H0v24h16.563
		C30.291,30,41,40.262,41,53.235V69z"/>
	<path fill="#868686" d="M41,69h24V53.235c0-12.804-5.176-24.855-14.487-33.712C41.428,10.882,29.34,6,16.563,6H0v24h16.563
		C30.353,30,41,40.203,41,53.235V69z"/>
	<path fill="#878787" d="M41,69h24V53.235c0-12.774-5.217-24.853-14.508-33.688C41.428,10.925,29.313,6,16.563,6H0v24h16.563
		C30.414,30,41,40.145,41,53.235V69z"/>
	<path fill="#888888" d="M41,69h24V53.235c0-12.745-5.258-24.85-14.528-33.665C41.426,10.969,29.286,6,16.563,6H0v24h16.563
		C30.476,30,41,40.085,41,53.235V69z"/>
	<path fill="#898989" d="M41,69h24V53.235c0-12.715-5.3-24.347-14.549-33.141C41.425,11.513,29.258,7,16.563,7H0v23h16.563
		C30.537,30,41,40.027,41,53.235V69z"/>
	<path fill="#8A8A8A" d="M42,69h22V53.235c0-12.685-4.841-24.344-14.07-33.118C40.924,11.557,29.23,7,16.563,7H0v23h16.563
		C30.598,30,42,39.968,42,53.235V69z"/>
	<path fill="#8B8B8B" d="M42,69h22V53.235c0-12.655-4.882-24.342-14.091-33.094C40.923,11.6,29.203,7,16.563,7H0v22h16.563
		C30.66,29,42,39.909,42,53.235V69z"/>
	<path fill="#8C8C8C" d="M42,69h22V53.235c0-12.625-4.923-24.339-14.111-33.07C40.922,11.644,29.175,7,16.563,7H0v22h16.563
		C30.721,29,42,39.851,42,53.235V69z"/>
	<path fill="#8D8D8D" d="M42,69h22V53.235c0-12.596-4.964-24.336-14.132-33.046C40.921,11.688,29.148,7,16.563,7H0v22h16.563
		C30.783,29,42,39.792,42,53.235V69z"/>
	<path fill="#8E8E8E" d="M42,69h22V53.235c0-12.566-5.005-24.333-14.153-33.023C40.92,11.731,29.12,7,16.563,7H0v22h16.563
		C30.844,29,42,39.733,42,53.235V69z"/>
	<path fill="#8F8F8F" d="M42,69h22V53.235c0-12.537-5.046-24.331-14.174-33C40.918,11.775,29.093,7,16.563,7H0v22h16.563
		C30.906,29,42,39.674,42,53.235V69z"/>
	<path fill="#909090" d="M42,69h22V53.235c0-12.507-5.088-24.328-14.194-32.976C40.917,11.819,29.065,7,16.563,7H0v22h16.563
		C30.967,29,42,39.616,42,53.235V69z"/>
	<path fill="#919191" d="M42,69h22V53.235c0-12.477-5.128-24.325-14.215-32.952C40.917,11.863,29.038,7,16.563,7H0v22h16.563
		C31.028,29,42,39.557,42,53.235V69z"/>
	<path fill="#929292" d="M42,69h22V53.235c0-12.447-5.17-23.822-14.236-32.428C40.915,12.407,29.01,8,16.563,8H0v21h16.563
		C31.09,29,42,39.498,42,53.235V69z"/>
	<path fill="#939393" d="M43,69h21V53.235c0-12.418-5.211-23.82-14.257-32.405C40.914,12.45,28.982,8,16.563,8H0v21h16.563
		C31.151,29,43,39.439,43,53.235V69z"/>
	<path fill="#949494" d="M43,69h20V53.235c0-12.388-4.752-23.817-13.777-32.381C40.413,12.494,28.955,8,16.563,8H0v21h16.563
		C31.213,29,43,39.38,43,53.235V69z"/>
	<path fill="#959595" d="M43,69h20V53.235c0-12.358-4.793-23.814-13.798-32.357C40.412,12.538,28.927,8,16.563,8H0v20h16.563
		C31.274,28,43,39.322,43,53.235V69z"/>
	<path fill="#969696" d="M43,69h20V53.235c0-12.329-4.835-23.811-13.818-32.334C40.411,12.582,28.9,8,16.563,8H0v20h16.563
		C31.335,28,43,39.263,43,53.235V69z"/>
	<path fill="#979797" d="M43,69h20V53.235c0-12.299-4.875-23.808-13.839-32.31C40.41,12.625,28.873,8,16.563,8H0v20h16.563
		C31.397,28,43,39.204,43,53.235V69z"/>
	<path fill="#989898" d="M43,69h20V53.235c0-12.269-4.917-23.805-13.86-32.287C40.409,12.669,28.845,8,16.563,8H0v20h16.563
		C31.458,28,43,39.146,43,53.235V69z"/>
	<path fill="#999999" d="M43,69h20V53.235c0-12.24-4.958-23.803-13.881-32.263C40.407,12.713,28.817,8,16.563,8H0v20h16.563
		C31.52,28,43,39.086,43,53.235V69z"/>
	<path fill="#9A9A9A" d="M43,69h20V53.235c0-12.21-4.999-23.8-13.901-32.239C40.407,12.756,28.79,8,16.563,8H0v20h16.563
		C31.582,28,43,39.028,43,53.235V69z"/>
	<path fill="#9B9B9B" d="M43,69h20V53.235c0-12.18-5.041-23.297-13.922-31.715C40.405,13.3,28.762,9,16.563,9H0v19h16.563
		C31.643,28,43,38.969,43,53.235V69z"/>
	<path fill="#9C9C9C" d="M44,69h19V53.235c0-12.15-5.081-23.294-13.943-31.692C40.404,13.344,28.735,9,16.563,9H0v19h16.563
		C31.704,28,44,38.91,44,53.235V69z"/>
	<path fill="#9D9D9D" d="M44,69h18V53.235c0-12.121-4.623-23.292-13.463-31.668C39.903,13.388,28.707,9,16.563,9H0v19h16.563
		C31.766,28,44,38.852,44,53.235V69z"/>
	<path fill="#9E9E9E" d="M44,69h18V53.235c0-12.091-4.664-23.289-13.484-31.644C39.902,13.432,28.68,9,16.563,9H0v18h16.563
		C31.827,27,44,38.792,44,53.235V69z"/>
	<path fill="#9F9F9F" d="M44,69h18V53.235c0-12.062-4.705-23.286-13.505-31.621C39.901,13.475,28.652,9,16.563,9H0v18h16.563
		C31.889,27,44,38.734,44,53.235V69z"/>
	<path fill="#A0A0A0" d="M44,69h18V53.235c0-12.032-4.746-23.283-13.526-31.597C39.899,13.519,28.625,9,16.563,9H0v18h16.563
		C31.95,27,44,38.675,44,53.235V69z"/>
	<path fill="#A1A1A1" d="M44,69h18V53.235c0-12.002-4.787-23.281-13.547-31.574C39.898,13.563,28.597,9,16.563,9H0v18h16.563
		C32.012,27,44,38.616,44,53.235V69z"/>
	<path fill="#A2A2A2" d="M44,69h18V53.235c0-11.972-4.828-23.278-13.567-31.55C39.897,13.606,28.569,9,16.563,9H0v18h16.563
		C32.073,27,44,38.558,44,53.235V69z"/>
	<path fill="#A3A3A3" d="M44,69h18V53.235c0-11.942-4.869-23.275-13.588-31.526C39.896,13.65,28.542,9,16.563,9H0v18h16.563
		C32.134,27,44,38.499,44,53.235V69z"/>
	<path fill="#A4A4A4" d="M44,69h18V53.235c0-11.913-4.911-22.772-13.609-31.003C39.896,14.193,28.514,10,16.563,10H0v17h16.563
		C32.196,27,44,38.44,44,53.235V69z"/>
	<path fill="#A5A5A5" d="M45,69h17V53.235c0-11.883-4.952-22.77-13.63-30.979C39.895,14.237,28.487,10,16.563,10H0v17h16.563
		C32.257,27,45,38.381,45,53.235V69z"/>
	<path fill="#A6A6A6" d="M45,69h17V53.235c0-11.854-4.993-22.767-13.65-30.956C39.894,14.281,28.459,10,16.563,10H0v17h16.563
		C32.319,27,45,38.323,45,53.235V69z"/>
	<path fill="#A7A7A7" d="M45,69h16V53.235c0-11.824-4.534-22.764-13.171-30.932C39.392,14.325,28.432,10,16.563,10H0v17h16.563
		C32.38,27,45,38.264,45,53.235V69z"/>
	<path fill="#A8A8A8" d="M45,69h16V53.235c0-11.794-4.575-22.761-13.191-30.908C39.391,14.368,28.404,10,16.563,10H0v16h16.563
		C32.442,26,45,38.205,45,53.235V69z"/>
	<path fill="#A9A9A9" d="M45,69h16V53.235c0-11.764-4.616-22.759-13.213-30.884C39.39,14.412,28.376,10,16.563,10H0v16h16.563
		C32.503,26,45,38.146,45,53.235V69z"/>
	<path fill="#AAAAAA" d="M45,69h16V53.235c0-11.735-4.658-22.756-13.233-30.861C39.389,14.456,28.349,10,16.563,10H0v16h16.563
		C32.564,26,45,38.087,45,53.235V69z"/>
	<path fill="#ABABAB" d="M45,69h16V53.235c0-11.705-4.698-22.753-13.254-30.837C39.388,14.5,28.322,10,16.563,10H0v16h16.563
		C32.626,26,45,38.029,45,53.235V69z"/>
	<path fill="#ACACAC" d="M45,69h16V53.235c0-11.675-4.74-22.75-13.274-30.813C39.387,14.543,28.294,10,16.563,10H0v16h16.563
		C32.688,26,45,37.97,45,53.235V69z"/>
	<path fill="#ADADAD" d="M45,69h16V53.235c0-11.646-4.781-22.248-13.295-30.29C39.385,15.087,28.267,11,16.563,11H0v15h16.563
		C32.749,26,45,37.911,45,53.235V69z"/>
	<path fill="#AEAEAE" d="M46,69h15V53.235c0-11.616-4.822-22.245-13.316-30.266C39.385,15.131,28.239,11,16.563,11H0v15h16.563
		C32.811,26,46,37.853,46,53.235V69z"/>
	<path fill="#AFAFAF" d="M46,69h15V53.235c0-11.586-4.863-22.242-13.337-30.242C39.383,15.175,28.211,11,16.563,11H0v15h16.563
		C32.872,26,46,37.793,46,53.235V69z"/>
	<path fill="#B0B0B0" d="M46,69h15V53.235c0-11.557-4.904-22.239-13.357-30.219C39.382,15.218,28.184,11,16.563,11H0v15h16.563
		C32.933,26,46,37.735,46,53.235V69z"/>
	<path fill="#B1B1B1" d="M46,69h14V53.235c0-11.527-4.445-22.237-12.878-30.195C38.881,15.262,28.156,11,16.563,11H0v14h16.563
		C32.995,25,46,37.676,46,53.235V69z"/>
	<path fill="#B2B2B2" d="M46,69h14V53.235c0-11.497-4.487-22.234-12.899-30.171C38.88,15.306,28.129,11,16.563,11H0v14h16.563
		C33.056,25,46,37.617,46,53.235V69z"/>
	<path fill="#B3B3B3" d="M46,69h14V53.235c0-11.467-4.528-22.231-12.919-30.148C38.879,15.35,28.101,11,16.563,11H0v14h16.563
		C33.118,25,46,37.559,46,53.235V69z"/>
	<path fill="#B4B4B4" d="M46,69h14V53.235c0-11.438-4.569-22.228-12.94-30.124C38.878,15.393,28.074,11,16.563,11H0v14h16.563
		C33.179,25,46,37.5,46,53.235V69z"/>
	<path fill="#B5B5B5" d="M46,69h14V53.235c0-11.408-4.61-22.225-12.961-30.1C38.877,15.437,28.046,11,16.563,11H0v14h16.563
		C33.24,25,46,37.441,46,53.235V69z"/>
	<path fill="#B6B6B6" d="M46,69h14V53.235c0-11.378-4.651-21.722-12.982-29.577C38.875,15.98,28.019,12,16.563,12H0v13h16.563
		C33.302,25,46,37.382,46,53.235V69z"/>
	<path fill="#B7B7B7" d="M47,69h13V53.235c0-11.349-4.692-21.72-13.002-29.553C38.875,16.024,27.991,12,16.563,12H0v13h16.563
		C33.363,25,47,37.323,47,53.235V69z"/>
	<path fill="#B8B8B8" d="M47,69h13V53.235c0-11.319-4.733-21.717-13.023-29.53C38.873,16.068,27.963,12,16.563,12H0v13h16.563
		C33.425,25,47,37.265,47,53.235V69z"/>
	<path fill="#B9B9B9" d="M47,69h13V53.235c0-11.289-4.775-21.714-13.044-29.506C38.872,16.112,27.936,12,16.563,12H0v13h16.563
		C33.486,25,47,37.206,47,53.235V69z"/>
	<path fill="#BABABA" d="M47,69h12V53.235c0-11.259-4.316-21.711-12.565-29.482C38.371,16.155,27.909,12,16.563,12H0v13h16.563
		C33.548,25,47,37.147,47,53.235V69z"/>
	<path fill="#BBBBBB" d="M47,69h12V53.235c0-11.23-4.357-21.708-12.586-29.458C38.37,16.199,27.881,12,16.563,12H0v12h16.563
		C33.609,24,47,37.088,47,53.235V69z"/>
	<path fill="#BCBCBC" d="M47,69h12V53.235c0-11.2-4.398-21.706-12.606-29.435C38.369,16.243,27.854,12,16.563,12H0v12h16.563
		C33.67,24,47,37.03,47,53.235V69z"/>
	<path fill="#BDBDBD" d="M47,69h12V53.235c0-11.17-4.439-21.703-12.627-29.411C38.368,16.287,27.826,12,16.563,12H0v12h16.563
		C33.732,24,47,36.971,47,53.235V69z"/>
	<path fill="#BEBEBE" d="M47,69h12V53.235c0-11.141-4.48-21.7-12.647-29.388C38.366,16.331,27.798,12,16.563,12H0v12h16.563
		C33.793,24,47,36.912,47,53.235V69z"/>
	<path fill="#BFBFBF" d="M47,69h12V53.235c0-11.111-4.521-21.698-12.668-29.364C38.366,16.374,27.771,12,16.563,12H0v12h16.563
		C33.855,24,47,36.853,47,53.235V69z"/>
	<path fill="#C0C0C0" d="M48,69h11V53.235c0-11.082-4.563-21.195-12.689-28.84C38.364,16.918,27.743,13,16.563,13H0v11h16.563
		C33.917,24,48,36.794,48,53.235V69z"/>
	<path fill="#C1C1C1" d="M48,69h11V53.235c0-11.052-4.604-21.192-12.71-28.817C38.363,16.961,27.716,13,16.563,13H0v11h16.563
		C33.978,24,48,36.736,48,53.235V69z"/>
	<path fill="#C2C2C2" d="M48,69h11V53.235c0-11.022-4.645-21.189-12.73-28.793C38.362,17.005,27.688,13,16.563,13H0v11h16.563
		C34.039,24,48,36.677,48,53.235V69z"/>
	<path fill="#C3C3C3" d="M48,69h11V53.235c0-10.992-4.687-21.187-12.751-28.769C38.361,17.049,27.661,13,16.563,13H0v11h16.563
		C34.101,24,48,36.618,48,53.235V69z"/>
	<path fill="#C4C4C4" d="M48,69h10V53.235c0-10.962-4.228-21.184-12.271-28.746C37.86,17.093,27.633,13,16.563,13H0v10h16.563
		C34.162,23,48,36.56,48,53.235V69z"/>
	<path fill="#C5C5C5" d="M48,69h10V53.235c0-10.933-4.269-21.181-12.292-28.722C37.859,17.137,27.605,13,16.563,13H0v10h16.563
		C34.224,23,48,36.5,48,53.235V69z"/>
	<path fill="#C6C6C6" d="M48,69h10V53.235c0-10.903-4.31-21.178-12.313-28.698C37.858,17.18,27.578,13,16.563,13H0v10h16.563
		C34.285,23,48,36.442,48,53.235V69z"/>
	<path fill="#C7C7C7" d="M48,69h10V53.235c0-10.874-4.351-21.175-12.334-28.675C37.856,17.224,27.551,13,16.563,13H0v10h16.563
		C34.347,23,48,36.383,48,53.235V69z"/>
	<path fill="#C8C8C8" d="M48,69h10V53.235c0-10.844-4.392-21.172-12.355-28.651C37.855,17.268,27.523,13,16.563,13H0v10h16.563
		C34.408,23,48,36.324,48,53.235V69z"/>
	<path fill="#C9C9C9" d="M48,69h10V53.235c0-10.814-4.434-20.67-12.375-28.127C37.854,17.812,27.496,14,16.563,14H0v9h16.563
		C34.469,23,48,36.266,48,53.235V69z"/>
	<path fill="#CACACA" d="M49,69h9V53.235c0-10.784-4.475-20.667-12.396-28.104C37.854,17.855,27.468,14,16.563,14H0v9h16.563
		C34.531,23,49,36.207,49,53.235V69z"/>
	<path fill="#CBCBCB" d="M49,69h9V53.235c0-10.755-4.516-20.665-12.417-28.08C37.853,17.899,27.44,14,16.563,14H0v9h16.563
		C34.592,23,49,36.148,49,53.235V69z"/>
	<path fill="#CCCCCC" d="M49,69h9V53.235c0-10.725-4.557-20.662-12.438-28.057C37.851,17.943,27.413,14,16.563,14H0v9h16.563
		C34.654,23,49,36.089,49,53.235V69z"/>
	<path fill="#CDCDCD" d="M49,69h8V53.235c0-10.695-4.098-20.659-11.958-28.033C37.351,17.986,27.385,14,16.563,14H0v9h16.563
		C34.715,23,49,36.03,49,53.235V69z"/>
	<path fill="#CECECE" d="M49,69h8V53.235c0-10.666-4.139-20.656-11.979-28.009C37.349,18.03,27.358,14,16.563,14H0v8h16.563
		C34.777,22,49,35.972,49,53.235V69z"/>
	<path fill="#CFCFCF" d="M49,69h8V53.235c0-10.636-4.18-20.653-12-27.986C37.348,18.074,27.33,14,16.563,14H0v8h16.563
		C34.838,22,49,35.913,49,53.235V69z"/>
	<path fill="#D0D0D0" d="M49,69h8V53.235c0-10.606-4.222-20.65-12.021-27.962C37.347,18.118,27.303,14,16.563,14H0v8h16.563
		C34.899,22,49,35.854,49,53.235V69z"/>
	<path fill="#D1D1D1" d="M49,69h8V53.235c0-10.577-4.262-20.648-12.041-27.938C37.346,18.162,27.275,14,16.563,14H0v8h16.563
		C34.961,22,49,35.795,49,53.235V69z"/>
	<path fill="#D2D2D2" d="M49,69h8V53.235c0-10.547-4.304-20.145-12.062-27.415C37.345,18.705,27.248,15,16.563,15H0v7h16.563
		C35.022,22,49,35.737,49,53.235V69z"/>
	<path fill="#D3D3D3" d="M50,69h7V53.235c0-10.517-4.345-20.142-12.083-27.391C37.344,18.749,27.22,15,16.563,15H0v7h16.563
		C35.084,22,50,35.678,50,53.235V69z"/>
	<path fill="#D4D4D4" d="M50,69h7V53.235c0-10.487-4.386-20.139-12.104-27.367C37.342,18.793,27.192,15,16.563,15H0v7h16.563
		C35.146,22,50,35.619,50,53.235V69z"/>
	<path fill="#D5D5D5" d="M50,69h7V53.235c0-10.458-4.427-20.137-12.124-27.344C37.341,18.836,27.165,15,16.563,15H0v7h16.563
		C35.207,22,50,35.56,50,53.235V69z"/>
	<path fill="#D6D6D6" d="M50,69h7V53.235c0-10.428-4.468-20.134-12.145-27.32C37.34,18.88,27.138,15,16.563,15H0v7h16.563
		C35.268,22,50,35.501,50,53.235V69z"/>
	<path fill="#D7D7D7" d="M50,69h6V53.235c0-10.398-4.01-20.131-11.666-27.296C36.839,18.924,27.11,15,16.563,15H0v7h16.563
		C35.33,22,50,35.443,50,53.235V69z"/>
	<path fill="#D8D8D8" d="M50,69h6V53.235c0-10.369-4.051-20.128-11.687-27.273C36.838,18.968,27.083,15,16.563,15H0v6h16.563
		C35.391,21,50,35.384,50,53.235V69z"/>
	<path fill="#D9D9D9" d="M50,69h6V53.235c0-10.339-4.092-20.125-11.707-27.249C36.837,19.012,27.055,15,16.563,15H0v6h16.563
		C35.453,21,50,35.325,50,53.235V69z"/>
	<path fill="#DADADA" d="M50,69h6V53.235c0-10.309-4.133-20.123-11.728-27.225C36.836,19.055,27.027,15,16.563,15H0v6h16.563
		C35.514,21,50,35.267,50,53.235V69z"/>
	<path fill="#DBDBDB" d="M50,69h6V53.235c0-10.279-4.174-19.62-11.749-26.702C36.834,19.599,27,16,16.563,16H0v5h16.563
		C35.575,21,50,35.208,50,53.235V69z"/>
	<path fill="#DCDCDC" d="M51,69h5V53.235c0-10.25-4.215-19.618-11.77-26.678C36.834,19.643,26.972,16,16.563,16H0v5h16.563
		C35.637,21,51,35.149,51,53.235V69z"/>
	<path fill="#DDDDDD" d="M51,69h5V53.235c0-10.22-4.257-19.615-11.79-26.655C36.832,19.687,26.945,16,16.563,16H0v5h16.563
		C35.698,21,51,35.09,51,53.235V69z"/>
	<path fill="#DEDEDE" d="M51,69h5V53.235c0-10.19-4.297-19.612-11.811-26.631C36.832,19.729,26.917,16,16.563,16H0v5h16.563
		C35.76,21,51,35.031,51,53.235V69z"/>
	<path fill="#DFDFDF" d="M51,69h5V53.235c0-10.161-4.339-19.609-11.831-26.607C36.83,19.773,26.89,16,16.563,16H0v5h16.563
		C35.821,21,51,34.973,51,53.235V69z"/>
	<path fill="#E0E0E0" d="M51,69h4V53.235c0-10.131-3.88-19.606-11.353-26.583C36.329,19.817,26.862,16,16.563,16H0v5h16.563
		C35.883,21,51,34.914,51,53.235V69z"/>
	<path fill="#E1E1E1" d="M51,69h4V53.235c0-10.101-3.921-19.604-11.373-26.56C36.328,19.861,26.834,16,16.563,16H0v4h16.563
		C35.944,20,51,34.855,51,53.235V69z"/>
	<path fill="#E2E2E2" d="M51,69h4V53.235c0-10.072-3.962-19.601-11.394-26.536C36.327,19.904,26.807,16,16.563,16H0v4h16.563
		C36.005,20,51,34.796,51,53.235V69z"/>
	<path fill="#E3E3E3" d="M51,69h4V53.235c0-10.042-4.003-19.598-11.414-26.513C36.326,19.948,26.779,16,16.563,16H0v4h16.563
		C36.067,20,51,34.737,51,53.235V69z"/>
	<path fill="#E4E4E4" d="M51,69h4V53.235c0-10.012-4.044-19.095-11.435-25.989C36.325,20.492,26.752,17,16.563,17H0v3h16.563
		C36.128,20,51,34.679,51,53.235V69z"/>
</g>
</svg>
