<?xml version="1.0" encoding="utf-8"?>
<!-- Generator: Adobe Illustrator 15.0.0, SVG Export Plug-In  -->
<!DOCTYPE svg PUBLIC "-//W3C//DTD SVG 1.1//EN" "http://www.w3.org/Graphics/SVG/1.1/DTD/svg11.dtd" [
	<!ENTITY ns_flows "http://ns.adobe.com/Flows/1.0/">
]>
<svg version="1.1"
	 xmlns="http://www.w3.org/2000/svg" xmlns:xlink="http://www.w3.org/1999/xlink" xmlns:a="http://ns.adobe.com/AdobeSVGViewerExtensions/3.0/"
	 x="0px" y="0px" width="72px" height="70px" viewBox="-2 -1 72 70" enable-background="new -2 -1 72 70" xml:space="preserve">
<defs>
</defs>
<g>
	<path fill="#4D4D4D" d="M36,69H0V53.235c0-14.497,5.769-28.013,16.245-38.061C26.447,5.389,39.967,0,54.313,0H70v36H54.313
		C44.027,36,36,43.553,36,53.235V69z"/>
	<path fill="#4E4E4E" d="M36,69H0V53.235c0-14.467,5.81-28.01,16.266-38.037C26.448,5.433,39.994,0,54.313,0H70v36H54.313
		C43.966,36,36,43.495,36,53.235V69z"/>
	<path fill="#4F4F4F" d="M36,69H0V53.235c0-14.437,5.851-28.007,16.286-38.013C26.449,5.477,40.022,0,54.313,0H70v36H54.313
		C43.904,36,36,43.436,36,53.235V69z"/>
	<path fill="#505050" d="M36,69H0V53.235c0-14.408,5.892-28.004,16.307-37.99C26.451,5.521,40.049,0,54.313,0H70v36H54.313
		C43.843,36,36,43.377,36,53.235V69z"/>
	<path fill="#515151" d="M36,69H0V53.235c0-14.378,5.934-28.002,16.327-37.966C26.451,5.564,40.077,0,54.313,0H70v36H54.313
		C43.782,36,36,43.318,36,53.235V69z"/>
	<path fill="#525252" d="M35,69H1V53.235c0-14.348,5.475-27.5,15.849-37.442C26.953,6.108,40.104,1,54.313,1H70v34H54.313
		C43.72,35,35,43.259,35,53.235V69z"/>
	<path fill="#535353" d="M35,69H1V53.235c0-14.318,5.516-27.497,15.869-37.418C26.954,6.151,40.132,1,54.313,1H70v34H54.313
		C43.659,35,35,43.201,35,53.235V69z"/>
	<path fill="#545454" d="M35,69H1V53.235C1,38.946,6.557,25.741,16.89,15.84C26.955,6.195,40.16,1,54.313,1H70v34H54.313
		C43.597,35,35,43.142,35,53.235V69z"/>
	<path fill="#555555" d="M35,69H1V53.235c0-14.259,5.598-27.491,15.91-37.372C26.956,6.239,40.187,1,54.313,1H70v34H54.313
		C43.536,35,35,43.083,35,53.235V69z"/>
	<path fill="#565656" d="M35,69H1V53.235c0-14.229,5.639-27.488,15.931-37.348C26.957,6.283,40.215,1,54.313,1H70v34H54.313
		C43.474,35,35,43.024,35,53.235V69z"/>
	<path fill="#575757" d="M35,69H1V53.235c0-14.2,5.68-27.485,15.952-37.324C26.958,6.327,40.242,1,54.313,1H70v34H54.313
		C43.413,35,35,42.965,35,53.235V69z"/>
	<path fill="#585858" d="M35,69H1V53.235c0-14.17,5.722-27.483,15.973-37.3C26.96,6.37,40.27,1,54.313,1H70v34H54.313
		C43.352,35,35,42.907,35,53.235V69z"/>
	<path fill="#595959" d="M35,69H1V53.235c0-14.14,5.762-27.48,15.993-37.277C26.96,6.414,40.297,1,54.313,1H70v34H54.313
		C43.29,35,35,42.848,35,53.235V69z"/>
	<path fill="#5A5A5A" d="M35,69H1V53.235c0-14.11,5.804-27.477,16.014-37.253C26.962,6.458,40.325,1,54.313,1H70v34H54.313
		C43.229,35,35,42.789,35,53.235V69z"/>
	<path fill="#5B5B5B" d="M34,69H1V53.235C1,39.154,6.845,26.26,17.035,16.505C26.963,7.001,40.353,2,54.313,2H70v33H54.313
		C43.167,35,34,42.73,34,53.235V69z"/>
	<path fill="#5C5C5C" d="M34,69H2V53.235c0-14.051,5.386-26.972,15.556-36.706C27.464,7.045,40.38,2,54.313,2H70v32H54.313
		C43.105,34,34,42.672,34,53.235V69z"/>
	<path fill="#5D5D5D" d="M34,69H2V53.235c0-14.021,5.427-26.969,15.576-36.682C27.465,7.089,40.408,2,54.313,2H70v32H54.313
		C43.044,34,34,42.613,34,53.235V69z"/>
	<path fill="#5E5E5E" d="M34,69H2V53.235c0-13.992,5.469-26.966,15.597-36.659C27.466,7.133,40.435,2,54.313,2H70v32H54.313
		C42.983,34,34,42.554,34,53.235V69z"/>
	<path fill="#5F5F5F" d="M34,69H2V53.235c0-13.962,5.509-26.963,15.618-36.634C27.467,7.177,40.462,2,54.313,2H70v32H54.313
		C42.921,34,34,42.495,34,53.235V69z"/>
	<path fill="#606060" d="M34,69H2V53.235c0-13.932,5.551-26.96,15.639-36.611C27.468,7.22,40.49,2,54.313,2H70v32H54.313
		C42.86,34,34,42.437,34,53.235V69z"/>
	<path fill="#616161" d="M34,69H2V53.235c0-13.903,5.592-26.958,15.659-36.587C27.47,7.264,40.518,2,54.313,2H70v32H54.313
		C42.798,34,34,42.378,34,53.235V69z"/>
	<path fill="#626262" d="M34,69H2V53.235c0-13.873,5.633-26.956,15.68-36.564C27.47,7.308,40.545,2,54.313,2H70v32H54.313
		C42.737,34,34,42.319,34,53.235V69z"/>
	<path fill="#636363" d="M34,69H2V53.235c0-13.843,5.674-26.953,15.701-36.541C27.472,7.352,40.573,2,54.313,2H70v32H54.313
		C42.675,34,34,42.26,34,53.235V69z"/>
	<path fill="#646464" d="M33,69H2V53.235c0-13.813,5.715-26.45,15.722-36.016C27.473,7.896,40.6,3,54.313,3H70v31H54.313
		C42.614,34,33,42.202,33,53.235V69z"/>
	<path fill="#656565" d="M33,69H3V53.235c0-13.784,5.256-26.447,15.242-35.993C27.974,7.938,40.628,3,54.313,3H70v30H54.313
		C42.553,33,33,42.143,33,53.235V69z"/>
	<path fill="#666666" d="M33,69H3V53.235c0-13.754,5.297-26.444,15.263-35.969C27.975,7.982,40.655,3,54.313,3H70v30H54.313
		C42.491,33,33,42.084,33,53.235V69z"/>
	<path fill="#676767" d="M33,69H3V53.235C3,39.51,8.339,26.794,18.283,17.289C27.976,8.026,40.683,3,54.313,3H70v30H54.313
		C42.43,33,33,42.025,33,53.235V69z"/>
	<path fill="#686868" d="M33,69H3V53.235C3,39.54,8.38,26.797,18.304,17.313C27.977,8.07,40.71,3,54.313,3H70v30H54.313
		C42.368,33,33,41.966,33,53.235V69z"/>
	<path fill="#696969" d="M33,69H3V53.235C3,39.57,8.421,26.799,18.325,17.336C27.979,8.113,40.738,3,54.313,3H70v30H54.313
		C42.307,33,33,41.908,33,53.235V69z"/>
	<path fill="#6A6A6A" d="M33,69H3V53.235C3,39.6,8.462,26.802,18.346,17.36C27.979,8.157,40.766,3,54.313,3H70v30H54.313
		C42.246,33,33,41.849,33,53.235V69z"/>
	<path fill="#6B6B6B" d="M33,69H3V53.235c0-13.605,5.503-26.43,15.366-35.851C27.98,8.201,40.793,3,54.313,3H70v30H54.313
		C42.184,33,33,41.79,33,53.235V69z"/>
	<path fill="#6C6C6C" d="M33,69H3V53.235c0-13.576,5.544-26.427,15.387-35.828C27.981,8.245,40.821,3,54.313,3H70v30H54.313
		C42.123,33,33,41.731,33,53.235V69z"/>
	<path fill="#6D6D6D" d="M32,69H3V53.235c0-13.546,5.586-25.924,15.408-35.303C27.982,8.788,40.848,4,54.313,4H70v29H54.313
		C42.061,33,32,41.672,32,53.235V69z"/>
	<path fill="#6E6E6E" d="M32,69H3V53.235c0-13.517,5.627-25.922,15.429-35.28C27.983,8.832,40.876,4,54.313,4H70v29H54.313
		C42,33,32,41.614,32,53.235V69z"/>
	<path fill="#6F6F6F" d="M32,69H4V53.235c0-13.487,5.168-25.919,14.949-35.256C28.485,8.876,40.903,4,54.313,4H70v28H54.313
		C41.938,32,32,41.555,32,53.235V69z"/>
	<path fill="#707070" d="M32,69H4V53.235c0-13.457,5.209-25.916,14.97-35.232C28.486,8.92,40.931,4,54.313,4H70v28H54.313
		C41.877,32,32,41.496,32,53.235V69z"/>
	<path fill="#717171" d="M32,69H4V53.235c0-13.427,5.25-25.914,14.991-35.209C28.487,8.963,40.958,4,54.313,4H70v28H54.313
		C41.815,32,32,41.438,32,53.235V69z"/>
	<path fill="#727272" d="M32,69H4V53.235C4,39.837,9.292,27.324,19.011,18.05C28.488,9.007,40.986,4,54.313,4H70v28H54.313
		C41.754,32,32,41.378,32,53.235V69z"/>
	<path fill="#737373" d="M32,69H4V53.235c0-13.368,5.332-25.908,15.032-35.162C28.489,9.051,41.014,4,54.313,4H70v28H54.313
		C41.692,32,32,41.32,32,53.235V69z"/>
	<path fill="#747474" d="M32,69H4V53.235C4,39.896,9.374,27.33,19.053,18.097C28.49,9.095,41.041,4,54.313,4H70v28H54.313
		C41.631,32,32,41.261,32,53.235V69z"/>
	<path fill="#757575" d="M32,69H4V53.235c0-13.309,5.415-25.902,15.074-35.114C28.492,9.139,41.068,4,54.313,4H70v28H54.313
		C41.569,32,32,41.202,32,53.235V69z"/>
	<path fill="#767676" d="M31,69H4V53.235c0-13.279,5.456-25.9,15.095-35.09C28.492,9.182,41.096,4,54.313,4H70v28H54.313
		C41.508,32,31,41.144,31,53.235V69z"/>
	<path fill="#777777" d="M31,69H4V53.235c0-13.249,5.497-25.397,15.115-34.567C28.494,9.726,41.124,5,54.313,5H70v27H54.313
		C41.447,32,31,41.085,31,53.235V69z"/>
	<path fill="#787878" d="M31,69H5V53.235c0-13.22,5.039-25.394,14.636-34.543C28.995,9.77,41.151,5,54.313,5H70v26H54.313
		C41.385,31,31,41.026,31,53.235V69z"/>
	<path fill="#797979" d="M31,69H5V53.235c0-13.19,5.079-25.392,14.656-34.52C28.996,9.813,41.179,5,54.313,5H70v26H54.313
		C41.324,31,31,40.967,31,53.235V69z"/>
	<path fill="#7A7A7A" d="M31,69H5V53.235c0-13.16,5.121-25.389,14.678-34.497C28.997,9.856,41.206,5,54.313,5H70v26H54.313
		C41.262,31,31,40.909,31,53.235V69z"/>
	<path fill="#7B7B7B" d="M31,69H5V53.235c0-13.13,5.162-25.386,14.698-34.472C28.998,9.9,41.234,5,54.313,5H70v26H54.313
		C41.201,31,31,40.85,31,53.235V69z"/>
	<path fill="#7C7C7C" d="M31,69H5V53.235c0-13.101,5.203-25.383,14.719-34.449C28.999,9.944,41.261,5,54.313,5H70v26H54.313
		C41.139,31,31,40.791,31,53.235V69z"/>
	<path fill="#7D7D7D" d="M31,69H5V53.235c0-13.071,5.244-25.38,14.739-34.425C29,9.988,41.289,5,54.313,5H70v26H54.313
		C41.078,31,31,40.732,31,53.235V69z"/>
	<path fill="#7E7E7E" d="M31,69H5V53.235c0-13.042,5.285-25.377,14.76-34.401C29.001,10.032,41.316,5,54.313,5H70v26H54.313
		C41.017,31,31,40.673,31,53.235V69z"/>
	<path fill="#7F7F7F" d="M30,69H5V53.235c0-13.012,5.326-25.375,14.78-34.378C29.002,10.075,41.344,5,54.313,5H70v26H54.313
		C40.955,31,30,40.615,30,53.235V69z"/>
	<path fill="#808080" d="M30,69H5V53.235c0-12.982,5.367-24.872,14.802-33.854C29.004,10.619,41.372,6,54.313,6H70v25H54.313
		C40.894,31,30,40.556,30,53.235V69z"/>
	<path fill="#818181" d="M30,69H5V53.235c0-12.952,5.409-24.87,14.822-33.831C29.005,10.663,41.399,6,54.313,6H70v25H54.313
		C40.832,31,30,40.497,30,53.235V69z"/>
	<path fill="#828282" d="M30,69H6V53.235c0-12.922,4.95-24.867,14.343-33.807C29.506,10.707,41.427,6,54.313,6H70v24H54.313
		C40.771,30,30,40.438,30,53.235V69z"/>
	<path fill="#838383" d="M30,69H6V53.235c0-12.893,4.991-24.864,14.364-33.783C29.507,10.75,41.454,6,54.313,6H70v24H54.313
		C40.709,30,30,40.379,30,53.235V69z"/>
	<path fill="#848484" d="M30,69H6V53.235c0-12.863,5.032-24.861,14.384-33.759C29.508,10.794,41.482,6,54.313,6H70v24H54.313
		C40.648,30,30,40.321,30,53.235V69z"/>
	<path fill="#858585" d="M30,69H6V53.235c0-12.833,5.074-24.858,14.405-33.736C29.509,10.838,41.509,6,54.313,6H70v24H54.313
		C40.586,30,30,40.262,30,53.235V69z"/>
	<path fill="#868686" d="M30,69H6V53.235c0-12.804,5.114-24.855,14.426-33.712C29.511,10.882,41.537,6,54.313,6H70v24H54.313
		C40.525,30,30,40.203,30,53.235V69z"/>
	<path fill="#878787" d="M30,69H6V53.235c0-12.774,5.156-24.853,14.447-33.688C29.511,10.925,41.564,6,54.313,6H70v24H54.313
		C40.463,30,30,40.145,30,53.235V69z"/>
	<path fill="#888888" d="M30,69H6V53.235c0-12.745,5.197-24.85,14.467-33.665C29.513,10.969,41.592,6,54.313,6H70v24H54.313
		C40.402,30,30,40.085,30,53.235V69z"/>
	<path fill="#898989" d="M29,69H6V53.235c0-12.715,5.238-24.347,14.488-33.141C29.514,11.513,41.62,7,54.313,7H70v23H54.313
		C40.341,30,29,40.027,29,53.235V69z"/>
	<path fill="#8A8A8A" d="M29,69H6V53.235c0-12.685,5.279-24.344,14.509-33.118C29.515,11.557,41.647,7,54.313,7H70v23H54.313
		C40.279,30,29,39.968,29,53.235V69z"/>
	<path fill="#8B8B8B" d="M29,69H6V53.235c0-12.655,5.32-24.342,14.53-33.094C29.516,11.6,41.674,7,54.313,7H70v22H54.313
		C40.218,29,29,39.909,29,53.235V69z"/>
	<path fill="#8C8C8C" d="M29,69H7V53.235c0-12.625,4.861-24.339,14.05-33.07C30.017,11.644,41.702,7,54.313,7H70v22H54.313
		C40.156,29,29,39.851,29,53.235V69z"/>
	<path fill="#8D8D8D" d="M29,69H7V53.235c0-12.596,4.902-24.336,14.071-33.046C30.018,11.688,41.729,7,54.313,7H70v22H54.313
		C40.095,29,29,39.792,29,53.235V69z"/>
	<path fill="#8E8E8E" d="M29,69H7V53.235c0-12.566,4.944-24.333,14.092-33.023C30.019,11.731,41.757,7,54.313,7H70v22H54.313
		C40.033,29,29,39.733,29,53.235V69z"/>
	<path fill="#8F8F8F" d="M29,69H7V53.235c0-12.537,4.985-24.331,14.112-33C30.021,11.775,41.785,7,54.313,7H70v22H54.313
		C39.972,29,29,39.674,29,53.235V69z"/>
	<path fill="#909090" d="M29,69H7V53.235c0-12.507,5.026-24.328,14.133-32.976C30.021,11.819,41.813,7,54.313,7H70v22H54.313
		C39.911,29,29,39.616,29,53.235V69z"/>
	<path fill="#919191" d="M29,69H7V53.235c0-12.477,5.067-24.325,14.154-32.952C30.022,11.863,41.84,7,54.313,7H70v22H54.313
		C39.849,29,29,39.557,29,53.235V69z"/>
	<path fill="#929292" d="M28,69H7V53.235c0-12.447,5.108-23.822,14.175-32.428C30.023,12.407,41.867,8,54.313,8H70v21H54.313
		C39.788,29,28,39.498,28,53.235V69z"/>
	<path fill="#939393" d="M28,69H7V53.235c0-12.418,5.149-23.82,14.195-32.405C30.024,12.45,41.895,8,54.313,8H70v21H54.313
		C39.726,29,28,39.439,28,53.235V69z"/>
	<path fill="#949494" d="M28,69H7V53.235c0-12.388,5.191-23.817,14.216-32.381C30.026,12.494,41.922,8,54.313,8H70v21H54.313
		C39.665,29,28,39.38,28,53.235V69z"/>
	<path fill="#959595" d="M28,69H8V53.235c0-12.358,4.731-23.814,13.736-32.357C30.526,12.538,41.95,8,54.313,8H70v20H54.313
		C39.603,28,28,39.322,28,53.235V69z"/>
	<path fill="#969696" d="M28,69H8V53.235c0-12.329,4.773-23.811,13.758-32.334C30.528,12.582,41.978,8,54.313,8H70v20H54.313
		C39.542,28,28,39.263,28,53.235V69z"/>
	<path fill="#979797" d="M28,69H8V53.235c0-12.299,4.814-23.808,13.778-32.31C30.529,12.625,42.005,8,54.313,8H70v20H54.313
		C39.48,28,28,39.204,28,53.235V69z"/>
	<path fill="#989898" d="M28,69H8V53.235c0-12.269,4.855-23.805,13.799-32.287C30.53,12.669,42.033,8,54.313,8H70v20H54.313
		C39.419,28,28,39.146,28,53.235V69z"/>
	<path fill="#999999" d="M28,69H8V53.235c0-12.24,4.896-23.803,13.819-32.263C30.531,12.713,42.06,8,54.313,8H70v20H54.313
		C39.357,28,28,39.086,28,53.235V69z"/>
	<path fill="#9A9A9A" d="M28,69H8V53.235c0-12.21,4.938-23.8,13.84-32.239C30.532,12.756,42.088,8,54.313,8H70v20H54.313
		C39.296,28,28,39.028,28,53.235V69z"/>
	<path fill="#9B9B9B" d="M27,69H8V53.235c0-12.18,4.979-23.297,13.861-31.715C30.533,13.3,42.115,9,54.313,9H70v19H54.313
		C39.234,28,27,38.969,27,53.235V69z"/>
	<path fill="#9C9C9C" d="M27,69H8V53.235c0-12.15,5.021-23.294,13.882-31.692C30.535,13.344,42.143,9,54.313,9H70v19H54.313
		C39.173,28,27,38.91,27,53.235V69z"/>
	<path fill="#9D9D9D" d="M27,69H8V53.235c0-12.121,5.061-23.292,13.902-31.668C30.536,13.388,42.17,9,54.313,9H70v19H54.313
		C39.112,28,27,38.852,27,53.235V69z"/>
	<path fill="#9E9E9E" d="M27,69H8V53.235c0-12.091,5.103-23.289,13.923-31.644C30.537,13.432,42.198,9,54.313,9H70v18H54.313
		C39.05,27,27,38.792,27,53.235V69z"/>
	<path fill="#9F9F9F" d="M27,69H9V53.235c0-12.062,4.644-23.286,13.444-31.621C31.038,13.475,42.226,9,54.313,9H70v18H54.313
		C38.989,27,27,38.734,27,53.235V69z"/>
	<path fill="#A0A0A0" d="M27,69H9V53.235c0-12.032,4.685-23.283,13.465-31.597C31.039,13.519,42.253,9,54.313,9H70v18H54.313
		C38.927,27,27,38.675,27,53.235V69z"/>
	<path fill="#A1A1A1" d="M27,69H9V53.235c0-12.002,4.726-23.281,13.485-31.574C31.04,13.563,42.281,9,54.313,9H70v18H54.313
		C38.866,27,27,38.616,27,53.235V69z"/>
	<path fill="#A2A2A2" d="M27,69H9V53.235c0-11.972,4.767-23.278,13.506-31.55C31.041,13.606,42.308,9,54.313,9H70v18H54.313
		C38.804,27,27,38.558,27,53.235V69z"/>
	<path fill="#A3A3A3" d="M27,69H9V53.235c0-11.942,4.808-23.275,13.527-31.526C31.042,13.65,42.335,9,54.313,9H70v18H54.313
		C38.743,27,27,38.499,27,53.235V69z"/>
	<path fill="#A4A4A4" d="M26,69H9V53.235c0-11.913,4.85-22.772,13.548-31.003C31.043,14.193,42.363,10,54.313,10H70v17H54.313
		C38.682,27,26,38.44,26,53.235V69z"/>
	<path fill="#A5A5A5" d="M26,69H9V53.235c0-11.883,4.891-22.77,13.568-30.979C31.045,14.237,42.391,10,54.313,10H70v17H54.313
		C38.62,27,26,38.381,26,53.235V69z"/>
	<path fill="#A6A6A6" d="M26,69H9V53.235c0-11.854,4.932-22.767,13.589-30.956C31.045,14.281,42.418,10,54.313,10H70v17H54.313
		C38.559,27,26,38.323,26,53.235V69z"/>
	<path fill="#A7A7A7" d="M26,69H9V53.235c0-11.824,4.973-22.764,13.61-30.932C31.047,14.325,42.446,10,54.313,10H70v17H54.313
		C38.497,27,26,38.264,26,53.235V69z"/>
	<path fill="#A8A8A8" d="M26,69H10V53.235c0-11.794,4.514-22.761,13.131-30.908C31.548,14.368,42.473,10,54.313,10H70v16H54.313
		C38.436,26,26,38.205,26,53.235V69z"/>
	<path fill="#A9A9A9" d="M26,69H10V53.235c0-11.764,4.555-22.759,13.151-30.884C31.549,14.412,42.501,10,54.313,10H70v16H54.313
		C38.375,26,26,38.146,26,53.235V69z"/>
	<path fill="#AAAAAA" d="M26,69H10V53.235c0-11.735,4.596-22.756,13.172-30.861C31.55,14.456,42.528,10,54.313,10H70v16H54.313
		C38.313,26,26,38.087,26,53.235V69z"/>
	<path fill="#ABABAB" d="M26,69H10V53.235c0-11.705,4.638-22.753,13.192-30.837C31.551,14.5,42.556,10,54.313,10H70v16H54.313
		C38.251,26,26,38.029,26,53.235V69z"/>
	<path fill="#ACACAC" d="M26,69H10V53.235c0-11.675,4.679-22.75,13.213-30.813C31.552,14.543,42.583,10,54.313,10H70v16H54.313
		C38.19,26,26,37.97,26,53.235V69z"/>
	<path fill="#ADADAD" d="M25,69H10V53.235c0-11.646,4.72-22.248,13.234-30.29C31.554,15.087,42.611,11,54.313,11H70v15H54.313
		C38.128,26,25,37.911,25,53.235V69z"/>
	<path fill="#AEAEAE" d="M25,69H10V53.235c0-11.616,4.761-22.245,13.255-30.266C31.555,15.131,42.639,11,54.313,11H70v15H54.313
		C38.067,26,25,37.853,25,53.235V69z"/>
	<path fill="#AFAFAF" d="M25,69H10V53.235c0-11.586,4.802-22.242,13.275-30.242C31.556,15.175,42.666,11,54.313,11H70v15H54.313
		C38.006,26,25,37.793,25,53.235V69z"/>
	<path fill="#B0B0B0" d="M25,69H10V53.235c0-11.557,4.843-22.239,13.296-30.219C31.557,15.218,42.694,11,54.313,11H70v15H54.313
		C37.944,26,25,37.735,25,53.235V69z"/>
	<path fill="#B1B1B1" d="M25,69H10V53.235c0-11.527,4.885-22.237,13.317-30.195C31.558,15.262,42.721,11,54.313,11H70v14H54.313
		C37.883,25,25,37.676,25,53.235V69z"/>
	<path fill="#B2B2B2" d="M25,69H11V53.235c0-11.497,4.425-22.234,12.838-30.171C32.059,15.306,42.749,11,54.313,11H70v14H54.313
		C37.821,25,25,37.617,25,53.235V69z"/>
	<path fill="#B3B3B3" d="M25,69H11V53.235c0-11.467,4.467-22.231,12.858-30.148C32.06,15.35,42.776,11,54.313,11H70v14H54.313
		C37.76,25,25,37.559,25,53.235V69z"/>
	<path fill="#B4B4B4" d="M25,69H11V53.235c0-11.438,4.508-22.228,12.879-30.124C32.062,15.393,42.804,11,54.313,11H70v14H54.313
		C37.698,25,25,37.5,25,53.235V69z"/>
	<path fill="#B5B5B5" d="M25,69H11V53.235c0-11.408,4.549-22.225,12.9-30.1C32.062,15.437,42.832,11,54.313,11H70v14H54.313
		C37.637,25,25,37.441,25,53.235V69z"/>
	<path fill="#B6B6B6" d="M24,69H11V53.235c0-11.378,4.59-21.722,12.921-29.577C32.063,15.98,42.859,12,54.313,12H70v13H54.313
		C37.576,25,24,37.382,24,53.235V69z"/>
	<path fill="#B7B7B7" d="M24,69H11V53.235c0-11.349,4.631-21.72,12.941-29.553C32.064,16.024,42.887,12,54.313,12H70v13H54.313
		C37.514,25,24,37.323,24,53.235V69z"/>
	<path fill="#B8B8B8" d="M24,69H11V53.235c0-11.319,4.673-21.717,12.962-29.53C32.065,16.068,42.914,12,54.313,12H70v13H54.313
		C37.453,25,24,37.265,24,53.235V69z"/>
	<path fill="#B9B9B9" d="M24,69H11V53.235c0-11.289,4.714-21.714,12.983-29.506C32.067,16.112,42.941,12,54.313,12H70v13H54.313
		C37.391,25,24,37.206,24,53.235V69z"/>
	<path fill="#BABABA" d="M24,69H11V53.235c0-11.259,4.755-21.711,13.004-29.482C32.067,16.155,42.969,12,54.313,12H70v13H54.313
		C37.33,25,24,37.147,24,53.235V69z"/>
	<path fill="#BBBBBB" d="M24,69H12V53.235c0-11.23,4.296-21.708,12.524-29.458C32.569,16.199,42.997,12,54.313,12H70v12H54.313
		C37.268,24,24,37.088,24,53.235V69z"/>
	<path fill="#BCBCBC" d="M24,69H12V53.235c0-11.2,4.337-21.706,12.545-29.435C32.57,16.243,43.024,12,54.313,12H70v12H54.313
		C37.207,24,24,37.03,24,53.235V69z"/>
	<path fill="#BDBDBD" d="M24,69H12V53.235c0-11.17,4.378-21.703,12.565-29.411C32.571,16.287,43.052,12,54.313,12H70v12H54.313
		C37.146,24,24,36.971,24,53.235V69z"/>
	<path fill="#BEBEBE" d="M24,69H12V53.235c0-11.141,4.42-21.7,12.587-29.388C32.572,16.331,43.079,12,54.313,12H70v12H54.313
		C37.084,24,24,36.912,24,53.235V69z"/>
	<path fill="#BFBFBF" d="M23,69H12V53.235c0-11.111,4.46-21.698,12.607-29.364C32.573,16.374,43.107,12,54.313,12H70v12H54.313
		C37.022,24,23,36.853,23,53.235V69z"/>
	<path fill="#C0C0C0" d="M23,69H12V53.235c0-11.082,4.502-21.195,12.628-28.84C32.574,16.918,43.134,13,54.313,13H70v11H54.313
		C36.961,24,23,36.794,23,53.235V69z"/>
	<path fill="#C1C1C1" d="M23,69H12V53.235c0-11.052,4.543-21.192,12.648-28.817C32.575,16.961,43.162,13,54.313,13H70v11H54.313
		C36.899,24,23,36.736,23,53.235V69z"/>
	<path fill="#C2C2C2" d="M23,69H12V53.235c0-11.022,4.584-21.189,12.669-28.793C32.577,17.005,43.189,13,54.313,13H70v11H54.313
		C36.838,24,23,36.677,23,53.235V69z"/>
	<path fill="#C3C3C3" d="M23,69H12V53.235c0-10.992,4.625-21.187,12.69-28.769C32.578,17.049,43.217,13,54.313,13H70v11H54.313
		C36.777,24,23,36.618,23,53.235V69z"/>
	<path fill="#C4C4C4" d="M23,69H12V53.235c0-10.962,4.666-21.184,12.711-28.746C32.579,17.093,43.245,13,54.313,13H70v10H54.313
		C36.715,23,23,36.56,23,53.235V69z"/>
	<path fill="#C5C5C5" d="M23,69H13V53.235c0-10.933,4.208-21.181,12.231-28.722C33.08,17.137,43.272,13,54.313,13H70v10H54.313
		C36.654,23,23,36.5,23,53.235V69z"/>
	<path fill="#C6C6C6" d="M23,69H13V53.235c0-10.903,4.249-21.178,12.252-28.698C33.081,17.18,43.3,13,54.313,13H70v10H54.313
		C36.592,23,23,36.442,23,53.235V69z"/>
	<path fill="#C7C7C7" d="M23,69H13V53.235c0-10.874,4.29-21.175,12.273-28.675C33.082,17.224,43.327,13,54.313,13H70v10H54.313
		C36.531,23,23,36.383,23,53.235V69z"/>
	<path fill="#C8C8C8" d="M22,69h-9V53.235c0-10.844,4.331-21.172,12.294-28.651C33.083,17.268,43.355,13,54.313,13H70v10H54.313
		C36.47,23,22,36.324,22,53.235V69z"/>
	<path fill="#C9C9C9" d="M22,69h-9V53.235c0-10.814,4.372-20.67,12.314-28.127C33.084,17.812,43.382,14,54.313,14H70v9H54.313
		C36.408,23,22,36.266,22,53.235V69z"/>
	<path fill="#CACACA" d="M22,69h-9V53.235c0-10.784,4.413-20.667,12.335-28.104C33.086,17.855,43.41,14,54.313,14H70v9H54.313
		C36.347,23,22,36.207,22,53.235V69z"/>
	<path fill="#CBCBCB" d="M22,69h-9V53.235c0-10.755,4.455-20.665,12.356-28.08C33.086,17.899,43.438,14,54.313,14H70v9H54.313
		C36.285,23,22,36.148,22,53.235V69z"/>
	<path fill="#CCCCCC" d="M22,69h-9V53.235c0-10.725,4.496-20.662,12.377-28.057C33.088,17.943,43.465,14,54.313,14H70v9H54.313
		C36.224,23,22,36.089,22,53.235V69z"/>
	<path fill="#CDCDCD" d="M22,69h-9V53.235c0-10.695,4.537-20.659,12.397-28.033C33.089,17.986,43.493,14,54.313,14H70v9H54.313
		C36.162,23,22,36.03,22,53.235V69z"/>
	<path fill="#CECECE" d="M22,69h-8V53.235c0-10.666,4.078-20.656,11.918-28.009C33.59,18.03,43.52,14,54.313,14H70v8H54.313
		C36.101,22,22,35.972,22,53.235V69z"/>
	<path fill="#CFCFCF" d="M22,69h-8V53.235c0-10.636,4.119-20.653,11.939-27.986C33.591,18.074,43.547,14,54.313,14H70v8H54.313
		C36.04,22,22,35.913,22,53.235V69z"/>
	<path fill="#D0D0D0" d="M22,69h-8V53.235c0-10.606,4.16-20.65,11.96-27.962C33.592,18.118,43.575,14,54.313,14H70v8H54.313
		C35.978,22,22,35.854,22,53.235V69z"/>
	<path fill="#D1D1D1" d="M22,69h-8V53.235c0-10.577,4.201-20.648,11.98-27.938C33.593,18.162,43.603,14,54.313,14H70v8H54.313
		C35.917,22,22,35.795,22,53.235V69z"/>
	<path fill="#D2D2D2" d="M21,69h-7V53.235c0-10.547,4.243-20.145,12.001-27.415C33.594,18.705,43.63,15,54.313,15H70v7H54.313
		C35.855,22,21,35.737,21,53.235V69z"/>
	<path fill="#D3D3D3" d="M21,69h-7V53.235c0-10.517,4.284-20.142,12.021-27.391C33.596,18.749,43.658,15,54.313,15H70v7H54.313
		C35.793,22,21,35.678,21,53.235V69z"/>
	<path fill="#D4D4D4" d="M21,69h-7V53.235c0-10.487,4.325-20.139,12.042-27.367C33.597,18.793,43.685,15,54.313,15H70v7H54.313
		C35.732,22,21,35.619,21,53.235V69z"/>
	<path fill="#D5D5D5" d="M21,69h-7V53.235c0-10.458,4.366-20.137,12.063-27.344C33.598,18.836,43.713,15,54.313,15H70v7H54.313
		C35.671,22,21,35.56,21,53.235V69z"/>
	<path fill="#D6D6D6" d="M21,69h-7V53.235c0-10.428,4.407-20.134,12.084-27.32C33.599,18.88,43.74,15,54.313,15H70v7H54.313
		C35.609,22,21,35.501,21,53.235V69z"/>
	<path fill="#D7D7D7" d="M21,69h-7V53.235c0-10.398,4.448-20.131,12.104-27.296C33.6,18.924,43.768,15,54.313,15H70v7H54.313
		C35.548,22,21,35.443,21,53.235V69z"/>
	<path fill="#D8D8D8" d="M21,69h-6V53.235c0-10.369,3.99-20.128,11.625-27.273C34.101,18.968,43.795,15,54.313,15H70v6H54.313
		C35.486,21,21,35.384,21,53.235V69z"/>
	<path fill="#D9D9D9" d="M21,69h-6V53.235c0-10.339,4.03-20.125,11.646-27.249C34.103,19.012,43.823,15,54.313,15H70v6H54.313
		C35.425,21,21,35.325,21,53.235V69z"/>
	<path fill="#DADADA" d="M21,69h-6V53.235c0-10.309,4.072-20.123,11.667-27.225C34.103,19.055,43.851,15,54.313,15H70v6H54.313
		C35.363,21,21,35.267,21,53.235V69z"/>
	<path fill="#DBDBDB" d="M20,69h-5V53.235c0-10.279,4.113-19.62,11.688-26.702C34.104,19.599,43.878,16,54.313,16H70v5H54.313
		C35.302,21,20,35.208,20,53.235V69z"/>
	<path fill="#DCDCDC" d="M20,69h-5V53.235c0-10.25,4.154-19.618,11.708-26.678C34.105,19.643,43.906,16,54.313,16H70v5H54.313
		C35.241,21,20,35.149,20,53.235V69z"/>
	<path fill="#DDDDDD" d="M20,69h-5V53.235c0-10.22,4.195-19.615,11.729-26.655C34.106,19.687,43.933,16,54.313,16H70v5H54.313
		C35.179,21,20,35.09,20,53.235V69z"/>
	<path fill="#DEDEDE" d="M20,69h-5V53.235c0-10.19,4.236-19.612,11.75-26.631C34.107,19.729,43.961,16,54.313,16H70v5H54.313
		C35.118,21,20,35.031,20,53.235V69z"/>
	<path fill="#DFDFDF" d="M20,69h-5V53.235c0-10.161,4.277-19.609,11.771-26.607C34.108,19.773,43.988,16,54.313,16H70v5H54.313
		C35.056,21,20,34.973,20,53.235V69z"/>
	<path fill="#E0E0E0" d="M20,69h-5V53.235c0-10.131,4.319-19.606,11.791-26.583C34.11,19.817,44.016,16,54.313,16H70v5H54.313
		C34.995,21,20,34.914,20,53.235V69z"/>
	<path fill="#E1E1E1" d="M20,69h-4V53.235c0-10.101,3.86-19.604,11.312-26.56C34.611,19.861,44.043,16,54.313,16H70v4H54.313
		C34.934,20,20,34.855,20,53.235V69z"/>
	<path fill="#E2E2E2" d="M20,69h-4V53.235c0-10.072,3.901-19.601,11.332-26.536C34.612,19.904,44.071,16,54.313,16H70v4H54.313
		C34.872,20,20,34.796,20,53.235V69z"/>
	<path fill="#E3E3E3" d="M20,69h-4V53.235c0-10.042,3.942-19.598,11.354-26.513C34.613,19.948,44.099,16,54.313,16H70v4H54.313
		C34.811,20,20,34.737,20,53.235V69z"/>
	<path fill="#E4E4E4" d="M19,69h-3V53.235c0-10.012,3.983-19.095,11.374-25.989C34.614,20.492,44.126,17,54.313,17H70v3H54.313
		C34.749,20,19,34.679,19,53.235V69z"/>
</g>
</svg>
