<?xml version="1.0" encoding="utf-8"?>
<!-- Generator: Adobe Illustrator 15.0.0, SVG Export Plug-In  -->
<!DOCTYPE svg PUBLIC "-//W3C//DTD SVG 1.1//EN" "http://www.w3.org/Graphics/SVG/1.1/DTD/svg11.dtd" [
	<!ENTITY ns_flows "http://ns.adobe.com/Flows/1.0/">
]>
<svg version="1.1"
	 xmlns="http://www.w3.org/2000/svg" xmlns:xlink="http://www.w3.org/1999/xlink" xmlns:a="http://ns.adobe.com/AdobeSVGViewerExtensions/3.0/"
	 x="0px" y="0px" width="400px" height="335px" viewBox="0 0 400 335" enable-background="new 0 0 400 335" xml:space="preserve">
<defs>
</defs>
<rect x="10" y="64" fill="#1A1A1A" width="383" height="258"/>
<rect x="21" y="80" fill="#4D4D4D" width="360" height="242"/>
<linearGradient id="SVGID_1_" gradientUnits="userSpaceOnUse" x1="44" y1="206.5" x2="355" y2="206.5">
	<stop  offset="0" style="stop-color:#333333"/>
	<stop  offset="0.1697" style="stop-color:#979797"/>
	<stop  offset="1" style="stop-color:#1A1A1A"/>
</linearGradient>
<rect x="44" y="140" fill="url(#SVGID_1_)" stroke="#000000" stroke-width="2" stroke-miterlimit="9" width="311" height="133"/>
<linearGradient id="SVGID_2_" gradientUnits="userSpaceOnUse" x1="8160.5391" y1="239.0005" x2="8160.5391" y2="221.0005" gradientTransform="matrix(-1 0 0 -1 8360 361)">
	<stop  offset="0" style="stop-color:#000000"/>
	<stop  offset="1" style="stop-color:#333333"/>
</linearGradient>
<polygon fill="url(#SVGID_2_)" stroke="#000000" stroke-width="2" stroke-miterlimit="9" points="51.484,122 347.436,122 
	354.896,140 44.023,140 "/>
<linearGradient id="SVGID_3_" gradientUnits="userSpaceOnUse" x1="199.46" y1="292" x2="199.46" y2="273">
	<stop  offset="0" style="stop-color:#000000"/>
	<stop  offset="1" style="stop-color:#333333"/>
</linearGradient>
<polygon fill="url(#SVGID_3_)" stroke="#000000" stroke-width="2" stroke-miterlimit="9" points="347.436,292 51.484,292 
	44.023,273 354.896,273 "/>
<rect x="51" y="292" fill="#1A1A1A" stroke="#000000" stroke-width="2" stroke-miterlimit="9" width="297" height="29"/>
<rect y="322" fill="#333333" width="400" height="3"/>
<rect x="2" y="326" stroke="#000000" stroke-width="2" stroke-miterlimit="9" width="397" height="9"/>
<rect x="159" y="88" fill="#F5911E" stroke="#333333" stroke-width="2" stroke-miterlimit="9" width="86" height="23"/>
<linearGradient id="SVGID_4_" gradientUnits="userSpaceOnUse" x1="212" y1="104.5" x2="300" y2="104.5">
	<stop  offset="0" style="stop-color:#000000"/>
	<stop  offset="1" style="stop-color:#333333"/>
</linearGradient>
<rect x="212" y="92" fill="url(#SVGID_4_)" stroke="#000000" stroke-width="2" stroke-miterlimit="9" width="88" height="25"/>
<linearGradient id="SVGID_5_" gradientUnits="userSpaceOnUse" x1="48.9971" y1="47.5" x2="349.9229" y2="47.5">
	<stop  offset="0" style="stop-color:#000000"/>
	<stop  offset="1" style="stop-color:#666666"/>
</linearGradient>
<polygon fill="url(#SVGID_5_)" points="325.053,31 73.866,31 48.997,64 349.923,64 "/>
<linearGradient id="SVGID_6_" gradientUnits="userSpaceOnUse" x1="299" y1="201.5" x2="310" y2="201.5">
	<stop  offset="0" style="stop-color:#000000"/>
	<stop  offset="1" style="stop-color:#666666"/>
</linearGradient>
<rect x="299" y="178" fill="url(#SVGID_6_)" width="11" height="47"/>
<linearGradient id="SVGID_7_" gradientUnits="userSpaceOnUse" x1="289" y1="225" x2="319" y2="225">
	<stop  offset="0" style="stop-color:#000000"/>
	<stop  offset="0.5091" style="stop-color:#212121"/>
	<stop  offset="1" style="stop-color:#000000"/>
</linearGradient>
<rect x="289" y="221" fill="url(#SVGID_7_)" width="30" height="8"/>
<linearGradient id="SVGID_8_" gradientUnits="userSpaceOnUse" x1="289" y1="176.5" x2="319" y2="176.5">
	<stop  offset="0" style="stop-color:#000000"/>
	<stop  offset="0.5091" style="stop-color:#212121"/>
	<stop  offset="1" style="stop-color:#000000"/>
</linearGradient>
<rect x="289" y="173" fill="url(#SVGID_8_)" width="30" height="7"/>
<linearGradient id="SVGID_9_" gradientUnits="userSpaceOnUse" x1="225" y1="15.5" x2="282" y2="15.5">
	<stop  offset="0" style="stop-color:#000000"/>
	<stop  offset="0.2727" style="stop-color:#212121"/>
	<stop  offset="0.697" style="stop-color:#808080"/>
	<stop  offset="1" style="stop-color:#000000"/>
</linearGradient>
<rect x="225" fill="url(#SVGID_9_)" width="57" height="31"/>
</svg>
