<?xml version="1.0" encoding="utf-8"?>
<!-- Generator: Adobe Illustrator 15.0.0, SVG Export Plug-In  -->
<!DOCTYPE svg PUBLIC "-//W3C//DTD SVG 1.1//EN" "http://www.w3.org/Graphics/SVG/1.1/DTD/svg11.dtd" [
	<!ENTITY ns_flows "http://ns.adobe.com/Flows/1.0/">
]>
<svg version="1.1"
	 xmlns="http://www.w3.org/2000/svg" xmlns:xlink="http://www.w3.org/1999/xlink" xmlns:a="http://ns.adobe.com/AdobeSVGViewerExtensions/3.0/"
	 x="0px" y="0px" width="250px" height="390px" viewBox="-1.014 0.703 250 390" enable-background="new -1.014 0.703 250 390"
	 xml:space="preserve">
<defs>
</defs>
<linearGradient id="SVGID_6_" gradientUnits="userSpaceOnUse" x1="9480.6719" y1="253.3169" x2="9730.5254" y2="253.3169" gradientTransform="matrix(-1 0 0 1 9730.5244 -128.8647)">
	<stop  offset="0" style="stop-color:#CACACA"/>
	<stop  offset="1" style="stop-color:#CACACA"/>
</linearGradient>
<polygon fill="url(#SVGID_6_)" points="0,160.547 249.853,160.547 182.395,88.358 67.46,88.358 "/>
<linearGradient id="SVGID_7_" gradientUnits="userSpaceOnUse" x1="15438.3359" y1="-3443.9233" x2="15602.4316" y2="-3443.9233" gradientTransform="matrix(-0.3017 0.1919 0.3689 0.5799 6143.2275 -859.158)">
	<stop  offset="0" style="stop-color:#333333"/>
	<stop  offset="0.6909" style="stop-color:#CCCCCC"/>
</linearGradient>
<polygon fill="url(#SVGID_7_)" points="215.329,183.365 250,161.317 165.207,60.776 130.53,82.827 "/>
<linearGradient id="SVGID_8_" gradientUnits="userSpaceOnUse" x1="-6972.0981" y1="3972.1177" x2="-6808.0029" y2="3972.1177" gradientTransform="matrix(0.3017 0.1919 -0.3689 0.5799 3603.7776 -859.158)">
	<stop  offset="0" style="stop-color:#333333"/>
	<stop  offset="0.6909" style="stop-color:#CCCCCC"/>
</linearGradient>
<polygon fill="url(#SVGID_8_)" points="34.672,183.365 0,161.317 84.796,60.776 119.471,82.827 "/>
<linearGradient id="SVGID_9_" gradientUnits="userSpaceOnUse" x1="9480.6719" y1="404.3364" x2="9730.5254" y2="404.3364" gradientTransform="matrix(-1 0 0 1 9730.5244 -128.8647)">
	<stop  offset="0" style="stop-color:#333333"/>
	<stop  offset="0.1212" style="stop-color:#CCCCCC"/>
	<stop  offset="0.497" style="stop-color:#DEDEDE"/>
	<stop  offset="0.7879" style="stop-color:#989898"/>
	<stop  offset="1" style="stop-color:#1A1A1A"/>
</linearGradient>
<rect x="0" y="160.547" fill="url(#SVGID_9_)" width="249.852" height="229.85"/>
<linearGradient id="SVGID_10_" gradientUnits="userSpaceOnUse" x1="9543.1348" y1="176.2715" x2="9668.0615" y2="176.2715" gradientTransform="matrix(-1 0 0 1 9730.5244 -128.8647)">
	<stop  offset="0" style="stop-color:#333333"/>
	<stop  offset="0.2727" style="stop-color:#CCCCCC"/>
	<stop  offset="0.497" style="stop-color:#DEDEDE"/>
	<stop  offset="0.7879" style="stop-color:#989898"/>
	<stop  offset="1" style="stop-color:#1A1A1A"/>
</linearGradient>
<polygon fill="url(#SVGID_10_)" points="62.462,87.915 187.389,87.915 187.389,6.899 62.468,6.899 "/>
<g>
	<defs>
		<rect id="SVGID_1_" x="7.972" y="139.145" width="228" height="248"/>
	</defs>
	<clipPath id="SVGID_11_">
		<use xlink:href="#SVGID_1_"  overflow="visible"/>
	</clipPath>
	<g clip-path="url(#SVGID_11_)">
		<defs>
			<path id="SVGID_5_" d="M90.412,279.178c-6.128,6.857-6.009,25.188-4.769,34.3c-1-6.788-7.405-22.395-11.069-28.198
				c3.959,9.054,0.397,19.52-3.783,28.474c-4.18,8.955-4.481,24.681-3.151,34.472c-1.956-2.135-7.344-11.633-6.558-14.419
				c-7.228,14.373-7.966,31.86-1.976,46.791c1.398,3.482,3.161,6.857,5.613,9.695c7.331,8.484,19.538,10.864,30.748,10.673
				c8.149-0.14,16.415-1.402,23.741-4.976c7.324-3.574,13.651-9.659,16.328-17.357c2.125-6.112,2.007-13.164,5.851-18.369
				c-2.907,0.264-8.574,3.057-9.69,5.755c-3.645-7.473,2.64-17.086,3.105-25.387c0.458-8.171-2.041-16.477-6.933-23.037
				c0.573,3.518-3.875,14.985-6.639,17.234c-0.275-10.518,0.89-24.301-5.652-33.701c-3.278-4.71-9.857-10.111-12.043-15.417
				c-1.609-3.906-0.699-8.487,1.382-12.164c2.08-3.676,5.208-6.628,8.287-9.52C104.743,267.635,96.541,272.319,90.412,279.178"/>
		</defs>
		<clipPath id="SVGID_12_">
			<use xlink:href="#SVGID_5_"  overflow="visible"/>
		</clipPath>
		
			<linearGradient id="SVGID_13_" gradientUnits="userSpaceOnUse" x1="4960.3604" y1="1411.1274" x2="4960.7256" y2="1411.1274" gradientTransform="matrix(0 -295.6273 -295.6273 0 417268.125 1466815.75)">
			<stop  offset="0" style="stop-color:#F4901F"/>
			<stop  offset="1" style="stop-color:#FF0000"/>
		</linearGradient>
		<rect x="56.056" y="266.589" clip-path="url(#SVGID_12_)" fill="url(#SVGID_13_)" width="88.271" height="137.13"/>
	</g>
	<g clip-path="url(#SVGID_11_)">
		<defs>
			<path id="SVGID_4_" d="M146.125,293.257c4.581,3.539,8.594,12.373,9.228,18.128c-0.457-4.112,1.454-13.106,3.479-16.714
				c1.3,6.888,3.39,13.839,7.767,19.313c1.802,2.254,3.962,4.217,5.628,6.575c1.665,2.357,2.826,5.283,2.248,8.11
				c0.782-1.213,1.563-2.427,2.345-3.64c1.269,6.286,3.854,12.22,5.666,18.371c2.247,7.627,3.297,15.604,3.102,23.553
				c-0.147,5.954-1.048,12.062-4.049,17.208c-5.71,9.79-17.642,14.01-28.84,15.764c-8.39,1.314-17.077,1.659-25.288-0.512
				c-8.209-2.17-15.934-7.09-20.181-14.443c-3.623-6.273-4.484-13.799-4.095-21.032c0.271-5.037,1.109-10.043,2.495-14.893
				c1.128-3.95,2.625-7.836,3.025-11.925c1.578,1.405,5.84,6.531,6.298,8.594c-2.931-13.212,1.085-30.398,9.212-40.346
				c0.812,5.182,4.146,15.47,8.373,18.576c-2.401-6.247-2.883-18.666-1.736-25.258c1.149-6.592,8.28-17.444,10.588-23.724
				C141.455,280.751,141.543,289.718,146.125,293.257"/>
		</defs>
		
			<linearGradient id="SVGID_14_" gradientUnits="userSpaceOnUse" x1="1488.2031" y1="337.9702" x2="1570.7651" y2="337.9702" gradientTransform="matrix(-1 0 0 1 1673.8115 0)">
			<stop  offset="0" style="stop-color:#F4901F"/>
			<stop  offset="1" style="stop-color:#FF0000"/>
		</linearGradient>
		<use xlink:href="#SVGID_4_"  overflow="visible" fill="url(#SVGID_14_)"/>
		<clipPath id="SVGID_15_">
			<use xlink:href="#SVGID_4_"  overflow="visible"/>
		</clipPath>
		
			<linearGradient id="SVGID_16_" gradientUnits="userSpaceOnUse" x1="4961.1255" y1="1412.8384" x2="4961.6011" y2="1412.8384" gradientTransform="matrix(0 -191.7977 191.7977 0 -270834.75 951927.5625)">
			<stop  offset="0" style="stop-color:#F4901F"/>
			<stop  offset="1" style="stop-color:#FF0000"/>
		</linearGradient>
		<rect x="102.743" y="279.491" clip-path="url(#SVGID_15_)" fill="url(#SVGID_16_)" width="83.038" height="122.093"/>
	</g>
	<g clip-path="url(#SVGID_11_)">
		<defs>
			<path id="SVGID_3_" d="M194.408,267.71c-6.601,7.386-9.153,29.537-7.817,39.352c-1.077-7.312-14.475-23.894-18.422-30.143
				c4.265,9.751,5.897,18.266,1.396,27.91c-4.501,9.645,0.242,20.435,1.675,30.98c-2.106-2.301-9.266-6.262-8.419-9.265
				c-7.784,15.48-1.845,33.467,4.606,49.548c1.504,3.75,3.403,7.385,6.045,10.442c7.894,9.137,14.308,12.547,26.381,12.34
				c8.776-0.151,17.678-1.51,25.567-5.358c7.89-3.849,14.702-10.402,17.585-18.693c2.289-6.583,2.162-29.501,6.302-35.105
				c-3.13,0.284-12.112,12.306-13.313,15.21c-3.925-8.047,2.01-13.706,2.512-22.646c0.494-8.801,1.083-30.992-4.187-38.059
				c0.617,3.788-0.498,22.716-3.475,25.139c-0.296-11.328-5.201-20.116-13.272-28.069c-4.402-4.338-6.677-10.832-9.031-16.546
				c-1.733-4.207-0.752-9.14,1.488-13.1c2.24-3.959,5.608-7.138,8.925-10.253C209.842,255.278,201.008,260.324,194.408,267.71"/>
		</defs>
		<clipPath id="SVGID_17_">
			<use xlink:href="#SVGID_3_"  overflow="visible"/>
		</clipPath>
		
			<linearGradient id="SVGID_18_" gradientUnits="userSpaceOnUse" x1="4960.3774" y1="1410.7837" x2="4960.771" y2="1410.7837" gradientTransform="matrix(0 -295.6273 -295.6273 0 417268.125 1466815.75)">
			<stop  offset="0" style="stop-color:#F4901F"/>
			<stop  offset="1" style="stop-color:#FF0000"/>
		</linearGradient>
		<polygon clip-path="url(#SVGID_17_)" fill="url(#SVGID_18_)" points="160.976,398.235 154.242,251.394 249.308,251.394 
			249.308,399.081 		"/>
	</g>
	<g clip-path="url(#SVGID_11_)">
		<defs>
			<path id="SVGID_2_" d="M45.699,291.164c4.581,3.539,10.214,12.583,10.847,18.337c-0.457-4.112-0.166-13.316,1.858-16.923
				c1.3,6.888,3.391,13.838,7.768,19.314c1.803,2.253,3.525,5.853,3.98,8.703c0.709,4.437,1.834,5.545,1.255,8.373
				c0.782-1.213,4.203-4.818,4.985-6.032c1.268,6.286,3.854,12.22,5.665,18.37c2.247,7.627,3.297,15.605,3.102,23.553
				c-0.147,5.954-1.048,12.062-4.049,17.207c-5.71,9.79-17.642,14.011-28.839,15.765c-8.391,1.314-17.077,1.659-25.289-0.512
				c-8.209-2.169-15.934-7.09-20.181-14.443c-3.623-6.273-4.484-13.799-4.095-21.033c0.271-5.037,1.109-10.043,2.495-14.893
				c1.129-3.95,2.626-7.835,3.025-11.925c1.578,1.406,6.758,7.398,8.336,8.804c-1.319-12.777-0.953-30.607,7.174-40.555
				c0.812,5.182,4.927,12.121,9.154,15.227c-2.4-6.247-3.664-15.316-2.517-21.909c1.149-6.593,3.47-12.916,5.779-19.196
				C36.219,283.186,41.117,287.624,45.699,291.164"/>
		</defs>
		
			<linearGradient id="SVGID_19_" gradientUnits="userSpaceOnUse" x1="1588.6294" y1="338.1406" x2="1671.1914" y2="338.1406" gradientTransform="matrix(-1 0 0 1 1673.8115 0)">
			<stop  offset="0" style="stop-color:#F4901F"/>
			<stop  offset="1" style="stop-color:#FF0000"/>
		</linearGradient>
		<use xlink:href="#SVGID_2_"  overflow="visible" fill="url(#SVGID_19_)"/>
		<clipPath id="SVGID_20_">
			<use xlink:href="#SVGID_2_"  overflow="visible"/>
		</clipPath>
		
			<linearGradient id="SVGID_21_" gradientUnits="userSpaceOnUse" x1="4961.1362" y1="1412.3149" x2="4961.6118" y2="1412.3149" gradientTransform="matrix(0 -191.7977 191.7977 0 -270834.75 951927.5625)">
			<stop  offset="0" style="stop-color:#F4901F"/>
			<stop  offset="1" style="stop-color:#FF0000"/>
		</linearGradient>
		<rect x="2.318" y="277.397" clip-path="url(#SVGID_20_)" fill="url(#SVGID_21_)" width="83.038" height="122.094"/>
	</g>
</g>
<linearGradient id="SVGID_22_" gradientUnits="userSpaceOnUse" x1="62.4678" y1="6.9829" x2="187.3892" y2="6.9829">
	<stop  offset="0" style="stop-color:#000000"/>
	<stop  offset="0.5818" style="stop-color:#989898"/>
	<stop  offset="1" style="stop-color:#1A1A1A"/>
</linearGradient>
<ellipse fill="url(#SVGID_22_)" stroke="#000000" stroke-width="0.7942" stroke-miterlimit="10" cx="124.928" cy="6.982" rx="62.461" ry="6.586"/>
<linearGradient id="SVGID_23_" gradientUnits="userSpaceOnUse" x1="4.882813e-004" y1="389.771" x2="249.8521" y2="389.771">
	<stop  offset="0" style="stop-color:#333333"/>
	<stop  offset="1" style="stop-color:#1A1A1A"/>
</linearGradient>
<ellipse fill="url(#SVGID_23_)" cx="124.926" cy="389.771" rx="124.926" ry="2.626"/>
</svg>
