<?xml version="1.0" encoding="utf-8"?>
<!-- Generator: Adobe Illustrator 15.0.0, SVG Export Plug-In  -->
<!DOCTYPE svg PUBLIC "-//W3C//DTD SVG 1.1//EN" "http://www.w3.org/Graphics/SVG/1.1/DTD/svg11.dtd" [
	<!ENTITY ns_flows "http://ns.adobe.com/Flows/1.0/">
]>
<svg version="1.1"
	 xmlns="http://www.w3.org/2000/svg" xmlns:xlink="http://www.w3.org/1999/xlink" xmlns:a="http://ns.adobe.com/AdobeSVGViewerExtensions/3.0/"
	 x="0px" y="0px" width="470px" height="425px" viewBox="1 0.314 470 425" enable-background="new 1 0.314 470 425"
	 xml:space="preserve">
<defs>
</defs>
<linearGradient id="SVGID_2_" gradientUnits="userSpaceOnUse" x1="417" y1="291.314" x2="417" y2="241.314">
	<stop  offset="0" style="stop-color:#4D4D4D"/>
	<stop  offset="0.4909" style="stop-color:#AEAEAE"/>
	<stop  offset="1" style="stop-color:#333333"/>
</linearGradient>
<rect x="366" y="241.314" fill="url(#SVGID_2_)" width="102" height="50"/>
<linearGradient id="SVGID_3_" gradientUnits="userSpaceOnUse" x1="36.2246" y1="354.7017" x2="103.6553" y2="354.7017">
	<stop  offset="0" style="stop-color:#EF5A24;stop-opacity:0.1"/>
	<stop  offset="1" style="stop-color:#EF5A24"/>
</linearGradient>
<rect x="36.225" y="329.633" fill="url(#SVGID_3_)" width="67.431" height="50.136"/>
<linearGradient id="SVGID_4_" gradientUnits="userSpaceOnUse" x1="51.5" y1="379.314" x2="51.5" y2="329.314">
	<stop  offset="0" style="stop-color:#4D4D4D"/>
	<stop  offset="0.4909" style="stop-color:#AEAEAE"/>
	<stop  offset="1" style="stop-color:#333333"/>
</linearGradient>
<rect y="329.314" opacity="0.8" fill="url(#SVGID_4_)" width="103" height="50"/>
<path fill="#333333" d="M383.441,54.179C383.441,24.232,315.402,0,231.47,0C147.54,0,79.501,24.209,79.501,54.156
	c0,0.075,0.007,0.158,0.008,0.158H79v371h304v-371h0.433C383.434,54.314,383.441,54.254,383.441,54.179z"/>
<linearGradient id="SVGID_5_" gradientUnits="userSpaceOnUse" x1="94" y1="213.5317" x2="368.2437" y2="213.5317">
	<stop  offset="0" style="stop-color:#E4E4E4"/>
	<stop  offset="1" style="stop-color:#CACACA"/>
</linearGradient>
<path fill="url(#SVGID_5_)" d="M368.244,64.069c0-26.951-61.235-49.319-136.773-49.319c-75.537,0-136.773,22.629-136.773,49.581
	c0,0.069,0.007,0.984,0.007,0.984H94v347h274v-347h0.236C368.236,65.314,368.244,64.138,368.244,64.069z"/>
<rect x="349" y="69.314" stroke="#4D4D4D" stroke-width="2" stroke-miterlimit="9" width="4" height="223"/>
<rect x="335" y="68.314" stroke="#4D4D4D" stroke-width="2" stroke-miterlimit="9" width="4" height="223"/>
<rect x="320" y="68.314" stroke="#4D4D4D" stroke-width="2" stroke-miterlimit="9" width="4" height="223"/>
<rect x="304" y="68.314" stroke="#4D4D4D" stroke-width="2" stroke-miterlimit="9" width="4" height="223"/>
<rect x="289" y="68.314" stroke="#4D4D4D" stroke-width="2" stroke-miterlimit="9" width="4" height="223"/>
<rect x="273" y="68.314" stroke="#4D4D4D" stroke-width="2" stroke-miterlimit="9" width="5" height="223"/>
<rect x="258" y="68.314" stroke="#4D4D4D" stroke-width="2" stroke-miterlimit="9" width="5" height="223"/>
<rect x="243" y="68.314" stroke="#4D4D4D" stroke-width="2" stroke-miterlimit="9" width="4" height="223"/>
<rect x="228" y="68.314" stroke="#4D4D4D" stroke-width="2" stroke-miterlimit="9" width="4" height="223"/>
<rect x="213" y="68.314" stroke="#4D4D4D" stroke-width="2" stroke-miterlimit="9" width="4" height="223"/>
<rect x="198" y="68.314" stroke="#4D4D4D" stroke-width="2" stroke-miterlimit="9" width="4" height="223"/>
<rect x="183" y="68.314" stroke="#4D4D4D" stroke-width="2" stroke-miterlimit="9" width="4" height="223"/>
<rect x="167" y="68.314" stroke="#4D4D4D" stroke-width="2" stroke-miterlimit="9" width="5" height="223"/>
<rect x="151" y="68.314" stroke="#4D4D4D" stroke-width="2" stroke-miterlimit="9" width="5" height="223"/>
<rect x="136" y="68.314" stroke="#4D4D4D" stroke-width="2" stroke-miterlimit="9" width="5" height="223"/>
<rect x="121" y="68.314" stroke="#4D4D4D" stroke-width="2" stroke-miterlimit="9" width="5" height="223"/>
<rect x="106" y="68.314" stroke="#4D4D4D" stroke-width="2" stroke-miterlimit="9" width="5" height="223"/>
<rect x="103.367" y="308.402" fill="#BE4800" stroke="#1A1A1A" stroke-width="5.5283" stroke-miterlimit="9" width="255.151" height="92.048"/>
<g>
	<defs>
		<rect id="SVGID_1_" x="102" y="308.314" width="256" height="93"/>
	</defs>
	<clipPath id="SVGID_6_">
		<use xlink:href="#SVGID_1_"  overflow="visible"/>
	</clipPath>
	<g clip-path="url(#SVGID_6_)">
		<g>
			
				<line fill="none" stroke="#000000" stroke-width="1.5959" stroke-miterlimit="9" x1="47.644" y1="399.582" x2="118.764" y2="307.534"/>
			
				<line fill="none" stroke="#000000" stroke-width="1.5959" stroke-miterlimit="9" x1="62.308" y1="399.582" x2="133.428" y2="307.534"/>
			
				<line fill="none" stroke="#000000" stroke-width="1.5959" stroke-miterlimit="9" x1="76.972" y1="399.582" x2="148.091" y2="307.534"/>
			
				<line fill="none" stroke="#000000" stroke-width="1.5959" stroke-miterlimit="9" x1="91.635" y1="399.582" x2="162.755" y2="307.534"/>
			
				<line fill="none" stroke="#000000" stroke-width="1.5959" stroke-miterlimit="9" x1="106.299" y1="399.582" x2="177.419" y2="307.534"/>
			
				<line fill="none" stroke="#000000" stroke-width="1.5959" stroke-miterlimit="9" x1="120.963" y1="399.582" x2="192.083" y2="307.534"/>
			
				<line fill="none" stroke="#000000" stroke-width="1.5959" stroke-miterlimit="9" x1="135.627" y1="399.582" x2="206.747" y2="307.534"/>
			
				<line fill="none" stroke="#000000" stroke-width="1.5959" stroke-miterlimit="9" x1="150.291" y1="399.582" x2="221.411" y2="307.534"/>
			
				<line fill="none" stroke="#000000" stroke-width="1.5959" stroke-miterlimit="9" x1="164.955" y1="399.582" x2="236.075" y2="307.534"/>
			
				<line fill="none" stroke="#000000" stroke-width="1.5959" stroke-miterlimit="9" x1="179.619" y1="399.582" x2="250.739" y2="307.534"/>
			
				<line fill="none" stroke="#000000" stroke-width="1.5959" stroke-miterlimit="9" x1="194.283" y1="399.582" x2="265.402" y2="307.534"/>
			
				<line fill="none" stroke="#000000" stroke-width="1.5959" stroke-miterlimit="9" x1="208.946" y1="399.582" x2="280.067" y2="307.534"/>
			
				<line fill="none" stroke="#000000" stroke-width="1.5959" stroke-miterlimit="9" x1="223.611" y1="399.582" x2="294.73" y2="307.534"/>
			
				<line fill="none" stroke="#000000" stroke-width="1.5959" stroke-miterlimit="9" x1="238.274" y1="399.582" x2="309.395" y2="307.534"/>
			
				<line fill="none" stroke="#000000" stroke-width="1.5959" stroke-miterlimit="9" x1="252.938" y1="399.582" x2="324.059" y2="307.534"/>
			
				<line fill="none" stroke="#000000" stroke-width="1.5959" stroke-miterlimit="9" x1="267.603" y1="399.582" x2="338.722" y2="307.534"/>
			
				<line fill="none" stroke="#000000" stroke-width="1.5959" stroke-miterlimit="9" x1="282.266" y1="399.582" x2="353.386" y2="307.534"/>
			
				<line fill="none" stroke="#000000" stroke-width="1.5959" stroke-miterlimit="9" x1="296.93" y1="399.582" x2="368.05" y2="307.534"/>
			
				<line fill="none" stroke="#000000" stroke-width="1.5959" stroke-miterlimit="9" x1="311.594" y1="399.582" x2="382.713" y2="307.534"/>
			
				<line fill="none" stroke="#000000" stroke-width="1.5959" stroke-miterlimit="9" x1="326.257" y1="399.582" x2="397.377" y2="307.534"/>
			
				<line fill="none" stroke="#000000" stroke-width="1.5959" stroke-miterlimit="9" x1="340.922" y1="399.582" x2="412.042" y2="307.534"/>
		</g>
		<g>
			
				<line fill="none" stroke="#000000" stroke-width="1.5959" stroke-miterlimit="9" x1="426.706" y1="399.582" x2="355.585" y2="307.534"/>
			
				<line fill="none" stroke="#000000" stroke-width="1.5959" stroke-miterlimit="9" x1="412.042" y1="399.582" x2="340.922" y2="307.534"/>
			
				<line fill="none" stroke="#000000" stroke-width="1.5959" stroke-miterlimit="9" x1="397.377" y1="399.582" x2="326.257" y2="307.534"/>
			
				<line fill="none" stroke="#000000" stroke-width="1.5959" stroke-miterlimit="9" x1="382.713" y1="399.582" x2="311.594" y2="307.534"/>
			
				<line fill="none" stroke="#000000" stroke-width="1.5959" stroke-miterlimit="9" x1="368.05" y1="399.582" x2="296.93" y2="307.534"/>
			
				<line fill="none" stroke="#000000" stroke-width="1.5959" stroke-miterlimit="9" x1="353.386" y1="399.582" x2="282.266" y2="307.534"/>
			
				<line fill="none" stroke="#000000" stroke-width="1.5959" stroke-miterlimit="9" x1="338.722" y1="399.582" x2="267.603" y2="307.534"/>
			
				<line fill="none" stroke="#000000" stroke-width="1.5959" stroke-miterlimit="9" x1="324.059" y1="399.582" x2="252.938" y2="307.534"/>
			
				<line fill="none" stroke="#000000" stroke-width="1.5959" stroke-miterlimit="9" x1="309.395" y1="399.582" x2="238.274" y2="307.534"/>
			
				<line fill="none" stroke="#000000" stroke-width="1.5959" stroke-miterlimit="9" x1="294.73" y1="399.582" x2="223.611" y2="307.534"/>
			
				<line fill="none" stroke="#000000" stroke-width="1.5959" stroke-miterlimit="9" x1="280.067" y1="399.582" x2="208.946" y2="307.534"/>
			
				<line fill="none" stroke="#000000" stroke-width="1.5959" stroke-miterlimit="9" x1="265.402" y1="399.582" x2="194.283" y2="307.534"/>
			
				<line fill="none" stroke="#000000" stroke-width="1.5959" stroke-miterlimit="9" x1="250.739" y1="399.582" x2="179.619" y2="307.534"/>
			
				<line fill="none" stroke="#000000" stroke-width="1.5959" stroke-miterlimit="9" x1="236.075" y1="399.582" x2="164.955" y2="307.534"/>
			
				<line fill="none" stroke="#000000" stroke-width="1.5959" stroke-miterlimit="9" x1="221.411" y1="399.582" x2="150.291" y2="307.534"/>
			
				<line fill="none" stroke="#000000" stroke-width="1.5959" stroke-miterlimit="9" x1="206.747" y1="399.582" x2="135.627" y2="307.534"/>
			
				<line fill="none" stroke="#000000" stroke-width="1.5959" stroke-miterlimit="9" x1="192.083" y1="399.582" x2="120.963" y2="307.534"/>
			
				<line fill="none" stroke="#000000" stroke-width="1.5959" stroke-miterlimit="9" x1="177.419" y1="399.582" x2="106.299" y2="307.534"/>
			
				<line fill="none" stroke="#000000" stroke-width="1.5959" stroke-miterlimit="9" x1="162.755" y1="399.582" x2="91.635" y2="307.534"/>
			
				<line fill="none" stroke="#000000" stroke-width="1.5959" stroke-miterlimit="9" x1="148.091" y1="399.582" x2="76.972" y2="307.534"/>
			
				<line fill="none" stroke="#000000" stroke-width="1.5959" stroke-miterlimit="9" x1="133.428" y1="399.582" x2="62.308" y2="307.534"/>
		</g>
	</g>
</g>
</svg>
