<?xml version="1.0" encoding="utf-8"?>
<!-- Generator: Adobe Illustrator 15.0.0, SVG Export Plug-In  -->
<!DOCTYPE svg PUBLIC "-//W3C//DTD SVG 1.1//EN" "http://www.w3.org/Graphics/SVG/1.1/DTD/svg11.dtd" [
	<!ENTITY ns_flows "http://ns.adobe.com/Flows/1.0/">
]>
<svg version="1.1"
	 xmlns="http://www.w3.org/2000/svg" xmlns:xlink="http://www.w3.org/1999/xlink" xmlns:a="http://ns.adobe.com/AdobeSVGViewerExtensions/3.0/"
	 x="0px" y="0px" width="65px" height="76px" viewBox="11.652 0.003 65 76" enable-background="new 11.652 0.003 65 76"
	 xml:space="preserve">
<defs>
</defs>
<g>
	<defs>
		<polygon id="SVGID_1_" points="13.691,65.071 11.482,73.315 41.354,81.268 49.293,51.296 75.84,24.749 51.092,0 31.522,19.569 
			26.162,18.186 23.677,27.63 		"/>
	</defs>
	<clipPath id="SVGID_2_">
		<use xlink:href="#SVGID_1_"  overflow="visible"/>
	</clipPath>
	<g clip-path="url(#SVGID_2_)">
		
			<rect x="1.83" y="20.798" transform="matrix(0.7071 -0.7071 0.7071 0.7071 -16.0007 37.9672)" fill="#4D4D4D" width="72" height="34.999"/>
		
			<rect x="1.83" y="20.798" transform="matrix(0.7071 -0.7071 0.7071 0.7071 -16.0007 37.9672)" fill="#4D4D4D" width="72" height="34.999"/>
		
			<rect x="1.83" y="20.798" transform="matrix(0.7071 -0.7071 0.7071 0.7071 -16.0007 37.9672)" fill="#4D4D4D" width="72" height="34.999"/>
		
			<rect x="1.83" y="20.898" transform="matrix(0.7071 -0.7071 0.7071 0.7071 -16.0007 37.9672)" fill="#4E4E4E" width="72" height="34.8"/>
		
			<rect x="1.83" y="20.997" transform="matrix(0.7071 -0.7071 0.7071 0.7071 -16.0007 37.9672)" fill="#4F4F4F" width="72" height="34.602"/>
		
			<rect x="1.83" y="21.097" transform="matrix(0.7071 -0.7071 0.7071 0.7071 -16.0007 37.9672)" fill="#505050" width="72" height="34.403"/>
		
			<rect x="1.83" y="21.195" transform="matrix(0.7071 -0.7071 0.7071 0.7071 -16.0007 37.9672)" fill="#515151" width="72" height="34.205"/>
		
			<rect x="1.83" y="21.295" transform="matrix(0.7071 -0.7071 0.7071 0.7071 -16.0007 37.9672)" fill="#525252" width="72" height="34.006"/>
		
			<rect x="1.83" y="21.394" transform="matrix(0.7071 -0.7071 0.7071 0.7071 -16.0007 37.9672)" fill="#535353" width="72" height="33.808"/>
		
			<rect x="1.83" y="21.494" transform="matrix(0.7071 -0.7071 0.7071 0.7071 -16.0007 37.9672)" fill="#545454" width="72" height="33.609"/>
		
			<rect x="1.83" y="21.593" transform="matrix(0.7071 -0.7071 0.7071 0.7071 -16.0007 37.9672)" fill="#555555" width="72" height="33.41"/>
		
			<rect x="1.83" y="21.693" transform="matrix(0.7071 -0.7071 0.7071 0.7071 -16.0007 37.9672)" fill="#565656" width="72" height="33.211"/>
		
			<rect x="1.83" y="21.792" transform="matrix(0.7071 -0.7071 0.7071 0.7071 -16.0007 37.9672)" fill="#575757" width="72" height="33.012"/>
		
			<rect x="1.83" y="21.891" transform="matrix(0.7071 -0.7071 0.7071 0.7071 -16.0007 37.9672)" fill="#585858" width="72" height="32.815"/>
		
			<rect x="1.83" y="21.99" transform="matrix(0.7071 -0.7071 0.7071 0.7071 -16.0007 37.9672)" fill="#595959" width="72" height="32.616"/>
		
			<rect x="1.83" y="22.09" transform="matrix(0.7071 -0.7071 0.7071 0.7071 -16.0007 37.9672)" fill="#5A5A5A" width="72" height="32.417"/>
		
			<rect x="1.83" y="22.189" transform="matrix(0.7071 -0.7071 0.7071 0.7071 -16.0007 37.9672)" fill="#5B5B5B" width="72" height="32.218"/>
		
			<rect x="1.83" y="22.289" transform="matrix(0.7071 -0.7071 0.7071 0.7071 -16.0007 37.9672)" fill="#5C5C5C" width="72" height="32.019"/>
		
			<rect x="1.83" y="22.388" transform="matrix(0.7071 -0.7071 0.7071 0.7071 -16.0007 37.9672)" fill="#5D5D5D" width="72" height="31.82"/>
		
			<rect x="1.83" y="22.487" transform="matrix(0.7071 -0.7071 0.7071 0.7071 -16.0009 37.9671)" fill="#5E5E5E" width="71.999" height="31.622"/>
		
			<rect x="1.83" y="22.586" transform="matrix(0.7071 -0.7071 0.7071 0.7071 -16.0007 37.9672)" fill="#5F5F5F" width="72" height="31.424"/>
		
			<rect x="1.83" y="22.686" transform="matrix(0.7071 -0.7071 0.7071 0.7071 -16.0007 37.9672)" fill="#606060" width="72" height="31.225"/>
		
			<rect x="1.83" y="22.785" transform="matrix(0.7071 -0.7071 0.7071 0.7071 -16.0007 37.9672)" fill="#616161" width="72" height="31.026"/>
		
			<rect x="1.83" y="22.885" transform="matrix(0.7071 -0.7071 0.7071 0.7071 -16.0007 37.9672)" fill="#626262" width="72" height="30.827"/>
		
			<rect x="1.83" y="22.984" transform="matrix(0.7071 -0.7071 0.7071 0.7071 -16.0007 37.9672)" fill="#636363" width="72" height="30.628"/>
		
			<rect x="1.83" y="23.083" transform="matrix(0.7071 -0.7071 0.7071 0.7071 -16.0007 37.9672)" fill="#646464" width="72" height="30.429"/>
		
			<rect x="1.83" y="23.183" transform="matrix(0.7071 -0.7071 0.7071 0.7071 -16.0009 37.9671)" fill="#656565" width="71.999" height="30.231"/>
		
			<rect x="1.83" y="23.282" transform="matrix(0.7071 -0.7071 0.7071 0.7071 -16.0007 37.9672)" fill="#666666" width="72" height="30.033"/>
		
			<rect x="1.83" y="23.381" transform="matrix(0.7071 -0.7071 0.7071 0.7071 -16.0007 37.9672)" fill="#676767" width="72" height="29.834"/>
		
			<rect x="1.83" y="23.48" transform="matrix(0.7071 -0.7071 0.7071 0.7071 -16.0007 37.9672)" fill="#686868" width="72" height="29.635"/>
		
			<rect x="1.83" y="23.58" transform="matrix(0.7071 -0.7071 0.7071 0.7071 -16.0007 37.9672)" fill="#696969" width="72" height="29.436"/>
		
			<rect x="1.83" y="23.679" transform="matrix(0.7071 -0.7071 0.7071 0.7071 -16.0007 37.9672)" fill="#6A6A6A" width="72" height="29.238"/>
		
			<rect x="1.83" y="23.779" transform="matrix(0.7071 -0.7071 0.7071 0.7071 -16.0009 37.9671)" fill="#6B6B6B" width="71.999" height="29.039"/>
		
			<rect x="1.83" y="23.878" transform="matrix(0.7071 -0.7071 0.7071 0.7071 -16.0009 37.9671)" fill="#6C6C6C" width="71.999" height="28.84"/>
		
			<rect x="1.83" y="23.977" transform="matrix(0.7071 -0.7071 0.7071 0.7071 -16.0007 37.9672)" fill="#6D6D6D" width="72" height="28.642"/>
		
			<rect x="1.83" y="24.076" transform="matrix(0.7071 -0.7071 0.7071 0.7071 -16.0007 37.9672)" fill="#6E6E6E" width="72" height="28.443"/>
		
			<rect x="1.83" y="24.176" transform="matrix(0.7071 -0.7071 0.7071 0.7071 -16.0007 37.9672)" fill="#6F6F6F" width="72" height="28.245"/>
		
			<rect x="1.83" y="24.275" transform="matrix(0.7071 -0.7071 0.7071 0.7071 -16.0007 37.9672)" fill="#707070" width="72" height="28.046"/>
		
			<rect x="1.83" y="24.375" transform="matrix(0.7071 -0.7071 0.7071 0.7071 -16.0007 37.9672)" fill="#717171" width="72" height="27.847"/>
		
			<rect x="1.83" y="24.474" transform="matrix(0.7071 -0.7071 0.7071 0.7071 -16.0009 37.9671)" fill="#727272" width="71.999" height="27.649"/>
		
			<rect x="1.83" y="24.573" transform="matrix(0.7071 -0.7071 0.7071 0.7071 -16.0007 37.9672)" fill="#737373" width="72" height="27.45"/>
		
			<rect x="1.83" y="24.672" transform="matrix(0.7071 -0.7071 0.7071 0.7071 -16.0007 37.9672)" fill="#747474" width="72" height="27.252"/>
		
			<rect x="1.83" y="24.772" transform="matrix(0.7071 -0.7071 0.7071 0.7071 -16.0007 37.9672)" fill="#757575" width="72" height="27.053"/>
		
			<rect x="1.83" y="24.871" transform="matrix(0.7071 -0.7071 0.7071 0.7071 -16.0007 37.9672)" fill="#767676" width="72" height="26.854"/>
		
			<rect x="1.83" y="24.971" transform="matrix(0.7071 -0.7071 0.7071 0.7071 -16.0007 37.9672)" fill="#777777" width="72" height="26.655"/>
		
			<rect x="1.83" y="25.07" transform="matrix(0.7071 -0.7071 0.7071 0.7071 -16.0009 37.9671)" fill="#787878" width="71.999" height="26.457"/>
		
			<rect x="1.83" y="25.169" transform="matrix(0.7071 -0.7071 0.7071 0.7071 -16.0009 37.9671)" fill="#797979" width="71.999" height="26.258"/>
		
			<rect x="1.83" y="25.268" transform="matrix(0.7071 -0.7071 0.7071 0.7071 -16.0007 37.9672)" fill="#7A7A7A" width="72" height="26.06"/>
		
			<rect x="1.83" y="25.368" transform="matrix(0.7071 -0.7071 0.7071 0.7071 -16.0007 37.9672)" fill="#7B7B7B" width="72" height="25.861"/>
		
			<rect x="1.83" y="25.467" transform="matrix(0.7071 -0.7071 0.7071 0.7071 -16.0007 37.9672)" fill="#7C7C7C" width="72" height="25.662"/>
		
			<rect x="1.83" y="25.567" transform="matrix(0.7071 -0.7071 0.7071 0.7071 -16.0007 37.9672)" fill="#7D7D7D" width="72" height="25.463"/>
		
			<rect x="1.83" y="25.666" transform="matrix(0.7071 -0.7071 0.7071 0.7071 -16.0007 37.9672)" fill="#7E7E7E" width="72" height="25.264"/>
		
			<rect x="1.83" y="25.765" transform="matrix(0.7071 -0.7071 0.7071 0.7071 -16.0009 37.9671)" fill="#7F7F7F" width="71.999" height="25.066"/>
		
			<rect x="1.83" y="25.865" transform="matrix(0.7071 -0.7071 0.7071 0.7071 -16.0009 37.9671)" fill="#808080" width="71.999" height="24.867"/>
		
			<rect x="1.83" y="25.964" transform="matrix(0.7071 -0.7071 0.7071 0.7071 -16.0007 37.9672)" fill="#818181" width="72" height="24.669"/>
		
			<rect x="1.83" y="26.063" transform="matrix(0.7071 -0.7071 0.7071 0.7071 -16.0007 37.9672)" fill="#828282" width="72" height="24.47"/>
		
			<rect x="1.83" y="26.162" transform="matrix(0.7071 -0.7071 0.7071 0.7071 -16.0007 37.9672)" fill="#838383" width="72" height="24.271"/>
		
			<rect x="1.83" y="26.262" transform="matrix(0.7071 -0.7071 0.7071 0.7071 -16.0007 37.9672)" fill="#848484" width="72" height="24.072"/>
		
			<rect x="1.83" y="26.361" transform="matrix(0.7071 -0.7071 0.7071 0.7071 -16.0007 37.9672)" fill="#858585" width="72" height="23.873"/>
		
			<rect x="1.83" y="26.461" transform="matrix(0.7071 -0.7071 0.7071 0.7071 -16.0009 37.9671)" fill="#868686" width="71.999" height="23.675"/>
		
			<rect x="1.83" y="26.56" transform="matrix(0.7071 -0.7071 0.7071 0.7071 -16.0009 37.9671)" fill="#878787" width="71.999" height="23.476"/>
		
			<rect x="1.83" y="26.659" transform="matrix(0.7071 -0.7071 0.7071 0.7071 -16.0007 37.9672)" fill="#888888" width="72" height="23.278"/>
		
			<rect x="1.83" y="26.758" transform="matrix(0.7071 -0.7071 0.7071 0.7071 -16.0007 37.9672)" fill="#898989" width="72" height="23.079"/>
		
			<rect x="1.83" y="26.858" transform="matrix(0.7071 -0.7071 0.7071 0.7071 -16.0007 37.9672)" fill="#8A8A8A" width="72" height="22.88"/>
		
			<rect x="1.83" y="26.957" transform="matrix(0.7071 -0.7071 0.7071 0.7071 -16.0007 37.9672)" fill="#8B8B8B" width="72" height="22.682"/>
		
			<rect x="1.83" y="27.057" transform="matrix(0.7071 -0.7071 0.7071 0.7071 -16.0009 37.9671)" fill="#8C8C8C" width="71.999" height="22.483"/>
		
			<rect x="1.83" y="27.156" transform="matrix(0.7071 -0.7071 0.7071 0.7071 -16.0009 37.9671)" fill="#8D8D8D" width="71.999" height="22.285"/>
		
			<rect x="1.83" y="27.255" transform="matrix(0.7071 -0.7071 0.7071 0.7071 -16.0009 37.9671)" fill="#8E8E8E" width="71.999" height="22.086"/>
		
			<rect x="1.83" y="27.354" transform="matrix(0.7071 -0.7071 0.7071 0.7071 -16.0007 37.9672)" fill="#8F8F8F" width="72" height="21.888"/>
		
			<rect x="1.83" y="27.454" transform="matrix(0.7071 -0.7071 0.7071 0.7071 -16.0007 37.9672)" fill="#909090" width="72" height="21.689"/>
		
			<rect x="1.83" y="27.553" transform="matrix(0.7071 -0.7071 0.7071 0.7071 -16.0007 37.9672)" fill="#919191" width="72" height="21.49"/>
		
			<rect x="1.83" y="27.653" transform="matrix(0.7071 -0.7071 0.7071 0.7071 -16.0007 37.9672)" fill="#929292" width="72" height="21.291"/>
		
			<rect x="1.83" y="27.752" transform="matrix(0.7071 -0.7071 0.7071 0.7071 -16.0009 37.9671)" fill="#939393" width="71.999" height="21.093"/>
		
			<rect x="1.83" y="27.851" transform="matrix(0.7071 -0.7071 0.7071 0.7071 -16.0009 37.9671)" fill="#949494" width="71.999" height="20.894"/>
		
			<rect x="1.83" y="27.951" transform="matrix(0.7071 -0.7071 0.7071 0.7071 -16.0009 37.9671)" fill="#959595" width="71.999" height="20.695"/>
		
			<rect x="1.83" y="28.05" transform="matrix(0.7071 -0.7071 0.7071 0.7071 -16.0007 37.9672)" fill="#969696" width="72" height="20.497"/>
		
			<rect x="1.83" y="28.149" transform="matrix(0.7071 -0.7071 0.7071 0.7071 -16.0007 37.9672)" fill="#979797" width="72" height="20.298"/>
		
			<rect x="1.83" y="28.249" transform="matrix(0.7071 -0.7071 0.7071 0.7071 -16.0007 37.9672)" fill="#989898" width="72" height="20.099"/>
		
			<rect x="1.83" y="28.348" transform="matrix(0.7071 -0.7071 0.7071 0.7071 -16.0009 37.9671)" fill="#999999" width="71.999" height="19.901"/>
		
			<rect x="1.83" y="28.447" transform="matrix(0.7071 -0.7071 0.7071 0.7071 -16.0009 37.9671)" fill="#9A9A9A" width="71.999" height="19.702"/>
		
			<rect x="1.83" y="28.547" transform="matrix(0.7071 -0.7071 0.7071 0.7071 -16.0009 37.9671)" fill="#9B9B9B" width="71.999" height="19.503"/>
		
			<rect x="1.83" y="28.646" transform="matrix(0.7071 -0.7071 0.7071 0.7071 -16.0009 37.9671)" fill="#9C9C9C" width="71.999" height="19.304"/>
		
			<rect x="1.83" y="28.745" transform="matrix(0.7071 -0.7071 0.7071 0.7071 -16.0007 37.9672)" fill="#9D9D9D" width="72" height="19.106"/>
		
			<rect x="1.83" y="28.845" transform="matrix(0.7071 -0.7071 0.7071 0.7071 -16.0007 37.9672)" fill="#9E9E9E" width="72" height="18.907"/>
		
			<rect x="1.83" y="28.944" transform="matrix(0.7071 -0.7071 0.7071 0.7071 -16.0007 37.9672)" fill="#9F9F9F" width="72" height="18.708"/>
		
			<rect x="1.83" y="29.043" transform="matrix(0.7071 -0.7071 0.7071 0.7071 -16.0009 37.9671)" fill="#A0A0A0" width="71.999" height="18.51"/>
		
			<rect x="1.83" y="29.143" transform="matrix(0.7071 -0.7071 0.7071 0.7071 -16.0009 37.9671)" fill="#A1A1A1" width="71.999" height="18.311"/>
		
			<rect x="1.83" y="29.242" transform="matrix(0.7071 -0.7071 0.7071 0.7071 -16.0009 37.9671)" fill="#A2A2A2" width="71.999" height="18.112"/>
		
			<rect x="1.83" y="29.342" transform="matrix(0.7071 -0.7071 0.7071 0.7071 -16.0009 37.9671)" fill="#A3A3A3" width="71.999" height="17.913"/>
		
			<rect x="1.83" y="29.44" transform="matrix(0.7071 -0.7071 0.7071 0.7071 -16.0007 37.9672)" fill="#A4A4A4" width="72" height="17.715"/>
		
			<rect x="1.83" y="29.54" transform="matrix(0.7071 -0.7071 0.7071 0.7071 -16.0007 37.9672)" fill="#A5A5A5" width="72" height="17.516"/>
		
			<rect x="1.83" y="29.639" transform="matrix(0.7071 -0.7071 0.7071 0.7071 -16.0009 37.9671)" fill="#A6A6A6" width="71.999" height="17.318"/>
		
			<rect x="1.83" y="29.739" transform="matrix(0.7071 -0.7071 0.7071 0.7071 -16.0009 37.9671)" fill="#A7A7A7" width="71.999" height="17.119"/>
		
			<rect x="1.83" y="29.838" transform="matrix(0.7071 -0.7071 0.7071 0.7071 -16.0009 37.9671)" fill="#A8A8A8" width="71.999" height="16.92"/>
		
			<rect x="1.83" y="29.938" transform="matrix(0.7071 -0.7071 0.7071 0.7071 -16.0009 37.9671)" fill="#A9A9A9" width="71.999" height="16.722"/>
		
			<rect x="1.83" y="30.036" transform="matrix(0.7071 -0.7071 0.7071 0.7071 -16.0007 37.9672)" fill="#AAAAAA" width="72" height="16.523"/>
		
			<rect x="1.83" y="30.136" transform="matrix(0.7071 -0.7071 0.7071 0.7071 -16.0007 37.9672)" fill="#ABABAB" width="72" height="16.325"/>
		
			<rect x="1.83" y="30.235" transform="matrix(0.7071 -0.7071 0.7071 0.7071 -16.0007 37.9672)" fill="#ACACAC" width="72" height="16.126"/>
		
			<rect x="1.83" y="30.335" transform="matrix(0.7071 -0.7071 0.7071 0.7071 -16.0009 37.9671)" fill="#ADADAD" width="71.999" height="15.928"/>
		
			<rect x="1.83" y="30.434" transform="matrix(0.7071 -0.7071 0.7071 0.7071 -16.0009 37.9671)" fill="#AEAEAE" width="71.999" height="15.729"/>
		
			<rect x="1.83" y="30.533" transform="matrix(0.7071 -0.7071 0.7071 0.7071 -16.0009 37.9671)" fill="#AFAFAF" width="71.999" height="15.53"/>
		
			<rect x="1.83" y="30.633" transform="matrix(0.7071 -0.7071 0.7071 0.7071 -16.0009 37.9671)" fill="#B0B0B0" width="71.999" height="15.331"/>
		
			<rect x="1.83" y="30.732" transform="matrix(0.7071 -0.7071 0.7071 0.7071 -16.0007 37.9672)" fill="#B1B1B1" width="72" height="15.133"/>
		
			<rect x="1.83" y="30.831" transform="matrix(0.7071 -0.7071 0.7071 0.7071 -16.0007 37.9672)" fill="#B2B2B2" width="72" height="14.934"/>
		
			<rect x="1.83" y="30.931" transform="matrix(0.7071 -0.7071 0.7071 0.7071 -16.0009 37.9671)" fill="#B3B3B3" width="71.999" height="14.736"/>
		
			<rect x="1.83" y="31.03" transform="matrix(0.7071 -0.7071 0.7071 0.7071 -16.0009 37.9671)" fill="#B4B4B4" width="71.999" height="14.537"/>
		
			<rect x="1.83" y="31.129" transform="matrix(0.7071 -0.7071 0.7071 0.7071 -16.0009 37.9671)" fill="#B5B5B5" width="71.999" height="14.338"/>
		
			<rect x="1.83" y="31.229" transform="matrix(0.7071 -0.7071 0.7071 0.7071 -16.0009 37.9671)" fill="#B6B6B6" width="71.999" height="14.139"/>
		
			<rect x="1.83" y="31.328" transform="matrix(0.7071 -0.7071 0.7071 0.7071 -16.0009 37.9671)" fill="#B7B7B7" width="71.999" height="13.94"/>
		
			<rect x="1.83" y="31.427" transform="matrix(0.7071 -0.7071 0.7071 0.7071 -16.0007 37.9672)" fill="#B8B8B8" width="72" height="13.742"/>
		
			<rect x="1.83" y="31.527" transform="matrix(0.7071 -0.7071 0.7071 0.7071 -16.0007 37.9672)" fill="#B9B9B9" width="72" height="13.543"/>
		
			<rect x="1.83" y="31.626" transform="matrix(0.7071 -0.7071 0.7071 0.7071 -16.0009 37.9671)" fill="#BABABA" width="71.999" height="13.345"/>
		
			<rect x="1.83" y="31.725" transform="matrix(0.7071 -0.7071 0.7071 0.7071 -16.0009 37.9671)" fill="#BBBBBB" width="71.999" height="13.146"/>
		
			<rect x="1.83" y="31.825" transform="matrix(0.7071 -0.7071 0.7071 0.7071 -16.0009 37.9671)" fill="#BCBCBC" width="71.999" height="12.947"/>
		
			<rect x="1.83" y="31.924" transform="matrix(0.7071 -0.7071 0.7071 0.7071 -16.0009 37.9671)" fill="#BDBDBD" width="71.999" height="12.748"/>
		
			<rect x="1.83" y="32.024" transform="matrix(0.7071 -0.7071 0.7071 0.7071 -16.0009 37.9671)" fill="#BEBEBE" width="71.999" height="12.549"/>
		
			<rect x="1.83" y="32.122" transform="matrix(0.7071 -0.7071 0.7071 0.7071 -16.0007 37.9672)" fill="#BFBFBF" width="72" height="12.351"/>
		
			<rect x="1.83" y="32.222" transform="matrix(0.7071 -0.7071 0.7071 0.7071 -16.0007 37.9672)" fill="#C0C0C0" width="72" height="12.152"/>
		
			<rect x="1.83" y="32.321" transform="matrix(0.7071 -0.7071 0.7071 0.7071 -16.0009 37.9671)" fill="#C1C1C1" width="71.999" height="11.954"/>
		
			<rect x="1.83" y="32.421" transform="matrix(0.7071 -0.7071 0.7071 0.7071 -16.0009 37.9671)" fill="#C2C2C2" width="71.999" height="11.755"/>
		
			<rect x="1.83" y="32.52" transform="matrix(0.7071 -0.7071 0.7071 0.7071 -16.0009 37.9671)" fill="#C3C3C3" width="71.999" height="11.556"/>
		
			<rect x="1.83" y="32.62" transform="matrix(0.7071 -0.7071 0.7071 0.7071 -16.0009 37.9671)" fill="#C4C4C4" width="71.999" height="11.358"/>
		
			<rect x="1.83" y="32.719" transform="matrix(0.7071 -0.7071 0.7071 0.7071 -16.0009 37.9671)" fill="#C5C5C5" width="71.999" height="11.159"/>
		
			<rect x="1.83" y="32.818" transform="matrix(0.7071 -0.7071 0.7071 0.7071 -16.0007 37.9672)" fill="#C6C6C6" width="72" height="10.961"/>
		
			<rect x="1.83" y="32.917" transform="matrix(0.7071 -0.7071 0.7071 0.7071 -16.0009 37.9671)" fill="#C7C7C7" width="71.999" height="10.762"/>
		
			<rect x="1.83" y="33.017" transform="matrix(0.7071 -0.7071 0.7071 0.7071 -16.0009 37.9671)" fill="#C8C8C8" width="71.999" height="10.563"/>
		
			<rect x="1.83" y="33.116" transform="matrix(0.7071 -0.7071 0.7071 0.7071 -16.0009 37.9671)" fill="#C9C9C9" width="71.999" height="10.365"/>
		
			<rect x="1.83" y="33.215" transform="matrix(0.7071 -0.7071 0.7071 0.7071 -16.0009 37.9671)" fill="#CACACA" width="71.999" height="10.166"/>
		
			<rect x="1.83" y="33.315" transform="matrix(0.7071 -0.7071 0.7071 0.7071 -16.0009 37.9671)" fill="#CBCBCB" width="71.999" height="9.967"/>
		
			<rect x="1.83" y="33.414" transform="matrix(0.7071 -0.7071 0.7071 0.7071 -16.0009 37.9671)" fill="#CCCCCC" width="71.999" height="9.768"/>
		
			<rect x="1.83" y="33.513" transform="matrix(0.7071 -0.7071 0.7071 0.7071 -16.0007 37.9672)" fill="#CDCDCD" width="72" height="9.57"/>
		
			<rect x="1.83" y="33.613" transform="matrix(0.7071 -0.7071 0.7071 0.7071 -16.0009 37.9671)" fill="#CECECE" width="71.999" height="9.372"/>
		
			<rect x="1.83" y="33.712" transform="matrix(0.7071 -0.7071 0.7071 0.7071 -16.0009 37.9671)" fill="#CFCFCF" width="71.999" height="9.173"/>
		
			<rect x="1.83" y="33.811" transform="matrix(0.7071 -0.7071 0.7071 0.7071 -16.0009 37.9671)" fill="#D0D0D0" width="71.999" height="8.974"/>
		
			<rect x="1.83" y="33.911" transform="matrix(0.7071 -0.7071 0.7071 0.7071 -16.0009 37.9671)" fill="#D1D1D1" width="71.999" height="8.775"/>
		
			<rect x="1.83" y="34.01" transform="matrix(0.7071 -0.7071 0.7071 0.7071 -16.0009 37.9671)" fill="#D2D2D2" width="71.999" height="8.576"/>
		
			<rect x="1.83" y="34.109" transform="matrix(0.7071 -0.7071 0.7071 0.7071 -16.0007 37.9672)" fill="#D3D3D3" width="72" height="8.378"/>
		
			<rect x="1.83" y="34.208" transform="matrix(0.7071 -0.7071 0.7071 0.7071 -16.0009 37.9671)" fill="#D4D4D4" width="71.999" height="8.18"/>
		
			<rect x="1.83" y="34.308" transform="matrix(0.7071 -0.7071 0.7071 0.7071 -16.0009 37.9671)" fill="#D5D5D5" width="71.999" height="7.981"/>
		
			<rect x="1.83" y="34.407" transform="matrix(0.7071 -0.7071 0.7071 0.7071 -16.0009 37.9671)" fill="#D6D6D6" width="71.999" height="7.782"/>
		
			<rect x="1.83" y="34.507" transform="matrix(0.7071 -0.7071 0.7071 0.7071 -16.0009 37.9671)" fill="#D7D7D7" width="71.999" height="7.583"/>
		
			<rect x="1.83" y="34.606" transform="matrix(0.7071 -0.7071 0.7071 0.7071 -16.0009 37.9671)" fill="#D8D8D8" width="71.999" height="7.384"/>
		
			<rect x="1.83" y="34.706" transform="matrix(0.7071 -0.7071 0.7071 0.7071 -16.0009 37.9671)" fill="#D9D9D9" width="71.999" height="7.185"/>
		
			<rect x="1.83" y="34.805" transform="matrix(0.7071 -0.7071 0.7071 0.7071 -16.0007 37.9672)" fill="#DADADA" width="72" height="6.987"/>
		
			<rect x="1.83" y="34.904" transform="matrix(0.7071 -0.7071 0.7071 0.7071 -16.0009 37.9671)" fill="#DBDBDB" width="71.999" height="6.789"/>
		
			<rect x="1.83" y="35.003" transform="matrix(0.7071 -0.7071 0.7071 0.7071 -16.0009 37.9671)" fill="#DCDCDC" width="71.999" height="6.59"/>
		
			<rect x="1.83" y="35.103" transform="matrix(0.7071 -0.7071 0.7071 0.7071 -16.0009 37.9671)" fill="#DDDDDD" width="71.999" height="6.391"/>
		
			<rect x="1.83" y="35.202" transform="matrix(0.7071 -0.7071 0.7071 0.7071 -16.0009 37.9671)" fill="#DEDEDE" width="71.999" height="6.192"/>
		
			<rect x="1.83" y="35.302" transform="matrix(0.7071 -0.7071 0.7071 0.7071 -16.0009 37.9671)" fill="#DFDFDF" width="71.999" height="5.993"/>
		
			<rect x="1.83" y="35.401" transform="matrix(0.7071 -0.7071 0.7071 0.7071 -16.0009 37.9671)" fill="#E0E0E0" width="71.999" height="5.795"/>
		
			<rect x="1.83" y="35.5" transform="matrix(0.7071 -0.7071 0.7071 0.7071 -16.0009 37.9671)" fill="#E1E1E1" width="71.999" height="5.597"/>
		
			<rect x="1.83" y="35.599" transform="matrix(0.7071 -0.7071 0.7071 0.7071 -16.0009 37.9671)" fill="#E2E2E2" width="71.999" height="5.398"/>
		
			<rect x="1.83" y="35.699" transform="matrix(0.7071 -0.7071 0.7071 0.7071 -16.0009 37.9671)" fill="#E3E3E3" width="71.999" height="5.199"/>
		
			<rect x="1.83" y="35.798" transform="matrix(0.7071 -0.7071 0.7071 0.7071 -16.0009 37.9671)" fill="#E4E4E4" width="71.999" height="5.001"/>
	</g>
</g>
</svg>
