<?xml version="1.0" encoding="utf-8"?>
<!-- Generator: Adobe Illustrator 15.0.0, SVG Export Plug-In  -->
<!DOCTYPE svg PUBLIC "-//W3C//DTD SVG 1.1//EN" "http://www.w3.org/Graphics/SVG/1.1/DTD/svg11.dtd" [
	<!ENTITY ns_flows "http://ns.adobe.com/Flows/1.0/">
]>
<svg version="1.1"
	 xmlns="http://www.w3.org/2000/svg" xmlns:xlink="http://www.w3.org/1999/xlink" xmlns:a="http://ns.adobe.com/AdobeSVGViewerExtensions/3.0/"
	 x="0px" y="0px" width="65px" height="76px" viewBox="-0.33 4.503 65 76" enable-background="new -0.33 4.503 65 76"
	 xml:space="preserve">
<defs>
</defs>
<g>
	<defs>
		<polygon id="SVGID_1_" points="62.149,16.197 64.358,7.952 34.486,0 26.547,29.971 0,56.519 24.749,81.268 44.318,61.698 
			49.678,63.082 52.163,53.637 		"/>
	</defs>
	<clipPath id="SVGID_2_">
		<use xlink:href="#SVGID_1_"  overflow="visible"/>
	</clipPath>
	<g clip-path="url(#SVGID_2_)">
		
			<rect x="2.011" y="25.47" transform="matrix(-0.7071 0.7071 -0.7071 -0.7071 95.272 46.4757)" fill="#4D4D4D" width="72" height="34.999"/>
		
			<rect x="2.011" y="25.47" transform="matrix(-0.7071 0.7071 -0.7071 -0.7071 95.272 46.4757)" fill="#4D4D4D" width="72" height="34.999"/>
		
			<rect x="2.011" y="25.47" transform="matrix(-0.7071 0.7071 -0.7071 -0.7071 95.272 46.4757)" fill="#4D4D4D" width="72" height="34.999"/>
		
			<rect x="2.011" y="25.569" transform="matrix(-0.7071 0.7071 -0.7071 -0.7071 95.272 46.4757)" fill="#4E4E4E" width="72" height="34.8"/>
		
			<rect x="2.011" y="25.669" transform="matrix(-0.7071 0.7071 -0.7071 -0.7071 95.272 46.4757)" fill="#4F4F4F" width="72" height="34.602"/>
		
			<rect x="2.011" y="25.768" transform="matrix(-0.7071 0.7071 -0.7071 -0.7071 95.272 46.4757)" fill="#505050" width="72" height="34.403"/>
		
			<rect x="2.011" y="25.867" transform="matrix(-0.7071 0.7071 -0.7071 -0.7071 95.272 46.4757)" fill="#515151" width="72" height="34.205"/>
		
			<rect x="2.011" y="25.966" transform="matrix(-0.7071 0.7071 -0.7071 -0.7071 95.272 46.4757)" fill="#525252" width="72" height="34.006"/>
		
			<rect x="2.011" y="26.066" transform="matrix(-0.7071 0.7071 -0.7071 -0.7071 95.272 46.4757)" fill="#535353" width="72" height="33.808"/>
		
			<rect x="2.011" y="26.165" transform="matrix(-0.7071 0.7071 -0.7071 -0.7071 95.272 46.4757)" fill="#545454" width="72" height="33.609"/>
		
			<rect x="2.011" y="26.265" transform="matrix(-0.7071 0.7071 -0.7071 -0.7071 95.272 46.4757)" fill="#555555" width="72" height="33.41"/>
		
			<rect x="2.011" y="26.364" transform="matrix(-0.7071 0.7071 -0.7071 -0.7071 95.272 46.4757)" fill="#565656" width="72" height="33.211"/>
		
			<rect x="2.011" y="26.463" transform="matrix(-0.7071 0.7071 -0.7071 -0.7071 95.272 46.4757)" fill="#575757" width="72" height="33.012"/>
		
			<rect x="2.011" y="26.562" transform="matrix(-0.7071 0.7071 -0.7071 -0.7071 95.272 46.4757)" fill="#585858" width="72" height="32.815"/>
		
			<rect x="2.011" y="26.662" transform="matrix(-0.7071 0.7071 -0.7071 -0.7071 95.272 46.4757)" fill="#595959" width="72" height="32.616"/>
		
			<rect x="2.011" y="26.761" transform="matrix(-0.7071 0.7071 -0.7071 -0.7071 95.272 46.4757)" fill="#5A5A5A" width="72" height="32.417"/>
		
			<rect x="2.011" y="26.861" transform="matrix(-0.7071 0.7071 -0.7071 -0.7071 95.272 46.4757)" fill="#5B5B5B" width="72" height="32.218"/>
		
			<rect x="2.011" y="26.96" transform="matrix(-0.7071 0.7071 -0.7071 -0.7071 95.272 46.4757)" fill="#5C5C5C" width="72" height="32.019"/>
		
			<rect x="2.011" y="27.059" transform="matrix(-0.7071 0.7071 -0.7071 -0.7071 95.272 46.4757)" fill="#5D5D5D" width="72" height="31.82"/>
		
			<rect x="2.011" y="27.158" transform="matrix(-0.7071 0.7071 -0.7071 -0.7071 95.2718 46.4756)" fill="#5E5E5E" width="71.999" height="31.622"/>
		
			<rect x="2.011" y="27.258" transform="matrix(-0.7071 0.7071 -0.7071 -0.7071 95.272 46.4757)" fill="#5F5F5F" width="72" height="31.424"/>
		
			<rect x="2.011" y="27.357" transform="matrix(-0.7071 0.7071 -0.7071 -0.7071 95.272 46.4757)" fill="#606060" width="72" height="31.225"/>
		
			<rect x="2.011" y="27.456" transform="matrix(-0.7071 0.7071 -0.7071 -0.7071 95.272 46.4757)" fill="#616161" width="72" height="31.026"/>
		
			<rect x="2.011" y="27.556" transform="matrix(-0.7071 0.7071 -0.7071 -0.7071 95.272 46.4757)" fill="#626262" width="72" height="30.827"/>
		
			<rect x="2.011" y="27.655" transform="matrix(-0.7071 0.7071 -0.7071 -0.7071 95.272 46.4757)" fill="#636363" width="72" height="30.628"/>
		
			<rect x="2.011" y="27.755" transform="matrix(-0.7071 0.7071 -0.7071 -0.7071 95.272 46.4757)" fill="#646464" width="72" height="30.429"/>
		
			<rect x="2.011" y="27.854" transform="matrix(-0.7071 0.7071 -0.7071 -0.7071 95.2718 46.4756)" fill="#656565" width="71.999" height="30.231"/>
		
			<rect x="2.011" y="27.953" transform="matrix(-0.7071 0.7071 -0.7071 -0.7071 95.272 46.4757)" fill="#666666" width="72" height="30.033"/>
		
			<rect x="2.011" y="28.052" transform="matrix(-0.7071 0.7071 -0.7071 -0.7071 95.272 46.4757)" fill="#676767" width="72" height="29.834"/>
		
			<rect x="2.011" y="28.152" transform="matrix(-0.7071 0.7071 -0.7071 -0.7071 95.272 46.4757)" fill="#686868" width="72" height="29.635"/>
		
			<rect x="2.011" y="28.251" transform="matrix(-0.7071 0.7071 -0.7071 -0.7071 95.272 46.4757)" fill="#696969" width="72" height="29.436"/>
		
			<rect x="2.011" y="28.351" transform="matrix(-0.7071 0.7071 -0.7071 -0.7071 95.272 46.4757)" fill="#6A6A6A" width="72" height="29.238"/>
		
			<rect x="2.011" y="28.45" transform="matrix(-0.7071 0.7071 -0.7071 -0.7071 95.2718 46.4756)" fill="#6B6B6B" width="71.999" height="29.039"/>
		
			<rect x="2.011" y="28.549" transform="matrix(-0.7071 0.7071 -0.7071 -0.7071 95.2718 46.4756)" fill="#6C6C6C" width="71.999" height="28.84"/>
		
			<rect x="2.011" y="28.648" transform="matrix(-0.7071 0.7071 -0.7071 -0.7071 95.272 46.4757)" fill="#6D6D6D" width="72" height="28.642"/>
		
			<rect x="2.011" y="28.748" transform="matrix(-0.7071 0.7071 -0.7071 -0.7071 95.272 46.4757)" fill="#6E6E6E" width="72" height="28.443"/>
		
			<rect x="2.011" y="28.847" transform="matrix(-0.7071 0.7071 -0.7071 -0.7071 95.272 46.4757)" fill="#6F6F6F" width="72" height="28.245"/>
		
			<rect x="2.011" y="28.947" transform="matrix(-0.7071 0.7071 -0.7071 -0.7071 95.272 46.4757)" fill="#707070" width="72" height="28.046"/>
		
			<rect x="2.011" y="29.046" transform="matrix(-0.7071 0.7071 -0.7071 -0.7071 95.272 46.4757)" fill="#717171" width="72" height="27.847"/>
		
			<rect x="2.011" y="29.145" transform="matrix(-0.7071 0.7071 -0.7071 -0.7071 95.2718 46.4756)" fill="#727272" width="71.999" height="27.649"/>
		
			<rect x="2.011" y="29.244" transform="matrix(-0.7071 0.7071 -0.7071 -0.7071 95.272 46.4757)" fill="#737373" width="72" height="27.45"/>
		
			<rect x="2.011" y="29.344" transform="matrix(-0.7071 0.7071 -0.7071 -0.7071 95.272 46.4757)" fill="#747474" width="72" height="27.252"/>
		
			<rect x="2.011" y="29.443" transform="matrix(-0.7071 0.7071 -0.7071 -0.7071 95.272 46.4757)" fill="#757575" width="72" height="27.053"/>
		
			<rect x="2.011" y="29.543" transform="matrix(-0.7071 0.7071 -0.7071 -0.7071 95.272 46.4757)" fill="#767676" width="72" height="26.854"/>
		
			<rect x="2.011" y="29.642" transform="matrix(-0.7071 0.7071 -0.7071 -0.7071 95.272 46.4757)" fill="#777777" width="72" height="26.655"/>
		
			<rect x="2.011" y="29.741" transform="matrix(-0.7071 0.7071 -0.7071 -0.7071 95.2718 46.4756)" fill="#787878" width="71.999" height="26.457"/>
		
			<rect x="2.011" y="29.84" transform="matrix(-0.7071 0.7071 -0.7071 -0.7071 95.2718 46.4756)" fill="#797979" width="71.999" height="26.258"/>
		
			<rect x="2.011" y="29.94" transform="matrix(-0.7071 0.7071 -0.7071 -0.7071 95.272 46.4757)" fill="#7A7A7A" width="72" height="26.06"/>
		
			<rect x="2.011" y="30.039" transform="matrix(-0.7071 0.7071 -0.7071 -0.7071 95.272 46.4757)" fill="#7B7B7B" width="72" height="25.861"/>
		
			<rect x="2.011" y="30.138" transform="matrix(-0.7071 0.7071 -0.7071 -0.7071 95.272 46.4757)" fill="#7C7C7C" width="72" height="25.662"/>
		
			<rect x="2.011" y="30.238" transform="matrix(-0.7071 0.7071 -0.7071 -0.7071 95.272 46.4757)" fill="#7D7D7D" width="72" height="25.463"/>
		
			<rect x="2.011" y="30.337" transform="matrix(-0.7071 0.7071 -0.7071 -0.7071 95.272 46.4757)" fill="#7E7E7E" width="72" height="25.264"/>
		
			<rect x="2.011" y="30.436" transform="matrix(-0.7071 0.7071 -0.7071 -0.7071 95.2718 46.4756)" fill="#7F7F7F" width="71.999" height="25.066"/>
		
			<rect x="2.011" y="30.536" transform="matrix(-0.7071 0.7071 -0.7071 -0.7071 95.2718 46.4756)" fill="#808080" width="71.999" height="24.867"/>
		
			<rect x="2.011" y="30.635" transform="matrix(-0.7071 0.7071 -0.7071 -0.7071 95.272 46.4757)" fill="#818181" width="72" height="24.669"/>
		
			<rect x="2.011" y="30.734" transform="matrix(-0.7071 0.7071 -0.7071 -0.7071 95.272 46.4757)" fill="#828282" width="72" height="24.47"/>
		
			<rect x="2.011" y="30.834" transform="matrix(-0.7071 0.7071 -0.7071 -0.7071 95.272 46.4757)" fill="#838383" width="72" height="24.271"/>
		
			<rect x="2.011" y="30.933" transform="matrix(-0.7071 0.7071 -0.7071 -0.7071 95.272 46.4757)" fill="#848484" width="72" height="24.072"/>
		
			<rect x="2.011" y="31.033" transform="matrix(-0.7071 0.7071 -0.7071 -0.7071 95.272 46.4757)" fill="#858585" width="72" height="23.873"/>
		
			<rect x="2.011" y="31.132" transform="matrix(-0.7071 0.7071 -0.7071 -0.7071 95.2718 46.4756)" fill="#868686" width="71.999" height="23.675"/>
		
			<rect x="2.011" y="31.231" transform="matrix(-0.7071 0.7071 -0.7071 -0.7071 95.2718 46.4756)" fill="#878787" width="71.999" height="23.476"/>
		
			<rect x="2.011" y="31.33" transform="matrix(-0.7071 0.7071 -0.7071 -0.7071 95.272 46.4757)" fill="#888888" width="72" height="23.278"/>
		
			<rect x="2.011" y="31.43" transform="matrix(-0.7071 0.7071 -0.7071 -0.7071 95.272 46.4757)" fill="#898989" width="72" height="23.079"/>
		
			<rect x="2.011" y="31.529" transform="matrix(-0.7071 0.7071 -0.7071 -0.7071 95.272 46.4757)" fill="#8A8A8A" width="72" height="22.88"/>
		
			<rect x="2.011" y="31.629" transform="matrix(-0.7071 0.7071 -0.7071 -0.7071 95.272 46.4757)" fill="#8B8B8B" width="72" height="22.682"/>
		
			<rect x="2.011" y="31.728" transform="matrix(-0.7071 0.7071 -0.7071 -0.7071 95.2718 46.4756)" fill="#8C8C8C" width="71.999" height="22.483"/>
		
			<rect x="2.011" y="31.827" transform="matrix(-0.7071 0.7071 -0.7071 -0.7071 95.2718 46.4756)" fill="#8D8D8D" width="71.999" height="22.285"/>
		
			<rect x="2.011" y="31.926" transform="matrix(-0.7071 0.7071 -0.7071 -0.7071 95.2718 46.4756)" fill="#8E8E8E" width="71.999" height="22.086"/>
		
			<rect x="2.011" y="32.026" transform="matrix(-0.7071 0.7071 -0.7071 -0.7071 95.272 46.4757)" fill="#8F8F8F" width="72" height="21.888"/>
		
			<rect x="2.011" y="32.125" transform="matrix(-0.7071 0.7071 -0.7071 -0.7071 95.272 46.4757)" fill="#909090" width="72" height="21.689"/>
		
			<rect x="2.011" y="32.225" transform="matrix(-0.7071 0.7071 -0.7071 -0.7071 95.272 46.4757)" fill="#919191" width="72" height="21.49"/>
		
			<rect x="2.011" y="32.324" transform="matrix(-0.7071 0.7071 -0.7071 -0.7071 95.272 46.4757)" fill="#929292" width="72" height="21.291"/>
		
			<rect x="2.011" y="32.423" transform="matrix(-0.7071 0.7071 -0.7071 -0.7071 95.2718 46.4756)" fill="#939393" width="71.999" height="21.093"/>
		
			<rect x="2.011" y="32.522" transform="matrix(-0.7071 0.7071 -0.7071 -0.7071 95.2718 46.4756)" fill="#949494" width="71.999" height="20.894"/>
		
			<rect x="2.011" y="32.622" transform="matrix(-0.7071 0.7071 -0.7071 -0.7071 95.2718 46.4756)" fill="#959595" width="71.999" height="20.695"/>
		
			<rect x="2.011" y="32.721" transform="matrix(-0.7071 0.7071 -0.7071 -0.7071 95.272 46.4757)" fill="#969696" width="72" height="20.497"/>
		
			<rect x="2.011" y="32.821" transform="matrix(-0.7071 0.7071 -0.7071 -0.7071 95.272 46.4757)" fill="#979797" width="72" height="20.298"/>
		
			<rect x="2.011" y="32.92" transform="matrix(-0.7071 0.7071 -0.7071 -0.7071 95.272 46.4757)" fill="#989898" width="72" height="20.099"/>
		
			<rect x="2.011" y="33.019" transform="matrix(-0.7071 0.7071 -0.7071 -0.7071 95.2718 46.4756)" fill="#999999" width="71.999" height="19.901"/>
		
			<rect x="2.011" y="33.118" transform="matrix(-0.7071 0.7071 -0.7071 -0.7071 95.2718 46.4756)" fill="#9A9A9A" width="71.999" height="19.702"/>
		
			<rect x="2.011" y="33.218" transform="matrix(-0.7071 0.7071 -0.7071 -0.7071 95.2718 46.4756)" fill="#9B9B9B" width="71.999" height="19.503"/>
		
			<rect x="2.011" y="33.317" transform="matrix(-0.7071 0.7071 -0.7071 -0.7071 95.2718 46.4756)" fill="#9C9C9C" width="71.999" height="19.304"/>
		
			<rect x="2.011" y="33.416" transform="matrix(-0.7071 0.7071 -0.7071 -0.7071 95.272 46.4757)" fill="#9D9D9D" width="72" height="19.106"/>
		
			<rect x="2.011" y="33.516" transform="matrix(-0.7071 0.7071 -0.7071 -0.7071 95.272 46.4757)" fill="#9E9E9E" width="72" height="18.907"/>
		
			<rect x="2.011" y="33.615" transform="matrix(-0.7071 0.7071 -0.7071 -0.7071 95.272 46.4757)" fill="#9F9F9F" width="72" height="18.708"/>
		
			<rect x="2.011" y="33.714" transform="matrix(-0.7071 0.7071 -0.7071 -0.7071 95.2718 46.4756)" fill="#A0A0A0" width="71.999" height="18.51"/>
		
			<rect x="2.011" y="33.814" transform="matrix(-0.7071 0.7071 -0.7071 -0.7071 95.2718 46.4756)" fill="#A1A1A1" width="71.999" height="18.311"/>
		
			<rect x="2.011" y="33.913" transform="matrix(-0.7071 0.7071 -0.7071 -0.7071 95.2718 46.4756)" fill="#A2A2A2" width="71.999" height="18.112"/>
		
			<rect x="2.011" y="34.012" transform="matrix(-0.7071 0.7071 -0.7071 -0.7071 95.2718 46.4756)" fill="#A3A3A3" width="71.999" height="17.913"/>
		
			<rect x="2.011" y="34.112" transform="matrix(-0.7071 0.7071 -0.7071 -0.7071 95.272 46.4757)" fill="#A4A4A4" width="72" height="17.715"/>
		
			<rect x="2.011" y="34.211" transform="matrix(-0.7071 0.7071 -0.7071 -0.7071 95.272 46.4757)" fill="#A5A5A5" width="72" height="17.516"/>
		
			<rect x="2.011" y="34.31" transform="matrix(-0.7071 0.7071 -0.7071 -0.7071 95.2718 46.4756)" fill="#A6A6A6" width="71.999" height="17.318"/>
		
			<rect x="2.011" y="34.41" transform="matrix(-0.7071 0.7071 -0.7071 -0.7071 95.2718 46.4756)" fill="#A7A7A7" width="71.999" height="17.119"/>
		
			<rect x="2.011" y="34.509" transform="matrix(-0.7071 0.7071 -0.7071 -0.7071 95.2718 46.4756)" fill="#A8A8A8" width="71.999" height="16.92"/>
		
			<rect x="2.011" y="34.608" transform="matrix(-0.7071 0.7071 -0.7071 -0.7071 95.2718 46.4756)" fill="#A9A9A9" width="71.999" height="16.722"/>
		
			<rect x="2.011" y="34.708" transform="matrix(-0.7071 0.7071 -0.7071 -0.7071 95.272 46.4757)" fill="#AAAAAA" width="72" height="16.523"/>
		
			<rect x="2.011" y="34.807" transform="matrix(-0.7071 0.7071 -0.7071 -0.7071 95.272 46.4757)" fill="#ABABAB" width="72" height="16.325"/>
		
			<rect x="2.011" y="34.907" transform="matrix(-0.7071 0.7071 -0.7071 -0.7071 95.272 46.4757)" fill="#ACACAC" width="72" height="16.126"/>
		
			<rect x="2.011" y="35.005" transform="matrix(-0.7071 0.7071 -0.7071 -0.7071 95.2718 46.4756)" fill="#ADADAD" width="71.999" height="15.928"/>
		
			<rect x="2.011" y="35.105" transform="matrix(-0.7071 0.7071 -0.7071 -0.7071 95.2718 46.4756)" fill="#AEAEAE" width="71.999" height="15.729"/>
		
			<rect x="2.011" y="35.204" transform="matrix(-0.7071 0.7071 -0.7071 -0.7071 95.2718 46.4756)" fill="#AFAFAF" width="71.999" height="15.53"/>
		
			<rect x="2.011" y="35.304" transform="matrix(-0.7071 0.7071 -0.7071 -0.7071 95.2718 46.4756)" fill="#B0B0B0" width="71.999" height="15.331"/>
		
			<rect x="2.011" y="35.403" transform="matrix(-0.7071 0.7071 -0.7071 -0.7071 95.272 46.4757)" fill="#B1B1B1" width="72" height="15.133"/>
		
			<rect x="2.011" y="35.503" transform="matrix(-0.7071 0.7071 -0.7071 -0.7071 95.272 46.4757)" fill="#B2B2B2" width="72" height="14.934"/>
		
			<rect x="2.011" y="35.601" transform="matrix(-0.7071 0.7071 -0.7071 -0.7071 95.2718 46.4756)" fill="#B3B3B3" width="71.999" height="14.736"/>
		
			<rect x="2.011" y="35.701" transform="matrix(-0.7071 0.7071 -0.7071 -0.7071 95.2718 46.4756)" fill="#B4B4B4" width="71.999" height="14.537"/>
		
			<rect x="2.011" y="35.8" transform="matrix(-0.7071 0.7071 -0.7071 -0.7071 95.2718 46.4756)" fill="#B5B5B5" width="71.999" height="14.338"/>
		
			<rect x="2.011" y="35.9" transform="matrix(-0.7071 0.7071 -0.7071 -0.7071 95.2718 46.4756)" fill="#B6B6B6" width="71.999" height="14.139"/>
		
			<rect x="2.011" y="35.999" transform="matrix(-0.7071 0.7071 -0.7071 -0.7071 95.2718 46.4756)" fill="#B7B7B7" width="71.999" height="13.94"/>
		
			<rect x="2.011" y="36.098" transform="matrix(-0.7071 0.7071 -0.7071 -0.7071 95.272 46.4757)" fill="#B8B8B8" width="72" height="13.742"/>
		
			<rect x="2.011" y="36.198" transform="matrix(-0.7071 0.7071 -0.7071 -0.7071 95.272 46.4757)" fill="#B9B9B9" width="72" height="13.543"/>
		
			<rect x="2.011" y="36.297" transform="matrix(-0.7071 0.7071 -0.7071 -0.7071 95.2718 46.4756)" fill="#BABABA" width="71.999" height="13.345"/>
		
			<rect x="2.011" y="36.396" transform="matrix(-0.7071 0.7071 -0.7071 -0.7071 95.2718 46.4756)" fill="#BBBBBB" width="71.999" height="13.146"/>
		
			<rect x="2.011" y="36.496" transform="matrix(-0.7071 0.7071 -0.7071 -0.7071 95.2718 46.4756)" fill="#BCBCBC" width="71.999" height="12.947"/>
		
			<rect x="2.011" y="36.595" transform="matrix(-0.7071 0.7071 -0.7071 -0.7071 95.2718 46.4756)" fill="#BDBDBD" width="71.999" height="12.748"/>
		
			<rect x="2.011" y="36.695" transform="matrix(-0.7071 0.7071 -0.7071 -0.7071 95.2718 46.4756)" fill="#BEBEBE" width="71.999" height="12.549"/>
		
			<rect x="2.011" y="36.794" transform="matrix(-0.7071 0.7071 -0.7071 -0.7071 95.272 46.4757)" fill="#BFBFBF" width="72" height="12.351"/>
		
			<rect x="2.011" y="36.893" transform="matrix(-0.7071 0.7071 -0.7071 -0.7071 95.272 46.4757)" fill="#C0C0C0" width="72" height="12.152"/>
		
			<rect x="2.011" y="36.992" transform="matrix(-0.7071 0.7071 -0.7071 -0.7071 95.2718 46.4756)" fill="#C1C1C1" width="71.999" height="11.954"/>
		
			<rect x="2.011" y="37.092" transform="matrix(-0.7071 0.7071 -0.7071 -0.7071 95.2718 46.4756)" fill="#C2C2C2" width="71.999" height="11.755"/>
		
			<rect x="2.011" y="37.191" transform="matrix(-0.7071 0.7071 -0.7071 -0.7071 95.2718 46.4756)" fill="#C3C3C3" width="71.999" height="11.556"/>
		
			<rect x="2.011" y="37.29" transform="matrix(-0.7071 0.7071 -0.7071 -0.7071 95.2718 46.4756)" fill="#C4C4C4" width="71.999" height="11.358"/>
		
			<rect x="2.011" y="37.39" transform="matrix(-0.7071 0.7071 -0.7071 -0.7071 95.2718 46.4756)" fill="#C5C5C5" width="71.999" height="11.159"/>
		
			<rect x="2.011" y="37.489" transform="matrix(-0.7071 0.7071 -0.7071 -0.7071 95.272 46.4757)" fill="#C6C6C6" width="72" height="10.961"/>
		
			<rect x="2.011" y="37.588" transform="matrix(-0.7071 0.7071 -0.7071 -0.7071 95.2718 46.4756)" fill="#C7C7C7" width="71.999" height="10.762"/>
		
			<rect x="2.011" y="37.688" transform="matrix(-0.7071 0.7071 -0.7071 -0.7071 95.2718 46.4756)" fill="#C8C8C8" width="71.999" height="10.563"/>
		
			<rect x="2.011" y="37.787" transform="matrix(-0.7071 0.7071 -0.7071 -0.7071 95.2718 46.4756)" fill="#C9C9C9" width="71.999" height="10.365"/>
		
			<rect x="2.011" y="37.886" transform="matrix(-0.7071 0.7071 -0.7071 -0.7071 95.2718 46.4756)" fill="#CACACA" width="71.999" height="10.166"/>
		
			<rect x="2.011" y="37.986" transform="matrix(-0.7071 0.7071 -0.7071 -0.7071 95.2718 46.4756)" fill="#CBCBCB" width="71.999" height="9.967"/>
		
			<rect x="2.011" y="38.085" transform="matrix(-0.7071 0.7071 -0.7071 -0.7071 95.2718 46.4756)" fill="#CCCCCC" width="71.999" height="9.768"/>
		
			<rect x="2.011" y="38.185" transform="matrix(-0.7071 0.7071 -0.7071 -0.7071 95.272 46.4757)" fill="#CDCDCD" width="72" height="9.57"/>
		
			<rect x="2.011" y="38.283" transform="matrix(-0.7071 0.7071 -0.7071 -0.7071 95.2718 46.4756)" fill="#CECECE" width="71.999" height="9.372"/>
		
			<rect x="2.011" y="38.383" transform="matrix(-0.7071 0.7071 -0.7071 -0.7071 95.2718 46.4756)" fill="#CFCFCF" width="71.999" height="9.173"/>
		
			<rect x="2.011" y="38.482" transform="matrix(-0.7071 0.7071 -0.7071 -0.7071 95.2718 46.4756)" fill="#D0D0D0" width="71.999" height="8.974"/>
		
			<rect x="2.011" y="38.582" transform="matrix(-0.7071 0.7071 -0.7071 -0.7071 95.2718 46.4756)" fill="#D1D1D1" width="71.999" height="8.775"/>
		
			<rect x="2.011" y="38.681" transform="matrix(-0.7071 0.7071 -0.7071 -0.7071 95.2718 46.4756)" fill="#D2D2D2" width="71.999" height="8.576"/>
		
			<rect x="2.011" y="38.781" transform="matrix(-0.7071 0.7071 -0.7071 -0.7071 95.272 46.4757)" fill="#D3D3D3" width="72" height="8.378"/>
		
			<rect x="2.011" y="38.879" transform="matrix(-0.7071 0.7071 -0.7071 -0.7071 95.2718 46.4756)" fill="#D4D4D4" width="71.999" height="8.18"/>
		
			<rect x="2.011" y="38.979" transform="matrix(-0.7071 0.7071 -0.7071 -0.7071 95.2718 46.4756)" fill="#D5D5D5" width="71.999" height="7.981"/>
		
			<rect x="2.011" y="39.078" transform="matrix(-0.7071 0.7071 -0.7071 -0.7071 95.2718 46.4756)" fill="#D6D6D6" width="71.999" height="7.782"/>
		
			<rect x="2.011" y="39.178" transform="matrix(-0.7071 0.7071 -0.7071 -0.7071 95.2718 46.4756)" fill="#D7D7D7" width="71.999" height="7.583"/>
		
			<rect x="2.011" y="39.277" transform="matrix(-0.7071 0.7071 -0.7071 -0.7071 95.2718 46.4756)" fill="#D8D8D8" width="71.999" height="7.384"/>
		
			<rect x="2.011" y="39.377" transform="matrix(-0.7071 0.7071 -0.7071 -0.7071 95.2718 46.4756)" fill="#D9D9D9" width="71.999" height="7.185"/>
		
			<rect x="2.011" y="39.476" transform="matrix(-0.7071 0.7071 -0.7071 -0.7071 95.272 46.4757)" fill="#DADADA" width="72" height="6.987"/>
		
			<rect x="2.011" y="39.575" transform="matrix(-0.7071 0.7071 -0.7071 -0.7071 95.2718 46.4756)" fill="#DBDBDB" width="71.999" height="6.789"/>
		
			<rect x="2.011" y="39.674" transform="matrix(-0.7071 0.7071 -0.7071 -0.7071 95.2718 46.4756)" fill="#DCDCDC" width="71.999" height="6.59"/>
		
			<rect x="2.011" y="39.774" transform="matrix(-0.7071 0.7071 -0.7071 -0.7071 95.2718 46.4756)" fill="#DDDDDD" width="71.999" height="6.391"/>
		
			<rect x="2.011" y="39.873" transform="matrix(-0.7071 0.7071 -0.7071 -0.7071 95.2718 46.4756)" fill="#DEDEDE" width="71.999" height="6.192"/>
		
			<rect x="2.011" y="39.972" transform="matrix(-0.7071 0.7071 -0.7071 -0.7071 95.2718 46.4756)" fill="#DFDFDF" width="71.999" height="5.993"/>
		
			<rect x="2.011" y="40.072" transform="matrix(-0.7071 0.7071 -0.7071 -0.7071 95.2718 46.4756)" fill="#E0E0E0" width="71.999" height="5.795"/>
		
			<rect x="2.011" y="40.171" transform="matrix(-0.7071 0.7071 -0.7071 -0.7071 95.2718 46.4756)" fill="#E1E1E1" width="71.999" height="5.597"/>
		
			<rect x="2.011" y="40.27" transform="matrix(-0.7071 0.7071 -0.7071 -0.7071 95.2718 46.4756)" fill="#E2E2E2" width="71.999" height="5.398"/>
		
			<rect x="2.011" y="40.37" transform="matrix(-0.7071 0.7071 -0.7071 -0.7071 95.2718 46.4756)" fill="#E3E3E3" width="71.999" height="5.199"/>
		
			<rect x="2.011" y="40.469" transform="matrix(-0.7071 0.7071 -0.7071 -0.7071 95.2718 46.4756)" fill="#E4E4E4" width="71.999" height="5.001"/>
	</g>
</g>
</svg>
