<?xml version="1.0" encoding="utf-8"?>
<!-- Generator: Adobe Illustrator 15.0.0, SVG Export Plug-In  -->
<!DOCTYPE svg PUBLIC "-//W3C//DTD SVG 1.1//EN" "http://www.w3.org/Graphics/SVG/1.1/DTD/svg11.dtd" [
	<!ENTITY ns_flows "http://ns.adobe.com/Flows/1.0/">
]>
<svg version="1.1"
	 xmlns="http://www.w3.org/2000/svg" xmlns:xlink="http://www.w3.org/1999/xlink" xmlns:a="http://ns.adobe.com/AdobeSVGViewerExtensions/3.0/"
	 x="0px" y="0px" width="442px" height="185px" viewBox="-1.501 -3 442 185" enable-background="new -1.501 -3 442 185"
	 xml:space="preserve">
<defs>
</defs>
<g>
	<rect x="0.499" y="79" fill="#4D4D4D" width="100" height="35"/>
	<rect x="0.499" y="79" fill="#4E4E4E" width="100" height="34"/>
	<rect x="0.499" y="79" fill="#4F4F4F" width="100" height="34"/>
	<rect x="0.499" y="79" fill="#505050" width="100" height="34"/>
	<rect x="0.499" y="79" fill="#515151" width="100" height="34"/>
	<rect x="0.499" y="79" fill="#525252" width="100" height="34"/>
	<rect x="0.499" y="79" fill="#535353" width="100" height="34"/>
	<rect x="0.499" y="79" fill="#545454" width="100" height="34"/>
	<rect x="0.499" y="79" fill="#555555" width="100" height="34"/>
	<rect x="0.499" y="79" fill="#565656" width="100" height="34"/>
	<rect x="0.499" y="79" fill="#575757" width="100" height="34"/>
	<rect x="0.499" y="80" fill="#585858" width="100" height="32"/>
	<rect x="0.499" y="80" fill="#595959" width="100" height="32"/>
	<rect x="0.499" y="80" fill="#5A5A5A" width="100" height="32"/>
	<rect x="0.499" y="80" fill="#5B5B5B" width="100" height="32"/>
	<rect x="0.499" y="80" fill="#5C5C5C" width="100" height="32"/>
	<rect x="0.499" y="80" fill="#5D5D5D" width="100" height="32"/>
	<rect x="0.499" y="80" fill="#5E5E5E" width="100" height="32"/>
	<rect x="0.499" y="80" fill="#5F5F5F" width="100" height="32"/>
	<rect x="0.499" y="80" fill="#606060" width="100" height="32"/>
	<rect x="0.499" y="80" fill="#616161" width="100" height="32"/>
	<rect x="0.499" y="81" fill="#626262" width="100" height="30"/>
	<rect x="0.499" y="81" fill="#636363" width="100" height="30"/>
	<rect x="0.499" y="81" fill="#646464" width="100" height="30"/>
	<rect x="0.499" y="81" fill="#656565" width="100" height="30"/>
	<rect x="0.499" y="81" fill="#666666" width="100" height="30"/>
	<rect x="0.499" y="81" fill="#676767" width="100" height="30"/>
	<rect x="0.499" y="81" fill="#686868" width="100" height="30"/>
	<rect x="0.499" y="81" fill="#696969" width="100" height="30"/>
	<rect x="0.499" y="81" fill="#6A6A6A" width="100" height="30"/>
	<rect x="0.499" y="81" fill="#6B6B6B" width="100" height="30"/>
	<rect x="0.499" y="82" fill="#6C6C6C" width="100" height="28"/>
	<rect x="0.499" y="82" fill="#6D6D6D" width="100" height="28"/>
	<rect x="0.499" y="82" fill="#6E6E6E" width="100" height="28"/>
	<rect x="0.499" y="82" fill="#6F6F6F" width="100" height="28"/>
	<rect x="0.499" y="82" fill="#707070" width="100" height="28"/>
	<rect x="0.499" y="82" fill="#717171" width="100" height="28"/>
	<rect x="0.499" y="82" fill="#727272" width="100" height="28"/>
	<rect x="0.499" y="82" fill="#737373" width="100" height="28"/>
	<rect x="0.499" y="82" fill="#747474" width="100" height="28"/>
	<rect x="0.499" y="82" fill="#757575" width="100" height="28"/>
	<rect x="0.499" y="83" fill="#767676" width="100" height="26"/>
	<rect x="0.499" y="83" fill="#777777" width="100" height="26"/>
	<rect x="0.499" y="83" fill="#787878" width="100" height="26"/>
	<rect x="0.499" y="83" fill="#797979" width="100" height="26"/>
	<rect x="0.499" y="83" fill="#7A7A7A" width="100" height="26"/>
	<rect x="0.499" y="83" fill="#7B7B7B" width="100" height="26"/>
	<rect x="0.499" y="83" fill="#7C7C7C" width="100" height="26"/>
	<rect x="0.499" y="83" fill="#7D7D7D" width="100" height="26"/>
	<rect x="0.499" y="83" fill="#7E7E7E" width="100" height="26"/>
	<rect x="0.499" y="83" fill="#7F7F7F" width="100" height="26"/>
	<rect x="0.499" y="84" fill="#808080" width="100" height="24"/>
	<rect x="0.499" y="84" fill="#818181" width="100" height="24"/>
	<rect x="0.499" y="84" fill="#828282" width="100" height="24"/>
	<rect x="0.499" y="84" fill="#838383" width="100" height="24"/>
	<rect x="0.499" y="84" fill="#848484" width="100" height="24"/>
	<rect x="0.499" y="84" fill="#858585" width="100" height="24"/>
	<rect x="0.499" y="84" fill="#868686" width="100" height="24"/>
	<rect x="0.499" y="84" fill="#878787" width="100" height="24"/>
	<rect x="0.499" y="84" fill="#888888" width="100" height="24"/>
	<rect x="0.499" y="84" fill="#898989" width="100" height="24"/>
	<rect x="0.499" y="85" fill="#8A8A8A" width="100" height="22"/>
	<rect x="0.499" y="85" fill="#8B8B8B" width="100" height="22"/>
	<rect x="0.499" y="85" fill="#8C8C8C" width="100" height="22"/>
	<rect x="0.499" y="85" fill="#8D8D8D" width="100" height="22"/>
	<rect x="0.499" y="85" fill="#8E8E8E" width="100" height="22"/>
	<rect x="0.499" y="85" fill="#8F8F8F" width="100" height="22"/>
	<rect x="0.499" y="85" fill="#909090" width="100" height="22"/>
	<rect x="0.499" y="85" fill="#919191" width="100" height="22"/>
	<rect x="0.499" y="85" fill="#929292" width="100" height="22"/>
	<rect x="0.499" y="85" fill="#939393" width="100" height="22"/>
	<rect x="0.499" y="86" fill="#949494" width="100" height="20"/>
	<rect x="0.499" y="86" fill="#959595" width="100" height="20"/>
	<rect x="0.499" y="86" fill="#969696" width="100" height="20"/>
	<rect x="0.499" y="86" fill="#979797" width="100" height="20"/>
	<rect x="0.499" y="86" fill="#989898" width="100" height="20"/>
	<rect x="0.499" y="86" fill="#999999" width="100" height="20"/>
	<rect x="0.499" y="86" fill="#9A9A9A" width="100" height="20"/>
	<rect x="0.499" y="86" fill="#9B9B9B" width="100" height="20"/>
	<rect x="0.499" y="86" fill="#9C9C9C" width="100" height="20"/>
	<rect x="0.499" y="86" fill="#9D9D9D" width="100" height="20"/>
	<rect x="0.499" y="87" fill="#9E9E9E" width="100" height="18"/>
	<rect x="0.499" y="87" fill="#9F9F9F" width="100" height="18"/>
	<rect x="0.499" y="87" fill="#A0A0A0" width="100" height="18"/>
	<rect x="0.499" y="87" fill="#A1A1A1" width="100" height="18"/>
	<rect x="0.499" y="87" fill="#A2A2A2" width="100" height="18"/>
	<rect x="0.499" y="87" fill="#A3A3A3" width="100" height="18"/>
	<rect x="0.499" y="87" fill="#A4A4A4" width="100" height="18"/>
	<rect x="0.499" y="87" fill="#A5A5A5" width="100" height="18"/>
	<rect x="0.499" y="87" fill="#A6A6A6" width="100" height="18"/>
	<rect x="0.499" y="87" fill="#A7A7A7" width="100" height="18"/>
	<rect x="0.499" y="88" fill="#A8A8A8" width="100" height="16"/>
	<rect x="0.499" y="88" fill="#A9A9A9" width="100" height="16"/>
	<rect x="0.499" y="88" fill="#AAAAAA" width="100" height="16"/>
	<rect x="0.499" y="88" fill="#ABABAB" width="100" height="16"/>
	<rect x="0.499" y="88" fill="#ACACAC" width="100" height="16"/>
	<rect x="0.499" y="88" fill="#ADADAD" width="100" height="16"/>
	<rect x="0.499" y="88" fill="#AEAEAE" width="100" height="16"/>
	<rect x="0.499" y="88" fill="#AFAFAF" width="100" height="16"/>
	<rect x="0.499" y="88" fill="#B0B0B0" width="100" height="16"/>
	<rect x="0.499" y="88" fill="#B1B1B1" width="100" height="16"/>
	<rect x="0.499" y="89" fill="#B2B2B2" width="100" height="14"/>
	<rect x="0.499" y="89" fill="#B3B3B3" width="100" height="14"/>
	<rect x="0.499" y="89" fill="#B4B4B4" width="100" height="14"/>
	<rect x="0.499" y="89" fill="#B5B5B5" width="100" height="14"/>
	<rect x="0.499" y="89" fill="#B6B6B6" width="100" height="14"/>
	<rect x="0.499" y="89" fill="#B7B7B7" width="100" height="14"/>
	<rect x="0.499" y="89" fill="#B8B8B8" width="100" height="14"/>
	<rect x="0.499" y="89" fill="#B9B9B9" width="100" height="14"/>
	<rect x="0.499" y="89" fill="#BABABA" width="100" height="14"/>
	<rect x="0.499" y="89" fill="#BBBBBB" width="100" height="14"/>
	<rect x="0.499" y="90" fill="#BCBCBC" width="100" height="12"/>
	<rect x="0.499" y="90" fill="#BDBDBD" width="100" height="12"/>
	<rect x="0.499" y="90" fill="#BEBEBE" width="100" height="12"/>
	<rect x="0.499" y="90" fill="#BFBFBF" width="100" height="12"/>
	<rect x="0.499" y="90" fill="#C0C0C0" width="100" height="12"/>
	<rect x="0.499" y="90" fill="#C1C1C1" width="100" height="12"/>
	<rect x="0.499" y="90" fill="#C2C2C2" width="100" height="12"/>
	<rect x="0.499" y="90" fill="#C3C3C3" width="100" height="12"/>
	<rect x="0.499" y="90" fill="#C4C4C4" width="100" height="12"/>
	<rect x="0.499" y="90" fill="#C5C5C5" width="100" height="12"/>
	<rect x="0.499" y="91" fill="#C6C6C6" width="100" height="10"/>
	<rect x="0.499" y="91" fill="#C7C7C7" width="100" height="10"/>
	<rect x="0.499" y="91" fill="#C8C8C8" width="100" height="10"/>
	<rect x="0.499" y="91" fill="#C9C9C9" width="100" height="10"/>
	<rect x="0.499" y="91" fill="#CACACA" width="100" height="10"/>
	<rect x="0.499" y="91" fill="#CBCBCB" width="100" height="10"/>
	<rect x="0.499" y="91" fill="#CCCCCC" width="100" height="10"/>
	<rect x="0.499" y="91" fill="#CDCDCD" width="100" height="10"/>
	<rect x="0.499" y="91" fill="#CECECE" width="100" height="10"/>
	<rect x="0.499" y="91" fill="#CFCFCF" width="100" height="10"/>
	<rect x="0.499" y="92" fill="#D0D0D0" width="100" height="8"/>
	<rect x="0.499" y="92" fill="#D1D1D1" width="100" height="8"/>
	<rect x="0.499" y="92" fill="#D2D2D2" width="100" height="8"/>
	<rect x="0.499" y="92" fill="#D3D3D3" width="100" height="8"/>
	<rect x="0.499" y="92" fill="#D4D4D4" width="100" height="8"/>
	<rect x="0.499" y="92" fill="#D5D5D5" width="100" height="8"/>
	<rect x="0.499" y="92" fill="#D6D6D6" width="100" height="8"/>
	<rect x="0.499" y="92" fill="#D7D7D7" width="100" height="8"/>
	<rect x="0.499" y="92" fill="#D8D8D8" width="100" height="8"/>
	<rect x="0.499" y="92" fill="#D9D9D9" width="100" height="8"/>
	<rect x="0.499" y="93" fill="#DADADA" width="100" height="6"/>
	<rect x="0.499" y="93" fill="#DBDBDB" width="100" height="6"/>
	<rect x="0.499" y="93" fill="#DCDCDC" width="100" height="6"/>
	<rect x="0.499" y="93" fill="#DDDDDD" width="100" height="6"/>
	<rect x="0.499" y="93" fill="#DEDEDE" width="100" height="6"/>
	<rect x="0.499" y="93" fill="#DFDFDF" width="100" height="6"/>
	<rect x="0.499" y="93" fill="#E0E0E0" width="100" height="6"/>
	<rect x="0.499" y="93" fill="#E1E1E1" width="100" height="6"/>
	<rect x="0.499" y="93" fill="#E2E2E2" width="100" height="6"/>
	<rect x="0.499" y="93" fill="#E3E3E3" width="100" height="6"/>
	<rect x="0.499" y="94" fill="#E4E4E4" width="100" height="5"/>
</g>
<linearGradient id="SVGID_1_" gradientUnits="userSpaceOnUse" x1="32.499" y1="93" x2="55.499" y2="93">
	<stop  offset="0.0303" style="stop-color:#979797"/>
	<stop  offset="0.4364" style="stop-color:#666666"/>
	<stop  offset="0.4727" style="stop-color:#808080"/>
	<stop  offset="0.9818" style="stop-color:#808080"/>
</linearGradient>
<rect x="32.499" y="22" fill="url(#SVGID_1_)" width="23" height="142"/>
<linearGradient id="SVGID_2_" gradientUnits="userSpaceOnUse" x1="40.499" y1="93" x2="70.499" y2="93">
	<stop  offset="0.0303" style="stop-color:#979797"/>
	<stop  offset="0.4364" style="stop-color:#666666"/>
	<stop  offset="0.4727" style="stop-color:#808080"/>
	<stop  offset="0.9818" style="stop-color:#808080"/>
</linearGradient>
<polygon fill="url(#SVGID_2_)" points="70.499,178 40.499,170 40.499,16 70.499,8 "/>
<linearGradient id="SVGID_3_" gradientUnits="userSpaceOnUse" x1="195.999" y1="176.5" x2="195.999" y2="8.5">
	<stop  offset="0.0182" style="stop-color:#333333"/>
	<stop  offset="0.3394" style="stop-color:#666666"/>
	<stop  offset="0.4848" style="stop-color:#818181"/>
	<stop  offset="0.697" style="stop-color:#989898"/>
	<stop  offset="1" style="stop-color:#333333"/>
</linearGradient>
<rect x="70.999" y="8.5" fill="url(#SVGID_3_)" stroke="#000000" stroke-miterlimit="10" width="250" height="168"/>
<linearGradient id="SVGID_4_" gradientUnits="userSpaceOnUse" x1="191.499" y1="179" x2="191.499" y2="172">
	<stop  offset="0" style="stop-color:#4D4D4D"/>
	<stop  offset="0.9939" style="stop-color:#1A1A1A"/>
</linearGradient>
<rect x="70.499" y="172" fill="url(#SVGID_4_)" width="242" height="7"/>
<rect x="70.499" y="178" fill="#FFFFFF" width="242" height="1"/>
<linearGradient id="SVGID_5_" gradientUnits="userSpaceOnUse" x1="194.499" y1="50" x2="194.499" y2="42">
	<stop  offset="0" style="stop-color:#4D4D4D"/>
	<stop  offset="0.5515" style="stop-color:#CACACA"/>
	<stop  offset="1" style="stop-color:#979797"/>
</linearGradient>
<rect x="70.499" y="42" fill="url(#SVGID_5_)" width="248" height="8"/>
<linearGradient id="SVGID_6_" gradientUnits="userSpaceOnUse" x1="70.499" y1="49.5" x2="318.499" y2="49.5">
	<stop  offset="0" style="stop-color:#4D4D4D"/>
	<stop  offset="0.5515" style="stop-color:#CACACA"/>
	<stop  offset="1" style="stop-color:#979797"/>
</linearGradient>
<rect x="70.499" y="49" fill="url(#SVGID_6_)" width="248" height="1"/>
<rect x="312.499" width="29" height="183"/>
<linearGradient id="SVGID_7_" gradientUnits="userSpaceOnUse" x1="380.1348" y1="183" x2="380.1348" y2="0">
	<stop  offset="0" style="stop-color:#4D4D4D"/>
	<stop  offset="0.3091" style="stop-color:#979797"/>
	<stop  offset="0.5394" style="stop-color:#E4E4E4"/>
	<stop  offset="0.703" style="stop-color:#CACACA"/>
	<stop  offset="0.9879" style="stop-color:#4D4D4D"/>
</linearGradient>
<path fill="url(#SVGID_7_)" d="M402.107,0h-83.608v183h83.608c21.905,0,39.663-40.84,39.663-91.5S424.013,0,402.107,0z"/>
<linearGradient id="SVGID_8_" gradientUnits="userSpaceOnUse" x1="318.499" y1="91.5" x2="441.7705" y2="91.5">
	<stop  offset="0" style="stop-color:#4D4D4D"/>
	<stop  offset="1" style="stop-color:#CACACA"/>
</linearGradient>
<path opacity="0.85" fill="url(#SVGID_8_)" d="M402.107,0h-83.608v183h83.608c21.905,0,39.663-40.979,39.663-91.5
	S424.013,0,402.107,0z"/>
<linearGradient id="SVGID_9_" gradientUnits="userSpaceOnUse" x1="204.999" y1="156" x2="204.999" y2="65">
	<stop  offset="0.0303" style="stop-color:#4D4D4D"/>
	<stop  offset="0.1394" style="stop-color:#929292"/>
	<stop  offset="0.5758" style="stop-color:#808080"/>
	<stop  offset="0.9758" style="stop-color:#B1B1B1"/>
</linearGradient>
<rect x="153.499" y="65" fill="url(#SVGID_9_)" width="103" height="91"/>
<polygon fill="#333333" points="163.499,60 246.499,60 256.499,65 153.499,65 "/>
<linearGradient id="SVGID_10_" gradientUnits="userSpaceOnUse" x1="92.999" y1="749" x2="92.999" y2="730" gradientTransform="matrix(1 0 0 -1 0 775)">
	<stop  offset="0" style="stop-color:#333333"/>
	<stop  offset="0.4" style="stop-color:#4D4D4D"/>
	<stop  offset="1" style="stop-color:#CACACA"/>
</linearGradient>
<rect x="88.499" y="26" fill="url(#SVGID_10_)" width="9" height="19"/>
<linearGradient id="SVGID_11_" gradientUnits="userSpaceOnUse" x1="92.999" y1="68" x2="92.999" y2="49">
	<stop  offset="0" style="stop-color:#333333"/>
	<stop  offset="0.4" style="stop-color:#4D4D4D"/>
	<stop  offset="1" style="stop-color:#CACACA"/>
</linearGradient>
<rect x="88.499" y="49" fill="url(#SVGID_11_)" width="9" height="19"/>
<linearGradient id="SVGID_12_" gradientUnits="userSpaceOnUse" x1="92.999" y1="64" x2="92.999" y2="45">
	<stop  offset="0" style="stop-color:#4D4D4D"/>
	<stop  offset="0.4" style="stop-color:#4D4D4D"/>
	<stop  offset="1" style="stop-color:#CACACA"/>
</linearGradient>
<rect x="88.499" y="45" fill="url(#SVGID_12_)" width="9" height="19"/>
</svg>
