<?xml version="1.0" encoding="utf-8"?>
<!-- Generator: Adobe Illustrator 15.0.0, SVG Export Plug-In  -->
<!DOCTYPE svg PUBLIC "-//W3C//DTD SVG 1.1//EN" "http://www.w3.org/Graphics/SVG/1.1/DTD/svg11.dtd" [
	<!ENTITY ns_flows "http://ns.adobe.com/Flows/1.0/">
]>
<svg version="1.1"
	 xmlns="http://www.w3.org/2000/svg" xmlns:xlink="http://www.w3.org/1999/xlink" xmlns:a="http://ns.adobe.com/AdobeSVGViewerExtensions/3.0/"
	 x="0px" y="0px" width="390px" height="450px" viewBox="1 0.113 390 450" enable-background="new 1 0.113 390 450"
	 xml:space="preserve">
<defs>
</defs>
<linearGradient id="SVGID_1_" gradientUnits="userSpaceOnUse" x1="11403.5" y1="-1607.3862" x2="11450.5" y2="-1607.3862" gradientTransform="matrix(0 -1 1 0 1801.3867 11805.6133)">
	<stop  offset="0" style="stop-color:#333333"/>
	<stop  offset="0.1212" style="stop-color:#CCCCCC"/>
	<stop  offset="0.497" style="stop-color:#DEDEDE"/>
	<stop  offset="0.7879" style="stop-color:#989898"/>
	<stop  offset="1" style="stop-color:#1A1A1A"/>
</linearGradient>
<rect x="26" y="355.113" fill="url(#SVGID_1_)" width="336" height="47"/>
<linearGradient id="SVGID_2_" gradientUnits="userSpaceOnUse" x1="11427" y1="-1775.3857" x2="11427" y2="-1439.3857" gradientTransform="matrix(0 -1 1 0 1801.3867 11805.6133)">
	<stop  offset="0" style="stop-color:#333333;stop-opacity:0"/>
	<stop  offset="0.1515" style="stop-color:#272727"/>
	<stop  offset="0.897" style="stop-color:#242424"/>
	<stop  offset="1" style="stop-color:#1A1A1A;stop-opacity:0"/>
</linearGradient>
<rect x="26" y="355.113" fill="url(#SVGID_2_)" width="336" height="47"/>
<linearGradient id="SVGID_3_" gradientUnits="userSpaceOnUse" x1="76" y1="384.6133" x2="319" y2="384.6133">
	<stop  offset="0.0121" style="stop-color:#979797"/>
	<stop  offset="0.1091" style="stop-color:#4D4D4D"/>
	<stop  offset="0.8848" style="stop-color:#747474"/>
	<stop  offset="1" style="stop-color:#333333"/>
</linearGradient>
<path fill="url(#SVGID_3_)" d="M304.693,339.113l-2.42-7.253c0-6.792-6.003-12.747-13.41-12.747H105.948
	c-7.406,0-11.667,5.225-13.41,12.747l-2.418,7.253H76v100h0.533c0.75,6,6.428,11,13.324,11h215.1c6.896,0,12.574-5,13.323-11H319
	v-100H304.693z"/>
<linearGradient id="SVGID_4_" gradientUnits="userSpaceOnUse" x1="76.4463" y1="316.6133" x2="318.3662" y2="316.6133">
	<stop  offset="0.0121" style="stop-color:#4D4D4D"/>
	<stop  offset="0.4121" style="stop-color:#979797"/>
	<stop  offset="1" style="stop-color:#333333"/>
</linearGradient>
<path fill="url(#SVGID_4_)" d="M318.366,339.494c0,6.793-6.004,12.619-13.41,12.619h-215.1c-7.406,0-13.41-5.826-13.41-12.619
	l16.092-45.671c1.743-7.523,6.004-12.71,13.41-12.71h182.916c7.406,0,10.46,3.686,13.41,12.71L318.366,339.494z"/>
<linearGradient id="SVGID_5_" gradientUnits="userSpaceOnUse" x1="113.5" y1="206.4492" x2="281.5" y2="206.4492">
	<stop  offset="0.0121" style="stop-color:#4D4D4D"/>
	<stop  offset="0.4121" style="stop-color:#979797"/>
	<stop  offset="1" style="stop-color:#333333"/>
</linearGradient>
<path fill="url(#SVGID_5_)" stroke="#333333" stroke-miterlimit="10" d="M281.5,316.545c0,0-34.114,20.739-84,20.739
	c-53.641,0-84-20.739-84-20.739V75.613h168V316.545z"/>
<linearGradient id="SVGID_6_" gradientUnits="userSpaceOnUse" x1="114.3789" y1="9.2783" x2="281.7383" y2="9.2783">
	<stop  offset="0.0121" style="stop-color:#CCCCCC"/>
	<stop  offset="1" style="stop-color:#B1B1B1"/>
</linearGradient>
<ellipse fill="url(#SVGID_6_)" cx="198.059" cy="9.279" rx="83.68" ry="9.277"/>
<linearGradient id="SVGID_7_" gradientUnits="userSpaceOnUse" x1="101.5044" y1="27.6133" x2="294.6113" y2="27.6133">
	<stop  offset="0.0121" style="stop-color:#CCCCCC"/>
	<stop  offset="0.3636" style="stop-color:#666666"/>
	<stop  offset="0.6606" style="stop-color:#808080"/>
	<stop  offset="1" style="stop-color:#333333"/>
</linearGradient>
<path fill="url(#SVGID_7_)" d="M294.611,46.113c0-3-6.004-37-13.41-37H114.915c-7.406,0-13.41,34-13.41,37H294.611z"/>
<linearGradient id="SVGID_8_" gradientUnits="userSpaceOnUse" x1="276" y1="210.3359" x2="294" y2="210.3359">
	<stop  offset="0.0121" style="stop-color:#979797"/>
	<stop  offset="0.4121" style="stop-color:#979797"/>
	<stop  offset="1" style="stop-color:#333333"/>
</linearGradient>
<path fill="url(#SVGID_8_)" d="M294,337.284c0,0-2.831,3.274-9,3.274c-6.839,0-9-3.274-9-3.274V80.113h18V337.284z"/>
<linearGradient id="SVGID_9_" gradientUnits="userSpaceOnUse" x1="101" y1="210.3359" x2="120" y2="210.3359">
	<stop  offset="0.0121" style="stop-color:#979797"/>
	<stop  offset="0.4121" style="stop-color:#979797"/>
	<stop  offset="1" style="stop-color:#333333"/>
</linearGradient>
<path fill="url(#SVGID_9_)" d="M120,337.284c0,0-3.332,3.274-9.5,3.274c-6.839,0-9.5-3.274-9.5-3.274V80.113h19V337.284z"/>
<linearGradient id="SVGID_10_" gradientUnits="userSpaceOnUse" x1="375.5" y1="337.1133" x2="375.5" y2="421.1133">
	<stop  offset="0" style="stop-color:#1A1A1A"/>
	<stop  offset="0.3273" style="stop-color:#B1B1B1"/>
	<stop  offset="0.697" style="stop-color:#989898"/>
	<stop  offset="1" style="stop-color:#333333"/>
</linearGradient>
<path fill="url(#SVGID_10_)" stroke="#333333" stroke-width="2" stroke-miterlimit="10" d="M391,411.754
	c0,5.169-4.118,9.359-9.198,9.359h-12.604c-5.08,0-9.198-4.19-9.198-9.359v-65.281c0-5.169,4.118-9.359,9.198-9.359h12.604
	c5.08,0,9.198,4.19,9.198,9.359V411.754z"/>
<linearGradient id="SVGID_11_" gradientUnits="userSpaceOnUse" x1="16.5" y1="337.1133" x2="16.5" y2="421.1133">
	<stop  offset="0" style="stop-color:#1A1A1A"/>
	<stop  offset="0.3273" style="stop-color:#B1B1B1"/>
	<stop  offset="0.697" style="stop-color:#989898"/>
	<stop  offset="1" style="stop-color:#333333"/>
</linearGradient>
<path fill="url(#SVGID_11_)" stroke="#333333" stroke-width="2" stroke-miterlimit="10" d="M32,411.754
	c0,5.169-4.118,9.359-9.198,9.359H10.198c-5.08,0-9.198-4.19-9.198-9.359v-65.281c0-5.169,4.118-9.359,9.198-9.359h12.604
	c5.08,0,9.198,4.19,9.198,9.359V411.754z"/>
<path fill="#FFFFFF" d="M269,315.578c0,1.4-0.927,2.535-2.069,2.535h-0.861c-1.143,0-2.069-1.135-2.069-2.535V70.648
	c0-1.4,0.927-2.535,2.069-2.535h0.861c1.143,0,2.069,1.135,2.069,2.535V315.578z"/>
<path fill="#333333" d="M267,315.578c0,1.4-0.927,2.535-2.069,2.535h-0.861c-1.143,0-2.069-1.135-2.069-2.535V70.648
	c0-1.4,0.927-2.535,2.069-2.535h0.861c1.143,0,2.069,1.135,2.069,2.535V315.578z"/>
<path fill="#FFFFFF" d="M260,321.578c0,1.4-0.927,2.535-2.069,2.535h-0.861c-1.143,0-2.069-1.135-2.069-2.535V76.648
	c0-1.4,0.927-2.535,2.069-2.535h0.861c1.143,0,2.069,1.135,2.069,2.535V321.578z"/>
<path fill="#333333" d="M258,321.578c0,1.4-0.926,2.535-2.069,2.535h-0.862c-1.143,0-2.069-1.135-2.069-2.535V76.648
	c0-1.4,0.926-2.535,2.069-2.535h0.862c1.143,0,2.069,1.135,2.069,2.535V321.578z"/>
<path fill="#FFFFFF" d="M250,323.578c0,1.4-0.927,2.535-2.07,2.535h-0.86c-1.143,0-2.07-1.135-2.07-2.535V78.648
	c0-1.4,0.927-2.535,2.07-2.535h0.86c1.143,0,2.07,1.135,2.07,2.535V323.578z"/>
<path fill="#333333" d="M249,323.578c0,1.4-0.927,2.535-2.07,2.535h-0.86c-1.143,0-2.07-1.135-2.07-2.535V78.648
	c0-1.4,0.927-2.535,2.07-2.535h0.86c1.143,0,2.07,1.135,2.07,2.535V323.578z"/>
<path fill="#FFFFFF" d="M242,326.577c0,1.401-0.927,2.536-2.069,2.536h-0.861c-1.143,0-2.069-1.135-2.069-2.536V81.649
	c0-1.4,0.927-2.536,2.069-2.536h0.861c1.143,0,2.069,1.136,2.069,2.536V326.577z"/>
<path fill="#333333" d="M240,326.577c0,1.401-0.927,2.536-2.07,2.536h-0.859c-1.144,0-2.07-1.135-2.07-2.536V81.649
	c0-1.4,0.927-2.536,2.07-2.536h0.859c1.144,0,2.07,1.136,2.07,2.536V326.577z"/>
<path fill="#FFFFFF" d="M233,327.577c0,1.401-0.927,2.536-2.069,2.536h-0.861c-1.143,0-2.069-1.135-2.069-2.536V82.649
	c0-1.4,0.927-2.536,2.069-2.536h0.861c1.143,0,2.069,1.136,2.069,2.536V327.577z"/>
<path fill="#333333" d="M231,327.577c0,1.401-0.927,2.536-2.07,2.536h-0.859c-1.144,0-2.07-1.135-2.07-2.536V82.649
	c0-1.4,0.927-2.536,2.07-2.536h0.859c1.144,0,2.07,1.136,2.07,2.536V327.577z"/>
<path fill="#FFFFFF" d="M224,329.577c0,1.401-0.927,2.536-2.069,2.536h-0.861c-1.143,0-2.069-1.135-2.069-2.536V84.649
	c0-1.4,0.927-2.536,2.069-2.536h0.861c1.143,0,2.069,1.136,2.069,2.536V329.577z"/>
<path fill="#333333" d="M222,329.577c0,1.401-0.927,2.536-2.069,2.536h-0.861c-1.143,0-2.069-1.135-2.069-2.536V84.649
	c0-1.4,0.927-2.536,2.069-2.536h0.861c1.143,0,2.069,1.136,2.069,2.536V329.577z"/>
<path fill="#FFFFFF" d="M214,332.578c0,1.4-0.927,2.535-2.069,2.535h-0.861c-1.143,0-2.069-1.135-2.069-2.535V87.648
	c0-1.4,0.927-2.535,2.069-2.535h0.861c1.143,0,2.069,1.135,2.069,2.535V332.578z"/>
<path fill="#333333" d="M212,332.578c0,1.4-0.926,2.535-2.069,2.535h-0.861c-1.143,0-2.069-1.135-2.069-2.535V87.648
	c0-1.4,0.926-2.535,2.069-2.535h0.861c1.143,0,2.069,1.135,2.069,2.535V332.578z"/>
<path fill="#FFFFFF" d="M205,333.578c0,1.4-0.927,2.535-2.07,2.535h-0.859c-1.144,0-2.07-1.135-2.07-2.535V88.648
	c0-1.4,0.927-2.535,2.07-2.535h0.859c1.144,0,2.07,1.135,2.07,2.535V333.578z"/>
<path fill="#333333" d="M203,333.578c0,1.4-0.927,2.535-2.07,2.535h-0.859c-1.144,0-2.07-1.135-2.07-2.535V88.648
	c0-1.4,0.927-2.535,2.07-2.535h0.859c1.144,0,2.07,1.135,2.07,2.535V333.578z"/>
<path fill="#FFFFFF" d="M195,333.578c0,1.4-0.927,2.535-2.069,2.535h-0.861c-1.143,0-2.069-1.135-2.069-2.535V88.648
	c0-1.4,0.927-2.535,2.069-2.535h0.861c1.143,0,2.069,1.135,2.069,2.535V333.578z"/>
<path fill="#333333" d="M193,333.578c0,1.4-0.927,2.535-2.069,2.535h-0.861c-1.143,0-2.069-1.135-2.069-2.535V88.648
	c0-1.4,0.927-2.535,2.069-2.535h0.861c1.143,0,2.069,1.135,2.069,2.535V333.578z"/>
<path fill="#FFFFFF" d="M186,332.578c0,1.4-0.927,2.535-2.069,2.535h-0.861c-1.143,0-2.069-1.135-2.069-2.535V87.648
	c0-1.4,0.927-2.535,2.069-2.535h0.861c1.143,0,2.069,1.135,2.069,2.535V332.578z"/>
<path fill="#333333" d="M184,332.578c0,1.4-0.927,2.535-2.07,2.535h-0.86c-1.143,0-2.07-1.135-2.07-2.535V87.648
	c0-1.4,0.927-2.535,2.07-2.535h0.86c1.143,0,2.07,1.135,2.07,2.535V332.578z"/>
<path fill="#FFFFFF" d="M176,329.577c0,1.401-0.927,2.536-2.07,2.536h-0.859c-1.144,0-2.07-1.135-2.07-2.536V84.649
	c0-1.4,0.927-2.536,2.07-2.536h0.859c1.144,0,2.07,1.136,2.07,2.536V329.577z"/>
<path fill="#333333" d="M175,329.577c0,1.401-0.927,2.536-2.069,2.536h-0.861c-1.143,0-2.069-1.135-2.069-2.536V84.649
	c0-1.4,0.927-2.536,2.069-2.536h0.861c1.143,0,2.069,1.136,2.069,2.536V329.577z"/>
<path fill="#FFFFFF" d="M168,327.577c0,1.401-0.927,2.536-2.07,2.536h-0.859c-1.144,0-2.07-1.135-2.07-2.536V82.649
	c0-1.4,0.927-2.536,2.07-2.536h0.859c1.144,0,2.07,1.136,2.07,2.536V327.577z"/>
<path fill="#333333" d="M166,327.577c0,1.401-0.927,2.536-2.069,2.536h-0.861c-1.143,0-2.069-1.135-2.069-2.536V82.649
	c0-1.4,0.927-2.536,2.069-2.536h0.861c1.143,0,2.069,1.136,2.069,2.536V327.577z"/>
<path fill="#FFFFFF" d="M159,326.577c0,1.401-0.927,2.536-2.069,2.536h-0.861c-1.143,0-2.069-1.135-2.069-2.536V81.649
	c0-1.4,0.927-2.536,2.069-2.536h0.861c1.143,0,2.069,1.136,2.069,2.536V326.577z"/>
<path fill="#333333" d="M157,326.577c0,1.401-0.927,2.536-2.07,2.536h-0.86c-1.143,0-2.07-1.135-2.07-2.536V81.649
	c0-1.4,0.927-2.536,2.07-2.536h0.86c1.143,0,2.07,1.136,2.07,2.536V326.577z"/>
<path fill="#FFFFFF" d="M150,323.578c0,1.4-0.927,2.535-2.07,2.535h-0.86c-1.143,0-2.07-1.135-2.07-2.535V78.648
	c0-1.4,0.927-2.535,2.07-2.535h0.86c1.143,0,2.07,1.135,2.07,2.535V323.578z"/>
<path fill="#333333" d="M148,323.578c0,1.4-0.927,2.535-2.069,2.535h-0.861c-1.143,0-2.069-1.135-2.069-2.535V78.648
	c0-1.4,0.927-2.535,2.069-2.535h0.861c1.143,0,2.069,1.135,2.069,2.535V323.578z"/>
<path fill="#FFFFFF" d="M141,320.576c0,1.401-0.927,2.537-2.07,2.537h-0.86c-1.143,0-2.07-1.136-2.07-2.537V75.65
	c0-1.401,0.927-2.537,2.07-2.537h0.86c1.143,0,2.07,1.136,2.07,2.537V320.576z"/>
<path fill="#333333" d="M139,320.576c0,1.401-0.927,2.537-2.069,2.537h-0.861c-1.143,0-2.069-1.136-2.069-2.537V75.65
	c0-1.401,0.927-2.537,2.069-2.537h0.861c1.143,0,2.069,1.136,2.069,2.537V320.576z"/>
<path fill="#FFFFFF" d="M131,315.578c0,1.4-0.927,2.535-2.069,2.535h-0.861c-1.143,0-2.069-1.135-2.069-2.535V70.648
	c0-1.4,0.927-2.535,2.069-2.535h0.861c1.143,0,2.069,1.135,2.069,2.535V315.578z"/>
<path fill="#333333" d="M129,315.578c0,1.4-0.926,2.535-2.069,2.535h-0.862c-1.143,0-2.069-1.135-2.069-2.535V70.648
	c0-1.4,0.926-2.535,2.069-2.535h0.862c1.143,0,2.069,1.135,2.069,2.535V315.578z"/>
<linearGradient id="SVGID_12_" gradientUnits="userSpaceOnUse" x1="101" y1="72.6133" x2="294" y2="72.6133">
	<stop  offset="0.0121" style="stop-color:#CCCCCC"/>
	<stop  offset="0.4121" style="stop-color:#FFFFFF"/>
	<stop  offset="1" style="stop-color:#333333"/>
</linearGradient>
<rect x="101" y="45.113" fill="url(#SVGID_12_)" width="193" height="55"/>
</svg>
