<?xml version="1.0" encoding="utf-8"?>
<!-- Generator: Adobe Illustrator 15.0.0, SVG Export Plug-In  -->
<!DOCTYPE svg PUBLIC "-//W3C//DTD SVG 1.1//EN" "http://www.w3.org/Graphics/SVG/1.1/DTD/svg11.dtd" [
	<!ENTITY ns_flows "http://ns.adobe.com/Flows/1.0/">
]>
<svg version="1.1"
	 xmlns="http://www.w3.org/2000/svg" xmlns:xlink="http://www.w3.org/1999/xlink" xmlns:a="http://ns.adobe.com/AdobeSVGViewerExtensions/3.0/"
	 x="0px" y="0px" width="85px" height="100px" viewBox="-1.138 0 85 100" enable-background="new -1.138 0 85 100"
	 xml:space="preserve">
<defs>
</defs>
<g>
	<rect x="48.862" fill="#4D4D4D" width="35" height="100"/>
	<rect x="48.862" fill="#4E4E4E" width="35" height="100"/>
	<rect x="48.862" fill="#4F4F4F" width="35" height="100"/>
	<rect x="48.862" fill="#505050" width="35" height="100"/>
	<rect x="48.862" fill="#515151" width="35" height="100"/>
	<rect x="48.862" fill="#525252" width="34" height="100"/>
	<rect x="49.862" fill="#535353" width="33" height="100"/>
	<rect x="49.862" fill="#545454" width="33" height="100"/>
	<rect x="49.862" fill="#555555" width="33" height="100"/>
	<rect x="49.862" fill="#565656" width="33" height="100"/>
	<rect x="49.862" fill="#575757" width="33" height="100"/>
	<rect x="49.862" fill="#585858" width="33" height="100"/>
	<rect x="49.862" fill="#595959" width="33" height="100"/>
	<rect x="49.862" fill="#5A5A5A" width="33" height="100"/>
	<rect x="49.862" fill="#5B5B5B" width="33" height="100"/>
	<rect x="49.862" fill="#5C5C5C" width="32" height="100"/>
	<rect x="50.862" fill="#5D5D5D" width="31" height="100"/>
	<rect x="50.862" fill="#5E5E5E" width="31" height="100"/>
	<rect x="50.862" fill="#5F5F5F" width="31" height="100"/>
	<rect x="50.862" fill="#606060" width="31" height="100"/>
	<rect x="50.862" fill="#616161" width="31" height="100"/>
	<rect x="50.862" fill="#626262" width="31" height="100"/>
	<rect x="50.862" fill="#636363" width="31" height="100"/>
	<rect x="50.862" fill="#646464" width="31" height="100"/>
	<rect x="50.862" fill="#656565" width="31" height="100"/>
	<rect x="50.862" fill="#666666" width="30" height="100"/>
	<rect x="51.862" fill="#676767" width="29" height="100"/>
	<rect x="51.862" fill="#686868" width="29" height="100"/>
	<rect x="51.862" fill="#696969" width="29" height="100"/>
	<rect x="51.862" fill="#6A6A6A" width="29" height="100"/>
	<rect x="51.862" fill="#6B6B6B" width="29" height="100"/>
	<rect x="51.862" fill="#6C6C6C" width="29" height="100"/>
	<rect x="51.862" fill="#6D6D6D" width="29" height="100"/>
	<rect x="51.862" fill="#6E6E6E" width="29" height="100"/>
	<rect x="51.862" fill="#6F6F6F" width="29" height="100"/>
	<rect x="51.862" fill="#707070" width="28" height="100"/>
	<rect x="52.862" fill="#717171" width="27" height="100"/>
	<rect x="52.862" fill="#727272" width="27" height="100"/>
	<rect x="52.862" fill="#737373" width="27" height="100"/>
	<rect x="52.862" fill="#747474" width="27" height="100"/>
	<rect x="52.862" fill="#757575" width="27" height="100"/>
	<rect x="52.862" fill="#767676" width="27" height="100"/>
	<rect x="52.862" fill="#777777" width="27" height="100"/>
	<rect x="52.862" fill="#787878" width="27" height="100"/>
	<rect x="52.862" fill="#797979" width="27" height="100"/>
	<rect x="52.862" fill="#7A7A7A" width="26" height="100"/>
	<rect x="53.862" fill="#7B7B7B" width="25" height="100"/>
	<rect x="53.862" fill="#7C7C7C" width="25" height="100"/>
	<rect x="53.862" fill="#7D7D7D" width="25" height="100"/>
	<rect x="53.862" fill="#7E7E7E" width="25" height="100"/>
	<rect x="53.862" fill="#7F7F7F" width="25" height="100"/>
	<rect x="53.862" fill="#808080" width="25" height="100"/>
	<rect x="53.862" fill="#818181" width="25" height="100"/>
	<rect x="53.862" fill="#828282" width="25" height="100"/>
	<rect x="53.862" fill="#838383" width="25" height="100"/>
	<rect x="53.862" fill="#848484" width="25" height="100"/>
	<rect x="54.862" fill="#858585" width="23" height="100"/>
	<rect x="54.862" fill="#868686" width="23" height="100"/>
	<rect x="54.862" fill="#878787" width="23" height="100"/>
	<rect x="54.862" fill="#888888" width="23" height="100"/>
	<rect x="54.862" fill="#898989" width="23" height="100"/>
	<rect x="54.862" fill="#8A8A8A" width="23" height="100"/>
	<rect x="54.862" fill="#8B8B8B" width="23" height="100"/>
	<rect x="54.862" fill="#8C8C8C" width="23" height="100"/>
	<rect x="54.862" fill="#8D8D8D" width="23" height="100"/>
	<rect x="54.862" fill="#8E8E8E" width="23" height="100"/>
	<rect x="55.862" fill="#8F8F8F" width="21" height="100"/>
	<rect x="55.862" fill="#909090" width="21" height="100"/>
	<rect x="55.862" fill="#919191" width="21" height="100"/>
	<rect x="55.862" fill="#929292" width="21" height="100"/>
	<rect x="55.862" fill="#939393" width="21" height="100"/>
	<rect x="55.862" fill="#949494" width="21" height="100"/>
	<rect x="55.862" fill="#959595" width="21" height="100"/>
	<rect x="55.862" fill="#969696" width="21" height="100"/>
	<rect x="55.862" fill="#979797" width="21" height="100"/>
	<rect x="55.862" fill="#989898" width="21" height="100"/>
	<rect x="56.862" fill="#999999" width="19" height="100"/>
	<rect x="56.862" fill="#9A9A9A" width="19" height="100"/>
	<rect x="56.862" fill="#9B9B9B" width="19" height="100"/>
	<rect x="56.862" fill="#9C9C9C" width="19" height="100"/>
	<rect x="56.862" fill="#9D9D9D" width="19" height="100"/>
	<rect x="56.862" fill="#9E9E9E" width="19" height="100"/>
	<rect x="56.862" fill="#9F9F9F" width="19" height="100"/>
	<rect x="56.862" fill="#A0A0A0" width="19" height="100"/>
	<rect x="56.862" fill="#A1A1A1" width="19" height="100"/>
	<rect x="56.862" fill="#A2A2A2" width="19" height="100"/>
	<rect x="57.862" fill="#A3A3A3" width="17" height="100"/>
	<rect x="57.862" fill="#A4A4A4" width="17" height="100"/>
	<rect x="57.862" fill="#A5A5A5" width="17" height="100"/>
	<rect x="57.862" fill="#A6A6A6" width="17" height="100"/>
	<rect x="57.862" fill="#A7A7A7" width="17" height="100"/>
	<rect x="57.862" fill="#A8A8A8" width="17" height="100"/>
	<rect x="57.862" fill="#A9A9A9" width="17" height="100"/>
	<rect x="57.862" fill="#AAAAAA" width="17" height="100"/>
	<rect x="57.862" fill="#ABABAB" width="17" height="100"/>
	<rect x="57.862" fill="#ACACAC" width="17" height="100"/>
	<rect x="58.862" fill="#ADADAD" width="15" height="100"/>
	<rect x="58.862" fill="#AEAEAE" width="15" height="100"/>
	<rect x="58.862" fill="#AFAFAF" width="15" height="100"/>
	<rect x="58.862" fill="#B0B0B0" width="15" height="100"/>
	<rect x="58.862" fill="#B1B1B1" width="15" height="100"/>
	<rect x="58.862" fill="#B2B2B2" width="15" height="100"/>
	<rect x="58.862" fill="#B3B3B3" width="15" height="100"/>
	<rect x="58.862" fill="#B4B4B4" width="15" height="100"/>
	<rect x="58.862" fill="#B5B5B5" width="15" height="100"/>
	<rect x="58.862" fill="#B6B6B6" width="15" height="100"/>
	<rect x="58.862" fill="#B7B7B7" width="14" height="100"/>
	<rect x="59.862" fill="#B8B8B8" width="13" height="100"/>
	<rect x="59.862" fill="#B9B9B9" width="13" height="100"/>
	<rect x="59.862" fill="#BABABA" width="13" height="100"/>
	<rect x="59.862" fill="#BBBBBB" width="13" height="100"/>
	<rect x="59.862" fill="#BCBCBC" width="13" height="100"/>
	<rect x="59.862" fill="#BDBDBD" width="13" height="100"/>
	<rect x="59.862" fill="#BEBEBE" width="13" height="100"/>
	<rect x="59.862" fill="#BFBFBF" width="13" height="100"/>
	<rect x="59.862" fill="#C0C0C0" width="13" height="100"/>
	<rect x="59.862" fill="#C1C1C1" width="12" height="100"/>
	<rect x="60.862" fill="#C2C2C2" width="11" height="100"/>
	<rect x="60.862" fill="#C3C3C3" width="11" height="100"/>
	<rect x="60.862" fill="#C4C4C4" width="11" height="100"/>
	<rect x="60.862" fill="#C5C5C5" width="11" height="100"/>
	<rect x="60.862" fill="#C6C6C6" width="11" height="100"/>
	<rect x="60.862" fill="#C7C7C7" width="11" height="100"/>
	<rect x="60.862" fill="#C8C8C8" width="11" height="100"/>
	<rect x="60.862" fill="#C9C9C9" width="11" height="100"/>
	<rect x="60.862" fill="#CACACA" width="11" height="100"/>
	<rect x="60.862" fill="#CBCBCB" width="10" height="100"/>
	<rect x="61.862" fill="#CCCCCC" width="9" height="100"/>
	<rect x="61.862" fill="#CDCDCD" width="9" height="100"/>
	<rect x="61.862" fill="#CECECE" width="9" height="100"/>
	<rect x="61.862" fill="#CFCFCF" width="9" height="100"/>
	<rect x="61.862" fill="#D0D0D0" width="9" height="100"/>
	<rect x="61.862" fill="#D1D1D1" width="9" height="100"/>
	<rect x="61.862" fill="#D2D2D2" width="9" height="100"/>
	<rect x="61.862" fill="#D3D3D3" width="9" height="100"/>
	<rect x="61.862" fill="#D4D4D4" width="9" height="100"/>
	<rect x="61.862" fill="#D5D5D5" width="8" height="100"/>
	<rect x="62.862" fill="#D6D6D6" width="7" height="100"/>
	<rect x="62.862" fill="#D7D7D7" width="7" height="100"/>
	<rect x="62.862" fill="#D8D8D8" width="7" height="100"/>
	<rect x="62.862" fill="#D9D9D9" width="7" height="100"/>
	<rect x="62.862" fill="#DADADA" width="7" height="100"/>
	<rect x="62.862" fill="#DBDBDB" width="7" height="100"/>
	<rect x="62.862" fill="#DCDCDC" width="7" height="100"/>
	<rect x="62.862" fill="#DDDDDD" width="7" height="100"/>
	<rect x="62.862" fill="#DEDEDE" width="7" height="100"/>
	<rect x="62.862" fill="#DFDFDF" width="6" height="100"/>
	<rect x="63.862" fill="#E0E0E0" width="5" height="100"/>
	<rect x="63.862" fill="#E1E1E1" width="5" height="100"/>
	<rect x="63.862" fill="#E2E2E2" width="5" height="100"/>
	<rect x="63.862" fill="#E3E3E3" width="5" height="100"/>
	<rect x="63.862" fill="#E4E4E4" width="5" height="100"/>
</g>
<g>
	<defs>
		<polygon id="SVGID_1_" points="61.97,74.583 64.179,82.827 34.234,90.851 26.224,60.952 0,34.729 24.749,9.98 43.994,29.226 
			49.426,27.77 51.947,37.179 		"/>
	</defs>
	<clipPath id="SVGID_2_">
		<use xlink:href="#SVGID_1_"  overflow="visible"/>
	</clipPath>
	<g clip-path="url(#SVGID_2_)">
		
			<rect x="1.831" y="30.31" transform="matrix(-0.7071 -0.7071 0.7071 -0.7071 30.7735 108.3675)" fill="#4D4D4D" width="72" height="35"/>
		
			<rect x="1.831" y="30.31" transform="matrix(-0.7071 -0.7071 0.7071 -0.7071 30.7735 108.3675)" fill="#4D4D4D" width="72" height="35"/>
		
			<rect x="1.831" y="30.31" transform="matrix(-0.7071 -0.7071 0.7071 -0.7071 30.7735 108.3675)" fill="#4D4D4D" width="72" height="35"/>
		
			<rect x="1.831" y="30.41" transform="matrix(-0.7071 -0.7071 0.7071 -0.7071 30.7735 108.3675)" fill="#4E4E4E" width="72" height="34.801"/>
		
			<rect x="1.831" y="30.509" transform="matrix(-0.7071 -0.7071 0.7071 -0.7071 30.7735 108.3675)" fill="#4F4F4F" width="72" height="34.602"/>
		
			<rect x="1.831" y="30.609" transform="matrix(-0.7071 -0.7071 0.7071 -0.7071 30.7735 108.3675)" fill="#505050" width="72" height="34.403"/>
		
			<rect x="1.831" y="30.708" transform="matrix(-0.7071 -0.7071 0.7071 -0.7071 30.7735 108.3675)" fill="#515151" width="72" height="34.206"/>
		
			<rect x="1.831" y="30.807" transform="matrix(-0.7071 -0.7071 0.7071 -0.7071 30.7735 108.3675)" fill="#525252" width="72" height="34.007"/>
		
			<rect x="1.831" y="30.906" transform="matrix(-0.7071 -0.7071 0.7071 -0.7071 30.7735 108.3675)" fill="#535353" width="72" height="33.808"/>
		
			<rect x="1.831" y="31.006" transform="matrix(-0.7071 -0.7071 0.7071 -0.7071 30.7735 108.3675)" fill="#545454" width="72" height="33.609"/>
		
			<rect x="1.831" y="31.105" transform="matrix(-0.7071 -0.7071 0.7071 -0.7071 30.7735 108.3675)" fill="#555555" width="72" height="33.41"/>
		
			<rect x="1.831" y="31.205" transform="matrix(-0.7071 -0.7071 0.7071 -0.7071 30.7735 108.3675)" fill="#565656" width="72" height="33.211"/>
		
			<rect x="1.831" y="31.304" transform="matrix(-0.7071 -0.7071 0.7071 -0.7071 30.7735 108.3675)" fill="#575757" width="72" height="33.012"/>
		
			<rect x="1.831" y="31.403" transform="matrix(-0.7071 -0.7071 0.7071 -0.7071 30.7735 108.3675)" fill="#585858" width="72" height="32.815"/>
		
			<rect x="1.831" y="31.502" transform="matrix(-0.7071 -0.7071 0.7071 -0.7071 30.7735 108.3675)" fill="#595959" width="72" height="32.616"/>
		
			<rect x="1.831" y="31.602" transform="matrix(-0.7071 -0.7071 0.7071 -0.7071 30.7735 108.3675)" fill="#5A5A5A" width="72" height="32.417"/>
		
			<rect x="1.831" y="31.701" transform="matrix(-0.7071 -0.7071 0.7071 -0.7071 30.7735 108.3675)" fill="#5B5B5B" width="72" height="32.218"/>
		
			<rect x="1.831" y="31.801" transform="matrix(-0.7071 -0.7071 0.7071 -0.7071 30.7735 108.3675)" fill="#5C5C5C" width="72" height="32.019"/>
		
			<rect x="1.831" y="31.9" transform="matrix(-0.7071 -0.7071 0.7071 -0.7071 30.7735 108.3675)" fill="#5D5D5D" width="72" height="31.82"/>
		
			<rect x="1.831" y="31.999" transform="matrix(-0.7071 -0.7071 0.7071 -0.7071 30.7735 108.3675)" fill="#5E5E5E" width="72" height="31.622"/>
		
			<rect x="1.831" y="32.098" transform="matrix(-0.7071 -0.7071 0.7071 -0.7071 30.7735 108.3675)" fill="#5F5F5F" width="72" height="31.424"/>
		
			<rect x="1.831" y="32.198" transform="matrix(-0.7071 -0.7071 0.7071 -0.7071 30.7735 108.3675)" fill="#606060" width="72" height="31.225"/>
		
			<rect x="1.831" y="32.297" transform="matrix(-0.7071 -0.7071 0.7071 -0.7071 30.7735 108.3675)" fill="#616161" width="72" height="31.026"/>
		
			<rect x="1.831" y="32.397" transform="matrix(-0.7071 -0.7071 0.7071 -0.7071 30.7735 108.3675)" fill="#626262" width="72" height="30.828"/>
		
			<rect x="1.831" y="32.496" transform="matrix(-0.7071 -0.7071 0.7071 -0.7071 30.7735 108.3675)" fill="#636363" width="72" height="30.629"/>
		
			<rect x="1.831" y="32.595" transform="matrix(-0.7071 -0.7071 0.7071 -0.7071 30.7735 108.3675)" fill="#646464" width="72" height="30.43"/>
		
			<rect x="1.831" y="32.695" transform="matrix(-0.7071 -0.7071 0.7071 -0.7071 30.7735 108.3675)" fill="#656565" width="72" height="30.231"/>
		
			<rect x="1.831" y="32.794" transform="matrix(-0.7071 -0.7071 0.7071 -0.7071 30.7735 108.3675)" fill="#666666" width="72" height="30.033"/>
		
			<rect x="1.831" y="32.893" transform="matrix(-0.7071 -0.7071 0.7071 -0.7071 30.7735 108.3675)" fill="#676767" width="72" height="29.835"/>
		
			<rect x="1.831" y="32.992" transform="matrix(-0.7071 -0.7071 0.7071 -0.7071 30.7735 108.3675)" fill="#686868" width="72" height="29.636"/>
		
			<rect x="1.831" y="33.092" transform="matrix(-0.7071 -0.7071 0.7071 -0.7071 30.7735 108.3675)" fill="#696969" width="72" height="29.437"/>
		
			<rect x="1.831" y="33.191" transform="matrix(-0.7071 -0.7071 0.7071 -0.7071 30.7735 108.3675)" fill="#6A6A6A" width="72" height="29.238"/>
		
			<rect x="1.831" y="33.291" transform="matrix(-0.7071 -0.7071 0.7071 -0.7071 30.7735 108.3675)" fill="#6B6B6B" width="72" height="29.039"/>
		
			<rect x="1.831" y="33.39" transform="matrix(-0.7071 -0.7071 0.7071 -0.7071 30.7735 108.3675)" fill="#6C6C6C" width="72" height="28.84"/>
		
			<rect x="1.831" y="33.489" transform="matrix(-0.7071 -0.7071 0.7071 -0.7071 30.7735 108.3675)" fill="#6D6D6D" width="72" height="28.643"/>
		
			<rect x="1.831" y="33.588" transform="matrix(-0.7071 -0.7071 0.7071 -0.7071 30.7735 108.3675)" fill="#6E6E6E" width="72" height="28.444"/>
		
			<rect x="1.831" y="33.688" transform="matrix(-0.7071 -0.7071 0.7071 -0.7071 30.7735 108.3675)" fill="#6F6F6F" width="72" height="28.245"/>
		
			<rect x="1.831" y="33.787" transform="matrix(-0.7071 -0.7071 0.7071 -0.7071 30.7735 108.3675)" fill="#707070" width="72" height="28.046"/>
		
			<rect x="1.831" y="33.887" transform="matrix(-0.7071 -0.7071 0.7071 -0.7071 30.7735 108.3675)" fill="#717171" width="72" height="27.847"/>
		
			<rect x="1.831" y="33.986" transform="matrix(-0.7071 -0.7071 0.7071 -0.7071 30.7735 108.3675)" fill="#727272" width="72" height="27.648"/>
		
			<rect x="1.831" y="34.085" transform="matrix(-0.7071 -0.7071 0.7071 -0.7071 30.7735 108.3675)" fill="#737373" width="72" height="27.451"/>
		
			<rect x="1.831" y="34.184" transform="matrix(-0.7071 -0.7071 0.7071 -0.7071 30.7735 108.3675)" fill="#747474" width="72" height="27.252"/>
		
			<rect x="1.831" y="34.284" transform="matrix(-0.7071 -0.7071 0.7071 -0.7071 30.7735 108.3675)" fill="#757575" width="72" height="27.053"/>
		
			<rect x="1.831" y="34.383" transform="matrix(-0.7071 -0.7071 0.7071 -0.7071 30.7735 108.3675)" fill="#767676" width="72" height="26.854"/>
		
			<rect x="1.831" y="34.483" transform="matrix(-0.7071 -0.7071 0.7071 -0.7071 30.7735 108.3675)" fill="#777777" width="72" height="26.655"/>
		
			<rect x="1.831" y="34.582" transform="matrix(-0.7071 -0.7071 0.7071 -0.7071 30.7735 108.3675)" fill="#787878" width="72" height="26.456"/>
		
			<rect x="1.831" y="34.682" transform="matrix(-0.7071 -0.7071 0.7071 -0.7071 30.7735 108.3675)" fill="#797979" width="72" height="26.258"/>
		
			<rect x="1.831" y="34.78" transform="matrix(-0.7071 -0.7071 0.7071 -0.7071 30.7735 108.3675)" fill="#7A7A7A" width="72" height="26.06"/>
		
			<rect x="1.831" y="34.88" transform="matrix(-0.7071 -0.7071 0.7071 -0.7071 30.7735 108.3675)" fill="#7B7B7B" width="72" height="25.861"/>
		
			<rect x="1.831" y="34.979" transform="matrix(-0.7071 -0.7071 0.7071 -0.7071 30.7735 108.3675)" fill="#7C7C7C" width="72" height="25.662"/>
		
			<rect x="1.831" y="35.079" transform="matrix(-0.7071 -0.7071 0.7071 -0.7071 30.7735 108.3675)" fill="#7D7D7D" width="72" height="25.463"/>
		
			<rect x="1.831" y="35.178" transform="matrix(-0.7071 -0.7071 0.7071 -0.7071 30.7735 108.3675)" fill="#7E7E7E" width="72" height="25.265"/>
		
			<rect x="1.831" y="35.277" transform="matrix(-0.7071 -0.7071 0.7071 -0.7071 30.7735 108.3675)" fill="#7F7F7F" width="72" height="25.066"/>
		
			<rect x="1.831" y="35.377" transform="matrix(-0.7071 -0.7071 0.7071 -0.7071 30.7735 108.3675)" fill="#808080" width="72" height="24.867"/>
		
			<rect x="1.831" y="35.476" transform="matrix(-0.7071 -0.7071 0.7071 -0.7071 30.7735 108.3675)" fill="#818181" width="72" height="24.669"/>
		
			<rect x="1.831" y="35.575" transform="matrix(-0.7071 -0.7071 0.7071 -0.7071 30.7735 108.3675)" fill="#828282" width="72" height="24.47"/>
		
			<rect x="1.831" y="35.675" transform="matrix(-0.7071 -0.7071 0.7071 -0.7071 30.7735 108.3675)" fill="#838383" width="72" height="24.272"/>
		
			<rect x="1.831" y="35.774" transform="matrix(-0.7071 -0.7071 0.7071 -0.7071 30.7735 108.3675)" fill="#848484" width="72" height="24.073"/>
		
			<rect x="1.831" y="35.873" transform="matrix(-0.7071 -0.7071 0.7071 -0.7071 30.7735 108.3675)" fill="#858585" width="72" height="23.874"/>
		
			<rect x="1.831" y="35.973" transform="matrix(-0.7071 -0.7071 0.7071 -0.7071 30.7735 108.3675)" fill="#868686" width="72" height="23.675"/>
		
			<rect x="1.831" y="36.072" transform="matrix(-0.7071 -0.7071 0.7071 -0.7071 30.7735 108.3675)" fill="#878787" width="72" height="23.476"/>
		
			<rect x="1.831" y="36.171" transform="matrix(-0.7071 -0.7071 0.7071 -0.7071 30.7735 108.3675)" fill="#888888" width="72" height="23.279"/>
		
			<rect x="1.831" y="36.27" transform="matrix(-0.7071 -0.7071 0.7071 -0.7071 30.7735 108.3675)" fill="#898989" width="72" height="23.08"/>
		
			<rect x="1.831" y="36.37" transform="matrix(-0.7071 -0.7071 0.7071 -0.7071 30.7735 108.3675)" fill="#8A8A8A" width="72" height="22.881"/>
		
			<rect x="1.831" y="36.469" transform="matrix(-0.7071 -0.7071 0.7071 -0.7071 30.7735 108.3675)" fill="#8B8B8B" width="72" height="22.682"/>
		
			<rect x="1.831" y="36.569" transform="matrix(-0.7071 -0.7071 0.7071 -0.7071 30.7735 108.3675)" fill="#8C8C8C" width="72" height="22.483"/>
		
			<rect x="1.831" y="36.668" transform="matrix(-0.7071 -0.7071 0.7071 -0.7071 30.7735 108.3675)" fill="#8D8D8D" width="72" height="22.284"/>
		
			<rect x="1.831" y="36.768" transform="matrix(-0.7071 -0.7071 0.7071 -0.7071 30.7735 108.3675)" fill="#8E8E8E" width="72" height="22.085"/>
		
			<rect x="1.831" y="36.866" transform="matrix(-0.7071 -0.7071 0.7071 -0.7071 30.7735 108.3675)" fill="#8F8F8F" width="72" height="21.888"/>
		
			<rect x="1.831" y="36.966" transform="matrix(-0.7071 -0.7071 0.7071 -0.7071 30.7735 108.3675)" fill="#909090" width="72" height="21.689"/>
		
			<rect x="1.831" y="37.065" transform="matrix(-0.7071 -0.7071 0.7071 -0.7071 30.7735 108.3675)" fill="#919191" width="72" height="21.49"/>
		
			<rect x="1.831" y="37.165" transform="matrix(-0.7071 -0.7071 0.7071 -0.7071 30.7735 108.3675)" fill="#929292" width="72" height="21.291"/>
		
			<rect x="1.831" y="37.264" transform="matrix(-0.7071 -0.7071 0.7071 -0.7071 30.7735 108.3675)" fill="#939393" width="72" height="21.092"/>
		
			<rect x="1.831" y="37.364" transform="matrix(-0.7071 -0.7071 0.7071 -0.7071 30.7735 108.3675)" fill="#949494" width="72" height="20.893"/>
		
			<rect x="1.831" y="37.463" transform="matrix(-0.7071 -0.7071 0.7071 -0.7071 30.7735 108.3675)" fill="#959595" width="72" height="20.695"/>
		
			<rect x="1.831" y="37.562" transform="matrix(-0.7071 -0.7071 0.7071 -0.7071 30.7735 108.3675)" fill="#969696" width="72" height="20.497"/>
		
			<rect x="1.831" y="37.661" transform="matrix(-0.7071 -0.7071 0.7071 -0.7071 30.7735 108.3675)" fill="#979797" width="72" height="20.298"/>
		
			<rect x="1.831" y="37.761" transform="matrix(-0.7071 -0.7071 0.7071 -0.7071 30.7735 108.3675)" fill="#989898" width="72" height="20.099"/>
		
			<rect x="1.831" y="37.86" transform="matrix(-0.7071 -0.7071 0.7071 -0.7071 30.7735 108.3675)" fill="#999999" width="72" height="19.9"/>
		
			<rect x="1.831" y="37.959" transform="matrix(-0.7071 -0.7071 0.7071 -0.7071 30.7735 108.3675)" fill="#9A9A9A" width="72" height="19.702"/>
		
			<rect x="1.831" y="38.059" transform="matrix(-0.7071 -0.7071 0.7071 -0.7071 30.7735 108.3675)" fill="#9B9B9B" width="72" height="19.503"/>
		
			<rect x="1.831" y="38.158" transform="matrix(-0.7071 -0.7071 0.7071 -0.7071 30.7735 108.3675)" fill="#9C9C9C" width="72" height="19.304"/>
		
			<rect x="1.831" y="38.257" transform="matrix(-0.7071 -0.7071 0.7071 -0.7071 30.7735 108.3675)" fill="#9D9D9D" width="72" height="19.106"/>
		
			<rect x="1.831" y="38.357" transform="matrix(-0.7071 -0.7071 0.7071 -0.7071 30.7735 108.3675)" fill="#9E9E9E" width="72" height="18.908"/>
		
			<rect x="1.831" y="38.456" transform="matrix(-0.7071 -0.7071 0.7071 -0.7071 30.7735 108.3675)" fill="#9F9F9F" width="72" height="18.709"/>
		
			<rect x="1.831" y="38.555" transform="matrix(-0.7071 -0.7071 0.7071 -0.7071 30.7735 108.3675)" fill="#A0A0A0" width="72" height="18.51"/>
		
			<rect x="1.831" y="38.655" transform="matrix(-0.7071 -0.7071 0.7071 -0.7071 30.7735 108.3675)" fill="#A1A1A1" width="72" height="18.311"/>
		
			<rect x="1.831" y="38.754" transform="matrix(-0.7071 -0.7071 0.7071 -0.7071 30.7735 108.3675)" fill="#A2A2A2" width="72" height="18.112"/>
		
			<rect x="1.831" y="38.854" transform="matrix(-0.7071 -0.7071 0.7071 -0.7071 30.7735 108.3675)" fill="#A3A3A3" width="72" height="17.913"/>
		
			<rect x="1.831" y="38.952" transform="matrix(-0.7071 -0.7071 0.7071 -0.7071 30.7735 108.3675)" fill="#A4A4A4" width="72" height="17.716"/>
		
			<rect x="1.831" y="39.052" transform="matrix(-0.7071 -0.7071 0.7071 -0.7071 30.7735 108.3675)" fill="#A5A5A5" width="72" height="17.517"/>
		
			<rect x="1.831" y="39.151" transform="matrix(-0.7071 -0.7071 0.7071 -0.7071 30.7735 108.3675)" fill="#A6A6A6" width="72" height="17.318"/>
		
			<rect x="1.831" y="39.251" transform="matrix(-0.7071 -0.7071 0.7071 -0.7071 30.7735 108.3675)" fill="#A7A7A7" width="72" height="17.119"/>
		
			<rect x="1.831" y="39.35" transform="matrix(-0.7071 -0.7071 0.7071 -0.7071 30.7735 108.3675)" fill="#A8A8A8" width="72" height="16.92"/>
		
			<rect x="1.831" y="39.45" transform="matrix(-0.7071 -0.7071 0.7071 -0.7071 30.7735 108.3675)" fill="#A9A9A9" width="72" height="16.721"/>
		
			<rect x="1.831" y="39.548" transform="matrix(-0.7071 -0.7071 0.7071 -0.7071 30.7735 108.3675)" fill="#AAAAAA" width="72" height="16.524"/>
		
			<rect x="1.831" y="39.648" transform="matrix(-0.7071 -0.7071 0.7071 -0.7071 30.7735 108.3675)" fill="#ABABAB" width="72" height="16.325"/>
		
			<rect x="1.831" y="39.747" transform="matrix(-0.7071 -0.7071 0.7071 -0.7071 30.7735 108.3675)" fill="#ACACAC" width="72" height="16.126"/>
		
			<rect x="1.831" y="39.847" transform="matrix(-0.7071 -0.7071 0.7071 -0.7071 30.7735 108.3675)" fill="#ADADAD" width="72" height="15.927"/>
		
			<rect x="1.831" y="39.946" transform="matrix(-0.7071 -0.7071 0.7071 -0.7071 30.7735 108.3675)" fill="#AEAEAE" width="72" height="15.728"/>
		
			<rect x="1.831" y="40.046" transform="matrix(-0.7071 -0.7071 0.7071 -0.7071 30.7735 108.3675)" fill="#AFAFAF" width="72" height="15.529"/>
		
			<rect x="1.831" y="40.145" transform="matrix(-0.7071 -0.7071 0.7071 -0.7071 30.7735 108.3675)" fill="#B0B0B0" width="72" height="15.331"/>
		
			<rect x="1.831" y="40.244" transform="matrix(-0.7071 -0.7071 0.7071 -0.7071 30.7735 108.3675)" fill="#B1B1B1" width="72" height="15.133"/>
		
			<rect x="1.831" y="40.343" transform="matrix(-0.7071 -0.7071 0.7071 -0.7071 30.7735 108.3675)" fill="#B2B2B2" width="72" height="14.934"/>
		
			<rect x="1.831" y="40.443" transform="matrix(-0.7071 -0.7071 0.7071 -0.7071 30.7735 108.3675)" fill="#B3B3B3" width="72" height="14.735"/>
		
			<rect x="1.831" y="40.542" transform="matrix(-0.7071 -0.7071 0.7071 -0.7071 30.7735 108.3675)" fill="#B4B4B4" width="72" height="14.536"/>
		
			<rect x="1.831" y="40.642" transform="matrix(-0.7071 -0.7071 0.7071 -0.7071 30.7735 108.3675)" fill="#B5B5B5" width="72" height="14.338"/>
		
			<rect x="1.831" y="40.741" transform="matrix(-0.7071 -0.7071 0.7071 -0.7071 30.7735 108.3675)" fill="#B6B6B6" width="72" height="14.139"/>
		
			<rect x="1.831" y="40.84" transform="matrix(-0.7071 -0.7071 0.7071 -0.7071 30.7735 108.3675)" fill="#B7B7B7" width="72" height="13.94"/>
		
			<rect x="1.831" y="40.939" transform="matrix(-0.7071 -0.7071 0.7071 -0.7071 30.7735 108.3675)" fill="#B8B8B8" width="72" height="13.742"/>
		
			<rect x="1.831" y="41.039" transform="matrix(-0.7071 -0.7071 0.7071 -0.7071 30.7735 108.3675)" fill="#B9B9B9" width="72" height="13.543"/>
		
			<rect x="1.831" y="41.138" transform="matrix(-0.7071 -0.7071 0.7071 -0.7071 30.7735 108.3675)" fill="#BABABA" width="72" height="13.345"/>
		
			<rect x="1.831" y="41.237" transform="matrix(-0.7071 -0.7071 0.7071 -0.7071 30.7735 108.3675)" fill="#BBBBBB" width="72" height="13.146"/>
		
			<rect x="1.831" y="41.337" transform="matrix(-0.7071 -0.7071 0.7071 -0.7071 30.7735 108.3675)" fill="#BCBCBC" width="72" height="12.947"/>
		
			<rect x="1.831" y="41.436" transform="matrix(-0.7071 -0.7071 0.7071 -0.7071 30.7735 108.3675)" fill="#BDBDBD" width="72" height="12.748"/>
		
			<rect x="1.831" y="41.536" transform="matrix(-0.7071 -0.7071 0.7071 -0.7071 30.7735 108.3675)" fill="#BEBEBE" width="72" height="12.549"/>
		
			<rect x="1.831" y="41.635" transform="matrix(-0.7071 -0.7071 0.7071 -0.7071 30.7735 108.3675)" fill="#BFBFBF" width="72" height="12.352"/>
		
			<rect x="1.831" y="41.734" transform="matrix(-0.7071 -0.7071 0.7071 -0.7071 30.7735 108.3675)" fill="#C0C0C0" width="72" height="12.153"/>
		
			<rect x="1.831" y="41.833" transform="matrix(-0.7071 -0.7071 0.7071 -0.7071 30.7735 108.3675)" fill="#C1C1C1" width="72" height="11.954"/>
		
			<rect x="1.831" y="41.933" transform="matrix(-0.7071 -0.7071 0.7071 -0.7071 30.7735 108.3675)" fill="#C2C2C2" width="72" height="11.755"/>
		
			<rect x="1.831" y="42.032" transform="matrix(-0.7071 -0.7071 0.7071 -0.7071 30.7735 108.3675)" fill="#C3C3C3" width="72" height="11.556"/>
		
			<rect x="1.831" y="42.132" transform="matrix(-0.7071 -0.7071 0.7071 -0.7071 30.7735 108.3675)" fill="#C4C4C4" width="72" height="11.357"/>
		
			<rect x="1.831" y="42.231" transform="matrix(-0.7071 -0.7071 0.7071 -0.7071 30.7735 108.3675)" fill="#C5C5C5" width="72" height="11.158"/>
		
			<rect x="1.831" y="42.33" transform="matrix(-0.7071 -0.7071 0.7071 -0.7071 30.7735 108.3675)" fill="#C6C6C6" width="72" height="10.961"/>
		
			<rect x="1.831" y="42.429" transform="matrix(-0.7071 -0.7071 0.7071 -0.7071 30.7735 108.3675)" fill="#C7C7C7" width="72" height="10.762"/>
		
			<rect x="1.831" y="42.529" transform="matrix(-0.7071 -0.7071 0.7071 -0.7071 30.7735 108.3675)" fill="#C8C8C8" width="72" height="10.563"/>
		
			<rect x="1.831" y="42.628" transform="matrix(-0.7071 -0.7071 0.7071 -0.7071 30.7735 108.3675)" fill="#C9C9C9" width="72" height="10.364"/>
		
			<rect x="1.831" y="42.728" transform="matrix(-0.7071 -0.7071 0.7071 -0.7071 30.7735 108.3675)" fill="#CACACA" width="72" height="10.165"/>
		
			<rect x="1.831" y="42.827" transform="matrix(-0.7071 -0.7071 0.7071 -0.7071 30.7735 108.3675)" fill="#CBCBCB" width="72" height="9.966"/>
		
			<rect x="1.831" y="42.927" transform="matrix(-0.7071 -0.7071 0.7071 -0.7071 30.7735 108.3675)" fill="#CCCCCC" width="72" height="9.768"/>
		
			<rect x="1.831" y="43.025" transform="matrix(-0.7071 -0.7071 0.7071 -0.7071 30.7735 108.3675)" fill="#CDCDCD" width="72" height="9.57"/>
		
			<rect x="1.831" y="43.125" transform="matrix(-0.7071 -0.7071 0.7071 -0.7071 30.7735 108.3675)" fill="#CECECE" width="72" height="9.371"/>
		
			<rect x="1.831" y="43.224" transform="matrix(-0.7071 -0.7071 0.7071 -0.7071 30.7735 108.3675)" fill="#CFCFCF" width="72" height="9.172"/>
		
			<rect x="1.831" y="43.324" transform="matrix(-0.7071 -0.7071 0.7071 -0.7071 30.7735 108.3675)" fill="#D0D0D0" width="72" height="8.973"/>
		
			<rect x="1.831" y="43.423" transform="matrix(-0.7071 -0.7071 0.7071 -0.7071 30.7735 108.3675)" fill="#D1D1D1" width="72" height="8.775"/>
		
			<rect x="1.831" y="43.522" transform="matrix(-0.7071 -0.7071 0.7071 -0.7071 30.7735 108.3675)" fill="#D2D2D2" width="72" height="8.576"/>
		
			<rect x="1.831" y="43.621" transform="matrix(-0.7071 -0.7071 0.7071 -0.7071 30.7735 108.3675)" fill="#D3D3D3" width="72" height="8.378"/>
		
			<rect x="1.831" y="43.721" transform="matrix(-0.7071 -0.7071 0.7071 -0.7071 30.7735 108.3675)" fill="#D4D4D4" width="72" height="8.179"/>
		
			<rect x="1.831" y="43.82" transform="matrix(-0.7071 -0.7071 0.7071 -0.7071 30.7735 108.3675)" fill="#D5D5D5" width="72" height="7.981"/>
		
			<rect x="1.831" y="43.919" transform="matrix(-0.7071 -0.7071 0.7071 -0.7071 30.7735 108.3675)" fill="#D6D6D6" width="72" height="7.782"/>
		
			<rect x="1.831" y="44.019" transform="matrix(-0.7071 -0.7071 0.7071 -0.7071 30.7735 108.3675)" fill="#D7D7D7" width="72" height="7.583"/>
		
			<rect x="1.831" y="44.118" transform="matrix(-0.7071 -0.7071 0.7071 -0.7071 30.7735 108.3675)" fill="#D8D8D8" width="72" height="7.384"/>
		
			<rect x="1.831" y="44.218" transform="matrix(-0.7071 -0.7071 0.7071 -0.7071 30.7735 108.3675)" fill="#D9D9D9" width="72" height="7.185"/>
		
			<rect x="1.831" y="44.317" transform="matrix(-0.7071 -0.7071 0.7071 -0.7071 30.7735 108.3675)" fill="#DADADA" width="72" height="6.988"/>
		
			<rect x="1.831" y="44.416" transform="matrix(-0.7071 -0.7071 0.7071 -0.7071 30.7735 108.3675)" fill="#DBDBDB" width="72" height="6.789"/>
		
			<rect x="1.831" y="44.515" transform="matrix(-0.7071 -0.7071 0.7071 -0.7071 30.7735 108.3675)" fill="#DCDCDC" width="72" height="6.59"/>
		
			<rect x="1.831" y="44.615" transform="matrix(-0.7071 -0.7071 0.7071 -0.7071 30.7735 108.3675)" fill="#DDDDDD" width="72" height="6.391"/>
		
			<rect x="1.831" y="44.714" transform="matrix(-0.7071 -0.7071 0.7071 -0.7071 30.7735 108.3675)" fill="#DEDEDE" width="72" height="6.192"/>
		
			<rect x="1.831" y="44.814" transform="matrix(-0.7071 -0.7071 0.7071 -0.7071 30.7735 108.3675)" fill="#DFDFDF" width="72" height="5.993"/>
		
			<rect x="1.831" y="44.913" transform="matrix(-0.7071 -0.7071 0.7071 -0.7071 30.7735 108.3675)" fill="#E0E0E0" width="72" height="5.794"/>
		
			<rect x="1.831" y="45.012" transform="matrix(-0.7071 -0.7071 0.7071 -0.7071 30.7735 108.3675)" fill="#E1E1E1" width="72" height="5.597"/>
		
			<rect x="1.831" y="45.111" transform="matrix(-0.7071 -0.7071 0.7071 -0.7071 30.7735 108.3675)" fill="#E2E2E2" width="72" height="5.398"/>
		
			<rect x="1.831" y="45.211" transform="matrix(-0.7071 -0.7071 0.7071 -0.7071 30.7735 108.3675)" fill="#E3E3E3" width="72" height="5.199"/>
		
			<rect x="1.831" y="45.31" transform="matrix(-0.7071 -0.7071 0.7071 -0.7071 30.7735 108.3675)" fill="#E4E4E4" width="72" height="5"/>
	</g>
</g>
</svg>
