<?xml version="1.0" encoding="utf-8"?>
<!-- Generator: Adobe Illustrator 15.0.0, SVG Export Plug-In  -->
<!DOCTYPE svg PUBLIC "-//W3C//DTD SVG 1.1//EN" "http://www.w3.org/Graphics/SVG/1.1/DTD/svg11.dtd" [
	<!ENTITY ns_flows "http://ns.adobe.com/Flows/1.0/">
]>
<svg version="1.1"
	 xmlns="http://www.w3.org/2000/svg" xmlns:xlink="http://www.w3.org/1999/xlink" xmlns:a="http://ns.adobe.com/AdobeSVGViewerExtensions/3.0/"
	 x="0px" y="0px" width="70px" height="35px" viewBox="0.516 -0.016 70 35" enable-background="new 0.516 -0.016 70 35"
	 xml:space="preserve">
<defs>
</defs>
<g>
	<polygon fill="#4D4D4D" points="31.016,0 42.016,10 42.016,25 31.016,35 	"/>
	<polygon fill="#4E4E4E" points="31.016,0.099 42.016,10.033 42.016,24.967 31.016,34.901 	"/>
	<polygon fill="#4F4F4F" points="31.016,0.199 42.016,10.066 42.016,24.934 31.016,34.801 	"/>
	<polygon fill="#505050" points="31.016,0.298 42.016,10.099 42.016,24.901 31.016,34.702 	"/>
	<polygon fill="#515151" points="31.016,0.397 42.016,10.132 42.016,24.868 31.016,34.603 	"/>
	<polygon fill="#525252" points="31.016,0.497 42.016,10.166 42.016,24.834 31.016,34.503 	"/>
	<polygon fill="#535353" points="31.016,0.596 42.016,10.199 42.016,24.801 31.016,34.404 	"/>
	<polygon fill="#545454" points="31.016,0.695 42.016,10.232 42.016,24.768 31.016,34.305 	"/>
	<polygon fill="#555555" points="31.016,0.795 42.016,10.265 42.016,24.735 31.016,34.205 	"/>
	<polygon fill="#565656" points="31.016,0.894 42.016,10.298 42.016,24.702 31.016,34.106 	"/>
	<polygon fill="#575757" points="31.016,0.993 42.016,10.331 42.016,24.669 31.016,34.007 	"/>
	<polygon fill="#585858" points="31.016,1.093 42.016,10.364 42.016,24.636 31.016,33.907 	"/>
	<polygon fill="#595959" points="31.016,1.192 42.016,10.397 42.016,24.603 31.016,33.808 	"/>
	<polygon fill="#5A5A5A" points="31.016,1.292 42.016,10.431 42.016,24.569 31.016,33.708 	"/>
	<polygon fill="#5B5B5B" points="31.016,1.391 42.016,10.463 42.016,24.537 31.016,33.609 	"/>
	<polygon fill="#5C5C5C" points="31.016,1.49 42.016,10.497 42.016,24.503 31.016,33.51 	"/>
	<polygon fill="#5D5D5D" points="31.016,1.589 42.016,10.53 42.016,24.47 31.016,33.411 	"/>
	<polygon fill="#5E5E5E" points="31.016,1.689 42.016,10.563 42.016,24.437 31.016,33.311 	"/>
	<polygon fill="#5F5F5F" points="31.016,1.788 42.016,10.596 42.016,24.404 31.016,33.212 	"/>
	<polygon fill="#606060" points="31.016,1.887 42.016,10.629 42.016,24.371 31.016,33.113 	"/>
	<polygon fill="#616161" points="31.016,1.987 42.016,10.662 42.016,24.338 31.016,33.013 	"/>
	<polygon fill="#626262" points="31.016,2.086 42.016,10.695 42.016,24.305 31.016,32.914 	"/>
	<polygon fill="#636363" points="31.016,2.186 42.016,10.729 42.016,24.271 31.016,32.814 	"/>
	<polygon fill="#646464" points="31.016,2.285 42.016,10.762 42.016,24.238 31.016,32.715 	"/>
	<polygon fill="#656565" points="31.016,2.384 42.016,10.795 42.016,24.205 31.016,32.616 	"/>
	<polygon fill="#666666" points="31.016,2.483 42.016,10.828 42.016,24.172 31.016,32.517 	"/>
	<polygon fill="#676767" points="31.016,2.583 42.016,10.861 42.016,24.139 31.016,32.417 	"/>
	<polygon fill="#686868" points="31.016,2.682 42.016,10.894 42.016,24.106 31.016,32.318 	"/>
	<polygon fill="#696969" points="31.016,2.781 42.016,10.927 42.016,24.073 31.016,32.219 	"/>
	<polygon fill="#6A6A6A" points="31.016,2.881 42.016,10.96 42.016,24.04 31.016,32.119 	"/>
	<polygon fill="#6B6B6B" points="31.016,2.98 42.016,10.993 42.016,24.007 31.016,32.02 	"/>
	<polygon fill="#6C6C6C" points="31.016,3.08 42.016,11.026 42.016,23.974 31.016,31.92 	"/>
	<polygon fill="#6D6D6D" points="31.016,3.179 42.016,11.06 42.016,23.94 31.016,31.821 	"/>
	<polygon fill="#6E6E6E" points="31.016,3.278 42.016,11.093 42.016,23.907 31.016,31.722 	"/>
	<polygon fill="#6F6F6F" points="31.016,3.377 42.016,11.126 42.016,23.874 31.016,31.623 	"/>
	<polygon fill="#707070" points="31.016,3.477 42.016,11.159 42.016,23.841 31.016,31.523 	"/>
	<polygon fill="#717171" points="31.016,3.576 42.016,11.192 42.016,23.808 31.016,31.424 	"/>
	<polygon fill="#727272" points="31.016,3.675 42.016,11.225 42.016,23.775 31.016,31.325 	"/>
	<polygon fill="#737373" points="31.016,3.775 42.016,11.258 42.016,23.742 31.016,31.225 	"/>
	<polygon fill="#747474" points="31.016,3.874 42.016,11.292 42.016,23.708 31.016,31.126 	"/>
	<polygon fill="#757575" points="31.016,3.974 42.016,11.325 42.016,23.675 31.016,31.026 	"/>
	<polygon fill="#767676" points="31.016,4.073 42.016,11.357 42.016,23.643 31.016,30.927 	"/>
	<polygon fill="#777777" points="31.016,4.172 42.016,11.391 42.016,23.609 31.016,30.828 	"/>
	<polygon fill="#787878" points="31.016,4.271 42.016,11.424 42.016,23.576 31.016,30.729 	"/>
	<polygon fill="#797979" points="31.016,4.371 42.016,11.457 42.016,23.543 31.016,30.629 	"/>
	<polygon fill="#7A7A7A" points="31.016,4.47 42.016,11.49 42.016,23.51 31.016,30.53 	"/>
	<polygon fill="#7B7B7B" points="31.016,4.569 42.016,11.523 42.016,23.477 31.016,30.431 	"/>
	<polygon fill="#7C7C7C" points="31.016,4.669 42.016,11.556 42.016,23.444 31.016,30.331 	"/>
	<polygon fill="#7D7D7D" points="31.016,4.768 42.016,11.589 42.016,23.411 31.016,30.232 	"/>
	<polygon fill="#7E7E7E" points="31.016,4.868 42.016,11.623 42.016,23.377 31.016,30.132 	"/>
	<polygon fill="#7F7F7F" points="31.016,4.967 42.016,11.656 42.016,23.344 31.016,30.033 	"/>
	<polygon fill="#808080" points="31.016,5.066 42.016,11.689 42.016,23.311 31.016,29.934 	"/>
	<polygon fill="#818181" points="31.016,5.166 42.016,11.722 42.016,23.278 31.016,29.834 	"/>
	<polygon fill="#828282" points="31.016,5.265 42.016,11.755 42.016,23.245 31.016,29.735 	"/>
	<polygon fill="#838383" points="31.016,5.364 42.016,11.788 42.016,23.212 31.016,29.636 	"/>
	<polygon fill="#848484" points="31.016,5.463 42.016,11.821 42.016,23.179 31.016,29.537 	"/>
	<polygon fill="#858585" points="31.016,5.563 42.016,11.854 42.016,23.146 31.016,29.437 	"/>
	<polygon fill="#868686" points="31.016,5.662 42.016,11.887 42.016,23.113 31.016,29.338 	"/>
	<polygon fill="#878787" points="31.016,5.762 42.016,11.92 42.016,23.08 31.016,29.238 	"/>
	<polygon fill="#888888" points="31.016,5.861 42.016,11.954 42.016,23.046 31.016,29.139 	"/>
	<polygon fill="#898989" points="31.016,5.96 42.016,11.987 42.016,23.013 31.016,29.04 	"/>
	<polygon fill="#8A8A8A" points="31.016,6.06 42.016,12.02 42.016,22.98 31.016,28.94 	"/>
	<polygon fill="#8B8B8B" points="31.016,6.159 42.016,12.053 42.016,22.947 31.016,28.841 	"/>
	<polygon fill="#8C8C8C" points="31.016,6.258 42.016,12.086 42.016,22.914 31.016,28.742 	"/>
	<polygon fill="#8D8D8D" points="31.016,6.357 42.016,12.119 42.016,22.881 31.016,28.643 	"/>
	<polygon fill="#8E8E8E" points="31.016,6.457 42.016,12.152 42.016,22.848 31.016,28.543 	"/>
	<polygon fill="#8F8F8F" points="31.016,6.556 42.016,12.186 42.016,22.814 31.016,28.444 	"/>
	<polygon fill="#909090" points="31.016,6.656 42.016,12.219 42.016,22.781 31.016,28.344 	"/>
	<polygon fill="#919191" points="31.016,6.755 42.016,12.251 42.016,22.749 31.016,28.245 	"/>
	<polygon fill="#929292" points="31.016,6.854 42.016,12.285 42.016,22.715 31.016,28.146 	"/>
	<polygon fill="#939393" points="31.016,6.954 42.016,12.318 42.016,22.682 31.016,28.046 	"/>
	<polygon fill="#949494" points="31.016,7.053 42.016,12.351 42.016,22.649 31.016,27.947 	"/>
	<polygon fill="#959595" points="31.016,7.152 42.016,12.384 42.016,22.616 31.016,27.848 	"/>
	<polygon fill="#969696" points="31.016,7.251 42.016,12.417 42.016,22.583 31.016,27.749 	"/>
	<polygon fill="#979797" points="31.016,7.351 42.016,12.45 42.016,22.55 31.016,27.649 	"/>
	<polygon fill="#989898" points="31.016,7.45 42.016,12.483 42.016,22.517 31.016,27.55 	"/>
	<polygon fill="#999999" points="31.016,7.55 42.016,12.517 42.016,22.483 31.016,27.45 	"/>
	<polygon fill="#9A9A9A" points="31.016,7.649 42.016,12.55 42.016,22.45 31.016,27.351 	"/>
	<polygon fill="#9B9B9B" points="31.016,7.749 42.016,12.583 42.016,22.417 31.016,27.251 	"/>
	<polygon fill="#9C9C9C" points="31.016,7.848 42.016,12.616 42.016,22.384 31.016,27.152 	"/>
	<polygon fill="#9D9D9D" points="31.016,7.947 42.016,12.649 42.016,22.351 31.016,27.053 	"/>
	<polygon fill="#9E9E9E" points="31.016,8.046 42.016,12.682 42.016,22.318 31.016,26.954 	"/>
	<polygon fill="#9F9F9F" points="31.016,8.146 42.016,12.715 42.016,22.285 31.016,26.854 	"/>
	<polygon fill="#A0A0A0" points="31.016,8.245 42.016,12.749 42.016,22.251 31.016,26.755 	"/>
	<polygon fill="#A1A1A1" points="31.016,8.344 42.016,12.781 42.016,22.219 31.016,26.656 	"/>
	<polygon fill="#A2A2A2" points="31.016,8.444 42.016,12.814 42.016,22.186 31.016,26.556 	"/>
	<polygon fill="#A3A3A3" points="31.016,8.543 42.016,12.848 42.016,22.152 31.016,26.457 	"/>
	<polygon fill="#A4A4A4" points="31.016,8.643 42.016,12.881 42.016,22.119 31.016,26.357 	"/>
	<polygon fill="#A5A5A5" points="31.016,8.742 42.016,12.914 42.016,22.086 31.016,26.258 	"/>
	<polygon fill="#A6A6A6" points="31.016,8.841 42.016,12.947 42.016,22.053 31.016,26.159 	"/>
	<polygon fill="#A7A7A7" points="31.016,8.94 42.016,12.98 42.016,22.02 31.016,26.06 	"/>
	<polygon fill="#A8A8A8" points="31.016,9.04 42.016,13.013 42.016,21.987 31.016,25.96 	"/>
	<polygon fill="#A9A9A9" points="31.016,9.139 42.016,13.046 42.016,21.954 31.016,25.861 	"/>
	<polygon fill="#AAAAAA" points="31.016,9.238 42.016,13.08 42.016,21.92 31.016,25.762 	"/>
	<polygon fill="#ABABAB" points="31.016,9.338 42.016,13.113 42.016,21.887 31.016,25.662 	"/>
	<polygon fill="#ACACAC" points="31.016,9.437 42.016,13.146 42.016,21.854 31.016,25.563 	"/>
	<polygon fill="#ADADAD" points="31.016,9.537 42.016,13.179 42.016,21.821 31.016,25.463 	"/>
	<polygon fill="#AEAEAE" points="31.016,9.636 42.016,13.212 42.016,21.788 31.016,25.364 	"/>
	<polygon fill="#AFAFAF" points="31.016,9.735 42.016,13.245 42.016,21.755 31.016,25.265 	"/>
	<polygon fill="#B0B0B0" points="31.016,9.834 42.016,13.278 42.016,21.722 31.016,25.166 	"/>
	<polygon fill="#B1B1B1" points="31.016,9.934 42.016,13.311 42.016,21.689 31.016,25.066 	"/>
	<polygon fill="#B2B2B2" points="31.016,10.033 42.016,13.344 42.016,21.656 31.016,24.967 	"/>
	<polygon fill="#B3B3B3" points="31.016,10.132 42.016,13.377 42.016,21.623 31.016,24.868 	"/>
	<polygon fill="#B4B4B4" points="31.016,10.232 42.016,13.411 42.016,21.589 31.016,24.768 	"/>
	<polygon fill="#B5B5B5" points="31.016,10.331 42.016,13.444 42.016,21.556 31.016,24.669 	"/>
	<polygon fill="#B6B6B6" points="31.016,10.431 42.016,13.477 42.016,21.523 31.016,24.569 	"/>
	<polygon fill="#B7B7B7" points="31.016,10.53 42.016,13.51 42.016,21.49 31.016,24.47 	"/>
	<polygon fill="#B8B8B8" points="31.016,10.629 42.016,13.543 42.016,21.457 31.016,24.371 	"/>
	<polygon fill="#B9B9B9" points="31.016,10.729 42.016,13.576 42.016,21.424 31.016,24.271 	"/>
	<polygon fill="#BABABA" points="31.016,10.828 42.016,13.609 42.016,21.391 31.016,24.172 	"/>
	<polygon fill="#BBBBBB" points="31.016,10.927 42.016,13.643 42.016,21.357 31.016,24.073 	"/>
	<polygon fill="#BCBCBC" points="31.016,11.026 42.016,13.675 42.016,21.325 31.016,23.974 	"/>
	<polygon fill="#BDBDBD" points="31.016,11.126 42.016,13.708 42.016,21.292 31.016,23.874 	"/>
	<polygon fill="#BEBEBE" points="31.016,11.225 42.016,13.742 42.016,21.258 31.016,23.775 	"/>
	<polygon fill="#BFBFBF" points="31.016,11.325 42.016,13.775 42.016,21.225 31.016,23.675 	"/>
	<polygon fill="#C0C0C0" points="31.016,11.424 42.016,13.808 42.016,21.192 31.016,23.576 	"/>
	<polygon fill="#C1C1C1" points="31.016,11.523 42.016,13.841 42.016,21.159 31.016,23.477 	"/>
	<polygon fill="#C2C2C2" points="31.016,11.623 42.016,13.874 42.016,21.126 31.016,23.377 	"/>
	<polygon fill="#C3C3C3" points="31.016,11.722 42.016,13.907 42.016,21.093 31.016,23.278 	"/>
	<polygon fill="#C4C4C4" points="31.016,11.821 42.016,13.94 42.016,21.06 31.016,23.179 	"/>
	<polygon fill="#C5C5C5" points="31.016,11.92 42.016,13.974 42.016,21.026 31.016,23.08 	"/>
	<polygon fill="#C6C6C6" points="31.016,12.02 42.016,14.007 42.016,20.993 31.016,22.98 	"/>
	<polygon fill="#C7C7C7" points="31.016,12.119 42.016,14.04 42.016,20.96 31.016,22.881 	"/>
	<polygon fill="#C8C8C8" points="31.016,12.219 42.016,14.073 42.016,20.927 31.016,22.781 	"/>
	<polygon fill="#C9C9C9" points="31.016,12.318 42.016,14.106 42.016,20.894 31.016,22.682 	"/>
	<polygon fill="#CACACA" points="31.016,12.417 42.016,14.139 42.016,20.861 31.016,22.583 	"/>
	<polygon fill="#CBCBCB" points="31.016,12.517 42.016,14.172 42.016,20.828 31.016,22.483 	"/>
	<polygon fill="#CCCCCC" points="31.016,12.616 42.016,14.205 42.016,20.795 31.016,22.384 	"/>
	<polygon fill="#CDCDCD" points="31.016,12.715 42.016,14.238 42.016,20.762 31.016,22.285 	"/>
	<polygon fill="#CECECE" points="31.016,12.814 42.016,14.271 42.016,20.729 31.016,22.186 	"/>
	<polygon fill="#CFCFCF" points="31.016,12.914 42.016,14.305 42.016,20.695 31.016,22.086 	"/>
	<polygon fill="#D0D0D0" points="31.016,13.013 42.016,14.338 42.016,20.662 31.016,21.987 	"/>
	<polygon fill="#D1D1D1" points="31.016,13.113 42.016,14.371 42.016,20.629 31.016,21.887 	"/>
	<polygon fill="#D2D2D2" points="31.016,13.212 42.016,14.404 42.016,20.596 31.016,21.788 	"/>
	<polygon fill="#D3D3D3" points="31.016,13.311 42.016,14.437 42.016,20.563 31.016,21.689 	"/>
	<polygon fill="#D4D4D4" points="31.016,13.411 42.016,14.47 42.016,20.53 31.016,21.589 	"/>
	<polygon fill="#D5D5D5" points="31.016,13.51 42.016,14.503 42.016,20.497 31.016,21.49 	"/>
	<polygon fill="#D6D6D6" points="31.016,13.609 42.016,14.537 42.016,20.463 31.016,21.391 	"/>
	<polygon fill="#D7D7D7" points="31.016,13.708 42.016,14.569 42.016,20.431 31.016,21.292 	"/>
	<polygon fill="#D8D8D8" points="31.016,13.808 42.016,14.603 42.016,20.397 31.016,21.192 	"/>
	<polygon fill="#D9D9D9" points="31.016,13.907 42.016,14.636 42.016,20.364 31.016,21.093 	"/>
	<polygon fill="#DADADA" points="31.016,14.007 42.016,14.669 42.016,20.331 31.016,20.993 	"/>
	<polygon fill="#DBDBDB" points="31.016,14.106 42.016,14.702 42.016,20.298 31.016,20.894 	"/>
	<polygon fill="#DCDCDC" points="31.016,14.205 42.016,14.735 42.016,20.265 31.016,20.795 	"/>
	<polygon fill="#DDDDDD" points="31.016,14.305 42.016,14.768 42.016,20.232 31.016,20.695 	"/>
	<polygon fill="#DEDEDE" points="31.016,14.404 42.016,14.801 42.016,20.199 31.016,20.596 	"/>
	<polygon fill="#DFDFDF" points="31.016,14.503 42.016,14.834 42.016,20.166 31.016,20.497 	"/>
	<polygon fill="#E0E0E0" points="31.016,14.603 42.016,14.868 42.016,20.132 31.016,20.397 	"/>
	<polygon fill="#E1E1E1" points="31.016,14.702 42.016,14.901 42.016,20.099 31.016,20.298 	"/>
	<polygon fill="#E2E2E2" points="31.016,14.801 42.016,14.934 42.016,20.066 31.016,20.199 	"/>
	<polygon fill="#E3E3E3" points="31.016,14.901 42.016,14.967 42.016,20.033 31.016,20.099 	"/>
	<rect x="31.016" y="15.484" fill="#E4E4E4" width="11" height="5"/>
</g>
<g>
	<rect x="0.016" y="0.484" fill="#4D4D4D" width="31" height="35"/>
	<rect x="0.016" y="0.484" fill="#4E4E4E" width="31" height="34"/>
	<rect x="0.016" y="0.484" fill="#4F4F4F" width="31" height="34"/>
	<rect x="0.016" y="0.484" fill="#505050" width="31" height="34"/>
	<rect x="0.016" y="0.484" fill="#515151" width="31" height="34"/>
	<rect x="0.016" y="0.484" fill="#525252" width="31" height="34"/>
	<rect x="0.016" y="0.484" fill="#535353" width="31" height="34"/>
	<rect x="0.016" y="0.484" fill="#545454" width="31" height="34"/>
	<rect x="0.016" y="0.484" fill="#555555" width="31" height="34"/>
	<rect x="0.016" y="0.484" fill="#565656" width="31" height="34"/>
	<rect x="0.016" y="1.484" fill="#575757" width="31" height="33"/>
	<rect x="0.016" y="1.484" fill="#585858" width="31" height="32"/>
	<rect x="0.016" y="1.484" fill="#595959" width="31" height="32"/>
	<rect x="0.016" y="1.484" fill="#5A5A5A" width="31" height="32"/>
	<rect x="0.016" y="1.484" fill="#5B5B5B" width="31" height="32"/>
	<rect x="0.016" y="1.484" fill="#5C5C5C" width="31" height="32"/>
	<rect x="0.016" y="1.484" fill="#5D5D5D" width="31" height="32"/>
	<rect x="0.016" y="1.484" fill="#5E5E5E" width="31" height="32"/>
	<rect x="0.016" y="1.484" fill="#5F5F5F" width="31" height="32"/>
	<rect x="0.016" y="1.484" fill="#606060" width="31" height="32"/>
	<rect x="0.016" y="2.484" fill="#616161" width="31" height="31"/>
	<rect x="0.016" y="2.484" fill="#626262" width="31" height="30"/>
	<rect x="0.016" y="2.484" fill="#636363" width="31" height="30"/>
	<rect x="0.016" y="2.484" fill="#646464" width="31" height="30"/>
	<rect x="0.016" y="2.484" fill="#656565" width="31" height="30"/>
	<rect x="0.016" y="2.484" fill="#666666" width="31" height="30"/>
	<rect x="0.016" y="2.484" fill="#676767" width="31" height="30"/>
	<rect x="0.016" y="2.484" fill="#686868" width="31" height="30"/>
	<rect x="0.016" y="2.484" fill="#696969" width="31" height="30"/>
	<rect x="0.016" y="2.484" fill="#6A6A6A" width="31" height="30"/>
	<rect x="0.016" y="2.484" fill="#6B6B6B" width="31" height="30"/>
	<rect x="0.016" y="3.484" fill="#6C6C6C" width="31" height="28"/>
	<rect x="0.016" y="3.484" fill="#6D6D6D" width="31" height="28"/>
	<rect x="0.016" y="3.484" fill="#6E6E6E" width="31" height="28"/>
	<rect x="0.016" y="3.484" fill="#6F6F6F" width="31" height="28"/>
	<rect x="0.016" y="3.484" fill="#707070" width="31" height="28"/>
	<rect x="0.016" y="3.484" fill="#717171" width="31" height="28"/>
	<rect x="0.016" y="3.484" fill="#727272" width="31" height="28"/>
	<rect x="0.016" y="3.484" fill="#737373" width="31" height="28"/>
	<rect x="0.016" y="3.484" fill="#747474" width="31" height="28"/>
	<rect x="0.016" y="3.484" fill="#757575" width="31" height="28"/>
	<rect x="0.016" y="4.484" fill="#767676" width="31" height="26"/>
	<rect x="0.016" y="4.484" fill="#777777" width="31" height="26"/>
	<rect x="0.016" y="4.484" fill="#787878" width="31" height="26"/>
	<rect x="0.016" y="4.484" fill="#797979" width="31" height="26"/>
	<rect x="0.016" y="4.484" fill="#7A7A7A" width="31" height="26"/>
	<rect x="0.016" y="4.484" fill="#7B7B7B" width="31" height="26"/>
	<rect x="0.016" y="4.484" fill="#7C7C7C" width="31" height="26"/>
	<rect x="0.016" y="4.484" fill="#7D7D7D" width="31" height="26"/>
	<rect x="0.016" y="4.484" fill="#7E7E7E" width="31" height="26"/>
	<rect x="0.016" y="4.484" fill="#7F7F7F" width="31" height="26"/>
	<rect x="0.016" y="5.484" fill="#808080" width="31" height="24"/>
	<rect x="0.016" y="5.484" fill="#818181" width="31" height="24"/>
	<rect x="0.016" y="5.484" fill="#828282" width="31" height="24"/>
	<rect x="0.016" y="5.484" fill="#838383" width="31" height="24"/>
	<rect x="0.016" y="5.484" fill="#848484" width="31" height="24"/>
	<rect x="0.016" y="5.484" fill="#858585" width="31" height="24"/>
	<rect x="0.016" y="5.484" fill="#868686" width="31" height="24"/>
	<rect x="0.016" y="5.484" fill="#878787" width="31" height="24"/>
	<rect x="0.016" y="5.484" fill="#888888" width="31" height="24"/>
	<rect x="0.016" y="5.484" fill="#898989" width="31" height="24"/>
	<rect x="0.016" y="6.484" fill="#8A8A8A" width="31" height="22"/>
	<rect x="0.016" y="6.484" fill="#8B8B8B" width="31" height="22"/>
	<rect x="0.016" y="6.484" fill="#8C8C8C" width="31" height="22"/>
	<rect x="0.016" y="6.484" fill="#8D8D8D" width="31" height="22"/>
	<rect x="0.016" y="6.484" fill="#8E8E8E" width="31" height="22"/>
	<rect x="0.016" y="6.484" fill="#8F8F8F" width="31" height="22"/>
	<rect x="0.016" y="6.484" fill="#909090" width="31" height="22"/>
	<rect x="0.016" y="6.484" fill="#919191" width="31" height="22"/>
	<rect x="0.016" y="6.484" fill="#929292" width="31" height="22"/>
	<rect x="0.016" y="6.484" fill="#939393" width="31" height="22"/>
	<rect x="0.016" y="7.484" fill="#949494" width="31" height="20"/>
	<rect x="0.016" y="7.484" fill="#959595" width="31" height="20"/>
	<rect x="0.016" y="7.484" fill="#969696" width="31" height="20"/>
	<rect x="0.016" y="7.484" fill="#979797" width="31" height="20"/>
	<rect x="0.016" y="7.484" fill="#989898" width="31" height="20"/>
	<rect x="0.016" y="7.484" fill="#999999" width="31" height="20"/>
	<rect x="0.016" y="7.484" fill="#9A9A9A" width="31" height="20"/>
	<rect x="0.016" y="7.484" fill="#9B9B9B" width="31" height="20"/>
	<rect x="0.016" y="7.484" fill="#9C9C9C" width="31" height="20"/>
	<rect x="0.016" y="7.484" fill="#9D9D9D" width="31" height="20"/>
	<rect x="0.016" y="8.484" fill="#9E9E9E" width="31" height="18"/>
	<rect x="0.016" y="8.484" fill="#9F9F9F" width="31" height="18"/>
	<rect x="0.016" y="8.484" fill="#A0A0A0" width="31" height="18"/>
	<rect x="0.016" y="8.484" fill="#A1A1A1" width="31" height="18"/>
	<rect x="0.016" y="8.484" fill="#A2A2A2" width="31" height="18"/>
	<rect x="0.016" y="8.484" fill="#A3A3A3" width="31" height="18"/>
	<rect x="0.016" y="8.484" fill="#A4A4A4" width="31" height="18"/>
	<rect x="0.016" y="8.484" fill="#A5A5A5" width="31" height="18"/>
	<rect x="0.016" y="8.484" fill="#A6A6A6" width="31" height="18"/>
	<rect x="0.016" y="8.484" fill="#A7A7A7" width="31" height="18"/>
	<rect x="0.016" y="9.484" fill="#A8A8A8" width="31" height="16"/>
	<rect x="0.016" y="9.484" fill="#A9A9A9" width="31" height="16"/>
	<rect x="0.016" y="9.484" fill="#AAAAAA" width="31" height="16"/>
	<rect x="0.016" y="9.484" fill="#ABABAB" width="31" height="16"/>
	<rect x="0.016" y="9.484" fill="#ACACAC" width="31" height="16"/>
	<rect x="0.016" y="9.484" fill="#ADADAD" width="31" height="16"/>
	<rect x="0.016" y="9.484" fill="#AEAEAE" width="31" height="16"/>
	<rect x="0.016" y="9.484" fill="#AFAFAF" width="31" height="16"/>
	<rect x="0.016" y="9.484" fill="#B0B0B0" width="31" height="16"/>
	<rect x="0.016" y="9.484" fill="#B1B1B1" width="31" height="16"/>
	<rect x="0.016" y="10.484" fill="#B2B2B2" width="31" height="14"/>
	<rect x="0.016" y="10.484" fill="#B3B3B3" width="31" height="14"/>
	<rect x="0.016" y="10.484" fill="#B4B4B4" width="31" height="14"/>
	<rect x="0.016" y="10.484" fill="#B5B5B5" width="31" height="14"/>
	<rect x="0.016" y="10.484" fill="#B6B6B6" width="31" height="14"/>
	<rect x="0.016" y="10.484" fill="#B7B7B7" width="31" height="14"/>
	<rect x="0.016" y="10.484" fill="#B8B8B8" width="31" height="14"/>
	<rect x="0.016" y="10.484" fill="#B9B9B9" width="31" height="14"/>
	<rect x="0.016" y="10.484" fill="#BABABA" width="31" height="14"/>
	<rect x="0.016" y="10.484" fill="#BBBBBB" width="31" height="14"/>
	<rect x="0.016" y="11.484" fill="#BCBCBC" width="31" height="12"/>
	<rect x="0.016" y="11.484" fill="#BDBDBD" width="31" height="12"/>
	<rect x="0.016" y="11.484" fill="#BEBEBE" width="31" height="12"/>
	<rect x="0.016" y="11.484" fill="#BFBFBF" width="31" height="12"/>
	<rect x="0.016" y="11.484" fill="#C0C0C0" width="31" height="12"/>
	<rect x="0.016" y="11.484" fill="#C1C1C1" width="31" height="12"/>
	<rect x="0.016" y="11.484" fill="#C2C2C2" width="31" height="12"/>
	<rect x="0.016" y="11.484" fill="#C3C3C3" width="31" height="12"/>
	<rect x="0.016" y="11.484" fill="#C4C4C4" width="31" height="12"/>
	<rect x="0.016" y="11.484" fill="#C5C5C5" width="31" height="12"/>
	<rect x="0.016" y="12.484" fill="#C6C6C6" width="31" height="10"/>
	<rect x="0.016" y="12.484" fill="#C7C7C7" width="31" height="10"/>
	<rect x="0.016" y="12.484" fill="#C8C8C8" width="31" height="10"/>
	<rect x="0.016" y="12.484" fill="#C9C9C9" width="31" height="10"/>
	<rect x="0.016" y="12.484" fill="#CACACA" width="31" height="10"/>
	<rect x="0.016" y="12.484" fill="#CBCBCB" width="31" height="10"/>
	<rect x="0.016" y="12.484" fill="#CCCCCC" width="31" height="10"/>
	<rect x="0.016" y="12.484" fill="#CDCDCD" width="31" height="10"/>
	<rect x="0.016" y="12.484" fill="#CECECE" width="31" height="10"/>
	<rect x="0.016" y="12.484" fill="#CFCFCF" width="31" height="10"/>
	<rect x="0.016" y="13.484" fill="#D0D0D0" width="31" height="9"/>
	<rect x="0.016" y="13.484" fill="#D1D1D1" width="31" height="8"/>
	<rect x="0.016" y="13.484" fill="#D2D2D2" width="31" height="8"/>
	<rect x="0.016" y="13.484" fill="#D3D3D3" width="31" height="8"/>
	<rect x="0.016" y="13.484" fill="#D4D4D4" width="31" height="8"/>
	<rect x="0.016" y="13.484" fill="#D5D5D5" width="31" height="8"/>
	<rect x="0.016" y="13.484" fill="#D6D6D6" width="31" height="8"/>
	<rect x="0.016" y="13.484" fill="#D7D7D7" width="31" height="8"/>
	<rect x="0.016" y="13.484" fill="#D8D8D8" width="31" height="8"/>
	<rect x="0.016" y="13.484" fill="#D9D9D9" width="31" height="8"/>
	<rect x="0.016" y="14.484" fill="#DADADA" width="31" height="7"/>
	<rect x="0.016" y="14.484" fill="#DBDBDB" width="31" height="6"/>
	<rect x="0.016" y="14.484" fill="#DCDCDC" width="31" height="6"/>
	<rect x="0.016" y="14.484" fill="#DDDDDD" width="31" height="6"/>
	<rect x="0.016" y="14.484" fill="#DEDEDE" width="31" height="6"/>
	<rect x="0.016" y="14.484" fill="#DFDFDF" width="31" height="6"/>
	<rect x="0.016" y="14.484" fill="#E0E0E0" width="31" height="6"/>
	<rect x="0.016" y="14.484" fill="#E1E1E1" width="31" height="6"/>
	<rect x="0.016" y="14.484" fill="#E2E2E2" width="31" height="6"/>
	<rect x="0.016" y="14.484" fill="#E3E3E3" width="31" height="6"/>
	<rect x="0.016" y="15.484" fill="#E4E4E4" width="31" height="5"/>
</g>
<g>
	<rect x="42.016" y="10.484" fill="#4D4D4D" width="29" height="15"/>
	<rect x="42.016" y="10.484" fill="#4E4E4E" width="29" height="14"/>
	<rect x="42.016" y="10.484" fill="#4F4F4F" width="29" height="14"/>
	<rect x="42.016" y="10.484" fill="#505050" width="29" height="14"/>
	<rect x="42.016" y="10.484" fill="#515151" width="29" height="14"/>
	<rect x="42.016" y="10.484" fill="#525252" width="29" height="14"/>
	<rect x="42.016" y="10.484" fill="#535353" width="29" height="14"/>
	<rect x="42.016" y="10.484" fill="#545454" width="29" height="14"/>
	<rect x="42.016" y="10.484" fill="#555555" width="29" height="14"/>
	<rect x="42.016" y="10.484" fill="#565656" width="29" height="14"/>
	<rect x="42.016" y="10.484" fill="#575757" width="29" height="14"/>
	<rect x="42.016" y="10.484" fill="#585858" width="29" height="14"/>
	<rect x="42.016" y="10.484" fill="#595959" width="29" height="14"/>
	<rect x="42.016" y="10.484" fill="#5A5A5A" width="29" height="14"/>
	<rect x="42.016" y="10.484" fill="#5B5B5B" width="29" height="14"/>
	<rect x="42.016" y="10.484" fill="#5C5C5C" width="29" height="14"/>
	<rect x="42.016" y="10.484" fill="#5D5D5D" width="29" height="14"/>
	<rect x="42.016" y="10.484" fill="#5E5E5E" width="29" height="14"/>
	<rect x="42.016" y="10.484" fill="#5F5F5F" width="29" height="14"/>
	<rect x="42.016" y="10.484" fill="#606060" width="29" height="14"/>
	<rect x="42.016" y="10.484" fill="#616161" width="29" height="14"/>
	<rect x="42.016" y="10.484" fill="#626262" width="29" height="14"/>
	<rect x="42.016" y="11.484" fill="#636363" width="29" height="12"/>
	<rect x="42.016" y="11.484" fill="#646464" width="29" height="12"/>
	<rect x="42.016" y="11.484" fill="#656565" width="29" height="12"/>
	<rect x="42.016" y="11.484" fill="#666666" width="29" height="12"/>
	<rect x="42.016" y="11.484" fill="#676767" width="29" height="12"/>
	<rect x="42.016" y="11.484" fill="#686868" width="29" height="12"/>
	<rect x="42.016" y="11.484" fill="#696969" width="29" height="12"/>
	<rect x="42.016" y="11.484" fill="#6A6A6A" width="29" height="12"/>
	<rect x="42.016" y="11.484" fill="#6B6B6B" width="29" height="12"/>
	<rect x="42.016" y="11.484" fill="#6C6C6C" width="29" height="12"/>
	<rect x="42.016" y="11.484" fill="#6D6D6D" width="29" height="12"/>
	<rect x="42.016" y="11.484" fill="#6E6E6E" width="29" height="12"/>
	<rect x="42.016" y="11.484" fill="#6F6F6F" width="29" height="12"/>
	<rect x="42.016" y="11.484" fill="#707070" width="29" height="12"/>
	<rect x="42.016" y="11.484" fill="#717171" width="29" height="12"/>
	<rect x="42.016" y="11.484" fill="#727272" width="29" height="12"/>
	<rect x="42.016" y="11.484" fill="#737373" width="29" height="12"/>
	<rect x="42.016" y="11.484" fill="#747474" width="29" height="12"/>
	<rect x="42.016" y="11.484" fill="#757575" width="29" height="12"/>
	<rect x="42.016" y="11.484" fill="#767676" width="29" height="12"/>
	<rect x="42.016" y="11.484" fill="#777777" width="29" height="12"/>
	<rect x="42.016" y="12.484" fill="#787878" width="29" height="11"/>
	<rect x="42.016" y="12.484" fill="#797979" width="29" height="10"/>
	<rect x="42.016" y="12.484" fill="#7A7A7A" width="29" height="10"/>
	<rect x="42.016" y="12.484" fill="#7B7B7B" width="29" height="10"/>
	<rect x="42.016" y="12.484" fill="#7C7C7C" width="29" height="10"/>
	<rect x="42.016" y="12.484" fill="#7D7D7D" width="29" height="10"/>
	<rect x="42.016" y="12.484" fill="#7E7E7E" width="29" height="10"/>
	<rect x="42.016" y="12.484" fill="#7F7F7F" width="29" height="10"/>
	<rect x="42.016" y="12.484" fill="#808080" width="29" height="10"/>
	<rect x="42.016" y="12.484" fill="#818181" width="29" height="10"/>
	<rect x="42.016" y="12.484" fill="#828282" width="29" height="10"/>
	<rect x="42.016" y="12.484" fill="#838383" width="29" height="10"/>
	<rect x="42.016" y="12.484" fill="#848484" width="29" height="10"/>
	<rect x="42.016" y="12.484" fill="#858585" width="29" height="10"/>
	<rect x="42.016" y="12.484" fill="#868686" width="29" height="10"/>
	<rect x="42.016" y="12.484" fill="#878787" width="29" height="10"/>
	<rect x="42.016" y="12.484" fill="#888888" width="29" height="10"/>
	<rect x="42.016" y="12.484" fill="#898989" width="29" height="10"/>
	<rect x="42.016" y="12.484" fill="#8A8A8A" width="29" height="10"/>
	<rect x="42.016" y="12.484" fill="#8B8B8B" width="29" height="10"/>
	<rect x="42.016" y="12.484" fill="#8C8C8C" width="29" height="10"/>
	<rect x="42.016" y="12.484" fill="#8D8D8D" width="29" height="10"/>
	<rect x="42.016" y="13.484" fill="#8E8E8E" width="29" height="9"/>
	<rect x="42.016" y="13.484" fill="#8F8F8F" width="29" height="8"/>
	<rect x="42.016" y="13.484" fill="#909090" width="29" height="8"/>
	<rect x="42.016" y="13.484" fill="#919191" width="29" height="8"/>
	<rect x="42.016" y="13.484" fill="#929292" width="29" height="8"/>
	<rect x="42.016" y="13.484" fill="#939393" width="29" height="8"/>
	<rect x="42.016" y="13.484" fill="#949494" width="29" height="8"/>
	<rect x="42.016" y="13.484" fill="#959595" width="29" height="8"/>
	<rect x="42.016" y="13.484" fill="#969696" width="29" height="8"/>
	<rect x="42.016" y="13.484" fill="#979797" width="29" height="8"/>
	<rect x="42.016" y="13.484" fill="#989898" width="29" height="8"/>
	<rect x="42.016" y="13.484" fill="#999999" width="29" height="8"/>
	<rect x="42.016" y="13.484" fill="#9A9A9A" width="29" height="8"/>
	<rect x="42.016" y="13.484" fill="#9B9B9B" width="29" height="8"/>
	<rect x="42.016" y="13.484" fill="#9C9C9C" width="29" height="8"/>
	<rect x="42.016" y="13.484" fill="#9D9D9D" width="29" height="8"/>
	<rect x="42.016" y="13.484" fill="#9E9E9E" width="29" height="8"/>
	<rect x="42.016" y="13.484" fill="#9F9F9F" width="29" height="8"/>
	<rect x="42.016" y="13.484" fill="#A0A0A0" width="29" height="8"/>
	<rect x="42.016" y="13.484" fill="#A1A1A1" width="29" height="8"/>
	<rect x="42.016" y="13.484" fill="#A2A2A2" width="29" height="8"/>
	<rect x="42.016" y="14.484" fill="#A3A3A3" width="29" height="7"/>
	<rect x="42.016" y="14.484" fill="#A4A4A4" width="29" height="6"/>
	<rect x="42.016" y="14.484" fill="#A5A5A5" width="29" height="6"/>
	<rect x="42.016" y="14.484" fill="#A6A6A6" width="29" height="6"/>
	<rect x="42.016" y="14.484" fill="#A7A7A7" width="29" height="6"/>
	<rect x="42.016" y="14.484" fill="#A8A8A8" width="29" height="6"/>
	<rect x="42.016" y="14.484" fill="#A9A9A9" width="29" height="6"/>
	<rect x="42.016" y="14.484" fill="#AAAAAA" width="29" height="6"/>
	<rect x="42.016" y="14.484" fill="#ABABAB" width="29" height="6"/>
	<rect x="42.016" y="14.484" fill="#ACACAC" width="29" height="6"/>
	<rect x="42.016" y="14.484" fill="#ADADAD" width="29" height="6"/>
	<rect x="42.016" y="14.484" fill="#AEAEAE" width="29" height="6"/>
	<rect x="42.016" y="14.484" fill="#AFAFAF" width="29" height="6"/>
	<rect x="42.016" y="14.484" fill="#B0B0B0" width="29" height="6"/>
	<rect x="42.016" y="14.484" fill="#B1B1B1" width="29" height="6"/>
	<rect x="42.016" y="14.484" fill="#B2B2B2" width="29" height="6"/>
	<rect x="42.016" y="14.484" fill="#B3B3B3" width="29" height="6"/>
	<rect x="42.016" y="14.484" fill="#B4B4B4" width="29" height="6"/>
	<rect x="42.016" y="14.484" fill="#B5B5B5" width="29" height="6"/>
	<rect x="42.016" y="14.484" fill="#B6B6B6" width="29" height="6"/>
	<rect x="42.016" y="14.484" fill="#B7B7B7" width="29" height="6"/>
	<rect x="42.016" y="14.484" fill="#B8B8B8" width="29" height="6"/>
	<rect x="42.016" y="15.484" fill="#B9B9B9" width="29" height="5"/>
	<rect x="42.016" y="15.484" fill="#BABABA" width="29" height="4"/>
	<rect x="42.016" y="15.484" fill="#BBBBBB" width="29" height="4"/>
	<rect x="42.016" y="15.484" fill="#BCBCBC" width="29" height="4"/>
	<rect x="42.016" y="15.484" fill="#BDBDBD" width="29" height="4"/>
	<rect x="42.016" y="15.484" fill="#BEBEBE" width="29" height="4"/>
	<rect x="42.016" y="15.484" fill="#BFBFBF" width="29" height="4"/>
	<rect x="42.016" y="15.484" fill="#C0C0C0" width="29" height="4"/>
	<rect x="42.016" y="15.484" fill="#C1C1C1" width="29" height="4"/>
	<rect x="42.016" y="15.484" fill="#C2C2C2" width="29" height="4"/>
	<rect x="42.016" y="15.484" fill="#C3C3C3" width="29" height="4"/>
	<rect x="42.016" y="15.484" fill="#C4C4C4" width="29" height="4"/>
	<rect x="42.016" y="15.484" fill="#C5C5C5" width="29" height="4"/>
	<rect x="42.016" y="15.484" fill="#C6C6C6" width="29" height="4"/>
	<rect x="42.016" y="15.484" fill="#C7C7C7" width="29" height="4"/>
	<rect x="42.016" y="15.484" fill="#C8C8C8" width="29" height="4"/>
	<rect x="42.016" y="15.484" fill="#C9C9C9" width="29" height="4"/>
	<rect x="42.016" y="15.484" fill="#CACACA" width="29" height="4"/>
	<rect x="42.016" y="15.484" fill="#CBCBCB" width="29" height="4"/>
	<rect x="42.016" y="15.484" fill="#CCCCCC" width="29" height="4"/>
	<rect x="42.016" y="15.484" fill="#CDCDCD" width="29" height="4"/>
	<rect x="42.016" y="15.484" fill="#CECECE" width="29" height="4"/>
	<rect x="42.016" y="16.484" fill="#CFCFCF" width="29" height="2"/>
	<rect x="42.016" y="16.484" fill="#D0D0D0" width="29" height="2"/>
	<rect x="42.016" y="16.484" fill="#D1D1D1" width="29" height="2"/>
	<rect x="42.016" y="16.484" fill="#D2D2D2" width="29" height="2"/>
	<rect x="42.016" y="16.484" fill="#D3D3D3" width="29" height="2"/>
	<rect x="42.016" y="16.484" fill="#D4D4D4" width="29" height="2"/>
	<rect x="42.016" y="16.484" fill="#D5D5D5" width="29" height="2"/>
	<rect x="42.016" y="16.484" fill="#D6D6D6" width="29" height="2"/>
	<rect x="42.016" y="16.484" fill="#D7D7D7" width="29" height="2"/>
	<rect x="42.016" y="16.484" fill="#D8D8D8" width="29" height="2"/>
	<rect x="42.016" y="16.484" fill="#D9D9D9" width="29" height="2"/>
	<rect x="42.016" y="16.484" fill="#DADADA" width="29" height="2"/>
	<rect x="42.016" y="16.484" fill="#DBDBDB" width="29" height="2"/>
	<rect x="42.016" y="16.484" fill="#DCDCDC" width="29" height="2"/>
	<rect x="42.016" y="16.484" fill="#DDDDDD" width="29" height="2"/>
	<rect x="42.016" y="16.484" fill="#DEDEDE" width="29" height="2"/>
	<rect x="42.016" y="16.484" fill="#DFDFDF" width="29" height="2"/>
	<rect x="42.016" y="16.484" fill="#E0E0E0" width="29" height="2"/>
	<rect x="42.016" y="16.484" fill="#E1E1E1" width="29" height="2"/>
	<rect x="42.016" y="16.484" fill="#E2E2E2" width="29" height="2"/>
	<rect x="42.016" y="16.484" fill="#E3E3E3" width="29" height="2"/>
	<rect x="42.016" y="17.484" fill="#E4E4E4" width="29" height="1"/>
</g>
</svg>
