<?xml version="1.0" encoding="utf-8"?>
<!-- Generator: Adobe Illustrator 15.0.0, SVG Export Plug-In  -->
<!DOCTYPE svg PUBLIC "-//W3C//DTD SVG 1.1//EN" "http://www.w3.org/Graphics/SVG/1.1/DTD/svg11.dtd" [
	<!ENTITY ns_flows "http://ns.adobe.com/Flows/1.0/">
]>
<svg version="1.1"
	 xmlns="http://www.w3.org/2000/svg" xmlns:xlink="http://www.w3.org/1999/xlink" xmlns:a="http://ns.adobe.com/AdobeSVGViewerExtensions/3.0/"
	 x="0px" y="0px" width="100px" height="100px" viewBox="2 -0.5 100 100" enable-background="new 2 -0.5 100 100"
	 xml:space="preserve">
<defs>
</defs>
<g>
	<rect x="33" y="0.5" fill="#4D4D4D" width="35" height="100"/>
	<rect x="33" y="0.5" fill="#4E4E4E" width="34" height="100"/>
	<rect x="33" y="0.5" fill="#4F4F4F" width="34" height="100"/>
	<rect x="33" y="0.5" fill="#505050" width="34" height="100"/>
	<rect x="33" y="0.5" fill="#515151" width="34" height="100"/>
	<rect x="33" y="0.5" fill="#525252" width="34" height="100"/>
	<rect x="33" y="0.5" fill="#535353" width="34" height="100"/>
	<rect x="33" y="0.5" fill="#545454" width="34" height="100"/>
	<rect x="33" y="0.5" fill="#555555" width="34" height="100"/>
	<rect x="33" y="0.5" fill="#565656" width="34" height="100"/>
	<rect x="33" y="0.5" fill="#575757" width="34" height="100"/>
	<rect x="34" y="0.5" fill="#585858" width="32" height="100"/>
	<rect x="34" y="0.5" fill="#595959" width="32" height="100"/>
	<rect x="34" y="0.5" fill="#5A5A5A" width="32" height="100"/>
	<rect x="34" y="0.5" fill="#5B5B5B" width="32" height="100"/>
	<rect x="34" y="0.5" fill="#5C5C5C" width="32" height="100"/>
	<rect x="34" y="0.5" fill="#5D5D5D" width="32" height="100"/>
	<rect x="34" y="0.5" fill="#5E5E5E" width="32" height="100"/>
	<rect x="34" y="0.5" fill="#5F5F5F" width="32" height="100"/>
	<rect x="34" y="0.5" fill="#606060" width="32" height="100"/>
	<rect x="34" y="0.5" fill="#616161" width="32" height="100"/>
	<rect x="35" y="0.5" fill="#626262" width="30" height="100"/>
	<rect x="35" y="0.5" fill="#636363" width="30" height="100"/>
	<rect x="35" y="0.5" fill="#646464" width="30" height="100"/>
	<rect x="35" y="0.5" fill="#656565" width="30" height="100"/>
	<rect x="35" y="0.5" fill="#666666" width="30" height="100"/>
	<rect x="35" y="0.5" fill="#676767" width="30" height="100"/>
	<rect x="35" y="0.5" fill="#686868" width="30" height="100"/>
	<rect x="35" y="0.5" fill="#696969" width="30" height="100"/>
	<rect x="35" y="0.5" fill="#6A6A6A" width="30" height="100"/>
	<rect x="35" y="0.5" fill="#6B6B6B" width="30" height="100"/>
	<rect x="36" y="0.5" fill="#6C6C6C" width="28" height="100"/>
	<rect x="36" y="0.5" fill="#6D6D6D" width="28" height="100"/>
	<rect x="36" y="0.5" fill="#6E6E6E" width="28" height="100"/>
	<rect x="36" y="0.5" fill="#6F6F6F" width="28" height="100"/>
	<rect x="36" y="0.5" fill="#707070" width="28" height="100"/>
	<rect x="36" y="0.5" fill="#717171" width="28" height="100"/>
	<rect x="36" y="0.5" fill="#727272" width="28" height="100"/>
	<rect x="36" y="0.5" fill="#737373" width="28" height="100"/>
	<rect x="36" y="0.5" fill="#747474" width="28" height="100"/>
	<rect x="36" y="0.5" fill="#757575" width="28" height="100"/>
	<rect x="37" y="0.5" fill="#767676" width="26" height="100"/>
	<rect x="37" y="0.5" fill="#777777" width="26" height="100"/>
	<rect x="37" y="0.5" fill="#787878" width="26" height="100"/>
	<rect x="37" y="0.5" fill="#797979" width="26" height="100"/>
	<rect x="37" y="0.5" fill="#7A7A7A" width="26" height="100"/>
	<rect x="37" y="0.5" fill="#7B7B7B" width="26" height="100"/>
	<rect x="37" y="0.5" fill="#7C7C7C" width="26" height="100"/>
	<rect x="37" y="0.5" fill="#7D7D7D" width="26" height="100"/>
	<rect x="37" y="0.5" fill="#7E7E7E" width="26" height="100"/>
	<rect x="37" y="0.5" fill="#7F7F7F" width="26" height="100"/>
	<rect x="38" y="0.5" fill="#808080" width="24" height="100"/>
	<rect x="38" y="0.5" fill="#818181" width="24" height="100"/>
	<rect x="38" y="0.5" fill="#828282" width="24" height="100"/>
	<rect x="38" y="0.5" fill="#838383" width="24" height="100"/>
	<rect x="38" y="0.5" fill="#848484" width="24" height="100"/>
	<rect x="38" y="0.5" fill="#858585" width="24" height="100"/>
	<rect x="38" y="0.5" fill="#868686" width="24" height="100"/>
	<rect x="38" y="0.5" fill="#878787" width="24" height="100"/>
	<rect x="38" y="0.5" fill="#888888" width="24" height="100"/>
	<rect x="38" y="0.5" fill="#898989" width="24" height="100"/>
	<rect x="39" y="0.5" fill="#8A8A8A" width="22" height="100"/>
	<rect x="39" y="0.5" fill="#8B8B8B" width="22" height="100"/>
	<rect x="39" y="0.5" fill="#8C8C8C" width="22" height="100"/>
	<rect x="39" y="0.5" fill="#8D8D8D" width="22" height="100"/>
	<rect x="39" y="0.5" fill="#8E8E8E" width="22" height="100"/>
	<rect x="39" y="0.5" fill="#8F8F8F" width="22" height="100"/>
	<rect x="39" y="0.5" fill="#909090" width="22" height="100"/>
	<rect x="39" y="0.5" fill="#919191" width="22" height="100"/>
	<rect x="39" y="0.5" fill="#929292" width="22" height="100"/>
	<rect x="39" y="0.5" fill="#939393" width="22" height="100"/>
	<rect x="40" y="0.5" fill="#949494" width="20" height="100"/>
	<rect x="40" y="0.5" fill="#959595" width="20" height="100"/>
	<rect x="40" y="0.5" fill="#969696" width="20" height="100"/>
	<rect x="40" y="0.5" fill="#979797" width="20" height="100"/>
	<rect x="40" y="0.5" fill="#989898" width="20" height="100"/>
	<rect x="40" y="0.5" fill="#999999" width="20" height="100"/>
	<rect x="40" y="0.5" fill="#9A9A9A" width="20" height="100"/>
	<rect x="40" y="0.5" fill="#9B9B9B" width="20" height="100"/>
	<rect x="40" y="0.5" fill="#9C9C9C" width="20" height="100"/>
	<rect x="40" y="0.5" fill="#9D9D9D" width="20" height="100"/>
	<rect x="41" y="0.5" fill="#9E9E9E" width="18" height="100"/>
	<rect x="41" y="0.5" fill="#9F9F9F" width="18" height="100"/>
	<rect x="41" y="0.5" fill="#A0A0A0" width="18" height="100"/>
	<rect x="41" y="0.5" fill="#A1A1A1" width="18" height="100"/>
	<rect x="41" y="0.5" fill="#A2A2A2" width="18" height="100"/>
	<rect x="41" y="0.5" fill="#A3A3A3" width="18" height="100"/>
	<rect x="41" y="0.5" fill="#A4A4A4" width="18" height="100"/>
	<rect x="41" y="0.5" fill="#A5A5A5" width="18" height="100"/>
	<rect x="41" y="0.5" fill="#A6A6A6" width="18" height="100"/>
	<rect x="41" y="0.5" fill="#A7A7A7" width="18" height="100"/>
	<rect x="42" y="0.5" fill="#A8A8A8" width="16" height="100"/>
	<rect x="42" y="0.5" fill="#A9A9A9" width="16" height="100"/>
	<rect x="42" y="0.5" fill="#AAAAAA" width="16" height="100"/>
	<rect x="42" y="0.5" fill="#ABABAB" width="16" height="100"/>
	<rect x="42" y="0.5" fill="#ACACAC" width="16" height="100"/>
	<rect x="42" y="0.5" fill="#ADADAD" width="16" height="100"/>
	<rect x="42" y="0.5" fill="#AEAEAE" width="16" height="100"/>
	<rect x="42" y="0.5" fill="#AFAFAF" width="16" height="100"/>
	<rect x="42" y="0.5" fill="#B0B0B0" width="16" height="100"/>
	<rect x="42" y="0.5" fill="#B1B1B1" width="16" height="100"/>
	<rect x="43" y="0.5" fill="#B2B2B2" width="14" height="100"/>
	<rect x="43" y="0.5" fill="#B3B3B3" width="14" height="100"/>
	<rect x="43" y="0.5" fill="#B4B4B4" width="14" height="100"/>
	<rect x="43" y="0.5" fill="#B5B5B5" width="14" height="100"/>
	<rect x="43" y="0.5" fill="#B6B6B6" width="14" height="100"/>
	<rect x="43" y="0.5" fill="#B7B7B7" width="14" height="100"/>
	<rect x="43" y="0.5" fill="#B8B8B8" width="14" height="100"/>
	<rect x="43" y="0.5" fill="#B9B9B9" width="14" height="100"/>
	<rect x="43" y="0.5" fill="#BABABA" width="14" height="100"/>
	<rect x="43" y="0.5" fill="#BBBBBB" width="14" height="100"/>
	<rect x="44" y="0.5" fill="#BCBCBC" width="12" height="100"/>
	<rect x="44" y="0.5" fill="#BDBDBD" width="12" height="100"/>
	<rect x="44" y="0.5" fill="#BEBEBE" width="12" height="100"/>
	<rect x="44" y="0.5" fill="#BFBFBF" width="12" height="100"/>
	<rect x="44" y="0.5" fill="#C0C0C0" width="12" height="100"/>
	<rect x="44" y="0.5" fill="#C1C1C1" width="12" height="100"/>
	<rect x="44" y="0.5" fill="#C2C2C2" width="12" height="100"/>
	<rect x="44" y="0.5" fill="#C3C3C3" width="12" height="100"/>
	<rect x="44" y="0.5" fill="#C4C4C4" width="12" height="100"/>
	<rect x="44" y="0.5" fill="#C5C5C5" width="12" height="100"/>
	<rect x="45" y="0.5" fill="#C6C6C6" width="10" height="100"/>
	<rect x="45" y="0.5" fill="#C7C7C7" width="10" height="100"/>
	<rect x="45" y="0.5" fill="#C8C8C8" width="10" height="100"/>
	<rect x="45" y="0.5" fill="#C9C9C9" width="10" height="100"/>
	<rect x="45" y="0.5" fill="#CACACA" width="10" height="100"/>
	<rect x="45" y="0.5" fill="#CBCBCB" width="10" height="100"/>
	<rect x="45" y="0.5" fill="#CCCCCC" width="10" height="100"/>
	<rect x="45" y="0.5" fill="#CDCDCD" width="10" height="100"/>
	<rect x="45" y="0.5" fill="#CECECE" width="10" height="100"/>
	<rect x="45" y="0.5" fill="#CFCFCF" width="10" height="100"/>
	<rect x="46" y="0.5" fill="#D0D0D0" width="8" height="100"/>
	<rect x="46" y="0.5" fill="#D1D1D1" width="8" height="100"/>
	<rect x="46" y="0.5" fill="#D2D2D2" width="8" height="100"/>
	<rect x="46" y="0.5" fill="#D3D3D3" width="8" height="100"/>
	<rect x="46" y="0.5" fill="#D4D4D4" width="8" height="100"/>
	<rect x="46" y="0.5" fill="#D5D5D5" width="8" height="100"/>
	<rect x="46" y="0.5" fill="#D6D6D6" width="8" height="100"/>
	<rect x="46" y="0.5" fill="#D7D7D7" width="8" height="100"/>
	<rect x="46" y="0.5" fill="#D8D8D8" width="8" height="100"/>
	<rect x="46" y="0.5" fill="#D9D9D9" width="8" height="100"/>
	<rect x="47" y="0.5" fill="#DADADA" width="6" height="100"/>
	<rect x="47" y="0.5" fill="#DBDBDB" width="6" height="100"/>
	<rect x="47" y="0.5" fill="#DCDCDC" width="6" height="100"/>
	<rect x="47" y="0.5" fill="#DDDDDD" width="6" height="100"/>
	<rect x="47" y="0.5" fill="#DEDEDE" width="6" height="100"/>
	<rect x="47" y="0.5" fill="#DFDFDF" width="6" height="100"/>
	<rect x="47" y="0.5" fill="#E0E0E0" width="6" height="100"/>
	<rect x="47" y="0.5" fill="#E1E1E1" width="6" height="100"/>
	<rect x="47" y="0.5" fill="#E2E2E2" width="6" height="100"/>
	<rect x="47" y="0.5" fill="#E3E3E3" width="6" height="100"/>
	<rect x="48" y="0.5" fill="#E4E4E4" width="5" height="100"/>
</g>
<g>
	<defs>
		<polygon id="SVGID_2_" points="1,31.5 33,31.5 38,49 33,66.5 1,66.5 		"/>
	</defs>
	<clipPath id="SVGID_3_">
		<use xlink:href="#SVGID_2_"  overflow="visible"/>
	</clipPath>
	<g clip-path="url(#SVGID_3_)">
		<rect y="31.5" fill="#4D4D4D" width="42" height="35"/>
		<rect y="31.5" fill="#4E4E4E" width="42" height="35"/>
		<rect y="31.5" fill="#4F4F4F" width="42" height="35"/>
		<rect y="31.5" fill="#505050" width="42" height="34"/>
		<rect y="31.5" fill="#515151" width="42" height="34"/>
		<rect y="31.5" fill="#525252" width="42" height="34"/>
		<rect y="31.5" fill="#535353" width="42" height="34"/>
		<rect y="31.5" fill="#545454" width="42" height="34"/>
		<rect y="32.5" fill="#555555" width="42" height="33"/>
		<rect y="32.5" fill="#565656" width="42" height="33"/>
		<rect y="32.5" fill="#575757" width="42" height="33"/>
		<rect y="32.5" fill="#585858" width="42" height="33"/>
		<rect y="32.5" fill="#595959" width="42" height="33"/>
		<rect y="32.5" fill="#5A5A5A" width="42" height="32"/>
		<rect y="32.5" fill="#5B5B5B" width="42" height="32"/>
		<rect y="32.5" fill="#5C5C5C" width="42" height="32"/>
		<rect y="32.5" fill="#5D5D5D" width="42" height="32"/>
		<rect y="32.5" fill="#5E5E5E" width="42" height="32"/>
		<rect y="33.5" fill="#5F5F5F" width="42" height="31"/>
		<rect y="33.5" fill="#606060" width="42" height="31"/>
		<rect y="33.5" fill="#616161" width="42" height="31"/>
		<rect y="33.5" fill="#626262" width="42" height="31"/>
		<rect y="33.5" fill="#636363" width="42" height="31"/>
		<rect y="33.5" fill="#646464" width="42" height="30"/>
		<rect y="33.5" fill="#656565" width="42" height="30"/>
		<rect y="33.5" fill="#666666" width="42" height="30"/>
		<rect y="33.5" fill="#676767" width="42" height="30"/>
		<rect y="33.5" fill="#686868" width="42" height="30"/>
		<rect y="34.5" fill="#696969" width="42" height="29"/>
		<rect y="34.5" fill="#6A6A6A" width="42" height="29"/>
		<rect y="34.5" fill="#6B6B6B" width="42" height="29"/>
		<rect y="34.5" fill="#6C6C6C" width="42" height="29"/>
		<rect y="34.5" fill="#6D6D6D" width="42" height="29"/>
		<rect y="34.5" fill="#6E6E6E" width="42" height="28"/>
		<rect y="34.5" fill="#6F6F6F" width="42" height="28"/>
		<rect y="34.5" fill="#707070" width="42" height="28"/>
		<rect y="34.5" fill="#717171" width="42" height="28"/>
		<rect y="34.5" fill="#727272" width="42" height="28"/>
		<rect y="35.5" fill="#737373" width="42" height="27"/>
		<rect y="35.5" fill="#747474" width="42" height="27"/>
		<rect y="35.5" fill="#757575" width="42" height="27"/>
		<rect y="35.5" fill="#767676" width="42" height="27"/>
		<rect y="35.5" fill="#777777" width="42" height="27"/>
		<rect y="35.5" fill="#787878" width="42" height="27"/>
		<rect y="35.5" fill="#797979" width="42" height="26"/>
		<rect y="35.5" fill="#7A7A7A" width="42" height="26"/>
		<rect y="35.5" fill="#7B7B7B" width="42" height="26"/>
		<rect y="35.5" fill="#7C7C7C" width="42" height="26"/>
		<rect y="36.5" fill="#7D7D7D" width="42" height="25"/>
		<rect y="36.5" fill="#7E7E7E" width="42" height="25"/>
		<rect y="36.5" fill="#7F7F7F" width="42" height="25"/>
		<rect y="36.5" fill="#808080" width="42" height="25"/>
		<rect y="36.5" fill="#818181" width="42" height="25"/>
		<rect y="36.5" fill="#828282" width="42" height="25"/>
		<rect y="36.5" fill="#838383" width="42" height="24"/>
		<rect y="36.5" fill="#848484" width="42" height="24"/>
		<rect y="36.5" fill="#858585" width="42" height="24"/>
		<rect y="36.5" fill="#868686" width="42" height="24"/>
		<rect y="37.5" fill="#878787" width="42" height="23"/>
		<rect y="37.5" fill="#888888" width="42" height="23"/>
		<rect y="37.5" fill="#898989" width="42" height="23"/>
		<rect y="37.5" fill="#8A8A8A" width="42" height="23"/>
		<rect y="37.5" fill="#8B8B8B" width="42" height="23"/>
		<rect y="37.5" fill="#8C8C8C" width="42" height="23"/>
		<rect y="37.5" fill="#8D8D8D" width="42" height="22"/>
		<rect y="37.5" fill="#8E8E8E" width="42" height="22"/>
		<rect y="37.5" fill="#8F8F8F" width="42" height="22"/>
		<rect y="37.5" fill="#909090" width="42" height="22"/>
		<rect y="38.5" fill="#919191" width="42" height="21"/>
		<rect y="38.5" fill="#929292" width="42" height="21"/>
		<rect y="38.5" fill="#939393" width="42" height="21"/>
		<rect y="38.5" fill="#949494" width="42" height="21"/>
		<rect y="38.5" fill="#959595" width="42" height="21"/>
		<rect y="38.5" fill="#969696" width="42" height="21"/>
		<rect y="38.5" fill="#979797" width="42" height="20"/>
		<rect y="38.5" fill="#989898" width="42" height="20"/>
		<rect y="38.5" fill="#999999" width="42" height="20"/>
		<rect y="38.5" fill="#9A9A9A" width="42" height="20"/>
		<rect y="39.5" fill="#9B9B9B" width="42" height="19"/>
		<rect y="39.5" fill="#9C9C9C" width="42" height="19"/>
		<rect y="39.5" fill="#9D9D9D" width="42" height="19"/>
		<rect y="39.5" fill="#9E9E9E" width="42" height="19"/>
		<rect y="39.5" fill="#9F9F9F" width="42" height="19"/>
		<rect y="39.5" fill="#A0A0A0" width="42" height="19"/>
		<rect y="39.5" fill="#A1A1A1" width="42" height="18"/>
		<rect y="39.5" fill="#A2A2A2" width="42" height="18"/>
		<rect y="39.5" fill="#A3A3A3" width="42" height="18"/>
		<rect y="39.5" fill="#A4A4A4" width="42" height="18"/>
		<rect y="40.5" fill="#A5A5A5" width="42" height="17"/>
		<rect y="40.5" fill="#A6A6A6" width="42" height="17"/>
		<rect y="40.5" fill="#A7A7A7" width="42" height="17"/>
		<rect y="40.5" fill="#A8A8A8" width="42" height="17"/>
		<rect y="40.5" fill="#A9A9A9" width="42" height="17"/>
		<rect y="40.5" fill="#AAAAAA" width="42" height="17"/>
		<rect y="40.5" fill="#ABABAB" width="42" height="16"/>
		<rect y="40.5" fill="#ACACAC" width="42" height="16"/>
		<rect y="40.5" fill="#ADADAD" width="42" height="16"/>
		<rect y="40.5" fill="#AEAEAE" width="42" height="16"/>
		<rect y="41.5" fill="#AFAFAF" width="42" height="15"/>
		<rect y="41.5" fill="#B0B0B0" width="42" height="15"/>
		<rect y="41.5" fill="#B1B1B1" width="42" height="15"/>
		<rect y="41.5" fill="#B2B2B2" width="42" height="15"/>
		<rect y="41.5" fill="#B3B3B3" width="42" height="15"/>
		<rect y="41.5" fill="#B4B4B4" width="42" height="15"/>
		<rect y="41.5" fill="#B5B5B5" width="42" height="14"/>
		<rect y="41.5" fill="#B6B6B6" width="42" height="14"/>
		<rect y="41.5" fill="#B7B7B7" width="42" height="14"/>
		<rect y="41.5" fill="#B8B8B8" width="42" height="14"/>
		<rect y="42.5" fill="#B9B9B9" width="42" height="13"/>
		<rect y="42.5" fill="#BABABA" width="42" height="13"/>
		<rect y="42.5" fill="#BBBBBB" width="42" height="13"/>
		<rect y="42.5" fill="#BCBCBC" width="42" height="13"/>
		<rect y="42.5" fill="#BDBDBD" width="42" height="13"/>
		<rect y="42.5" fill="#BEBEBE" width="42" height="13"/>
		<rect y="42.5" fill="#BFBFBF" width="42" height="12"/>
		<rect y="42.5" fill="#C0C0C0" width="42" height="12"/>
		<rect y="42.5" fill="#C1C1C1" width="42" height="12"/>
		<rect y="42.5" fill="#C2C2C2" width="42" height="12"/>
		<rect y="42.5" fill="#C3C3C3" width="42" height="12"/>
		<rect y="43.5" fill="#C4C4C4" width="42" height="11"/>
		<rect y="43.5" fill="#C5C5C5" width="42" height="11"/>
		<rect y="43.5" fill="#C6C6C6" width="42" height="11"/>
		<rect y="43.5" fill="#C7C7C7" width="42" height="11"/>
		<rect y="43.5" fill="#C8C8C8" width="42" height="11"/>
		<rect y="43.5" fill="#C9C9C9" width="42" height="10"/>
		<rect y="43.5" fill="#CACACA" width="42" height="10"/>
		<rect y="43.5" fill="#CBCBCB" width="42" height="10"/>
		<rect y="43.5" fill="#CCCCCC" width="42" height="10"/>
		<rect y="43.5" fill="#CDCDCD" width="42" height="10"/>
		<rect y="44.5" fill="#CECECE" width="42" height="9"/>
		<rect y="44.5" fill="#CFCFCF" width="42" height="9"/>
		<rect y="44.5" fill="#D0D0D0" width="42" height="9"/>
		<rect y="44.5" fill="#D1D1D1" width="42" height="9"/>
		<rect y="44.5" fill="#D2D2D2" width="42" height="9"/>
		<rect y="44.5" fill="#D3D3D3" width="42" height="8"/>
		<rect y="44.5" fill="#D4D4D4" width="42" height="8"/>
		<rect y="44.5" fill="#D5D5D5" width="42" height="8"/>
		<rect y="44.5" fill="#D6D6D6" width="42" height="8"/>
		<rect y="44.5" fill="#D7D7D7" width="42" height="8"/>
		<rect y="45.5" fill="#D8D8D8" width="42" height="7"/>
		<rect y="45.5" fill="#D9D9D9" width="42" height="7"/>
		<rect y="45.5" fill="#DADADA" width="42" height="7"/>
		<rect y="45.5" fill="#DBDBDB" width="42" height="7"/>
		<rect y="45.5" fill="#DCDCDC" width="42" height="7"/>
		<rect y="45.5" fill="#DDDDDD" width="42" height="6"/>
		<rect y="45.5" fill="#DEDEDE" width="42" height="6"/>
		<rect y="45.5" fill="#DFDFDF" width="42" height="6"/>
		<rect y="45.5" fill="#E0E0E0" width="42" height="6"/>
		<rect y="45.5" fill="#E1E1E1" width="42" height="6"/>
		<rect y="46.5" fill="#E2E2E2" width="42" height="5"/>
		<rect y="46.5" fill="#E3E3E3" width="42" height="5"/>
		<rect y="46.5" fill="#E4E4E4" width="42" height="5"/>
	</g>
</g>
<g>
	<defs>
		<polygon id="SVGID_1_" points="102,31.5 68,31.5 63,49 68,66.5 102,66.5 		"/>
	</defs>
	<clipPath id="SVGID_4_">
		<use xlink:href="#SVGID_1_"  overflow="visible"/>
	</clipPath>
	<g clip-path="url(#SVGID_4_)">
		<rect x="59" y="31.5" fill="#4D4D4D" width="44" height="35"/>
		<rect x="59" y="31.5" fill="#4E4E4E" width="44" height="35"/>
		<rect x="59" y="31.5" fill="#4F4F4F" width="44" height="35"/>
		<rect x="59" y="31.5" fill="#505050" width="44" height="34"/>
		<rect x="59" y="31.5" fill="#515151" width="44" height="34"/>
		<rect x="59" y="31.5" fill="#525252" width="44" height="34"/>
		<rect x="59" y="31.5" fill="#535353" width="44" height="34"/>
		<rect x="59" y="31.5" fill="#545454" width="44" height="34"/>
		<rect x="59" y="32.5" fill="#555555" width="44" height="33"/>
		<rect x="59" y="32.5" fill="#565656" width="44" height="33"/>
		<rect x="59" y="32.5" fill="#575757" width="44" height="33"/>
		<rect x="59" y="32.5" fill="#585858" width="44" height="33"/>
		<rect x="59" y="32.5" fill="#595959" width="44" height="33"/>
		<rect x="59" y="32.5" fill="#5A5A5A" width="44" height="32"/>
		<rect x="59" y="32.5" fill="#5B5B5B" width="44" height="32"/>
		<rect x="59" y="32.5" fill="#5C5C5C" width="44" height="32"/>
		<rect x="59" y="32.5" fill="#5D5D5D" width="44" height="32"/>
		<rect x="59" y="32.5" fill="#5E5E5E" width="44" height="32"/>
		<rect x="59" y="33.5" fill="#5F5F5F" width="44" height="31"/>
		<rect x="59" y="33.5" fill="#606060" width="44" height="31"/>
		<rect x="59" y="33.5" fill="#616161" width="44" height="31"/>
		<rect x="59" y="33.5" fill="#626262" width="44" height="31"/>
		<rect x="59" y="33.5" fill="#636363" width="44" height="31"/>
		<rect x="59" y="33.5" fill="#646464" width="44" height="30"/>
		<rect x="59" y="33.5" fill="#656565" width="44" height="30"/>
		<rect x="59" y="33.5" fill="#666666" width="44" height="30"/>
		<rect x="59" y="33.5" fill="#676767" width="44" height="30"/>
		<rect x="59" y="33.5" fill="#686868" width="44" height="30"/>
		<rect x="59" y="34.5" fill="#696969" width="44" height="29"/>
		<rect x="59" y="34.5" fill="#6A6A6A" width="44" height="29"/>
		<rect x="59" y="34.5" fill="#6B6B6B" width="44" height="29"/>
		<rect x="59" y="34.5" fill="#6C6C6C" width="44" height="29"/>
		<rect x="59" y="34.5" fill="#6D6D6D" width="44" height="29"/>
		<rect x="59" y="34.5" fill="#6E6E6E" width="44" height="28"/>
		<rect x="59" y="34.5" fill="#6F6F6F" width="44" height="28"/>
		<rect x="59" y="34.5" fill="#707070" width="44" height="28"/>
		<rect x="59" y="34.5" fill="#717171" width="44" height="28"/>
		<rect x="59" y="34.5" fill="#727272" width="44" height="28"/>
		<rect x="59" y="35.5" fill="#737373" width="44" height="27"/>
		<rect x="59" y="35.5" fill="#747474" width="44" height="27"/>
		<rect x="59" y="35.5" fill="#757575" width="44" height="27"/>
		<rect x="59" y="35.5" fill="#767676" width="44" height="27"/>
		<rect x="59" y="35.5" fill="#777777" width="44" height="27"/>
		<rect x="59" y="35.5" fill="#787878" width="44" height="27"/>
		<rect x="59" y="35.5" fill="#797979" width="44" height="26"/>
		<rect x="59" y="35.5" fill="#7A7A7A" width="44" height="26"/>
		<rect x="59" y="35.5" fill="#7B7B7B" width="44" height="26"/>
		<rect x="59" y="35.5" fill="#7C7C7C" width="44" height="26"/>
		<rect x="59" y="36.5" fill="#7D7D7D" width="44" height="25"/>
		<rect x="59" y="36.5" fill="#7E7E7E" width="44" height="25"/>
		<rect x="59" y="36.5" fill="#7F7F7F" width="44" height="25"/>
		<rect x="59" y="36.5" fill="#808080" width="44" height="25"/>
		<rect x="59" y="36.5" fill="#818181" width="44" height="25"/>
		<rect x="59" y="36.5" fill="#828282" width="44" height="25"/>
		<rect x="59" y="36.5" fill="#838383" width="44" height="24"/>
		<rect x="59" y="36.5" fill="#848484" width="44" height="24"/>
		<rect x="59" y="36.5" fill="#858585" width="44" height="24"/>
		<rect x="59" y="36.5" fill="#868686" width="44" height="24"/>
		<rect x="59" y="37.5" fill="#878787" width="44" height="23"/>
		<rect x="59" y="37.5" fill="#888888" width="44" height="23"/>
		<rect x="59" y="37.5" fill="#898989" width="44" height="23"/>
		<rect x="59" y="37.5" fill="#8A8A8A" width="44" height="23"/>
		<rect x="59" y="37.5" fill="#8B8B8B" width="44" height="23"/>
		<rect x="59" y="37.5" fill="#8C8C8C" width="44" height="23"/>
		<rect x="59" y="37.5" fill="#8D8D8D" width="44" height="22"/>
		<rect x="59" y="37.5" fill="#8E8E8E" width="44" height="22"/>
		<rect x="59" y="37.5" fill="#8F8F8F" width="44" height="22"/>
		<rect x="59" y="37.5" fill="#909090" width="44" height="22"/>
		<rect x="59" y="38.5" fill="#919191" width="44" height="21"/>
		<rect x="59" y="38.5" fill="#929292" width="44" height="21"/>
		<rect x="59" y="38.5" fill="#939393" width="44" height="21"/>
		<rect x="59" y="38.5" fill="#949494" width="44" height="21"/>
		<rect x="59" y="38.5" fill="#959595" width="44" height="21"/>
		<rect x="59" y="38.5" fill="#969696" width="44" height="21"/>
		<rect x="59" y="38.5" fill="#979797" width="44" height="20"/>
		<rect x="59" y="38.5" fill="#989898" width="44" height="20"/>
		<rect x="59" y="38.5" fill="#999999" width="44" height="20"/>
		<rect x="59" y="38.5" fill="#9A9A9A" width="44" height="20"/>
		<rect x="59" y="39.5" fill="#9B9B9B" width="44" height="19"/>
		<rect x="59" y="39.5" fill="#9C9C9C" width="44" height="19"/>
		<rect x="59" y="39.5" fill="#9D9D9D" width="44" height="19"/>
		<rect x="59" y="39.5" fill="#9E9E9E" width="44" height="19"/>
		<rect x="59" y="39.5" fill="#9F9F9F" width="44" height="19"/>
		<rect x="59" y="39.5" fill="#A0A0A0" width="44" height="19"/>
		<rect x="59" y="39.5" fill="#A1A1A1" width="44" height="18"/>
		<rect x="59" y="39.5" fill="#A2A2A2" width="44" height="18"/>
		<rect x="59" y="39.5" fill="#A3A3A3" width="44" height="18"/>
		<rect x="59" y="39.5" fill="#A4A4A4" width="44" height="18"/>
		<rect x="59" y="40.5" fill="#A5A5A5" width="44" height="17"/>
		<rect x="59" y="40.5" fill="#A6A6A6" width="44" height="17"/>
		<rect x="59" y="40.5" fill="#A7A7A7" width="44" height="17"/>
		<rect x="59" y="40.5" fill="#A8A8A8" width="44" height="17"/>
		<rect x="59" y="40.5" fill="#A9A9A9" width="44" height="17"/>
		<rect x="59" y="40.5" fill="#AAAAAA" width="44" height="17"/>
		<rect x="59" y="40.5" fill="#ABABAB" width="44" height="16"/>
		<rect x="59" y="40.5" fill="#ACACAC" width="44" height="16"/>
		<rect x="59" y="40.5" fill="#ADADAD" width="44" height="16"/>
		<rect x="59" y="40.5" fill="#AEAEAE" width="44" height="16"/>
		<rect x="59" y="41.5" fill="#AFAFAF" width="44" height="15"/>
		<rect x="59" y="41.5" fill="#B0B0B0" width="44" height="15"/>
		<rect x="59" y="41.5" fill="#B1B1B1" width="44" height="15"/>
		<rect x="59" y="41.5" fill="#B2B2B2" width="44" height="15"/>
		<rect x="59" y="41.5" fill="#B3B3B3" width="44" height="15"/>
		<rect x="59" y="41.5" fill="#B4B4B4" width="44" height="15"/>
		<rect x="59" y="41.5" fill="#B5B5B5" width="44" height="14"/>
		<rect x="59" y="41.5" fill="#B6B6B6" width="44" height="14"/>
		<rect x="59" y="41.5" fill="#B7B7B7" width="44" height="14"/>
		<rect x="59" y="41.5" fill="#B8B8B8" width="44" height="14"/>
		<rect x="59" y="42.5" fill="#B9B9B9" width="44" height="13"/>
		<rect x="59" y="42.5" fill="#BABABA" width="44" height="13"/>
		<rect x="59" y="42.5" fill="#BBBBBB" width="44" height="13"/>
		<rect x="59" y="42.5" fill="#BCBCBC" width="44" height="13"/>
		<rect x="59" y="42.5" fill="#BDBDBD" width="44" height="13"/>
		<rect x="59" y="42.5" fill="#BEBEBE" width="44" height="13"/>
		<rect x="59" y="42.5" fill="#BFBFBF" width="44" height="12"/>
		<rect x="59" y="42.5" fill="#C0C0C0" width="44" height="12"/>
		<rect x="59" y="42.5" fill="#C1C1C1" width="44" height="12"/>
		<rect x="59" y="42.5" fill="#C2C2C2" width="44" height="12"/>
		<rect x="59" y="42.5" fill="#C3C3C3" width="44" height="12"/>
		<rect x="59" y="43.5" fill="#C4C4C4" width="44" height="11"/>
		<rect x="59" y="43.5" fill="#C5C5C5" width="44" height="11"/>
		<rect x="59" y="43.5" fill="#C6C6C6" width="44" height="11"/>
		<rect x="59" y="43.5" fill="#C7C7C7" width="44" height="11"/>
		<rect x="59" y="43.5" fill="#C8C8C8" width="44" height="11"/>
		<rect x="59" y="43.5" fill="#C9C9C9" width="44" height="10"/>
		<rect x="59" y="43.5" fill="#CACACA" width="44" height="10"/>
		<rect x="59" y="43.5" fill="#CBCBCB" width="44" height="10"/>
		<rect x="59" y="43.5" fill="#CCCCCC" width="44" height="10"/>
		<rect x="59" y="43.5" fill="#CDCDCD" width="44" height="10"/>
		<rect x="59" y="44.5" fill="#CECECE" width="44" height="9"/>
		<rect x="59" y="44.5" fill="#CFCFCF" width="44" height="9"/>
		<rect x="59" y="44.5" fill="#D0D0D0" width="44" height="9"/>
		<rect x="59" y="44.5" fill="#D1D1D1" width="44" height="9"/>
		<rect x="59" y="44.5" fill="#D2D2D2" width="44" height="9"/>
		<rect x="59" y="44.5" fill="#D3D3D3" width="44" height="8"/>
		<rect x="59" y="44.5" fill="#D4D4D4" width="44" height="8"/>
		<rect x="59" y="44.5" fill="#D5D5D5" width="44" height="8"/>
		<rect x="59" y="44.5" fill="#D6D6D6" width="44" height="8"/>
		<rect x="59" y="44.5" fill="#D7D7D7" width="44" height="8"/>
		<rect x="59" y="45.5" fill="#D8D8D8" width="44" height="7"/>
		<rect x="59" y="45.5" fill="#D9D9D9" width="44" height="7"/>
		<rect x="59" y="45.5" fill="#DADADA" width="44" height="7"/>
		<rect x="59" y="45.5" fill="#DBDBDB" width="44" height="7"/>
		<rect x="59" y="45.5" fill="#DCDCDC" width="44" height="7"/>
		<rect x="59" y="45.5" fill="#DDDDDD" width="44" height="6"/>
		<rect x="59" y="45.5" fill="#DEDEDE" width="44" height="6"/>
		<rect x="59" y="45.5" fill="#DFDFDF" width="44" height="6"/>
		<rect x="59" y="45.5" fill="#E0E0E0" width="44" height="6"/>
		<rect x="59" y="45.5" fill="#E1E1E1" width="44" height="6"/>
		<rect x="59" y="46.5" fill="#E2E2E2" width="44" height="5"/>
		<rect x="59" y="46.5" fill="#E3E3E3" width="44" height="5"/>
		<rect x="59" y="46.5" fill="#E4E4E4" width="44" height="5"/>
	</g>
</g>
</svg>
