<?xml version="1.0" encoding="utf-8"?>
<!-- Generator: Adobe Illustrator 15.0.0, SVG Export Plug-In  -->
<!DOCTYPE svg PUBLIC "-//W3C//DTD SVG 1.1//EN" "http://www.w3.org/Graphics/SVG/1.1/DTD/svg11.dtd" [
	<!ENTITY ns_flows "http://ns.adobe.com/Flows/1.0/">
]>
<svg version="1.1"
	 xmlns="http://www.w3.org/2000/svg" xmlns:xlink="http://www.w3.org/1999/xlink" xmlns:a="http://ns.adobe.com/AdobeSVGViewerExtensions/3.0/"
	 x="0px" y="0px" width="100px" height="85px" viewBox="0 0.5 100 85" enable-background="new 0 0.5 100 85" xml:space="preserve">
<defs>
</defs>
<g>
	<rect y="51.5" fill="#4D4D4D" width="100" height="35"/>
	<rect y="51.5" fill="#4E4E4E" width="100" height="35"/>
	<rect y="51.5" fill="#4F4F4F" width="100" height="35"/>
	<rect y="51.5" fill="#505050" width="100" height="35"/>
	<rect y="51.5" fill="#515151" width="100" height="35"/>
	<rect y="51.5" fill="#525252" width="100" height="35"/>
	<rect y="52.5" fill="#535353" width="100" height="33"/>
	<rect y="52.5" fill="#545454" width="100" height="33"/>
	<rect y="52.5" fill="#555555" width="100" height="33"/>
	<rect y="52.5" fill="#565656" width="100" height="33"/>
	<rect y="52.5" fill="#575757" width="100" height="33"/>
	<rect y="52.5" fill="#585858" width="100" height="33"/>
	<rect y="52.5" fill="#595959" width="100" height="33"/>
	<rect y="52.5" fill="#5A5A5A" width="100" height="33"/>
	<rect y="52.5" fill="#5B5B5B" width="100" height="33"/>
	<rect y="52.5" fill="#5C5C5C" width="100" height="33"/>
	<rect y="53.5" fill="#5D5D5D" width="100" height="31"/>
	<rect y="53.5" fill="#5E5E5E" width="100" height="31"/>
	<rect y="53.5" fill="#5F5F5F" width="100" height="31"/>
	<rect y="53.5" fill="#606060" width="100" height="31"/>
	<rect y="53.5" fill="#616161" width="100" height="31"/>
	<rect y="53.5" fill="#626262" width="100" height="31"/>
	<rect y="53.5" fill="#636363" width="100" height="31"/>
	<rect y="53.5" fill="#646464" width="100" height="31"/>
	<rect y="53.5" fill="#656565" width="100" height="31"/>
	<rect y="53.5" fill="#666666" width="100" height="31"/>
	<rect y="54.5" fill="#676767" width="100" height="29"/>
	<rect y="54.5" fill="#686868" width="100" height="29"/>
	<rect y="54.5" fill="#696969" width="100" height="29"/>
	<rect y="54.5" fill="#6A6A6A" width="100" height="29"/>
	<rect y="54.5" fill="#6B6B6B" width="100" height="29"/>
	<rect y="54.5" fill="#6C6C6C" width="100" height="29"/>
	<rect y="54.5" fill="#6D6D6D" width="100" height="29"/>
	<rect y="54.5" fill="#6E6E6E" width="100" height="29"/>
	<rect y="54.5" fill="#6F6F6F" width="100" height="29"/>
	<rect y="54.5" fill="#707070" width="100" height="29"/>
	<rect y="55.5" fill="#717171" width="100" height="27"/>
	<rect y="55.5" fill="#727272" width="100" height="27"/>
	<rect y="55.5" fill="#737373" width="100" height="27"/>
	<rect y="55.5" fill="#747474" width="100" height="27"/>
	<rect y="55.5" fill="#757575" width="100" height="27"/>
	<rect y="55.5" fill="#767676" width="100" height="27"/>
	<rect y="55.5" fill="#777777" width="100" height="27"/>
	<rect y="55.5" fill="#787878" width="100" height="27"/>
	<rect y="55.5" fill="#797979" width="100" height="27"/>
	<rect y="55.5" fill="#7A7A7A" width="100" height="27"/>
	<rect y="56.5" fill="#7B7B7B" width="100" height="25"/>
	<rect y="56.5" fill="#7C7C7C" width="100" height="25"/>
	<rect y="56.5" fill="#7D7D7D" width="100" height="25"/>
	<rect y="56.5" fill="#7E7E7E" width="100" height="25"/>
	<rect y="56.5" fill="#7F7F7F" width="100" height="25"/>
	<rect y="56.5" fill="#808080" width="100" height="25"/>
	<rect y="56.5" fill="#818181" width="100" height="25"/>
	<rect y="56.5" fill="#828282" width="100" height="25"/>
	<rect y="56.5" fill="#838383" width="100" height="25"/>
	<rect y="56.5" fill="#848484" width="100" height="25"/>
	<rect y="57.5" fill="#858585" width="100" height="23"/>
	<rect y="57.5" fill="#868686" width="100" height="23"/>
	<rect y="57.5" fill="#878787" width="100" height="23"/>
	<rect y="57.5" fill="#888888" width="100" height="23"/>
	<rect y="57.5" fill="#898989" width="100" height="23"/>
	<rect y="57.5" fill="#8A8A8A" width="100" height="23"/>
	<rect y="57.5" fill="#8B8B8B" width="100" height="23"/>
	<rect y="57.5" fill="#8C8C8C" width="100" height="23"/>
	<rect y="57.5" fill="#8D8D8D" width="100" height="23"/>
	<rect y="57.5" fill="#8E8E8E" width="100" height="23"/>
	<rect y="58.5" fill="#8F8F8F" width="100" height="21"/>
	<rect y="58.5" fill="#909090" width="100" height="21"/>
	<rect y="58.5" fill="#919191" width="100" height="21"/>
	<rect y="58.5" fill="#929292" width="100" height="21"/>
	<rect y="58.5" fill="#939393" width="100" height="21"/>
	<rect y="58.5" fill="#949494" width="100" height="21"/>
	<rect y="58.5" fill="#959595" width="100" height="21"/>
	<rect y="58.5" fill="#969696" width="100" height="21"/>
	<rect y="58.5" fill="#979797" width="100" height="21"/>
	<rect y="58.5" fill="#989898" width="100" height="21"/>
	<rect y="59.5" fill="#999999" width="100" height="19"/>
	<rect y="59.5" fill="#9A9A9A" width="100" height="19"/>
	<rect y="59.5" fill="#9B9B9B" width="100" height="19"/>
	<rect y="59.5" fill="#9C9C9C" width="100" height="19"/>
	<rect y="59.5" fill="#9D9D9D" width="100" height="19"/>
	<rect y="59.5" fill="#9E9E9E" width="100" height="19"/>
	<rect y="59.5" fill="#9F9F9F" width="100" height="19"/>
	<rect y="59.5" fill="#A0A0A0" width="100" height="19"/>
	<rect y="59.5" fill="#A1A1A1" width="100" height="19"/>
	<rect y="59.5" fill="#A2A2A2" width="100" height="19"/>
	<rect y="60.5" fill="#A3A3A3" width="100" height="17"/>
	<rect y="60.5" fill="#A4A4A4" width="100" height="17"/>
	<rect y="60.5" fill="#A5A5A5" width="100" height="17"/>
	<rect y="60.5" fill="#A6A6A6" width="100" height="17"/>
	<rect y="60.5" fill="#A7A7A7" width="100" height="17"/>
	<rect y="60.5" fill="#A8A8A8" width="100" height="17"/>
	<rect y="60.5" fill="#A9A9A9" width="100" height="17"/>
	<rect y="60.5" fill="#AAAAAA" width="100" height="17"/>
	<rect y="60.5" fill="#ABABAB" width="100" height="17"/>
	<rect y="60.5" fill="#ACACAC" width="100" height="17"/>
	<rect y="61.5" fill="#ADADAD" width="100" height="15"/>
	<rect y="61.5" fill="#AEAEAE" width="100" height="15"/>
	<rect y="61.5" fill="#AFAFAF" width="100" height="15"/>
	<rect y="61.5" fill="#B0B0B0" width="100" height="15"/>
	<rect y="61.5" fill="#B1B1B1" width="100" height="15"/>
	<rect y="61.5" fill="#B2B2B2" width="100" height="15"/>
	<rect y="61.5" fill="#B3B3B3" width="100" height="15"/>
	<rect y="61.5" fill="#B4B4B4" width="100" height="15"/>
	<rect y="61.5" fill="#B5B5B5" width="100" height="15"/>
	<rect y="61.5" fill="#B6B6B6" width="100" height="15"/>
	<rect y="62.5" fill="#B7B7B7" width="100" height="13"/>
	<rect y="62.5" fill="#B8B8B8" width="100" height="13"/>
	<rect y="62.5" fill="#B9B9B9" width="100" height="13"/>
	<rect y="62.5" fill="#BABABA" width="100" height="13"/>
	<rect y="62.5" fill="#BBBBBB" width="100" height="13"/>
	<rect y="62.5" fill="#BCBCBC" width="100" height="13"/>
	<rect y="62.5" fill="#BDBDBD" width="100" height="13"/>
	<rect y="62.5" fill="#BEBEBE" width="100" height="13"/>
	<rect y="62.5" fill="#BFBFBF" width="100" height="13"/>
	<rect y="62.5" fill="#C0C0C0" width="100" height="13"/>
	<rect y="63.5" fill="#C1C1C1" width="100" height="11"/>
	<rect y="63.5" fill="#C2C2C2" width="100" height="11"/>
	<rect y="63.5" fill="#C3C3C3" width="100" height="11"/>
	<rect y="63.5" fill="#C4C4C4" width="100" height="11"/>
	<rect y="63.5" fill="#C5C5C5" width="100" height="11"/>
	<rect y="63.5" fill="#C6C6C6" width="100" height="11"/>
	<rect y="63.5" fill="#C7C7C7" width="100" height="11"/>
	<rect y="63.5" fill="#C8C8C8" width="100" height="11"/>
	<rect y="63.5" fill="#C9C9C9" width="100" height="11"/>
	<rect y="63.5" fill="#CACACA" width="100" height="11"/>
	<rect y="64.5" fill="#CBCBCB" width="100" height="9"/>
	<rect y="64.5" fill="#CCCCCC" width="100" height="9"/>
	<rect y="64.5" fill="#CDCDCD" width="100" height="9"/>
	<rect y="64.5" fill="#CECECE" width="100" height="9"/>
	<rect y="64.5" fill="#CFCFCF" width="100" height="9"/>
	<rect y="64.5" fill="#D0D0D0" width="100" height="9"/>
	<rect y="64.5" fill="#D1D1D1" width="100" height="9"/>
	<rect y="64.5" fill="#D2D2D2" width="100" height="9"/>
	<rect y="64.5" fill="#D3D3D3" width="100" height="9"/>
	<rect y="64.5" fill="#D4D4D4" width="100" height="9"/>
	<rect y="65.5" fill="#D5D5D5" width="100" height="7"/>
	<rect y="65.5" fill="#D6D6D6" width="100" height="7"/>
	<rect y="65.5" fill="#D7D7D7" width="100" height="7"/>
	<rect y="65.5" fill="#D8D8D8" width="100" height="7"/>
	<rect y="65.5" fill="#D9D9D9" width="100" height="7"/>
	<rect y="65.5" fill="#DADADA" width="100" height="7"/>
	<rect y="65.5" fill="#DBDBDB" width="100" height="7"/>
	<rect y="65.5" fill="#DCDCDC" width="100" height="7"/>
	<rect y="65.5" fill="#DDDDDD" width="100" height="7"/>
	<rect y="65.5" fill="#DEDEDE" width="100" height="7"/>
	<rect y="66.5" fill="#DFDFDF" width="100" height="5"/>
	<rect y="66.5" fill="#E0E0E0" width="100" height="5"/>
	<rect y="66.5" fill="#E1E1E1" width="100" height="5"/>
	<rect y="66.5" fill="#E2E2E2" width="100" height="5"/>
	<rect y="66.5" fill="#E3E3E3" width="100" height="5"/>
	<rect y="66.5" fill="#E4E4E4" width="100" height="5"/>
</g>
<g>
	<defs>
		<polygon id="SVGID_1_" points="33,1.5 33,52 50.5,62 68,52 68,1.5 		"/>
	</defs>
	<clipPath id="SVGID_2_">
		<use xlink:href="#SVGID_1_"  overflow="visible"/>
	</clipPath>
	<g clip-path="url(#SVGID_2_)">
		<rect x="33" y="0.5" fill="#4D4D4D" width="35" height="61"/>
		<rect x="33" y="0.5" fill="#4E4E4E" width="35" height="61"/>
		<rect x="33" y="0.5" fill="#4F4F4F" width="35" height="61"/>
		<rect x="33" y="0.5" fill="#505050" width="34" height="61"/>
		<rect x="33" y="0.5" fill="#515151" width="34" height="61"/>
		<rect x="33" y="0.5" fill="#525252" width="34" height="61"/>
		<rect x="33" y="0.5" fill="#535353" width="34" height="61"/>
		<rect x="33" y="0.5" fill="#545454" width="34" height="61"/>
		<rect x="34" y="0.5" fill="#555555" width="33" height="61"/>
		<rect x="34" y="0.5" fill="#565656" width="33" height="61"/>
		<rect x="34" y="0.5" fill="#575757" width="33" height="61"/>
		<rect x="34" y="0.5" fill="#585858" width="33" height="61"/>
		<rect x="34" y="0.5" fill="#595959" width="33" height="61"/>
		<rect x="34" y="0.5" fill="#5A5A5A" width="32" height="61"/>
		<rect x="34" y="0.5" fill="#5B5B5B" width="32" height="61"/>
		<rect x="34" y="0.5" fill="#5C5C5C" width="32" height="61"/>
		<rect x="34" y="0.5" fill="#5D5D5D" width="32" height="61"/>
		<rect x="34" y="0.5" fill="#5E5E5E" width="32" height="61"/>
		<rect x="35" y="0.5" fill="#5F5F5F" width="31" height="61"/>
		<rect x="35" y="0.5" fill="#606060" width="31" height="61"/>
		<rect x="35" y="0.5" fill="#616161" width="31" height="61"/>
		<rect x="35" y="0.5" fill="#626262" width="31" height="61"/>
		<rect x="35" y="0.5" fill="#636363" width="31" height="61"/>
		<rect x="35" y="0.5" fill="#646464" width="30" height="61"/>
		<rect x="35" y="0.5" fill="#656565" width="30" height="61"/>
		<rect x="35" y="0.5" fill="#666666" width="30" height="61"/>
		<rect x="35" y="0.5" fill="#676767" width="30" height="61"/>
		<rect x="35" y="0.5" fill="#686868" width="30" height="61"/>
		<rect x="36" y="0.5" fill="#696969" width="29" height="61"/>
		<rect x="36" y="0.5" fill="#6A6A6A" width="29" height="61"/>
		<rect x="36" y="0.5" fill="#6B6B6B" width="29" height="61"/>
		<rect x="36" y="0.5" fill="#6C6C6C" width="29" height="61"/>
		<rect x="36" y="0.5" fill="#6D6D6D" width="29" height="61"/>
		<rect x="36" y="0.5" fill="#6E6E6E" width="28" height="61"/>
		<rect x="36" y="0.5" fill="#6F6F6F" width="28" height="61"/>
		<rect x="36" y="0.5" fill="#707070" width="28" height="61"/>
		<rect x="36" y="0.5" fill="#717171" width="28" height="61"/>
		<rect x="36" y="0.5" fill="#727272" width="28" height="61"/>
		<rect x="37" y="0.5" fill="#737373" width="27" height="61"/>
		<rect x="37" y="0.5" fill="#747474" width="27" height="61"/>
		<rect x="37" y="0.5" fill="#757575" width="27" height="61"/>
		<rect x="37" y="0.5" fill="#767676" width="27" height="61"/>
		<rect x="37" y="0.5" fill="#777777" width="27" height="61"/>
		<rect x="37" y="0.5" fill="#787878" width="27" height="61"/>
		<rect x="37" y="0.5" fill="#797979" width="26" height="61"/>
		<rect x="37" y="0.5" fill="#7A7A7A" width="26" height="61"/>
		<rect x="37" y="0.5" fill="#7B7B7B" width="26" height="61"/>
		<rect x="37" y="0.5" fill="#7C7C7C" width="26" height="61"/>
		<rect x="38" y="0.5" fill="#7D7D7D" width="25" height="61"/>
		<rect x="38" y="0.5" fill="#7E7E7E" width="25" height="61"/>
		<rect x="38" y="0.5" fill="#7F7F7F" width="25" height="61"/>
		<rect x="38" y="0.5" fill="#808080" width="25" height="61"/>
		<rect x="38" y="0.5" fill="#818181" width="25" height="61"/>
		<rect x="38" y="0.5" fill="#828282" width="25" height="61"/>
		<rect x="38" y="0.5" fill="#838383" width="24" height="61"/>
		<rect x="38" y="0.5" fill="#848484" width="24" height="61"/>
		<rect x="38" y="0.5" fill="#858585" width="24" height="61"/>
		<rect x="38" y="0.5" fill="#868686" width="24" height="61"/>
		<rect x="39" y="0.5" fill="#878787" width="23" height="61"/>
		<rect x="39" y="0.5" fill="#888888" width="23" height="61"/>
		<rect x="39" y="0.5" fill="#898989" width="23" height="61"/>
		<rect x="39" y="0.5" fill="#8A8A8A" width="23" height="61"/>
		<rect x="39" y="0.5" fill="#8B8B8B" width="23" height="61"/>
		<rect x="39" y="0.5" fill="#8C8C8C" width="23" height="61"/>
		<rect x="39" y="0.5" fill="#8D8D8D" width="22" height="61"/>
		<rect x="39" y="0.5" fill="#8E8E8E" width="22" height="61"/>
		<rect x="39" y="0.5" fill="#8F8F8F" width="22" height="61"/>
		<rect x="39" y="0.5" fill="#909090" width="22" height="61"/>
		<rect x="40" y="0.5" fill="#919191" width="21" height="61"/>
		<rect x="40" y="0.5" fill="#929292" width="21" height="61"/>
		<rect x="40" y="0.5" fill="#939393" width="21" height="61"/>
		<rect x="40" y="0.5" fill="#949494" width="21" height="61"/>
		<rect x="40" y="0.5" fill="#959595" width="21" height="61"/>
		<rect x="40" y="0.5" fill="#969696" width="21" height="61"/>
		<rect x="40" y="0.5" fill="#979797" width="20" height="61"/>
		<rect x="40" y="0.5" fill="#989898" width="20" height="61"/>
		<rect x="40" y="0.5" fill="#999999" width="20" height="61"/>
		<rect x="40" y="0.5" fill="#9A9A9A" width="20" height="61"/>
		<rect x="41" y="0.5" fill="#9B9B9B" width="19" height="61"/>
		<rect x="41" y="0.5" fill="#9C9C9C" width="19" height="61"/>
		<rect x="41" y="0.5" fill="#9D9D9D" width="19" height="61"/>
		<rect x="41" y="0.5" fill="#9E9E9E" width="19" height="61"/>
		<rect x="41" y="0.5" fill="#9F9F9F" width="19" height="61"/>
		<rect x="41" y="0.5" fill="#A0A0A0" width="19" height="61"/>
		<rect x="41" y="0.5" fill="#A1A1A1" width="18" height="61"/>
		<rect x="41" y="0.5" fill="#A2A2A2" width="18" height="61"/>
		<rect x="41" y="0.5" fill="#A3A3A3" width="18" height="61"/>
		<rect x="41" y="0.5" fill="#A4A4A4" width="18" height="61"/>
		<rect x="42" y="0.5" fill="#A5A5A5" width="17" height="61"/>
		<rect x="42" y="0.5" fill="#A6A6A6" width="17" height="61"/>
		<rect x="42" y="0.5" fill="#A7A7A7" width="17" height="61"/>
		<rect x="42" y="0.5" fill="#A8A8A8" width="17" height="61"/>
		<rect x="42" y="0.5" fill="#A9A9A9" width="17" height="61"/>
		<rect x="42" y="0.5" fill="#AAAAAA" width="17" height="61"/>
		<rect x="42" y="0.5" fill="#ABABAB" width="16" height="61"/>
		<rect x="42" y="0.5" fill="#ACACAC" width="16" height="61"/>
		<rect x="42" y="0.5" fill="#ADADAD" width="16" height="61"/>
		<rect x="42" y="0.5" fill="#AEAEAE" width="16" height="61"/>
		<rect x="43" y="0.5" fill="#AFAFAF" width="15" height="61"/>
		<rect x="43" y="0.5" fill="#B0B0B0" width="15" height="61"/>
		<rect x="43" y="0.5" fill="#B1B1B1" width="15" height="61"/>
		<rect x="43" y="0.5" fill="#B2B2B2" width="15" height="61"/>
		<rect x="43" y="0.5" fill="#B3B3B3" width="15" height="61"/>
		<rect x="43" y="0.5" fill="#B4B4B4" width="15" height="61"/>
		<rect x="43" y="0.5" fill="#B5B5B5" width="14" height="61"/>
		<rect x="43" y="0.5" fill="#B6B6B6" width="14" height="61"/>
		<rect x="43" y="0.5" fill="#B7B7B7" width="14" height="61"/>
		<rect x="43" y="0.5" fill="#B8B8B8" width="14" height="61"/>
		<rect x="44" y="0.5" fill="#B9B9B9" width="13" height="61"/>
		<rect x="44" y="0.5" fill="#BABABA" width="13" height="61"/>
		<rect x="44" y="0.5" fill="#BBBBBB" width="13" height="61"/>
		<rect x="44" y="0.5" fill="#BCBCBC" width="13" height="61"/>
		<rect x="44" y="0.5" fill="#BDBDBD" width="13" height="61"/>
		<rect x="44" y="0.5" fill="#BEBEBE" width="13" height="61"/>
		<rect x="44" y="0.5" fill="#BFBFBF" width="12" height="61"/>
		<rect x="44" y="0.5" fill="#C0C0C0" width="12" height="61"/>
		<rect x="44" y="0.5" fill="#C1C1C1" width="12" height="61"/>
		<rect x="44" y="0.5" fill="#C2C2C2" width="12" height="61"/>
		<rect x="44" y="0.5" fill="#C3C3C3" width="12" height="61"/>
		<rect x="45" y="0.5" fill="#C4C4C4" width="11" height="61"/>
		<rect x="45" y="0.5" fill="#C5C5C5" width="11" height="61"/>
		<rect x="45" y="0.5" fill="#C6C6C6" width="11" height="61"/>
		<rect x="45" y="0.5" fill="#C7C7C7" width="11" height="61"/>
		<rect x="45" y="0.5" fill="#C8C8C8" width="11" height="61"/>
		<rect x="45" y="0.5" fill="#C9C9C9" width="10" height="61"/>
		<rect x="45" y="0.5" fill="#CACACA" width="10" height="61"/>
		<rect x="45" y="0.5" fill="#CBCBCB" width="10" height="61"/>
		<rect x="45" y="0.5" fill="#CCCCCC" width="10" height="61"/>
		<rect x="45" y="0.5" fill="#CDCDCD" width="10" height="61"/>
		<rect x="46" y="0.5" fill="#CECECE" width="9" height="61"/>
		<rect x="46" y="0.5" fill="#CFCFCF" width="9" height="61"/>
		<rect x="46" y="0.5" fill="#D0D0D0" width="9" height="61"/>
		<rect x="46" y="0.5" fill="#D1D1D1" width="9" height="61"/>
		<rect x="46" y="0.5" fill="#D2D2D2" width="9" height="61"/>
		<rect x="46" y="0.5" fill="#D3D3D3" width="8" height="61"/>
		<rect x="46" y="0.5" fill="#D4D4D4" width="8" height="61"/>
		<rect x="46" y="0.5" fill="#D5D5D5" width="8" height="61"/>
		<rect x="46" y="0.5" fill="#D6D6D6" width="8" height="61"/>
		<rect x="46" y="0.5" fill="#D7D7D7" width="8" height="61"/>
		<rect x="47" y="0.5" fill="#D8D8D8" width="7" height="61"/>
		<rect x="47" y="0.5" fill="#D9D9D9" width="7" height="61"/>
		<rect x="47" y="0.5" fill="#DADADA" width="7" height="61"/>
		<rect x="47" y="0.5" fill="#DBDBDB" width="7" height="61"/>
		<rect x="47" y="0.5" fill="#DCDCDC" width="7" height="61"/>
		<rect x="47" y="0.5" fill="#DDDDDD" width="6" height="61"/>
		<rect x="47" y="0.5" fill="#DEDEDE" width="6" height="61"/>
		<rect x="47" y="0.5" fill="#DFDFDF" width="6" height="61"/>
		<rect x="47" y="0.5" fill="#E0E0E0" width="6" height="61"/>
		<rect x="47" y="0.5" fill="#E1E1E1" width="6" height="61"/>
		<rect x="48" y="0.5" fill="#E2E2E2" width="5" height="61"/>
		<rect x="48" y="0.5" fill="#E3E3E3" width="5" height="61"/>
		<rect x="48" y="0.5" fill="#E4E4E4" width="5" height="61"/>
	</g>
</g>
</svg>
