<?xml version="1.0" encoding="utf-8"?>
<!-- Generator: Adobe Illustrator 15.0.0, SVG Export Plug-In  -->
<!DOCTYPE svg PUBLIC "-//W3C//DTD SVG 1.1//EN" "http://www.w3.org/Graphics/SVG/1.1/DTD/svg11.dtd" [
	<!ENTITY ns_flows "http://ns.adobe.com/Flows/1.0/">
]>
<svg version="1.1"
	 xmlns="http://www.w3.org/2000/svg" xmlns:xlink="http://www.w3.org/1999/xlink" xmlns:a="http://ns.adobe.com/AdobeSVGViewerExtensions/3.0/"
	 x="0px" y="0px" width="70px" height="35px" viewBox="0 0.25 70 35" enable-background="new 0 0.25 70 35" xml:space="preserve">
<defs>
</defs>
<g>
	<polygon fill="#4D4D4D" points="40,0 29,10 29,25 40,35 	"/>
	<polygon fill="#4E4E4E" points="40,0.099 29,10.033 29,24.967 40,34.901 	"/>
	<polygon fill="#4F4F4F" points="40,0.199 29,10.066 29,24.934 40,34.801 	"/>
	<polygon fill="#505050" points="40,0.298 29,10.099 29,24.901 40,34.702 	"/>
	<polygon fill="#515151" points="40,0.397 29,10.132 29,24.868 40,34.603 	"/>
	<polygon fill="#525252" points="40,0.497 29,10.166 29,24.834 40,34.503 	"/>
	<polygon fill="#535353" points="40,0.596 29,10.199 29,24.801 40,34.404 	"/>
	<polygon fill="#545454" points="40,0.695 29,10.232 29,24.768 40,34.305 	"/>
	<polygon fill="#555555" points="40,0.795 29,10.265 29,24.735 40,34.205 	"/>
	<polygon fill="#565656" points="40,0.894 29,10.298 29,24.702 40,34.106 	"/>
	<polygon fill="#575757" points="40,0.993 29,10.331 29,24.669 40,34.007 	"/>
	<polygon fill="#585858" points="40,1.093 29,10.364 29,24.636 40,33.907 	"/>
	<polygon fill="#595959" points="40,1.192 29,10.397 29,24.603 40,33.808 	"/>
	<polygon fill="#5A5A5A" points="40,1.292 29,10.431 29,24.569 40,33.708 	"/>
	<polygon fill="#5B5B5B" points="40,1.391 29,10.463 29,24.537 40,33.609 	"/>
	<polygon fill="#5C5C5C" points="40,1.49 29,10.497 29,24.503 40,33.51 	"/>
	<polygon fill="#5D5D5D" points="40,1.589 29,10.53 29,24.47 40,33.411 	"/>
	<polygon fill="#5E5E5E" points="40,1.689 29,10.563 29,24.437 40,33.311 	"/>
	<polygon fill="#5F5F5F" points="40,1.788 29,10.596 29,24.404 40,33.212 	"/>
	<polygon fill="#606060" points="40,1.887 29,10.629 29,24.371 40,33.113 	"/>
	<polygon fill="#616161" points="40,1.987 29,10.662 29,24.338 40,33.013 	"/>
	<polygon fill="#626262" points="40,2.086 29,10.695 29,24.305 40,32.914 	"/>
	<polygon fill="#636363" points="40,2.186 29,10.729 29,24.271 40,32.814 	"/>
	<polygon fill="#646464" points="40,2.285 29,10.762 29,24.238 40,32.715 	"/>
	<polygon fill="#656565" points="40,2.384 29,10.795 29,24.205 40,32.616 	"/>
	<polygon fill="#666666" points="40,2.483 29,10.828 29,24.172 40,32.517 	"/>
	<polygon fill="#676767" points="40,2.583 29,10.861 29,24.139 40,32.417 	"/>
	<polygon fill="#686868" points="40,2.682 29,10.894 29,24.106 40,32.318 	"/>
	<polygon fill="#696969" points="40,2.781 29,10.927 29,24.073 40,32.219 	"/>
	<polygon fill="#6A6A6A" points="40,2.881 29,10.96 29,24.04 40,32.119 	"/>
	<polygon fill="#6B6B6B" points="40,2.98 29,10.993 29,24.007 40,32.02 	"/>
	<polygon fill="#6C6C6C" points="40,3.08 29,11.026 29,23.974 40,31.92 	"/>
	<polygon fill="#6D6D6D" points="40,3.179 29,11.06 29,23.94 40,31.821 	"/>
	<polygon fill="#6E6E6E" points="40,3.278 29,11.093 29,23.907 40,31.722 	"/>
	<polygon fill="#6F6F6F" points="40,3.377 29,11.126 29,23.874 40,31.623 	"/>
	<polygon fill="#707070" points="40,3.477 29,11.159 29,23.841 40,31.523 	"/>
	<polygon fill="#717171" points="40,3.576 29,11.192 29,23.808 40,31.424 	"/>
	<polygon fill="#727272" points="40,3.675 29,11.225 29,23.775 40,31.325 	"/>
	<polygon fill="#737373" points="40,3.775 29,11.258 29,23.742 40,31.225 	"/>
	<polygon fill="#747474" points="40,3.874 29,11.292 29,23.708 40,31.126 	"/>
	<polygon fill="#757575" points="40,3.974 29,11.325 29,23.675 40,31.026 	"/>
	<polygon fill="#767676" points="40,4.073 29,11.357 29,23.643 40,30.927 	"/>
	<polygon fill="#777777" points="40,4.172 29,11.391 29,23.609 40,30.828 	"/>
	<polygon fill="#787878" points="40,4.271 29,11.424 29,23.576 40,30.729 	"/>
	<polygon fill="#797979" points="40,4.371 29,11.457 29,23.543 40,30.629 	"/>
	<polygon fill="#7A7A7A" points="40,4.47 29,11.49 29,23.51 40,30.53 	"/>
	<polygon fill="#7B7B7B" points="40,4.569 29,11.523 29,23.477 40,30.431 	"/>
	<polygon fill="#7C7C7C" points="40,4.669 29,11.556 29,23.444 40,30.331 	"/>
	<polygon fill="#7D7D7D" points="40,4.768 29,11.589 29,23.411 40,30.232 	"/>
	<polygon fill="#7E7E7E" points="40,4.868 29,11.623 29,23.377 40,30.132 	"/>
	<polygon fill="#7F7F7F" points="40,4.967 29,11.656 29,23.344 40,30.033 	"/>
	<polygon fill="#808080" points="40,5.066 29,11.689 29,23.311 40,29.934 	"/>
	<polygon fill="#818181" points="40,5.166 29,11.722 29,23.278 40,29.834 	"/>
	<polygon fill="#828282" points="40,5.265 29,11.755 29,23.245 40,29.735 	"/>
	<polygon fill="#838383" points="40,5.364 29,11.788 29,23.212 40,29.636 	"/>
	<polygon fill="#848484" points="40,5.463 29,11.821 29,23.179 40,29.537 	"/>
	<polygon fill="#858585" points="40,5.563 29,11.854 29,23.146 40,29.437 	"/>
	<polygon fill="#868686" points="40,5.662 29,11.887 29,23.113 40,29.338 	"/>
	<polygon fill="#878787" points="40,5.762 29,11.92 29,23.08 40,29.238 	"/>
	<polygon fill="#888888" points="40,5.861 29,11.954 29,23.046 40,29.139 	"/>
	<polygon fill="#898989" points="40,5.96 29,11.987 29,23.013 40,29.04 	"/>
	<polygon fill="#8A8A8A" points="40,6.06 29,12.02 29,22.98 40,28.94 	"/>
	<polygon fill="#8B8B8B" points="40,6.159 29,12.053 29,22.947 40,28.841 	"/>
	<polygon fill="#8C8C8C" points="40,6.258 29,12.086 29,22.914 40,28.742 	"/>
	<polygon fill="#8D8D8D" points="40,6.357 29,12.119 29,22.881 40,28.643 	"/>
	<polygon fill="#8E8E8E" points="40,6.457 29,12.152 29,22.848 40,28.543 	"/>
	<polygon fill="#8F8F8F" points="40,6.556 29,12.186 29,22.814 40,28.444 	"/>
	<polygon fill="#909090" points="40,6.656 29,12.219 29,22.781 40,28.344 	"/>
	<polygon fill="#919191" points="40,6.755 29,12.251 29,22.749 40,28.245 	"/>
	<polygon fill="#929292" points="40,6.854 29,12.285 29,22.715 40,28.146 	"/>
	<polygon fill="#939393" points="40,6.954 29,12.318 29,22.682 40,28.046 	"/>
	<polygon fill="#949494" points="40,7.053 29,12.351 29,22.649 40,27.947 	"/>
	<polygon fill="#959595" points="40,7.152 29,12.384 29,22.616 40,27.848 	"/>
	<polygon fill="#969696" points="40,7.251 29,12.417 29,22.583 40,27.749 	"/>
	<polygon fill="#979797" points="40,7.351 29,12.45 29,22.55 40,27.649 	"/>
	<polygon fill="#989898" points="40,7.45 29,12.483 29,22.517 40,27.55 	"/>
	<polygon fill="#999999" points="40,7.55 29,12.517 29,22.483 40,27.45 	"/>
	<polygon fill="#9A9A9A" points="40,7.649 29,12.55 29,22.45 40,27.351 	"/>
	<polygon fill="#9B9B9B" points="40,7.749 29,12.583 29,22.417 40,27.251 	"/>
	<polygon fill="#9C9C9C" points="40,7.848 29,12.616 29,22.384 40,27.152 	"/>
	<polygon fill="#9D9D9D" points="40,7.947 29,12.649 29,22.351 40,27.053 	"/>
	<polygon fill="#9E9E9E" points="40,8.046 29,12.682 29,22.318 40,26.954 	"/>
	<polygon fill="#9F9F9F" points="40,8.146 29,12.715 29,22.285 40,26.854 	"/>
	<polygon fill="#A0A0A0" points="40,8.245 29,12.749 29,22.251 40,26.755 	"/>
	<polygon fill="#A1A1A1" points="40,8.344 29,12.781 29,22.219 40,26.656 	"/>
	<polygon fill="#A2A2A2" points="40,8.444 29,12.814 29,22.186 40,26.556 	"/>
	<polygon fill="#A3A3A3" points="40,8.543 29,12.848 29,22.152 40,26.457 	"/>
	<polygon fill="#A4A4A4" points="40,8.643 29,12.881 29,22.119 40,26.357 	"/>
	<polygon fill="#A5A5A5" points="40,8.742 29,12.914 29,22.086 40,26.258 	"/>
	<polygon fill="#A6A6A6" points="40,8.841 29,12.947 29,22.053 40,26.159 	"/>
	<polygon fill="#A7A7A7" points="40,8.94 29,12.98 29,22.02 40,26.06 	"/>
	<polygon fill="#A8A8A8" points="40,9.04 29,13.013 29,21.987 40,25.96 	"/>
	<polygon fill="#A9A9A9" points="40,9.139 29,13.046 29,21.954 40,25.861 	"/>
	<polygon fill="#AAAAAA" points="40,9.238 29,13.08 29,21.92 40,25.762 	"/>
	<polygon fill="#ABABAB" points="40,9.338 29,13.113 29,21.887 40,25.662 	"/>
	<polygon fill="#ACACAC" points="40,9.437 29,13.146 29,21.854 40,25.563 	"/>
	<polygon fill="#ADADAD" points="40,9.537 29,13.179 29,21.821 40,25.463 	"/>
	<polygon fill="#AEAEAE" points="40,9.636 29,13.212 29,21.788 40,25.364 	"/>
	<polygon fill="#AFAFAF" points="40,9.735 29,13.245 29,21.755 40,25.265 	"/>
	<polygon fill="#B0B0B0" points="40,9.834 29,13.278 29,21.722 40,25.166 	"/>
	<polygon fill="#B1B1B1" points="40,9.934 29,13.311 29,21.689 40,25.066 	"/>
	<polygon fill="#B2B2B2" points="40,10.033 29,13.344 29,21.656 40,24.967 	"/>
	<polygon fill="#B3B3B3" points="40,10.132 29,13.377 29,21.623 40,24.868 	"/>
	<polygon fill="#B4B4B4" points="40,10.232 29,13.411 29,21.589 40,24.768 	"/>
	<polygon fill="#B5B5B5" points="40,10.331 29,13.444 29,21.556 40,24.669 	"/>
	<polygon fill="#B6B6B6" points="40,10.431 29,13.477 29,21.523 40,24.569 	"/>
	<polygon fill="#B7B7B7" points="40,10.53 29,13.51 29,21.49 40,24.47 	"/>
	<polygon fill="#B8B8B8" points="40,10.629 29,13.543 29,21.457 40,24.371 	"/>
	<polygon fill="#B9B9B9" points="40,10.729 29,13.576 29,21.424 40,24.271 	"/>
	<polygon fill="#BABABA" points="40,10.828 29,13.609 29,21.391 40,24.172 	"/>
	<polygon fill="#BBBBBB" points="40,10.927 29,13.643 29,21.357 40,24.073 	"/>
	<polygon fill="#BCBCBC" points="40,11.026 29,13.675 29,21.325 40,23.974 	"/>
	<polygon fill="#BDBDBD" points="40,11.126 29,13.708 29,21.292 40,23.874 	"/>
	<polygon fill="#BEBEBE" points="40,11.225 29,13.742 29,21.258 40,23.775 	"/>
	<polygon fill="#BFBFBF" points="40,11.325 29,13.775 29,21.225 40,23.675 	"/>
	<polygon fill="#C0C0C0" points="40,11.424 29,13.808 29,21.192 40,23.576 	"/>
	<polygon fill="#C1C1C1" points="40,11.523 29,13.841 29,21.159 40,23.477 	"/>
	<polygon fill="#C2C2C2" points="40,11.623 29,13.874 29,21.126 40,23.377 	"/>
	<polygon fill="#C3C3C3" points="40,11.722 29,13.907 29,21.093 40,23.278 	"/>
	<polygon fill="#C4C4C4" points="40,11.821 29,13.94 29,21.06 40,23.179 	"/>
	<polygon fill="#C5C5C5" points="40,11.92 29,13.974 29,21.026 40,23.08 	"/>
	<polygon fill="#C6C6C6" points="40,12.02 29,14.007 29,20.993 40,22.98 	"/>
	<polygon fill="#C7C7C7" points="40,12.119 29,14.04 29,20.96 40,22.881 	"/>
	<polygon fill="#C8C8C8" points="40,12.219 29,14.073 29,20.927 40,22.781 	"/>
	<polygon fill="#C9C9C9" points="40,12.318 29,14.106 29,20.894 40,22.682 	"/>
	<polygon fill="#CACACA" points="40,12.417 29,14.139 29,20.861 40,22.583 	"/>
	<polygon fill="#CBCBCB" points="40,12.517 29,14.172 29,20.828 40,22.483 	"/>
	<polygon fill="#CCCCCC" points="40,12.616 29,14.205 29,20.795 40,22.384 	"/>
	<polygon fill="#CDCDCD" points="40,12.715 29,14.238 29,20.762 40,22.285 	"/>
	<polygon fill="#CECECE" points="40,12.814 29,14.271 29,20.729 40,22.186 	"/>
	<polygon fill="#CFCFCF" points="40,12.914 29,14.305 29,20.695 40,22.086 	"/>
	<polygon fill="#D0D0D0" points="40,13.013 29,14.338 29,20.662 40,21.987 	"/>
	<polygon fill="#D1D1D1" points="40,13.113 29,14.371 29,20.629 40,21.887 	"/>
	<polygon fill="#D2D2D2" points="40,13.212 29,14.404 29,20.596 40,21.788 	"/>
	<polygon fill="#D3D3D3" points="40,13.311 29,14.437 29,20.563 40,21.689 	"/>
	<polygon fill="#D4D4D4" points="40,13.411 29,14.47 29,20.53 40,21.589 	"/>
	<polygon fill="#D5D5D5" points="40,13.51 29,14.503 29,20.497 40,21.49 	"/>
	<polygon fill="#D6D6D6" points="40,13.609 29,14.537 29,20.463 40,21.391 	"/>
	<polygon fill="#D7D7D7" points="40,13.708 29,14.569 29,20.431 40,21.292 	"/>
	<polygon fill="#D8D8D8" points="40,13.808 29,14.603 29,20.397 40,21.192 	"/>
	<polygon fill="#D9D9D9" points="40,13.907 29,14.636 29,20.364 40,21.093 	"/>
	<polygon fill="#DADADA" points="40,14.007 29,14.669 29,20.331 40,20.993 	"/>
	<polygon fill="#DBDBDB" points="40,14.106 29,14.702 29,20.298 40,20.894 	"/>
	<polygon fill="#DCDCDC" points="40,14.205 29,14.735 29,20.265 40,20.795 	"/>
	<polygon fill="#DDDDDD" points="40,14.305 29,14.768 29,20.232 40,20.695 	"/>
	<polygon fill="#DEDEDE" points="40,14.404 29,14.801 29,20.199 40,20.596 	"/>
	<polygon fill="#DFDFDF" points="40,14.503 29,14.834 29,20.166 40,20.497 	"/>
	<polygon fill="#E0E0E0" points="40,14.603 29,14.868 29,20.132 40,20.397 	"/>
	<polygon fill="#E1E1E1" points="40,14.702 29,14.901 29,20.099 40,20.298 	"/>
	<polygon fill="#E2E2E2" points="40,14.801 29,14.934 29,20.066 40,20.199 	"/>
	<polygon fill="#E3E3E3" points="40,14.901 29,14.967 29,20.033 40,20.099 	"/>
	<rect x="29" y="15.25" fill="#E4E4E4" width="11" height="5"/>
</g>
<g>
	<rect x="40" y="0.25" fill="#4D4D4D" width="31" height="35"/>
	<rect x="40" y="0.25" fill="#4E4E4E" width="31" height="35"/>
	<rect x="40" y="0.25" fill="#4F4F4F" width="31" height="35"/>
	<rect x="40" y="0.25" fill="#505050" width="31" height="34"/>
	<rect x="40" y="0.25" fill="#515151" width="31" height="34"/>
	<rect x="40" y="0.25" fill="#525252" width="31" height="34"/>
	<rect x="40" y="0.25" fill="#535353" width="31" height="34"/>
	<rect x="40" y="0.25" fill="#545454" width="31" height="34"/>
	<rect x="40" y="1.25" fill="#555555" width="31" height="33"/>
	<rect x="40" y="1.25" fill="#565656" width="31" height="33"/>
	<rect x="40" y="1.25" fill="#575757" width="31" height="33"/>
	<rect x="40" y="1.25" fill="#585858" width="31" height="33"/>
	<rect x="40" y="1.25" fill="#595959" width="31" height="33"/>
	<rect x="40" y="1.25" fill="#5A5A5A" width="31" height="32"/>
	<rect x="40" y="1.25" fill="#5B5B5B" width="31" height="32"/>
	<rect x="40" y="1.25" fill="#5C5C5C" width="31" height="32"/>
	<rect x="40" y="1.25" fill="#5D5D5D" width="31" height="32"/>
	<rect x="40" y="1.25" fill="#5E5E5E" width="31" height="32"/>
	<rect x="40" y="2.25" fill="#5F5F5F" width="31" height="31"/>
	<rect x="40" y="2.25" fill="#606060" width="31" height="31"/>
	<rect x="40" y="2.25" fill="#616161" width="31" height="31"/>
	<rect x="40" y="2.25" fill="#626262" width="31" height="31"/>
	<rect x="40" y="2.25" fill="#636363" width="31" height="31"/>
	<rect x="40" y="2.25" fill="#646464" width="31" height="30"/>
	<rect x="40" y="2.25" fill="#656565" width="31" height="30"/>
	<rect x="40" y="2.25" fill="#666666" width="31" height="30"/>
	<rect x="40" y="2.25" fill="#676767" width="31" height="30"/>
	<rect x="40" y="2.25" fill="#686868" width="31" height="30"/>
	<rect x="40" y="3.25" fill="#696969" width="31" height="29"/>
	<rect x="40" y="3.25" fill="#6A6A6A" width="31" height="29"/>
	<rect x="40" y="3.25" fill="#6B6B6B" width="31" height="29"/>
	<rect x="40" y="3.25" fill="#6C6C6C" width="31" height="29"/>
	<rect x="40" y="3.25" fill="#6D6D6D" width="31" height="29"/>
	<rect x="40" y="3.25" fill="#6E6E6E" width="31" height="28"/>
	<rect x="40" y="3.25" fill="#6F6F6F" width="31" height="28"/>
	<rect x="40" y="3.25" fill="#707070" width="31" height="28"/>
	<rect x="40" y="3.25" fill="#717171" width="31" height="28"/>
	<rect x="40" y="3.25" fill="#727272" width="31" height="28"/>
	<rect x="40" y="4.25" fill="#737373" width="31" height="27"/>
	<rect x="40" y="4.25" fill="#747474" width="31" height="27"/>
	<rect x="40" y="4.25" fill="#757575" width="31" height="27"/>
	<rect x="40" y="4.25" fill="#767676" width="31" height="27"/>
	<rect x="40" y="4.25" fill="#777777" width="31" height="27"/>
	<rect x="40" y="4.25" fill="#787878" width="31" height="26"/>
	<rect x="40" y="4.25" fill="#797979" width="31" height="26"/>
	<rect x="40" y="4.25" fill="#7A7A7A" width="31" height="26"/>
	<rect x="40" y="4.25" fill="#7B7B7B" width="31" height="26"/>
	<rect x="40" y="4.25" fill="#7C7C7C" width="31" height="26"/>
	<rect x="40" y="5.25" fill="#7D7D7D" width="31" height="25"/>
	<rect x="40" y="5.25" fill="#7E7E7E" width="31" height="25"/>
	<rect x="40" y="5.25" fill="#7F7F7F" width="31" height="25"/>
	<rect x="40" y="5.25" fill="#808080" width="31" height="25"/>
	<rect x="40" y="5.25" fill="#818181" width="31" height="25"/>
	<rect x="40" y="5.25" fill="#828282" width="31" height="24"/>
	<rect x="40" y="5.25" fill="#838383" width="31" height="24"/>
	<rect x="40" y="5.25" fill="#848484" width="31" height="24"/>
	<rect x="40" y="5.25" fill="#858585" width="31" height="24"/>
	<rect x="40" y="5.25" fill="#868686" width="31" height="24"/>
	<rect x="40" y="6.25" fill="#878787" width="31" height="23"/>
	<rect x="40" y="6.25" fill="#888888" width="31" height="23"/>
	<rect x="40" y="6.25" fill="#898989" width="31" height="23"/>
	<rect x="40" y="6.25" fill="#8A8A8A" width="31" height="23"/>
	<rect x="40" y="6.25" fill="#8B8B8B" width="31" height="23"/>
	<rect x="40" y="6.25" fill="#8C8C8C" width="31" height="22"/>
	<rect x="40" y="6.25" fill="#8D8D8D" width="31" height="22"/>
	<rect x="40" y="6.25" fill="#8E8E8E" width="31" height="22"/>
	<rect x="40" y="6.25" fill="#8F8F8F" width="31" height="22"/>
	<rect x="40" y="6.25" fill="#909090" width="31" height="22"/>
	<rect x="40" y="7.25" fill="#919191" width="31" height="21"/>
	<rect x="40" y="7.25" fill="#929292" width="31" height="21"/>
	<rect x="40" y="7.25" fill="#939393" width="31" height="21"/>
	<rect x="40" y="7.25" fill="#949494" width="31" height="21"/>
	<rect x="40" y="7.25" fill="#959595" width="31" height="21"/>
	<rect x="40" y="7.25" fill="#969696" width="31" height="20"/>
	<rect x="40" y="7.25" fill="#979797" width="31" height="20"/>
	<rect x="40" y="7.25" fill="#989898" width="31" height="20"/>
	<rect x="40" y="7.25" fill="#999999" width="31" height="20"/>
	<rect x="40" y="7.25" fill="#9A9A9A" width="31" height="20"/>
	<rect x="40" y="7.25" fill="#9B9B9B" width="31" height="20"/>
	<rect x="40" y="8.25" fill="#9C9C9C" width="31" height="19"/>
	<rect x="40" y="8.25" fill="#9D9D9D" width="31" height="19"/>
	<rect x="40" y="8.25" fill="#9E9E9E" width="31" height="19"/>
	<rect x="40" y="8.25" fill="#9F9F9F" width="31" height="19"/>
	<rect x="40" y="8.25" fill="#A0A0A0" width="31" height="19"/>
	<rect x="40" y="8.25" fill="#A1A1A1" width="31" height="18"/>
	<rect x="40" y="8.25" fill="#A2A2A2" width="31" height="18"/>
	<rect x="40" y="8.25" fill="#A3A3A3" width="31" height="18"/>
	<rect x="40" y="8.25" fill="#A4A4A4" width="31" height="18"/>
	<rect x="40" y="8.25" fill="#A5A5A5" width="31" height="18"/>
	<rect x="40" y="9.25" fill="#A6A6A6" width="31" height="17"/>
	<rect x="40" y="9.25" fill="#A7A7A7" width="31" height="17"/>
	<rect x="40" y="9.25" fill="#A8A8A8" width="31" height="17"/>
	<rect x="40" y="9.25" fill="#A9A9A9" width="31" height="17"/>
	<rect x="40" y="9.25" fill="#AAAAAA" width="31" height="17"/>
	<rect x="40" y="9.25" fill="#ABABAB" width="31" height="16"/>
	<rect x="40" y="9.25" fill="#ACACAC" width="31" height="16"/>
	<rect x="40" y="9.25" fill="#ADADAD" width="31" height="16"/>
	<rect x="40" y="9.25" fill="#AEAEAE" width="31" height="16"/>
	<rect x="40" y="9.25" fill="#AFAFAF" width="31" height="16"/>
	<rect x="40" y="10.25" fill="#B0B0B0" width="31" height="15"/>
	<rect x="40" y="10.25" fill="#B1B1B1" width="31" height="15"/>
	<rect x="40" y="10.25" fill="#B2B2B2" width="31" height="15"/>
	<rect x="40" y="10.25" fill="#B3B3B3" width="31" height="15"/>
	<rect x="40" y="10.25" fill="#B4B4B4" width="31" height="15"/>
	<rect x="40" y="10.25" fill="#B5B5B5" width="31" height="14"/>
	<rect x="40" y="10.25" fill="#B6B6B6" width="31" height="14"/>
	<rect x="40" y="10.25" fill="#B7B7B7" width="31" height="14"/>
	<rect x="40" y="10.25" fill="#B8B8B8" width="31" height="14"/>
	<rect x="40" y="10.25" fill="#B9B9B9" width="31" height="14"/>
	<rect x="40" y="11.25" fill="#BABABA" width="31" height="13"/>
	<rect x="40" y="11.25" fill="#BBBBBB" width="31" height="13"/>
	<rect x="40" y="11.25" fill="#BCBCBC" width="31" height="13"/>
	<rect x="40" y="11.25" fill="#BDBDBD" width="31" height="13"/>
	<rect x="40" y="11.25" fill="#BEBEBE" width="31" height="13"/>
	<rect x="40" y="11.25" fill="#BFBFBF" width="31" height="12"/>
	<rect x="40" y="11.25" fill="#C0C0C0" width="31" height="12"/>
	<rect x="40" y="11.25" fill="#C1C1C1" width="31" height="12"/>
	<rect x="40" y="11.25" fill="#C2C2C2" width="31" height="12"/>
	<rect x="40" y="11.25" fill="#C3C3C3" width="31" height="12"/>
	<rect x="40" y="12.25" fill="#C4C4C4" width="31" height="11"/>
	<rect x="40" y="12.25" fill="#C5C5C5" width="31" height="11"/>
	<rect x="40" y="12.25" fill="#C6C6C6" width="31" height="11"/>
	<rect x="40" y="12.25" fill="#C7C7C7" width="31" height="11"/>
	<rect x="40" y="12.25" fill="#C8C8C8" width="31" height="11"/>
	<rect x="40" y="12.25" fill="#C9C9C9" width="31" height="10"/>
	<rect x="40" y="12.25" fill="#CACACA" width="31" height="10"/>
	<rect x="40" y="12.25" fill="#CBCBCB" width="31" height="10"/>
	<rect x="40" y="12.25" fill="#CCCCCC" width="31" height="10"/>
	<rect x="40" y="12.25" fill="#CDCDCD" width="31" height="10"/>
	<rect x="40" y="13.25" fill="#CECECE" width="31" height="9"/>
	<rect x="40" y="13.25" fill="#CFCFCF" width="31" height="9"/>
	<rect x="40" y="13.25" fill="#D0D0D0" width="31" height="9"/>
	<rect x="40" y="13.25" fill="#D1D1D1" width="31" height="9"/>
	<rect x="40" y="13.25" fill="#D2D2D2" width="31" height="9"/>
	<rect x="40" y="13.25" fill="#D3D3D3" width="31" height="8"/>
	<rect x="40" y="13.25" fill="#D4D4D4" width="31" height="8"/>
	<rect x="40" y="13.25" fill="#D5D5D5" width="31" height="8"/>
	<rect x="40" y="13.25" fill="#D6D6D6" width="31" height="8"/>
	<rect x="40" y="13.25" fill="#D7D7D7" width="31" height="8"/>
	<rect x="40" y="14.25" fill="#D8D8D8" width="31" height="7"/>
	<rect x="40" y="14.25" fill="#D9D9D9" width="31" height="7"/>
	<rect x="40" y="14.25" fill="#DADADA" width="31" height="7"/>
	<rect x="40" y="14.25" fill="#DBDBDB" width="31" height="7"/>
	<rect x="40" y="14.25" fill="#DCDCDC" width="31" height="7"/>
	<rect x="40" y="14.25" fill="#DDDDDD" width="31" height="6"/>
	<rect x="40" y="14.25" fill="#DEDEDE" width="31" height="6"/>
	<rect x="40" y="14.25" fill="#DFDFDF" width="31" height="6"/>
	<rect x="40" y="14.25" fill="#E0E0E0" width="31" height="6"/>
	<rect x="40" y="14.25" fill="#E1E1E1" width="31" height="6"/>
	<rect x="40" y="15.25" fill="#E2E2E2" width="31" height="5"/>
	<rect x="40" y="15.25" fill="#E3E3E3" width="31" height="5"/>
	<rect x="40" y="15.25" fill="#E4E4E4" width="31" height="5"/>
</g>
<g>
	<rect y="10.25" fill="#4D4D4D" width="29" height="15"/>
	<rect y="10.25" fill="#4E4E4E" width="29" height="15"/>
	<rect y="10.25" fill="#4F4F4F" width="29" height="15"/>
	<rect y="10.25" fill="#505050" width="29" height="15"/>
	<rect y="10.25" fill="#515151" width="29" height="15"/>
	<rect y="10.25" fill="#525252" width="29" height="15"/>
	<rect y="10.25" fill="#535353" width="29" height="14"/>
	<rect y="10.25" fill="#545454" width="29" height="14"/>
	<rect y="10.25" fill="#555555" width="29" height="14"/>
	<rect y="10.25" fill="#565656" width="29" height="14"/>
	<rect y="10.25" fill="#575757" width="29" height="14"/>
	<rect y="10.25" fill="#585858" width="29" height="14"/>
	<rect y="10.25" fill="#595959" width="29" height="14"/>
	<rect y="10.25" fill="#5A5A5A" width="29" height="14"/>
	<rect y="10.25" fill="#5B5B5B" width="29" height="14"/>
	<rect y="10.25" fill="#5C5C5C" width="29" height="14"/>
	<rect y="10.25" fill="#5D5D5D" width="29" height="14"/>
	<rect y="11.25" fill="#5E5E5E" width="29" height="13"/>
	<rect y="11.25" fill="#5F5F5F" width="29" height="13"/>
	<rect y="11.25" fill="#606060" width="29" height="13"/>
	<rect y="11.25" fill="#616161" width="29" height="13"/>
	<rect y="11.25" fill="#626262" width="29" height="13"/>
	<rect y="11.25" fill="#636363" width="29" height="13"/>
	<rect y="11.25" fill="#646464" width="29" height="13"/>
	<rect y="11.25" fill="#656565" width="29" height="13"/>
	<rect y="11.25" fill="#666666" width="29" height="13"/>
	<rect y="11.25" fill="#676767" width="29" height="13"/>
	<rect y="11.25" fill="#686868" width="29" height="12"/>
	<rect y="11.25" fill="#696969" width="29" height="12"/>
	<rect y="11.25" fill="#6A6A6A" width="29" height="12"/>
	<rect y="11.25" fill="#6B6B6B" width="29" height="12"/>
	<rect y="11.25" fill="#6C6C6C" width="29" height="12"/>
	<rect y="11.25" fill="#6D6D6D" width="29" height="12"/>
	<rect y="11.25" fill="#6E6E6E" width="29" height="12"/>
	<rect y="11.25" fill="#6F6F6F" width="29" height="12"/>
	<rect y="11.25" fill="#707070" width="29" height="12"/>
	<rect y="11.25" fill="#717171" width="29" height="12"/>
	<rect y="11.25" fill="#727272" width="29" height="12"/>
	<rect y="12.25" fill="#737373" width="29" height="11"/>
	<rect y="12.25" fill="#747474" width="29" height="11"/>
	<rect y="12.25" fill="#757575" width="29" height="11"/>
	<rect y="12.25" fill="#767676" width="29" height="11"/>
	<rect y="12.25" fill="#777777" width="29" height="11"/>
	<rect y="12.25" fill="#787878" width="29" height="11"/>
	<rect y="12.25" fill="#797979" width="29" height="11"/>
	<rect y="12.25" fill="#7A7A7A" width="29" height="11"/>
	<rect y="12.25" fill="#7B7B7B" width="29" height="11"/>
	<rect y="12.25" fill="#7C7C7C" width="29" height="11"/>
	<rect y="12.25" fill="#7D7D7D" width="29" height="11"/>
	<rect y="12.25" fill="#7E7E7E" width="29" height="10"/>
	<rect y="12.25" fill="#7F7F7F" width="29" height="10"/>
	<rect y="12.25" fill="#808080" width="29" height="10"/>
	<rect y="12.25" fill="#818181" width="29" height="10"/>
	<rect y="12.25" fill="#828282" width="29" height="10"/>
	<rect y="12.25" fill="#838383" width="29" height="10"/>
	<rect y="12.25" fill="#848484" width="29" height="10"/>
	<rect y="12.25" fill="#858585" width="29" height="10"/>
	<rect y="12.25" fill="#868686" width="29" height="10"/>
	<rect y="12.25" fill="#878787" width="29" height="10"/>
	<rect y="12.25" fill="#888888" width="29" height="10"/>
	<rect y="13.25" fill="#898989" width="29" height="9"/>
	<rect y="13.25" fill="#8A8A8A" width="29" height="9"/>
	<rect y="13.25" fill="#8B8B8B" width="29" height="9"/>
	<rect y="13.25" fill="#8C8C8C" width="29" height="9"/>
	<rect y="13.25" fill="#8D8D8D" width="29" height="9"/>
	<rect y="13.25" fill="#8E8E8E" width="29" height="9"/>
	<rect y="13.25" fill="#8F8F8F" width="29" height="9"/>
	<rect y="13.25" fill="#909090" width="29" height="9"/>
	<rect y="13.25" fill="#919191" width="29" height="9"/>
	<rect y="13.25" fill="#929292" width="29" height="9"/>
	<rect y="13.25" fill="#939393" width="29" height="9"/>
	<rect y="13.25" fill="#949494" width="29" height="8"/>
	<rect y="13.25" fill="#959595" width="29" height="8"/>
	<rect y="13.25" fill="#969696" width="29" height="8"/>
	<rect y="13.25" fill="#979797" width="29" height="8"/>
	<rect y="13.25" fill="#989898" width="29" height="8"/>
	<rect y="13.25" fill="#999999" width="29" height="8"/>
	<rect y="13.25" fill="#9A9A9A" width="29" height="8"/>
	<rect y="13.25" fill="#9B9B9B" width="29" height="8"/>
	<rect y="13.25" fill="#9C9C9C" width="29" height="8"/>
	<rect y="13.25" fill="#9D9D9D" width="29" height="8"/>
	<rect y="14.25" fill="#9E9E9E" width="29" height="7"/>
	<rect y="14.25" fill="#9F9F9F" width="29" height="7"/>
	<rect y="14.25" fill="#A0A0A0" width="29" height="7"/>
	<rect y="14.25" fill="#A1A1A1" width="29" height="7"/>
	<rect y="14.25" fill="#A2A2A2" width="29" height="7"/>
	<rect y="14.25" fill="#A3A3A3" width="29" height="7"/>
	<rect y="14.25" fill="#A4A4A4" width="29" height="7"/>
	<rect y="14.25" fill="#A5A5A5" width="29" height="7"/>
	<rect y="14.25" fill="#A6A6A6" width="29" height="7"/>
	<rect y="14.25" fill="#A7A7A7" width="29" height="7"/>
	<rect y="14.25" fill="#A8A8A8" width="29" height="7"/>
	<rect y="14.25" fill="#A9A9A9" width="29" height="6"/>
	<rect y="14.25" fill="#AAAAAA" width="29" height="6"/>
	<rect y="14.25" fill="#ABABAB" width="29" height="6"/>
	<rect y="14.25" fill="#ACACAC" width="29" height="6"/>
	<rect y="14.25" fill="#ADADAD" width="29" height="6"/>
	<rect y="14.25" fill="#AEAEAE" width="29" height="6"/>
	<rect y="14.25" fill="#AFAFAF" width="29" height="6"/>
	<rect y="14.25" fill="#B0B0B0" width="29" height="6"/>
	<rect y="14.25" fill="#B1B1B1" width="29" height="6"/>
	<rect y="14.25" fill="#B2B2B2" width="29" height="6"/>
	<rect y="14.25" fill="#B3B3B3" width="29" height="6"/>
	<rect y="15.25" fill="#B4B4B4" width="29" height="5"/>
	<rect y="15.25" fill="#B5B5B5" width="29" height="5"/>
	<rect y="15.25" fill="#B6B6B6" width="29" height="5"/>
	<rect y="15.25" fill="#B7B7B7" width="29" height="5"/>
	<rect y="15.25" fill="#B8B8B8" width="29" height="5"/>
	<rect y="15.25" fill="#B9B9B9" width="29" height="5"/>
	<rect y="15.25" fill="#BABABA" width="29" height="5"/>
	<rect y="15.25" fill="#BBBBBB" width="29" height="5"/>
	<rect y="15.25" fill="#BCBCBC" width="29" height="5"/>
	<rect y="15.25" fill="#BDBDBD" width="29" height="5"/>
	<rect y="15.25" fill="#BEBEBE" width="29" height="5"/>
	<rect y="15.25" fill="#BFBFBF" width="29" height="4"/>
	<rect y="15.25" fill="#C0C0C0" width="29" height="4"/>
	<rect y="15.25" fill="#C1C1C1" width="29" height="4"/>
	<rect y="15.25" fill="#C2C2C2" width="29" height="4"/>
	<rect y="15.25" fill="#C3C3C3" width="29" height="4"/>
	<rect y="15.25" fill="#C4C4C4" width="29" height="4"/>
	<rect y="15.25" fill="#C5C5C5" width="29" height="4"/>
	<rect y="15.25" fill="#C6C6C6" width="29" height="4"/>
	<rect y="15.25" fill="#C7C7C7" width="29" height="4"/>
	<rect y="15.25" fill="#C8C8C8" width="29" height="4"/>
	<rect y="15.25" fill="#C9C9C9" width="29" height="4"/>
	<rect y="16.25" fill="#CACACA" width="29" height="3"/>
	<rect y="16.25" fill="#CBCBCB" width="29" height="3"/>
	<rect y="16.25" fill="#CCCCCC" width="29" height="3"/>
	<rect y="16.25" fill="#CDCDCD" width="29" height="3"/>
	<rect y="16.25" fill="#CECECE" width="29" height="3"/>
	<rect y="16.25" fill="#CFCFCF" width="29" height="3"/>
	<rect y="16.25" fill="#D0D0D0" width="29" height="3"/>
	<rect y="16.25" fill="#D1D1D1" width="29" height="3"/>
	<rect y="16.25" fill="#D2D2D2" width="29" height="3"/>
	<rect y="16.25" fill="#D3D3D3" width="29" height="3"/>
	<rect y="16.25" fill="#D4D4D4" width="29" height="2"/>
	<rect y="16.25" fill="#D5D5D5" width="29" height="2"/>
	<rect y="16.25" fill="#D6D6D6" width="29" height="2"/>
	<rect y="16.25" fill="#D7D7D7" width="29" height="2"/>
	<rect y="16.25" fill="#D8D8D8" width="29" height="2"/>
	<rect y="16.25" fill="#D9D9D9" width="29" height="2"/>
	<rect y="16.25" fill="#DADADA" width="29" height="2"/>
	<rect y="16.25" fill="#DBDBDB" width="29" height="2"/>
	<rect y="16.25" fill="#DCDCDC" width="29" height="2"/>
	<rect y="16.25" fill="#DDDDDD" width="29" height="2"/>
	<rect y="16.25" fill="#DEDEDE" width="29" height="2"/>
	<rect y="17.25" fill="#DFDFDF" width="29" height="1"/>
	<rect y="17.25" fill="#E0E0E0" width="29" height="1"/>
	<rect y="17.25" fill="#E1E1E1" width="29" height="1"/>
	<rect y="17.25" fill="#E2E2E2" width="29" height="1"/>
	<rect y="17.25" fill="#E3E3E3" width="29" height="1"/>
	<rect y="17.25" fill="#E4E4E4" width="29" height="1"/>
</g>
</svg>
