<?xml version="1.0" encoding="utf-8"?>
<!-- Generator: Adobe Illustrator 15.0.0, SVG Export Plug-In  -->
<!DOCTYPE svg PUBLIC "-//W3C//DTD SVG 1.1//EN" "http://www.w3.org/Graphics/SVG/1.1/DTD/svg11.dtd" [
	<!ENTITY ns_flows "http://ns.adobe.com/Flows/1.0/">
]>
<svg version="1.1"
	 xmlns="http://www.w3.org/2000/svg" xmlns:xlink="http://www.w3.org/1999/xlink" xmlns:a="http://ns.adobe.com/AdobeSVGViewerExtensions/3.0/"
	 x="0px" y="0px" width="100px" height="85px" viewBox="0 -1.5 100 85" enable-background="new 0 -1.5 100 85" xml:space="preserve"
	>
<defs>
</defs>
<g>
	<rect y="48.5" fill="#4D4D4D" width="100" height="35"/>
	<rect y="48.5" fill="#4E4E4E" width="100" height="35"/>
	<rect y="49.5" fill="#4F4F4F" width="100" height="34"/>
	<rect y="49.5" fill="#505050" width="100" height="34"/>
	<rect y="49.5" fill="#515151" width="100" height="34"/>
	<rect y="49.5" fill="#525252" width="100" height="34"/>
	<rect y="49.5" fill="#535353" width="100" height="34"/>
	<rect y="49.5" fill="#545454" width="100" height="34"/>
	<rect y="49.5" fill="#555555" width="100" height="34"/>
	<rect y="49.5" fill="#565656" width="100" height="33"/>
	<rect y="49.5" fill="#575757" width="100" height="33"/>
	<rect y="49.5" fill="#585858" width="100" height="33"/>
	<rect y="50.5" fill="#595959" width="100" height="32"/>
	<rect y="50.5" fill="#5A5A5A" width="100" height="32"/>
	<rect y="50.5" fill="#5B5B5B" width="100" height="32"/>
	<rect y="50.5" fill="#5C5C5C" width="100" height="32"/>
	<rect y="50.5" fill="#5D5D5D" width="100" height="32"/>
	<rect y="50.5" fill="#5E5E5E" width="100" height="32"/>
	<rect y="50.5" fill="#5F5F5F" width="100" height="32"/>
	<rect y="50.5" fill="#606060" width="100" height="31"/>
	<rect y="50.5" fill="#616161" width="100" height="31"/>
	<rect y="50.5" fill="#626262" width="100" height="31"/>
	<rect y="51.5" fill="#636363" width="100" height="30"/>
	<rect y="51.5" fill="#646464" width="100" height="30"/>
	<rect y="51.5" fill="#656565" width="100" height="30"/>
	<rect y="51.5" fill="#666666" width="100" height="30"/>
	<rect y="51.5" fill="#676767" width="100" height="30"/>
	<rect y="51.5" fill="#686868" width="100" height="30"/>
	<rect y="51.5" fill="#696969" width="100" height="30"/>
	<rect y="51.5" fill="#6A6A6A" width="100" height="29"/>
	<rect y="51.5" fill="#6B6B6B" width="100" height="29"/>
	<rect y="51.5" fill="#6C6C6C" width="100" height="29"/>
	<rect y="52.5" fill="#6D6D6D" width="100" height="28"/>
	<rect y="52.5" fill="#6E6E6E" width="100" height="28"/>
	<rect y="52.5" fill="#6F6F6F" width="100" height="28"/>
	<rect y="52.5" fill="#707070" width="100" height="28"/>
	<rect y="52.5" fill="#717171" width="100" height="28"/>
	<rect y="52.5" fill="#727272" width="100" height="28"/>
	<rect y="52.5" fill="#737373" width="100" height="28"/>
	<rect y="52.5" fill="#747474" width="100" height="27"/>
	<rect y="52.5" fill="#757575" width="100" height="27"/>
	<rect y="52.5" fill="#767676" width="100" height="27"/>
	<rect y="53.5" fill="#777777" width="100" height="26"/>
	<rect y="53.5" fill="#787878" width="100" height="26"/>
	<rect y="53.5" fill="#797979" width="100" height="26"/>
	<rect y="53.5" fill="#7A7A7A" width="100" height="26"/>
	<rect y="53.5" fill="#7B7B7B" width="100" height="26"/>
	<rect y="53.5" fill="#7C7C7C" width="100" height="26"/>
	<rect y="53.5" fill="#7D7D7D" width="100" height="26"/>
	<rect y="53.5" fill="#7E7E7E" width="100" height="25"/>
	<rect y="53.5" fill="#7F7F7F" width="100" height="25"/>
	<rect y="53.5" fill="#808080" width="100" height="25"/>
	<rect y="53.5" fill="#818181" width="100" height="25"/>
	<rect y="54.5" fill="#828282" width="100" height="24"/>
	<rect y="54.5" fill="#838383" width="100" height="24"/>
	<rect y="54.5" fill="#848484" width="100" height="24"/>
	<rect y="54.5" fill="#858585" width="100" height="24"/>
	<rect y="54.5" fill="#868686" width="100" height="24"/>
	<rect y="54.5" fill="#878787" width="100" height="24"/>
	<rect y="54.5" fill="#888888" width="100" height="23"/>
	<rect y="54.5" fill="#898989" width="100" height="23"/>
	<rect y="54.5" fill="#8A8A8A" width="100" height="23"/>
	<rect y="54.5" fill="#8B8B8B" width="100" height="23"/>
	<rect y="55.5" fill="#8C8C8C" width="100" height="22"/>
	<rect y="55.5" fill="#8D8D8D" width="100" height="22"/>
	<rect y="55.5" fill="#8E8E8E" width="100" height="22"/>
	<rect y="55.5" fill="#8F8F8F" width="100" height="22"/>
	<rect y="55.5" fill="#909090" width="100" height="22"/>
	<rect y="55.5" fill="#919191" width="100" height="22"/>
	<rect y="55.5" fill="#929292" width="100" height="21"/>
	<rect y="55.5" fill="#939393" width="100" height="21"/>
	<rect y="55.5" fill="#949494" width="100" height="21"/>
	<rect y="55.5" fill="#959595" width="100" height="21"/>
	<rect y="56.5" fill="#969696" width="100" height="20"/>
	<rect y="56.5" fill="#979797" width="100" height="20"/>
	<rect y="56.5" fill="#989898" width="100" height="20"/>
	<rect y="56.5" fill="#999999" width="100" height="20"/>
	<rect y="56.5" fill="#9A9A9A" width="100" height="20"/>
	<rect y="56.5" fill="#9B9B9B" width="100" height="20"/>
	<rect y="56.5" fill="#9C9C9C" width="100" height="19"/>
	<rect y="56.5" fill="#9D9D9D" width="100" height="19"/>
	<rect y="56.5" fill="#9E9E9E" width="100" height="19"/>
	<rect y="56.5" fill="#9F9F9F" width="100" height="19"/>
	<rect y="57.5" fill="#A0A0A0" width="100" height="18"/>
	<rect y="57.5" fill="#A1A1A1" width="100" height="18"/>
	<rect y="57.5" fill="#A2A2A2" width="100" height="18"/>
	<rect y="57.5" fill="#A3A3A3" width="100" height="18"/>
	<rect y="57.5" fill="#A4A4A4" width="100" height="18"/>
	<rect y="57.5" fill="#A5A5A5" width="100" height="18"/>
	<rect y="57.5" fill="#A6A6A6" width="100" height="17"/>
	<rect y="57.5" fill="#A7A7A7" width="100" height="17"/>
	<rect y="57.5" fill="#A8A8A8" width="100" height="17"/>
	<rect y="57.5" fill="#A9A9A9" width="100" height="17"/>
	<rect y="58.5" fill="#AAAAAA" width="100" height="16"/>
	<rect y="58.5" fill="#ABABAB" width="100" height="16"/>
	<rect y="58.5" fill="#ACACAC" width="100" height="16"/>
	<rect y="58.5" fill="#ADADAD" width="100" height="16"/>
	<rect y="58.5" fill="#AEAEAE" width="100" height="16"/>
	<rect y="58.5" fill="#AFAFAF" width="100" height="16"/>
	<rect y="58.5" fill="#B0B0B0" width="100" height="15"/>
	<rect y="58.5" fill="#B1B1B1" width="100" height="15"/>
	<rect y="58.5" fill="#B2B2B2" width="100" height="15"/>
	<rect y="58.5" fill="#B3B3B3" width="100" height="15"/>
	<rect y="59.5" fill="#B4B4B4" width="100" height="14"/>
	<rect y="59.5" fill="#B5B5B5" width="100" height="14"/>
	<rect y="59.5" fill="#B6B6B6" width="100" height="14"/>
	<rect y="59.5" fill="#B7B7B7" width="100" height="14"/>
	<rect y="59.5" fill="#B8B8B8" width="100" height="14"/>
	<rect y="59.5" fill="#B9B9B9" width="100" height="14"/>
	<rect y="59.5" fill="#BABABA" width="100" height="14"/>
	<rect y="59.5" fill="#BBBBBB" width="100" height="13"/>
	<rect y="59.5" fill="#BCBCBC" width="100" height="13"/>
	<rect y="59.5" fill="#BDBDBD" width="100" height="13"/>
	<rect y="60.5" fill="#BEBEBE" width="100" height="12"/>
	<rect y="60.5" fill="#BFBFBF" width="100" height="12"/>
	<rect y="60.5" fill="#C0C0C0" width="100" height="12"/>
	<rect y="60.5" fill="#C1C1C1" width="100" height="12"/>
	<rect y="60.5" fill="#C2C2C2" width="100" height="12"/>
	<rect y="60.5" fill="#C3C3C3" width="100" height="12"/>
	<rect y="60.5" fill="#C4C4C4" width="100" height="12"/>
	<rect y="60.5" fill="#C5C5C5" width="100" height="11"/>
	<rect y="60.5" fill="#C6C6C6" width="100" height="11"/>
	<rect y="60.5" fill="#C7C7C7" width="100" height="11"/>
	<rect y="61.5" fill="#C8C8C8" width="100" height="10"/>
	<rect y="61.5" fill="#C9C9C9" width="100" height="10"/>
	<rect y="61.5" fill="#CACACA" width="100" height="10"/>
	<rect y="61.5" fill="#CBCBCB" width="100" height="10"/>
	<rect y="61.5" fill="#CCCCCC" width="100" height="10"/>
	<rect y="61.5" fill="#CDCDCD" width="100" height="10"/>
	<rect y="61.5" fill="#CECECE" width="100" height="10"/>
	<rect y="61.5" fill="#CFCFCF" width="100" height="9"/>
	<rect y="61.5" fill="#D0D0D0" width="100" height="9"/>
	<rect y="61.5" fill="#D1D1D1" width="100" height="9"/>
	<rect y="62.5" fill="#D2D2D2" width="100" height="8"/>
	<rect y="62.5" fill="#D3D3D3" width="100" height="8"/>
	<rect y="62.5" fill="#D4D4D4" width="100" height="8"/>
	<rect y="62.5" fill="#D5D5D5" width="100" height="8"/>
	<rect y="62.5" fill="#D6D6D6" width="100" height="8"/>
	<rect y="62.5" fill="#D7D7D7" width="100" height="8"/>
	<rect y="62.5" fill="#D8D8D8" width="100" height="8"/>
	<rect y="62.5" fill="#D9D9D9" width="100" height="7"/>
	<rect y="62.5" fill="#DADADA" width="100" height="7"/>
	<rect y="62.5" fill="#DBDBDB" width="100" height="7"/>
	<rect y="63.5" fill="#DCDCDC" width="100" height="6"/>
	<rect y="63.5" fill="#DDDDDD" width="100" height="6"/>
	<rect y="63.5" fill="#DEDEDE" width="100" height="6"/>
	<rect y="63.5" fill="#DFDFDF" width="100" height="6"/>
	<rect y="63.5" fill="#E0E0E0" width="100" height="6"/>
	<rect y="63.5" fill="#E1E1E1" width="100" height="6"/>
	<rect y="63.5" fill="#E2E2E2" width="100" height="6"/>
	<rect y="63.5" fill="#E3E3E3" width="100" height="5"/>
	<rect y="63.5" fill="#E4E4E4" width="100" height="5"/>
</g>
<g>
	<defs>
		<polygon id="SVGID_1_" points="74.221,61.969 82.465,64.178 90.488,34.234 60.59,26.223 34.366,0 9.618,24.749 28.863,43.994 
			27.407,49.426 36.816,51.947 		"/>
	</defs>
	<clipPath id="SVGID_2_">
		<use xlink:href="#SVGID_1_"  overflow="visible"/>
	</clipPath>
	<g clip-path="url(#SVGID_2_)">
		
			<rect x="11.448" y="20.33" transform="matrix(-0.7071 -0.7071 0.7071 -0.7071 54.249 98.131)" fill="#4D4D4D" width="72" height="35"/>
		
			<rect x="11.448" y="20.33" transform="matrix(-0.7071 -0.7071 0.7071 -0.7071 54.249 98.131)" fill="#4D4D4D" width="72" height="35"/>
		
			<rect x="11.448" y="20.33" transform="matrix(-0.7071 -0.7071 0.7071 -0.7071 54.249 98.131)" fill="#4D4D4D" width="72" height="35"/>
		
			<rect x="11.448" y="20.429" transform="matrix(-0.7071 -0.7071 0.7071 -0.7071 54.249 98.131)" fill="#4E4E4E" width="72" height="34.801"/>
		
			<rect x="11.448" y="20.529" transform="matrix(-0.7071 -0.7071 0.7071 -0.7071 54.249 98.131)" fill="#4F4F4F" width="72" height="34.602"/>
		
			<rect x="11.448" y="20.628" transform="matrix(-0.7071 -0.7071 0.7071 -0.7071 54.249 98.131)" fill="#505050" width="72" height="34.403"/>
		
			<rect x="11.448" y="20.727" transform="matrix(-0.7071 -0.7071 0.7071 -0.7071 54.249 98.131)" fill="#515151" width="72" height="34.206"/>
		
			<rect x="11.448" y="20.827" transform="matrix(-0.7071 -0.7071 0.7071 -0.7071 54.249 98.131)" fill="#525252" width="72" height="34.007"/>
		
			<rect x="11.448" y="20.926" transform="matrix(-0.7071 -0.7071 0.7071 -0.7071 54.249 98.131)" fill="#535353" width="72" height="33.808"/>
		
			<rect x="11.448" y="21.025" transform="matrix(-0.7071 -0.7071 0.7071 -0.7071 54.249 98.131)" fill="#545454" width="72" height="33.609"/>
		
			<rect x="11.448" y="21.125" transform="matrix(-0.7071 -0.7071 0.7071 -0.7071 54.249 98.131)" fill="#555555" width="72" height="33.41"/>
		
			<rect x="11.448" y="21.224" transform="matrix(-0.7071 -0.7071 0.7071 -0.7071 54.249 98.131)" fill="#565656" width="72" height="33.212"/>
		
			<rect x="11.448" y="21.324" transform="matrix(-0.7071 -0.7071 0.7071 -0.7071 54.249 98.131)" fill="#575757" width="72" height="33.013"/>
		
			<rect x="11.448" y="21.422" transform="matrix(-0.7071 -0.7071 0.7071 -0.7071 54.249 98.131)" fill="#585858" width="72" height="32.815"/>
		
			<rect x="11.448" y="21.522" transform="matrix(-0.7071 -0.7071 0.7071 -0.7071 54.249 98.131)" fill="#595959" width="72" height="32.616"/>
		
			<rect x="11.448" y="21.621" transform="matrix(-0.7071 -0.7071 0.7071 -0.7071 54.249 98.131)" fill="#5A5A5A" width="72" height="32.417"/>
		
			<rect x="11.448" y="21.721" transform="matrix(-0.7071 -0.7071 0.7071 -0.7071 54.249 98.131)" fill="#5B5B5B" width="72" height="32.219"/>
		
			<rect x="11.448" y="21.82" transform="matrix(-0.7071 -0.7071 0.7071 -0.7071 54.249 98.131)" fill="#5C5C5C" width="72" height="32.02"/>
		
			<rect x="11.448" y="21.92" transform="matrix(-0.7071 -0.7071 0.7071 -0.7071 54.249 98.131)" fill="#5D5D5D" width="72" height="31.821"/>
		
			<rect x="11.448" y="22.019" transform="matrix(-0.7071 -0.7071 0.7071 -0.7071 54.249 98.131)" fill="#5E5E5E" width="72" height="31.622"/>
		
			<rect x="11.448" y="22.118" transform="matrix(-0.7071 -0.7071 0.7071 -0.7071 54.249 98.131)" fill="#5F5F5F" width="72" height="31.424"/>
		
			<rect x="11.448" y="22.217" transform="matrix(-0.7071 -0.7071 0.7071 -0.7071 54.249 98.131)" fill="#606060" width="72" height="31.226"/>
		
			<rect x="11.448" y="22.317" transform="matrix(-0.7071 -0.7071 0.7071 -0.7071 54.249 98.131)" fill="#616161" width="72" height="31.027"/>
		
			<rect x="11.448" y="22.416" transform="matrix(-0.7071 -0.7071 0.7071 -0.7071 54.249 98.131)" fill="#626262" width="72" height="30.828"/>
		
			<rect x="11.448" y="22.516" transform="matrix(-0.7071 -0.7071 0.7071 -0.7071 54.249 98.131)" fill="#636363" width="72" height="30.629"/>
		
			<rect x="11.448" y="22.615" transform="matrix(-0.7071 -0.7071 0.7071 -0.7071 54.249 98.131)" fill="#646464" width="72" height="30.43"/>
		
			<rect x="11.448" y="22.714" transform="matrix(-0.7071 -0.7071 0.7071 -0.7071 54.249 98.131)" fill="#656565" width="72" height="30.231"/>
		
			<rect x="11.448" y="22.813" transform="matrix(-0.7071 -0.7071 0.7071 -0.7071 54.249 98.131)" fill="#666666" width="72" height="30.034"/>
		
			<rect x="11.448" y="22.913" transform="matrix(-0.7071 -0.7071 0.7071 -0.7071 54.249 98.131)" fill="#676767" width="72" height="29.835"/>
		
			<rect x="11.448" y="23.012" transform="matrix(-0.7071 -0.7071 0.7071 -0.7071 54.249 98.131)" fill="#686868" width="72" height="29.636"/>
		
			<rect x="11.448" y="23.112" transform="matrix(-0.7071 -0.7071 0.7071 -0.7071 54.249 98.131)" fill="#696969" width="72" height="29.437"/>
		
			<rect x="11.448" y="23.211" transform="matrix(-0.7071 -0.7071 0.7071 -0.7071 54.249 98.131)" fill="#6A6A6A" width="72" height="29.238"/>
		
			<rect x="11.448" y="23.31" transform="matrix(-0.7071 -0.7071 0.7071 -0.7071 54.249 98.131)" fill="#6B6B6B" width="72" height="29.039"/>
		
			<rect x="11.448" y="23.41" transform="matrix(-0.7071 -0.7071 0.7071 -0.7071 54.249 98.131)" fill="#6C6C6C" width="72" height="28.84"/>
		
			<rect x="11.448" y="23.509" transform="matrix(-0.7071 -0.7071 0.7071 -0.7071 54.249 98.131)" fill="#6D6D6D" width="72" height="28.643"/>
		
			<rect x="11.448" y="23.608" transform="matrix(-0.7071 -0.7071 0.7071 -0.7071 54.249 98.131)" fill="#6E6E6E" width="72" height="28.444"/>
		
			<rect x="11.448" y="23.707" transform="matrix(-0.7071 -0.7071 0.7071 -0.7071 54.249 98.131)" fill="#6F6F6F" width="72" height="28.245"/>
		
			<rect x="11.448" y="23.807" transform="matrix(-0.7071 -0.7071 0.7071 -0.7071 54.249 98.131)" fill="#707070" width="72" height="28.046"/>
		
			<rect x="11.448" y="23.906" transform="matrix(-0.7071 -0.7071 0.7071 -0.7071 54.249 98.131)" fill="#717171" width="72" height="27.848"/>
		
			<rect x="11.448" y="24.006" transform="matrix(-0.7071 -0.7071 0.7071 -0.7071 54.249 98.131)" fill="#727272" width="72" height="27.649"/>
		
			<rect x="11.448" y="24.105" transform="matrix(-0.7071 -0.7071 0.7071 -0.7071 54.249 98.131)" fill="#737373" width="72" height="27.451"/>
		
			<rect x="11.448" y="24.204" transform="matrix(-0.7071 -0.7071 0.7071 -0.7071 54.249 98.131)" fill="#747474" width="72" height="27.252"/>
		
			<rect x="11.448" y="24.303" transform="matrix(-0.7071 -0.7071 0.7071 -0.7071 54.249 98.131)" fill="#757575" width="72" height="27.053"/>
		
			<rect x="11.448" y="24.403" transform="matrix(-0.7071 -0.7071 0.7071 -0.7071 54.249 98.131)" fill="#767676" width="72" height="26.855"/>
		
			<rect x="11.448" y="24.502" transform="matrix(-0.7071 -0.7071 0.7071 -0.7071 54.249 98.131)" fill="#777777" width="72" height="26.656"/>
		
			<rect x="11.448" y="24.602" transform="matrix(-0.7071 -0.7071 0.7071 -0.7071 54.249 98.131)" fill="#787878" width="72" height="26.457"/>
		
			<rect x="11.448" y="24.701" transform="matrix(-0.7071 -0.7071 0.7071 -0.7071 54.249 98.131)" fill="#797979" width="72" height="26.258"/>
		
			<rect x="11.448" y="24.8" transform="matrix(-0.7071 -0.7071 0.7071 -0.7071 54.249 98.131)" fill="#7A7A7A" width="72" height="26.06"/>
		
			<rect x="11.448" y="24.899" transform="matrix(-0.7071 -0.7071 0.7071 -0.7071 54.249 98.131)" fill="#7B7B7B" width="72" height="25.862"/>
		
			<rect x="11.448" y="24.999" transform="matrix(-0.7071 -0.7071 0.7071 -0.7071 54.249 98.131)" fill="#7C7C7C" width="72" height="25.663"/>
		
			<rect x="11.448" y="25.098" transform="matrix(-0.7071 -0.7071 0.7071 -0.7071 54.249 98.131)" fill="#7D7D7D" width="72" height="25.464"/>
		
			<rect x="11.448" y="25.198" transform="matrix(-0.7071 -0.7071 0.7071 -0.7071 54.249 98.131)" fill="#7E7E7E" width="72" height="25.265"/>
		
			<rect x="11.448" y="25.297" transform="matrix(-0.7071 -0.7071 0.7071 -0.7071 54.249 98.131)" fill="#7F7F7F" width="72" height="25.066"/>
		
			<rect x="11.448" y="25.396" transform="matrix(-0.7071 -0.7071 0.7071 -0.7071 54.249 98.131)" fill="#808080" width="72" height="24.867"/>
		
			<rect x="11.448" y="25.495" transform="matrix(-0.7071 -0.7071 0.7071 -0.7071 54.249 98.131)" fill="#818181" width="72" height="24.67"/>
		
			<rect x="11.448" y="25.595" transform="matrix(-0.7071 -0.7071 0.7071 -0.7071 54.249 98.131)" fill="#828282" width="72" height="24.471"/>
		
			<rect x="11.448" y="25.694" transform="matrix(-0.7071 -0.7071 0.7071 -0.7071 54.249 98.131)" fill="#838383" width="72" height="24.272"/>
		
			<rect x="11.448" y="25.794" transform="matrix(-0.7071 -0.7071 0.7071 -0.7071 54.249 98.131)" fill="#848484" width="72" height="24.073"/>
		
			<rect x="11.448" y="25.893" transform="matrix(-0.7071 -0.7071 0.7071 -0.7071 54.249 98.131)" fill="#858585" width="72" height="23.874"/>
		
			<rect x="11.448" y="25.992" transform="matrix(-0.7071 -0.7071 0.7071 -0.7071 54.249 98.131)" fill="#868686" width="72" height="23.675"/>
		
			<rect x="11.448" y="26.092" transform="matrix(-0.7071 -0.7071 0.7071 -0.7071 54.249 98.131)" fill="#878787" width="72" height="23.476"/>
		
			<rect x="11.448" y="26.191" transform="matrix(-0.7071 -0.7071 0.7071 -0.7071 54.249 98.131)" fill="#888888" width="72" height="23.279"/>
		
			<rect x="11.448" y="26.29" transform="matrix(-0.7071 -0.7071 0.7071 -0.7071 54.249 98.131)" fill="#898989" width="72" height="23.08"/>
		
			<rect x="11.448" y="26.389" transform="matrix(-0.7071 -0.7071 0.7071 -0.7071 54.249 98.131)" fill="#8A8A8A" width="72" height="22.881"/>
		
			<rect x="11.448" y="26.489" transform="matrix(-0.7071 -0.7071 0.7071 -0.7071 54.249 98.131)" fill="#8B8B8B" width="72" height="22.682"/>
		
			<rect x="11.448" y="26.588" transform="matrix(-0.7071 -0.7071 0.7071 -0.7071 54.249 98.131)" fill="#8C8C8C" width="72" height="22.483"/>
		
			<rect x="11.448" y="26.688" transform="matrix(-0.7071 -0.7071 0.7071 -0.7071 54.249 98.131)" fill="#8D8D8D" width="72" height="22.285"/>
		
			<rect x="11.448" y="26.787" transform="matrix(-0.7071 -0.7071 0.7071 -0.7071 54.249 98.131)" fill="#8E8E8E" width="72" height="22.086"/>
		
			<rect x="11.448" y="26.886" transform="matrix(-0.7071 -0.7071 0.7071 -0.7071 54.249 98.131)" fill="#8F8F8F" width="72" height="21.888"/>
		
			<rect x="11.448" y="26.985" transform="matrix(-0.7071 -0.7071 0.7071 -0.7071 54.249 98.131)" fill="#909090" width="72" height="21.689"/>
		
			<rect x="11.448" y="27.085" transform="matrix(-0.7071 -0.7071 0.7071 -0.7071 54.249 98.131)" fill="#919191" width="72" height="21.49"/>
		
			<rect x="11.448" y="27.184" transform="matrix(-0.7071 -0.7071 0.7071 -0.7071 54.249 98.131)" fill="#929292" width="72" height="21.292"/>
		
			<rect x="11.448" y="27.284" transform="matrix(-0.7071 -0.7071 0.7071 -0.7071 54.249 98.131)" fill="#939393" width="72" height="21.093"/>
		
			<rect x="11.448" y="27.383" transform="matrix(-0.7071 -0.7071 0.7071 -0.7071 54.249 98.131)" fill="#949494" width="72" height="20.894"/>
		
			<rect x="11.448" y="27.483" transform="matrix(-0.7071 -0.7071 0.7071 -0.7071 54.249 98.131)" fill="#959595" width="72" height="20.695"/>
		
			<rect x="11.448" y="27.581" transform="matrix(-0.7071 -0.7071 0.7071 -0.7071 54.249 98.131)" fill="#969696" width="72" height="20.497"/>
		
			<rect x="11.448" y="27.681" transform="matrix(-0.7071 -0.7071 0.7071 -0.7071 54.249 98.131)" fill="#979797" width="72" height="20.299"/>
		
			<rect x="11.448" y="27.78" transform="matrix(-0.7071 -0.7071 0.7071 -0.7071 54.249 98.131)" fill="#989898" width="72" height="20.1"/>
		
			<rect x="11.448" y="27.88" transform="matrix(-0.7071 -0.7071 0.7071 -0.7071 54.249 98.131)" fill="#999999" width="72" height="19.901"/>
		
			<rect x="11.448" y="27.979" transform="matrix(-0.7071 -0.7071 0.7071 -0.7071 54.249 98.131)" fill="#9A9A9A" width="72" height="19.702"/>
		
			<rect x="11.448" y="28.079" transform="matrix(-0.7071 -0.7071 0.7071 -0.7071 54.249 98.131)" fill="#9B9B9B" width="72" height="19.503"/>
		
			<rect x="11.448" y="28.178" transform="matrix(-0.7071 -0.7071 0.7071 -0.7071 54.249 98.131)" fill="#9C9C9C" width="72" height="19.304"/>
		
			<rect x="11.448" y="28.277" transform="matrix(-0.7071 -0.7071 0.7071 -0.7071 54.249 98.131)" fill="#9D9D9D" width="72" height="19.107"/>
		
			<rect x="11.448" y="28.376" transform="matrix(-0.7071 -0.7071 0.7071 -0.7071 54.249 98.131)" fill="#9E9E9E" width="72" height="18.908"/>
		
			<rect x="11.448" y="28.476" transform="matrix(-0.7071 -0.7071 0.7071 -0.7071 54.249 98.131)" fill="#9F9F9F" width="72" height="18.709"/>
		
			<rect x="11.448" y="28.575" transform="matrix(-0.7071 -0.7071 0.7071 -0.7071 54.249 98.131)" fill="#A0A0A0" width="72" height="18.51"/>
		
			<rect x="11.448" y="28.674" transform="matrix(-0.7071 -0.7071 0.7071 -0.7071 54.249 98.131)" fill="#A1A1A1" width="72" height="18.311"/>
		
			<rect x="11.448" y="28.774" transform="matrix(-0.7071 -0.7071 0.7071 -0.7071 54.249 98.131)" fill="#A2A2A2" width="72" height="18.112"/>
		
			<rect x="11.448" y="28.873" transform="matrix(-0.7071 -0.7071 0.7071 -0.7071 54.249 98.131)" fill="#A3A3A3" width="72" height="17.913"/>
		
			<rect x="11.448" y="28.972" transform="matrix(-0.7071 -0.7071 0.7071 -0.7071 54.249 98.131)" fill="#A4A4A4" width="72" height="17.716"/>
		
			<rect x="11.448" y="29.072" transform="matrix(-0.7071 -0.7071 0.7071 -0.7071 54.249 98.131)" fill="#A5A5A5" width="72" height="17.517"/>
		
			<rect x="11.448" y="29.171" transform="matrix(-0.7071 -0.7071 0.7071 -0.7071 54.249 98.131)" fill="#A6A6A6" width="72" height="17.318"/>
		
			<rect x="11.448" y="29.27" transform="matrix(-0.7071 -0.7071 0.7071 -0.7071 54.249 98.131)" fill="#A7A7A7" width="72" height="17.119"/>
		
			<rect x="11.448" y="29.37" transform="matrix(-0.7071 -0.7071 0.7071 -0.7071 54.249 98.131)" fill="#A8A8A8" width="72" height="16.92"/>
		
			<rect x="11.448" y="29.469" transform="matrix(-0.7071 -0.7071 0.7071 -0.7071 54.249 98.131)" fill="#A9A9A9" width="72" height="16.722"/>
		
			<rect x="11.448" y="29.568" transform="matrix(-0.7071 -0.7071 0.7071 -0.7071 54.249 98.131)" fill="#AAAAAA" width="72" height="16.524"/>
		
			<rect x="11.448" y="29.667" transform="matrix(-0.7071 -0.7071 0.7071 -0.7071 54.249 98.131)" fill="#ABABAB" width="72" height="16.325"/>
		
			<rect x="11.448" y="29.767" transform="matrix(-0.7071 -0.7071 0.7071 -0.7071 54.249 98.131)" fill="#ACACAC" width="72" height="16.126"/>
		
			<rect x="11.448" y="29.866" transform="matrix(-0.7071 -0.7071 0.7071 -0.7071 54.249 98.131)" fill="#ADADAD" width="72" height="15.928"/>
		
			<rect x="11.448" y="29.966" transform="matrix(-0.7071 -0.7071 0.7071 -0.7071 54.249 98.131)" fill="#AEAEAE" width="72" height="15.729"/>
		
			<rect x="11.448" y="30.065" transform="matrix(-0.7071 -0.7071 0.7071 -0.7071 54.249 98.131)" fill="#AFAFAF" width="72" height="15.53"/>
		
			<rect x="11.448" y="30.165" transform="matrix(-0.7071 -0.7071 0.7071 -0.7071 54.249 98.131)" fill="#B0B0B0" width="72" height="15.331"/>
		
			<rect x="11.448" y="30.263" transform="matrix(-0.7071 -0.7071 0.7071 -0.7071 54.249 98.131)" fill="#B1B1B1" width="72" height="15.133"/>
		
			<rect x="11.448" y="30.363" transform="matrix(-0.7071 -0.7071 0.7071 -0.7071 54.249 98.131)" fill="#B2B2B2" width="72" height="14.935"/>
		
			<rect x="11.448" y="30.462" transform="matrix(-0.7071 -0.7071 0.7071 -0.7071 54.249 98.131)" fill="#B3B3B3" width="72" height="14.736"/>
		
			<rect x="11.448" y="30.562" transform="matrix(-0.7071 -0.7071 0.7071 -0.7071 54.249 98.131)" fill="#B4B4B4" width="72" height="14.537"/>
		
			<rect x="11.448" y="30.661" transform="matrix(-0.7071 -0.7071 0.7071 -0.7071 54.249 98.131)" fill="#B5B5B5" width="72" height="14.338"/>
		
			<rect x="11.448" y="30.761" transform="matrix(-0.7071 -0.7071 0.7071 -0.7071 54.249 98.131)" fill="#B6B6B6" width="72" height="14.139"/>
		
			<rect x="11.448" y="30.86" transform="matrix(-0.7071 -0.7071 0.7071 -0.7071 54.249 98.131)" fill="#B7B7B7" width="72" height="13.94"/>
		
			<rect x="11.448" y="30.959" transform="matrix(-0.7071 -0.7071 0.7071 -0.7071 54.249 98.131)" fill="#B8B8B8" width="72" height="13.743"/>
		
			<rect x="11.448" y="31.058" transform="matrix(-0.7071 -0.7071 0.7071 -0.7071 54.249 98.131)" fill="#B9B9B9" width="72" height="13.544"/>
		
			<rect x="11.448" y="31.158" transform="matrix(-0.7071 -0.7071 0.7071 -0.7071 54.249 98.131)" fill="#BABABA" width="72" height="13.345"/>
		
			<rect x="11.448" y="31.257" transform="matrix(-0.7071 -0.7071 0.7071 -0.7071 54.249 98.131)" fill="#BBBBBB" width="72" height="13.146"/>
		
			<rect x="11.448" y="31.356" transform="matrix(-0.7071 -0.7071 0.7071 -0.7071 54.249 98.131)" fill="#BCBCBC" width="72" height="12.947"/>
		
			<rect x="11.448" y="31.456" transform="matrix(-0.7071 -0.7071 0.7071 -0.7071 54.249 98.131)" fill="#BDBDBD" width="72" height="12.748"/>
		
			<rect x="11.448" y="31.555" transform="matrix(-0.7071 -0.7071 0.7071 -0.7071 54.249 98.131)" fill="#BEBEBE" width="72" height="12.549"/>
		
			<rect x="11.448" y="31.654" transform="matrix(-0.7071 -0.7071 0.7071 -0.7071 54.249 98.131)" fill="#BFBFBF" width="72" height="12.352"/>
		
			<rect x="11.448" y="31.754" transform="matrix(-0.7071 -0.7071 0.7071 -0.7071 54.249 98.131)" fill="#C0C0C0" width="72" height="12.153"/>
		
			<rect x="11.448" y="31.853" transform="matrix(-0.7071 -0.7071 0.7071 -0.7071 54.249 98.131)" fill="#C1C1C1" width="72" height="11.954"/>
		
			<rect x="11.448" y="31.952" transform="matrix(-0.7071 -0.7071 0.7071 -0.7071 54.249 98.131)" fill="#C2C2C2" width="72" height="11.755"/>
		
			<rect x="11.448" y="32.052" transform="matrix(-0.7071 -0.7071 0.7071 -0.7071 54.249 98.131)" fill="#C3C3C3" width="72" height="11.556"/>
		
			<rect x="11.448" y="32.151" transform="matrix(-0.7071 -0.7071 0.7071 -0.7071 54.249 98.131)" fill="#C4C4C4" width="72" height="11.358"/>
		
			<rect x="11.448" y="32.251" transform="matrix(-0.7071 -0.7071 0.7071 -0.7071 54.249 98.131)" fill="#C5C5C5" width="72" height="11.159"/>
		
			<rect x="11.448" y="32.349" transform="matrix(-0.7071 -0.7071 0.7071 -0.7071 54.249 98.131)" fill="#C6C6C6" width="72" height="10.961"/>
		
			<rect x="11.448" y="32.449" transform="matrix(-0.7071 -0.7071 0.7071 -0.7071 54.249 98.131)" fill="#C7C7C7" width="72" height="10.762"/>
		
			<rect x="11.448" y="32.548" transform="matrix(-0.7071 -0.7071 0.7071 -0.7071 54.249 98.131)" fill="#C8C8C8" width="72" height="10.563"/>
		
			<rect x="11.448" y="32.648" transform="matrix(-0.7071 -0.7071 0.7071 -0.7071 54.249 98.131)" fill="#C9C9C9" width="72" height="10.365"/>
		
			<rect x="11.448" y="32.747" transform="matrix(-0.7071 -0.7071 0.7071 -0.7071 54.249 98.131)" fill="#CACACA" width="72" height="10.166"/>
		
			<rect x="11.448" y="32.847" transform="matrix(-0.7071 -0.7071 0.7071 -0.7071 54.249 98.131)" fill="#CBCBCB" width="72" height="9.967"/>
		
			<rect x="11.448" y="32.946" transform="matrix(-0.7071 -0.7071 0.7071 -0.7071 54.249 98.131)" fill="#CCCCCC" width="72" height="9.768"/>
		
			<rect x="11.448" y="33.045" transform="matrix(-0.7071 -0.7071 0.7071 -0.7071 54.249 98.131)" fill="#CDCDCD" width="72" height="9.57"/>
		
			<rect x="11.448" y="33.144" transform="matrix(-0.7071 -0.7071 0.7071 -0.7071 54.249 98.131)" fill="#CECECE" width="72" height="9.372"/>
		
			<rect x="11.448" y="33.244" transform="matrix(-0.7071 -0.7071 0.7071 -0.7071 54.249 98.131)" fill="#CFCFCF" width="72" height="9.173"/>
		
			<rect x="11.448" y="33.343" transform="matrix(-0.7071 -0.7071 0.7071 -0.7071 54.249 98.131)" fill="#D0D0D0" width="72" height="8.974"/>
		
			<rect x="11.448" y="33.443" transform="matrix(-0.7071 -0.7071 0.7071 -0.7071 54.249 98.131)" fill="#D1D1D1" width="72" height="8.775"/>
		
			<rect x="11.448" y="33.542" transform="matrix(-0.7071 -0.7071 0.7071 -0.7071 54.249 98.131)" fill="#D2D2D2" width="72" height="8.576"/>
		
			<rect x="11.448" y="33.641" transform="matrix(-0.7071 -0.7071 0.7071 -0.7071 54.249 98.131)" fill="#D3D3D3" width="72" height="8.379"/>
		
			<rect x="11.448" y="33.74" transform="matrix(-0.7071 -0.7071 0.7071 -0.7071 54.249 98.131)" fill="#D4D4D4" width="72" height="8.18"/>
		
			<rect x="11.448" y="33.84" transform="matrix(-0.7071 -0.7071 0.7071 -0.7071 54.249 98.131)" fill="#D5D5D5" width="72" height="7.981"/>
		
			<rect x="11.448" y="33.939" transform="matrix(-0.7071 -0.7071 0.7071 -0.7071 54.249 98.131)" fill="#D6D6D6" width="72" height="7.782"/>
		
			<rect x="11.448" y="34.039" transform="matrix(-0.7071 -0.7071 0.7071 -0.7071 54.249 98.131)" fill="#D7D7D7" width="72" height="7.583"/>
		
			<rect x="11.448" y="34.138" transform="matrix(-0.7071 -0.7071 0.7071 -0.7071 54.249 98.131)" fill="#D8D8D8" width="72" height="7.384"/>
		
			<rect x="11.448" y="34.237" transform="matrix(-0.7071 -0.7071 0.7071 -0.7071 54.249 98.131)" fill="#D9D9D9" width="72" height="7.185"/>
		
			<rect x="11.448" y="34.336" transform="matrix(-0.7071 -0.7071 0.7071 -0.7071 54.249 98.131)" fill="#DADADA" width="72" height="6.988"/>
		
			<rect x="11.448" y="34.436" transform="matrix(-0.7071 -0.7071 0.7071 -0.7071 54.249 98.131)" fill="#DBDBDB" width="72" height="6.789"/>
		
			<rect x="11.448" y="34.535" transform="matrix(-0.7071 -0.7071 0.7071 -0.7071 54.249 98.131)" fill="#DCDCDC" width="72" height="6.59"/>
		
			<rect x="11.448" y="34.634" transform="matrix(-0.7071 -0.7071 0.7071 -0.7071 54.249 98.131)" fill="#DDDDDD" width="72" height="6.391"/>
		
			<rect x="11.448" y="34.734" transform="matrix(-0.7071 -0.7071 0.7071 -0.7071 54.249 98.131)" fill="#DEDEDE" width="72" height="6.192"/>
		
			<rect x="11.448" y="34.833" transform="matrix(-0.7071 -0.7071 0.7071 -0.7071 54.249 98.131)" fill="#DFDFDF" width="72" height="5.993"/>
		
			<rect x="11.448" y="34.933" transform="matrix(-0.7071 -0.7071 0.7071 -0.7071 54.249 98.131)" fill="#E0E0E0" width="72" height="5.795"/>
		
			<rect x="11.448" y="35.032" transform="matrix(-0.7071 -0.7071 0.7071 -0.7071 54.249 98.131)" fill="#E1E1E1" width="72" height="5.597"/>
		
			<rect x="11.448" y="35.131" transform="matrix(-0.7071 -0.7071 0.7071 -0.7071 54.249 98.131)" fill="#E2E2E2" width="72" height="5.398"/>
		
			<rect x="11.448" y="35.23" transform="matrix(-0.7071 -0.7071 0.7071 -0.7071 54.249 98.131)" fill="#E3E3E3" width="72" height="5.199"/>
		
			<rect x="11.448" y="35.33" transform="matrix(-0.7071 -0.7071 0.7071 -0.7071 54.249 98.131)" fill="#E4E4E4" width="72" height="5.001"/>
	</g>
</g>
</svg>
