<?xml version="1.0" encoding="utf-8"?>
<!-- Generator: Adobe Illustrator 15.0.0, SVG Export Plug-In  -->
<!DOCTYPE svg PUBLIC "-//W3C//DTD SVG 1.1//EN" "http://www.w3.org/Graphics/SVG/1.1/DTD/svg11.dtd" [
	<!ENTITY ns_flows "http://ns.adobe.com/Flows/1.0/">
]>
<svg version="1.1"
	 xmlns="http://www.w3.org/2000/svg" xmlns:xlink="http://www.w3.org/1999/xlink" xmlns:a="http://ns.adobe.com/AdobeSVGViewerExtensions/3.0/"
	 x="0px" y="0px" width="70px" height="35px" viewBox="0 0.234 70 35" enable-background="new 0 0.234 70 35" xml:space="preserve">
<defs>
</defs>
<g>
	<polygon fill="#4D4D4D" points="0,35 71,25 71,10 0,0 	"/>
	<polygon fill="#4E4E4E" points="0,34.901 71,24.967 71,10.033 0,0.099 	"/>
	<polygon fill="#4F4F4F" points="0,34.801 71,24.934 71,10.066 0,0.199 	"/>
	<polygon fill="#505050" points="0,34.702 71,24.901 71,10.099 0,0.298 	"/>
	<polygon fill="#515151" points="0,34.603 71,24.868 71,10.132 0,0.397 	"/>
	<polygon fill="#525252" points="0,34.503 71,24.834 71,10.166 0,0.497 	"/>
	<polygon fill="#535353" points="0,34.404 71,24.801 71,10.199 0,0.596 	"/>
	<polygon fill="#545454" points="0,34.305 71,24.768 71,10.232 0,0.695 	"/>
	<polygon fill="#555555" points="0,34.205 71,24.735 71,10.265 0,0.795 	"/>
	<polygon fill="#565656" points="0,34.106 71,24.702 71,10.298 0,0.894 	"/>
	<polygon fill="#575757" points="0,34.007 71,24.669 71,10.331 0,0.993 	"/>
	<polygon fill="#585858" points="0,33.907 71,24.636 71,10.364 0,1.093 	"/>
	<polygon fill="#595959" points="0,33.808 71,24.603 71,10.397 0,1.192 	"/>
	<polygon fill="#5A5A5A" points="0,33.708 71,24.569 71,10.431 0,1.292 	"/>
	<polygon fill="#5B5B5B" points="0,33.609 71,24.537 71,10.463 0,1.391 	"/>
	<polygon fill="#5C5C5C" points="0,33.51 71,24.503 71,10.497 0,1.49 	"/>
	<polygon fill="#5D5D5D" points="0,33.411 71,24.47 71,10.53 0,1.589 	"/>
	<polygon fill="#5E5E5E" points="0,33.311 71,24.437 71,10.563 0,1.689 	"/>
	<polygon fill="#5F5F5F" points="0,33.212 71,24.404 71,10.596 0,1.788 	"/>
	<polygon fill="#606060" points="0,33.113 71,24.371 71,10.629 0,1.887 	"/>
	<polygon fill="#616161" points="0,33.013 71,24.338 71,10.662 0,1.987 	"/>
	<polygon fill="#626262" points="0,32.914 71,24.305 71,10.695 0,2.086 	"/>
	<polygon fill="#636363" points="0,32.814 71,24.271 71,10.729 0,2.186 	"/>
	<polygon fill="#646464" points="0,32.715 71,24.238 71,10.762 0,2.285 	"/>
	<polygon fill="#656565" points="0,32.616 71,24.205 71,10.795 0,2.384 	"/>
	<polygon fill="#666666" points="0,32.517 71,24.172 71,10.828 0,2.483 	"/>
	<polygon fill="#676767" points="0,32.417 71,24.139 71,10.861 0,2.583 	"/>
	<polygon fill="#686868" points="0,32.318 71,24.106 71,10.894 0,2.682 	"/>
	<polygon fill="#696969" points="0,32.219 71,24.073 71,10.927 0,2.781 	"/>
	<polygon fill="#6A6A6A" points="0,32.119 71,24.04 71,10.96 0,2.881 	"/>
	<polygon fill="#6B6B6B" points="0,32.02 71,24.007 71,10.993 0,2.98 	"/>
	<polygon fill="#6C6C6C" points="0,31.92 71,23.974 71,11.026 0,3.08 	"/>
	<polygon fill="#6D6D6D" points="0,31.821 71,23.94 71,11.06 0,3.179 	"/>
	<polygon fill="#6E6E6E" points="0,31.722 71,23.907 71,11.093 0,3.278 	"/>
	<polygon fill="#6F6F6F" points="0,31.623 71,23.874 71,11.126 0,3.377 	"/>
	<polygon fill="#707070" points="0,31.523 71,23.841 71,11.159 0,3.477 	"/>
	<polygon fill="#717171" points="0,31.424 71,23.808 71,11.192 0,3.576 	"/>
	<polygon fill="#727272" points="0,31.325 71,23.775 71,11.225 0,3.675 	"/>
	<polygon fill="#737373" points="0,31.225 71,23.742 71,11.258 0,3.775 	"/>
	<polygon fill="#747474" points="0,31.126 71,23.708 71,11.292 0,3.874 	"/>
	<polygon fill="#757575" points="0,31.026 71,23.675 71,11.325 0,3.974 	"/>
	<polygon fill="#767676" points="0,30.927 71,23.643 71,11.357 0,4.073 	"/>
	<polygon fill="#777777" points="0,30.828 71,23.609 71,11.391 0,4.172 	"/>
	<polygon fill="#787878" points="0,30.729 71,23.576 71,11.424 0,4.271 	"/>
	<polygon fill="#797979" points="0,30.629 71,23.543 71,11.457 0,4.371 	"/>
	<polygon fill="#7A7A7A" points="0,30.53 71,23.51 71,11.49 0,4.47 	"/>
	<polygon fill="#7B7B7B" points="0,30.431 71,23.477 71,11.523 0,4.569 	"/>
	<polygon fill="#7C7C7C" points="0,30.331 71,23.444 71,11.556 0,4.669 	"/>
	<polygon fill="#7D7D7D" points="0,30.232 71,23.411 71,11.589 0,4.768 	"/>
	<polygon fill="#7E7E7E" points="0,30.132 71,23.377 71,11.623 0,4.868 	"/>
	<polygon fill="#7F7F7F" points="0,30.033 71,23.344 71,11.656 0,4.967 	"/>
	<polygon fill="#808080" points="0,29.934 71,23.311 71,11.689 0,5.066 	"/>
	<polygon fill="#818181" points="0,29.834 71,23.278 71,11.722 0,5.166 	"/>
	<polygon fill="#828282" points="0,29.735 71,23.245 71,11.755 0,5.265 	"/>
	<polygon fill="#838383" points="0,29.636 71,23.212 71,11.788 0,5.364 	"/>
	<polygon fill="#848484" points="0,29.537 71,23.179 71,11.821 0,5.463 	"/>
	<polygon fill="#858585" points="0,29.437 71,23.146 71,11.854 0,5.563 	"/>
	<polygon fill="#868686" points="0,29.338 71,23.113 71,11.887 0,5.662 	"/>
	<polygon fill="#878787" points="0,29.238 71,23.08 71,11.92 0,5.762 	"/>
	<polygon fill="#888888" points="0,29.139 71,23.046 71,11.954 0,5.861 	"/>
	<polygon fill="#898989" points="0,29.04 71,23.013 71,11.987 0,5.96 	"/>
	<polygon fill="#8A8A8A" points="0,28.94 71,22.98 71,12.02 0,6.06 	"/>
	<polygon fill="#8B8B8B" points="0,28.841 71,22.947 71,12.053 0,6.159 	"/>
	<polygon fill="#8C8C8C" points="0,28.742 71,22.914 71,12.086 0,6.258 	"/>
	<polygon fill="#8D8D8D" points="0,28.643 71,22.881 71,12.119 0,6.357 	"/>
	<polygon fill="#8E8E8E" points="0,28.543 71,22.848 71,12.152 0,6.457 	"/>
	<polygon fill="#8F8F8F" points="0,28.444 71,22.814 71,12.186 0,6.556 	"/>
	<polygon fill="#909090" points="0,28.344 71,22.781 71,12.219 0,6.656 	"/>
	<polygon fill="#919191" points="0,28.245 71,22.749 71,12.251 0,6.755 	"/>
	<polygon fill="#929292" points="0,28.146 71,22.715 71,12.285 0,6.854 	"/>
	<polygon fill="#939393" points="0,28.046 71,22.682 71,12.318 0,6.954 	"/>
	<polygon fill="#949494" points="0,27.947 71,22.649 71,12.351 0,7.053 	"/>
	<polygon fill="#959595" points="0,27.848 71,22.616 71,12.384 0,7.152 	"/>
	<polygon fill="#969696" points="0,27.749 71,22.583 71,12.417 0,7.251 	"/>
	<polygon fill="#979797" points="0,27.649 71,22.55 71,12.45 0,7.351 	"/>
	<polygon fill="#989898" points="0,27.55 71,22.517 71,12.483 0,7.45 	"/>
	<polygon fill="#999999" points="0,27.45 71,22.483 71,12.517 0,7.55 	"/>
	<polygon fill="#9A9A9A" points="0,27.351 71,22.45 71,12.55 0,7.649 	"/>
	<polygon fill="#9B9B9B" points="0,27.251 71,22.417 71,12.583 0,7.749 	"/>
	<polygon fill="#9C9C9C" points="0,27.152 71,22.384 71,12.616 0,7.848 	"/>
	<polygon fill="#9D9D9D" points="0,27.053 71,22.351 71,12.649 0,7.947 	"/>
	<polygon fill="#9E9E9E" points="0,26.954 71,22.318 71,12.682 0,8.046 	"/>
	<polygon fill="#9F9F9F" points="0,26.854 71,22.285 71,12.715 0,8.146 	"/>
	<polygon fill="#A0A0A0" points="0,26.755 71,22.251 71,12.749 0,8.245 	"/>
	<polygon fill="#A1A1A1" points="0,26.656 71,22.219 71,12.781 0,8.344 	"/>
	<polygon fill="#A2A2A2" points="0,26.556 71,22.186 71,12.814 0,8.444 	"/>
	<polygon fill="#A3A3A3" points="0,26.457 71,22.152 71,12.848 0,8.543 	"/>
	<polygon fill="#A4A4A4" points="0,26.357 71,22.119 71,12.881 0,8.643 	"/>
	<polygon fill="#A5A5A5" points="0,26.258 71,22.086 71,12.914 0,8.742 	"/>
	<polygon fill="#A6A6A6" points="0,26.159 71,22.053 71,12.947 0,8.841 	"/>
	<polygon fill="#A7A7A7" points="0,26.06 71,22.02 71,12.98 0,8.94 	"/>
	<polygon fill="#A8A8A8" points="0,25.96 71,21.987 71,13.013 0,9.04 	"/>
	<polygon fill="#A9A9A9" points="0,25.861 71,21.954 71,13.046 0,9.139 	"/>
	<polygon fill="#AAAAAA" points="0,25.762 71,21.92 71,13.08 0,9.238 	"/>
	<polygon fill="#ABABAB" points="0,25.662 71,21.887 71,13.113 0,9.338 	"/>
	<polygon fill="#ACACAC" points="0,25.563 71,21.854 71,13.146 0,9.437 	"/>
	<polygon fill="#ADADAD" points="0,25.463 71,21.821 71,13.179 0,9.537 	"/>
	<polygon fill="#AEAEAE" points="0,25.364 71,21.788 71,13.212 0,9.636 	"/>
	<polygon fill="#AFAFAF" points="0,25.265 71,21.755 71,13.245 0,9.735 	"/>
	<polygon fill="#B0B0B0" points="0,25.166 71,21.722 71,13.278 0,9.834 	"/>
	<polygon fill="#B1B1B1" points="0,25.066 71,21.689 71,13.311 0,9.934 	"/>
	<polygon fill="#B2B2B2" points="0,24.967 71,21.656 71,13.344 0,10.033 	"/>
	<polygon fill="#B3B3B3" points="0,24.868 71,21.623 71,13.377 0,10.132 	"/>
	<polygon fill="#B4B4B4" points="0,24.768 71,21.589 71,13.411 0,10.232 	"/>
	<polygon fill="#B5B5B5" points="0,24.669 71,21.556 71,13.444 0,10.331 	"/>
	<polygon fill="#B6B6B6" points="0,24.569 71,21.523 71,13.477 0,10.431 	"/>
	<polygon fill="#B7B7B7" points="0,24.47 71,21.49 71,13.51 0,10.53 	"/>
	<polygon fill="#B8B8B8" points="0,24.371 71,21.457 71,13.543 0,10.629 	"/>
	<polygon fill="#B9B9B9" points="0,24.271 71,21.424 71,13.576 0,10.729 	"/>
	<polygon fill="#BABABA" points="0,24.172 71,21.391 71,13.609 0,10.828 	"/>
	<polygon fill="#BBBBBB" points="0,24.073 71,21.357 71,13.643 0,10.927 	"/>
	<polygon fill="#BCBCBC" points="0,23.974 71,21.325 71,13.675 0,11.026 	"/>
	<polygon fill="#BDBDBD" points="0,23.874 71,21.292 71,13.708 0,11.126 	"/>
	<polygon fill="#BEBEBE" points="0,23.775 71,21.258 71,13.742 0,11.225 	"/>
	<polygon fill="#BFBFBF" points="0,23.675 71,21.225 71,13.775 0,11.325 	"/>
	<polygon fill="#C0C0C0" points="0,23.576 71,21.192 71,13.808 0,11.424 	"/>
	<polygon fill="#C1C1C1" points="0,23.477 71,21.159 71,13.841 0,11.523 	"/>
	<polygon fill="#C2C2C2" points="0,23.377 71,21.126 71,13.874 0,11.623 	"/>
	<polygon fill="#C3C3C3" points="0,23.278 71,21.093 71,13.907 0,11.722 	"/>
	<polygon fill="#C4C4C4" points="0,23.179 71,21.06 71,13.94 0,11.821 	"/>
	<polygon fill="#C5C5C5" points="0,23.08 71,21.026 71,13.974 0,11.92 	"/>
	<polygon fill="#C6C6C6" points="0,22.98 71,20.993 71,14.007 0,12.02 	"/>
	<polygon fill="#C7C7C7" points="0,22.881 71,20.96 71,14.04 0,12.119 	"/>
	<polygon fill="#C8C8C8" points="0,22.781 71,20.927 71,14.073 0,12.219 	"/>
	<polygon fill="#C9C9C9" points="0,22.682 71,20.894 71,14.106 0,12.318 	"/>
	<polygon fill="#CACACA" points="0,22.583 71,20.861 71,14.139 0,12.417 	"/>
	<polygon fill="#CBCBCB" points="0,22.483 71,20.828 71,14.172 0,12.517 	"/>
	<polygon fill="#CCCCCC" points="0,22.384 71,20.795 71,14.205 0,12.616 	"/>
	<polygon fill="#CDCDCD" points="0,22.285 71,20.762 71,14.238 0,12.715 	"/>
	<polygon fill="#CECECE" points="0,22.186 71,20.729 71,14.271 0,12.814 	"/>
	<polygon fill="#CFCFCF" points="0,22.086 71,20.695 71,14.305 0,12.914 	"/>
	<polygon fill="#D0D0D0" points="0,21.987 71,20.662 71,14.338 0,13.013 	"/>
	<polygon fill="#D1D1D1" points="0,21.887 71,20.629 71,14.371 0,13.113 	"/>
	<polygon fill="#D2D2D2" points="0,21.788 71,20.596 71,14.404 0,13.212 	"/>
	<polygon fill="#D3D3D3" points="0,21.689 71,20.563 71,14.437 0,13.311 	"/>
	<polygon fill="#D4D4D4" points="0,21.589 71,20.53 71,14.47 0,13.411 	"/>
	<polygon fill="#D5D5D5" points="0,21.49 71,20.497 71,14.503 0,13.51 	"/>
	<polygon fill="#D6D6D6" points="0,21.391 71,20.463 71,14.537 0,13.609 	"/>
	<polygon fill="#D7D7D7" points="0,21.292 71,20.431 71,14.569 0,13.708 	"/>
	<polygon fill="#D8D8D8" points="0,21.192 71,20.397 71,14.603 0,13.808 	"/>
	<polygon fill="#D9D9D9" points="0,21.093 71,20.364 71,14.636 0,13.907 	"/>
	<polygon fill="#DADADA" points="0,20.993 71,20.331 71,14.669 0,14.007 	"/>
	<polygon fill="#DBDBDB" points="0,20.894 71,20.298 71,14.702 0,14.106 	"/>
	<polygon fill="#DCDCDC" points="0,20.795 71,20.265 71,14.735 0,14.205 	"/>
	<polygon fill="#DDDDDD" points="0,20.695 71,20.232 71,14.768 0,14.305 	"/>
	<polygon fill="#DEDEDE" points="0,20.596 71,20.199 71,14.801 0,14.404 	"/>
	<polygon fill="#DFDFDF" points="0,20.497 71,20.166 71,14.834 0,14.503 	"/>
	<polygon fill="#E0E0E0" points="0,20.397 71,20.132 71,14.868 0,14.603 	"/>
	<polygon fill="#E1E1E1" points="0,20.298 71,20.099 71,14.901 0,14.702 	"/>
	<polygon fill="#E2E2E2" points="0,20.199 71,20.066 71,14.934 0,14.801 	"/>
	<polygon fill="#E3E3E3" points="0,20.099 71,20.033 71,14.967 0,14.901 	"/>
	<rect y="15.234" fill="#E4E4E4" width="71" height="5"/>
</g>
</svg>
