<?xml version="1.0" encoding="utf-8"?>
<!-- Generator: Adobe Illustrator 15.0.0, SVG Export Plug-In  -->
<!DOCTYPE svg PUBLIC "-//W3C//DTD SVG 1.1//EN" "http://www.w3.org/Graphics/SVG/1.1/DTD/svg11.dtd" [
	<!ENTITY ns_flows "http://ns.adobe.com/Flows/1.0/">
]>
<svg version="1.1"
	 xmlns="http://www.w3.org/2000/svg" xmlns:xlink="http://www.w3.org/1999/xlink" xmlns:a="http://ns.adobe.com/AdobeSVGViewerExtensions/3.0/"
	 x="0px" y="0px" width="70px" height="35px" viewBox="0.508 -0.266 70 35" enable-background="new 0.508 -0.266 70 35"
	 xml:space="preserve">
<defs>
</defs>
<g>
	<polygon fill="#4D4D4D" points="71,35 0,25 0,10 71,0 	"/>
	<polygon fill="#4E4E4E" points="71,34.901 0,24.967 0,10.033 71,0.099 	"/>
	<polygon fill="#4F4F4F" points="71,34.801 0,24.934 0,10.066 71,0.199 	"/>
	<polygon fill="#505050" points="71,34.702 0,24.901 0,10.099 71,0.298 	"/>
	<polygon fill="#515151" points="71,34.603 0,24.868 0,10.132 71,0.397 	"/>
	<polygon fill="#525252" points="71,34.503 0,24.834 0,10.166 71,0.497 	"/>
	<polygon fill="#535353" points="71,34.404 0,24.801 0,10.199 71,0.596 	"/>
	<polygon fill="#545454" points="71,34.305 0,24.768 0,10.232 71,0.695 	"/>
	<polygon fill="#555555" points="71,34.205 0,24.735 0,10.265 71,0.795 	"/>
	<polygon fill="#565656" points="71,34.106 0,24.702 0,10.298 71,0.894 	"/>
	<polygon fill="#575757" points="71,34.007 0,24.669 0,10.331 71,0.993 	"/>
	<polygon fill="#585858" points="71,33.907 0,24.636 0,10.364 71,1.093 	"/>
	<polygon fill="#595959" points="71,33.808 0,24.603 0,10.397 71,1.192 	"/>
	<polygon fill="#5A5A5A" points="71,33.708 0,24.569 0,10.431 71,1.292 	"/>
	<polygon fill="#5B5B5B" points="71,33.609 0,24.537 0,10.463 71,1.391 	"/>
	<polygon fill="#5C5C5C" points="71,33.51 0,24.503 0,10.497 71,1.49 	"/>
	<polygon fill="#5D5D5D" points="71,33.411 0,24.47 0,10.53 71,1.589 	"/>
	<polygon fill="#5E5E5E" points="71,33.311 0,24.437 0,10.563 71,1.689 	"/>
	<polygon fill="#5F5F5F" points="71,33.212 0,24.404 0,10.596 71,1.788 	"/>
	<polygon fill="#606060" points="71,33.113 0,24.371 0,10.629 71,1.887 	"/>
	<polygon fill="#616161" points="71,33.013 0,24.338 0,10.662 71,1.987 	"/>
	<polygon fill="#626262" points="71,32.914 0,24.305 0,10.695 71,2.086 	"/>
	<polygon fill="#636363" points="71,32.814 0,24.271 0,10.729 71,2.186 	"/>
	<polygon fill="#646464" points="71,32.715 0,24.238 0,10.762 71,2.285 	"/>
	<polygon fill="#656565" points="71,32.616 0,24.205 0,10.795 71,2.384 	"/>
	<polygon fill="#666666" points="71,32.517 0,24.172 0,10.828 71,2.483 	"/>
	<polygon fill="#676767" points="71,32.417 0,24.139 0,10.861 71,2.583 	"/>
	<polygon fill="#686868" points="71,32.318 0,24.106 0,10.894 71,2.682 	"/>
	<polygon fill="#696969" points="71,32.219 0,24.073 0,10.927 71,2.781 	"/>
	<polygon fill="#6A6A6A" points="71,32.119 0,24.04 0,10.96 71,2.881 	"/>
	<polygon fill="#6B6B6B" points="71,32.02 0,24.007 0,10.993 71,2.98 	"/>
	<polygon fill="#6C6C6C" points="71,31.92 0,23.974 0,11.026 71,3.08 	"/>
	<polygon fill="#6D6D6D" points="71,31.821 0,23.94 0,11.06 71,3.179 	"/>
	<polygon fill="#6E6E6E" points="71,31.722 0,23.907 0,11.093 71,3.278 	"/>
	<polygon fill="#6F6F6F" points="71,31.623 0,23.874 0,11.126 71,3.377 	"/>
	<polygon fill="#707070" points="71,31.523 0,23.841 0,11.159 71,3.477 	"/>
	<polygon fill="#717171" points="71,31.424 0,23.808 0,11.192 71,3.576 	"/>
	<polygon fill="#727272" points="71,31.325 0,23.775 0,11.225 71,3.675 	"/>
	<polygon fill="#737373" points="71,31.225 0,23.742 0,11.258 71,3.775 	"/>
	<polygon fill="#747474" points="71,31.126 0,23.708 0,11.292 71,3.874 	"/>
	<polygon fill="#757575" points="71,31.026 0,23.675 0,11.325 71,3.974 	"/>
	<polygon fill="#767676" points="71,30.927 0,23.643 0,11.357 71,4.073 	"/>
	<polygon fill="#777777" points="71,30.828 0,23.609 0,11.391 71,4.172 	"/>
	<polygon fill="#787878" points="71,30.729 0,23.576 0,11.424 71,4.271 	"/>
	<polygon fill="#797979" points="71,30.629 0,23.543 0,11.457 71,4.371 	"/>
	<polygon fill="#7A7A7A" points="71,30.53 0,23.51 0,11.49 71,4.47 	"/>
	<polygon fill="#7B7B7B" points="71,30.431 0,23.477 0,11.523 71,4.569 	"/>
	<polygon fill="#7C7C7C" points="71,30.331 0,23.444 0,11.556 71,4.669 	"/>
	<polygon fill="#7D7D7D" points="71,30.232 0,23.411 0,11.589 71,4.768 	"/>
	<polygon fill="#7E7E7E" points="71,30.132 0,23.377 0,11.623 71,4.868 	"/>
	<polygon fill="#7F7F7F" points="71,30.033 0,23.344 0,11.656 71,4.967 	"/>
	<polygon fill="#808080" points="71,29.934 0,23.311 0,11.689 71,5.066 	"/>
	<polygon fill="#818181" points="71,29.834 0,23.278 0,11.722 71,5.166 	"/>
	<polygon fill="#828282" points="71,29.735 0,23.245 0,11.755 71,5.265 	"/>
	<polygon fill="#838383" points="71,29.636 0,23.212 0,11.788 71,5.364 	"/>
	<polygon fill="#848484" points="71,29.537 0,23.179 0,11.821 71,5.463 	"/>
	<polygon fill="#858585" points="71,29.437 0,23.146 0,11.854 71,5.563 	"/>
	<polygon fill="#868686" points="71,29.338 0,23.113 0,11.887 71,5.662 	"/>
	<polygon fill="#878787" points="71,29.238 0,23.08 0,11.92 71,5.762 	"/>
	<polygon fill="#888888" points="71,29.139 0,23.046 0,11.954 71,5.861 	"/>
	<polygon fill="#898989" points="71,29.04 0,23.013 0,11.987 71,5.96 	"/>
	<polygon fill="#8A8A8A" points="71,28.94 0,22.98 0,12.02 71,6.06 	"/>
	<polygon fill="#8B8B8B" points="71,28.841 0,22.947 0,12.053 71,6.159 	"/>
	<polygon fill="#8C8C8C" points="71,28.742 0,22.914 0,12.086 71,6.258 	"/>
	<polygon fill="#8D8D8D" points="71,28.643 0,22.881 0,12.119 71,6.357 	"/>
	<polygon fill="#8E8E8E" points="71,28.543 0,22.848 0,12.152 71,6.457 	"/>
	<polygon fill="#8F8F8F" points="71,28.444 0,22.814 0,12.186 71,6.556 	"/>
	<polygon fill="#909090" points="71,28.344 0,22.781 0,12.219 71,6.656 	"/>
	<polygon fill="#919191" points="71,28.245 0,22.749 0,12.251 71,6.755 	"/>
	<polygon fill="#929292" points="71,28.146 0,22.715 0,12.285 71,6.854 	"/>
	<polygon fill="#939393" points="71,28.046 0,22.682 0,12.318 71,6.954 	"/>
	<polygon fill="#949494" points="71,27.947 0,22.649 0,12.351 71,7.053 	"/>
	<polygon fill="#959595" points="71,27.848 0,22.616 0,12.384 71,7.152 	"/>
	<polygon fill="#969696" points="71,27.749 0,22.583 0,12.417 71,7.251 	"/>
	<polygon fill="#979797" points="71,27.649 0,22.55 0,12.45 71,7.351 	"/>
	<polygon fill="#989898" points="71,27.55 0,22.517 0,12.483 71,7.45 	"/>
	<polygon fill="#999999" points="71,27.45 0,22.483 0,12.517 71,7.55 	"/>
	<polygon fill="#9A9A9A" points="71,27.351 0,22.45 0,12.55 71,7.649 	"/>
	<polygon fill="#9B9B9B" points="71,27.251 0,22.417 0,12.583 71,7.749 	"/>
	<polygon fill="#9C9C9C" points="71,27.152 0,22.384 0,12.616 71,7.848 	"/>
	<polygon fill="#9D9D9D" points="71,27.053 0,22.351 0,12.649 71,7.947 	"/>
	<polygon fill="#9E9E9E" points="71,26.954 0,22.318 0,12.682 71,8.046 	"/>
	<polygon fill="#9F9F9F" points="71,26.854 0,22.285 0,12.715 71,8.146 	"/>
	<polygon fill="#A0A0A0" points="71,26.755 0,22.251 0,12.749 71,8.245 	"/>
	<polygon fill="#A1A1A1" points="71,26.656 0,22.219 0,12.781 71,8.344 	"/>
	<polygon fill="#A2A2A2" points="71,26.556 0,22.186 0,12.814 71,8.444 	"/>
	<polygon fill="#A3A3A3" points="71,26.457 0,22.152 0,12.848 71,8.543 	"/>
	<polygon fill="#A4A4A4" points="71,26.357 0,22.119 0,12.881 71,8.643 	"/>
	<polygon fill="#A5A5A5" points="71,26.258 0,22.086 0,12.914 71,8.742 	"/>
	<polygon fill="#A6A6A6" points="71,26.159 0,22.053 0,12.947 71,8.841 	"/>
	<polygon fill="#A7A7A7" points="71,26.06 0,22.02 0,12.98 71,8.94 	"/>
	<polygon fill="#A8A8A8" points="71,25.96 0,21.987 0,13.013 71,9.04 	"/>
	<polygon fill="#A9A9A9" points="71,25.861 0,21.954 0,13.046 71,9.139 	"/>
	<polygon fill="#AAAAAA" points="71,25.762 0,21.92 0,13.08 71,9.238 	"/>
	<polygon fill="#ABABAB" points="71,25.662 0,21.887 0,13.113 71,9.338 	"/>
	<polygon fill="#ACACAC" points="71,25.563 0,21.854 0,13.146 71,9.437 	"/>
	<polygon fill="#ADADAD" points="71,25.463 0,21.821 0,13.179 71,9.537 	"/>
	<polygon fill="#AEAEAE" points="71,25.364 0,21.788 0,13.212 71,9.636 	"/>
	<polygon fill="#AFAFAF" points="71,25.265 0,21.755 0,13.245 71,9.735 	"/>
	<polygon fill="#B0B0B0" points="71,25.166 0,21.722 0,13.278 71,9.834 	"/>
	<polygon fill="#B1B1B1" points="71,25.066 0,21.689 0,13.311 71,9.934 	"/>
	<polygon fill="#B2B2B2" points="71,24.967 0,21.656 0,13.344 71,10.033 	"/>
	<polygon fill="#B3B3B3" points="71,24.868 0,21.623 0,13.377 71,10.132 	"/>
	<polygon fill="#B4B4B4" points="71,24.768 0,21.589 0,13.411 71,10.232 	"/>
	<polygon fill="#B5B5B5" points="71,24.669 0,21.556 0,13.444 71,10.331 	"/>
	<polygon fill="#B6B6B6" points="71,24.569 0,21.523 0,13.477 71,10.431 	"/>
	<polygon fill="#B7B7B7" points="71,24.47 0,21.49 0,13.51 71,10.53 	"/>
	<polygon fill="#B8B8B8" points="71,24.371 0,21.457 0,13.543 71,10.629 	"/>
	<polygon fill="#B9B9B9" points="71,24.271 0,21.424 0,13.576 71,10.729 	"/>
	<polygon fill="#BABABA" points="71,24.172 0,21.391 0,13.609 71,10.828 	"/>
	<polygon fill="#BBBBBB" points="71,24.073 0,21.357 0,13.643 71,10.927 	"/>
	<polygon fill="#BCBCBC" points="71,23.974 0,21.325 0,13.675 71,11.026 	"/>
	<polygon fill="#BDBDBD" points="71,23.874 0,21.292 0,13.708 71,11.126 	"/>
	<polygon fill="#BEBEBE" points="71,23.775 0,21.258 0,13.742 71,11.225 	"/>
	<polygon fill="#BFBFBF" points="71,23.675 0,21.225 0,13.775 71,11.325 	"/>
	<polygon fill="#C0C0C0" points="71,23.576 0,21.192 0,13.808 71,11.424 	"/>
	<polygon fill="#C1C1C1" points="71,23.477 0,21.159 0,13.841 71,11.523 	"/>
	<polygon fill="#C2C2C2" points="71,23.377 0,21.126 0,13.874 71,11.623 	"/>
	<polygon fill="#C3C3C3" points="71,23.278 0,21.093 0,13.907 71,11.722 	"/>
	<polygon fill="#C4C4C4" points="71,23.179 0,21.06 0,13.94 71,11.821 	"/>
	<polygon fill="#C5C5C5" points="71,23.08 0,21.026 0,13.974 71,11.92 	"/>
	<polygon fill="#C6C6C6" points="71,22.98 0,20.993 0,14.007 71,12.02 	"/>
	<polygon fill="#C7C7C7" points="71,22.881 0,20.96 0,14.04 71,12.119 	"/>
	<polygon fill="#C8C8C8" points="71,22.781 0,20.927 0,14.073 71,12.219 	"/>
	<polygon fill="#C9C9C9" points="71,22.682 0,20.894 0,14.106 71,12.318 	"/>
	<polygon fill="#CACACA" points="71,22.583 0,20.861 0,14.139 71,12.417 	"/>
	<polygon fill="#CBCBCB" points="71,22.483 0,20.828 0,14.172 71,12.517 	"/>
	<polygon fill="#CCCCCC" points="71,22.384 0,20.795 0,14.205 71,12.616 	"/>
	<polygon fill="#CDCDCD" points="71,22.285 0,20.762 0,14.238 71,12.715 	"/>
	<polygon fill="#CECECE" points="71,22.186 0,20.729 0,14.271 71,12.814 	"/>
	<polygon fill="#CFCFCF" points="71,22.086 0,20.695 0,14.305 71,12.914 	"/>
	<polygon fill="#D0D0D0" points="71,21.987 0,20.662 0,14.338 71,13.013 	"/>
	<polygon fill="#D1D1D1" points="71,21.887 0,20.629 0,14.371 71,13.113 	"/>
	<polygon fill="#D2D2D2" points="71,21.788 0,20.596 0,14.404 71,13.212 	"/>
	<polygon fill="#D3D3D3" points="71,21.689 0,20.563 0,14.437 71,13.311 	"/>
	<polygon fill="#D4D4D4" points="71,21.589 0,20.53 0,14.47 71,13.411 	"/>
	<polygon fill="#D5D5D5" points="71,21.49 0,20.497 0,14.503 71,13.51 	"/>
	<polygon fill="#D6D6D6" points="71,21.391 0,20.463 0,14.537 71,13.609 	"/>
	<polygon fill="#D7D7D7" points="71,21.292 0,20.431 0,14.569 71,13.708 	"/>
	<polygon fill="#D8D8D8" points="71,21.192 0,20.397 0,14.603 71,13.808 	"/>
	<polygon fill="#D9D9D9" points="71,21.093 0,20.364 0,14.636 71,13.907 	"/>
	<polygon fill="#DADADA" points="71,20.993 0,20.331 0,14.669 71,14.007 	"/>
	<polygon fill="#DBDBDB" points="71,20.894 0,20.298 0,14.702 71,14.106 	"/>
	<polygon fill="#DCDCDC" points="71,20.795 0,20.265 0,14.735 71,14.205 	"/>
	<polygon fill="#DDDDDD" points="71,20.695 0,20.232 0,14.768 71,14.305 	"/>
	<polygon fill="#DEDEDE" points="71,20.596 0,20.199 0,14.801 71,14.404 	"/>
	<polygon fill="#DFDFDF" points="71,20.497 0,20.166 0,14.834 71,14.503 	"/>
	<polygon fill="#E0E0E0" points="71,20.397 0,20.132 0,14.868 71,14.603 	"/>
	<polygon fill="#E1E1E1" points="71,20.298 0,20.099 0,14.901 71,14.702 	"/>
	<polygon fill="#E2E2E2" points="71,20.199 0,20.066 0,14.934 71,14.801 	"/>
	<polygon fill="#E3E3E3" points="71,20.099 0,20.033 0,14.967 71,14.901 	"/>
	<rect y="15.234" fill="#E4E4E4" width="71" height="5"/>
</g>
</svg>
