<?xml version="1.0" encoding="utf-8"?>
<!-- Generator: Adobe Illustrator 15.0.0, SVG Export Plug-In  -->
<!DOCTYPE svg PUBLIC "-//W3C//DTD SVG 1.1//EN" "http://www.w3.org/Graphics/SVG/1.1/DTD/svg11.dtd" [
	<!ENTITY ns_flows "http://ns.adobe.com/Flows/1.0/">
]>
<svg version="1.1"
	 xmlns="http://www.w3.org/2000/svg" xmlns:xlink="http://www.w3.org/1999/xlink" xmlns:a="http://ns.adobe.com/AdobeSVGViewerExtensions/3.0/"
	 x="0px" y="0px" width="85px" height="100px" viewBox="-1.638 -0.5 85 100" enable-background="new -1.638 -0.5 85 100"
	 xml:space="preserve">
<defs>
</defs>
<g>
	<rect x="48.862" fill="#4D4D4D" width="35" height="100"/>
	<rect x="48.862" fill="#4E4E4E" width="35" height="100"/>
	<rect x="48.862" fill="#4F4F4F" width="35" height="100"/>
	<rect x="48.862" fill="#505050" width="35" height="100"/>
	<rect x="48.862" fill="#515151" width="35" height="100"/>
	<rect x="48.862" fill="#525252" width="34" height="100"/>
	<rect x="49.862" fill="#535353" width="33" height="100"/>
	<rect x="49.862" fill="#545454" width="33" height="100"/>
	<rect x="49.862" fill="#555555" width="33" height="100"/>
	<rect x="49.862" fill="#565656" width="33" height="100"/>
	<rect x="49.862" fill="#575757" width="33" height="100"/>
	<rect x="49.862" fill="#585858" width="33" height="100"/>
	<rect x="49.862" fill="#595959" width="33" height="100"/>
	<rect x="49.862" fill="#5A5A5A" width="33" height="100"/>
	<rect x="49.862" fill="#5B5B5B" width="33" height="100"/>
	<rect x="49.862" fill="#5C5C5C" width="32" height="100"/>
	<rect x="50.862" fill="#5D5D5D" width="31" height="100"/>
	<rect x="50.862" fill="#5E5E5E" width="31" height="100"/>
	<rect x="50.862" fill="#5F5F5F" width="31" height="100"/>
	<rect x="50.862" fill="#606060" width="31" height="100"/>
	<rect x="50.862" fill="#616161" width="31" height="100"/>
	<rect x="50.862" fill="#626262" width="31" height="100"/>
	<rect x="50.862" fill="#636363" width="31" height="100"/>
	<rect x="50.862" fill="#646464" width="31" height="100"/>
	<rect x="50.862" fill="#656565" width="31" height="100"/>
	<rect x="50.862" fill="#666666" width="30" height="100"/>
	<rect x="51.862" fill="#676767" width="29" height="100"/>
	<rect x="51.862" fill="#686868" width="29" height="100"/>
	<rect x="51.862" fill="#696969" width="29" height="100"/>
	<rect x="51.862" fill="#6A6A6A" width="29" height="100"/>
	<rect x="51.862" fill="#6B6B6B" width="29" height="100"/>
	<rect x="51.862" fill="#6C6C6C" width="29" height="100"/>
	<rect x="51.862" fill="#6D6D6D" width="29" height="100"/>
	<rect x="51.862" fill="#6E6E6E" width="29" height="100"/>
	<rect x="51.862" fill="#6F6F6F" width="29" height="100"/>
	<rect x="51.862" fill="#707070" width="28" height="100"/>
	<rect x="52.862" fill="#717171" width="27" height="100"/>
	<rect x="52.862" fill="#727272" width="27" height="100"/>
	<rect x="52.862" fill="#737373" width="27" height="100"/>
	<rect x="52.862" fill="#747474" width="27" height="100"/>
	<rect x="52.862" fill="#757575" width="27" height="100"/>
	<rect x="52.862" fill="#767676" width="27" height="100"/>
	<rect x="52.862" fill="#777777" width="27" height="100"/>
	<rect x="52.862" fill="#787878" width="27" height="100"/>
	<rect x="52.862" fill="#797979" width="27" height="100"/>
	<rect x="52.862" fill="#7A7A7A" width="26" height="100"/>
	<rect x="53.862" fill="#7B7B7B" width="25" height="100"/>
	<rect x="53.862" fill="#7C7C7C" width="25" height="100"/>
	<rect x="53.862" fill="#7D7D7D" width="25" height="100"/>
	<rect x="53.862" fill="#7E7E7E" width="25" height="100"/>
	<rect x="53.862" fill="#7F7F7F" width="25" height="100"/>
	<rect x="53.862" fill="#808080" width="25" height="100"/>
	<rect x="53.862" fill="#818181" width="25" height="100"/>
	<rect x="53.862" fill="#828282" width="25" height="100"/>
	<rect x="53.862" fill="#838383" width="25" height="100"/>
	<rect x="53.862" fill="#848484" width="25" height="100"/>
	<rect x="54.862" fill="#858585" width="23" height="100"/>
	<rect x="54.862" fill="#868686" width="23" height="100"/>
	<rect x="54.862" fill="#878787" width="23" height="100"/>
	<rect x="54.862" fill="#888888" width="23" height="100"/>
	<rect x="54.862" fill="#898989" width="23" height="100"/>
	<rect x="54.862" fill="#8A8A8A" width="23" height="100"/>
	<rect x="54.862" fill="#8B8B8B" width="23" height="100"/>
	<rect x="54.862" fill="#8C8C8C" width="23" height="100"/>
	<rect x="54.862" fill="#8D8D8D" width="23" height="100"/>
	<rect x="54.862" fill="#8E8E8E" width="23" height="100"/>
	<rect x="55.862" fill="#8F8F8F" width="21" height="100"/>
	<rect x="55.862" fill="#909090" width="21" height="100"/>
	<rect x="55.862" fill="#919191" width="21" height="100"/>
	<rect x="55.862" fill="#929292" width="21" height="100"/>
	<rect x="55.862" fill="#939393" width="21" height="100"/>
	<rect x="55.862" fill="#949494" width="21" height="100"/>
	<rect x="55.862" fill="#959595" width="21" height="100"/>
	<rect x="55.862" fill="#969696" width="21" height="100"/>
	<rect x="55.862" fill="#979797" width="21" height="100"/>
	<rect x="55.862" fill="#989898" width="21" height="100"/>
	<rect x="56.862" fill="#999999" width="19" height="100"/>
	<rect x="56.862" fill="#9A9A9A" width="19" height="100"/>
	<rect x="56.862" fill="#9B9B9B" width="19" height="100"/>
	<rect x="56.862" fill="#9C9C9C" width="19" height="100"/>
	<rect x="56.862" fill="#9D9D9D" width="19" height="100"/>
	<rect x="56.862" fill="#9E9E9E" width="19" height="100"/>
	<rect x="56.862" fill="#9F9F9F" width="19" height="100"/>
	<rect x="56.862" fill="#A0A0A0" width="19" height="100"/>
	<rect x="56.862" fill="#A1A1A1" width="19" height="100"/>
	<rect x="56.862" fill="#A2A2A2" width="19" height="100"/>
	<rect x="57.862" fill="#A3A3A3" width="17" height="100"/>
	<rect x="57.862" fill="#A4A4A4" width="17" height="100"/>
	<rect x="57.862" fill="#A5A5A5" width="17" height="100"/>
	<rect x="57.862" fill="#A6A6A6" width="17" height="100"/>
	<rect x="57.862" fill="#A7A7A7" width="17" height="100"/>
	<rect x="57.862" fill="#A8A8A8" width="17" height="100"/>
	<rect x="57.862" fill="#A9A9A9" width="17" height="100"/>
	<rect x="57.862" fill="#AAAAAA" width="17" height="100"/>
	<rect x="57.862" fill="#ABABAB" width="17" height="100"/>
	<rect x="57.862" fill="#ACACAC" width="17" height="100"/>
	<rect x="58.862" fill="#ADADAD" width="15" height="100"/>
	<rect x="58.862" fill="#AEAEAE" width="15" height="100"/>
	<rect x="58.862" fill="#AFAFAF" width="15" height="100"/>
	<rect x="58.862" fill="#B0B0B0" width="15" height="100"/>
	<rect x="58.862" fill="#B1B1B1" width="15" height="100"/>
	<rect x="58.862" fill="#B2B2B2" width="15" height="100"/>
	<rect x="58.862" fill="#B3B3B3" width="15" height="100"/>
	<rect x="58.862" fill="#B4B4B4" width="15" height="100"/>
	<rect x="58.862" fill="#B5B5B5" width="15" height="100"/>
	<rect x="58.862" fill="#B6B6B6" width="15" height="100"/>
	<rect x="58.862" fill="#B7B7B7" width="14" height="100"/>
	<rect x="59.862" fill="#B8B8B8" width="13" height="100"/>
	<rect x="59.862" fill="#B9B9B9" width="13" height="100"/>
	<rect x="59.862" fill="#BABABA" width="13" height="100"/>
	<rect x="59.862" fill="#BBBBBB" width="13" height="100"/>
	<rect x="59.862" fill="#BCBCBC" width="13" height="100"/>
	<rect x="59.862" fill="#BDBDBD" width="13" height="100"/>
	<rect x="59.862" fill="#BEBEBE" width="13" height="100"/>
	<rect x="59.862" fill="#BFBFBF" width="13" height="100"/>
	<rect x="59.862" fill="#C0C0C0" width="13" height="100"/>
	<rect x="59.862" fill="#C1C1C1" width="12" height="100"/>
	<rect x="60.862" fill="#C2C2C2" width="11" height="100"/>
	<rect x="60.862" fill="#C3C3C3" width="11" height="100"/>
	<rect x="60.862" fill="#C4C4C4" width="11" height="100"/>
	<rect x="60.862" fill="#C5C5C5" width="11" height="100"/>
	<rect x="60.862" fill="#C6C6C6" width="11" height="100"/>
	<rect x="60.862" fill="#C7C7C7" width="11" height="100"/>
	<rect x="60.862" fill="#C8C8C8" width="11" height="100"/>
	<rect x="60.862" fill="#C9C9C9" width="11" height="100"/>
	<rect x="60.862" fill="#CACACA" width="11" height="100"/>
	<rect x="60.862" fill="#CBCBCB" width="10" height="100"/>
	<rect x="61.862" fill="#CCCCCC" width="9" height="100"/>
	<rect x="61.862" fill="#CDCDCD" width="9" height="100"/>
	<rect x="61.862" fill="#CECECE" width="9" height="100"/>
	<rect x="61.862" fill="#CFCFCF" width="9" height="100"/>
	<rect x="61.862" fill="#D0D0D0" width="9" height="100"/>
	<rect x="61.862" fill="#D1D1D1" width="9" height="100"/>
	<rect x="61.862" fill="#D2D2D2" width="9" height="100"/>
	<rect x="61.862" fill="#D3D3D3" width="9" height="100"/>
	<rect x="61.862" fill="#D4D4D4" width="9" height="100"/>
	<rect x="61.862" fill="#D5D5D5" width="8" height="100"/>
	<rect x="62.862" fill="#D6D6D6" width="7" height="100"/>
	<rect x="62.862" fill="#D7D7D7" width="7" height="100"/>
	<rect x="62.862" fill="#D8D8D8" width="7" height="100"/>
	<rect x="62.862" fill="#D9D9D9" width="7" height="100"/>
	<rect x="62.862" fill="#DADADA" width="7" height="100"/>
	<rect x="62.862" fill="#DBDBDB" width="7" height="100"/>
	<rect x="62.862" fill="#DCDCDC" width="7" height="100"/>
	<rect x="62.862" fill="#DDDDDD" width="7" height="100"/>
	<rect x="62.862" fill="#DEDEDE" width="7" height="100"/>
	<rect x="62.862" fill="#DFDFDF" width="6" height="100"/>
	<rect x="63.862" fill="#E0E0E0" width="5" height="100"/>
	<rect x="63.862" fill="#E1E1E1" width="5" height="100"/>
	<rect x="63.862" fill="#E2E2E2" width="5" height="100"/>
	<rect x="63.862" fill="#E3E3E3" width="5" height="100"/>
	<rect x="63.862" fill="#E4E4E4" width="5" height="100"/>
</g>
<g>
	<defs>
		<polygon id="SVGID_1_" points="61.97,26.247 64.179,18.003 34.234,9.979 26.224,39.878 0,66.102 24.749,90.85 43.994,71.604 
			49.426,73.061 51.947,63.651 		"/>
	</defs>
	<clipPath id="SVGID_2_">
		<use xlink:href="#SVGID_1_"  overflow="visible"/>
	</clipPath>
	<g clip-path="url(#SVGID_2_)">
		
			<rect x="1.831" y="35.52" transform="matrix(-0.7071 0.7071 -0.7071 -0.7071 102.0715 63.7599)" fill="#4D4D4D" width="72" height="35"/>
		
			<rect x="1.831" y="35.52" transform="matrix(-0.7071 0.7071 -0.7071 -0.7071 102.0715 63.7599)" fill="#4D4D4D" width="72" height="35"/>
		
			<rect x="1.831" y="35.52" transform="matrix(-0.7071 0.7071 -0.7071 -0.7071 102.0715 63.7599)" fill="#4D4D4D" width="72" height="35"/>
		
			<rect x="1.831" y="35.619" transform="matrix(-0.7071 0.7071 -0.7071 -0.7071 102.0715 63.7599)" fill="#4E4E4E" width="72" height="34.801"/>
		
			<rect x="1.831" y="35.719" transform="matrix(-0.7071 0.7071 -0.7071 -0.7071 102.0715 63.7599)" fill="#4F4F4F" width="72" height="34.602"/>
		
			<rect x="1.831" y="35.818" transform="matrix(-0.7071 0.7071 -0.7071 -0.7071 102.0715 63.7599)" fill="#505050" width="72" height="34.403"/>
		
			<rect x="1.831" y="35.917" transform="matrix(-0.7071 0.7071 -0.7071 -0.7071 102.0715 63.7599)" fill="#515151" width="72" height="34.206"/>
		
			<rect x="1.831" y="36.016" transform="matrix(-0.7071 0.7071 -0.7071 -0.7071 102.0715 63.7599)" fill="#525252" width="72" height="34.007"/>
		
			<rect x="1.831" y="36.116" transform="matrix(-0.7071 0.7071 -0.7071 -0.7071 102.0715 63.7599)" fill="#535353" width="72" height="33.808"/>
		
			<rect x="1.831" y="36.215" transform="matrix(-0.7071 0.7071 -0.7071 -0.7071 102.0715 63.7599)" fill="#545454" width="72" height="33.609"/>
		
			<rect x="1.831" y="36.315" transform="matrix(-0.7071 0.7071 -0.7071 -0.7071 102.0715 63.7599)" fill="#555555" width="72" height="33.41"/>
		
			<rect x="1.831" y="36.414" transform="matrix(-0.7071 0.7071 -0.7071 -0.7071 102.0715 63.7599)" fill="#565656" width="72" height="33.211"/>
		
			<rect x="1.831" y="36.514" transform="matrix(-0.7071 0.7071 -0.7071 -0.7071 102.0715 63.7599)" fill="#575757" width="72" height="33.012"/>
		
			<rect x="1.831" y="36.612" transform="matrix(-0.7071 0.7071 -0.7071 -0.7071 102.0715 63.7599)" fill="#585858" width="72" height="32.815"/>
		
			<rect x="1.831" y="36.712" transform="matrix(-0.7071 0.7071 -0.7071 -0.7071 102.0715 63.7599)" fill="#595959" width="72" height="32.616"/>
		
			<rect x="1.831" y="36.811" transform="matrix(-0.7071 0.7071 -0.7071 -0.7071 102.0715 63.7599)" fill="#5A5A5A" width="72" height="32.417"/>
		
			<rect x="1.831" y="36.911" transform="matrix(-0.7071 0.7071 -0.7071 -0.7071 102.0715 63.7599)" fill="#5B5B5B" width="72" height="32.218"/>
		
			<rect x="1.831" y="37.01" transform="matrix(-0.7071 0.7071 -0.7071 -0.7071 102.0715 63.7599)" fill="#5C5C5C" width="72" height="32.019"/>
		
			<rect x="1.831" y="37.11" transform="matrix(-0.7071 0.7071 -0.7071 -0.7071 102.0715 63.7599)" fill="#5D5D5D" width="72" height="31.82"/>
		
			<rect x="1.831" y="37.209" transform="matrix(-0.7071 0.7071 -0.7071 -0.7071 102.0715 63.7599)" fill="#5E5E5E" width="72" height="31.622"/>
		
			<rect x="1.831" y="37.308" transform="matrix(-0.7071 0.7071 -0.7071 -0.7071 102.0715 63.7599)" fill="#5F5F5F" width="72" height="31.424"/>
		
			<rect x="1.831" y="37.407" transform="matrix(-0.7071 0.7071 -0.7071 -0.7071 102.0715 63.7599)" fill="#606060" width="72" height="31.225"/>
		
			<rect x="1.831" y="37.507" transform="matrix(-0.7071 0.7071 -0.7071 -0.7071 102.0715 63.7599)" fill="#616161" width="72" height="31.026"/>
		
			<rect x="1.831" y="37.606" transform="matrix(-0.7071 0.7071 -0.7071 -0.7071 102.0715 63.7599)" fill="#626262" width="72" height="30.828"/>
		
			<rect x="1.831" y="37.705" transform="matrix(-0.7071 0.7071 -0.7071 -0.7071 102.0715 63.7599)" fill="#636363" width="72" height="30.629"/>
		
			<rect x="1.831" y="37.805" transform="matrix(-0.7071 0.7071 -0.7071 -0.7071 102.0715 63.7599)" fill="#646464" width="72" height="30.43"/>
		
			<rect x="1.831" y="37.904" transform="matrix(-0.7071 0.7071 -0.7071 -0.7071 102.0715 63.7599)" fill="#656565" width="72" height="30.231"/>
		
			<rect x="1.831" y="38.003" transform="matrix(-0.7071 0.7071 -0.7071 -0.7071 102.0715 63.7599)" fill="#666666" width="72" height="30.033"/>
		
			<rect x="1.831" y="38.103" transform="matrix(-0.7071 0.7071 -0.7071 -0.7071 102.0715 63.7599)" fill="#676767" width="72" height="29.835"/>
		
			<rect x="1.831" y="38.202" transform="matrix(-0.7071 0.7071 -0.7071 -0.7071 102.0715 63.7599)" fill="#686868" width="72" height="29.636"/>
		
			<rect x="1.831" y="38.301" transform="matrix(-0.7071 0.7071 -0.7071 -0.7071 102.0715 63.7599)" fill="#696969" width="72" height="29.437"/>
		
			<rect x="1.831" y="38.401" transform="matrix(-0.7071 0.7071 -0.7071 -0.7071 102.0715 63.7599)" fill="#6A6A6A" width="72" height="29.238"/>
		
			<rect x="1.831" y="38.5" transform="matrix(-0.7071 0.7071 -0.7071 -0.7071 102.0715 63.7599)" fill="#6B6B6B" width="72" height="29.039"/>
		
			<rect x="1.831" y="38.6" transform="matrix(-0.7071 0.7071 -0.7071 -0.7071 102.0715 63.7599)" fill="#6C6C6C" width="72" height="28.84"/>
		
			<rect x="1.831" y="38.698" transform="matrix(-0.7071 0.7071 -0.7071 -0.7071 102.0715 63.7599)" fill="#6D6D6D" width="72" height="28.643"/>
		
			<rect x="1.831" y="38.798" transform="matrix(-0.7071 0.7071 -0.7071 -0.7071 102.0715 63.7599)" fill="#6E6E6E" width="72" height="28.444"/>
		
			<rect x="1.831" y="38.897" transform="matrix(-0.7071 0.7071 -0.7071 -0.7071 102.0715 63.7599)" fill="#6F6F6F" width="72" height="28.245"/>
		
			<rect x="1.831" y="38.997" transform="matrix(-0.7071 0.7071 -0.7071 -0.7071 102.0715 63.7599)" fill="#707070" width="72" height="28.046"/>
		
			<rect x="1.831" y="39.096" transform="matrix(-0.7071 0.7071 -0.7071 -0.7071 102.0715 63.7599)" fill="#717171" width="72" height="27.847"/>
		
			<rect x="1.831" y="39.196" transform="matrix(-0.7071 0.7071 -0.7071 -0.7071 102.0715 63.7599)" fill="#727272" width="72" height="27.648"/>
		
			<rect x="1.831" y="39.294" transform="matrix(-0.7071 0.7071 -0.7071 -0.7071 102.0715 63.7599)" fill="#737373" width="72" height="27.451"/>
		
			<rect x="1.831" y="39.394" transform="matrix(-0.7071 0.7071 -0.7071 -0.7071 102.0715 63.7599)" fill="#747474" width="72" height="27.252"/>
		
			<rect x="1.831" y="39.493" transform="matrix(-0.7071 0.7071 -0.7071 -0.7071 102.0715 63.7599)" fill="#757575" width="72" height="27.053"/>
		
			<rect x="1.831" y="39.593" transform="matrix(-0.7071 0.7071 -0.7071 -0.7071 102.0715 63.7599)" fill="#767676" width="72" height="26.854"/>
		
			<rect x="1.831" y="39.692" transform="matrix(-0.7071 0.7071 -0.7071 -0.7071 102.0715 63.7599)" fill="#777777" width="72" height="26.655"/>
		
			<rect x="1.831" y="39.792" transform="matrix(-0.7071 0.7071 -0.7071 -0.7071 102.0715 63.7599)" fill="#787878" width="72" height="26.456"/>
		
			<rect x="1.831" y="39.891" transform="matrix(-0.7071 0.7071 -0.7071 -0.7071 102.0715 63.7599)" fill="#797979" width="72" height="26.258"/>
		
			<rect x="1.831" y="39.99" transform="matrix(-0.7071 0.7071 -0.7071 -0.7071 102.0715 63.7599)" fill="#7A7A7A" width="72" height="26.06"/>
		
			<rect x="1.831" y="40.089" transform="matrix(-0.7071 0.7071 -0.7071 -0.7071 102.0715 63.7599)" fill="#7B7B7B" width="72" height="25.861"/>
		
			<rect x="1.831" y="40.189" transform="matrix(-0.7071 0.7071 -0.7071 -0.7071 102.0715 63.7599)" fill="#7C7C7C" width="72" height="25.662"/>
		
			<rect x="1.831" y="40.288" transform="matrix(-0.7071 0.7071 -0.7071 -0.7071 102.0715 63.7599)" fill="#7D7D7D" width="72" height="25.463"/>
		
			<rect x="1.831" y="40.387" transform="matrix(-0.7071 0.7071 -0.7071 -0.7071 102.0715 63.7599)" fill="#7E7E7E" width="72" height="25.265"/>
		
			<rect x="1.831" y="40.487" transform="matrix(-0.7071 0.7071 -0.7071 -0.7071 102.0715 63.7599)" fill="#7F7F7F" width="72" height="25.066"/>
		
			<rect x="1.831" y="40.586" transform="matrix(-0.7071 0.7071 -0.7071 -0.7071 102.0715 63.7599)" fill="#808080" width="72" height="24.867"/>
		
			<rect x="1.831" y="40.685" transform="matrix(-0.7071 0.7071 -0.7071 -0.7071 102.0715 63.7599)" fill="#818181" width="72" height="24.669"/>
		
			<rect x="1.831" y="40.785" transform="matrix(-0.7071 0.7071 -0.7071 -0.7071 102.0715 63.7599)" fill="#828282" width="72" height="24.47"/>
		
			<rect x="1.831" y="40.884" transform="matrix(-0.7071 0.7071 -0.7071 -0.7071 102.0715 63.7599)" fill="#838383" width="72" height="24.272"/>
		
			<rect x="1.831" y="40.983" transform="matrix(-0.7071 0.7071 -0.7071 -0.7071 102.0715 63.7599)" fill="#848484" width="72" height="24.073"/>
		
			<rect x="1.831" y="41.083" transform="matrix(-0.7071 0.7071 -0.7071 -0.7071 102.0715 63.7599)" fill="#858585" width="72" height="23.874"/>
		
			<rect x="1.831" y="41.182" transform="matrix(-0.7071 0.7071 -0.7071 -0.7071 102.0715 63.7599)" fill="#868686" width="72" height="23.675"/>
		
			<rect x="1.831" y="41.282" transform="matrix(-0.7071 0.7071 -0.7071 -0.7071 102.0715 63.7599)" fill="#878787" width="72" height="23.476"/>
		
			<rect x="1.831" y="41.38" transform="matrix(-0.7071 0.7071 -0.7071 -0.7071 102.0715 63.7599)" fill="#888888" width="72" height="23.279"/>
		
			<rect x="1.831" y="41.48" transform="matrix(-0.7071 0.7071 -0.7071 -0.7071 102.0715 63.7599)" fill="#898989" width="72" height="23.08"/>
		
			<rect x="1.831" y="41.579" transform="matrix(-0.7071 0.7071 -0.7071 -0.7071 102.0715 63.7599)" fill="#8A8A8A" width="72" height="22.881"/>
		
			<rect x="1.831" y="41.679" transform="matrix(-0.7071 0.7071 -0.7071 -0.7071 102.0715 63.7599)" fill="#8B8B8B" width="72" height="22.682"/>
		
			<rect x="1.831" y="41.778" transform="matrix(-0.7071 0.7071 -0.7071 -0.7071 102.0715 63.7599)" fill="#8C8C8C" width="72" height="22.483"/>
		
			<rect x="1.831" y="41.878" transform="matrix(-0.7071 0.7071 -0.7071 -0.7071 102.0715 63.7599)" fill="#8D8D8D" width="72" height="22.284"/>
		
			<rect x="1.831" y="41.977" transform="matrix(-0.7071 0.7071 -0.7071 -0.7071 102.0715 63.7599)" fill="#8E8E8E" width="72" height="22.085"/>
		
			<rect x="1.831" y="42.076" transform="matrix(-0.7071 0.7071 -0.7071 -0.7071 102.0715 63.7599)" fill="#8F8F8F" width="72" height="21.888"/>
		
			<rect x="1.831" y="42.175" transform="matrix(-0.7071 0.7071 -0.7071 -0.7071 102.0715 63.7599)" fill="#909090" width="72" height="21.689"/>
		
			<rect x="1.831" y="42.275" transform="matrix(-0.7071 0.7071 -0.7071 -0.7071 102.0715 63.7599)" fill="#919191" width="72" height="21.49"/>
		
			<rect x="1.831" y="42.374" transform="matrix(-0.7071 0.7071 -0.7071 -0.7071 102.0715 63.7599)" fill="#929292" width="72" height="21.291"/>
		
			<rect x="1.831" y="42.474" transform="matrix(-0.7071 0.7071 -0.7071 -0.7071 102.0715 63.7599)" fill="#939393" width="72" height="21.092"/>
		
			<rect x="1.831" y="42.573" transform="matrix(-0.7071 0.7071 -0.7071 -0.7071 102.0715 63.7599)" fill="#949494" width="72" height="20.893"/>
		
			<rect x="1.831" y="42.672" transform="matrix(-0.7071 0.7071 -0.7071 -0.7071 102.0715 63.7599)" fill="#959595" width="72" height="20.695"/>
		
			<rect x="1.831" y="42.771" transform="matrix(-0.7071 0.7071 -0.7071 -0.7071 102.0715 63.7599)" fill="#969696" width="72" height="20.497"/>
		
			<rect x="1.831" y="42.871" transform="matrix(-0.7071 0.7071 -0.7071 -0.7071 102.0715 63.7599)" fill="#979797" width="72" height="20.298"/>
		
			<rect x="1.831" y="42.97" transform="matrix(-0.7071 0.7071 -0.7071 -0.7071 102.0715 63.7599)" fill="#989898" width="72" height="20.099"/>
		
			<rect x="1.831" y="43.07" transform="matrix(-0.7071 0.7071 -0.7071 -0.7071 102.0715 63.7599)" fill="#999999" width="72" height="19.9"/>
		
			<rect x="1.831" y="43.169" transform="matrix(-0.7071 0.7071 -0.7071 -0.7071 102.0715 63.7599)" fill="#9A9A9A" width="72" height="19.702"/>
		
			<rect x="1.831" y="43.268" transform="matrix(-0.7071 0.7071 -0.7071 -0.7071 102.0715 63.7599)" fill="#9B9B9B" width="72" height="19.503"/>
		
			<rect x="1.831" y="43.368" transform="matrix(-0.7071 0.7071 -0.7071 -0.7071 102.0715 63.7599)" fill="#9C9C9C" width="72" height="19.304"/>
		
			<rect x="1.831" y="43.467" transform="matrix(-0.7071 0.7071 -0.7071 -0.7071 102.0715 63.7599)" fill="#9D9D9D" width="72" height="19.106"/>
		
			<rect x="1.831" y="43.566" transform="matrix(-0.7071 0.7071 -0.7071 -0.7071 102.0715 63.7599)" fill="#9E9E9E" width="72" height="18.908"/>
		
			<rect x="1.831" y="43.665" transform="matrix(-0.7071 0.7071 -0.7071 -0.7071 102.0715 63.7599)" fill="#9F9F9F" width="72" height="18.709"/>
		
			<rect x="1.831" y="43.765" transform="matrix(-0.7071 0.7071 -0.7071 -0.7071 102.0715 63.7599)" fill="#A0A0A0" width="72" height="18.51"/>
		
			<rect x="1.831" y="43.864" transform="matrix(-0.7071 0.7071 -0.7071 -0.7071 102.0715 63.7599)" fill="#A1A1A1" width="72" height="18.311"/>
		
			<rect x="1.831" y="43.964" transform="matrix(-0.7071 0.7071 -0.7071 -0.7071 102.0715 63.7599)" fill="#A2A2A2" width="72" height="18.112"/>
		
			<rect x="1.831" y="44.063" transform="matrix(-0.7071 0.7071 -0.7071 -0.7071 102.0715 63.7599)" fill="#A3A3A3" width="72" height="17.913"/>
		
			<rect x="1.831" y="44.162" transform="matrix(-0.7071 0.7071 -0.7071 -0.7071 102.0715 63.7599)" fill="#A4A4A4" width="72" height="17.716"/>
		
			<rect x="1.831" y="44.261" transform="matrix(-0.7071 0.7071 -0.7071 -0.7071 102.0715 63.7599)" fill="#A5A5A5" width="72" height="17.517"/>
		
			<rect x="1.831" y="44.361" transform="matrix(-0.7071 0.7071 -0.7071 -0.7071 102.0715 63.7599)" fill="#A6A6A6" width="72" height="17.318"/>
		
			<rect x="1.831" y="44.46" transform="matrix(-0.7071 0.7071 -0.7071 -0.7071 102.0715 63.7599)" fill="#A7A7A7" width="72" height="17.119"/>
		
			<rect x="1.831" y="44.56" transform="matrix(-0.7071 0.7071 -0.7071 -0.7071 102.0715 63.7599)" fill="#A8A8A8" width="72" height="16.92"/>
		
			<rect x="1.831" y="44.659" transform="matrix(-0.7071 0.7071 -0.7071 -0.7071 102.0715 63.7599)" fill="#A9A9A9" width="72" height="16.721"/>
		
			<rect x="1.831" y="44.758" transform="matrix(-0.7071 0.7071 -0.7071 -0.7071 102.0715 63.7599)" fill="#AAAAAA" width="72" height="16.524"/>
		
			<rect x="1.831" y="44.857" transform="matrix(-0.7071 0.7071 -0.7071 -0.7071 102.0715 63.7599)" fill="#ABABAB" width="72" height="16.325"/>
		
			<rect x="1.831" y="44.957" transform="matrix(-0.7071 0.7071 -0.7071 -0.7071 102.0715 63.7599)" fill="#ACACAC" width="72" height="16.126"/>
		
			<rect x="1.831" y="45.056" transform="matrix(-0.7071 0.7071 -0.7071 -0.7071 102.0715 63.7599)" fill="#ADADAD" width="72" height="15.927"/>
		
			<rect x="1.831" y="45.156" transform="matrix(-0.7071 0.7071 -0.7071 -0.7071 102.0715 63.7599)" fill="#AEAEAE" width="72" height="15.728"/>
		
			<rect x="1.831" y="45.255" transform="matrix(-0.7071 0.7071 -0.7071 -0.7071 102.0715 63.7599)" fill="#AFAFAF" width="72" height="15.529"/>
		
			<rect x="1.831" y="45.355" transform="matrix(-0.7071 0.7071 -0.7071 -0.7071 102.0715 63.7599)" fill="#B0B0B0" width="72" height="15.331"/>
		
			<rect x="1.831" y="45.453" transform="matrix(-0.7071 0.7071 -0.7071 -0.7071 102.0715 63.7599)" fill="#B1B1B1" width="72" height="15.133"/>
		
			<rect x="1.831" y="45.553" transform="matrix(-0.7071 0.7071 -0.7071 -0.7071 102.0715 63.7599)" fill="#B2B2B2" width="72" height="14.934"/>
		
			<rect x="1.831" y="45.652" transform="matrix(-0.7071 0.7071 -0.7071 -0.7071 102.0715 63.7599)" fill="#B3B3B3" width="72" height="14.735"/>
		
			<rect x="1.831" y="45.752" transform="matrix(-0.7071 0.7071 -0.7071 -0.7071 102.0715 63.7599)" fill="#B4B4B4" width="72" height="14.536"/>
		
			<rect x="1.831" y="45.851" transform="matrix(-0.7071 0.7071 -0.7071 -0.7071 102.0715 63.7599)" fill="#B5B5B5" width="72" height="14.338"/>
		
			<rect x="1.831" y="45.95" transform="matrix(-0.7071 0.7071 -0.7071 -0.7071 102.0715 63.7599)" fill="#B6B6B6" width="72" height="14.139"/>
		
			<rect x="1.831" y="46.05" transform="matrix(-0.7071 0.7071 -0.7071 -0.7071 102.0715 63.7599)" fill="#B7B7B7" width="72" height="13.94"/>
		
			<rect x="1.831" y="46.149" transform="matrix(-0.7071 0.7071 -0.7071 -0.7071 102.0715 63.7599)" fill="#B8B8B8" width="72" height="13.742"/>
		
			<rect x="1.831" y="46.248" transform="matrix(-0.7071 0.7071 -0.7071 -0.7071 102.0715 63.7599)" fill="#B9B9B9" width="72" height="13.543"/>
		
			<rect x="1.831" y="46.347" transform="matrix(-0.7071 0.7071 -0.7071 -0.7071 102.0715 63.7599)" fill="#BABABA" width="72" height="13.345"/>
		
			<rect x="1.831" y="46.447" transform="matrix(-0.7071 0.7071 -0.7071 -0.7071 102.0715 63.7599)" fill="#BBBBBB" width="72" height="13.146"/>
		
			<rect x="1.831" y="46.546" transform="matrix(-0.7071 0.7071 -0.7071 -0.7071 102.0715 63.7599)" fill="#BCBCBC" width="72" height="12.947"/>
		
			<rect x="1.831" y="46.646" transform="matrix(-0.7071 0.7071 -0.7071 -0.7071 102.0715 63.7599)" fill="#BDBDBD" width="72" height="12.748"/>
		
			<rect x="1.831" y="46.745" transform="matrix(-0.7071 0.7071 -0.7071 -0.7071 102.0715 63.7599)" fill="#BEBEBE" width="72" height="12.549"/>
		
			<rect x="1.831" y="46.844" transform="matrix(-0.7071 0.7071 -0.7071 -0.7071 102.0715 63.7599)" fill="#BFBFBF" width="72" height="12.352"/>
		
			<rect x="1.831" y="46.943" transform="matrix(-0.7071 0.7071 -0.7071 -0.7071 102.0715 63.7599)" fill="#C0C0C0" width="72" height="12.153"/>
		
			<rect x="1.831" y="47.043" transform="matrix(-0.7071 0.7071 -0.7071 -0.7071 102.0715 63.7599)" fill="#C1C1C1" width="72" height="11.954"/>
		
			<rect x="1.831" y="47.142" transform="matrix(-0.7071 0.7071 -0.7071 -0.7071 102.0715 63.7599)" fill="#C2C2C2" width="72" height="11.755"/>
		
			<rect x="1.831" y="47.242" transform="matrix(-0.7071 0.7071 -0.7071 -0.7071 102.0715 63.7599)" fill="#C3C3C3" width="72" height="11.556"/>
		
			<rect x="1.831" y="47.341" transform="matrix(-0.7071 0.7071 -0.7071 -0.7071 102.0715 63.7599)" fill="#C4C4C4" width="72" height="11.357"/>
		
			<rect x="1.831" y="47.441" transform="matrix(-0.7071 0.7071 -0.7071 -0.7071 102.0715 63.7599)" fill="#C5C5C5" width="72" height="11.158"/>
		
			<rect x="1.831" y="47.539" transform="matrix(-0.7071 0.7071 -0.7071 -0.7071 102.0715 63.7599)" fill="#C6C6C6" width="72" height="10.961"/>
		
			<rect x="1.831" y="47.639" transform="matrix(-0.7071 0.7071 -0.7071 -0.7071 102.0715 63.7599)" fill="#C7C7C7" width="72" height="10.762"/>
		
			<rect x="1.831" y="47.738" transform="matrix(-0.7071 0.7071 -0.7071 -0.7071 102.0715 63.7599)" fill="#C8C8C8" width="72" height="10.563"/>
		
			<rect x="1.831" y="47.838" transform="matrix(-0.7071 0.7071 -0.7071 -0.7071 102.0715 63.7599)" fill="#C9C9C9" width="72" height="10.364"/>
		
			<rect x="1.831" y="47.937" transform="matrix(-0.7071 0.7071 -0.7071 -0.7071 102.0715 63.7599)" fill="#CACACA" width="72" height="10.165"/>
		
			<rect x="1.831" y="48.037" transform="matrix(-0.7071 0.7071 -0.7071 -0.7071 102.0715 63.7599)" fill="#CBCBCB" width="72" height="9.966"/>
		
			<rect x="1.831" y="48.136" transform="matrix(-0.7071 0.7071 -0.7071 -0.7071 102.0715 63.7599)" fill="#CCCCCC" width="72" height="9.768"/>
		
			<rect x="1.831" y="48.235" transform="matrix(-0.7071 0.7071 -0.7071 -0.7071 102.0715 63.7599)" fill="#CDCDCD" width="72" height="9.57"/>
		
			<rect x="1.831" y="48.334" transform="matrix(-0.7071 0.7071 -0.7071 -0.7071 102.0715 63.7599)" fill="#CECECE" width="72" height="9.371"/>
		
			<rect x="1.831" y="48.434" transform="matrix(-0.7071 0.7071 -0.7071 -0.7071 102.0715 63.7599)" fill="#CFCFCF" width="72" height="9.172"/>
		
			<rect x="1.831" y="48.533" transform="matrix(-0.7071 0.7071 -0.7071 -0.7071 102.0715 63.7599)" fill="#D0D0D0" width="72" height="8.973"/>
		
			<rect x="1.831" y="48.632" transform="matrix(-0.7071 0.7071 -0.7071 -0.7071 102.0715 63.7599)" fill="#D1D1D1" width="72" height="8.775"/>
		
			<rect x="1.831" y="48.732" transform="matrix(-0.7071 0.7071 -0.7071 -0.7071 102.0715 63.7599)" fill="#D2D2D2" width="72" height="8.576"/>
		
			<rect x="1.831" y="48.831" transform="matrix(-0.7071 0.7071 -0.7071 -0.7071 102.0715 63.7599)" fill="#D3D3D3" width="72" height="8.378"/>
		
			<rect x="1.831" y="48.93" transform="matrix(-0.7071 0.7071 -0.7071 -0.7071 102.0715 63.7599)" fill="#D4D4D4" width="72" height="8.179"/>
		
			<rect x="1.831" y="49.03" transform="matrix(-0.7071 0.7071 -0.7071 -0.7071 102.0715 63.7599)" fill="#D5D5D5" width="72" height="7.981"/>
		
			<rect x="1.831" y="49.129" transform="matrix(-0.7071 0.7071 -0.7071 -0.7071 102.0715 63.7599)" fill="#D6D6D6" width="72" height="7.782"/>
		
			<rect x="1.831" y="49.228" transform="matrix(-0.7071 0.7071 -0.7071 -0.7071 102.0715 63.7599)" fill="#D7D7D7" width="72" height="7.583"/>
		
			<rect x="1.831" y="49.328" transform="matrix(-0.7071 0.7071 -0.7071 -0.7071 102.0715 63.7599)" fill="#D8D8D8" width="72" height="7.384"/>
		
			<rect x="1.831" y="49.427" transform="matrix(-0.7071 0.7071 -0.7071 -0.7071 102.0715 63.7599)" fill="#D9D9D9" width="72" height="7.185"/>
		
			<rect x="1.831" y="49.526" transform="matrix(-0.7071 0.7071 -0.7071 -0.7071 102.0715 63.7599)" fill="#DADADA" width="72" height="6.988"/>
		
			<rect x="1.831" y="49.625" transform="matrix(-0.7071 0.7071 -0.7071 -0.7071 102.0715 63.7599)" fill="#DBDBDB" width="72" height="6.789"/>
		
			<rect x="1.831" y="49.725" transform="matrix(-0.7071 0.7071 -0.7071 -0.7071 102.0715 63.7599)" fill="#DCDCDC" width="72" height="6.59"/>
		
			<rect x="1.831" y="49.824" transform="matrix(-0.7071 0.7071 -0.7071 -0.7071 102.0715 63.7599)" fill="#DDDDDD" width="72" height="6.391"/>
		
			<rect x="1.831" y="49.924" transform="matrix(-0.7071 0.7071 -0.7071 -0.7071 102.0715 63.7599)" fill="#DEDEDE" width="72" height="6.192"/>
		
			<rect x="1.831" y="50.023" transform="matrix(-0.7071 0.7071 -0.7071 -0.7071 102.0715 63.7599)" fill="#DFDFDF" width="72" height="5.993"/>
		
			<rect x="1.831" y="50.123" transform="matrix(-0.7071 0.7071 -0.7071 -0.7071 102.0715 63.7599)" fill="#E0E0E0" width="72" height="5.794"/>
		
			<rect x="1.831" y="50.221" transform="matrix(-0.7071 0.7071 -0.7071 -0.7071 102.0715 63.7599)" fill="#E1E1E1" width="72" height="5.597"/>
		
			<rect x="1.831" y="50.321" transform="matrix(-0.7071 0.7071 -0.7071 -0.7071 102.0715 63.7599)" fill="#E2E2E2" width="72" height="5.398"/>
		
			<rect x="1.831" y="50.42" transform="matrix(-0.7071 0.7071 -0.7071 -0.7071 102.0715 63.7599)" fill="#E3E3E3" width="72" height="5.199"/>
		
			<rect x="1.831" y="50.52" transform="matrix(-0.7071 0.7071 -0.7071 -0.7071 102.0715 63.7599)" fill="#E4E4E4" width="72" height="5"/>
	</g>
</g>
</svg>
