<?xml version="1.0" encoding="utf-8"?>
<!-- Generator: Adobe Illustrator 15.0.0, SVG Export Plug-In  -->
<!DOCTYPE svg PUBLIC "-//W3C//DTD SVG 1.1//EN" "http://www.w3.org/Graphics/SVG/1.1/DTD/svg11.dtd" [
	<!ENTITY ns_flows "http://ns.adobe.com/Flows/1.0/">
]>
<svg version="1.1"
	 xmlns="http://www.w3.org/2000/svg" xmlns:xlink="http://www.w3.org/1999/xlink" xmlns:a="http://ns.adobe.com/AdobeSVGViewerExtensions/3.0/"
	 x="0px" y="0px" width="96px" height="96px" viewBox="-1.271 -0.27 96 96" enable-background="new -1.271 -0.27 96 96"
	 xml:space="preserve">
<defs>
</defs>
<g>
	
		<rect x="-2.27" y="30.23" transform="matrix(-0.7071 -0.7071 0.7071 -0.7071 47.7299 115.2299)" fill="#4D4D4D" width="100" height="35"/>
	
		<rect x="-2.27" y="30.329" transform="matrix(-0.7071 -0.7071 0.7071 -0.7071 47.7299 115.2299)" fill="#4E4E4E" width="100" height="34.801"/>
	
		<rect x="-2.27" y="30.429" transform="matrix(-0.7071 -0.7071 0.7071 -0.7071 47.7299 115.2299)" fill="#4F4F4F" width="100" height="34.602"/>
	
		<rect x="-2.27" y="30.528" transform="matrix(-0.7071 -0.7071 0.7071 -0.7071 47.7299 115.2299)" fill="#505050" width="100" height="34.403"/>
	
		<rect x="-2.27" y="30.627" transform="matrix(-0.7071 -0.7071 0.7071 -0.7071 47.7299 115.2299)" fill="#515151" width="100" height="34.206"/>
	
		<rect x="-2.27" y="30.726" transform="matrix(-0.7071 -0.7071 0.7071 -0.7071 47.7299 115.2299)" fill="#525252" width="100" height="34.007"/>
	
		<rect x="-2.27" y="30.826" transform="matrix(-0.7071 -0.7071 0.7071 -0.7071 47.7299 115.2299)" fill="#535353" width="100" height="33.808"/>
	
		<rect x="-2.27" y="30.925" transform="matrix(-0.7071 -0.7071 0.7071 -0.7071 47.7299 115.2299)" fill="#545454" width="100" height="33.609"/>
	
		<rect x="-2.27" y="31.025" transform="matrix(-0.7071 -0.7071 0.7071 -0.7071 47.7299 115.2299)" fill="#555555" width="100" height="33.41"/>
	
		<rect x="-2.27" y="31.124" transform="matrix(-0.7071 -0.7071 0.7071 -0.7071 47.7299 115.2299)" fill="#565656" width="100" height="33.211"/>
	
		<rect x="-2.27" y="31.224" transform="matrix(-0.7071 -0.7071 0.7071 -0.7071 47.7299 115.2299)" fill="#575757" width="100" height="33.012"/>
	
		<rect x="-2.27" y="31.323" transform="matrix(-0.7071 -0.7071 0.7071 -0.7071 47.7296 115.2302)" fill="#585858" width="100" height="32.815"/>
	
		<rect x="-2.27" y="31.422" transform="matrix(-0.7071 -0.7071 0.7071 -0.7071 47.7299 115.2299)" fill="#595959" width="100" height="32.616"/>
	
		<rect x="-2.27" y="31.521" transform="matrix(-0.7071 -0.7071 0.7071 -0.7071 47.7299 115.2299)" fill="#5A5A5A" width="100" height="32.417"/>
	
		<rect x="-2.27" y="31.621" transform="matrix(-0.7071 -0.7071 0.7071 -0.7071 47.7299 115.2299)" fill="#5B5B5B" width="100" height="32.218"/>
	
		<rect x="-2.27" y="31.72" transform="matrix(-0.7071 -0.7071 0.7071 -0.7071 47.7299 115.2299)" fill="#5C5C5C" width="100" height="32.019"/>
	
		<rect x="-2.27" y="31.819" transform="matrix(-0.7071 -0.7071 0.7071 -0.7071 47.7299 115.2299)" fill="#5D5D5D" width="100" height="31.82"/>
	
		<rect x="-2.27" y="31.919" transform="matrix(-0.7071 -0.7071 0.7071 -0.7071 47.7299 115.2299)" fill="#5E5E5E" width="100" height="31.622"/>
	
		<rect x="-2.27" y="32.018" transform="matrix(-0.7071 -0.7071 0.7071 -0.7071 47.7296 115.2302)" fill="#5F5F5F" width="100" height="31.424"/>
	
		<rect x="-2.27" y="32.117" transform="matrix(-0.7071 -0.7071 0.7071 -0.7071 47.7299 115.2299)" fill="#606060" width="100" height="31.225"/>
	
		<rect x="-2.27" y="32.217" transform="matrix(-0.7071 -0.7071 0.7071 -0.7071 47.7299 115.2299)" fill="#616161" width="100" height="31.026"/>
	
		<rect x="-2.27" y="32.316" transform="matrix(-0.7071 -0.7071 0.7071 -0.7071 47.7299 115.2299)" fill="#626262" width="100" height="30.828"/>
	
		<rect x="-2.27" y="32.415" transform="matrix(-0.7071 -0.7071 0.7071 -0.7071 47.7299 115.2299)" fill="#636363" width="100" height="30.629"/>
	
		<rect x="-2.27" y="32.515" transform="matrix(-0.7071 -0.7071 0.7071 -0.7071 47.7299 115.2299)" fill="#646464" width="100" height="30.43"/>
	
		<rect x="-2.27" y="32.614" transform="matrix(-0.7071 -0.7071 0.7071 -0.7071 47.7299 115.2299)" fill="#656565" width="100" height="30.231"/>
	
		<rect x="-2.27" y="32.713" transform="matrix(-0.7071 -0.7071 0.7071 -0.7071 47.7296 115.2302)" fill="#666666" width="100" height="30.033"/>
	
		<rect x="-2.27" y="32.812" transform="matrix(-0.7071 -0.7071 0.7071 -0.7071 47.7299 115.2299)" fill="#676767" width="100" height="29.835"/>
	
		<rect x="-2.27" y="32.912" transform="matrix(-0.7071 -0.7071 0.7071 -0.7071 47.7299 115.2299)" fill="#686868" width="100" height="29.636"/>
	
		<rect x="-2.27" y="33.011" transform="matrix(-0.7071 -0.7071 0.7071 -0.7071 47.7299 115.2299)" fill="#696969" width="100" height="29.437"/>
	
		<rect x="-2.27" y="33.111" transform="matrix(-0.7071 -0.7071 0.7071 -0.7071 47.7299 115.2299)" fill="#6A6A6A" width="100" height="29.238"/>
	
		<rect x="-2.27" y="33.21" transform="matrix(-0.7071 -0.7071 0.7071 -0.7071 47.7299 115.2299)" fill="#6B6B6B" width="100" height="29.039"/>
	
		<rect x="-2.27" y="33.31" transform="matrix(-0.7071 -0.7071 0.7071 -0.7071 47.7299 115.2299)" fill="#6C6C6C" width="100" height="28.84"/>
	
		<rect x="-2.27" y="33.409" transform="matrix(-0.7071 -0.7071 0.7071 -0.7071 47.7296 115.2302)" fill="#6D6D6D" width="100" height="28.642"/>
	
		<rect x="-2.27" y="33.508" transform="matrix(-0.7071 -0.7071 0.7071 -0.7071 47.7299 115.2299)" fill="#6E6E6E" width="100" height="28.444"/>
	
		<rect x="-2.27" y="33.607" transform="matrix(-0.7071 -0.7071 0.7071 -0.7071 47.7299 115.2299)" fill="#6F6F6F" width="100" height="28.245"/>
	
		<rect x="-2.27" y="33.707" transform="matrix(-0.7071 -0.7071 0.7071 -0.7071 47.7299 115.2299)" fill="#707070" width="100" height="28.046"/>
	
		<rect x="-2.27" y="33.806" transform="matrix(-0.7071 -0.7071 0.7071 -0.7071 47.7299 115.2299)" fill="#717171" width="100" height="27.847"/>
	
		<rect x="-2.27" y="33.906" transform="matrix(-0.7071 -0.7071 0.7071 -0.7071 47.7299 115.2299)" fill="#727272" width="100" height="27.648"/>
	
		<rect x="-2.27" y="34.005" transform="matrix(-0.7071 -0.7071 0.7071 -0.7071 47.7296 115.2302)" fill="#737373" width="100" height="27.45"/>
	
		<rect x="-2.27" y="34.104" transform="matrix(-0.7071 -0.7071 0.7071 -0.7071 47.7296 115.2302)" fill="#747474" width="100" height="27.252"/>
	
		<rect x="-2.27" y="34.203" transform="matrix(-0.7071 -0.7071 0.7071 -0.7071 47.7299 115.2299)" fill="#757575" width="100" height="27.053"/>
	
		<rect x="-2.27" y="34.303" transform="matrix(-0.7071 -0.7071 0.7071 -0.7071 47.7299 115.2299)" fill="#767676" width="100" height="26.854"/>
	
		<rect x="-2.27" y="34.402" transform="matrix(-0.7071 -0.7071 0.7071 -0.7071 47.7299 115.2299)" fill="#777777" width="100" height="26.655"/>
	
		<rect x="-2.27" y="34.502" transform="matrix(-0.7071 -0.7071 0.7071 -0.7071 47.7299 115.2299)" fill="#787878" width="100" height="26.456"/>
	
		<rect x="-2.27" y="34.601" transform="matrix(-0.7071 -0.7071 0.7071 -0.7071 47.7299 115.2299)" fill="#797979" width="100" height="26.258"/>
	
		<rect x="-2.27" y="34.7" transform="matrix(-0.7071 -0.7071 0.7071 -0.7071 47.7296 115.2302)" fill="#7A7A7A" width="100" height="26.06"/>
	
		<rect x="-2.27" y="34.8" transform="matrix(-0.7071 -0.7071 0.7071 -0.7071 47.7296 115.2302)" fill="#7B7B7B" width="100" height="25.861"/>
	
		<rect x="-2.27" y="34.899" transform="matrix(-0.7071 -0.7071 0.7071 -0.7071 47.7299 115.2299)" fill="#7C7C7C" width="100" height="25.662"/>
	
		<rect x="-2.27" y="34.998" transform="matrix(-0.7071 -0.7071 0.7071 -0.7071 47.7299 115.2299)" fill="#7D7D7D" width="100" height="25.463"/>
	
		<rect x="-2.27" y="35.097" transform="matrix(-0.7071 -0.7071 0.7071 -0.7071 47.7299 115.2299)" fill="#7E7E7E" width="100" height="25.265"/>
	
		<rect x="-2.27" y="35.197" transform="matrix(-0.7071 -0.7071 0.7071 -0.7071 47.7299 115.2299)" fill="#7F7F7F" width="100" height="25.066"/>
	
		<rect x="-2.27" y="35.296" transform="matrix(-0.7071 -0.7071 0.7071 -0.7071 47.7299 115.2299)" fill="#808080" width="100" height="24.867"/>
	
		<rect x="-2.27" y="35.395" transform="matrix(-0.7071 -0.7071 0.7071 -0.7071 47.7296 115.2302)" fill="#818181" width="100" height="24.669"/>
	
		<rect x="-2.27" y="35.495" transform="matrix(-0.7071 -0.7071 0.7071 -0.7071 47.7296 115.2302)" fill="#828282" width="100" height="24.47"/>
	
		<rect x="-2.27" y="35.594" transform="matrix(-0.7071 -0.7071 0.7071 -0.7071 47.7296 115.2302)" fill="#838383" width="100" height="24.271"/>
	
		<rect x="-2.27" y="35.693" transform="matrix(-0.7071 -0.7071 0.7071 -0.7071 47.7299 115.2299)" fill="#848484" width="100" height="24.073"/>
	
		<rect x="-2.27" y="35.793" transform="matrix(-0.7071 -0.7071 0.7071 -0.7071 47.7299 115.2299)" fill="#858585" width="100" height="23.874"/>
	
		<rect x="-2.27" y="35.892" transform="matrix(-0.7071 -0.7071 0.7071 -0.7071 47.7299 115.2299)" fill="#868686" width="100" height="23.675"/>
	
		<rect x="-2.27" y="35.992" transform="matrix(-0.7071 -0.7071 0.7071 -0.7071 47.7299 115.2299)" fill="#878787" width="100" height="23.476"/>
	
		<rect x="-2.27" y="36.091" transform="matrix(-0.7071 -0.7071 0.7071 -0.7071 47.7296 115.2302)" fill="#888888" width="100" height="23.278"/>
	
		<rect x="-2.27" y="36.19" transform="matrix(-0.7071 -0.7071 0.7071 -0.7071 47.7296 115.2302)" fill="#898989" width="100" height="23.079"/>
	
		<rect x="-2.27" y="36.29" transform="matrix(-0.7071 -0.7071 0.7071 -0.7071 47.7296 115.2302)" fill="#8A8A8A" width="100" height="22.88"/>
	
		<rect x="-2.27" y="36.389" transform="matrix(-0.7071 -0.7071 0.7071 -0.7071 47.7299 115.2299)" fill="#8B8B8B" width="100" height="22.682"/>
	
		<rect x="-2.27" y="36.488" transform="matrix(-0.7071 -0.7071 0.7071 -0.7071 47.7299 115.2299)" fill="#8C8C8C" width="100" height="22.483"/>
	
		<rect x="-2.27" y="36.588" transform="matrix(-0.7071 -0.7071 0.7071 -0.7071 47.7299 115.2299)" fill="#8D8D8D" width="100" height="22.284"/>
	
		<rect x="-2.27" y="36.687" transform="matrix(-0.7071 -0.7071 0.7071 -0.7071 47.7299 115.2299)" fill="#8E8E8E" width="100" height="22.085"/>
	
		<rect x="-2.27" y="36.786" transform="matrix(-0.7071 -0.7071 0.7071 -0.7071 47.7296 115.2302)" fill="#8F8F8F" width="100" height="21.888"/>
	
		<rect x="-2.27" y="36.886" transform="matrix(-0.7071 -0.7071 0.7071 -0.7071 47.7296 115.2302)" fill="#909090" width="100" height="21.689"/>
	
		<rect x="-2.27" y="36.985" transform="matrix(-0.7071 -0.7071 0.7071 -0.7071 47.7296 115.2302)" fill="#919191" width="100" height="21.49"/>
	
		<rect x="-2.27" y="37.084" transform="matrix(-0.7071 -0.7071 0.7071 -0.7071 47.7299 115.2299)" fill="#929292" width="100" height="21.291"/>
	
		<rect x="-2.27" y="37.184" transform="matrix(-0.7071 -0.7071 0.7071 -0.7071 47.7299 115.2299)" fill="#939393" width="100" height="21.092"/>
	
		<rect x="-2.27" y="37.283" transform="matrix(-0.7071 -0.7071 0.7071 -0.7071 47.7299 115.2299)" fill="#949494" width="100" height="20.893"/>
	
		<rect x="-2.27" y="37.382" transform="matrix(-0.7071 -0.7071 0.7071 -0.7071 47.7299 115.2299)" fill="#959595" width="100" height="20.695"/>
	
		<rect x="-2.27" y="37.482" transform="matrix(-0.7071 -0.7071 0.7071 -0.7071 47.7296 115.2302)" fill="#969696" width="100" height="20.497"/>
	
		<rect x="-2.27" y="37.581" transform="matrix(-0.7071 -0.7071 0.7071 -0.7071 47.7296 115.2302)" fill="#979797" width="100" height="20.298"/>
	
		<rect x="-2.27" y="37.68" transform="matrix(-0.7071 -0.7071 0.7071 -0.7071 47.7296 115.2302)" fill="#989898" width="100" height="20.099"/>
	
		<rect x="-2.27" y="37.779" transform="matrix(-0.7071 -0.7071 0.7071 -0.7071 47.7299 115.2299)" fill="#999999" width="100" height="19.9"/>
	
		<rect x="-2.27" y="37.879" transform="matrix(-0.7071 -0.7071 0.7071 -0.7071 47.7299 115.2299)" fill="#9A9A9A" width="100" height="19.702"/>
	
		<rect x="-2.27" y="37.978" transform="matrix(-0.7071 -0.7071 0.7071 -0.7071 47.7299 115.2299)" fill="#9B9B9B" width="100" height="19.503"/>
	
		<rect x="-2.27" y="38.078" transform="matrix(-0.7071 -0.7071 0.7071 -0.7071 47.7299 115.2299)" fill="#9C9C9C" width="100" height="19.304"/>
	
		<rect x="-2.27" y="38.177" transform="matrix(-0.7071 -0.7071 0.7071 -0.7071 47.7296 115.2302)" fill="#9D9D9D" width="100" height="19.106"/>
	
		<rect x="-2.27" y="38.276" transform="matrix(-0.7071 -0.7071 0.7071 -0.7071 47.7296 115.2302)" fill="#9E9E9E" width="100" height="18.907"/>
	
		<rect x="-2.27" y="38.376" transform="matrix(-0.7071 -0.7071 0.7071 -0.7071 47.7296 115.2302)" fill="#9F9F9F" width="100" height="18.708"/>
	
		<rect x="-2.27" y="38.475" transform="matrix(-0.7071 -0.7071 0.7071 -0.7071 47.7299 115.2299)" fill="#A0A0A0" width="100" height="18.51"/>
	
		<rect x="-2.27" y="38.574" transform="matrix(-0.7071 -0.7071 0.7071 -0.7071 47.7299 115.2299)" fill="#A1A1A1" width="100" height="18.311"/>
	
		<rect x="-2.27" y="38.674" transform="matrix(-0.7071 -0.7071 0.7071 -0.7071 47.7299 115.2299)" fill="#A2A2A2" width="100" height="18.112"/>
	
		<rect x="-2.27" y="38.773" transform="matrix(-0.7071 -0.7071 0.7071 -0.7071 47.7299 115.2299)" fill="#A3A3A3" width="100" height="17.913"/>
	
		<rect x="-2.27" y="38.872" transform="matrix(-0.7071 -0.7071 0.7071 -0.7071 47.7296 115.2302)" fill="#A4A4A4" width="100" height="17.715"/>
	
		<rect x="-2.27" y="38.972" transform="matrix(-0.7071 -0.7071 0.7071 -0.7071 47.7296 115.2302)" fill="#A5A5A5" width="100" height="17.516"/>
	
		<rect x="-2.27" y="39.071" transform="matrix(-0.7071 -0.7071 0.7071 -0.7071 47.7296 115.2302)" fill="#A6A6A6" width="100" height="17.318"/>
	
		<rect x="-2.27" y="39.171" transform="matrix(-0.7071 -0.7071 0.7071 -0.7071 47.7296 115.2302)" fill="#A7A7A7" width="100" height="17.119"/>
	
		<rect x="-2.27" y="39.27" transform="matrix(-0.7071 -0.7071 0.7071 -0.7071 47.7299 115.2299)" fill="#A8A8A8" width="100" height="16.92"/>
	
		<rect x="-2.27" y="39.369" transform="matrix(-0.7071 -0.7071 0.7071 -0.7071 47.7299 115.2299)" fill="#A9A9A9" width="100" height="16.721"/>
	
		<rect x="-2.27" y="39.468" transform="matrix(-0.7071 -0.7071 0.7071 -0.7071 47.7296 115.2302)" fill="#AAAAAA" width="100" height="16.523"/>
	
		<rect x="-2.27" y="39.568" transform="matrix(-0.7071 -0.7071 0.7071 -0.7071 47.7296 115.2302)" fill="#ABABAB" width="100" height="16.325"/>
	
		<rect x="-2.27" y="39.667" transform="matrix(-0.7071 -0.7071 0.7071 -0.7071 47.7296 115.2302)" fill="#ACACAC" width="100" height="16.126"/>
	
		<rect x="-2.27" y="39.767" transform="matrix(-0.7071 -0.7071 0.7071 -0.7071 47.7296 115.2302)" fill="#ADADAD" width="100" height="15.927"/>
	
		<rect x="-2.27" y="39.866" transform="matrix(-0.7071 -0.7071 0.7071 -0.7071 47.7296 115.2302)" fill="#AEAEAE" width="100" height="15.728"/>
	
		<rect x="-2.27" y="39.965" transform="matrix(-0.7071 -0.7071 0.7071 -0.7071 47.7299 115.2299)" fill="#AFAFAF" width="100" height="15.529"/>
	
		<rect x="-2.27" y="40.064" transform="matrix(-0.7071 -0.7071 0.7071 -0.7071 47.7299 115.2299)" fill="#B0B0B0" width="100" height="15.331"/>
	
		<rect x="-2.27" y="40.164" transform="matrix(-0.7071 -0.7071 0.7071 -0.7071 47.7296 115.2302)" fill="#B1B1B1" width="100" height="15.133"/>
	
		<rect x="-2.27" y="40.263" transform="matrix(-0.7071 -0.7071 0.7071 -0.7071 47.7296 115.2302)" fill="#B2B2B2" width="100" height="14.934"/>
	
		<rect x="-2.27" y="40.363" transform="matrix(-0.7071 -0.7071 0.7071 -0.7071 47.7296 115.2302)" fill="#B3B3B3" width="100" height="14.735"/>
	
		<rect x="-2.27" y="40.462" transform="matrix(-0.7071 -0.7071 0.7071 -0.7071 47.7296 115.2302)" fill="#B4B4B4" width="100" height="14.536"/>
	
		<rect x="-2.27" y="40.561" transform="matrix(-0.7071 -0.7071 0.7071 -0.7071 47.7296 115.2302)" fill="#B5B5B5" width="100" height="14.337"/>
	
		<rect x="-2.27" y="40.66" transform="matrix(-0.7071 -0.7071 0.7071 -0.7071 47.7299 115.2299)" fill="#B6B6B6" width="100" height="14.139"/>
	
		<rect x="-2.27" y="40.76" transform="matrix(-0.7071 -0.7071 0.7071 -0.7071 47.7299 115.2299)" fill="#B7B7B7" width="100" height="13.94"/>
	
		<rect x="-2.27" y="40.859" transform="matrix(-0.7071 -0.7071 0.7071 -0.7071 47.7296 115.2302)" fill="#B8B8B8" width="100" height="13.742"/>
	
		<rect x="-2.27" y="40.958" transform="matrix(-0.7071 -0.7071 0.7071 -0.7071 47.7296 115.2302)" fill="#B9B9B9" width="100" height="13.543"/>
	
		<rect x="-2.27" y="41.058" transform="matrix(-0.7071 -0.7071 0.7071 -0.7071 47.7296 115.2302)" fill="#BABABA" width="100" height="13.344"/>
	
		<rect x="-2.27" y="41.157" transform="matrix(-0.7071 -0.7071 0.7071 -0.7071 47.7296 115.2302)" fill="#BBBBBB" width="100" height="13.145"/>
	
		<rect x="-2.27" y="41.257" transform="matrix(-0.7071 -0.7071 0.7071 -0.7071 47.7296 115.2302)" fill="#BCBCBC" width="100" height="12.946"/>
	
		<rect x="-2.27" y="41.356" transform="matrix(-0.7071 -0.7071 0.7071 -0.7071 47.7299 115.2299)" fill="#BDBDBD" width="100" height="12.748"/>
	
		<rect x="-2.27" y="41.455" transform="matrix(-0.7071 -0.7071 0.7071 -0.7071 47.7299 115.2299)" fill="#BEBEBE" width="100" height="12.549"/>
	
		<rect x="-2.27" y="41.554" transform="matrix(-0.7071 -0.7071 0.7071 -0.7071 47.7296 115.2302)" fill="#BFBFBF" width="100" height="12.351"/>
	
		<rect x="-2.27" y="41.654" transform="matrix(-0.7071 -0.7071 0.7071 -0.7071 47.7296 115.2302)" fill="#C0C0C0" width="100" height="12.152"/>
	
		<rect x="-2.27" y="41.753" transform="matrix(-0.7071 -0.7071 0.7071 -0.7071 47.7296 115.2302)" fill="#C1C1C1" width="100" height="11.953"/>
	
		<rect x="-2.27" y="41.853" transform="matrix(-0.7071 -0.7071 0.7071 -0.7071 47.7296 115.2302)" fill="#C2C2C2" width="100" height="11.755"/>
	
		<rect x="-2.27" y="41.952" transform="matrix(-0.7071 -0.7071 0.7071 -0.7071 47.7296 115.2302)" fill="#C3C3C3" width="100" height="11.556"/>
	
		<rect x="-2.27" y="42.051" transform="matrix(-0.7071 -0.7071 0.7071 -0.7071 47.7299 115.2299)" fill="#C4C4C4" width="100" height="11.357"/>
	
		<rect x="-2.27" y="42.151" transform="matrix(-0.7071 -0.7071 0.7071 -0.7071 47.7299 115.2299)" fill="#C5C5C5" width="100" height="11.158"/>
	
		<rect x="-2.27" y="42.25" transform="matrix(-0.7071 -0.7071 0.7071 -0.7071 47.7296 115.2302)" fill="#C6C6C6" width="100" height="10.961"/>
	
		<rect x="-2.27" y="42.349" transform="matrix(-0.7071 -0.7071 0.7071 -0.7071 47.7296 115.2302)" fill="#C7C7C7" width="100" height="10.762"/>
	
		<rect x="-2.27" y="42.449" transform="matrix(-0.7071 -0.7071 0.7071 -0.7071 47.7296 115.2302)" fill="#C8C8C8" width="100" height="10.563"/>
	
		<rect x="-2.27" y="42.548" transform="matrix(-0.7071 -0.7071 0.7071 -0.7071 47.7296 115.2302)" fill="#C9C9C9" width="100" height="10.364"/>
	
		<rect x="-2.27" y="42.647" transform="matrix(-0.7071 -0.7071 0.7071 -0.7071 47.7296 115.2302)" fill="#CACACA" width="100" height="10.165"/>
	
		<rect x="-2.27" y="42.746" transform="matrix(-0.7071 -0.7071 0.7071 -0.7071 47.7299 115.2299)" fill="#CBCBCB" width="100" height="9.966"/>
	
		<rect x="-2.27" y="42.846" transform="matrix(-0.7071 -0.7071 0.7071 -0.7071 47.7299 115.2299)" fill="#CCCCCC" width="100" height="9.768"/>
	
		<rect x="-2.27" y="42.945" transform="matrix(-0.7071 -0.7071 0.7071 -0.7071 47.7296 115.2302)" fill="#CDCDCD" width="100" height="9.57"/>
	
		<rect x="-2.27" y="43.045" transform="matrix(-0.7071 -0.7071 0.7071 -0.7071 47.7296 115.2302)" fill="#CECECE" width="100" height="9.371"/>
	
		<rect x="-2.27" y="43.144" transform="matrix(-0.7071 -0.7071 0.7071 -0.7071 47.7296 115.2302)" fill="#CFCFCF" width="100" height="9.172"/>
	
		<rect x="-2.27" y="43.243" transform="matrix(-0.7071 -0.7071 0.7071 -0.7071 47.7296 115.2302)" fill="#D0D0D0" width="100" height="8.973"/>
	
		<rect x="-2.27" y="43.343" transform="matrix(-0.7071 -0.7071 0.7071 -0.7071 47.7296 115.2302)" fill="#D1D1D1" width="100" height="8.774"/>
	
		<rect x="-2.27" y="43.442" transform="matrix(-0.7071 -0.7071 0.7071 -0.7071 47.7296 115.2302)" fill="#D2D2D2" width="100" height="8.575"/>
	
		<rect x="-2.27" y="43.541" transform="matrix(-0.7071 -0.7071 0.7071 -0.7071 47.7296 115.2302)" fill="#D3D3D3" width="100" height="8.378"/>
	
		<rect x="-2.27" y="43.64" transform="matrix(-0.7071 -0.7071 0.7071 -0.7071 47.7296 115.2302)" fill="#D4D4D4" width="100" height="8.179"/>
	
		<rect x="-2.27" y="43.74" transform="matrix(-0.7071 -0.7071 0.7071 -0.7071 47.7296 115.2302)" fill="#D5D5D5" width="100" height="7.98"/>
	
		<rect x="-2.27" y="43.839" transform="matrix(-0.7071 -0.7071 0.7071 -0.7071 47.7296 115.2302)" fill="#D6D6D6" width="100" height="7.781"/>
	
		<rect x="-2.27" y="43.939" transform="matrix(-0.7071 -0.7071 0.7071 -0.7071 47.7296 115.2302)" fill="#D7D7D7" width="100" height="7.582"/>
	
		<rect x="-2.27" y="44.038" transform="matrix(-0.7071 -0.7071 0.7071 -0.7071 47.7296 115.2302)" fill="#D8D8D8" width="100" height="7.384"/>
	
		<rect x="-2.27" y="44.138" transform="matrix(-0.7071 -0.7071 0.7071 -0.7071 47.7296 115.2302)" fill="#D9D9D9" width="100" height="7.185"/>
	
		<rect x="-2.27" y="44.236" transform="matrix(-0.7071 -0.7071 0.7071 -0.7071 47.7296 115.2302)" fill="#DADADA" width="100" height="6.987"/>
	
		<rect x="-2.27" y="44.336" transform="matrix(-0.7071 -0.7071 0.7071 -0.7071 47.7296 115.2302)" fill="#DBDBDB" width="100" height="6.788"/>
	
		<rect x="-2.27" y="44.435" transform="matrix(-0.7071 -0.7071 0.7071 -0.7071 47.7296 115.2302)" fill="#DCDCDC" width="100" height="6.589"/>
	
		<rect x="-2.27" y="44.535" transform="matrix(-0.7071 -0.7071 0.7071 -0.7071 47.7296 115.2302)" fill="#DDDDDD" width="100" height="6.391"/>
	
		<rect x="-2.27" y="44.634" transform="matrix(-0.7071 -0.7071 0.7071 -0.7071 47.7296 115.2302)" fill="#DEDEDE" width="100" height="6.192"/>
	
		<rect x="-2.27" y="44.734" transform="matrix(-0.7071 -0.7071 0.7071 -0.7071 47.7296 115.2302)" fill="#DFDFDF" width="100" height="5.993"/>
	
		<rect x="-2.27" y="44.833" transform="matrix(-0.7071 -0.7071 0.7071 -0.7071 47.7296 115.2302)" fill="#E0E0E0" width="100" height="5.794"/>
	
		<rect x="-2.27" y="44.932" transform="matrix(-0.7071 -0.7071 0.7071 -0.7071 47.7296 115.2302)" fill="#E1E1E1" width="100" height="5.596"/>
	
		<rect x="-2.27" y="45.031" transform="matrix(-0.7071 -0.7071 0.7071 -0.7071 47.7296 115.2302)" fill="#E2E2E2" width="100" height="5.398"/>
	
		<rect x="-2.27" y="45.131" transform="matrix(-0.7071 -0.7071 0.7071 -0.7071 47.7296 115.2302)" fill="#E3E3E3" width="100" height="5.199"/>
	
		<rect x="-2.27" y="45.23" transform="matrix(-0.7071 -0.7071 0.7071 -0.7071 47.7296 115.2302)" fill="#E4E4E4" width="100" height="5"/>
</g>
</svg>
