<?xml version="1.0" encoding="utf-8"?>
<!-- Generator: Adobe Illustrator 15.0.0, SVG Export Plug-In  -->
<!DOCTYPE svg PUBLIC "-//W3C//DTD SVG 1.1//EN" "http://www.w3.org/Graphics/SVG/1.1/DTD/svg11.dtd" [
	<!ENTITY ns_flows "http://ns.adobe.com/Flows/1.0/">
]>
<svg version="1.1"
	 xmlns="http://www.w3.org/2000/svg" xmlns:xlink="http://www.w3.org/1999/xlink" xmlns:a="http://ns.adobe.com/AdobeSVGViewerExtensions/3.0/"
	 x="0px" y="0px" width="35px" height="100px" viewBox="0 0 35 100" enable-background="new 0 0 35 100" xml:space="preserve">
<defs>
</defs>
<g>
	<rect fill="#4D4D4D" width="35" height="100"/>
	<rect fill="#4E4E4E" width="35" height="100"/>
	<rect fill="#4F4F4F" width="35" height="100"/>
	<rect fill="#505050" width="35" height="100"/>
	<rect fill="#515151" width="35" height="100"/>
	<rect fill="#525252" width="35" height="100"/>
	<rect x="1" fill="#535353" width="33" height="100"/>
	<rect x="1" fill="#545454" width="33" height="100"/>
	<rect x="1" fill="#555555" width="33" height="100"/>
	<rect x="1" fill="#565656" width="33" height="100"/>
	<rect x="1" fill="#575757" width="33" height="100"/>
	<rect x="1" fill="#585858" width="33" height="100"/>
	<rect x="1" fill="#595959" width="33" height="100"/>
	<rect x="1" fill="#5A5A5A" width="33" height="100"/>
	<rect x="1" fill="#5B5B5B" width="33" height="100"/>
	<rect x="1" fill="#5C5C5C" width="33" height="100"/>
	<rect x="2" fill="#5D5D5D" width="31" height="100"/>
	<rect x="2" fill="#5E5E5E" width="31" height="100"/>
	<rect x="2" fill="#5F5F5F" width="31" height="100"/>
	<rect x="2" fill="#606060" width="31" height="100"/>
	<rect x="2" fill="#616161" width="31" height="100"/>
	<rect x="2" fill="#626262" width="31" height="100"/>
	<rect x="2" fill="#636363" width="31" height="100"/>
	<rect x="2" fill="#646464" width="31" height="100"/>
	<rect x="2" fill="#656565" width="31" height="100"/>
	<rect x="2" fill="#666666" width="31" height="100"/>
	<rect x="3" fill="#676767" width="29" height="100"/>
	<rect x="3" fill="#686868" width="29" height="100"/>
	<rect x="3" fill="#696969" width="29" height="100"/>
	<rect x="3" fill="#6A6A6A" width="29" height="100"/>
	<rect x="3" fill="#6B6B6B" width="29" height="100"/>
	<rect x="3" fill="#6C6C6C" width="29" height="100"/>
	<rect x="3" fill="#6D6D6D" width="29" height="100"/>
	<rect x="3" fill="#6E6E6E" width="29" height="100"/>
	<rect x="3" fill="#6F6F6F" width="29" height="100"/>
	<rect x="3" fill="#707070" width="29" height="100"/>
	<rect x="4" fill="#717171" width="27" height="100"/>
	<rect x="4" fill="#727272" width="27" height="100"/>
	<rect x="4" fill="#737373" width="27" height="100"/>
	<rect x="4" fill="#747474" width="27" height="100"/>
	<rect x="4" fill="#757575" width="27" height="100"/>
	<rect x="4" fill="#767676" width="27" height="100"/>
	<rect x="4" fill="#777777" width="27" height="100"/>
	<rect x="4" fill="#787878" width="27" height="100"/>
	<rect x="4" fill="#797979" width="27" height="100"/>
	<rect x="4" fill="#7A7A7A" width="27" height="100"/>
	<rect x="5" fill="#7B7B7B" width="25" height="100"/>
	<rect x="5" fill="#7C7C7C" width="25" height="100"/>
	<rect x="5" fill="#7D7D7D" width="25" height="100"/>
	<rect x="5" fill="#7E7E7E" width="25" height="100"/>
	<rect x="5" fill="#7F7F7F" width="25" height="100"/>
	<rect x="5" fill="#808080" width="25" height="100"/>
	<rect x="5" fill="#818181" width="25" height="100"/>
	<rect x="5" fill="#828282" width="25" height="100"/>
	<rect x="5" fill="#838383" width="25" height="100"/>
	<rect x="5" fill="#848484" width="25" height="100"/>
	<rect x="6" fill="#858585" width="23" height="100"/>
	<rect x="6" fill="#868686" width="23" height="100"/>
	<rect x="6" fill="#878787" width="23" height="100"/>
	<rect x="6" fill="#888888" width="23" height="100"/>
	<rect x="6" fill="#898989" width="23" height="100"/>
	<rect x="6" fill="#8A8A8A" width="23" height="100"/>
	<rect x="6" fill="#8B8B8B" width="23" height="100"/>
	<rect x="6" fill="#8C8C8C" width="23" height="100"/>
	<rect x="6" fill="#8D8D8D" width="23" height="100"/>
	<rect x="6" fill="#8E8E8E" width="23" height="100"/>
	<rect x="7" fill="#8F8F8F" width="21" height="100"/>
	<rect x="7" fill="#909090" width="21" height="100"/>
	<rect x="7" fill="#919191" width="21" height="100"/>
	<rect x="7" fill="#929292" width="21" height="100"/>
	<rect x="7" fill="#939393" width="21" height="100"/>
	<rect x="7" fill="#949494" width="21" height="100"/>
	<rect x="7" fill="#959595" width="21" height="100"/>
	<rect x="7" fill="#969696" width="21" height="100"/>
	<rect x="7" fill="#979797" width="21" height="100"/>
	<rect x="7" fill="#989898" width="21" height="100"/>
	<rect x="8" fill="#999999" width="19" height="100"/>
	<rect x="8" fill="#9A9A9A" width="19" height="100"/>
	<rect x="8" fill="#9B9B9B" width="19" height="100"/>
	<rect x="8" fill="#9C9C9C" width="19" height="100"/>
	<rect x="8" fill="#9D9D9D" width="19" height="100"/>
	<rect x="8" fill="#9E9E9E" width="19" height="100"/>
	<rect x="8" fill="#9F9F9F" width="19" height="100"/>
	<rect x="8" fill="#A0A0A0" width="19" height="100"/>
	<rect x="8" fill="#A1A1A1" width="19" height="100"/>
	<rect x="8" fill="#A2A2A2" width="19" height="100"/>
	<rect x="9" fill="#A3A3A3" width="17" height="100"/>
	<rect x="9" fill="#A4A4A4" width="17" height="100"/>
	<rect x="9" fill="#A5A5A5" width="17" height="100"/>
	<rect x="9" fill="#A6A6A6" width="17" height="100"/>
	<rect x="9" fill="#A7A7A7" width="17" height="100"/>
	<rect x="9" fill="#A8A8A8" width="17" height="100"/>
	<rect x="9" fill="#A9A9A9" width="17" height="100"/>
	<rect x="9" fill="#AAAAAA" width="17" height="100"/>
	<rect x="9" fill="#ABABAB" width="17" height="100"/>
	<rect x="9" fill="#ACACAC" width="17" height="100"/>
	<rect x="10" fill="#ADADAD" width="15" height="100"/>
	<rect x="10" fill="#AEAEAE" width="15" height="100"/>
	<rect x="10" fill="#AFAFAF" width="15" height="100"/>
	<rect x="10" fill="#B0B0B0" width="15" height="100"/>
	<rect x="10" fill="#B1B1B1" width="15" height="100"/>
	<rect x="10" fill="#B2B2B2" width="15" height="100"/>
	<rect x="10" fill="#B3B3B3" width="15" height="100"/>
	<rect x="10" fill="#B4B4B4" width="15" height="100"/>
	<rect x="10" fill="#B5B5B5" width="15" height="100"/>
	<rect x="10" fill="#B6B6B6" width="15" height="100"/>
	<rect x="11" fill="#B7B7B7" width="13" height="100"/>
	<rect x="11" fill="#B8B8B8" width="13" height="100"/>
	<rect x="11" fill="#B9B9B9" width="13" height="100"/>
	<rect x="11" fill="#BABABA" width="13" height="100"/>
	<rect x="11" fill="#BBBBBB" width="13" height="100"/>
	<rect x="11" fill="#BCBCBC" width="13" height="100"/>
	<rect x="11" fill="#BDBDBD" width="13" height="100"/>
	<rect x="11" fill="#BEBEBE" width="13" height="100"/>
	<rect x="11" fill="#BFBFBF" width="13" height="100"/>
	<rect x="11" fill="#C0C0C0" width="13" height="100"/>
	<rect x="12" fill="#C1C1C1" width="11" height="100"/>
	<rect x="12" fill="#C2C2C2" width="11" height="100"/>
	<rect x="12" fill="#C3C3C3" width="11" height="100"/>
	<rect x="12" fill="#C4C4C4" width="11" height="100"/>
	<rect x="12" fill="#C5C5C5" width="11" height="100"/>
	<rect x="12" fill="#C6C6C6" width="11" height="100"/>
	<rect x="12" fill="#C7C7C7" width="11" height="100"/>
	<rect x="12" fill="#C8C8C8" width="11" height="100"/>
	<rect x="12" fill="#C9C9C9" width="11" height="100"/>
	<rect x="12" fill="#CACACA" width="11" height="100"/>
	<rect x="13" fill="#CBCBCB" width="9" height="100"/>
	<rect x="13" fill="#CCCCCC" width="9" height="100"/>
	<rect x="13" fill="#CDCDCD" width="9" height="100"/>
	<rect x="13" fill="#CECECE" width="9" height="100"/>
	<rect x="13" fill="#CFCFCF" width="9" height="100"/>
	<rect x="13" fill="#D0D0D0" width="9" height="100"/>
	<rect x="13" fill="#D1D1D1" width="9" height="100"/>
	<rect x="13" fill="#D2D2D2" width="9" height="100"/>
	<rect x="13" fill="#D3D3D3" width="9" height="100"/>
	<rect x="13" fill="#D4D4D4" width="9" height="100"/>
	<rect x="14" fill="#D5D5D5" width="7" height="100"/>
	<rect x="14" fill="#D6D6D6" width="7" height="100"/>
	<rect x="14" fill="#D7D7D7" width="7" height="100"/>
	<rect x="14" fill="#D8D8D8" width="7" height="100"/>
	<rect x="14" fill="#D9D9D9" width="7" height="100"/>
	<rect x="14" fill="#DADADA" width="7" height="100"/>
	<rect x="14" fill="#DBDBDB" width="7" height="100"/>
	<rect x="14" fill="#DCDCDC" width="7" height="100"/>
	<rect x="14" fill="#DDDDDD" width="7" height="100"/>
	<rect x="14" fill="#DEDEDE" width="7" height="100"/>
	<rect x="15" fill="#DFDFDF" width="5" height="100"/>
	<rect x="15" fill="#E0E0E0" width="5" height="100"/>
	<rect x="15" fill="#E1E1E1" width="5" height="100"/>
	<rect x="15" fill="#E2E2E2" width="5" height="100"/>
	<rect x="15" fill="#E3E3E3" width="5" height="100"/>
	<rect x="15" fill="#E4E4E4" width="5" height="100"/>
</g>
</svg>
