<?xml version="1.0" encoding="utf-8"?>
<!-- Generator: Adobe Illustrator 15.0.0, SVG Export Plug-In  -->
<!DOCTYPE svg PUBLIC "-//W3C//DTD SVG 1.1//EN" "http://www.w3.org/Graphics/SVG/1.1/DTD/svg11.dtd" [
	<!ENTITY ns_flows "http://ns.adobe.com/Flows/1.0/">
]>
<svg version="1.1"
	 xmlns="http://www.w3.org/2000/svg" xmlns:xlink="http://www.w3.org/1999/xlink" xmlns:a="http://ns.adobe.com/AdobeSVGViewerExtensions/3.0/"
	 x="0px" y="0px" width="180px" height="135px" viewBox="0 0 180 135" enable-background="new 0 0 180 135" xml:space="preserve">
<defs>
</defs>
<linearGradient id="SVGID_1_" gradientUnits="userSpaceOnUse" x1="-589.7134" y1="1498" x2="-589.7134" y2="1453" gradientTransform="matrix(0 1 1 0 -1385 612.2139)">
	<stop  offset="0" style="stop-color:#4D4D4D"/>
	<stop  offset="0.3091" style="stop-color:#979797"/>
	<stop  offset="0.6182" style="stop-color:#E4E4E4"/>
	<stop  offset="0.9879" style="stop-color:#4D4D4D"/>
</linearGradient>
<rect x="68" fill="url(#SVGID_1_)" width="45" height="45"/>
<linearGradient id="SVGID_2_" gradientUnits="userSpaceOnUse" x1="-412.5" y1="1389.2861" x2="-412.5" y2="1344.2861" gradientTransform="matrix(-1 0 0 1 -256.5 -1294.2861)">
	<stop  offset="0" style="stop-color:#4D4D4D"/>
	<stop  offset="0.3091" style="stop-color:#979797"/>
	<stop  offset="0.6182" style="stop-color:#E4E4E4"/>
	<stop  offset="0.9879" style="stop-color:#4D4D4D"/>
</linearGradient>
<rect x="132" y="50" fill="url(#SVGID_2_)" width="48" height="45"/>
<linearGradient id="SVGID_3_" gradientUnits="userSpaceOnUse" x1="-280.5" y1="1391.2861" x2="-280.5" y2="1346.2861" gradientTransform="matrix(-1 0 0 1 -256.5 -1294.2861)">
	<stop  offset="0" style="stop-color:#4D4D4D"/>
	<stop  offset="0.3091" style="stop-color:#979797"/>
	<stop  offset="0.6182" style="stop-color:#E4E4E4"/>
	<stop  offset="0.9879" style="stop-color:#4D4D4D"/>
</linearGradient>
<rect y="52" fill="url(#SVGID_3_)" width="48" height="45"/>
<g>
	
		<radialGradient id="SVGID_4_" cx="90.9028" cy="99.3477" r="42.3315" gradientTransform="matrix(1 0 0 -1 0 150.2139)" gradientUnits="userSpaceOnUse">
		<stop  offset="0" style="stop-color:#000000"/>
		<stop  offset="1" style="stop-color:#1A1A1A"/>
	</radialGradient>
	<polygon fill="url(#SVGID_4_)" points="36,27 90.903,74.733 145.806,27 	"/>
	<g>
		<path fill="#1A1A1A" d="M35.735,26.996c18.301,15.911,36.602,31.822,54.903,47.733c0.163,0.142,0.368,0.142,0.53,0
			c18.301-15.911,36.602-31.822,54.903-47.733c0.254-0.221,0.045-0.64-0.265-0.64c-36.602,0-73.204,0-109.806,0
			c-0.483,0-0.483,0.75,0,0.75c24.037,0,48.073,0,72.11,0c11.713,0,23.425,0,35.138,0c0.817,0,1.633,0,2.45,0
			c0.209,0,0.027-0.801-0.37-0.456c-0.441,0.384-0.883,0.768-1.325,1.152c-4.085,3.552-8.17,7.103-12.255,10.655
			c-10.558,9.179-21.116,18.359-31.675,27.538c-2.987,2.598-5.976,5.195-8.963,7.793c-0.697,0.606,0.283,0.606-0.414,0
			c-1.152-1.002-2.305-2.003-3.457-3.005C70.248,56.01,53.256,41.238,36.265,26.465C35.902,26.149,35.369,26.678,35.735,26.996z"/>
	</g>
</g>
<polygon opacity="0.58" fill="#333333" points="38.511,28 90.636,73.379 142.76,28 "/>
<radialGradient id="SVGID_5_" cx="90.8013" cy="99.6904" r="38.0317" gradientTransform="matrix(1 0 0 -1 0 150.2139)" gradientUnits="userSpaceOnUse">
	<stop  offset="0" style="stop-color:#FFFFFF"/>
	<stop  offset="0.3697" style="stop-color:#6B6B6B"/>
	<stop  offset="0.7818" style="stop-color:#666666"/>
</radialGradient>
<polygon opacity="0.75" fill="url(#SVGID_5_)" points="41.511,29 90.802,72.046 140.092,29 "/>
<g>
	
		<radialGradient id="SVGID_6_" cx="-39.8164" cy="-148.4463" r="44.2852" gradientTransform="matrix(0 0.9093 1.2123 0 300.0259 117.5534)" gradientUnits="userSpaceOnUse">
		<stop  offset="0" style="stop-color:#000000"/>
		<stop  offset="1" style="stop-color:#1A1A1A"/>
	</radialGradient>
	<polygon fill="url(#SVGID_6_)" points="149,28.694 91.133,75.347 149,134 	"/>
	<g>
		<path fill="#1A1A1A" d="M148.491,28.416c-19.289,15.551-38.578,31.102-57.867,46.652c-0.168,0.135-0.139,0.417,0,0.557
			c19.289,19.551,38.578,39.103,57.867,58.653c0.242,0.245,0.672,0.063,0.672-0.278c0-35.102,0-70.204,0-105.306
			c0-0.508-0.787-0.508-0.787,0c0,24.384,0,48.769,0,73.153c0,10.457,0,20.914,0,31.37c0,1.102,0.732,0.565,0.397,0.226
			c-1.01-1.024-2.02-2.047-3.029-3.071c-4.249-4.306-8.497-8.612-12.746-12.919c-10.567-10.711-21.135-21.423-31.703-32.134
			c-3.081-3.123-6.162-6.246-9.243-9.369c-0.979-0.991-0.686-0.475-0.654-0.5c0.996-0.803,1.993-1.606,2.989-2.41
			c18.221-14.689,36.441-29.379,54.661-44.068C149.443,28.654,148.883,28.101,148.491,28.416z"/>
	</g>
</g>
<polygon opacity="0.58" fill="#333333" points="148,30.978 92.986,75.104 148,131.23 "/>
<radialGradient id="SVGID_7_" cx="-39.7285" cy="-147.8145" r="39.9859" gradientTransform="matrix(0 0.9093 1.2123 0 300.103 117.3798)" gradientUnits="userSpaceOnUse">
	<stop  offset="0" style="stop-color:#FFFFFF"/>
	<stop  offset="0.3697" style="stop-color:#6B6B6B"/>
	<stop  offset="0.7818" style="stop-color:#666666"/>
</radialGradient>
<polygon opacity="0.75" fill="url(#SVGID_7_)" points="147,33.705 94.815,75.255 147,128.804 "/>
<g>
	
		<radialGradient id="SVGID_8_" cx="-39.8164" cy="-38.1821" r="44.2852" gradientTransform="matrix(0 0.9093 -1.2123 0 15.646 117.5534)" gradientUnits="userSpaceOnUse">
		<stop  offset="0" style="stop-color:#000000"/>
		<stop  offset="1" style="stop-color:#1A1A1A"/>
	</radialGradient>
	<polygon fill="url(#SVGID_8_)" points="33,28.694 90.867,75.347 33,134 	"/>
	<g>
		<path fill="#1A1A1A" d="M32.624,28.973C51.296,44.026,69.968,59.08,88.64,74.133c1.065,0.858,1.341,1.451,1.839,0.946
			c-0.679,0.688-1.357,1.375-2.035,2.063c-3.842,3.894-7.684,7.788-11.525,11.682c-11.022,11.172-22.045,22.344-33.067,33.516
			c-3.314,3.359-6.628,6.719-9.943,10.078c-0.337,0.341-0.674,0.683-1.011,1.024c-0.598,0.606,0.397-0.153,0.397,0.506
			c0-0.761,0-1.522,0-2.284c0-11.195,0-22.391,0-33.585c0-23.129,0-46.257,0-69.386c0-0.508-0.787-0.508-0.787,0
			c0,35.102,0,70.204,0,105.306c0,0.342,0.43,0.523,0.672,0.278c19.289-19.551,38.578-39.102,57.867-58.653
			c0.138-0.14,0.168-0.421,0-0.557C71.759,59.518,52.47,43.967,33.181,28.416C32.789,28.101,32.229,28.654,32.624,28.973z"/>
	</g>
</g>
<polygon opacity="0.58" fill="#333333" points="34,30.978 89.014,75.104 34,131.23 "/>
<radialGradient id="SVGID_9_" cx="-39.7285" cy="-37.5508" r="39.9859" gradientTransform="matrix(0 0.9093 -1.2123 0 15.5688 117.3798)" gradientUnits="userSpaceOnUse">
	<stop  offset="0" style="stop-color:#FFFFFF"/>
	<stop  offset="0.3697" style="stop-color:#6B6B6B"/>
	<stop  offset="0.7818" style="stop-color:#666666"/>
</radialGradient>
<polygon opacity="0.75" fill="url(#SVGID_9_)" points="35,33.705 87.185,75.255 35,128.804 "/>
</svg>
