<?xml version="1.0" encoding="utf-8"?>
<!-- Generator: Adobe Illustrator 15.0.0, SVG Export Plug-In  -->
<!DOCTYPE svg PUBLIC "-//W3C//DTD SVG 1.1//EN" "http://www.w3.org/Graphics/SVG/1.1/DTD/svg11.dtd" [
	<!ENTITY ns_flows "http://ns.adobe.com/Flows/1.0/">
]>
<svg version="1.1"
	 xmlns="http://www.w3.org/2000/svg" xmlns:xlink="http://www.w3.org/1999/xlink" xmlns:a="http://ns.adobe.com/AdobeSVGViewerExtensions/3.0/"
	 x="0px" y="0px" width="180px" height="115px" viewBox="0 0 180 115" enable-background="new 0 0 180 115" xml:space="preserve">
<defs>
</defs>
<path d="M178,106.011c0,4.965-4.253,8.989-9.5,8.989l0,0c-5.247,0-9.5-4.024-9.5-8.989V8.989C159,4.024,163.253,0,168.5,0l0,0
	c5.247,0,9.5,4.024,9.5,8.989V106.011z"/>
<path d="M19,106.011c0,4.965-4.253,8.989-9.5,8.989l0,0c-5.247,0-9.5-4.024-9.5-8.989V8.989C0,4.024,4.253,0,9.5,0l0,0
	C14.747,0,19,4.024,19,8.989V106.011z"/>
<linearGradient id="SVGID_1_" gradientUnits="userSpaceOnUse" x1="89" y1="79" x2="89" y2="37">
	<stop  offset="0" style="stop-color:#4D4D4D"/>
	<stop  offset="0.3091" style="stop-color:#979797"/>
	<stop  offset="0.6182" style="stop-color:#E4E4E4"/>
	<stop  offset="0.9879" style="stop-color:#4D4D4D"/>
</linearGradient>
<rect x="10" y="37" fill="url(#SVGID_1_)" width="158" height="42"/>
<linearGradient id="SVGID_2_" gradientUnits="userSpaceOnUse" x1="-1178" y1="91.7891" x2="-1178" y2="29.3345" gradientTransform="matrix(-1 0 0 1 -1064 0)">
	<stop  offset="0" style="stop-color:#4D4D4D"/>
	<stop  offset="0.3091" style="stop-color:#979797"/>
	<stop  offset="0.6182" style="stop-color:#CACACA"/>
	<stop  offset="0.9879" style="stop-color:#4D4D4D"/>
</linearGradient>
<polygon fill="url(#SVGID_2_)" points="95,91.789 133,80.434 133,36.905 95,29.334 "/>
<linearGradient id="SVGID_3_" gradientUnits="userSpaceOnUse" x1="65" y1="91.7891" x2="65" y2="29.3345">
	<stop  offset="0" style="stop-color:#4D4D4D"/>
	<stop  offset="0.3091" style="stop-color:#979797"/>
	<stop  offset="0.6182" style="stop-color:#E4E4E4"/>
	<stop  offset="0.9879" style="stop-color:#4D4D4D"/>
</linearGradient>
<polygon fill="url(#SVGID_3_)" points="84,91.789 46,80.434 46,36.905 84,29.334 "/>
<rect x="83" y="12" width="12" height="91"/>
<linearGradient id="SVGID_4_" gradientUnits="userSpaceOnUse" x1="99" y1="103" x2="99" y2="12">
	<stop  offset="0" style="stop-color:#4D4D4D"/>
	<stop  offset="0.9636" style="stop-color:#919191"/>
	<stop  offset="1" style="stop-color:#FFFFFF"/>
</linearGradient>
<rect x="90" y="12" fill="url(#SVGID_4_)" width="18" height="91"/>
<linearGradient id="SVGID_5_" gradientUnits="userSpaceOnUse" x1="78" y1="103" x2="78" y2="12">
	<stop  offset="0" style="stop-color:#4D4D4D"/>
	<stop  offset="0.9636" style="stop-color:#919191"/>
	<stop  offset="1" style="stop-color:#FFFFFF"/>
</linearGradient>
<rect x="69" y="12" fill="url(#SVGID_5_)" width="18" height="91"/>
<linearGradient id="SVGID_6_" gradientUnits="userSpaceOnUse" x1="12.5" y1="115" x2="12.5" y2="0">
	<stop  offset="0" style="stop-color:#4D4D4D"/>
	<stop  offset="0.3091" style="stop-color:#979797"/>
	<stop  offset="0.5394" style="stop-color:#E4E4E4"/>
	<stop  offset="0.703" style="stop-color:#CACACA"/>
	<stop  offset="0.9879" style="stop-color:#4D4D4D"/>
</linearGradient>
<rect x="3" fill="url(#SVGID_6_)" width="19" height="115"/>
<linearGradient id="SVGID_7_" gradientUnits="userSpaceOnUse" x1="165.5" y1="115" x2="165.5" y2="0">
	<stop  offset="0" style="stop-color:#4D4D4D"/>
	<stop  offset="0.3091" style="stop-color:#979797"/>
	<stop  offset="0.5394" style="stop-color:#E4E4E4"/>
	<stop  offset="0.703" style="stop-color:#CACACA"/>
	<stop  offset="0.9879" style="stop-color:#4D4D4D"/>
</linearGradient>
<rect x="156" fill="url(#SVGID_7_)" width="19" height="115"/>
</svg>
