<?xml version="1.0" encoding="utf-8"?>
<!-- Generator: Adobe Illustrator 15.0.0, SVG Export Plug-In  -->
<!DOCTYPE svg PUBLIC "-//W3C//DTD SVG 1.1//EN" "http://www.w3.org/Graphics/SVG/1.1/DTD/svg11.dtd" [
	<!ENTITY ns_flows "http://ns.adobe.com/Flows/1.0/">
]>
<svg version="1.1"
	 xmlns="http://www.w3.org/2000/svg" xmlns:xlink="http://www.w3.org/1999/xlink" xmlns:a="http://ns.adobe.com/AdobeSVGViewerExtensions/3.0/"
	 x="0px" y="0px" width="180px" height="135px" viewBox="0 -0.698 180 135" enable-background="new 0 -0.698 180 135"
	 xml:space="preserve">
<defs>
</defs>
<linearGradient id="SVGID_1_" gradientUnits="userSpaceOnUse" x1="-412.4995" y1="1659.1772" x2="-412.4995" y2="1614.1772" gradientTransform="matrix(0 -1 1 0 -1546.1772 -300.8228)">
	<stop  offset="0" style="stop-color:#4D4D4D"/>
	<stop  offset="0.3091" style="stop-color:#979797"/>
	<stop  offset="0.6182" style="stop-color:#E4E4E4"/>
	<stop  offset="0.9879" style="stop-color:#4D4D4D"/>
</linearGradient>
<rect x="68" y="89.177" fill="url(#SVGID_1_)" width="45" height="45"/>
<linearGradient id="SVGID_2_" gradientUnits="userSpaceOnUse" x1="-412.5" y1="1727.6772" x2="-412.5" y2="1682.6772" gradientTransform="matrix(-1 0 0 -1 -256.5 1766.8545)">
	<stop  offset="0" style="stop-color:#4D4D4D"/>
	<stop  offset="0.3091" style="stop-color:#979797"/>
	<stop  offset="0.6182" style="stop-color:#E4E4E4"/>
	<stop  offset="0.9879" style="stop-color:#4D4D4D"/>
</linearGradient>
<rect x="132" y="39.177" fill="url(#SVGID_2_)" width="48" height="45"/>
<linearGradient id="SVGID_3_" gradientUnits="userSpaceOnUse" x1="-280.5" y1="1729.6772" x2="-280.5" y2="1684.6772" gradientTransform="matrix(-1 0 0 -1 -256.5 1766.8545)">
	<stop  offset="0" style="stop-color:#4D4D4D"/>
	<stop  offset="0.3091" style="stop-color:#979797"/>
	<stop  offset="0.6182" style="stop-color:#E4E4E4"/>
	<stop  offset="0.9879" style="stop-color:#4D4D4D"/>
</linearGradient>
<rect y="37.177" fill="url(#SVGID_3_)" width="48" height="45"/>
<g>
	<radialGradient id="SVGID_4_" cx="90.9028" cy="83.311" r="42.3315" gradientUnits="userSpaceOnUse">
		<stop  offset="0" style="stop-color:#000000"/>
		<stop  offset="1" style="stop-color:#1A1A1A"/>
	</radialGradient>
	<polygon fill="url(#SVGID_4_)" points="36,107.177 90.903,59.444 145.806,107.177 	"/>
	<g>
		<path fill="#1A1A1A" d="M36.265,107.926c17.875-15.541,35.75-31.081,53.624-46.621c1.017-0.884,1.103-0.803,0.869-1.007
			c1.009,0.877,2.018,1.754,3.026,2.631c4.684,4.072,9.367,8.143,14.05,12.215c11.119,9.667,22.239,19.334,33.358,29.002
			c1.173,1.02,2.346,2.04,3.52,3.06c1.077,0.937,0.648,0.081,0.903,0.081c-2.556,0-5.112,0-7.668,0c-12.534,0-25.069,0-37.603,0
			c-21.448,0-42.896,0-64.344,0c-0.483,0-0.483,0.75,0,0.75c36.602,0,73.204,0,109.806,0c0.311,0,0.519-0.419,0.265-0.64
			c-18.301-15.911-36.602-31.822-54.903-47.733c-0.163-0.142-0.368-0.142-0.53,0c-18.301,15.911-36.602,31.822-54.903,47.733
			C35.369,107.713,35.902,108.242,36.265,107.926z"/>
	</g>
</g>
<polygon opacity="0.58" fill="#333333" points="38.511,106.177 90.636,60.798 142.76,106.177 "/>
<radialGradient id="SVGID_5_" cx="90.8013" cy="83.6538" r="38.0317" gradientUnits="userSpaceOnUse">
	<stop  offset="0" style="stop-color:#FFFFFF"/>
	<stop  offset="0.3697" style="stop-color:#6B6B6B"/>
	<stop  offset="0.7818" style="stop-color:#666666"/>
</radialGradient>
<polygon opacity="0.75" fill="url(#SVGID_5_)" points="41.511,105.177 90.802,62.131 140.092,105.177 "/>
<g>
	
		<radialGradient id="SVGID_6_" cx="154.8315" cy="12.731" r="44.2852" gradientTransform="matrix(0 -0.9093 1.2123 0 104.6323 193.8378)" gradientUnits="userSpaceOnUse">
		<stop  offset="0" style="stop-color:#000000"/>
		<stop  offset="1" style="stop-color:#1A1A1A"/>
	</radialGradient>
	<polygon fill="url(#SVGID_6_)" points="149,105.697 91.133,59.044 149,0.391 	"/>
	<g>
		<path fill="#1A1A1A" d="M149.048,105.418c-18.672-15.054-37.344-30.107-56.016-45.161c-1.065-0.858-1.341-1.451-1.839-0.946
			c0.679-0.688,1.357-1.375,2.035-2.063c3.842-3.894,7.684-7.788,11.525-11.682c11.022-11.172,22.045-22.344,33.067-33.516
			c3.314-3.359,6.628-6.719,9.943-10.078c0.337-0.341,0.674-0.683,1.011-1.024c0.598-0.606-0.397,0.153-0.397-0.506
			c0,0.761,0,1.522,0,2.284c0,11.195,0,22.391,0,33.585c0,23.129,0,46.257,0,69.386c0,0.508,0.787,0.508,0.787,0
			c0-35.102,0-70.204,0-105.306c0-0.342-0.43-0.523-0.672-0.278c-19.289,19.551-38.578,39.102-57.867,58.653
			c-0.139,0.14-0.168,0.421,0,0.557c19.289,15.551,38.578,31.102,57.867,46.652C148.883,106.291,149.443,105.737,149.048,105.418z"
			/>
	</g>
</g>
<polygon opacity="0.58" fill="#333333" points="148,103.414 92.986,59.287 148,3.161 "/>
<radialGradient id="SVGID_7_" cx="154.9268" cy="13.3628" r="39.9856" gradientTransform="matrix(0 -0.9093 1.2123 0 104.7078 194.0113)" gradientUnits="userSpaceOnUse">
	<stop  offset="0" style="stop-color:#FFFFFF"/>
	<stop  offset="0.3697" style="stop-color:#6B6B6B"/>
	<stop  offset="0.7818" style="stop-color:#666666"/>
</radialGradient>
<polygon opacity="0.75" fill="url(#SVGID_7_)" points="147,100.686 94.815,59.136 147,5.587 "/>
<g>
	
		<radialGradient id="SVGID_8_" cx="154.8315" cy="122.9951" r="44.2852" gradientTransform="matrix(0 -0.9093 -1.2123 0 211.0396 193.8378)" gradientUnits="userSpaceOnUse">
		<stop  offset="0" style="stop-color:#000000"/>
		<stop  offset="1" style="stop-color:#1A1A1A"/>
	</radialGradient>
	<polygon fill="url(#SVGID_8_)" points="33,105.697 90.867,59.044 33,0.391 	"/>
	<g>
		<path fill="#1A1A1A" d="M33.181,105.975C52.47,90.424,71.759,74.874,91.047,59.323c0.168-0.135,0.138-0.417,0-0.557
			C71.759,39.215,52.47,19.664,33.181,0.113c-0.242-0.245-0.672-0.063-0.672,0.278c0,35.102,0,70.204,0,105.306
			c0,0.508,0.787,0.508,0.787,0c0-24.384,0-48.769,0-73.153c0-10.457,0-20.914,0-31.37c0-1.102-0.732-0.565-0.397-0.226
			c1.01,1.024,2.02,2.047,3.029,3.071c4.249,4.306,8.497,8.612,12.746,12.919C59.241,27.649,69.809,38.36,80.377,49.072
			c3.081,3.123,6.162,6.246,9.243,9.369c0.979,0.991,0.686,0.475,0.654,0.5c-0.996,0.803-1.993,1.606-2.989,2.41
			C69.064,76.04,50.844,90.729,32.624,105.418C32.229,105.737,32.789,106.291,33.181,105.975z"/>
	</g>
</g>
<polygon opacity="0.58" fill="#333333" points="34,103.414 89.014,59.287 34,3.161 "/>
<radialGradient id="SVGID_9_" cx="154.9268" cy="123.6265" r="39.9856" gradientTransform="matrix(0 -0.9093 -1.2123 0 210.9641 194.0113)" gradientUnits="userSpaceOnUse">
	<stop  offset="0" style="stop-color:#FFFFFF"/>
	<stop  offset="0.3697" style="stop-color:#6B6B6B"/>
	<stop  offset="0.7818" style="stop-color:#666666"/>
</radialGradient>
<polygon opacity="0.75" fill="url(#SVGID_9_)" points="35,100.686 87.185,59.136 35,5.587 "/>
</svg>
