<?xml version="1.0" encoding="utf-8"?>
<!-- Generator: Adobe Illustrator 15.0.0, SVG Export Plug-In  -->
<!DOCTYPE svg PUBLIC "-//W3C//DTD SVG 1.1//EN" "http://www.w3.org/Graphics/SVG/1.1/DTD/svg11.dtd" [
	<!ENTITY ns_flows "http://ns.adobe.com/Flows/1.0/">
]>
<svg version="1.1"
	 xmlns="http://www.w3.org/2000/svg" xmlns:xlink="http://www.w3.org/1999/xlink" xmlns:a="http://ns.adobe.com/AdobeSVGViewerExtensions/3.0/"
	 x="0px" y="0px" width="45px" height="45px" viewBox="-0.446 -0.445 45 45" enable-background="new -0.446 -0.445 45 45"
	 xml:space="preserve">
<defs>
</defs>
<path d="M22.055,0C9.894,0,0,9.894,0,22.055c0,12.16,9.894,22.055,22.055,22.055c12.16,0,22.053-9.895,22.053-22.055
	C44.107,9.894,34.215,0,22.055,0z M22.055,39.819c-9.796,0-17.765-7.969-17.765-17.765c0-9.795,7.969-17.766,17.765-17.766
	c9.794,0,17.764,7.971,17.764,17.766C39.818,31.851,31.849,39.819,22.055,39.819z"/>
<path d="M32.187,20.547l-9.58-7.564c-0.387-0.307-0.649-0.363-1.093-0.148c-0.443,0.216-0.459,0.666-0.459,1.158V29.12
	c0,0.493,0.016,0.943,0.459,1.159c0.179,0.086,0.238,0.128,0.43,0.128c0.283,0,0.498-0.094,0.729-0.276l9.546-7.564
	c0.31-0.244,0.473-0.616,0.473-1.01C32.692,21.162,32.495,20.79,32.187,20.547z"/>
<path d="M20.318,20.547l-9.58-7.564c-0.387-0.307-1.215-0.363-1.659-0.148C8.637,13.05,8.054,13.5,8.054,13.992V29.12
	c0,0.493,0.583,0.943,1.026,1.159c0.178,0.086,0.521,0.128,0.712,0.128c0.283,0,0.641-0.094,0.872-0.276l9.617-7.564
	c0.31-0.244,0.507-0.616,0.507-1.01C20.788,21.162,20.628,20.79,20.318,20.547z"/>
<path d="M35.054,28.768c0,0.711-0.576,1.287-1.286,1.287H33.34c-0.71,0-1.286-0.576-1.286-1.287V15.342
	c0-0.711,0.576-1.287,1.286-1.287h0.428c0.71,0,1.286,0.576,1.286,1.287V28.768z"/>
</svg>
