<?xml version="1.0" encoding="utf-8"?>
<!-- Generator: Adobe Illustrator 15.0.0, SVG Export Plug-In  -->
<!DOCTYPE svg PUBLIC "-//W3C//DTD SVG 1.1//EN" "http://www.w3.org/Graphics/SVG/1.1/DTD/svg11.dtd" [
	<!ENTITY ns_flows "http://ns.adobe.com/Flows/1.0/">
]>
<svg version="1.1"
	 xmlns="http://www.w3.org/2000/svg" xmlns:xlink="http://www.w3.org/1999/xlink" xmlns:a="http://ns.adobe.com/AdobeSVGViewerExtensions/3.0/"
	 x="0px" y="0px" width="50px" height="50px" viewBox="-0.154 -0.24 50 50" enable-background="new -0.154 -0.24 50 50"
	 xml:space="preserve">
<defs>
</defs>
<path d="M47.305,35.917h-6.568V11.388c0-0.214-0.037-0.419-0.09-0.617l7.511-7.51c0.47-0.471,0.47-1.233,0-1.704
	c-0.471-0.47-1.233-0.47-1.704,0l-7.51,7.511c-0.198-0.052-0.402-0.09-0.617-0.09H13.797V2.41c0-1.329-1.079-2.41-2.409-2.41
	c-1.331,0-2.41,1.081-2.41,2.41v6.569H2.41c-1.331,0-2.41,1.08-2.41,2.41c0,1.332,1.079,2.409,2.41,2.409h6.569v24.529
	c0,1.332,1.079,2.41,2.41,2.41h24.529v6.569c0,1.332,1.079,2.41,2.409,2.41c1.331,0,2.41-1.078,2.41-2.41v-6.569h6.568
	c1.331,0,2.41-1.078,2.41-2.41C49.714,36.997,48.635,35.917,47.305,35.917z M34.213,13.797L13.797,34.213V13.797H34.213z
	 M15.501,35.917l20.416-20.416v20.416H15.501z"/>
</svg>
