<?xml version="1.0" encoding="utf-8"?>
<!-- Generator: Adobe Illustrator 15.0.0, SVG Export Plug-In  -->
<!DOCTYPE svg PUBLIC "-//W3C//DTD SVG 1.1//EN" "http://www.w3.org/Graphics/SVG/1.1/DTD/svg11.dtd" [
	<!ENTITY ns_flows "http://ns.adobe.com/Flows/1.0/">
]>
<svg version="1.1"
	 xmlns="http://www.w3.org/2000/svg" xmlns:xlink="http://www.w3.org/1999/xlink" xmlns:a="http://ns.adobe.com/AdobeSVGViewerExtensions/3.0/"
	 x="0px" y="0px" width="45px" height="38px" viewBox="-0.145 -0.833 45 38" enable-background="new -0.145 -0.833 45 38"
	 xml:space="preserve">
<defs>
</defs>
<path d="M44.525,4.47c-0.285-0.338-0.759-0.449-1.165-0.27c-0.4,0.177-0.806,0.338-1.219,0.482c0.602-0.831,1.073-1.755,1.388-2.745
	c0.125-0.393-0.005-0.823-0.328-1.08c-0.324-0.257-0.772-0.288-1.127-0.078c-1.485,0.881-3.078,1.519-4.739,1.9
	C35.529,0.97,33.108,0,30.606,0c-5.387,0-9.77,4.382-9.77,9.77c0,0.304,0.014,0.608,0.042,0.91
	c-6.284-0.643-12.11-3.773-16.136-8.708c-0.206-0.253-0.521-0.39-0.85-0.363C3.568,1.633,3.275,1.817,3.112,2.1
	C2.247,3.59,1.79,5.288,1.79,7.011c0,1.986,0.597,3.886,1.674,5.478c-0.09-0.045-0.179-0.093-0.267-0.142
	c-0.306-0.17-0.684-0.111-0.988,0.066c-0.304,0.179-0.49,0.56-0.49,0.912c0,3.128,1.498,5.978,3.865,7.782
	c-0.204,0.044-0.393,0.151-0.536,0.312c-0.234,0.263-0.312,0.63-0.205,0.965c0.997,3.116,3.464,5.466,6.499,6.377
	c-3.056,1.75-6.628,2.489-10.229,2.059c-0.461-0.05-0.897,0.215-1.054,0.652c-0.156,0.437,0.009,0.923,0.399,1.173
	c4.179,2.682,9.017,4.099,13.99,4.099c16.25,0,25.96-13.2,25.96-25.96c0-0.215-0.003-0.432-0.008-0.647
	c1.628-1.248,3.036-2.75,4.191-4.473C44.837,5.296,44.811,4.809,44.525,4.47z"/>
</svg>
