<?xml version="1.0" encoding="utf-8"?>
<!-- Generator: Adobe Illustrator 15.0.0, SVG Export Plug-In  -->
<!DOCTYPE svg PUBLIC "-//W3C//DTD SVG 1.1//EN" "http://www.w3.org/Graphics/SVG/1.1/DTD/svg11.dtd" [
	<!ENTITY ns_flows "http://ns.adobe.com/Flows/1.0/">
]>
<svg version="1.1"
	 xmlns="http://www.w3.org/2000/svg" xmlns:xlink="http://www.w3.org/1999/xlink" xmlns:a="http://ns.adobe.com/AdobeSVGViewerExtensions/3.0/"
	 x="0px" y="0px" width="45px" height="45px" viewBox="-0.446 -0.446 45 45" enable-background="new -0.446 -0.446 45 45"
	 xml:space="preserve">
<defs>
</defs>
<path d="M22.054,0C9.894,0,0,9.894,0,22.054s9.894,22.054,22.054,22.054s22.054-9.894,22.054-22.054S34.215,0,22.054,0z
	 M22.054,39.818c-9.795,0-17.765-7.97-17.765-17.765s7.97-17.765,17.765-17.765s17.766,7.97,17.766,17.765
	S31.849,39.818,22.054,39.818z"/>
<path d="M30.604,12.946c-0.863-0.81-2.22-0.77-3.03,0.096l-5.52,5.879l-5.519-5.879c-0.812-0.865-2.168-0.904-3.032-0.096
	c-0.864,0.812-0.908,2.168-0.095,3.031l5.705,6.076l-5.705,6.076c-0.813,0.863-0.769,2.221,0.095,3.032
	c0.414,0.387,0.94,0.58,1.469,0.58c0.571,0,1.14-0.228,1.563-0.677l5.519-5.879l5.52,5.879c0.422,0.449,0.992,0.677,1.563,0.677
	c0.528,0,1.054-0.193,1.468-0.58c0.865-0.812,0.907-2.169,0.096-3.032l-5.706-6.076l5.706-6.076
	C31.511,15.114,31.469,13.758,30.604,12.946z"/>
</svg>
