<?xml version="1.0" encoding="utf-8"?>
<!-- Generator: Adobe Illustrator 15.0.0, SVG Export Plug-In  -->
<!DOCTYPE svg PUBLIC "-//W3C//DTD SVG 1.1//EN" "http://www.w3.org/Graphics/SVG/1.1/DTD/svg11.dtd" [
	<!ENTITY ns_flows "http://ns.adobe.com/Flows/1.0/">
]>
<svg version="1.1"
	 xmlns="http://www.w3.org/2000/svg" xmlns:xlink="http://www.w3.org/1999/xlink" xmlns:a="http://ns.adobe.com/AdobeSVGViewerExtensions/3.0/"
	 x="0px" y="0px" width="45px" height="45px" viewBox="-0.446 -0.445 45 45" enable-background="new -0.446 -0.445 45 45"
	 xml:space="preserve">
<defs>
</defs>
<path d="M22.054,0C9.893,0,0,9.894,0,22.055c0,12.16,9.893,22.055,22.054,22.055s22.054-9.895,22.054-22.055
	C44.107,9.894,34.215,0,22.054,0z M22.054,39.82c-9.795,0-17.765-7.97-17.765-17.765s7.97-17.766,17.765-17.766
	c9.796,0,17.765,7.971,17.765,17.766S31.85,39.82,22.054,39.82z"/>
<path d="M21.002,10.946l-9.211,13.069c-0.277,0.393-0.312,0.907-0.09,1.334c0.221,0.425,0.662,0.693,1.143,0.693h18.422
	c0.479,0,0.92-0.268,1.141-0.693c0.098-0.188,0.146-0.39,0.146-0.593c0-0.26-0.08-0.521-0.235-0.741l-9.21-13.069
	c-0.241-0.342-0.634-0.545-1.053-0.545C21.636,10.401,21.243,10.604,21.002,10.946z"/>
<path d="M34.747,30.031c0,0.948-0.768,1.716-1.716,1.716H12.463c-0.948,0-1.716-0.769-1.716-1.716v-0.567
	c0-0.948,0.768-1.716,1.716-1.716h20.568c0.948,0,1.716,0.769,1.716,1.716V30.031z"/>
</svg>
