<?xml version="1.0" encoding="utf-8"?>
<!-- Generator: Adobe Illustrator 15.0.0, SVG Export Plug-In  -->
<!DOCTYPE svg PUBLIC "-//W3C//DTD SVG 1.1//EN" "http://www.w3.org/Graphics/SVG/1.1/DTD/svg11.dtd" [
	<!ENTITY ns_flows "http://ns.adobe.com/Flows/1.0/">
]>
<svg version="1.1"
	 xmlns="http://www.w3.org/2000/svg" xmlns:xlink="http://www.w3.org/1999/xlink" xmlns:a="http://ns.adobe.com/AdobeSVGViewerExtensions/3.0/"
	 x="0px" y="0px" width="50px" height="36px" viewBox="-1 -0.127 50 36" enable-background="new -1 -0.127 50 36"
	 xml:space="preserve">
<defs>
</defs>
<path d="M23.266,0.21c-0.488,0-1.258-0.381-1.667-0.117L9.686,7.068H5.573C2.734,7.068,0,10.422,0,13.261v9.271
	c0,2.839,2.734,5.536,5.573,5.536h4.113l11.618,7.302c0.411,0.266,1.473,0.308,1.961,0.308c2.839,0,5.734-2.406,5.734-5.245V5.36
	C29,2.521,26.104,0.21,23.266,0.21z M6,13.261c0-0.042-0.469-0.193-0.427-0.193h4.861c0.488,0,1.086-0.081,1.497-0.347L23,5.717
	v24.36l-11.071-6.334c-0.412-0.265-1.009,0.326-1.495,0.326H5.573C5.531,24.068,6,22.574,6,22.532V13.261z"/>
<path d="M42.961,16.718l4.01-4.271c0.428-0.455,0.653-1.049,0.633-1.672c-0.02-0.625-0.281-1.204-0.736-1.631
	c-0.904-0.848-2.458-0.798-3.302,0.104l-3.81,4.057l-3.808-4.057c-0.847-0.902-2.397-0.953-3.303-0.104
	c-0.938,0.882-0.985,2.364-0.104,3.303l4.011,4.271l-4.011,4.271c-0.881,0.939-0.834,2.42,0.106,3.306
	c0.912,0.849,2.459,0.792,3.3-0.106l3.808-4.058l3.81,4.058c0.439,0.468,1.06,0.737,1.703,0.737c0.595,0,1.162-0.224,1.6-0.633
	c0.939-0.882,0.985-2.364,0.104-3.304L42.961,16.718z"/>
</svg>
