<?xml version="1.0" encoding="utf-8"?>
<!-- Generator: Adobe Illustrator 15.0.0, SVG Export Plug-In  -->
<!DOCTYPE svg PUBLIC "-//W3C//DTD SVG 1.1//EN" "http://www.w3.org/Graphics/SVG/1.1/DTD/svg11.dtd" [
	<!ENTITY ns_flows "http://ns.adobe.com/Flows/1.0/">
]>
<svg version="1.1"
	 xmlns="http://www.w3.org/2000/svg" xmlns:xlink="http://www.w3.org/1999/xlink" xmlns:a="http://ns.adobe.com/AdobeSVGViewerExtensions/3.0/"
	 x="0px" y="0px" width="45px" height="45px" viewBox="-0.446 -0.446 45 45" enable-background="new -0.446 -0.446 45 45"
	 xml:space="preserve">
<defs>
</defs>
<path d="M22.054,0C9.893,0,0,9.893,0,22.054c0,12.16,9.893,22.054,22.054,22.054s22.054-9.894,22.054-22.054
	C44.107,9.893,34.215,0,22.054,0z M22.054,39.818c-9.795,0-17.764-7.969-17.764-17.764S12.259,4.289,22.054,4.289
	s17.765,7.97,17.765,17.765S31.849,39.818,22.054,39.818z"/>
<path d="M29.625,13.194H14.481c-0.71,0-1.287,0.576-1.287,1.287v15.145c0,0.711,0.576,1.287,1.287,1.287h15.145
	c0.71,0,1.287-0.575,1.287-1.287V14.481C30.913,13.771,30.336,13.194,29.625,13.194z"/>
</svg>
