<?xml version="1.0" encoding="utf-8"?>
<!-- Generator: Adobe Illustrator 15.0.0, SVG Export Plug-In  -->
<!DOCTYPE svg PUBLIC "-//W3C//DTD SVG 1.1//EN" "http://www.w3.org/Graphics/SVG/1.1/DTD/svg11.dtd" [
	<!ENTITY ns_flows "http://ns.adobe.com/Flows/1.0/">
]>
<svg version="1.1"
	 xmlns="http://www.w3.org/2000/svg" xmlns:xlink="http://www.w3.org/1999/xlink" xmlns:a="http://ns.adobe.com/AdobeSVGViewerExtensions/3.0/"
	 x="0px" y="0px" width="46px" height="50px" viewBox="-0.009 0 46 50" enable-background="new -0.009 0 46 50"
	 xml:space="preserve">
<defs>
</defs>
<path d="M45.974,18.025c-0.542-5.35-4.141-8.544-9.628-8.544c-0.188,0-0.366,0.004-0.533,0.011C33.506,2.428,30.14,0,23.012,0
	c-7.962,0-11.387,4.802-12.41,8.299C2.311,8.321,0.041,16.312,0,20.588c0.179,8.877,6.223,9.836,8.813,9.836
	c0.823,0,1.558-0.084,2.127-0.181c2.604,3.571,5.434,4.536,7.535,4.646l-2.588,4.38h7.185l-9.52,10.388l19.893-12.813l-9.416-1.886
	l0.409-1.653c1.566,0.807,3.186,1.218,4.831,1.218c4.872,0,8.525-3.56,9.902-5.132c1.46-0.002,2.787-0.56,3.835-1.613
	c2.917-2.929,2.978-8.922,2.976-9.596L45.974,18.025z M20.55,31.381c-0.504,0.148-1.059,0.249-1.645,0.249
	c-2.154,0-4.125-1.379-5.855-4.1l-0.669-1.041l-1.184,0.352c-0.01,0.003-1.059,0.311-2.384,0.311c-3.64,0-5.453-2.169-5.542-6.578
	c0.006-0.367,0.212-9.003,7.365-9.003c0.355,0,0.728,0.02,1.108,0.061l1.6,0.156l0.195-1.596c0.086-0.708,1.09-6.92,9.472-6.92
	c5.633,0,8,1.273,10.056,8.427l0.415,1.42l1.456-0.264c0.005-0.001,0.58-0.104,1.408-0.104c3.825,0,5.965,1.858,6.364,5.522
	c-0.008,1.433-0.385,5.552-2.021,7.195c-0.551,0.552-1.174,0.738-1.997,0.612l-0.979-0.15l-0.586,0.798
	c-0.034,0.045-3.375,4.521-7.857,4.522c-1.344,0-2.693-0.421-4.014-1.243L20.55,31.381z"/>
</svg>
