<?xml version="1.0" encoding="utf-8"?>
<!-- Generator: Adobe Illustrator 15.0.0, SVG Export Plug-In  -->
<!DOCTYPE svg PUBLIC "-//W3C//DTD SVG 1.1//EN" "http://www.w3.org/Graphics/SVG/1.1/DTD/svg11.dtd" [
	<!ENTITY ns_flows "http://ns.adobe.com/Flows/1.0/">
]>
<svg version="1.1"
	 xmlns="http://www.w3.org/2000/svg" xmlns:xlink="http://www.w3.org/1999/xlink" xmlns:a="http://ns.adobe.com/AdobeSVGViewerExtensions/3.0/"
	 x="0px" y="0px" width="60px" height="50px" viewBox="-0.417 -0.257 60 50" enable-background="new -0.417 -0.257 60 50"
	 xml:space="preserve">
<defs>
</defs>
<path d="M59.088,32.556c-0.542-5.351-4.141-8.545-9.628-8.545c-0.188,0-0.367,0.004-0.534,0.01
	c-2.306-7.063-5.673-9.491-12.801-9.491c-0.293,0-0.568,0.02-0.851,0.033c-2.624-3.955-7.111-6.57-12.203-6.57
	c-8.072,0-14.64,6.568-14.64,14.64c0,4.282,1.859,8.129,4.799,10.808c-0.075,0.599-0.113,1.166-0.118,1.677
	c0.178,8.877,6.223,9.836,8.813,9.836c0.823,0,1.558-0.084,2.127-0.18c2.787,3.82,5.832,4.658,7.965,4.658
	c2.325,0,4.263-0.971,5.368-1.678c1.618,0.864,3.293,1.3,4.995,1.3c4.872,0,8.525-3.559,9.902-5.131
	c1.46-0.003,2.787-0.56,3.836-1.613c2.917-2.929,2.979-8.922,2.976-9.596L59.088,32.556z M14.31,29.334
	c-1.426-1.861-2.285-4.18-2.285-6.701c0-6.091,4.956-11.046,11.047-11.046c3.252,0,6.176,1.416,8.199,3.66
	c-4.568,1.464-6.772,4.903-7.556,7.584C18.545,22.844,15.717,25.957,14.31,29.334z M36.88,17.75c5.089,0.15,7.34,1.658,9.301,8.48
	l0.415,1.42l1.456-0.265c0.006,0,0.58-0.103,1.409-0.103c3.825,0,5.966,1.858,6.365,5.522c-0.009,1.433-0.386,5.552-2.022,7.194
	c-0.55,0.553-1.174,0.739-1.997,0.613l-0.979-0.15l-0.586,0.799c-0.034,0.045-3.375,4.521-7.857,4.521
	c-1.404,0-2.814-0.454-4.192-1.352l-1.039-0.676l-0.932,0.818c-0.019,0.016-1.875,1.588-4.2,1.588c-2.155,0-4.125-1.38-5.856-4.1
	l-0.669-1.04l-1.184,0.352c-0.01,0.003-1.059,0.31-2.384,0.31c-3.484,0-5.666-1.988-5.517-6.029
	c0.036-0.971,0.231-2.921,0.504-3.854c0.781-2.671,2.53-5.698,6.836-5.698c0.354,0,0.728,0.02,1.108,0.06l1.6,0.157l0.195-1.596
	c0.076-0.613,0.931-5.011,6.498-6.613C34.176,17.815,35.837,17.72,36.88,17.75z M23.988,5.736c0.006,0.794-0.631,1.443-1.425,1.45
	l0,0c-0.793,0.006-1.442-0.632-1.449-1.426l-0.035-4.311C21.072,0.655,21.71,0.007,22.503,0l0,0
	c0.794-0.007,1.443,0.632,1.449,1.425L23.988,5.736z M31.339,7.518c-0.315,0.729-1.16,1.065-1.889,0.751l0,0
	c-0.729-0.314-1.065-1.161-0.75-1.889l1.708-3.958c0.314-0.729,1.16-1.065,1.888-0.751l0,0c0.729,0.314,1.065,1.16,0.751,1.888
	L31.339,7.518z M36.757,12.1c-0.582,0.539-1.491,0.505-2.031-0.076l0,0c-0.54-0.583-0.505-1.492,0.076-2.032l3.161-2.931
	c0.582-0.54,1.491-0.506,2.031,0.076l0,0c0.54,0.582,0.505,1.491-0.076,2.03L36.757,12.1z M6.406,16.343
	c0.753,0.251,1.16,1.065,0.909,1.818l0,0c-0.251,0.753-1.065,1.159-1.819,0.908l-4.088-1.364c-0.753-0.251-1.16-1.065-0.909-1.817
	l0,0c0.251-0.753,1.065-1.159,1.818-0.908L6.406,16.343z M10.475,9.966c0.588,0.535,0.632,1.443,0.098,2.03l0,0
	c-0.534,0.588-1.443,0.632-2.03,0.098l-3.19-2.899C4.764,8.662,4.72,7.754,5.253,7.166l0,0c0.534-0.588,1.443-0.631,2.029-0.097
	L10.475,9.966z M16.566,6.326c0.322,0.726-0.005,1.575-0.73,1.897l0,0c-0.726,0.321-1.576-0.006-1.897-0.731L12.19,3.551
	c-0.322-0.725,0.005-1.574,0.73-1.896l0,0c0.725-0.322,1.574,0.005,1.896,0.73L16.566,6.326z M6.467,30.24
	c0.734-0.303,1.575,0.046,1.877,0.78l0,0c0.303,0.733-0.046,1.574-0.78,1.876l-3.985,1.645c-0.734,0.303-1.573-0.046-1.876-0.779
	l0,0c-0.304-0.733,0.045-1.574,0.779-1.876L6.467,30.24z M5.781,23.178c0.793,0.02,1.421,0.678,1.402,1.471l0,0
	c-0.02,0.793-0.679,1.42-1.472,1.403l-4.31-0.105C0.608,25.927-0.019,25.269,0,24.475l0,0c0.019-0.793,0.678-1.42,1.471-1.401
	L5.781,23.178z"/>
</svg>
