<?xml version="1.0" encoding="utf-8"?>
<!-- Generator: Adobe Illustrator 15.0.0, SVG Export Plug-In  -->
<!DOCTYPE svg PUBLIC "-//W3C//DTD SVG 1.1//EN" "http://www.w3.org/Graphics/SVG/1.1/DTD/svg11.dtd" [
	<!ENTITY ns_flows "http://ns.adobe.com/Flows/1.0/">
]>
<svg version="1.1"
	 xmlns="http://www.w3.org/2000/svg" xmlns:xlink="http://www.w3.org/1999/xlink" xmlns:a="http://ns.adobe.com/AdobeSVGViewerExtensions/3.0/"
	 x="0px" y="0px" width="48px" height="42px" viewBox="0 -0.45 48 42" enable-background="new 0 -0.45 48 42" xml:space="preserve">
<defs>
</defs>
<path d="M22.312,3.637c-0.489,0-1.235-0.129-1.646,0.136L8.777,11H4.664C1.826,11,0,13.847,0,16.686v9.271
	C0,28.797,1.826,31,4.664,31h4.113l11.619,7.548c0.411,0.265,1.427,0.433,1.916,0.433c2.839,0,5.688-2.284,5.688-5.122V8.785
	C28,5.947,25.15,3.637,22.312,3.637z M5,16.686C5,16.645,4.622,16,4.664,16h4.861c0.489,0,1.042,0.164,1.451-0.101L22,9.142v24.36
	l-11.025-6.08C10.563,27.157,10.012,28,9.524,28H4.664C4.622,28,5,25.999,5,25.957V16.686z"/>
<path d="M37.624,0.315c-0.761-0.542-1.816-0.366-2.358,0.394c-0.542,0.76-0.367,1.816,0.394,2.358
	c4.909,3.505,7.959,10.204,7.959,17.483c0,7.281-3.05,13.98-7.959,17.483c-0.76,0.542-0.936,1.598-0.394,2.359
	c0.329,0.461,0.849,0.708,1.377,0.708c0.34,0,0.683-0.102,0.981-0.315C43.408,36.658,47,28.904,47,20.55
	C47,12.197,43.408,4.444,37.624,0.315z"/>
<path d="M34.558,9.821c-0.759-0.542-1.815-0.367-2.358,0.394c-0.541,0.761-0.366,1.816,0.395,2.359
	c2.214,1.579,3.589,4.637,3.589,7.976c0,3.341-1.375,6.398-3.589,7.979c-0.761,0.542-0.936,1.598-0.395,2.358
	c0.331,0.462,0.85,0.708,1.377,0.708c0.34,0,0.683-0.102,0.98-0.314c3.089-2.204,5.008-6.315,5.008-10.73
	C39.566,16.136,37.647,12.025,34.558,9.821z"/>
</svg>
