<?xml version="1.0" encoding="utf-8"?>
<!-- Generator: Adobe Illustrator 15.0.0, SVG Export Plug-In  -->
<!DOCTYPE svg PUBLIC "-//W3C//DTD SVG 1.1//EN" "http://www.w3.org/Graphics/SVG/1.1/DTD/svg11.dtd" [
	<!ENTITY ns_flows "http://ns.adobe.com/Flows/1.0/">
]>
<svg version="1.1"
	 xmlns="http://www.w3.org/2000/svg" xmlns:xlink="http://www.w3.org/1999/xlink" xmlns:a="http://ns.adobe.com/AdobeSVGViewerExtensions/3.0/"
	 x="0px" y="0px" width="46px" height="50px" viewBox="-0.009 0 46 50" enable-background="new -0.009 0 46 50"
	 xml:space="preserve">
<defs>
</defs>
<path d="M18.906,34.901c-2.133,0-5.179-0.837-7.966-4.658c-0.569,0.096-1.304,0.18-2.127,0.18c-2.59,0-8.635-0.958-8.813-9.835
	C0.041,16.312,2.31,8.321,10.602,8.299C11.625,4.801,15.05,0,23.011,0c7.128,0,10.495,2.428,12.801,9.491
	c0.167-0.006,0.346-0.01,0.534-0.01c5.487,0,9.085,3.194,9.627,8.544l0.009,0.159c0.002,0.674-0.059,6.667-2.976,9.595
	c-1.049,1.053-2.375,1.61-3.836,1.613c-1.376,1.572-5.03,5.131-9.901,5.131c-1.702,0-3.378-0.437-4.996-1.3
	C23.169,33.931,21.23,34.901,18.906,34.901z M12.381,26.489l0.669,1.041c1.731,2.72,3.702,4.1,5.856,4.1
	c2.325,0,4.181-1.572,4.199-1.588l0.933-0.818l1.039,0.677c1.377,0.897,2.788,1.352,4.192,1.352c4.482,0,7.823-4.476,7.857-4.521
	l0.587-0.798l0.979,0.149c0.823,0.126,1.447-0.06,1.997-0.612c1.636-1.642,2.014-5.762,2.022-7.195
	c-0.399-3.665-2.54-5.522-6.364-5.522c-0.829,0-1.403,0.102-1.409,0.104l-1.456,0.264l-0.415-1.42
	c-2.057-7.154-4.422-8.427-10.056-8.427c-8.381,0-9.385,6.212-9.471,6.92l-0.195,1.595l-1.6-0.157
	c-0.38-0.04-0.753-0.059-1.108-0.059c-7.153,0-7.359,8.636-7.365,9.003c0.089,4.409,1.902,6.577,5.542,6.577
	c1.325,0,2.374-0.307,2.384-0.31L12.381,26.489z"/>
<path d="M15.877,38.988c-0.175,0.818-1.173,0.83-1.173,0.83s-1.041-0.024-1.185-0.927c-0.149-0.941,0.536-2.736,1.196-2.736
	C15.329,36.155,16.076,38.054,15.877,38.988z"/>
<path d="M21.126,38.988c-0.174,0.818-1.173,0.83-1.173,0.83s-1.041-0.024-1.184-0.927c-0.15-0.941,0.535-2.736,1.196-2.736
	C20.578,36.155,21.325,38.054,21.126,38.988z"/>
<path d="M26.375,38.988c-0.175,0.818-1.172,0.83-1.172,0.83s-1.041-0.024-1.184-0.927c-0.15-0.941,0.535-2.736,1.195-2.736
	C25.827,36.155,26.574,38.054,26.375,38.988z"/>
<path d="M31.625,38.988c-0.175,0.818-1.173,0.83-1.173,0.83s-1.041-0.024-1.185-0.927c-0.149-0.941,0.536-2.736,1.196-2.736
	C31.076,36.155,31.823,38.054,31.625,38.988z"/>
<path d="M18.501,43.8c-0.174,0.818-1.172,0.83-1.172,0.83s-1.042-0.024-1.185-0.927c-0.15-0.941,0.535-2.735,1.196-2.735
	C17.953,40.968,18.7,42.865,18.501,43.8z"/>
<path d="M23.75,43.8c-0.175,0.818-1.173,0.83-1.173,0.83s-1.041-0.024-1.185-0.927c-0.149-0.941,0.536-2.735,1.196-2.735
	C23.203,40.968,23.95,42.865,23.75,43.8z"/>
<path d="M29,43.8c-0.175,0.818-1.173,0.83-1.173,0.83s-1.041-0.024-1.185-0.927c-0.149-0.941,0.536-2.735,1.196-2.735
	C28.452,40.968,29.199,42.865,29,43.8z"/>
<path d="M34.249,43.8c-0.174,0.818-1.172,0.83-1.172,0.83s-1.041-0.024-1.185-0.927c-0.149-0.941,0.535-2.735,1.196-2.735
	C33.7,40.968,34.448,42.865,34.249,43.8z"/>
<path d="M13.689,43.8c-0.174,0.818-1.172,0.83-1.172,0.83s-1.041-0.024-1.185-0.927c-0.149-0.941,0.536-2.735,1.197-2.735
	C13.142,40.968,13.889,42.865,13.689,43.8z"/>
<path d="M15.877,48.174c-0.175,0.818-1.173,0.83-1.173,0.83s-1.041-0.024-1.185-0.927c-0.149-0.941,0.536-2.736,1.196-2.736
	C15.329,45.341,16.076,47.24,15.877,48.174z"/>
<path d="M21.126,48.174c-0.174,0.818-1.173,0.83-1.173,0.83s-1.041-0.024-1.184-0.927c-0.15-0.941,0.535-2.736,1.196-2.736
	C20.578,45.341,21.325,47.24,21.126,48.174z"/>
<path d="M26.375,48.174c-0.175,0.818-1.172,0.83-1.172,0.83s-1.041-0.024-1.184-0.927c-0.15-0.941,0.535-2.736,1.195-2.736
	C25.827,45.341,26.574,47.24,26.375,48.174z"/>
<path d="M31.625,48.174c-0.175,0.818-1.173,0.83-1.173,0.83s-1.041-0.024-1.185-0.927c-0.149-0.941,0.536-2.736,1.196-2.736
	C31.076,45.341,31.823,47.24,31.625,48.174z"/>
<path d="M36.873,48.174c-0.174,0.818-1.172,0.83-1.172,0.83s-1.041-0.024-1.184-0.927c-0.15-0.941,0.535-2.736,1.196-2.736
	C36.325,45.341,37.072,47.24,36.873,48.174z"/>
<path d="M11.065,48.174c-0.174,0.818-1.172,0.83-1.172,0.83s-1.042-0.024-1.185-0.927c-0.149-0.941,0.535-2.736,1.196-2.736
	C10.517,45.341,11.264,47.24,11.065,48.174z"/>
</svg>
