<?xml version="1.0" encoding="utf-8"?>
<!-- Generator: Adobe Illustrator 15.0.0, SVG Export Plug-In  -->
<!DOCTYPE svg PUBLIC "-//W3C//DTD SVG 1.1//EN" "http://www.w3.org/Graphics/SVG/1.1/DTD/svg11.dtd" [
	<!ENTITY ns_flows "http://ns.adobe.com/Flows/1.0/">
]>
<svg version="1.1"
	 xmlns="http://www.w3.org/2000/svg" xmlns:xlink="http://www.w3.org/1999/xlink" xmlns:a="http://ns.adobe.com/AdobeSVGViewerExtensions/3.0/"
	 x="0px" y="0px" width="47px" height="45px" viewBox="0.031 0 47 45" enable-background="new 0.031 0 47 45" xml:space="preserve">
<defs>
</defs>
<path d="M45.649,39.497L31.816,27.15c1.964-2.895,3-6.254,3-9.744C34.815,7.809,27.006,0,17.408,0C7.809,0,0,7.809,0,17.406
	c0,9.6,7.809,17.409,17.408,17.409c3.591,0,7.037-1.097,9.988-3.174l14.063,12.552c0.339,0.303,0.783,0.463,1.285,0.463
	c0.87,0,1.816-0.477,2.531-1.276C46.446,42.063,46.611,40.357,45.649,39.497z M17.408,28.791c-6.277,0-11.385-5.108-11.385-11.385
	c0-6.278,5.107-11.386,11.385-11.386s11.385,5.107,11.385,11.386C28.793,23.683,23.685,28.791,17.408,28.791z"/>
<path d="M25.531,18.105c0-0.887-0.719-1.605-1.605-1.605H10.136c-0.887,0-1.605,0.719-1.605,1.605v0.789
	c0,0.887,0.719,1.605,1.605,1.605h13.789c0.887,0,1.605-0.719,1.605-1.605V18.105z"/>
</svg>
