<?xml version="1.0" encoding="utf-8"?>
<!-- Generator: Adobe Illustrator 15.0.0, SVG Export Plug-In  -->
<!DOCTYPE svg PUBLIC "-//W3C//DTD SVG 1.1//EN" "http://www.w3.org/Graphics/SVG/1.1/DTD/svg11.dtd" [
	<!ENTITY ns_flows "http://ns.adobe.com/Flows/1.0/">
]>
<svg version="1.1"
	 xmlns="http://www.w3.org/2000/svg" xmlns:xlink="http://www.w3.org/1999/xlink" xmlns:a="http://ns.adobe.com/AdobeSVGViewerExtensions/3.0/"
	 x="0px" y="0px" width="50px" height="50px" viewBox="-0.48 -0.48 50 50" enable-background="new -0.48 -0.48 50 50"
	 xml:space="preserve">
<defs>
</defs>
<path d="M41.867,7.174c-9.566-9.565-25.128-9.564-34.693,0s-9.565,25.127,0,34.691c9.564,9.565,25.127,9.565,34.693,0
	C51.43,32.301,51.431,16.738,41.867,7.174z M10.547,10.547c7.015-7.016,18.025-7.621,25.758-1.86L8.687,36.304
	C2.926,28.574,3.532,17.562,10.547,10.547z M38.492,38.491c-7.016,7.016-18.025,7.622-25.757,1.861l27.618-27.617
	C46.112,20.466,45.507,31.477,38.492,38.491z"/>
</svg>
