<?xml version="1.0" encoding="utf-8"?>
<!-- Generator: Adobe Illustrator 15.0.0, SVG Export Plug-In  -->
<!DOCTYPE svg PUBLIC "-//W3C//DTD SVG 1.1//EN" "http://www.w3.org/Graphics/SVG/1.1/DTD/svg11.dtd" [
	<!ENTITY ns_flows "http://ns.adobe.com/Flows/1.0/">
]>
<svg version="1.1"
	 xmlns="http://www.w3.org/2000/svg" xmlns:xlink="http://www.w3.org/1999/xlink" xmlns:a="http://ns.adobe.com/AdobeSVGViewerExtensions/3.0/"
	 x="0px" y="0px" width="65px" height="50px" viewBox="0 -0.885 65 50" enable-background="new 0 -0.885 65 50"
	 xml:space="preserve">
<defs>
</defs>
<path d="M58.372,16.115H33.648C33.082,6.115,25.801,0,16.852,0C7.56,0,0,7.382,0,16.674c0,1.448,1.179,2.539,2.628,2.539
	c1.45,0,2.629-1.223,2.629-2.673c0-6.394,5.201-11.616,11.594-11.616c6.392,0,11.592,5.19,11.592,11.583
	c0,0.207,0.269,0.406,0.316,0.606C26.872,18.607,26,20.884,26,23.288v18.14c0,4.349,3.05,7.687,7.399,7.687h24.973
	c4.349,0,6.628-3.338,6.628-7.687v-18.14C65,18.94,62.72,16.115,58.372,16.115z M61,41.485c0,1.452-1.177,2.629-2.629,2.629H34.628
	c-1.452,0-2.629-1.177-2.629-2.629V23.744c0-1.452,1.177-2.629,2.629-2.629h23.742c1.452,0,2.629,1.177,2.629,2.629V41.485z"/>
<path d="M45.884,25.919c-2.463,0-4.468,2.005-4.468,4.469c0,1.265,0.538,2.454,1.486,3.304l-0.693,6.579
	c-0.029,0.293,0.066,0.93,0.267,1.156c0.202,0.219,0.486,0.688,0.779,0.688h5.266h0.013c0.58,0,1.052-0.815,1.052-1.395
	c0-0.107-0.017-0.384-0.048-0.487l-0.671-6.454c0.948-0.852,1.485-2.083,1.485-3.349C50.352,27.967,48.347,25.919,45.884,25.919z"/>
</svg>
