<?xml version="1.0" encoding="utf-8"?>
<!-- Generator: Adobe Illustrator 15.0.0, SVG Export Plug-In  -->
<!DOCTYPE svg PUBLIC "-//W3C//DTD SVG 1.1//EN" "http://www.w3.org/Graphics/SVG/1.1/DTD/svg11.dtd" [
	<!ENTITY ns_flows "http://ns.adobe.com/Flows/1.0/">
]>
<svg version="1.1"
	 xmlns="http://www.w3.org/2000/svg" xmlns:xlink="http://www.w3.org/1999/xlink" xmlns:a="http://ns.adobe.com/AdobeSVGViewerExtensions/3.0/"
	 x="0px" y="0px" width="50px" height="34px" viewBox="-0.4 -0.065 50 34" enable-background="new -0.4 -0.065 50 34"
	 xml:space="preserve">
<defs>
</defs>
<path d="M24.766,22.927c-1.425,0-2.765,0.554-3.773,1.561c-1.007,1.007-1.562,2.347-1.561,3.771c0,1.424,0.556,2.764,1.563,3.771
	c1.009,1.009,2.349,1.563,3.774,1.563c1.423,0,2.761-0.554,3.769-1.561c1.008-1.008,1.563-2.348,1.563-3.772
	c0-1.425-0.555-2.764-1.563-3.772C27.53,23.48,26.19,22.927,24.766,22.927z"/>
<path d="M24.697,11.492c-6.175,0-11.97,2.394-16.316,6.741c-0.157,0.157-0.244,0.368-0.244,0.59c0,0.221,0.088,0.433,0.244,0.589
	l4.597,4.593c0.326,0.327,0.854,0.325,1.179,0c2.814-2.813,6.56-4.362,10.583-4.362c4.004,0.009,7.778,1.583,10.625,4.431
	c0.156,0.157,0.369,0.245,0.59,0.245c0.222,0,0.433-0.088,0.59-0.245l4.594-4.594c0.326-0.326,0.326-0.854,0-1.18
	C36.749,13.91,30.909,11.492,24.697,11.492z"/>
<path d="M49.257,10.189C42.687,3.619,33.949,0,24.654,0C15.415,0,6.746,3.582,0.244,10.084c-0.326,0.326-0.326,0.854,0,1.18
	l4.594,4.593c0.313,0.314,0.868,0.313,1.18,0c4.961-4.961,11.58-7.695,18.637-7.695c7.114,0,13.801,2.77,18.83,7.799
	c0.156,0.157,0.368,0.245,0.589,0.245c0.222,0,0.433-0.088,0.59-0.245l4.594-4.593c0.157-0.157,0.244-0.369,0.244-0.59
	S49.414,10.346,49.257,10.189z"/>
</svg>
