<?xml version="1.0" encoding="utf-8"?>
<!-- Generator: Adobe Illustrator 15.0.0, SVG Export Plug-In  -->
<!DOCTYPE svg PUBLIC "-//W3C//DTD SVG 1.1//EN" "http://www.w3.org/Graphics/SVG/1.1/DTD/svg11.dtd" [
	<!ENTITY ns_flows "http://ns.adobe.com/Flows/1.0/">
]>
<svg version="1.1"
	 xmlns="http://www.w3.org/2000/svg" xmlns:xlink="http://www.w3.org/1999/xlink" xmlns:a="http://ns.adobe.com/AdobeSVGViewerExtensions/3.0/"
	 x="0px" y="0px" width="36px" height="43px" viewBox="-0.13 0 36 43" enable-background="new -0.13 0 36 43" xml:space="preserve">
<defs>
</defs>
<path d="M34.521,0H14.066c-0.149,0-1.19,0-1.19,0s-0.454,0.381-1.013,0.398L0.325,10.65c-0.458,0.402-0.298,1.694-0.298,1.694
	L0.036,41.86c0,0.807,0.344,1.14,1.151,1.14h33.333c0.807,0,1.349,0.152,1.349-0.654V1.475C35.87,0.668,35.328,0,34.521,0z
	 M11.984,3.827l-0.013,7.061l-7.93,0.019L11.984,3.827z M32.87,40h-30V13.22l10.048-0.025c0.805-0.003,1.4-1.121,1.402-1.926
	L14.28,3H32.87V40z"/>
<path d="M5.87,24.417v0.166C5.87,25.365,6.504,26,7.287,26h9.583v9.583c0,0.782,0.634,1.417,1.417,1.417h0.166
	c0.783,0,1.417-0.635,1.417-1.417V26h8.583c0.783,0,1.417-0.635,1.417-1.417v-0.166c0-0.782-0.634-1.417-1.417-1.417H19.87v-8.583
	c0-0.782-0.634-1.417-1.417-1.417h-0.166c-0.783,0-1.417,0.635-1.417,1.417V23H7.287C6.504,23,5.87,23.635,5.87,24.417z"/>
</svg>
