<?xml version="1.0" encoding="utf-8"?>
<!-- Generator: Adobe Illustrator 15.0.0, SVG Export Plug-In  -->
<!DOCTYPE svg PUBLIC "-//W3C//DTD SVG 1.1//EN" "http://www.w3.org/Graphics/SVG/1.1/DTD/svg11.dtd" [
	<!ENTITY ns_flows "http://ns.adobe.com/Flows/1.0/">
]>
<svg version="1.1"
	 xmlns="http://www.w3.org/2000/svg" xmlns:xlink="http://www.w3.org/1999/xlink" xmlns:a="http://ns.adobe.com/AdobeSVGViewerExtensions/3.0/"
	 x="0px" y="0px" width="49px" height="49px" viewBox="-0.613 -0.47 49 49" enable-background="new -0.613 -0.47 49 49"
	 xml:space="preserve">
<defs>
</defs>
<path d="M45.058,21h-3.273c-0.46-3-1.529-5.247-3.074-7.417l2.311-2.305c1.17-1.172,1.17-3.071,0-4.245
	c-1.174-1.173-3.076-1.172-4.25,0.001l-2.47,2.311c-2.17-1.545-4.589-2.613-7.589-3.072V3.003c0-1.657-1.343-3.003-3-3.003
	c-1.659,0-3,1.346-3,3.003v3.271c-2,0.46-5.102,1.529-7.271,3.074l-2.235-2.313c-1.172-1.171-3.035-1.171-4.208,0
	c-1.173,1.173-1.154,3.076,0.02,4.249l2.322,2.299C7.794,15.753,6.736,18,6.276,21H3.003C1.346,21,0,22.343,0,24
	c0,1.659,1.346,3,3.003,3h3.273c0.46,2,1.529,5.275,3.074,7.445l-2.313,2.322c-1.172,1.172-1.172,3.079,0,4.252
	c1.173,1.173,3.076,1.175,4.249,0.002l2.155-2.312c2.17,1.544,5.271,2.614,7.271,3.074v3.274c0,1.659,1.343,3.004,3,3.004
	c1.658,0,3-1.345,3-3.004v-3.274c3-0.46,5.421-1.529,7.591-3.075l2.392,2.312c1.172,1.172,3.115,1.172,4.288,0
	c1.174-1.174,1.194-3.076,0.021-4.25l-2.301-2.327C40.247,32.274,41.325,29,41.785,27h3.273c1.657,0,3.003-1.342,3.003-3
	C48.061,22.341,46.714,21,45.058,21z M24.032,36.044c-6.637,0-12.015-5.38-12.015-12.015s5.378-12.015,12.015-12.015
	c6.636,0,12.015,5.38,12.015,12.015S30.667,36.044,24.032,36.044z"/>
<circle cx="24.029" cy="24.03" r="4.506"/>
</svg>
