<?xml version="1.0" encoding="utf-8"?>
<!-- Generator: Adobe Illustrator 15.0.0, SVG Export Plug-In  -->
<!DOCTYPE svg PUBLIC "-//W3C//DTD SVG 1.1//EN" "http://www.w3.org/Graphics/SVG/1.1/DTD/svg11.dtd" [
	<!ENTITY ns_flows "http://ns.adobe.com/Flows/1.0/">
]>
<svg version="1.1"
	 xmlns="http://www.w3.org/2000/svg" xmlns:xlink="http://www.w3.org/1999/xlink" xmlns:a="http://ns.adobe.com/AdobeSVGViewerExtensions/3.0/"
	 x="0px" y="0px" width="43px" height="42px" viewBox="-0.5 -0.332 43 42" enable-background="new -0.5 -0.332 43 42"
	 xml:space="preserve">
<defs>
</defs>
<path d="M41.637,39.392H7.427l5.734-1.819c0.78-0.068,1.542-0.385,2.139-0.98l24.807-24.807c1.346-1.345,1.345-3.534,0-4.879
	L34.21,1.009c-1.345-1.345-3.535-1.345-4.88,0L4.523,25.816c-0.596,0.595-0.913,1.358-0.98,2.139L0.077,38.88
	c-0.188,0.612-0.024,1.277,0.428,1.73c0.283,0.283,0.652,0.438,1.037,0.48c0.044,0.006,0.084,0.026,0.131,0.026h39.963
	c0.477,0,0.863-0.386,0.863-0.863C42.5,39.778,42.114,39.392,41.637,39.392z M31.77,3.449l5.897,5.897L13.47,33.542l-5.897-5.897
	L31.77,3.449z M6.618,29.42c0.024-0.08,0.035-0.16,0.049-0.241l5.27,5.271c-0.08,0.013-0.161,0.024-0.241,0.049l-7.354,2.277
	L6.618,29.42z"/>
</svg>
