<?xml version="1.0" encoding="utf-8"?>
<!-- Generator: Adobe Illustrator 15.0.0, SVG Export Plug-In  -->
<!DOCTYPE svg PUBLIC "-//W3C//DTD SVG 1.1//EN" "http://www.w3.org/Graphics/SVG/1.1/DTD/svg11.dtd" [
	<!ENTITY ns_flows "http://ns.adobe.com/Flows/1.0/">
]>
<svg version="1.1"
	 xmlns="http://www.w3.org/2000/svg" xmlns:xlink="http://www.w3.org/1999/xlink" xmlns:a="http://ns.adobe.com/AdobeSVGViewerExtensions/3.0/"
	 x="0px" y="0px" width="42px" height="42px" viewBox="-0.442 -0.441 42 42" enable-background="new -0.442 -0.441 42 42"
	 xml:space="preserve">
<defs>
</defs>
<path d="M40.105,6.906L34.21,1.009c-1.346-1.345-3.535-1.345-4.881,0L4.522,25.816c-0.595,0.595-0.912,1.358-0.981,2.139
	L0.077,38.88c-0.188,0.612-0.025,1.277,0.428,1.73c0.453,0.453,1.119,0.618,1.73,0.428l10.925-3.466
	c0.78-0.068,1.543-0.385,2.138-0.98l24.807-24.807C41.452,10.44,41.452,8.251,40.105,6.906z M11.694,34.498L4.34,36.775l2.278-7.355
	c0.023-0.08,0.035-0.161,0.047-0.241l5.271,5.271C11.856,34.462,11.775,34.473,11.694,34.498z M13.469,33.542l-5.897-5.897
	L31.769,3.449l5.897,5.897L13.469,33.542z"/>
</svg>
