<?xml version="1.0" encoding="utf-8"?>
<!-- Generator: Adobe Illustrator 15.0.0, SVG Export Plug-In  -->
<!DOCTYPE svg PUBLIC "-//W3C//DTD SVG 1.1//EN" "http://www.w3.org/Graphics/SVG/1.1/DTD/svg11.dtd" [
	<!ENTITY ns_flows "http://ns.adobe.com/Flows/1.0/">
]>
<svg version="1.1"
	 xmlns="http://www.w3.org/2000/svg" xmlns:xlink="http://www.w3.org/1999/xlink" xmlns:a="http://ns.adobe.com/AdobeSVGViewerExtensions/3.0/"
	 x="0px" y="0px" width="45px" height="45px" viewBox="-0.446 -0.445 45 45" enable-background="new -0.446 -0.445 45 45"
	 xml:space="preserve">
<defs>
</defs>
<path d="M22.054,0C9.894,0,0,9.895,0,22.055s9.894,22.055,22.054,22.055c12.161,0,22.054-9.895,22.054-22.055S34.215,0,22.054,0z
	 M22.054,39.82c-9.795,0-17.764-7.97-17.764-17.766c0-9.794,7.969-17.765,17.764-17.765c9.796,0,17.765,7.971,17.765,17.765
	C39.818,31.851,31.85,39.82,22.054,39.82z"/>
<path d="M8.817,20.845l9.58-7.563c0.386-0.307,0.701-0.363,1.144-0.148c0.444,0.216,0.512,0.665,0.512,1.158v15.128
	c0,0.493-0.068,0.943-0.512,1.158c-0.178,0.087-0.264,0.129-0.455,0.129c-0.284,0-0.511-0.095-0.744-0.277l-9.552-7.564
	c-0.31-0.244-0.477-0.616-0.477-1.01S8.508,21.089,8.817,20.845z"/>
<path d="M21.685,20.845l9.58-7.563c0.388-0.307,0.767-0.363,1.212-0.148c0.442,0.216,0.577,0.665,0.577,1.158v15.128
	c0,0.493-0.134,0.943-0.577,1.158c-0.18,0.087-0.297,0.129-0.489,0.129c-0.284,0-0.528-0.095-0.76-0.277l-9.561-7.564
	c-0.309-0.244-0.48-0.616-0.48-1.01S21.376,21.089,21.685,20.845z"/>
</svg>
