<?xml version="1.0" encoding="utf-8"?>
<!-- Generator: Adobe Illustrator 15.0.0, SVG Export Plug-In  -->
<!DOCTYPE svg PUBLIC "-//W3C//DTD SVG 1.1//EN" "http://www.w3.org/Graphics/SVG/1.1/DTD/svg11.dtd" [
	<!ENTITY ns_flows "http://ns.adobe.com/Flows/1.0/">
]>
<svg version="1.1"
	 xmlns="http://www.w3.org/2000/svg" xmlns:xlink="http://www.w3.org/1999/xlink" xmlns:a="http://ns.adobe.com/AdobeSVGViewerExtensions/3.0/"
	 x="0px" y="0px" width="48px" height="46px" viewBox="-0.473 0 48 46" enable-background="new -0.473 0 48 46"
	 xml:space="preserve">
<defs>
</defs>
<path d="M41.089,40H6V5.868V0C3,0,0,2.626,0,5.868v35.206C0,44.314,2.642,46,5.883,46h35.206c3.24,0,5.867-2,5.867-6H41.089z"/>
<path d="M9.729,18.172l7.927,12.293c-0.054,0.209-0.092,0.424-0.092,0.65c0,1.443,1.17,2.612,2.613,2.612s2.612-1.169,2.612-2.612
	c0-0.354-0.072-0.69-0.199-0.997l9.589-6.765c0.031,0.001,0.06,0.009,0.091,0.009c0.256,0,0.499-0.049,0.732-0.117l8.023,5.341
	c-0.083,0.254-0.139,0.52-0.139,0.801c0,1.443,1.169,2.612,2.613,2.612c1.442,0,2.612-1.169,2.612-2.612s-1.17-2.612-2.612-2.612
	c-0.187,0-0.368,0.021-0.543,0.058l-8.143-5.508c0.042-0.186,0.068-0.377,0.068-0.575c0-1.443-1.17-2.612-2.613-2.612
	s-2.612,1.169-2.612,2.612c0,0.429,0.113,0.829,0.297,1.187l-9.435,6.601c-0.114-0.015-0.226-0.035-0.344-0.035
	c-0.224,0-0.438,0.037-0.645,0.09l-7.51-11.648c0.25-0.401,0.401-0.871,0.401-1.378c0-1.442-1.17-2.612-2.613-2.612
	c-1.443,0-2.612,1.17-2.612,2.612C7.199,16.982,8.325,18.128,9.729,18.172z"/>
</svg>
