<?xml version="1.0" encoding="utf-8"?>
<!-- Generator: Adobe Illustrator 15.0.0, SVG Export Plug-In  -->
<!DOCTYPE svg PUBLIC "-//W3C//DTD SVG 1.1//EN" "http://www.w3.org/Graphics/SVG/1.1/DTD/svg11.dtd" [
	<!ENTITY ns_flows "http://ns.adobe.com/Flows/1.0/">
]>
<svg version="1.1"
	 xmlns="http://www.w3.org/2000/svg" xmlns:xlink="http://www.w3.org/1999/xlink" xmlns:a="http://ns.adobe.com/AdobeSVGViewerExtensions/3.0/"
	 x="0px" y="0px" width="36px" height="43px" viewBox="0 0 36 43" enable-background="new 0 0 36 43" xml:space="preserve">
<defs>
</defs>
<path d="M34.521,0H14.066c-0.149,0-1.19,0-1.19,0s-0.454,0.221-1.013,0.238L0.325,10.409c-0.458,0.402-0.298,1.655-0.298,1.655
	L0.036,41.72c0,0.807,0.344,1.28,1.151,1.28h33.333c0.807,0,1.219-0.168,1.219-0.975V1.154C35.739,0.348,35.328,0,34.521,0z
	 M11.984,3.507l-0.013,7.061l-7.93,0.019L11.984,3.507z M32.739,40h-30V12.899l10.113-0.025c0.805-0.003,1.433-0.961,1.435-1.766
	L14.28,3h18.459V40z"/>
<path d="M28.322,31H7.156c-0.783,0-1.417,0.635-1.417,1.417v0.166C5.739,33.365,6.374,34,7.156,34h21.166
	c0.783,0,1.417-0.635,1.417-1.417v-0.166C29.739,31.635,29.105,31,28.322,31z"/>
<path d="M28.322,25H7.156c-0.783,0-1.417,0.635-1.417,1.417v0.166C5.739,27.365,6.374,28,7.156,28h21.166
	c0.783,0,1.417-0.635,1.417-1.417v-0.166C29.739,25.635,29.105,25,28.322,25z"/>
<path d="M5.739,20.417v0.166C5.739,21.365,6.374,22,7.156,22h21.166c0.783,0,1.417-0.635,1.417-1.417v-0.166
	c0-0.782-0.634-1.417-1.417-1.417H7.156C6.374,19,5.739,19.635,5.739,20.417z"/>
</svg>
