<?xml version="1.0" encoding="utf-8"?>
<!-- Generator: Adobe Illustrator 15.0.0, SVG Export Plug-In  -->
<!DOCTYPE svg PUBLIC "-//W3C//DTD SVG 1.1//EN" "http://www.w3.org/Graphics/SVG/1.1/DTD/svg11.dtd" [
	<!ENTITY ns_flows "http://ns.adobe.com/Flows/1.0/">
]>
<svg version="1.1"
	 xmlns="http://www.w3.org/2000/svg" xmlns:xlink="http://www.w3.org/1999/xlink" xmlns:a="http://ns.adobe.com/AdobeSVGViewerExtensions/3.0/"
	 x="0px" y="0px" width="44px" height="44px" viewBox="0 0 44 44" enable-background="new 0 0 44 44" xml:space="preserve">
<defs>
</defs>
<path d="M35.034,0H0v44h4.869h34.166H44V9.022L35.034,0z M12,3h12v10H12V3z M28,12h-2V4h2V12z M29,3h3v10h-3V3z M8,41V23h28v18H8z
	 M41,41h-2V20H5v21H3V3h7v12h24V3.295l7,6.821V41z"/>
<rect x="10" y="25" width="24" height="3"/>
<rect x="10" y="31" width="24" height="2"/>
<rect x="10" y="36" width="24" height="3"/>
</svg>
