<?xml version="1.0" encoding="utf-8"?>
<!-- Generator: Adobe Illustrator 15.0.0, SVG Export Plug-In  -->
<!DOCTYPE svg PUBLIC "-//W3C//DTD SVG 1.1//EN" "http://www.w3.org/Graphics/SVG/1.1/DTD/svg11.dtd" [
	<!ENTITY ns_flows "http://ns.adobe.com/Flows/1.0/">
]>
<svg version="1.1"
	 xmlns="http://www.w3.org/2000/svg" xmlns:xlink="http://www.w3.org/1999/xlink" xmlns:a="http://ns.adobe.com/AdobeSVGViewerExtensions/3.0/"
	 x="0px" y="0px" width="50px" height="50px" viewBox="0 -0.327 50 50" enable-background="new 0 -0.327 50 50"
	 xml:space="preserve">
<defs>
</defs>
<path d="M24.617,7.699c-9.396,0-17.04,7.644-17.04,17.039c0,9.396,7.644,17.04,17.04,17.04c9.395,0,17.039-7.644,17.039-17.04
	C41.655,15.343,34.011,7.699,24.617,7.699z M24.617,37.88c-7.247,0-13.142-5.896-13.142-13.142s5.895-13.142,13.142-13.142
	c7.246,0,13.142,5.896,13.142,13.142S31.863,37.88,24.617,37.88z"/>
<path d="M24.842,6.288c0.695-0.001,1.257-0.565,1.256-1.26l-0.006-3.772C26.089,0.561,25.525-0.001,24.832,0
	s-1.256,0.565-1.256,1.26l0.006,3.772C23.583,5.726,24.147,6.289,24.842,6.288z"/>
<path d="M24.849,43.385c-0.695-0.003-1.259,0.558-1.262,1.252l-0.015,3.772c-0.002,0.694,0.559,1.26,1.253,1.263
	c0.694,0.002,1.259-0.559,1.262-1.253l0.014-3.772C26.103,43.953,25.543,43.388,24.849,43.385z"/>
<path d="M16.099,7.02c0.267,0.641,1.003,0.944,1.644,0.678c0.642-0.267,0.945-1.003,0.679-1.645l-1.45-3.483
	c-0.267-0.641-1.003-0.944-1.644-0.677c-0.641,0.266-0.945,1.002-0.678,1.644L16.099,7.02z"/>
<path d="M33.586,42.655c-0.263-0.642-0.998-0.95-1.641-0.687c-0.643,0.264-0.95,0.998-0.687,1.641l1.43,3.491
	c0.264,0.642,0.998,0.95,1.641,0.686c0.643-0.263,0.95-0.998,0.687-1.64L33.586,42.655z"/>
<path d="M9.946,11.72c0.492,0.49,1.288,0.488,1.778-0.004c0.491-0.491,0.489-1.287-0.003-1.778L9.049,7.274
	C8.557,6.785,7.761,6.786,7.271,7.278C6.781,7.77,6.782,8.566,7.274,9.056L9.946,11.72z"/>
<path d="M39.739,37.951c-0.489-0.493-1.286-0.497-1.779-0.007c-0.492,0.489-0.496,1.285-0.005,1.778l2.657,2.678
	c0.489,0.492,1.285,0.495,1.778,0.006c0.494-0.489,0.496-1.285,0.006-1.779L39.739,37.951z"/>
<path d="M2.573,16.979l3.486,1.438c0.642,0.265,1.377-0.042,1.643-0.684c0.264-0.643-0.043-1.377-0.684-1.643l-3.488-1.437
	c-0.643-0.265-1.377,0.041-1.642,0.683C1.625,15.979,1.93,16.714,2.573,16.979z"/>
<path d="M47.103,32.706l-3.479-1.457c-0.641-0.268-1.377,0.034-1.646,0.674c-0.268,0.641,0.035,1.377,0.675,1.646l3.479,1.458
	c0.64,0.268,1.377-0.035,1.646-0.675C48.046,33.711,47.744,32.975,47.103,32.706z"/>
<path d="M6.288,24.832c-0.001-0.695-0.565-1.257-1.259-1.256l-3.773,0.007C0.561,23.583-0.001,24.147,0,24.841
	c0.001,0.694,0.565,1.257,1.26,1.255l3.773-0.005C5.727,26.09,6.289,25.526,6.288,24.832z"/>
<path d="M48.419,23.586l-3.772-0.015c-0.694-0.003-1.26,0.559-1.263,1.252c-0.002,0.694,0.559,1.259,1.253,1.262l3.772,0.014
	c0.694,0.003,1.259-0.558,1.263-1.252C49.676,24.153,49.115,23.588,48.419,23.586z"/>
<path d="M7.698,31.93c-0.267-0.642-1.002-0.944-1.645-0.678l-3.483,1.45c-0.641,0.267-0.944,1.003-0.677,1.644
	c0.267,0.641,1.003,0.944,1.644,0.677l3.483-1.449C7.66,33.307,7.964,32.571,7.698,31.93z"/>
<path d="M41.969,17.727c0.264,0.643,0.998,0.951,1.641,0.688l3.49-1.431c0.642-0.263,0.95-0.998,0.687-1.64
	c-0.264-0.644-0.997-0.95-1.641-0.687l-3.491,1.43C42.013,16.35,41.706,17.084,41.969,17.727z"/>
<path d="M9.938,37.952l-2.664,2.672c-0.49,0.493-0.488,1.288,0.003,1.778c0.492,0.491,1.288,0.488,1.778-0.003l2.664-2.672
	c0.49-0.491,0.488-1.288-0.003-1.778C11.225,37.458,10.429,37.46,9.938,37.952z"/>
<path d="M39.723,11.718L42.4,9.062c0.492-0.49,0.495-1.286,0.007-1.779c-0.49-0.493-1.285-0.496-1.779-0.006l-2.677,2.657
	c-0.493,0.489-0.496,1.286-0.007,1.779C38.434,12.205,39.229,12.208,39.723,11.718z"/>
<path d="M17.733,41.971c-0.642-0.265-1.376,0.042-1.641,0.684l-1.438,3.488c-0.265,0.642,0.041,1.376,0.684,1.641
	c0.641,0.265,1.376-0.041,1.641-0.683l1.439-3.488C18.681,42.971,18.376,42.236,17.733,41.971z"/>
<path d="M31.924,7.695c0.64,0.268,1.377-0.034,1.646-0.675l1.457-3.479c0.268-0.641-0.035-1.377-0.674-1.646
	c-0.64-0.268-1.377,0.034-1.645,0.674l-1.458,3.48C30.981,6.69,31.284,7.427,31.924,7.695z"/>
</svg>
