<?xml version="1.0" encoding="utf-8"?>
<!-- Generator: Adobe Illustrator 15.0.0, SVG Export Plug-In  -->
<!DOCTYPE svg PUBLIC "-//W3C//DTD SVG 1.1//EN" "http://www.w3.org/Graphics/SVG/1.1/DTD/svg11.dtd" [
	<!ENTITY ns_flows "http://ns.adobe.com/Flows/1.0/">
]>
<svg version="1.1"
	 xmlns="http://www.w3.org/2000/svg" xmlns:xlink="http://www.w3.org/1999/xlink" xmlns:a="http://ns.adobe.com/AdobeSVGViewerExtensions/3.0/"
	 x="0px" y="0px" width="44px" height="44px" viewBox="0 0 44 44" enable-background="new 0 0 44 44" xml:space="preserve">
<defs>
</defs>
<path d="M37.539,6.415C33.386,2.262,27.864,0,21.99,0h-0.002C16.114,0,10.592,2.263,6.439,6.416C2.286,10.569-0.001,16.08,0,21.953
	c0,5.873,2.287,11.39,6.44,15.543s9.676,6.438,15.551,6.438c5.874,0,11.396-2.288,15.549-6.441c4.153-4.154,6.44-9.665,6.439-15.539
	C43.979,16.079,41.692,10.568,37.539,6.415z M34.642,34.676C31.263,38.055,26.77,40,21.991,40h-0.002
	c-4.779,0-9.272-1.945-12.651-5.324c-3.379-3.379-5.24-7.914-5.24-12.693c0-4.779,1.86-9.318,5.239-12.697
	C12.716,5.906,17.21,4,21.99,4c0.001,0,0.001,0,0.002,0c4.779,0,9.271,1.885,12.65,5.264c3.379,3.379,5.24,7.926,5.24,12.706
	C39.882,26.749,38.021,31.297,34.642,34.676z"/>
<path d="M21.989,15.564c-3.514,0-6.374,2.86-6.375,6.376c0,3.516,2.86,6.376,6.376,6.376h0c3.515-0.001,6.375-2.861,6.375-6.376
	C28.365,18.425,25.505,15.564,21.989,15.564z M21.989,25.857c-2.16,0-3.917-1.757-3.917-3.917c0-2.16,1.758-3.917,3.917-3.917
	c2.16,0,3.917,1.757,3.917,3.917C25.906,24.1,24.149,25.856,21.989,25.857z"/>
<path d="M22,33.463v-2.459c-5,0-9.073-4.004-9.073-9.004h-2.459C10.468,28,16,33.463,22,33.463z"/>
<path d="M22,10.42v2.459c5,0,9.053,4.121,9.053,9.121h2.459C33.512,16,28,10.42,22,10.42z"/>
<path d="M8.424,22H5.965C5.965,31,13,37.965,22,37.965v-2.459C15,35.506,8.424,29,8.424,22z"/>
<path d="M22,5.916v2.459C29,8.375,35.555,14,35.555,22h2.459C38.014,13,31,5.916,22,5.916z"/>
</svg>
