<?xml version="1.0" encoding="utf-8"?>
<!-- Generator: Adobe Illustrator 15.0.0, SVG Export Plug-In  -->
<!DOCTYPE svg PUBLIC "-//W3C//DTD SVG 1.1//EN" "http://www.w3.org/Graphics/SVG/1.1/DTD/svg11.dtd" [
	<!ENTITY ns_flows "http://ns.adobe.com/Flows/1.0/">
]>
<svg version="1.1"
	 xmlns="http://www.w3.org/2000/svg" xmlns:xlink="http://www.w3.org/1999/xlink" xmlns:a="http://ns.adobe.com/AdobeSVGViewerExtensions/3.0/"
	 x="0px" y="0px" width="58px" height="42px" viewBox="-0.108 0 58 42" enable-background="new -0.108 0 58 42"
	 xml:space="preserve">
<defs>
</defs>
<path d="M22.819,3.636c-0.489,0-0.981-0.129-1.392,0.136L9.791,11H5.677C2.839,11,0,13.848,0,16.687v9.271
	C0,28.797,2.839,32,5.677,32h4.113l11.619,7.05c0.411,0.265,0.92,0.18,1.41,0.18c2.838,0,5.181-2.533,5.181-5.371V8.786
	C28,5.946,25.657,3.636,22.819,3.636z M6,16.687C6,16.645,5.636,16,5.677,16h4.861c0.49,0,1.035,0.165,1.444-0.101L23,9.142v24.36
	l-11.018-6.581C11.57,26.657,11.026,27,10.538,27H5.677C5.636,27,6,25.999,6,25.958V16.687z"/>
<path d="M48.408,0.314c-0.761-0.542-1.816-0.365-2.358,0.394c-0.542,0.761-0.366,1.817,0.394,2.359
	c4.91,3.505,7.959,10.205,7.959,17.484c0,7.28-3.049,13.979-7.959,17.482c-0.76,0.542-0.936,1.598-0.394,2.358
	c0.33,0.462,0.85,0.708,1.377,0.708c0.34,0,0.683-0.103,0.981-0.314c5.785-4.128,9.376-11.882,9.376-20.235
	C57.784,12.197,54.192,4.444,48.408,0.314z"/>
<path d="M40.8,5.068c-0.761-0.542-1.817-0.367-2.359,0.394c-0.542,0.76-0.366,1.816,0.395,2.358c3.561,2.542,5.774,7.42,5.774,12.73
	c0,5.309-2.213,10.188-5.774,12.73c-0.76,0.542-0.936,1.598-0.395,2.359c0.33,0.462,0.85,0.708,1.378,0.708
	c0.339,0,0.682-0.102,0.981-0.314c4.436-3.166,7.191-9.098,7.191-15.482S45.235,8.234,40.8,5.068z"/>
<path d="M34.037,9.821c-0.76-0.542-1.817-0.368-2.359,0.394c-0.542,0.76-0.366,1.817,0.394,2.359c2.214,1.58,3.59,4.637,3.59,7.977
	c0,3.339-1.375,6.397-3.59,7.978c-0.76,0.542-0.936,1.598-0.394,2.358c0.33,0.462,0.85,0.708,1.377,0.708
	c0.341,0,0.683-0.102,0.982-0.314c3.088-2.204,5.006-6.316,5.006-10.73C39.043,16.137,37.125,12.026,34.037,9.821z"/>
</svg>
