<?xml version="1.0" encoding="utf-8"?>
<!-- Generator: Adobe Illustrator 15.0.0, SVG Export Plug-In  -->
<!DOCTYPE svg PUBLIC "-//W3C//DTD SVG 1.1//EN" "http://www.w3.org/Graphics/SVG/1.1/DTD/svg11.dtd" [
	<!ENTITY ns_flows "http://ns.adobe.com/Flows/1.0/">
]>
<svg version="1.1"
	 xmlns="http://www.w3.org/2000/svg" xmlns:xlink="http://www.w3.org/1999/xlink" xmlns:a="http://ns.adobe.com/AdobeSVGViewerExtensions/3.0/"
	 x="0px" y="0px" width="42px" height="45px" viewBox="-0.953 0.083 42 45" enable-background="new -0.953 0.083 42 45"
	 xml:space="preserve">
<defs>
</defs>
<path d="M30.176,7.451c-0.236-0.135-0.519-0.162-0.775-0.073c-0.257,0.088-0.463,0.283-0.565,0.535l-1.682,4.123
	c-0.173,0.425-0.016,0.913,0.374,1.155c4.102,2.56,6.551,6.97,6.551,11.797c0,7.664-6.235,13.899-13.899,13.899
	S6.28,32.651,6.28,24.987c0-4.851,2.565-9.256,6.861-11.784c0.221-0.13,0.38-0.345,0.439-0.595c0.059-0.25,0.014-0.514-0.126-0.729
	l-2.488-3.839c-0.277-0.428-0.844-0.557-1.281-0.292C3.62,11.444,0,17.889,0,24.987c0,11.126,9.052,20.179,20.179,20.179
	c11.129,0,20.183-9.052,20.183-20.179C40.361,17.761,36.458,11.042,30.176,7.451z"/>
<path d="M20.233,25.865c2.095,0,3.5-1.704,3.5-3.799V3.799c0-2.095-1.405-3.799-3.5-3.799s-3.5,1.705-3.5,3.799v18.267
	C16.733,24.161,18.139,25.865,20.233,25.865z"/>
</svg>
