<?xml version="1.0" encoding="utf-8"?>
<!-- Generator: Adobe Illustrator 15.0.0, SVG Export Plug-In  -->
<!DOCTYPE svg PUBLIC "-//W3C//DTD SVG 1.1//EN" "http://www.w3.org/Graphics/SVG/1.1/DTD/svg11.dtd" [
	<!ENTITY ns_flows "http://ns.adobe.com/Flows/1.0/">
]>
<svg version="1.1"
	 xmlns="http://www.w3.org/2000/svg" xmlns:xlink="http://www.w3.org/1999/xlink" xmlns:a="http://ns.adobe.com/AdobeSVGViewerExtensions/3.0/"
	 x="0px" y="0px" width="47px" height="45px" viewBox="-0.167 0.008 47 45" enable-background="new -0.167 0.008 47 45"
	 xml:space="preserve">
<defs>
</defs>
<path d="M45.649,39.498L31.816,27.151c1.963-2.895,2.999-6.255,2.999-9.746C34.815,7.808,27.007,0,17.408,0
	C7.809,0,0,7.808,0,17.405c0,9.602,7.809,17.41,17.408,17.41c3.592,0,7.037-1.097,9.989-3.173l14.063,12.552
	c0.339,0.303,0.783,0.462,1.285,0.462c0.869,0,1.815-0.476,2.531-1.276C46.446,42.063,46.611,40.358,45.649,39.498z M17.408,28.79
	c-6.277,0-11.385-5.107-11.385-11.385S11.13,6.02,17.408,6.02c6.278,0,11.385,5.108,11.385,11.385S23.686,28.79,17.408,28.79z"/>
</svg>
