<?xml version="1.0" encoding="utf-8"?>
<!-- Generator: Adobe Illustrator 15.0.0, SVG Export Plug-In  -->
<!DOCTYPE svg PUBLIC "-//W3C//DTD SVG 1.1//EN" "http://www.w3.org/Graphics/SVG/1.1/DTD/svg11.dtd" [
	<!ENTITY ns_flows "http://ns.adobe.com/Flows/1.0/">
]>
<svg version="1.1"
	 xmlns="http://www.w3.org/2000/svg" xmlns:xlink="http://www.w3.org/1999/xlink" xmlns:a="http://ns.adobe.com/AdobeSVGViewerExtensions/3.0/"
	 x="0px" y="0px" width="45px" height="45px" viewBox="-0.446 -0.446 45 45" enable-background="new -0.446 -0.446 45 45"
	 xml:space="preserve">
<defs>
</defs>
<path d="M22.054,0C9.893,0,0,9.894,0,22.054c0,12.161,9.893,22.055,22.054,22.055s22.054-9.894,22.054-22.055
	C44.107,9.894,34.215,0,22.054,0z M22.054,39.82c-9.795,0-17.764-7.97-17.764-17.766c0-9.794,7.969-17.765,17.764-17.765
	s17.765,7.97,17.765,17.765C39.818,31.85,31.849,39.82,22.054,39.82z"/>
<path d="M32.071,21.002l-13.067-9.21c-0.394-0.279-0.907-0.312-1.333-0.091c-0.428,0.221-0.695,0.662-0.695,1.142v18.421
	c0,0.481,0.268,0.921,0.695,1.142c0.186,0.097,0.389,0.145,0.591,0.145c0.261,0,0.521-0.08,0.742-0.235l13.067-9.211
	c0.341-0.24,0.545-0.633,0.545-1.052C32.616,21.635,32.412,21.243,32.071,21.002z"/>
</svg>
