<?xml version="1.0" encoding="utf-8"?>
<!-- Generator: Adobe Illustrator 15.0.0, SVG Export Plug-In  -->
<!DOCTYPE svg PUBLIC "-//W3C//DTD SVG 1.1//EN" "http://www.w3.org/Graphics/SVG/1.1/DTD/svg11.dtd" [
	<!ENTITY ns_flows "http://ns.adobe.com/Flows/1.0/">
]>
<svg version="1.1"
	 xmlns="http://www.w3.org/2000/svg" xmlns:xlink="http://www.w3.org/1999/xlink" xmlns:a="http://ns.adobe.com/AdobeSVGViewerExtensions/3.0/"
	 x="0px" y="0px" width="37px" height="50px" viewBox="0 0 37 50" enable-background="new 0 0 37 50" xml:space="preserve">
<defs>
</defs>
<path d="M32.672,7H31V4.357C31,1.873,29.276,0,26.99,0h-16.97C7.729,0,6,1.873,6,4.357V7H4.328C1.941,7,0,8.941,0,11.328v2.344
	c0,1.528,0.801,2.867,2,3.637v28.529C2,48.211,3.812,50,6.214,50h24.512C33.163,50,35,48.211,35,45.838V17.309
	c1.199-0.771,2-2.109,2-3.637v-2.344C37,8.941,35.059,7,32.672,7z M9,4.357C9,4.218,9.029,3,10.021,3h16.97
	C27.951,3,28,4.13,28,4.357V7H9V4.357z M3,11.328C3,10.596,3.596,10,4.328,10H6h25h1.672C33.404,10,34,10.596,34,11.328v2.344
	c0,0.116-0.038,0.221-0.066,0.328H3.066C3.038,13.893,3,13.788,3,13.672V11.328z M30.726,47H6.214C5.465,47,5,46.555,5,45.838V18h27
	v27.838C32,46.641,31.36,47,30.726,47z"/>
<path d="M12.586,20h-0.173C11.633,20,11,20.633,11,21.414v21.173C11,43.367,11.633,44,12.414,44h0.173
	C13.367,44,14,43.367,14,42.586V21.414C14,20.633,13.367,20,12.586,20z"/>
<path d="M19.586,20h-0.172C18.633,20,18,20.633,18,21.414v21.173C18,43.367,18.633,44,19.414,44h0.172
	C20.367,44,21,43.367,21,42.586V21.414C21,20.633,20.367,20,19.586,20z"/>
<path d="M25.585,20h-0.171C24.633,20,24,20.633,24,21.414v21.173C24,43.367,24.633,44,25.415,44h0.171
	C26.367,44,27,43.367,27,42.586V21.414C27,20.633,26.367,20,25.585,20z"/>
</svg>
