<?xml version="1.0" encoding="utf-8"?>
<!-- Generator: Adobe Illustrator 15.0.0, SVG Export Plug-In  -->
<!DOCTYPE svg PUBLIC "-//W3C//DTD SVG 1.1//EN" "http://www.w3.org/Graphics/SVG/1.1/DTD/svg11.dtd" [
	<!ENTITY ns_flows "http://ns.adobe.com/Flows/1.0/">
]>
<svg version="1.1"
	 xmlns="http://www.w3.org/2000/svg" xmlns:xlink="http://www.w3.org/1999/xlink" xmlns:a="http://ns.adobe.com/AdobeSVGViewerExtensions/3.0/"
	 x="0px" y="0px" width="45px" height="44px" viewBox="0 -0.367 45 44" enable-background="new 0 -0.367 45 44"
	 xml:space="preserve">
<defs>
</defs>
<path d="M43.917,21.124c-0.507-0.606-1.22-0.979-2.01-1.049c-1.653-0.146-3.062,1.063-3.208,2.686
	c-0.342,3.85-2.038,7.477-4.774,10.214c-3.122,3.122-7.271,4.84-11.685,4.84c-2.733,0-5.338-0.645-7.682-1.887
	c0.946-0.358,1.672-1.189,1.866-2.234c0.294-1.604-0.771-3.15-2.374-3.447L5.512,28.67l-0.249-0.027
	c-0.192-0.021-0.365-0.025-0.596,0.002c-0.084,0.003-0.168,0.011-0.278,0.037c-0.103,0.02-0.2,0.05-0.371,0.104
	c-0.064,0.021-0.129,0.042-0.192,0.069c-0.093,0.039-0.18,0.086-0.313,0.161c-0.066,0.034-0.131,0.07-0.183,0.106
	c-0.094,0.063-0.182,0.135-0.302,0.239l-0.133,0.117c-0.089,0.088-0.168,0.186-0.257,0.298l-0.107,0.139
	C2.471,30,2.422,30.091,2.341,30.247l-0.096,0.196c-0.026,0.064-0.047,0.13-0.093,0.281c-0.019,0.058-0.036,0.116-0.053,0.182
	l-0.034,0.14c-0.013,0.072-0.02,0.145-0.025,0.247c-0.011,0.095-0.019,0.188-0.019,0.287c0,0.098,0.008,0.193,0.022,0.316
	l1.602,8.758c0.292,1.58,1.85,2.678,3.448,2.373c1.552-0.288,2.598-1.744,2.397-3.292c3.735,2.594,8.176,3.999,12.752,3.999
	c5.996,0,11.631-2.335,15.87-6.574c3.718-3.716,6.021-8.644,6.485-13.875C44.666,22.498,44.425,21.73,43.917,21.124z"/>
<path d="M2.961,23.671c1.544,0,2.811-1.16,2.946-2.699c0.34-3.848,2.036-7.475,4.773-10.213c3.121-3.121,7.271-4.84,11.686-4.84
	c2.733,0,5.337,0.645,7.681,1.887c-0.945,0.357-1.67,1.188-1.863,2.232c-0.296,1.604,0.768,3.151,2.373,3.448l8.537,1.578
	l0.098,0.016c0.305,0.047,0.636,0.045,0.948-0.012l0.139-0.029c0.143-0.032,0.283-0.074,0.42-0.127
	c0.055-0.021,0.108-0.046,0.187-0.085c0.102-0.047,0.204-0.1,0.3-0.159c0.066-0.041,0.13-0.086,0.186-0.127
	c0.088-0.064,0.173-0.133,0.23-0.186c0.064-0.056,0.125-0.115,0.169-0.163c0.076-0.079,0.147-0.164,0.239-0.286
	c0.036-0.048,0.071-0.098,0.093-0.132c0.067-0.101,0.125-0.207,0.178-0.317c0.03-0.058,0.058-0.115,0.084-0.176
	c0.042-0.104,0.076-0.213,0.109-0.33c0.021-0.067,0.04-0.134,0.037-0.134l-0.001,0.001l0.028-0.111
	c0.016-0.079,0.023-0.158,0.029-0.258c0.01-0.096,0.02-0.194,0.02-0.294c0-0.099-0.009-0.195-0.022-0.316l-1.601-8.759
	c-0.292-1.58-1.821-2.673-3.448-2.372c-1.551,0.286-2.598,1.743-2.398,3.292C31.383,1.405,26.942,0,22.367,0
	C16.37,0,10.733,2.334,6.497,6.574C2.778,10.292,0.475,15.22,0.012,20.45c-0.144,1.625,1.061,3.065,2.679,3.208
	C2.782,23.667,2.873,23.671,2.961,23.671z"/>
</svg>
