<?xml version="1.0" encoding="utf-8"?>
<!-- Generator: Adobe Illustrator 15.0.0, SVG Export Plug-In  -->
<!DOCTYPE svg PUBLIC "-//W3C//DTD SVG 1.1//EN" "http://www.w3.org/Graphics/SVG/1.1/DTD/svg11.dtd" [
	<!ENTITY ns_flows "http://ns.adobe.com/Flows/1.0/">
]>
<svg version="1.1"
	 xmlns="http://www.w3.org/2000/svg" xmlns:xlink="http://www.w3.org/1999/xlink" xmlns:a="http://ns.adobe.com/AdobeSVGViewerExtensions/3.0/"
	 x="0px" y="0px" width="45px" height="50px" viewBox="0 -0.095 45 50" enable-background="new 0 -0.095 45 50"
	 xml:space="preserve">
<defs>
</defs>
<path d="M41.927,24.406c-1.632,0-2.96,1.328-2.96,2.96c0,9.111-7.413,16.524-16.524,16.524c-9.111,0-16.524-7.413-16.524-16.524
	c0-7.281,4.874-13.633,11.598-15.757c-0.398,0.907-0.332,1.995,0.27,2.871c0.552,0.802,1.464,1.281,2.439,1.281
	c0.601,0,1.181-0.18,1.676-0.521l7.141-4.913c0.063-0.042,0.122-0.09,0.169-0.135c0.062-0.049,0.123-0.101,0.182-0.156
	c0.115-0.105,0.217-0.22,0.316-0.348l0.169-0.233c0.046-0.077,0.091-0.161,0.147-0.272c0.028-0.053,0.056-0.107,0.094-0.195
	c0.034-0.086,0.059-0.173,0.097-0.306c0.024-0.078,0.047-0.156,0.061-0.226c0.018-0.086,0.026-0.173,0.038-0.314
	c0.01-0.086,0.018-0.174,0.018-0.26c0-0.088-0.008-0.176-0.023-0.316c-0.006-0.088-0.016-0.177-0.031-0.247
	c-0.015-0.079-0.037-0.154-0.078-0.289c-0.024-0.087-0.05-0.174-0.09-0.275c-0.026-0.062-0.057-0.121-0.096-0.193
	c-0.044-0.09-0.089-0.177-0.141-0.262l-0.071-0.113c-0.038-0.053-0.079-0.101-0.139-0.17c-0.064-0.081-0.13-0.159-0.185-0.213
	c-0.081-0.083-0.167-0.155-0.266-0.232l-7.312-5.051C21.405,0.181,20.827,0,20.226,0c-0.975,0-1.887,0.479-2.439,1.282
	c-0.448,0.651-0.616,1.438-0.473,2.215c0.132,0.718,0.515,1.348,1.085,1.793C7.893,7.208,0,16.439,0,27.366
	C0,39.742,10.068,49.81,22.443,49.81s22.443-10.068,22.443-22.443C44.887,25.734,43.559,24.406,41.927,24.406z M29.186,8.658
	L29.186,8.658l0.001,0L29.186,8.658z M29.343,7.934L29.343,7.934h0.002H29.343z"/>
</svg>
