<?xml version="1.0" encoding="utf-8"?>
<!-- Generator: Adobe Illustrator 15.0.0, SVG Export Plug-In  -->
<!DOCTYPE svg PUBLIC "-//W3C//DTD SVG 1.1//EN" "http://www.w3.org/Graphics/SVG/1.1/DTD/svg11.dtd" [
	<!ENTITY ns_flows "http://ns.adobe.com/Flows/1.0/">
]>
<svg version="1.1"
	 xmlns="http://www.w3.org/2000/svg" xmlns:xlink="http://www.w3.org/1999/xlink" xmlns:a="http://ns.adobe.com/AdobeSVGViewerExtensions/3.0/"
	 x="0px" y="0px" width="41px" height="50px" viewBox="0 -0.224 41 50" enable-background="new 0 -0.224 41 50"
	 xml:space="preserve">
<defs>
</defs>
<path d="M37.145,17.117c0.021-0.08-0.225-0.169-0.225-0.265C36.92,7.56,29.246,0,19.975,0C10.693,0,3.079,7.56,3.079,16.852
	c0,0.136,0.006,0.251,0.062,0.348C1.158,18.613,0,20.93,0,23.644v18.14c0,4.552,3.249,7.492,7.396,7.492h24.973
	c4.184,0,8.631-3.015,8.631-7.492v-18.14C41,20.952,39.241,18.543,37.145,17.117z M31.415,16.276H8.35
	c0.497-6,5.068-10.501,11.533-10.501C26.346,5.775,30.918,10.276,31.415,16.276z M5,24.141c0-1.45,1.437-1.865,2.886-1.865h23.659
	c1.742,0,3.455,0.648,3.455,2.39v17.35c0,1.45-1.48,3.26-2.929,3.26H7.886C6.437,45.276,5,43.465,5,42.016V24.141z"/>
<path d="M16.208,40.623c-0.034,0.323,0.096,0.499,0.265,0.667c0.095,0.105,0.264,0.624,0.528,0.624c0.065,0,0.136,0.363,0.252,0.363
	h5.258c0.008,0,0.016,0,0.021,0c0.776,0,1.051-0.88,1.051-1.297c0-0.103-0.016-0.384-0.051-0.466l-0.668-6.402
	c0.961-0.854,1.486-2.054,1.486-3.317c0-2.464-2.004-4.493-4.467-4.493c-2.463,0-4.468,1.992-4.468,4.456
	c0,1.265,0.537,2.448,1.485,3.298L16.208,40.623z"/>
</svg>
