<?xml version="1.0" encoding="utf-8"?>
<!-- Generator: Adobe Illustrator 15.0.0, SVG Export Plug-In  -->
<!DOCTYPE svg PUBLIC "-//W3C//DTD SVG 1.1//EN" "http://www.w3.org/Graphics/SVG/1.1/DTD/svg11.dtd" [
	<!ENTITY ns_flows "http://ns.adobe.com/Flows/1.0/">
]>
<svg version="1.1"
	 xmlns="http://www.w3.org/2000/svg" xmlns:xlink="http://www.w3.org/1999/xlink" xmlns:a="http://ns.adobe.com/AdobeSVGViewerExtensions/3.0/"
	 x="0px" y="0px" width="50px" height="38px" viewBox="0 0 50 38" enable-background="new 0 0 50 38" xml:space="preserve">
<defs>
</defs>
<path d="M20.507,37.857c-2.313,0-5.617-0.908-8.64-5.052c-0.618,0.104-1.415,0.196-2.308,0.196c-2.81,0-9.366-1.04-9.56-10.669
	c0.044-4.639,2.506-13.306,11.5-13.33C12.609,5.208,16.325,0,24.961,0c7.731,0,11.384,2.633,13.885,10.295
	c0.182-0.007,0.375-0.012,0.579-0.012c5.952,0,9.856,3.464,10.443,9.268l0.009,0.172c0.003,0.731-0.063,7.232-3.228,10.409
	c-1.137,1.142-2.576,1.747-4.16,1.749c-1.494,1.706-5.457,5.566-10.741,5.567c-1.846,0-3.665-0.474-5.419-1.411
	C25.132,36.805,23.029,37.857,20.507,37.857z M13.43,28.733l0.725,1.128c1.878,2.951,4.015,4.448,6.353,4.448
	c2.522,0,4.536-1.706,4.555-1.723l1.012-0.888l1.127,0.735c1.494,0.973,3.024,1.465,4.547,1.465c4.861,0,8.486-4.855,8.522-4.903
	l0.637-0.867l1.063,0.163c0.892,0.137,1.568-0.065,2.165-0.664c1.775-1.781,2.185-6.25,2.193-7.804
	c-0.433-3.976-2.755-5.991-6.903-5.991c-0.898,0-1.521,0.112-1.528,0.112l-1.579,0.287l-0.45-1.541
	c-2.23-7.76-4.797-9.141-10.907-9.141c-9.092,0-10.18,6.738-10.275,7.506l-0.211,1.73l-1.735-0.169
	c-0.413-0.043-0.817-0.065-1.202-0.065c-7.759,0-7.983,9.368-7.989,9.766c0.097,4.782,2.063,7.135,6.012,7.135
	c1.437,0,2.575-0.333,2.586-0.337L13.43,28.733z"/>
</svg>
