<?xml version="1.0" encoding="utf-8"?>
<!-- Generator: Adobe Illustrator 15.0.0, SVG Export Plug-In  -->
<!DOCTYPE svg PUBLIC "-//W3C//DTD SVG 1.1//EN" "http://www.w3.org/Graphics/SVG/1.1/DTD/svg11.dtd" [
	<!ENTITY ns_flows "http://ns.adobe.com/Flows/1.0/">
]>
<svg version="1.1"
	 xmlns="http://www.w3.org/2000/svg" xmlns:xlink="http://www.w3.org/1999/xlink" xmlns:a="http://ns.adobe.com/AdobeSVGViewerExtensions/3.0/"
	 x="0px" y="0px" width="36px" height="43px" viewBox="0 0.003 36 43" enable-background="new 0 0.003 36 43" xml:space="preserve">
<defs>
</defs>
<path d="M34.521,0.003H14.066c-0.149,0-1.19,0-1.19,0s-0.454,0-1.013,0.018L0.325,10.081c-0.458,0.402-0.298,1.6-0.298,1.6
	l0.009,29.849c0,0.807,0.344,1.474,1.151,1.474h33.333c0.807,0,1.479-0.609,1.479-1.416V0.716C36-0.091,35.328,0.003,34.521,0.003z
	 M11.984,3.068l-0.013,7.061l-7.93,0.019L11.984,3.068z M33,40.003H3V12.461l9.982-0.025c0.805-0.003,1.368-0.74,1.37-1.545
	L14.28,3.003H33V40.003z"/>
</svg>
