<?xml version="1.0" encoding="utf-8"?>
<!-- Generator: Adobe Illustrator 15.0.0, SVG Export Plug-In  -->
<!DOCTYPE svg PUBLIC "-//W3C//DTD SVG 1.1//EN" "http://www.w3.org/Graphics/SVG/1.1/DTD/svg11.dtd" [
	<!ENTITY ns_flows "http://ns.adobe.com/Flows/1.0/">
]>
<svg version="1.1"
	 xmlns="http://www.w3.org/2000/svg" xmlns:xlink="http://www.w3.org/1999/xlink" xmlns:a="http://ns.adobe.com/AdobeSVGViewerExtensions/3.0/"
	 x="0px" y="0px" width="47px" height="45px" viewBox="0 0 47 45" enable-background="new 0 0 47 45" xml:space="preserve">
<defs>
</defs>
<path d="M45.649,39.497L31.815,27.151c1.964-2.895,3-6.255,3-9.745C34.815,7.808,27.007,0,17.408,0S0,7.808,0,17.406
	c0,9.6,7.809,17.409,17.408,17.409c3.591,0,7.037-1.096,9.988-3.174l14.063,12.554c0.339,0.301,0.783,0.461,1.285,0.461
	c0.87,0,1.816-0.477,2.531-1.276C46.446,42.063,46.61,40.359,45.649,39.497z M17.408,28.791c-6.278,0-11.385-5.108-11.385-11.385
	c0-6.278,5.107-11.386,11.385-11.386c6.277,0,11.385,5.107,11.385,11.386C28.792,23.683,23.685,28.791,17.408,28.791z"/>
<path d="M24.095,16.5H19.5v-5.37c0-0.887-0.941-1.63-1.828-1.63h-0.458c-0.888,0-1.714,0.743-1.714,1.63v5.37h-4.709
	c-0.886,0-1.291,0.165-1.291,1.053v0.459c0,0.887,0.404,2.488,1.291,2.488H15.5v3.934c0,0.887,0.826,2.066,1.714,2.066h0.458
	c0.887,0,1.828-1.18,1.828-2.066V20.5h4.595c0.887,0,1.405-1.602,1.405-2.488v-0.459C25.5,16.665,24.982,16.5,24.095,16.5z"/>
</svg>
