<?xml version="1.0" encoding="utf-8"?>
<!-- Generator: Adobe Illustrator 15.0.0, SVG Export Plug-In  -->
<!DOCTYPE svg PUBLIC "-//W3C//DTD SVG 1.1//EN" "http://www.w3.org/Graphics/SVG/1.1/DTD/svg11.dtd" [
	<!ENTITY ns_flows "http://ns.adobe.com/Flows/1.0/">
]>
<svg version="1.1"
	 xmlns="http://www.w3.org/2000/svg" xmlns:xlink="http://www.w3.org/1999/xlink" xmlns:a="http://ns.adobe.com/AdobeSVGViewerExtensions/3.0/"
	 x="0px" y="0px" width="45px" height="45px" viewBox="-0.447 -0.445 45 45" enable-background="new -0.447 -0.445 45 45"
	 xml:space="preserve">
<defs>
</defs>
<path d="M22.053,0C9.892,0,0,9.894,0,22.055s9.892,22.055,22.053,22.055c12.16,0,22.053-9.894,22.053-22.055S34.213,0,22.053,0z
	 M22.053,39.819c-9.795,0-17.765-7.969-17.765-17.765c0-9.795,7.97-17.765,17.765-17.765s17.764,7.97,17.764,17.765
	C39.816,31.851,31.848,39.819,22.053,39.819z"/>
<path d="M11.653,20.845l9.58-7.563c0.387-0.307,1.283-0.363,1.726-0.148c0.444,0.215,1.094,0.665,1.094,1.157v15.129
	c0,0.493-0.649,0.943-1.094,1.158c-0.178,0.087-0.554,0.129-0.746,0.129c-0.283,0-0.657-0.095-0.888-0.277L11.7,22.864
	c-0.31-0.244-0.513-0.616-0.513-1.01S11.345,21.089,11.653,20.845z"/>
<path d="M24.521,20.845l9.579-7.563c0.388-0.307,0.849-0.363,1.293-0.148s0.659,0.665,0.659,1.157v15.129
	c0,0.493-0.215,0.943-0.659,1.158c-0.179,0.087-0.337,0.129-0.528,0.129c-0.285,0-0.549-0.095-0.781-0.277l-9.572-7.564
	c-0.31-0.244-0.485-0.616-0.485-1.01S24.212,21.089,24.521,20.845z"/>
<path d="M13.053,28.768c0,0.711-0.576,1.287-1.286,1.287h-0.428c-0.71,0-1.286-0.576-1.286-1.287V15.342
	c0-0.711,0.576-1.287,1.286-1.287h0.428c0.71,0,1.286,0.576,1.286,1.287V28.768z"/>
</svg>
