<?xml version="1.0" encoding="utf-8"?>
<!-- Generator: Adobe Illustrator 15.0.0, SVG Export Plug-In  -->
<!DOCTYPE svg PUBLIC "-//W3C//DTD SVG 1.1//EN" "http://www.w3.org/Graphics/SVG/1.1/DTD/svg11.dtd" [
	<!ENTITY ns_flows "http://ns.adobe.com/Flows/1.0/">
]>
<svg version="1.1"
	 xmlns="http://www.w3.org/2000/svg" xmlns:xlink="http://www.w3.org/1999/xlink" xmlns:a="http://ns.adobe.com/AdobeSVGViewerExtensions/3.0/"
	 x="0px" y="0px" width="45px" height="45px" viewBox="-0.446 -0.445 45 45" enable-background="new -0.446 -0.445 45 45"
	 xml:space="preserve">
<defs>
</defs>
<path d="M22.055,0C9.893,0,0,9.895,0,22.055c0,12.161,9.893,22.055,22.055,22.055c12.16,0,22.053-9.894,22.053-22.055
	C44.107,9.895,34.215,0,22.055,0z M22.055,39.82c-9.796,0-17.766-7.97-17.766-17.766c0-9.795,7.97-17.765,17.766-17.765
	c9.794,0,17.764,7.97,17.764,17.765C39.818,31.851,31.849,39.82,22.055,39.82z"/>
<path d="M34.987,20.144l-9.58-7.564c-0.386-0.306-1.05-0.362-1.493-0.148c-0.444,0.215-0.86,0.666-0.86,1.159v15.128
	c0,0.493,0.417,0.942,0.86,1.159c0.178,0.085,0.438,0.128,0.628,0.128c0.284,0,0.599-0.094,0.832-0.277l9.596-7.565
	c0.309-0.244,0.5-0.616,0.5-1.009C35.469,20.759,35.296,20.388,34.987,20.144z"/>
<path d="M22.12,20.144l-9.581-7.564c-0.387-0.306-1.115-0.362-1.559-0.148c-0.443,0.215-0.926,0.666-0.926,1.159v15.128
	c0,0.493,0.483,0.942,0.926,1.159c0.179,0.085,0.469,0.128,0.662,0.128c0.284,0,0.616-0.094,0.847-0.277l9.606-7.565
	c0.309-0.244,0.502-0.616,0.502-1.009C22.596,20.759,22.428,20.388,22.12,20.144z"/>
</svg>
