<?xml version="1.0" encoding="utf-8"?>
<!-- Generator: Adobe Illustrator 15.0.0, SVG Export Plug-In  -->
<!DOCTYPE svg PUBLIC "-//W3C//DTD SVG 1.1//EN" "http://www.w3.org/Graphics/SVG/1.1/DTD/svg11.dtd" [
	<!ENTITY ns_flows "http://ns.adobe.com/Flows/1.0/">
]>
<svg version="1.1"
	 xmlns="http://www.w3.org/2000/svg" xmlns:xlink="http://www.w3.org/1999/xlink" xmlns:a="http://ns.adobe.com/AdobeSVGViewerExtensions/3.0/"
	 x="0px" y="0px" width="44px" height="55px" viewBox="0 -0.172 44 55" enable-background="new 0 -0.172 44 55"
	 xml:space="preserve">
<defs>
</defs>
<path d="M22.84,18.828l10.608-2.522c1.125-0.268,2.078-0.957,2.684-1.941c0.606-0.984,0.792-2.146,0.525-3.271l-0.542-2.281
	c-0.466-1.959-2.197-3.327-4.208-3.327c-0.337,0-0.674,0.04-1.004,0.118L29.277,5.99l-0.611-2.571
	c-0.568-2.387-2.694-3.837-4.909-3.311L7.247,4.034c-2.23,0.53-3.478,2.752-2.904,5.169l0.611,2.571l-1.626,0.387
	c-1.125,0.268-2.078,0.957-2.684,1.941c-0.606,0.984-0.792,2.146-0.525,3.271l0.542,2.28c0.466,1.959,2.197,3.327,4.208,3.327
	c0.336,0,0.635-0.04,0.964-0.118L11,21.625v29.042c0,2.373,1.89,4.162,4.292,4.162h24.512c2.437,0,4.196-1.789,4.196-4.162V18.828
	H22.84z M7.262,8.509C7.23,8.374,6.976,7.182,7.941,6.953l16.509-3.926c0.087-0.021,0.171-0.031,0.25-0.031
	c0.576,0,0.923,0.602,1.046,1.118l0.612,2.571L7.874,11.08L7.262,8.509z M5.18,19.944c-0.714,0.17-1.432-0.282-1.6-0.985
	l-0.542-2.28c-0.169-0.712,0.272-1.43,0.985-1.599l27.575-6.557c0.102-0.024,0.207-0.037,0.31-0.037c0.616,0,1.146,0.42,1.29,1.021
	l0.542,2.281c0.169,0.712-0.272,1.43-0.985,1.599L5.18,19.944z M41,50.667c0,0.802-0.562,1.162-1.196,1.162H15.292
	c-0.749,0-1.292-0.445-1.292-1.162V21.828h27V50.667z"/>
<path d="M23,26.242c0-0.781-0.633-1.414-1.414-1.414h-0.173c-0.781,0-1.414,0.633-1.414,1.414v21.173
	c0,0.781,0.633,1.414,1.414,1.414h0.173c0.781,0,1.414-0.633,1.414-1.414V26.242z"/>
<path d="M30,26.242c0-0.781-0.633-1.414-1.414-1.414h-0.172c-0.781,0-1.414,0.633-1.414,1.414v21.173
	c0,0.781,0.633,1.414,1.414,1.414h0.172c0.781,0,1.414-0.633,1.414-1.414V26.242z"/>
<path d="M36,26.242c0-0.781-0.633-1.414-1.415-1.414h-0.171c-0.781,0-1.415,0.633-1.415,1.414v21.173
	c0,0.781,0.633,1.414,1.415,1.414h0.171c0.781,0,1.415-0.633,1.415-1.414V26.242z"/>
</svg>
