<?xml version="1.0" encoding="utf-8"?>
<!-- Generator: Adobe Illustrator 15.0.0, SVG Export Plug-In  -->
<!DOCTYPE svg PUBLIC "-//W3C//DTD SVG 1.1//EN" "http://www.w3.org/Graphics/SVG/1.1/DTD/svg11.dtd" [
	<!ENTITY ns_flows "http://ns.adobe.com/Flows/1.0/">
]>
<svg version="1.1"
	 xmlns="http://www.w3.org/2000/svg" xmlns:xlink="http://www.w3.org/1999/xlink" xmlns:a="http://ns.adobe.com/AdobeSVGViewerExtensions/3.0/"
	 x="0px" y="0px" width="210px" height="600px" viewBox="0.25 -2 210 600" enable-background="new 0.25 -2 210 600"
	 xml:space="preserve">
<defs>
</defs>
<g>
	<linearGradient id="SVGID_1_" gradientUnits="userSpaceOnUse" x1="105.5" y1="1" x2="105.5" y2="598">
		<stop  offset="0" style="stop-color:#1A1A1A"/>
		<stop  offset="0.1939" style="stop-color:#4D4D4D"/>
		<stop  offset="1" style="stop-color:#666666"/>
	</linearGradient>
	<path fill="url(#SVGID_1_)" d="M32.643,598C15.746,598,2,585.215,2,569.5v-540C2,13.785,15.746,1,32.643,1h145.715
		C195.254,1,209,13.785,209,29.5v540c0,15.715-13.747,28.5-30.644,28.5H32.643z"/>
	<path fill="#333333" d="M178.357,3C194.427,3,207,14.612,207,29.5v540c0,14.888-12.574,27.5-28.644,27.5H32.643
		C16.573,597,3,584.388,3,569.5v-540C3,14.612,16.573,3,32.643,3H178 M178.357,0H32.643C14.891,0,0,12.932,0,29.5v540
		C0,586.068,14.891,600,32.643,600h145.714C196.108,600,210,586.068,210,569.5v-540C210,12.932,196.109,0,178.357,0L178.357,0z"/>
</g>
<linearGradient id="SVGID_2_" gradientUnits="userSpaceOnUse" x1="3220" y1="1425" x2="2640" y2="1425" gradientTransform="matrix(0 1 -1 0 1529 -2632)">
	<stop  offset="0" style="stop-color:#000000"/>
	<stop  offset="0.1212" style="stop-color:#303030"/>
	<stop  offset="0.4061" style="stop-color:#333333"/>
	<stop  offset="1" style="stop-color:#FFFFFF"/>
</linearGradient>
<path fill="url(#SVGID_2_)" d="M41,588c-16.568,0-30-13.432-30-30V38C11,21.432,24.432,8,41,8h126c16.568,0,30,13.432,30,30v520
	c0,16.568-13.432,30-30,30H41z"/>
<path fill="#FFFFFF" stroke="#B3B3B3" stroke-width="8" stroke-miterlimit="10" d="M41.35,480C35.081,480,30,474.919,30,468.65
	V32.35C30,26.081,35.082,21,41.35,21H166.65c6.268,0,11.35,5.081,11.35,11.35V468.65c0,6.269-5.082,11.35-11.35,11.35H41.35z"/>
<g>
	<linearGradient id="SVGID_3_" gradientUnits="userSpaceOnUse" x1="103" y1="23" x2="103" y2="480">
		<stop  offset="0.3273" style="stop-color:#F5F4F4"/>
		<stop  offset="1" style="stop-color:#FFFFFF"/>
	</linearGradient>
	<path fill="url(#SVGID_3_)" d="M176,469.65c0,5.716-4.634,10.35-10.35,10.35H40.35C34.634,480,30,475.366,30,469.65V33.35
		C30,27.634,34.634,23,40.35,23H165.65c5.716,0,10.35,4.634,10.35,10.35V469.65z"/>
	<path d="M166.15,24c5.155,0,8.85,3.694,8.85,8.85V469.15c0,5.155-3.694,9.85-8.85,9.85H40.85c-5.155,0-9.85-4.694-9.85-9.85V32.85
		c0-5.155,4.694-8.85,9.85-8.85H166 M166.15,22H40.85C34.582,22,29,26.581,29,32.85V469.15c0,6.269,5.581,11.85,11.85,11.85H166.15
		c6.268,0,10.85-5.581,10.85-11.85V32.85C177,26.581,172.418,22,166.15,22L166.15,22z"/>
</g>
<linearGradient id="SVGID_4_" gradientUnits="userSpaceOnUse" x1="479.001" y1="574.9971" x2="479.001" y2="639.9971" gradientTransform="matrix(1 0 0 1 -375.0005 -80.998)">
	<stop  offset="0" style="stop-color:#666666"/>
	<stop  offset="0.2667" style="stop-color:#808080"/>
	<stop  offset="1" style="stop-color:#E6E6E6"/>
</linearGradient>
<path fill="url(#SVGID_4_)" d="M185,549c0,5.523-4.477,10-10,10H33c-5.521,0-10-4.477-10-10l10-55h142L185,549z"/>
<rect x="53" y="437" display="none" width="57" height="14"/>
<rect x="53" y="338" display="none" width="57" height="14"/>
<rect x="53" y="239" display="none" width="57" height="14"/>
<rect x="53" y="139" display="none" width="57" height="14"/>
<rect x="53" y="40" display="none" width="57" height="14"/>
<rect x="53" y="422" display="none" width="46" height="5"/>
<rect x="53" y="402" display="none" width="46" height="5"/>
<rect x="53" y="382" display="none" width="46" height="5"/>
<rect x="53" y="362" display="none" width="46" height="5"/>
<rect x="53" y="323" display="none" width="46" height="5"/>
<rect x="53" y="303" display="none" width="46" height="5"/>
<rect x="53" y="283" display="none" width="46" height="5"/>
<rect x="53" y="263" display="none" width="46" height="5"/>
<rect x="53" y="223" display="none" width="46" height="5"/>
<rect x="53" y="203" display="none" width="46" height="5"/>
<rect x="53" y="183" display="none" width="46" height="5"/>
<rect x="53" y="163" display="none" width="46" height="5"/>
<rect x="53" y="124" display="none" width="46" height="5"/>
<rect x="53" y="104" display="none" width="46" height="5"/>
<rect x="53" y="84" display="none" width="46" height="5"/>
<rect x="53" y="64" display="none" width="46" height="5"/>
<text transform="matrix(1 0 0 1 132.2012 450)" display="none" font-family="'AdobeMingStd-Light-B5pc-H'" font-size="24">0</text>
<text transform="matrix(1 0 0 1 126.166 353)" display="none" font-family="'AdobeMingStd-Light-B5pc-H'" font-size="24">25</text>
<text transform="matrix(1 0 0 1 126.166 254)" display="none" font-family="'AdobeMingStd-Light-B5pc-H'" font-size="24">50</text>
<text transform="matrix(1 0 0 1 126.166 154)" display="none" font-family="'AdobeMingStd-Light-B5pc-H'" font-size="24">75</text>
<text transform="matrix(1 0 0 1 120.1309 54)" display="none" font-family="'AdobeMingStd-Light-B5pc-H'" font-size="24">100</text>
</svg>
