<?xml version="1.0" encoding="utf-8"?>
<!-- Generator: Adobe Illustrator 15.0.0, SVG Export Plug-In  -->
<!DOCTYPE svg PUBLIC "-//W3C//DTD SVG 1.1//EN" "http://www.w3.org/Graphics/SVG/1.1/DTD/svg11.dtd" [
	<!ENTITY ns_flows "http://ns.adobe.com/Flows/1.0/">
]>
<svg version="1.1"
	 xmlns="http://www.w3.org/2000/svg" xmlns:xlink="http://www.w3.org/1999/xlink" xmlns:a="http://ns.adobe.com/AdobeSVGViewerExtensions/3.0/"
	 x="0px" y="0px" width="430px" height="220px" viewBox="0 -2 430 220" enable-background="new 0 -2 430 220" xml:space="preserve">
<defs>
</defs>
<rect x="214" width="3" height="30"/>
<rect x="214" width="3" height="30"/>
<rect x="213" width="5" height="40"/>
<rect x="138.377" y="14.844" transform="matrix(0.9239 -0.3827 0.3827 0.9239 -2.6094 56.5704)" width="5" height="40"/>
<rect x="75.114" y="57.115" transform="matrix(0.7071 -0.7071 0.7071 0.7071 -31.7956 77.4677)" width="5" height="40"/>
<rect x="32.844" y="120.377" transform="matrix(0.3827 -0.9239 0.9239 0.3827 -107.8725 119.3033)" width="5" height="40"/>
<rect x="390" y="213" width="40" height="5"/>
<rect y="213" width="40" height="5"/>
<rect x="392.886" y="121.03" transform="matrix(-0.3828 -0.9238 0.9238 -0.3828 416.4566 560.2861)" width="5" height="40"/>
<rect x="350.886" y="57.822" transform="matrix(-0.7073 -0.707 0.707 -0.7073 548.3021 382.6912)" width="5" height="40"/>
<rect x="287.893" y="15.497" transform="matrix(-0.924 -0.3824 0.3824 -0.924 545.1407 179.3458)" width="5" height="40"/>
<rect x="198.308" y="0.616" transform="matrix(0.9969 -0.0785 0.0785 0.9969 -0.6093 15.7233)" width="3" height="30"/>
<rect x="182.713" y="2.462" transform="matrix(0.9877 -0.1564 0.1564 0.9877 -0.4639 29.03)" width="3" height="30"/>
<rect x="167.311" y="5.526" transform="matrix(0.9724 -0.2334 0.2334 0.9724 -0.1281 39.9691)" width="3" height="30"/>
<rect x="152.197" y="9.789" transform="matrix(0.9511 -0.3089 0.3089 0.9511 -0.1395 48.696)" width="3" height="30"/>
<rect x="123.202" y="21.799" transform="matrix(0.8911 -0.4538 0.4538 0.8911 -3.1186 60.6031)" width="3" height="29.999"/>
<rect x="109.5" y="29.472" transform="matrix(0.8527 -0.5223 0.5223 0.8527 -6.8837 64.5269)" width="3" height="29.999"/>
<rect x="96.443" y="38.197" transform="matrix(0.8091 -0.5877 0.5877 0.8091 -12.5641 67.7197)" width="3" height="29.999"/>
<rect x="84.11" y="47.919" transform="matrix(0.7604 -0.6494 0.6494 0.7604 -20.3511 70.671)" width="3" height="29.999"/>
<rect x="61.919" y="70.111" transform="matrix(0.6496 -0.7603 0.7603 0.6496 -42.4855 78.0392)" width="3" height="29.999"/>
<rect x="52.197" y="82.444" transform="matrix(0.5879 -0.8089 0.8089 0.5879 -56.6965 83.5935)" width="3" height="29.999"/>
<rect x="43.473" y="95.501" transform="matrix(0.5225 -0.8526 0.8526 0.5225 -72.7424 91.107)" width="3" height="29.999"/>
<rect x="35.799" y="109.202" transform="matrix(0.454 -0.891 0.891 0.454 -90.2995 101.0518)" width="3" height="29.999"/>
<rect x="23.789" y="138.197" transform="matrix(0.3091 -0.951 0.951 0.3091 -128.2223 129.896)" width="3" height="29.998"/>
<rect x="19.527" y="153.312" transform="matrix(0.2336 -0.9723 0.9723 0.2336 -147.5398 149.4448)" width="3" height="29.998"/>
<rect x="16.463" y="168.714" transform="matrix(0.1566 -0.9877 0.9877 0.1566 -166.2962 172.6887)" width="3" height="29.998"/>
<rect x="14.618" y="184.309" transform="matrix(0.0786 -0.9969 0.9969 0.0786 -183.8404 199.7074)" width="3" height="29.998"/>
<rect x="413.635" y="184.078" transform="matrix(-0.0776 -0.997 0.997 -0.0776 248.0972 628.1854)" width="2" height="30.5"/>
<rect x="411.791" y="168.502" transform="matrix(-0.1557 -0.9878 0.9878 -0.1557 295.563 620.1223)" width="2" height="30.5"/>
<rect x="408.732" y="153.119" transform="matrix(-0.2324 -0.9726 0.9726 -0.2324 341.2 606.0126)" width="2" height="30.5"/>
<rect x="404.475" y="138.024" transform="matrix(-0.3081 -0.9514 0.9514 -0.3081 384.5778 586.2469)" width="2" height="30.5"/>
<rect x="392.479" y="109.065" transform="matrix(-0.4531 -0.8915 0.8915 -0.4531 460.926 531.4163)" width="2" height="30.5"/>
<rect x="384.816" y="95.381" transform="matrix(-0.5215 -0.8533 0.8533 -0.5215 492.614 497.525)" width="2" height="30.499"/>
<rect x="376.102" y="82.34" transform="matrix(-0.5868 -0.8097 0.8097 -0.5868 519.3801 460.2005)" width="2" height="30.499"/>
<rect x="366.392" y="70.023" transform="matrix(-0.6485 -0.7613 0.7613 -0.6485 540.7158 420.2459)" width="2" height="30.5"/>
<rect x="344.228" y="47.858" transform="matrix(-0.7597 -0.6503 0.6503 -0.7597 566.4473 335.5552)" width="2" height="30.501"/>
<rect x="331.91" y="38.148" transform="matrix(-0.8085 -0.5885 0.5885 -0.8085 570.6326 292.4994)" width="2" height="30.501"/>
<rect x="318.87" y="29.435" transform="matrix(-0.8521 -0.5234 0.5234 -0.8521 569.0279 250.1926)" width="2" height="30.501"/>
<rect x="305.185" y="21.771" transform="matrix(-0.8906 -0.4548 0.4548 -0.8906 562.0315 209.2492)" width="2" height="30.501"/>
<rect x="276.227" y="9.776" transform="matrix(-0.9508 -0.3098 0.3098 -0.9508 533.0554 134.7187)" width="2" height="30.501"/>
<rect x="261.131" y="5.518" transform="matrix(-0.9722 -0.2341 0.2341 -0.9722 512.1125 102.3355)" width="2" height="30.501"/>
<rect x="245.747" y="2.458" transform="matrix(-0.9876 -0.1572 0.1572 -0.9876 487.644 73.9838)" width="2" height="30.501"/>
<rect x="230.172" y="0.615" transform="matrix(-0.9969 -0.0791 0.0791 -0.9969 460.365 49.9631)" width="2" height="30.501"/>
</svg>
