<?xml version="1.0" encoding="utf-8"?>
<!-- Generator: Adobe Illustrator 15.0.0, SVG Export Plug-In  -->
<!DOCTYPE svg PUBLIC "-//W3C//DTD SVG 1.1//EN" "http://www.w3.org/Graphics/SVG/1.1/DTD/svg11.dtd" [
	<!ENTITY ns_flows "http://ns.adobe.com/Flows/1.0/">
]>
<svg version="1.1"
	 xmlns="http://www.w3.org/2000/svg" xmlns:xlink="http://www.w3.org/1999/xlink" xmlns:a="http://ns.adobe.com/AdobeSVGViewerExtensions/3.0/"
	 x="0px" y="0px" width="430px" height="220px" viewBox="0 -2 430 220" enable-background="new 0 -2 430 220" xml:space="preserve">
<defs>
</defs>
<rect x="214" fill="#FFFFFF" width="3" height="30"/>
<rect x="214" fill="#FFFFFF" width="3" height="30"/>
<rect x="213" fill="#FFFFFF" width="5" height="40"/>
<rect x="138.377" y="14.843" transform="matrix(0.9239 -0.3826 0.3826 0.9239 -2.6113 56.5574)" fill="#FFFFFF" width="5" height="40"/>
<rect x="75.114" y="57.114" transform="matrix(0.7071 -0.7072 0.7072 0.7071 -31.7954 77.4752)" fill="#FFFFFF" width="5.001" height="40"/>
<rect x="32.844" y="120.377" transform="matrix(0.3827 -0.9239 0.9239 0.3827 -107.8722 119.3032)" fill="#FFFFFF" width="5" height="40"/>
<rect x="390" y="213" fill="#FFFFFF" width="40" height="5"/>
<rect y="213" fill="#FFFFFF" width="40" height="5"/>
<rect x="392.886" y="121.03" transform="matrix(-0.3828 -0.9238 0.9238 -0.3828 416.4566 560.2861)" fill="#FFFFFF" width="5" height="40"/>
<rect x="350.886" y="57.822" transform="matrix(-0.7072 -0.707 0.707 -0.7072 548.281 382.7046)" fill="#FFFFFF" width="5" height="40"/>
<rect x="287.893" y="15.497" transform="matrix(-0.924 -0.3824 0.3824 -0.924 545.1406 179.3462)" fill="#FFFFFF" width="5" height="40.001"/>
<rect x="198.308" y="0.617" transform="matrix(0.9969 -0.0781 0.0781 0.9969 -0.6094 15.6583)" fill="#FFFFFF" width="3" height="30"/>
<rect x="182.713" y="2.462" transform="matrix(0.9877 -0.1563 0.1563 0.9877 -0.4657 29.0003)" fill="#FFFFFF" width="3" height="30"/>
<rect x="167.311" y="5.527" transform="matrix(0.9725 -0.2331 0.2331 0.9725 -0.1344 39.9156)" fill="#FFFFFF" width="3" height="29.999"/>
<rect x="152.197" y="9.789" transform="matrix(0.9511 -0.3089 0.3089 0.9511 -0.1395 48.696)" fill="#FFFFFF" width="3" height="30"/>
<rect x="123.202" y="21.8" transform="matrix(0.8911 -0.4538 0.4538 0.8911 -3.1186 60.6031)" fill="#FFFFFF" width="3" height="29.998"/>
<rect x="109.5" y="29.473" transform="matrix(0.8528 -0.5222 0.5222 0.8528 -6.8868 64.5107)" fill="#FFFFFF" width="3" height="29.999"/>
<rect x="96.443" y="38.197" transform="matrix(0.8091 -0.5876 0.5876 0.8091 -12.566 67.7051)" fill="#FFFFFF" width="3" height="29.999"/>
<rect x="84.11" y="47.919" transform="matrix(0.7604 -0.6494 0.6494 0.7604 -20.3511 70.671)" fill="#FFFFFF" width="3" height="29.999"/>
<rect x="61.919" y="70.111" transform="matrix(0.6495 -0.7603 0.7603 0.6495 -42.4861 78.0503)" fill="#FFFFFF" width="3" height="29.999"/>
<rect x="52.197" y="82.443" transform="matrix(0.5879 -0.8089 0.8089 0.5879 -56.6963 83.5934)" fill="#FFFFFF" width="3" height="29.999"/>
<rect x="43.473" y="95.501" transform="matrix(0.5225 -0.8526 0.8526 0.5225 -72.7424 91.107)" fill="#FFFFFF" width="3" height="29.999"/>
<rect x="35.799" y="109.202" transform="matrix(0.454 -0.891 0.891 0.454 -90.2993 101.0516)" fill="#FFFFFF" width="3" height="29.999"/>
<rect x="23.789" y="138.197" transform="matrix(0.309 -0.951 0.951 0.309 -128.2232 129.9036)" fill="#FFFFFF" width="3" height="29.998"/>
<rect x="19.527" y="153.311" transform="matrix(0.2336 -0.9723 0.9723 0.2336 -147.5396 149.4446)" fill="#FFFFFF" width="3" height="29.998"/>
<rect x="16.463" y="168.714" transform="matrix(0.1566 -0.9877 0.9877 0.1566 -166.2962 172.6887)" fill="#FFFFFF" width="3" height="29.998"/>
<rect x="14.617" y="184.309" transform="matrix(0.0786 -0.9969 0.9969 0.0786 -183.8407 199.7102)" fill="#FFFFFF" width="3" height="29.998"/>
<rect x="413.635" y="184.078" transform="matrix(-0.0776 -0.997 0.997 -0.0776 248.0967 628.1859)" fill="#FFFFFF" width="2" height="30.5"/>
<rect x="411.792" y="168.502" transform="matrix(-0.1558 -0.9878 0.9878 -0.1558 295.5795 620.1268)" fill="#FFFFFF" width="2" height="30.5"/>
<rect x="408.732" y="153.119" transform="matrix(-0.2324 -0.9726 0.9726 -0.2324 341.2 606.0126)" fill="#FFFFFF" width="2" height="30.5"/>
<rect x="404.474" y="138.024" transform="matrix(-0.308 -0.9514 0.9514 -0.308 384.5454 586.245)" fill="#FFFFFF" width="2.001" height="30.5"/>
<rect x="392.479" y="109.065" transform="matrix(-0.4531 -0.8915 0.8915 -0.4531 460.9262 531.416)" fill="#FFFFFF" width="2" height="30.5"/>
<rect x="384.816" y="95.381" transform="matrix(-0.5216 -0.8532 0.8532 -0.5216 492.6635 497.511)" fill="#FFFFFF" width="2" height="30.499"/>
<rect x="376.102" y="82.34" transform="matrix(-0.587 -0.8096 0.8096 -0.587 519.4318 460.1805)" fill="#FFFFFF" width="2" height="30.5"/>
<rect x="366.392" y="70.023" transform="matrix(-0.6485 -0.7613 0.7613 -0.6485 540.7158 420.2459)" fill="#FFFFFF" width="2" height="30.5"/>
<rect x="344.228" y="47.858" transform="matrix(-0.7597 -0.6503 0.6503 -0.7597 566.4471 335.5556)" fill="#FFFFFF" width="2" height="30.501"/>
<rect x="331.91" y="38.149" transform="matrix(-0.8084 -0.5887 0.5887 -0.8084 570.5856 292.5459)" fill="#FFFFFF" width="2.001" height="30.5"/>
<rect x="318.87" y="29.434" transform="matrix(-0.8521 -0.5234 0.5234 -0.8521 569.0281 250.1922)" fill="#FFFFFF" width="2" height="30.501"/>
<rect x="305.185" y="21.771" transform="matrix(-0.8905 -0.455 0.455 -0.8905 561.994 209.3053)" fill="#FFFFFF" width="2" height="30.501"/>
<rect x="276.227" y="9.776" transform="matrix(-0.9509 -0.3096 0.3096 -0.9509 533.0808 134.6598)" fill="#FFFFFF" width="2" height="30.501"/>
<rect x="261.131" y="5.518" transform="matrix(-0.9721 -0.2344 0.2344 -0.9721 512.0932 102.3943)" fill="#FFFFFF" width="2" height="30.501"/>
<rect x="245.747" y="2.458" transform="matrix(-0.9876 -0.1572 0.1572 -0.9876 487.644 73.9833)" fill="#FFFFFF" width="2" height="30.502"/>
<rect x="230.172" y="0.614" transform="matrix(-0.9969 -0.0791 0.0791 -0.9969 460.365 49.9631)" fill="#FFFFFF" width="2" height="30.502"/>
</svg>
