<?xml version="1.0" encoding="utf-8"?>
<!-- Generator: Adobe Illustrator 15.0.0, SVG Export Plug-In  -->
<!DOCTYPE svg PUBLIC "-//W3C//DTD SVG 1.1//EN" "http://www.w3.org/Graphics/SVG/1.1/DTD/svg11.dtd" [
	<!ENTITY ns_flows "http://ns.adobe.com/Flows/1.0/">
]>
<svg version="1.1"
	 xmlns="http://www.w3.org/2000/svg" xmlns:xlink="http://www.w3.org/1999/xlink" xmlns:a="http://ns.adobe.com/AdobeSVGViewerExtensions/3.0/"
	 x="0px" y="0px" width="600px" height="300px" viewBox="0 -1.5 600 300" enable-background="new 0 -1.5 600 300"
	 xml:space="preserve">
<defs>
</defs>
<g>
	<linearGradient id="SVGID_1_" gradientUnits="userSpaceOnUse" x1="300.5" y1="1" x2="300.5" y2="298">
		<stop  offset="0" style="stop-color:#1A1A1A"/>
		<stop  offset="0.1939" style="stop-color:#4D4D4D"/>
		<stop  offset="1" style="stop-color:#666666"/>
	</linearGradient>
	<path fill="url(#SVGID_1_)" d="M30.5,298C14.785,298,2,284.254,2,267.357V31.643C2,14.747,14.785,1,30.5,1h540
		C586.215,1,599,14.747,599,31.643v235.714C599,284.254,586.215,298,570.5,298H30.5z"/>
	<path fill="#333333" d="M570.5,3C585.388,3,597,15.574,597,31.643v235.714C597,283.427,585.388,297,570.5,297h-540
		C15.612,297,3,283.427,3,267.357V31.643C3,15.574,15.612,3,30.5,3H570 M570.5,0h-540C13.932,0,0,13.891,0,31.643v235.714
		C0,285.109,13.932,300,30.5,300h540c16.568,0,29.5-14.891,29.5-32.643V31.643C600,13.891,587.068,0,570.5,0L570.5,0z"/>
</g>
<linearGradient id="SVGID_2_" gradientUnits="userSpaceOnUse" x1="299" y1="289" x2="299" y2="9">
	<stop  offset="0" style="stop-color:#000000"/>
	<stop  offset="0.1212" style="stop-color:#303030"/>
	<stop  offset="0.4061" style="stop-color:#333333"/>
	<stop  offset="1" style="stop-color:#FFFFFF"/>
</linearGradient>
<path fill="url(#SVGID_2_)" d="M589,259c0,16.568-13.432,30-30,30H39c-16.568,0-30-13.432-30-30V39C9,22.432,22.432,9,39,9h520
	c16.568,0,30,13.432,30,30V259z"/>
<path fill="#FFFFFF" stroke="#B3B3B3" stroke-width="8" stroke-miterlimit="10" d="M571,156.65c0,6.268-5.081,11.35-11.35,11.35
	H33.35C27.081,168,22,162.918,22,156.65V51.35C22,45.082,27.081,40,33.35,40H559.65c6.269,0,11.35,5.082,11.35,11.35V156.65z"/>
<g>
	<linearGradient id="SVGID_3_" gradientUnits="userSpaceOnUse" x1="296.5" y1="41" x2="296.5" y2="167">
		<stop  offset="0" style="stop-color:#CCCCCC"/>
		<stop  offset="0.3273" style="stop-color:#F5F4F4"/>
		<stop  offset="1" style="stop-color:#FFFFFF"/>
	</linearGradient>
	<path fill="url(#SVGID_3_)" d="M570,156.65c0,5.716-4.634,10.35-10.35,10.35H33.35C27.634,167,23,162.366,23,156.65V51.35
		C23,45.634,27.634,41,33.35,41H559.65c5.716,0,10.35,4.634,10.35,10.35V156.65z"/>
	<path d="M560.15,42c5.155,0,8.85,3.694,8.85,8.85V156.15c0,5.155-3.694,9.85-8.85,9.85H33.85c-5.155,0-9.85-4.694-9.85-9.85V50.85
		c0-5.155,4.694-8.85,9.85-8.85H560 M560.15,40H33.85C27.581,40,22,44.582,22,50.85V156.15c0,6.268,5.581,11.85,11.85,11.85H560.15
		c6.269,0,10.85-5.582,10.85-11.85V50.85C571,44.582,566.419,40,560.15,40L560.15,40z"/>
</g>
<linearGradient id="SVGID_4_" gradientUnits="userSpaceOnUse" x1="296.5" y1="185" x2="296.5" y2="270">
	<stop  offset="0" style="stop-color:#666666"/>
	<stop  offset="0.2667" style="stop-color:#808080"/>
	<stop  offset="1" style="stop-color:#E6E6E6"/>
</linearGradient>
<path fill="url(#SVGID_4_)" d="M571,260c0,5.523-4.477,10-10,10H32c-5.522,0-10-4.477-10-10l10-75h529L571,260z"/>
<rect x="537" y="81" display="none" width="14" height="57"/>
<rect x="413" y="81" display="none" width="14" height="57"/>
<rect x="289" y="81" display="none" width="14" height="57"/>
<rect x="165" y="81" display="none" width="14" height="57"/>
<rect x="41" y="81" display="none" width="14" height="57"/>
<rect x="516" y="92" display="none" width="5" height="46"/>
<rect x="491" y="92" display="none" width="5" height="46"/>
<rect x="466" y="92" display="none" width="5" height="46"/>
<rect x="441" y="92" display="none" width="5" height="46"/>
<rect x="394" y="92" display="none" width="5" height="46"/>
<rect x="369" y="92" display="none" width="5" height="46"/>
<rect x="344" y="92" display="none" width="5" height="46"/>
<rect x="319" y="92" display="none" width="5" height="46"/>
<rect x="268" y="92" display="none" width="5" height="46"/>
<rect x="243" y="92" display="none" width="5" height="46"/>
<rect x="218" y="92" display="none" width="5" height="46"/>
<rect x="193" y="92" display="none" width="5" height="46"/>
<rect x="145" y="92" display="none" width="5" height="46"/>
<rect x="120" y="92" display="none" width="5" height="46"/>
<rect x="95" y="92" display="none" width="5" height="46"/>
<rect x="70" y="92" display="none" width="5" height="46"/>
<text transform="matrix(1 0 0 1 524.667 70.3335)" display="none" font-family="'AdobeMingStd-Light-B5pc-H'" font-size="24">100</text>
<text transform="matrix(1 0 0 1 405.667 70.3335)" display="none" font-family="'AdobeMingStd-Light-B5pc-H'" font-size="24">75</text>
<text transform="matrix(1 0 0 1 283.667 70.3335)" display="none" font-family="'AdobeMingStd-Light-B5pc-H'" font-size="24">50</text>
<text transform="matrix(1 0 0 1 160.667 70.3335)" display="none" font-family="'AdobeMingStd-Light-B5pc-H'" font-size="24">25</text>
<text transform="matrix(1 0 0 1 43.667 70.3335)" display="none" font-family="'AdobeMingStd-Light-B5pc-H'" font-size="24">0</text>
</svg>
