<?xml version="1.0" encoding="utf-8"?>
<!-- Generator: Adobe Illustrator 15.0.0, SVG Export Plug-In  -->
<!DOCTYPE svg PUBLIC "-//W3C//DTD SVG 1.1//EN" "http://www.w3.org/Graphics/SVG/1.1/DTD/svg11.dtd" [
	<!ENTITY ns_flows "http://ns.adobe.com/Flows/1.0/">
]>
<svg version="1.1"
	 xmlns="http://www.w3.org/2000/svg" xmlns:xlink="http://www.w3.org/1999/xlink" xmlns:a="http://ns.adobe.com/AdobeSVGViewerExtensions/3.0/"
	 x="0px" y="0px" width="462px" height="585px" viewBox="0 -0.936 462 585" enable-background="new 0 -0.936 462 585"
	 xml:space="preserve">
<defs>
</defs>
<linearGradient id="SVGID_1_" gradientUnits="userSpaceOnUse" x1="-589.6904" y1="579.1274" x2="-589.6904" y2="469.1274" gradientTransform="matrix(-1 0 0 1 -141.2539 0)">
	<stop  offset="0.0242" style="stop-color:#111111"/>
	<stop  offset="0.2121" style="stop-color:#404040"/>
	<stop  offset="0.5152" style="stop-color:#FFFFFF"/>
	<stop  offset="0.8545" style="stop-color:#1E1E1E"/>
	<stop  offset="1" style="stop-color:#303030"/>
</linearGradient>
<path fill="url(#SVGID_1_)" d="M455.807,469.127c3.421,0,6.193,24.545,6.193,55c0,30.454-2.772,55-6.193,55h-20.934v-110H455.807z"
	/>
<ellipse fill="#1E1E1E" cx="434.743" cy="524.048" rx="6.194" ry="55.146"/>
<linearGradient id="SVGID_2_" gradientUnits="userSpaceOnUse" x1="13.9365" y1="579.1274" x2="13.9365" y2="468.1274">
	<stop  offset="0.0242" style="stop-color:#111111"/>
	<stop  offset="0.2121" style="stop-color:#404040"/>
	<stop  offset="0.5152" style="stop-color:#FFFFFF"/>
	<stop  offset="0.8545" style="stop-color:#1E1E1E"/>
	<stop  offset="1" style="stop-color:#303030"/>
</linearGradient>
<path fill="url(#SVGID_2_)" d="M6.195,468.127c-3.422,0-6.195,25.046-6.195,55.5c0,30.456,2.773,55.5,6.195,55.5h21.678v-111H6.195z
	"/>
<ellipse fill="#1E1E1E" cx="27.257" cy="524.006" rx="6.195" ry="55.145"/>
<linearGradient id="SVGID_3_" gradientUnits="userSpaceOnUse" x1="229.373" y1="557.1274" x2="229.373" y2="492.1274">
	<stop  offset="0.0242" style="stop-color:#373737"/>
	<stop  offset="0.5152" style="stop-color:#FFFFFF"/>
	<stop  offset="1" style="stop-color:#303030"/>
</linearGradient>
<path fill="url(#SVGID_3_)" d="M434.873,544.735c0,6.844-7.11,12.393-15.881,12.393H39.754c-8.771,0-15.881-5.549-15.881-12.393
	V504.52c0-6.844,7.11-12.393,15.881-12.393h379.238c8.771,0,15.881,5.549,15.881,12.393V544.735z"/>
<linearGradient id="SVGID_4_" gradientUnits="userSpaceOnUse" x1="73.873" y1="524.1274" x2="390.873" y2="524.1274">
	<stop  offset="0.0121" style="stop-color:#979797"/>
	<stop  offset="0.1091" style="stop-color:#4D4D4D"/>
	<stop  offset="0.8848" style="stop-color:#747474"/>
	<stop  offset="1" style="stop-color:#333333"/>
</linearGradient>
<path fill="url(#SVGID_4_)" d="M372.478,475.127l-3.161-4.07c0-3.534-7.841-6.93-17.514-6.93H112.895
	c-9.673,0-15.238,3.016-17.514,6.93l-3.159,4.07H73.873v102h0.602c0.98,3,8.396,7,17.402,7h280.945c9.007,0,16.422-4,17.4-7h0.65
	v-102H372.478z"/>
<linearGradient id="SVGID_5_" gradientUnits="userSpaceOnUse" x1="74.3613" y1="463.1274" x2="390.3359" y2="463.1274">
	<stop  offset="0.0121" style="stop-color:#4D4D4D"/>
	<stop  offset="0.4121" style="stop-color:#979797"/>
	<stop  offset="1" style="stop-color:#333333"/>
</linearGradient>
<path fill="url(#SVGID_5_)" d="M390.336,475.043c0,3.535-7.841,6.084-17.514,6.084H91.877c-9.674,0-17.516-2.549-17.516-6.084
	l21.02-23.533c2.275-3.918,7.841-6.383,17.514-6.383h238.908c9.673,0,13.663,1.686,17.514,6.383L390.336,475.043z"/>
<linearGradient id="SVGID_6_" gradientUnits="userSpaceOnUse" x1="122.373" y1="282.5791" x2="341.373" y2="282.5791">
	<stop  offset="0.0121" style="stop-color:#4D4D4D"/>
	<stop  offset="0.4121" style="stop-color:#979797"/>
	<stop  offset="1" style="stop-color:#333333"/>
</linearGradient>
<path fill="url(#SVGID_6_)" stroke="#333333" stroke-miterlimit="10" d="M341.373,456.444c0,0-44.344,10.087-109.5,10.087
	c-70.061,0-109.5-10.087-109.5-10.087V98.627h219V456.444z"/>
<linearGradient id="SVGID_7_" gradientUnits="userSpaceOnUse" x1="123.9063" y1="12.1187" x2="342.4961" y2="12.1187">
	<stop  offset="0.0121" style="stop-color:#CCCCCC"/>
	<stop  offset="1" style="stop-color:#B1B1B1"/>
</linearGradient>
<ellipse fill="url(#SVGID_7_)" cx="233.201" cy="12.12" rx="109.295" ry="12.117"/>
<linearGradient id="SVGID_8_" gradientUnits="userSpaceOnUse" x1="106.0898" y1="36.1274" x2="358.3096" y2="36.1274">
	<stop  offset="0.0121" style="stop-color:#CCCCCC"/>
	<stop  offset="0.3636" style="stop-color:#666666"/>
	<stop  offset="0.6606" style="stop-color:#808080"/>
	<stop  offset="1" style="stop-color:#333333"/>
</linearGradient>
<path fill="url(#SVGID_8_)" d="M358.31,60.127c0-4-7.841-48-17.515-48H123.605c-9.673,0-17.516,44-17.516,48H358.31z"/>
<linearGradient id="SVGID_9_" gradientUnits="userSpaceOnUse" x1="334.873" y1="289.9678" x2="357.873" y2="289.9678">
	<stop  offset="0.0121" style="stop-color:#979797"/>
	<stop  offset="0.4121" style="stop-color:#979797"/>
	<stop  offset="1" style="stop-color:#333333"/>
</linearGradient>
<path fill="url(#SVGID_9_)" d="M357.873,470.531c0,0-3.441,4.277-11.5,4.277c-8.932,0-11.5-4.277-11.5-4.277V105.127h23V470.531z"/>
<linearGradient id="SVGID_10_" gradientUnits="userSpaceOnUse" x1="105.873" y1="289.9678" x2="130.873" y2="289.9678">
	<stop  offset="0.0121" style="stop-color:#979797"/>
	<stop  offset="0.4121" style="stop-color:#979797"/>
	<stop  offset="1" style="stop-color:#333333"/>
</linearGradient>
<path fill="url(#SVGID_10_)" d="M130.873,470.531c0,0-4.445,4.277-12.5,4.277c-8.934,0-12.5-4.277-12.5-4.277V105.127h25V470.531z"
	/>
<path display="none" fill="#FFFFFF" d="M324.873,410.816c0,1.829-1.21,3.312-2.703,3.312h-0.594c-1.493,0-2.703-1.482-2.703-3.312
	V91.439c0-1.829,1.21-3.312,2.703-3.312h0.594c1.493,0,2.703,1.482,2.703,3.312V410.816z"/>
<path display="none" fill="#333333" d="M321.873,410.816c0,1.829-1.21,3.312-2.703,3.312h-0.594c-1.493,0-2.703-1.482-2.703-3.312
	V91.439c0-1.829,1.21-3.312,2.703-3.312h0.594c1.493,0,2.703,1.482,2.703,3.312V410.816z"/>
<path display="none" fill="#FFFFFF" d="M312.873,418.816c0,1.829-1.211,3.312-2.704,3.312h-0.592c-1.493,0-2.704-1.482-2.704-3.312
	V99.439c0-1.829,1.211-3.312,2.704-3.312h0.592c1.493,0,2.704,1.482,2.704,3.312V418.816z"/>
<path display="none" fill="#333333" d="M310.873,418.816c0,1.829-1.209,3.312-2.701,3.312h-0.598c-1.492,0-2.701-1.482-2.701-3.312
	V99.439c0-1.829,1.209-3.312,2.701-3.312h0.598c1.492,0,2.701,1.482,2.701,3.312V418.816z"/>
<path display="none" fill="#FFFFFF" d="M300.873,421.816c0,1.829-1.211,3.312-2.704,3.312h-0.592c-1.493,0-2.704-1.482-2.704-3.312
	V102.439c0-1.829,1.211-3.312,2.704-3.312h0.592c1.493,0,2.704,1.482,2.704,3.312V421.816z"/>
<path display="none" fill="#333333" d="M298.873,421.816c0,1.829-1.211,3.312-2.705,3.312h-0.59c-1.494,0-2.705-1.482-2.705-3.312
	V102.439c0-1.829,1.211-3.312,2.705-3.312h0.59c1.494,0,2.705,1.482,2.705,3.312V421.816z"/>
<path display="none" fill="#FFFFFF" d="M289.873,426.814c0,1.83-1.209,3.313-2.701,3.313h-0.598c-1.492,0-2.701-1.483-2.701-3.313
	V107.441c0-1.83,1.209-3.313,2.701-3.313h0.598c1.492,0,2.701,1.483,2.701,3.313V426.814z"/>
<path display="none" fill="#333333" d="M287.873,426.814c0,1.83-1.211,3.313-2.704,3.313h-0.592c-1.493,0-2.704-1.483-2.704-3.313
	V107.441c0-1.83,1.211-3.313,2.704-3.313h0.592c1.493,0,2.704,1.483,2.704,3.313V426.814z"/>
<path display="none" fill="#FFFFFF" d="M278.873,427.814c0,1.83-1.21,3.313-2.703,3.313h-0.594c-1.493,0-2.703-1.483-2.703-3.313
	V108.441c0-1.83,1.21-3.313,2.703-3.313h0.594c1.493,0,2.703,1.483,2.703,3.313V427.814z"/>
<path display="none" fill="#333333" d="M275.873,427.814c0,1.83-1.211,3.313-2.705,3.313h-0.59c-1.494,0-2.705-1.483-2.705-3.313
	V108.441c0-1.83,1.211-3.313,2.705-3.313h0.59c1.494,0,2.705,1.483,2.705,3.313V427.814z"/>
<path display="none" fill="#FFFFFF" d="M266.873,429.815c0,1.829-1.21,3.313-2.703,3.313h-0.594c-1.493,0-2.703-1.483-2.703-3.313
	V110.44c0-1.83,1.21-3.313,2.703-3.313h0.594c1.493,0,2.703,1.483,2.703,3.313V429.815z"/>
<path display="none" fill="#333333" d="M263.873,429.815c0,1.829-1.21,3.313-2.702,3.313h-0.596c-1.492,0-2.702-1.483-2.702-3.313
	V110.44c0-1.83,1.21-3.313,2.702-3.313h0.596c1.492,0,2.702,1.483,2.702,3.313V429.815z"/>
<path display="none" fill="#FFFFFF" d="M253.873,433.817c0,1.828-1.21,3.311-2.702,3.311h-0.596c-1.492,0-2.702-1.482-2.702-3.311
	V114.438c0-1.828,1.21-3.311,2.702-3.311h0.596c1.492,0,2.702,1.482,2.702,3.311V433.817z"/>
<path display="none" fill="#333333" d="M250.873,433.817c0,1.828-1.21,3.311-2.703,3.311h-0.594c-1.493,0-2.703-1.482-2.703-3.311
	V114.438c0-1.828,1.21-3.311,2.703-3.311h0.594c1.493,0,2.703,1.482,2.703,3.311V433.817z"/>
<path display="none" fill="#FFFFFF" d="M241.873,435.816c0,1.829-1.211,3.312-2.705,3.312h-0.59c-1.494,0-2.705-1.482-2.705-3.312
	V116.439c0-1.829,1.211-3.312,2.705-3.312h0.59c1.494,0,2.705,1.482,2.705,3.312V435.816z"/>
<path display="none" fill="#333333" d="M238.873,435.816c0,1.829-1.211,3.312-2.704,3.312h-0.592c-1.493,0-2.704-1.482-2.704-3.312
	V116.439c0-1.829,1.211-3.312,2.704-3.312h0.592c1.493,0,2.704,1.482,2.704,3.312V435.816z"/>
<path display="none" fill="#FFFFFF" d="M228.873,435.816c0,1.829-1.21,3.312-2.703,3.312h-0.594c-1.493,0-2.703-1.482-2.703-3.312
	V116.439c0-1.829,1.21-3.312,2.703-3.312h0.594c1.493,0,2.703,1.482,2.703,3.312V435.816z"/>
<path display="none" fill="#333333" d="M225.873,435.816c0,1.829-1.21,3.312-2.703,3.312h-0.594c-1.493,0-2.703-1.482-2.703-3.312
	V116.439c0-1.829,1.21-3.312,2.703-3.312h0.594c1.493,0,2.703,1.482,2.703,3.312V435.816z"/>
<path display="none" fill="#FFFFFF" d="M216.873,433.817c0,1.828-1.21,3.311-2.703,3.311h-0.594c-1.493,0-2.703-1.482-2.703-3.311
	V114.438c0-1.828,1.21-3.311,2.703-3.311h0.594c1.493,0,2.703,1.482,2.703,3.311V433.817z"/>
<path display="none" fill="#333333" d="M213.873,433.817c0,1.828-1.211,3.311-2.704,3.311h-0.592c-1.493,0-2.704-1.482-2.704-3.311
	V114.438c0-1.828,1.211-3.311,2.704-3.311h0.592c1.493,0,2.704,1.482,2.704,3.311V433.817z"/>
<path display="none" fill="#FFFFFF" d="M203.873,429.815c0,1.829-1.21,3.313-2.703,3.313h-0.594c-1.493,0-2.703-1.483-2.703-3.313
	V110.44c0-1.83,1.21-3.313,2.703-3.313h0.594c1.493,0,2.703,1.483,2.703,3.313V429.815z"/>
<path display="none" fill="#333333" d="M202.873,429.815c0,1.829-1.21,3.313-2.703,3.313h-0.594c-1.493,0-2.703-1.483-2.703-3.313
	V110.44c0-1.83,1.21-3.313,2.703-3.313h0.594c1.493,0,2.703,1.483,2.703,3.313V429.815z"/>
<path display="none" fill="#FFFFFF" d="M193.873,427.814c0,1.83-1.211,3.313-2.704,3.313h-0.592c-1.493,0-2.704-1.483-2.704-3.313
	V108.441c0-1.83,1.211-3.313,2.704-3.313h0.592c1.493,0,2.704,1.483,2.704,3.313V427.814z"/>
<path display="none" fill="#333333" d="M190.873,427.814c0,1.83-1.21,3.313-2.703,3.313h-0.594c-1.493,0-2.703-1.483-2.703-3.313
	V108.441c0-1.83,1.21-3.313,2.703-3.313h0.594c1.493,0,2.703,1.483,2.703,3.313V427.814z"/>
<path display="none" fill="#FFFFFF" d="M181.873,426.814c0,1.83-1.211,3.313-2.704,3.313h-0.592c-1.493,0-2.704-1.483-2.704-3.313
	V107.441c0-1.83,1.211-3.313,2.704-3.313h0.592c1.493,0,2.704,1.483,2.704,3.313V426.814z"/>
<path display="none" fill="#333333" d="M178.873,426.814c0,1.83-1.211,3.313-2.704,3.313h-0.592c-1.493,0-2.704-1.483-2.704-3.313
	V107.441c0-1.83,1.211-3.313,2.704-3.313h0.592c1.493,0,2.704,1.483,2.704,3.313V426.814z"/>
<path display="none" fill="#FFFFFF" d="M169.873,421.816c0,1.829-1.21,3.312-2.703,3.312h-0.594c-1.493,0-2.703-1.482-2.703-3.312
	V102.439c0-1.829,1.21-3.312,2.703-3.312h0.594c1.493,0,2.703,1.482,2.703,3.312V421.816z"/>
<path display="none" fill="#333333" d="M167.873,421.816c0,1.829-1.21,3.312-2.702,3.312h-0.596c-1.492,0-2.702-1.482-2.702-3.312
	V102.439c0-1.829,1.21-3.312,2.702-3.312h0.596c1.492,0,2.702,1.482,2.702,3.312V421.816z"/>
<path display="none" fill="#FFFFFF" d="M157.873,418.812c0,1.831-1.211,3.315-2.704,3.315h-0.592c-1.493,0-2.704-1.484-2.704-3.315
	V99.443c0-1.831,1.211-3.315,2.704-3.315h0.592c1.493,0,2.704,1.484,2.704,3.315V418.812z"/>
<path display="none" fill="#333333" d="M154.873,418.812c0,1.831-1.21,3.315-2.703,3.315h-0.594c-1.493,0-2.703-1.484-2.703-3.315
	V99.443c0-1.831,1.21-3.315,2.703-3.315h0.594c1.493,0,2.703,1.484,2.703,3.315V418.812z"/>
<path display="none" fill="#FFFFFF" d="M144.873,410.816c0,1.829-1.21,3.312-2.703,3.312h-0.594c-1.493,0-2.703-1.482-2.703-3.312
	V91.439c0-1.829,1.21-3.312,2.703-3.312h0.594c1.493,0,2.703,1.482,2.703,3.312V410.816z"/>
<path display="none" fill="#333333" d="M142.873,410.816c0,1.829-1.209,3.312-2.701,3.312h-0.598c-1.492,0-2.701-1.482-2.701-3.312
	V91.439c0-1.829,1.209-3.312,2.701-3.312h0.598c1.492,0,2.701,1.482,2.701,3.312V410.816z"/>
<linearGradient id="SVGID_11_" gradientUnits="userSpaceOnUse" x1="105.873" y1="84.6274" x2="357.873" y2="84.6274">
	<stop  offset="0.0121" style="stop-color:#CCCCCC"/>
	<stop  offset="0.4121" style="stop-color:#FFFFFF"/>
	<stop  offset="1" style="stop-color:#333333"/>
</linearGradient>
<rect x="105.873" y="59.127" fill="url(#SVGID_11_)" width="252" height="51"/>
</svg>
