<?xml version="1.0" encoding="utf-8"?>
<!-- Generator: Adobe Illustrator 15.0.0, SVG Export Plug-In  -->
<!DOCTYPE svg PUBLIC "-//W3C//DTD SVG 1.1//EN" "http://www.w3.org/Graphics/SVG/1.1/DTD/svg11.dtd" [
	<!ENTITY ns_flows "http://ns.adobe.com/Flows/1.0/">
]>
<svg version="1.1"
	 xmlns="http://www.w3.org/2000/svg" xmlns:xlink="http://www.w3.org/1999/xlink" xmlns:a="http://ns.adobe.com/AdobeSVGViewerExtensions/3.0/"
	 x="0px" y="0px" width="115px" height="600px" viewBox="-3.2 0 115 600" enable-background="new -3.2 0 115 600"
	 xml:space="preserve">
<defs>
</defs>
<rect x="100" width="15" height="600"/>
<rect x="20" y="8" fill="#FF0013" width="80" height="140"/>
<rect width="100" height="10"/>
<rect y="148" width="100" height="10"/>
<rect y="295" width="100" height="10"/>
<rect y="443" width="100" height="10"/>
<rect x="20" y="476" width="80" height="5"/>
<rect x="20" y="506" width="80" height="5"/>
<rect x="20" y="535" width="80" height="5"/>
<rect x="20" y="565" width="80" height="5"/>
<rect x="20" y="325" width="80" height="5"/>
<rect x="20" y="355" width="80" height="5"/>
<rect x="20" y="384" width="80" height="5"/>
<rect x="20" y="414" width="80" height="5"/>
<rect x="20" y="182" width="80" height="5"/>
<rect x="20" y="212" width="80" height="5"/>
<rect x="20" y="241" width="80" height="5"/>
<rect x="20" y="271" width="80" height="5"/>
<rect x="20" y="32" width="80" height="5"/>
<rect x="20" y="62" width="80" height="5"/>
<rect x="20" y="91" width="80" height="5"/>
<rect x="20" y="121" width="80" height="5"/>
<rect y="590" width="100" height="10"/>
</svg>
