<?xml version="1.0" encoding="utf-8"?>
<!-- Generator: Adobe Illustrator 15.0.0, SVG Export Plug-In  -->
<!DOCTYPE svg PUBLIC "-//W3C//DTD SVG 1.1//EN" "http://www.w3.org/Graphics/SVG/1.1/DTD/svg11.dtd" [
	<!ENTITY ns_flows "http://ns.adobe.com/Flows/1.0/">
]>
<svg version="1.1"
	 xmlns="http://www.w3.org/2000/svg" xmlns:xlink="http://www.w3.org/1999/xlink" xmlns:a="http://ns.adobe.com/AdobeSVGViewerExtensions/3.0/"
	 x="0px" y="0px" width="600px" height="115px" viewBox="0 0 600 115" enable-background="new 0 0 600 115" xml:space="preserve">
<defs>
</defs>
<rect y="100" width="600" height="15"/>
<rect x="451" y="20" fill="#FF0013" width="141" height="80"/>
<rect x="590" width="10" height="100"/>
<rect x="442" width="10" height="100"/>
<rect x="295" width="10" height="100"/>
<rect x="147" width="10" height="100"/>
<rect x="119" y="20" width="5" height="80"/>
<rect x="89" y="20" width="5" height="80"/>
<rect x="60" y="20" width="5" height="80"/>
<rect x="30" y="20" width="5" height="80"/>
<rect x="270" y="20" width="5" height="80"/>
<rect x="240" y="20" width="5" height="80"/>
<rect x="211" y="20" width="5" height="80"/>
<rect x="181" y="20" width="5" height="80"/>
<rect x="413" y="20" width="5" height="80"/>
<rect x="383" y="20" width="5" height="80"/>
<rect x="354" y="20" width="5" height="80"/>
<rect x="324" y="20" width="5" height="80"/>
<rect x="563" y="20" width="5" height="80"/>
<rect x="533" y="20" width="5" height="80"/>
<rect x="504" y="20" width="5" height="80"/>
<rect x="474" y="20" width="5" height="80"/>
<rect width="10" height="100"/>
</svg>
