<?xml version="1.0" encoding="utf-8"?>
<!-- Generator: Adobe Illustrator 15.0.0, SVG Export Plug-In  -->
<!DOCTYPE svg PUBLIC "-//W3C//DTD SVG 1.1//EN" "http://www.w3.org/Graphics/SVG/1.1/DTD/svg11.dtd" [
	<!ENTITY ns_flows "http://ns.adobe.com/Flows/1.0/">
]>
<svg version="1.1"
	 xmlns="http://www.w3.org/2000/svg" xmlns:xlink="http://www.w3.org/1999/xlink" xmlns:a="http://ns.adobe.com/AdobeSVGViewerExtensions/3.0/"
	 x="0px" y="0px" width="600px" height="100px" viewBox="1 0 600 100" enable-background="new 1 0 600 100" xml:space="preserve">
<defs>
</defs>
<rect x="572" fill="#CCCCCC" width="30" height="100"/>
<rect x="509" fill="#CCCCCC" width="30" height="100"/>
<rect x="445" fill="#CCCCCC" width="30" height="100"/>
<rect x="382" fill="#CCCCCC" width="30" height="100"/>
<rect x="318" fill="#CCCCCC" width="30" height="100"/>
<rect x="255" fill="#CCCCCC" width="30" height="100"/>
<rect x="191" fill="#CCCCCC" width="30" height="100"/>
<rect x="128" fill="#CCCCCC" width="30" height="100"/>
<rect x="64" fill="#CCCCCC" width="30" height="100"/>
<rect x="1" fill="#CCCCCC" width="30" height="100"/>
<rect x="381" y="1" fill="#CCCCCC" width="30" height="100"/>
<rect x="317" y="1" fill="#CCCCCC" width="30" height="100"/>
<rect x="254" y="1" fill="#CCCCCC" width="30" height="100"/>
<rect x="190" y="1" fill="#CCCCCC" width="30" height="100"/>
<rect x="127" y="1" fill="#CCCCCC" width="30" height="100"/>
<rect x="63" y="1" fill="#CCCCCC" width="30" height="100"/>
<rect y="1" fill="#CCCCCC" width="30" height="100"/>
</svg>
