<?xml version="1.0" encoding="utf-8"?>
<!-- Generator: Adobe Illustrator 15.0.0, SVG Export Plug-In  -->
<!DOCTYPE svg PUBLIC "-//W3C//DTD SVG 1.1//EN" "http://www.w3.org/Graphics/SVG/1.1/DTD/svg11.dtd" [
	<!ENTITY ns_flows "http://ns.adobe.com/Flows/1.0/">
]>
<svg version="1.1"
	 xmlns="http://www.w3.org/2000/svg" xmlns:xlink="http://www.w3.org/1999/xlink" xmlns:a="http://ns.adobe.com/AdobeSVGViewerExtensions/3.0/"
	 x="0px" y="0px" width="600px" height="600px" viewBox="-0.748 -1.088 600 600" enable-background="new -0.748 -1.088 600 600"
	 xml:space="preserve">
<defs>
</defs>
<polygon fill="#B3B3B3" points="346.53,66.789 311.801,62.451 312.042,0 361.656,6.195 "/>
<polygon fill="#B3B3B3" points="284.632,62.631 249.962,67.43 234.032,7.045 283.56,0.188 "/>
<polygon fill="#B3B3B3" points="223.767,74.637 191.52,88.244 160.504,34.039 206.57,14.599 "/>
<polygon fill="#B3B3B3" points="459.129,476.109 431.504,497.6 463.652,551.141 503.117,520.439 "/>
<polygon fill="#B3B3B3" points="168.082,101.986 140.456,123.477 96.469,79.146 135.934,48.444 "/>
<polygon fill="#B3B3B3" points="499.333,428.861 478.211,456.77 523.122,500.166 553.297,460.297 "/>
<polygon fill="#B3B3B3" points="121.374,142.814 100.252,170.723 46.289,139.288 76.463,99.418 "/>
<polygon fill="#B3B3B3" points="525.939,372.818 512.76,405.242 567.373,435.537 586.201,389.217 "/>
<polygon fill="#B3B3B3" points="86.824,194.342 73.645,226.766 13.385,210.369 32.213,164.049 "/>
<polygon fill="#B3B3B3" points="537.135,311.799 532.796,346.529 593.388,361.656 599.586,312.041 "/>
<polygon fill="#B3B3B3" points="66.789,253.055 62.45,287.786 0,287.543 6.196,237.929 "/>
<polygon fill="#B3B3B3" points="532.155,249.963 536.953,284.631 599.395,283.561 592.541,234.032 "/>
<polygon fill="#B3B3B3" points="62.631,314.953 67.43,349.625 7.044,365.553 0.189,316.025 "/>
<polygon fill="#B3B3B3" points="511.34,191.521 524.947,223.766 584.984,206.57 565.547,160.504 "/>
<polygon fill="#B3B3B3" points="74.637,375.818 88.245,408.066 34.039,439.08 14.6,393.016 "/>
<polygon fill="#B3B3B3" points="476.109,140.457 497.598,168.082 551.139,135.934 520.441,96.469 "/>
<polygon fill="#B3B3B3" points="101.985,431.502 123.477,459.129 79.145,503.117 48.445,463.65 "/>
<polygon fill="#B3B3B3" points="428.862,100.252 456.77,121.375 500.165,76.464 460.298,46.288 "/>
<polygon fill="#B3B3B3" points="142.814,478.211 170.723,499.334 139.287,553.297 99.418,523.121 "/>
<polygon fill="#B3B3B3" points="372.82,73.646 405.242,86.825 435.535,32.213 389.217,13.385 "/>
</svg>
