<?xml version="1.0" encoding="utf-8"?>
<!-- Generator: Adobe Illustrator 15.0.0, SVG Export Plug-In  -->
<!DOCTYPE svg PUBLIC "-//W3C//DTD SVG 1.1//EN" "http://www.w3.org/Graphics/SVG/1.1/DTD/svg11.dtd" [
	<!ENTITY ns_flows "http://ns.adobe.com/Flows/1.0/">
]>
<svg version="1.1"
	 xmlns="http://www.w3.org/2000/svg" xmlns:xlink="http://www.w3.org/1999/xlink" xmlns:a="http://ns.adobe.com/AdobeSVGViewerExtensions/3.0/"
	 x="0px" y="0px" width="786px" height="405px" viewBox="1.362 -1 786 405" enable-background="new 1.362 -1 786 405"
	 xml:space="preserve">
<defs>
</defs>
<path display="none" fill="#ED1C24" d="M915.126,401.6c0,165.687-134.313,300-300.006,300c-165.674,0-299.994-134.313-299.994-300
	c0-165.687,134.32-300,299.994-300C780.813,101.6,915.126,235.914,915.126,401.6z"/>
<linearGradient id="SVGID_2_" gradientUnits="userSpaceOnUse" x1="-11404.7813" y1="1402.6396" x2="-11340.7813" y2="1402.6396" gradientTransform="matrix(-1 0 0 -1 -10743.0625 1754.5)">
	<stop  offset="0" style="stop-color:#333333"/>
	<stop  offset="0.5879" style="stop-color:#CCCCCC"/>
	<stop  offset="0.7879" style="stop-color:#989898"/>
	<stop  offset="1" style="stop-color:#1A1A1A"/>
</linearGradient>
<path fill="url(#SVGID_2_)" d="M597.719,314.952c0,0,6.004-14.23,32-14.23c24.936,0,32,14.23,32,14.23V403h-64V314.952z"/>
<linearGradient id="SVGID_3_" gradientUnits="userSpaceOnUse" x1="-11119.7813" y1="1401.6396" x2="-11055.7813" y2="1401.6396" gradientTransform="matrix(-1 0 0 -1 -10743.0625 1754.5)">
	<stop  offset="0" style="stop-color:#333333"/>
	<stop  offset="0.5879" style="stop-color:#CCCCCC"/>
	<stop  offset="0.7879" style="stop-color:#989898"/>
	<stop  offset="1" style="stop-color:#1A1A1A"/>
</linearGradient>
<path fill="url(#SVGID_3_)" d="M312.719,315.952c0,0,6.004-14.23,32-14.23c24.936,0,32,14.23,32,14.23V404h-64V315.952z"/>
<linearGradient id="SVGID_4_" gradientUnits="userSpaceOnUse" x1="448.2188" y1="335" x2="448.2188" y2="7">
	<stop  offset="0.0121" style="stop-color:#666666"/>
	<stop  offset="0.5394" style="stop-color:#FFFFFF"/>
	<stop  offset="1" style="stop-color:#4D4D4D"/>
</linearGradient>
<rect x="139.719" y="7" fill="url(#SVGID_4_)" width="617" height="328"/>
<linearGradient id="SVGID_5_" gradientUnits="userSpaceOnUse" x1="44.8652" y1="175.0142" x2="120.8848" y2="175.0142">
	<stop  offset="0" style="stop-color:#4D4D4D"/>
	<stop  offset="0.6182" style="stop-color:#FFFFFF"/>
</linearGradient>
<ellipse fill="url(#SVGID_5_)" cx="82.875" cy="175.014" rx="38.01" ry="163.82"/>
<polygon fill="#1A1A1A" points="102.719,342.98 80.719,339.344 80.719,11.102 102.719,7.464 "/>
<linearGradient id="SVGID_6_" gradientUnits="userSpaceOnUse" x1="93.7188" y1="342.9805" x2="93.7187" y2="7.4639">
	<stop  offset="0.0667" style="stop-color:#4D4D4D"/>
	<stop  offset="0.2727" style="stop-color:#FFFFFF"/>
	<stop  offset="0.8667" style="stop-color:#666666"/>
	<stop  offset="0.9879" style="stop-color:#333333"/>
</linearGradient>
<polygon fill="url(#SVGID_6_)" points="104.719,342.98 82.719,339.344 82.719,11.102 104.719,7.464 "/>
<linearGradient id="SVGID_7_" gradientUnits="userSpaceOnUse" x1="755.3145" y1="334.3027" x2="755.3145" y2="6.9609">
	<stop  offset="0.0121" style="stop-color:#666666"/>
	<stop  offset="0.5394" style="stop-color:#FFFFFF"/>
	<stop  offset="1" style="stop-color:#4D4D4D"/>
</linearGradient>
<path fill="url(#SVGID_7_)" d="M784.303,170.632c0,90.393-4.703,163.671-23.658,163.671s-34.319-73.278-34.319-163.671
	S741.689,6.961,760.645,6.961S784.303,80.239,784.303,170.632z"/>
<linearGradient id="SVGID_8_" gradientUnits="userSpaceOnUse" x1="141.9424" y1="335.1758" x2="141.9424" y2="7.834">
	<stop  offset="0.0121" style="stop-color:#666666"/>
	<stop  offset="0.5394" style="stop-color:#FFFFFF"/>
	<stop  offset="1" style="stop-color:#4D4D4D"/>
</linearGradient>
<ellipse fill="url(#SVGID_8_)" cx="141.942" cy="171.505" rx="37.976" ry="163.671"/>
<linearGradient id="SVGID_9_" gradientUnits="userSpaceOnUse" x1="448.5107" y1="27" x2="448.5107" y2="6">
	<stop  offset="0.0121" style="stop-color:#666666"/>
	<stop  offset="1" style="stop-color:#CCCCCC"/>
</linearGradient>
<path fill="url(#SVGID_9_)" d="M122.719,6h641.579c0,0,5.115,6.299,6.671,9.354C772.132,17.638,774.303,27,774.303,27H122.719V6z"/>
<path fill="#333333" d="M150.719,337.907c0,5.021-5.428,9.093-12.123,9.093h-19.754c-6.695,0-12.123-4.071-12.123-9.093V9.093
	c0-5.021,5.428-9.093,12.123-9.093h19.754c6.695,0,12.123,4.071,12.123,9.093V337.907z"/>
<linearGradient id="SVGID_10_" gradientUnits="userSpaceOnUse" x1="123.7188" y1="347" x2="123.7187" y2="0">
	<stop  offset="0" style="stop-color:#1A1A1A"/>
	<stop  offset="0.4121" style="stop-color:#B3B3B3"/>
	<stop  offset="0.5455" style="stop-color:#CCCCCC"/>
	<stop  offset="0.6485" style="stop-color:#F2F2F2"/>
	<stop  offset="0.7576" style="stop-color:#808080"/>
	<stop  offset="1" style="stop-color:#4D4D4D"/>
</linearGradient>
<path fill="url(#SVGID_10_)" d="M145.719,337.907c0,5.021-5.428,9.093-12.123,9.093h-19.753c-6.696,0-12.124-4.071-12.124-9.093
	V9.093c0-5.021,5.428-9.093,12.124-9.093h19.753c6.695,0,12.123,4.071,12.123,9.093V337.907z"/>
<g>
	<path fill="#4D4D4D" d="M62.719,224.027c-7,0-13.75,0-19.396-0.147c-5.645-0.147-10.483-0.442-14.72-1.033
		c-8.473-1.18-14.429-3.54-19.15-8.26C0.012,205.146,0,190.484,0,161.275c0-29.211,0.03-43.873,9.471-53.313
		c4.72-4.72,10.688-7.08,19.158-8.26c4.234-0.59,9.05-0.885,14.694-1.033s12.396-0.147,19.396-0.147v19.016
		c-11,0-19.895,0-26.652,0.484s-11.242,1.452-13.179,3.387c-3.871,3.87-3.878,18.19-3.878,39.866
		c0,21.675,0.033,35.995,3.904,39.865c1.936,1.936,6.396,2.903,13.152,3.387s15.652,0.484,26.652,0.484V224.027z"/>
	<path fill="#4E4E4E" d="M9.524,108.021c4.512-4.512,10.172-6.863,18.086-8.088c0.347-0.053,0.698-0.105,1.054-0.155
		c4.08-0.568,8.742-0.861,14.124-1.014c0.2-0.006,0.353-0.011,0.556-0.017c5.639-0.147,12.375-0.147,19.375-0.147v6.251
		c0,0-0.018,12.626-0.047,12.626c-3.414,0-6.617,0-9.646,0.016c-6.646,0.033-12.322,0.138-16.955,0.471
		c-6.764,0.486-11.269,1.459-13.215,3.405c-3.892,3.89-3.907,18.198-3.907,39.915c0,21.716,0.029,36.024,3.92,39.914
		c1.945,1.946,6.455,2.918,13.217,3.405c4.623,0.333,10.301,0.438,16.932,0.471c3.037,0.016,6.227,0.016,9.654,0.016
		c0.029,0,0.047,12.64,0.047,12.64v6.238c-7,0-13.736,0-19.377-0.147c-0.201-0.005-0.378-0.011-0.578-0.017
		c-5.385-0.152-10.035-0.446-14.115-1.013c-0.362-0.051-0.716-0.104-1.069-0.158c-7.904-1.226-13.558-3.577-18.067-8.084
		c-9.418-9.417-9.438-24.072-9.438-53.263C0.074,132.092,0.106,117.438,9.524,108.021z"/>
	<path fill="#4F4F4F" d="M9.574,108.079c4.503-4.502,10.159-6.848,18.071-8.07c0.347-0.054,0.698-0.105,1.054-0.155
		c4.075-0.566,8.732-0.859,14.109-1.011c0.199-0.006,0.354-0.011,0.555-0.017c5.633-0.147,12.355-0.147,19.355-0.147v6.236
		c0,0-0.082,12.502-0.141,12.503c-3.406,0-6.602,0-9.623,0.016c-6.629,0.034-12.292,0.14-16.915,0.473
		c-6.768,0.489-11.276,1.467-13.232,3.422c-3.912,3.911-3.928,18.206-3.928,39.964c0,21.757,0.028,36.052,3.94,39.963
		c1.955,1.956,6.469,2.934,13.234,3.423c4.613,0.333,10.277,0.438,16.891,0.472c3.031,0.016,6.213,0.016,9.632,0.017
		c0.059,0,0.142,12.516,0.142,12.516v6.223c-7,0-13.721,0-19.357-0.147c-0.201-0.005-0.378-0.011-0.577-0.017
		c-5.38-0.152-10.025-0.445-14.101-1.011c-0.362-0.05-0.715-0.103-1.068-0.158c-7.902-1.223-13.552-3.568-18.053-8.067
		c-9.396-9.395-9.418-24.042-9.418-53.214C0.145,132.12,0.179,117.473,9.574,108.079z"/>
	<path fill="#505050" d="M9.625,108.137c4.494-4.493,10.146-6.834,18.057-8.053c0.347-0.053,0.696-0.104,1.052-0.154
		c4.072-0.565,8.725-0.857,14.096-1.009c0.199-0.006,0.353-0.011,0.554-0.017c5.629-0.146,12.336-0.147,19.336-0.147v6.222
		c0,0-0.146,12.378-0.234,12.379c-3.398,0-6.587,0.001-9.6,0.017c-6.612,0.035-12.262,0.141-16.875,0.475
		c-6.773,0.491-11.284,1.475-13.251,3.44c-3.933,3.931-3.948,18.213-3.948,40.013c0,21.799,0.029,36.081,3.961,40.012
		c1.967,1.966,6.481,2.949,13.253,3.44c4.604,0.333,10.253,0.44,16.851,0.474c3.023,0.016,6.197,0.017,9.608,0.017
		c0.088,0,0.235,12.392,0.235,12.392v6.208c-7,0-13.707,0-19.336-0.147c-0.203-0.005-0.379-0.011-0.578-0.017
		c-5.374-0.152-10.015-0.444-14.087-1.008c-0.361-0.05-0.714-0.103-1.066-0.157c-7.901-1.22-13.547-3.561-18.038-8.05
		c-9.374-9.372-9.4-24.012-9.4-53.165C0.213,132.148,0.252,117.508,9.625,108.137z"/>
	<path fill="#515151" d="M9.676,108.195c4.484-4.483,10.133-6.819,18.041-8.036c0.347-0.053,0.696-0.104,1.052-0.153
		c4.067-0.563,8.715-0.855,14.08-1.006c0.199-0.006,0.353-0.011,0.554-0.017c5.623-0.146,12.316-0.147,19.316-0.147v6.207
		c0,0-0.213,12.255-0.328,12.256c-3.391,0-6.571,0.001-9.577,0.017c-6.596,0.035-12.231,0.142-16.835,0.476
		c-6.778,0.494-11.292,1.482-13.269,3.458c-3.953,3.952-3.969,18.221-3.969,40.063c0,21.84,0.028,36.11,3.981,40.061
		c1.977,1.976,6.494,2.964,13.271,3.458c4.595,0.333,10.231,0.441,16.812,0.476c3.016,0.017,6.182,0.018,9.585,0.018
		c0.117,0,0.329,12.268,0.329,12.268v6.194c-7,0-13.693-0.001-19.316-0.147c-0.201-0.005-0.378-0.01-0.578-0.016
		c-5.368-0.152-10.004-0.443-14.072-1.006c-0.361-0.05-0.712-0.102-1.065-0.157c-7.899-1.217-13.541-3.553-18.023-8.033
		c-9.351-9.349-9.38-23.981-9.38-53.116C0.283,132.176,0.325,117.543,9.676,108.195z"/>
	<path fill="#525252" d="M9.727,108.253c4.475-4.474,10.119-6.805,18.026-8.019c0.346-0.053,0.695-0.104,1.05-0.153
		c4.063-0.562,8.707-0.853,14.066-1.003c0.199-0.006,0.352-0.011,0.553-0.017c5.617-0.146,12.297-0.147,19.297-0.147v6.192
		c0,0-0.277,12.131-0.424,12.132c-3.383,0-6.554,0.002-9.553,0.018c-6.579,0.036-12.2,0.144-16.794,0.479
		c-6.783,0.496-11.301,1.489-13.288,3.476c-3.972,3.972-3.987,18.229-3.987,40.111c0,21.882,0.028,36.139,4.001,40.11
		c1.986,1.986,6.508,2.979,13.289,3.476c4.584,0.334,10.207,0.442,16.771,0.478c3.008,0.016,6.166,0.018,9.562,0.018
		c0.146,0,0.423,12.145,0.423,12.145v6.18c-7,0-13.678-0.001-19.297-0.147c-0.201-0.005-0.378-0.011-0.577-0.017
		c-5.362-0.151-9.994-0.442-14.058-1.003c-0.361-0.05-0.712-0.102-1.064-0.156c-7.897-1.215-13.535-3.545-18.009-8.016
		c-9.328-9.326-9.36-23.951-9.36-53.067C0.354,132.204,0.398,117.579,9.727,108.253z"/>
	<path fill="#535353" d="M9.776,108.312c4.466-4.464,10.106-6.79,18.013-8.001c0.345-0.053,0.694-0.104,1.049-0.153
		c4.059-0.56,8.697-0.85,14.052-1c0.199-0.006,0.351-0.011,0.552-0.017c5.613-0.146,12.277-0.147,19.277-0.147v6.178
		c0,0-0.342,12.007-0.518,12.008c-3.375,0.001-6.538,0.002-9.53,0.019c-6.563,0.036-12.17,0.145-16.754,0.48
		c-6.788,0.499-11.309,1.497-13.306,3.494c-3.992,3.992-4.008,18.236-4.008,40.16c0,21.923,0.029,36.167,4.021,40.159
		c1.996,1.996,6.521,2.995,13.307,3.494c4.575,0.334,10.184,0.443,16.73,0.479c3.002,0.017,6.152,0.018,9.539,0.019
		c0.176,0.001,0.518,12.021,0.518,12.021v6.166c-7,0-13.664-0.001-19.277-0.147c-0.201-0.005-0.377-0.011-0.576-0.017
		c-5.357-0.151-9.984-0.441-14.044-1.001c-0.36-0.05-0.711-0.102-1.063-0.156c-7.896-1.211-13.53-3.537-17.994-7.998
		c-9.306-9.303-9.341-23.921-9.341-53.019C0.424,132.231,0.471,117.614,9.776,108.312z"/>
	<path fill="#545454" d="M9.827,108.37c4.457-4.455,10.093-6.775,17.997-7.984c0.346-0.053,0.694-0.103,1.048-0.152
		c4.055-0.559,8.689-0.848,14.038-0.999c0.198-0.006,0.352-0.011,0.551-0.017c5.607-0.146,12.258-0.146,19.258-0.146v6.163
		c0,0-0.406,11.884-0.611,11.885c-3.367,0-6.522,0.002-9.508,0.019c-6.545,0.037-12.139,0.146-16.713,0.481
		c-6.794,0.501-11.316,1.505-13.324,3.511c-4.013,4.012-4.028,18.244-4.028,40.209c0,21.964,0.028,36.196,4.042,40.208
		c2.006,2.006,6.533,3.01,13.325,3.511c4.565,0.335,10.159,0.444,16.69,0.481c2.994,0.017,6.137,0.019,9.516,0.02
		c0.205,0.001,0.611,11.896,0.611,11.896v6.151c-7,0-13.65-0.001-19.258-0.147c-0.201-0.005-0.377-0.01-0.575-0.016
		c-5.352-0.151-9.975-0.44-14.029-0.999c-0.36-0.05-0.71-0.101-1.062-0.155c-7.895-1.209-13.524-3.53-17.979-7.981
		c-9.283-9.28-9.323-23.891-9.323-52.97C0.492,132.259,0.544,117.649,9.827,108.37z"/>
	<path fill="#555555" d="M9.878,108.428c4.447-4.445,10.08-6.761,17.982-7.967c0.345-0.052,0.693-0.103,1.046-0.151
		c4.052-0.557,8.681-0.846,14.024-0.996c0.198-0.005,0.351-0.011,0.55-0.016c5.602-0.146,12.238-0.147,19.238-0.147v6.148
		c0,0-0.471,11.76-0.705,11.761c-3.359,0.001-6.508,0.003-9.484,0.02c-6.529,0.038-12.108,0.148-16.674,0.483
		c-6.798,0.504-11.324,1.513-13.342,3.529c-4.033,4.033-4.049,18.251-4.049,40.258c0,22.005,0.029,36.225,4.063,40.257
		c2.016,2.017,6.547,3.025,13.343,3.529c4.556,0.335,10.136,0.445,16.651,0.483c2.986,0.017,6.122,0.019,9.492,0.02
		c0.234,0.001,0.705,11.773,0.705,11.773v6.136c-7,0-13.635-0.001-19.238-0.146c-0.201-0.005-0.376-0.011-0.574-0.017
		c-5.346-0.15-9.964-0.439-14.016-0.996c-0.359-0.05-0.709-0.101-1.06-0.155c-7.894-1.207-13.52-3.522-17.965-7.964
		c-9.262-9.257-9.304-23.861-9.304-52.921C0.563,132.288,0.617,117.684,9.878,108.428z"/>
	<path fill="#565656" d="M9.929,108.486c4.438-4.436,10.066-6.747,17.968-7.95c0.344-0.052,0.691-0.103,1.045-0.151
		c4.047-0.555,8.672-0.843,14.01-0.993c0.197-0.006,0.35-0.011,0.549-0.017c5.598-0.145,12.219-0.146,19.219-0.146v6.134
		c0,0-0.535,11.636-0.799,11.637c-3.352,0.001-6.492,0.003-9.462,0.02c-6.513,0.038-12.078,0.149-16.633,0.485
		c-6.804,0.506-11.333,1.52-13.36,3.547c-4.054,4.053-4.069,18.259-4.069,40.307c0,22.047,0.028,36.253,4.083,40.306
		c2.025,2.027,6.56,3.041,13.361,3.547c4.546,0.336,10.113,0.447,16.611,0.485c2.979,0.018,6.106,0.02,9.469,0.021
		c0.263,0.001,0.799,11.649,0.799,11.649v6.122c-7,0-13.621-0.001-19.219-0.146c-0.199-0.005-0.375-0.011-0.573-0.016
		c-5.341-0.15-9.954-0.438-14.002-0.994c-0.358-0.049-0.708-0.101-1.058-0.154c-7.893-1.204-13.515-3.514-17.95-7.946
		c-9.239-9.235-9.284-23.831-9.284-52.872C0.633,132.315,0.689,117.719,9.929,108.486z"/>
	<path fill="#575757" d="M9.979,108.544c4.429-4.426,10.054-6.732,17.953-7.933c0.344-0.052,0.691-0.103,1.044-0.151
		c4.043-0.553,8.664-0.841,13.995-0.991c0.198-0.006,0.35-0.011,0.549-0.016c5.592-0.145,12.199-0.146,19.199-0.146v6.119
		c0,0-0.602,11.512-0.895,11.514c-3.342,0.001-6.475,0.003-9.438,0.021c-6.496,0.039-12.047,0.15-16.593,0.487
		c-6.809,0.509-11.341,1.528-13.378,3.564c-4.074,4.073-4.09,18.267-4.09,40.356c0,22.088,0.029,36.282,4.104,40.354
		c2.035,2.037,6.572,3.056,13.379,3.565c4.537,0.336,10.09,0.448,16.57,0.486c2.973,0.018,6.093,0.02,9.446,0.021
		c0.293,0.001,0.894,11.525,0.894,11.525v6.107c-7,0-13.605-0.001-19.199-0.146c-0.199-0.005-0.375-0.01-0.573-0.016
		c-5.334-0.15-9.943-0.438-13.986-0.991c-0.358-0.049-0.707-0.101-1.057-0.154c-7.891-1.201-13.509-3.507-17.937-7.93
		c-9.216-9.211-9.266-23.8-9.266-52.823C0.701,132.343,0.763,117.754,9.979,108.544z"/>
	<path fill="#585858" d="M10.029,108.602c4.42-4.417,10.04-6.717,17.938-7.916c0.343-0.052,0.69-0.102,1.043-0.15
		c4.038-0.552,8.654-0.839,13.98-0.988c0.198-0.006,0.349-0.011,0.548-0.017c5.586-0.145,12.18-0.146,19.18-0.146v6.104
		c0,0-0.666,11.388-0.988,11.39c-3.334,0.001-6.459,0.004-9.415,0.021c-6.479,0.04-12.017,0.152-16.552,0.489
		c-6.813,0.512-11.349,1.536-13.396,3.583c-4.095,4.093-4.11,18.274-4.11,40.405c0,22.129,0.028,36.311,4.124,40.404
		c2.047,2.047,6.586,3.07,13.397,3.582c4.526,0.336,10.065,0.449,16.53,0.488c2.965,0.018,6.077,0.021,9.423,0.022
		c0.322,0.001,0.987,11.402,0.987,11.402v6.093c-7,0-13.592-0.002-19.178-0.146c-0.201-0.005-0.376-0.011-0.574-0.017
		c-5.329-0.149-9.934-0.436-13.973-0.988c-0.357-0.049-0.706-0.1-1.055-0.153c-7.89-1.198-13.504-3.499-17.922-7.912
		c-9.193-9.188-9.246-23.77-9.246-52.774C0.771,132.371,0.836,117.79,10.029,108.602z"/>
	<path fill="#595959" d="M10.08,108.66c4.41-4.408,10.027-6.703,17.923-7.898c0.344-0.052,0.69-0.102,1.042-0.15
		c4.035-0.55,8.646-0.837,13.967-0.986c0.197-0.006,0.348-0.011,0.549-0.016c5.58-0.145,12.158-0.146,19.158-0.146v6.089
		c0,0-0.73,11.265-1.082,11.267c-3.326,0.001-6.443,0.004-9.393,0.022c-6.462,0.04-11.985,0.153-16.511,0.491
		c-6.819,0.514-11.357,1.542-13.416,3.6c-4.114,4.114-4.13,18.282-4.13,40.454c0,22.171,0.029,36.339,4.143,40.453
		c2.059,2.057,6.601,3.085,13.418,3.6c4.517,0.336,10.041,0.45,16.49,0.49c2.957,0.019,6.062,0.021,9.399,0.023
		c0.351,0.001,1.081,11.278,1.081,11.278v6.078c-7,0-13.578-0.002-19.158-0.146c-0.201-0.005-0.375-0.01-0.573-0.016
		c-5.323-0.149-9.924-0.436-13.959-0.986c-0.357-0.049-0.704-0.1-1.054-0.153c-7.888-1.196-13.498-3.491-17.906-7.895
		c-9.171-9.166-9.227-23.74-9.227-52.725C0.842,132.399,0.908,117.825,10.08,108.66z"/>
	<path fill="#5A5A5A" d="M10.131,108.718c4.4-4.398,10.014-6.688,17.908-7.881c0.343-0.052,0.689-0.102,1.04-0.149
		c4.031-0.549,8.638-0.834,13.953-0.983c0.197-0.006,0.349-0.011,0.548-0.017c5.574-0.144,12.139-0.146,19.139-0.146v6.075
		c0,0-0.795,11.141-1.176,11.143c-3.318,0.001-6.429,0.004-9.369,0.023c-6.446,0.04-11.955,0.155-16.472,0.492
		c-6.824,0.517-11.365,1.55-13.434,3.618c-4.135,4.134-4.149,18.29-4.149,40.503c0,22.212,0.027,36.368,4.162,40.501
		c2.068,2.067,6.613,3.101,13.436,3.618c4.508,0.337,10.018,0.452,16.451,0.492c2.949,0.019,6.046,0.021,9.376,0.023
		c0.38,0.002,1.175,11.154,1.175,11.154v6.063c-7,0-13.563-0.002-19.139-0.146c-0.199-0.005-0.375-0.01-0.572-0.016
		c-5.318-0.149-9.913-0.435-13.944-0.983c-0.357-0.048-0.704-0.099-1.053-0.152c-7.886-1.193-13.492-3.483-17.892-7.877
		c-9.149-9.143-9.207-23.709-9.207-52.676C0.912,132.427,0.981,117.86,10.131,108.718z"/>
	<path fill="#5B5B5B" d="M10.181,108.776c4.392-4.389,10.001-6.674,17.895-7.864c0.342-0.051,0.688-0.101,1.039-0.149
		c4.026-0.547,8.629-0.832,13.938-0.98c0.196-0.006,0.348-0.011,0.547-0.016c5.57-0.144,12.119-0.146,19.119-0.146v6.061
		c0,0-0.859,11.017-1.27,11.019c-3.311,0.001-6.413,0.005-9.347,0.023c-6.43,0.041-11.925,0.156-16.431,0.494
		c-6.829,0.52-11.374,1.558-13.452,3.636c-4.154,4.154-4.17,18.297-4.17,40.552c0,22.253,0.028,36.396,4.183,40.55
		c2.078,2.078,6.627,3.116,13.454,3.636c4.498,0.337,9.995,0.453,16.411,0.494c2.941,0.019,6.03,0.022,9.352,0.023
		c0.41,0.002,1.27,11.031,1.27,11.031v6.049c-7,0-13.549-0.002-19.119-0.146c-0.199-0.005-0.374-0.011-0.571-0.016
		c-5.313-0.149-9.903-0.434-13.931-0.981c-0.356-0.048-0.703-0.099-1.051-0.152c-7.885-1.19-13.487-3.476-17.877-7.86
		c-9.127-9.12-9.189-23.679-9.189-52.627C0.98,132.455,1.055,117.896,10.181,108.776z"/>
	<path fill="#5C5C5C" d="M10.231,108.834c4.383-4.379,9.987-6.659,17.879-7.846c0.342-0.052,0.688-0.101,1.038-0.148
		c4.022-0.546,8.62-0.83,13.925-0.979c0.196-0.005,0.347-0.011,0.546-0.016c5.564-0.144,12.1-0.146,19.1-0.146v6.045
		c0,0-0.926,10.894-1.363,10.896c-3.303,0.002-6.397,0.005-9.324,0.024c-6.413,0.042-11.894,0.158-16.391,0.496
		c-6.834,0.521-11.381,1.565-13.47,3.653c-4.175,4.175-4.19,18.305-4.19,40.601c0,22.295,0.029,36.425,4.203,40.6
		c2.088,2.088,6.64,3.131,13.472,3.653c4.488,0.338,9.972,0.454,16.37,0.496c2.936,0.019,6.017,0.022,9.33,0.024
		c0.438,0.002,1.363,10.907,1.363,10.907v6.034c-7,0-13.535-0.002-19.1-0.146c-0.199-0.005-0.373-0.01-0.57-0.016
		c-5.308-0.148-9.894-0.433-13.916-0.978c-0.356-0.049-0.702-0.099-1.05-0.151c-7.883-1.188-13.482-3.468-17.862-7.843
		c-9.104-9.097-9.17-23.649-9.17-52.579C1.051,132.482,1.128,117.931,10.231,108.834z"/>
	<path fill="#5D5D5D" d="M10.282,108.893c4.373-4.37,9.974-6.645,17.864-7.829c0.342-0.051,0.687-0.101,1.037-0.148
		c4.018-0.544,8.611-0.828,13.909-0.976c0.197-0.006,0.347-0.011,0.546-0.016c5.559-0.144,12.08-0.146,19.08-0.146v6.031
		c0,0-0.99,10.77-1.459,10.771c-3.293,0.002-6.38,0.006-9.3,0.025c-6.396,0.042-11.863,0.159-16.35,0.498
		c-6.84,0.524-11.39,1.573-13.488,3.671c-4.195,4.195-4.211,18.313-4.211,40.649c0,22.336,0.028,36.454,4.224,40.648
		c2.098,2.098,6.652,3.147,13.49,3.671c4.479,0.338,9.947,0.455,16.33,0.497c2.928,0.02,6.001,0.023,9.307,0.025
		c0.468,0.002,1.457,10.783,1.457,10.783v6.02c-7,0-13.52-0.002-19.08-0.146c-0.199-0.005-0.373-0.01-0.569-0.016
		c-5.302-0.148-9.884-0.432-13.902-0.976c-0.355-0.048-0.701-0.098-1.048-0.151c-7.882-1.185-13.477-3.46-17.848-7.826
		c-9.082-9.075-9.15-23.619-9.15-52.53C1.121,132.51,1.2,117.966,10.282,108.893z"/>
	<path fill="#5E5E5E" d="M10.333,108.95c4.363-4.359,9.961-6.629,17.85-7.812c0.341-0.051,0.686-0.1,1.035-0.147
		c4.015-0.542,8.603-0.825,13.896-0.973c0.196-0.005,0.346-0.011,0.545-0.016c5.555-0.144,12.061-0.146,19.061-0.146v6.016
		c0,0-1.055,10.646-1.553,10.648c-3.285,0.002-6.364,0.006-9.277,0.025c-6.379,0.043-11.832,0.161-16.31,0.5
		c-6.844,0.527-11.397,1.581-13.506,3.689c-4.216,4.215-4.231,18.32-4.231,40.698c0,22.377,0.029,36.483,4.244,40.697
		c2.107,2.108,6.666,3.162,13.508,3.689c4.47,0.339,9.924,0.457,16.291,0.499c2.92,0.02,5.985,0.023,9.283,0.026
		c0.497,0.002,1.551,10.659,1.551,10.659v6.005c-7,0-13.506-0.002-19.061-0.146c-0.199-0.005-0.372-0.011-0.569-0.016
		c-5.295-0.148-9.873-0.431-13.888-0.973c-0.354-0.048-0.7-0.098-1.046-0.15c-7.881-1.182-13.472-3.453-17.834-7.809
		c-9.059-9.051-9.132-23.588-9.132-52.481C1.189,132.538,1.273,118.001,10.333,108.95z"/>
	<path fill="#5F5F5F" d="M10.383,109.008c4.354-4.35,9.948-6.615,17.835-7.794c0.341-0.051,0.686-0.1,1.035-0.147
		c4.01-0.541,8.594-0.823,13.881-0.97c0.196-0.006,0.347-0.011,0.544-0.016c5.549-0.144,12.041-0.146,19.041-0.146v6.001
		c-1,0-1.119,10.522-1.646,10.524c-3.277,0.002-6.35,0.006-9.254,0.026c-6.363,0.043-11.803,0.162-16.27,0.501
		c-6.85,0.53-11.406,1.589-13.524,3.707c-4.236,4.235-4.252,18.328-4.252,40.748c0,22.419,0.028,36.511,4.265,40.747
		c2.117,2.118,6.679,3.177,13.526,3.707c4.459,0.339,9.899,0.458,16.251,0.5c2.912,0.02,5.97,0.024,9.259,0.026
		c0.526,0.002,0.646,10.535,1.646,10.535v5.991c-7,0-13.49-0.003-19.041-0.146c-0.197-0.005-0.371-0.01-0.568-0.016
		c-5.29-0.148-9.863-0.43-13.873-0.971c-0.354-0.048-0.699-0.098-1.045-0.15c-7.879-1.179-13.467-3.444-17.819-7.792
		c-9.037-9.028-9.112-23.558-9.112-52.432C1.26,132.566,1.347,118.036,10.383,109.008z"/>
	<path fill="#606060" d="M10.434,109.066c4.346-4.34,9.935-6.601,17.82-7.777c0.34-0.051,0.685-0.1,1.033-0.146
		c4.006-0.54,8.586-0.821,13.867-0.968c0.195-0.006,0.346-0.011,0.543-0.016c5.543-0.143,12.021-0.146,19.021-0.146V106
		c-1,0-1.184,10.398-1.74,10.401c-3.27,0.002-6.334,0.006-9.231,0.026c-6.347,0.044-11.771,0.163-16.229,0.503
		c-6.854,0.532-11.413,1.596-13.542,3.724c-4.257,4.256-4.272,18.335-4.272,40.796c0,22.46,0.029,36.54,4.285,40.795
		c2.129,2.128,6.691,3.192,13.544,3.724c4.45,0.34,9.878,0.459,16.21,0.502c2.906,0.021,5.956,0.025,9.237,0.027
		c0.556,0.003,0.739,10.412,1.739,10.412v5.977c-7,0-13.477-0.003-19.021-0.146c-0.197-0.005-0.371-0.01-0.567-0.016
		c-5.284-0.148-9.853-0.429-13.859-0.968c-0.354-0.048-0.698-0.098-1.043-0.149c-7.878-1.177-13.461-3.437-17.805-7.774
		c-9.015-9.005-9.093-23.528-9.093-52.383C1.33,132.594,1.419,118.071,10.434,109.066z"/>
	<path fill="#616161" d="M10.484,109.125c4.336-4.331,9.921-6.586,17.805-7.76c0.34-0.05,0.685-0.099,1.032-0.146
		c4.002-0.538,8.577-0.819,13.854-0.965c0.195-0.006,0.345-0.011,0.542-0.017c5.539-0.143,12.002-0.145,19.002-0.145v5.972
		c-1,0-1.25,10.274-1.834,10.277c-3.262,0.002-6.318,0.007-9.209,0.027c-6.33,0.044-11.74,0.165-16.188,0.505
		c-6.859,0.535-11.422,1.604-13.562,3.742c-4.276,4.276-4.292,18.343-4.292,40.846c0,22.501,0.028,36.569,4.306,40.844
		c2.139,2.138,6.705,3.208,13.563,3.742c4.44,0.34,9.854,0.459,16.17,0.504c2.898,0.021,5.94,0.025,9.214,0.027
		c0.585,0.003,0.833,10.288,1.833,10.288v5.962c-7,0-13.463-0.003-19-0.146c-0.199-0.005-0.372-0.01-0.568-0.016
		c-5.279-0.147-9.843-0.428-13.846-0.966c-0.354-0.047-0.696-0.097-1.042-0.149c-7.876-1.174-13.455-3.429-17.789-7.757
		C1.481,204.812,1.4,190.296,1.4,161.46C1.4,132.622,1.492,118.106,10.484,109.125z"/>
	<path fill="#626262" d="M10.535,109.183c4.326-4.321,9.907-6.571,17.79-7.742c0.34-0.051,0.683-0.099,1.031-0.146
		c3.997-0.536,8.568-0.816,13.839-0.963c0.195-0.006,0.344-0.011,0.541-0.016c5.533-0.143,11.982-0.146,18.982-0.146v5.958
		c-1,0-1.314,10.15-1.93,10.153c-3.252,0.002-6.301,0.007-9.185,0.028c-6.313,0.045-11.71,0.166-16.148,0.506
		c-6.864,0.537-11.43,1.611-13.579,3.76c-4.297,4.296-4.313,18.351-4.313,40.895c0,22.543,0.029,36.597,4.326,40.893
		c2.148,2.148,6.718,3.223,13.58,3.76c4.431,0.34,9.83,0.461,16.131,0.506c2.891,0.021,5.925,0.025,9.19,0.028
		c0.613,0.003,0.927,10.164,1.927,10.164v5.947c-7,0-13.447-0.003-18.98-0.146c-0.199-0.005-0.372-0.01-0.567-0.016
		c-5.273-0.147-9.833-0.427-13.831-0.963c-0.354-0.047-0.696-0.097-1.041-0.148c-7.874-1.171-13.449-3.421-17.774-7.74
		c-8.97-8.96-9.056-23.468-9.056-52.286C1.469,132.649,1.565,118.142,10.535,109.183z"/>
	<path fill="#636363" d="M10.585,109.241c4.317-4.312,9.896-6.557,17.776-7.725c0.339-0.05,0.682-0.099,1.029-0.146
		c3.994-0.534,8.56-0.814,13.824-0.96c0.195-0.005,0.344-0.011,0.541-0.016c5.527-0.142,11.963-0.145,18.963-0.145v5.943
		c-1,0-1.379,10.026-2.023,10.03c-3.246,0.002-6.285,0.007-9.162,0.028c-6.296,0.045-11.679,0.167-16.107,0.508
		c-6.87,0.54-11.438,1.619-13.598,3.777c-4.317,4.316-4.332,18.358-4.332,40.943c0,22.584,0.027,36.626,4.346,40.942
		c2.158,2.159,6.73,3.238,13.599,3.778c4.421,0.34,9.806,0.462,16.091,0.508c2.883,0.021,5.91,0.026,9.166,0.029
		c0.644,0.003,1.021,10.04,2.021,10.04v5.933c-7,0-13.434-0.003-18.961-0.146c-0.197-0.005-0.371-0.01-0.566-0.016
		c-5.269-0.147-9.823-0.426-13.817-0.96c-0.353-0.047-0.695-0.097-1.039-0.148c-7.873-1.169-13.444-3.414-17.76-7.723
		c-8.947-8.937-9.036-23.438-9.036-52.237C1.539,132.677,1.639,118.177,10.585,109.241z"/>
	<path fill="#646464" d="M10.636,109.299c4.309-4.303,9.882-6.542,17.761-7.708c0.339-0.05,0.682-0.098,1.029-0.145
		c3.989-0.533,8.551-0.812,13.81-0.958c0.195-0.006,0.343-0.011,0.54-0.016c5.523-0.142,11.943-0.145,18.943-0.145v5.928
		c-1,0-1.443,9.903-2.117,9.906c-3.238,0.003-6.271,0.008-9.139,0.029c-6.28,0.046-11.649,0.169-16.067,0.51
		c-6.875,0.542-11.446,1.626-13.616,3.795c-4.338,4.337-4.353,18.366-4.353,40.993c0,22.625,0.028,36.655,4.366,40.991
		c2.168,2.169,6.744,3.253,13.617,3.795c4.411,0.341,9.781,0.463,16.051,0.51c2.875,0.021,5.895,0.026,9.143,0.029
		c0.673,0.003,1.115,9.917,2.115,9.917v5.918c-7,0-13.42-0.003-18.941-0.145c-0.197-0.005-0.37-0.01-0.566-0.016
		c-5.262-0.146-9.813-0.425-13.803-0.958c-0.352-0.047-0.693-0.096-1.037-0.147c-7.872-1.166-13.439-3.406-17.746-7.706
		c-8.924-8.914-9.016-23.407-9.016-52.188C1.609,132.706,1.711,118.212,10.636,109.299z"/>
	<path fill="#656565" d="M10.687,109.357c4.299-4.293,9.868-6.528,17.746-7.691c0.338-0.05,0.681-0.098,1.027-0.144
		c3.985-0.531,8.542-0.81,13.796-0.956c0.194-0.005,0.344-0.011,0.539-0.016c5.518-0.142,11.924-0.145,18.924-0.145v5.914
		c-1,0-1.508,9.779-2.211,9.783c-3.23,0.002-6.255,0.008-9.116,0.029c-6.264,0.047-11.618,0.17-16.027,0.512
		c-6.88,0.545-11.454,1.634-13.634,3.813c-4.357,4.357-4.373,18.374-4.373,41.041c0,22.667,0.029,36.684,4.387,41.04
		c2.178,2.179,6.757,3.269,13.635,3.813c4.401,0.341,9.76,0.464,16.01,0.511c2.869,0.021,5.881,0.027,9.121,0.03
		c0.702,0.003,1.209,9.793,2.209,9.793v5.904c-7,0-13.404-0.004-18.922-0.146c-0.197-0.005-0.37-0.01-0.565-0.016
		c-5.256-0.146-9.802-0.424-13.788-0.956c-0.352-0.047-0.693-0.096-1.036-0.147c-7.87-1.164-13.434-3.398-17.731-7.688
		c-8.902-8.891-8.998-23.377-8.998-52.139C1.678,132.733,1.784,118.248,10.687,109.357z"/>
	<path fill="#666666" d="M10.737,109.415c4.289-4.284,9.854-6.513,17.731-7.673c0.338-0.05,0.68-0.098,1.025-0.144
		c3.981-0.53,8.534-0.807,13.782-0.953c0.194-0.006,0.343-0.011,0.538-0.016c5.512-0.142,11.904-0.145,18.904-0.145v5.899
		c-1,0-1.572,9.655-2.305,9.659c-3.223,0.003-6.239,0.009-9.094,0.03c-6.247,0.047-11.587,0.171-15.986,0.514
		c-6.886,0.547-11.463,1.642-13.652,3.831c-4.378,4.377-4.394,18.381-4.394,41.09c0,22.708,0.028,36.712,4.407,41.089
		c2.188,2.189,6.77,3.283,13.653,3.831c4.392,0.342,9.735,0.466,15.97,0.513c2.861,0.022,5.865,0.028,9.097,0.031
		c0.731,0.003,1.304,9.669,2.304,9.669v5.889c-7,0-13.391-0.004-18.902-0.145c-0.197-0.005-0.369-0.011-0.564-0.016
		c-5.251-0.146-9.792-0.423-13.774-0.953c-0.351-0.047-0.692-0.095-1.034-0.146c-7.869-1.161-13.429-3.39-17.717-7.671
		c-8.88-8.868-8.979-23.347-8.979-52.09C1.748,132.761,1.857,118.283,10.737,109.415z"/>
	<path fill="#676767" d="M10.787,109.473c4.28-4.274,9.843-6.499,17.717-7.656c0.338-0.05,0.679-0.098,1.025-0.144
		c3.978-0.528,8.524-0.805,13.768-0.95c0.194-0.005,0.342-0.011,0.539-0.016c5.506-0.141,11.883-0.145,18.883-0.145v5.884
		c-1,0-1.639,9.532-2.398,9.535c-3.215,0.003-6.224,0.009-9.071,0.031c-6.229,0.048-11.557,0.173-15.946,0.516
		c-6.89,0.55-11.471,1.649-13.67,3.848c-4.398,4.398-4.414,18.389-4.414,41.139c0,22.75,0.029,36.741,4.426,41.138
		c2.199,2.199,6.785,3.299,13.673,3.849c4.383,0.342,9.712,0.467,15.931,0.515c2.855,0.022,5.85,0.028,9.073,0.031
		c0.761,0.004,1.397,9.545,2.397,9.545v5.875c-7,0-13.375-0.004-18.883-0.145c-0.197-0.005-0.368-0.01-0.563-0.016
		c-5.245-0.146-9.782-0.422-13.76-0.95c-0.351-0.047-0.691-0.095-1.033-0.146c-7.867-1.158-13.424-3.383-17.702-7.654
		c-8.857-8.845-8.959-23.316-8.959-52.042C1.818,132.789,1.93,118.318,10.787,109.473z"/>
	<path fill="#686868" d="M10.838,109.531c4.271-4.265,9.829-6.484,17.702-7.639c0.337-0.049,0.678-0.097,1.023-0.143
		c3.974-0.527,8.517-0.803,13.754-0.948c0.193-0.006,0.341-0.011,0.538-0.016c5.5-0.141,11.863-0.145,18.863-0.145v5.87
		c-1,0-1.703,9.408-2.494,9.412c-3.205,0.003-6.206,0.009-9.046,0.031c-6.214,0.049-11.526,0.174-15.906,0.517
		c-6.896,0.552-11.479,1.657-13.688,3.866c-4.419,4.418-4.435,18.396-4.435,41.188c0,22.791,0.028,36.77,4.446,41.187
		c2.211,2.209,6.798,3.314,13.691,3.866c4.372,0.343,9.688,0.468,15.891,0.517c2.848,0.022,5.834,0.029,9.05,0.032
		c0.79,0.004,1.491,9.421,2.491,9.421v5.86c-7,0-13.361-0.004-18.863-0.145c-0.195-0.005-0.368-0.01-0.563-0.016
		c-5.24-0.146-9.772-0.421-13.746-0.948c-0.35-0.046-0.69-0.095-1.031-0.146c-7.866-1.155-13.418-3.375-17.688-7.636
		c-8.835-8.823-8.939-23.287-8.939-51.993C1.889,132.817,2.003,118.353,10.838,109.531z"/>
	<path fill="#696969" d="M10.889,109.589c4.262-4.255,9.815-6.469,17.687-7.622c0.337-0.049,0.678-0.097,1.023-0.143
		c3.969-0.525,8.507-0.801,13.738-0.945c0.194-0.006,0.341-0.011,0.538-0.016c5.494-0.141,11.844-0.145,18.844-0.145v5.854
		c-1,0-1.768,9.284-2.588,9.288c-3.197,0.003-6.191,0.01-9.023,0.032c-6.197,0.049-11.496,0.175-15.866,0.519
		c-6.9,0.555-11.486,1.665-13.707,3.884c-4.438,4.438-4.454,18.404-4.454,41.237c0,22.832,0.029,36.798,4.467,41.236
		c2.221,2.22,6.811,3.329,13.709,3.884c4.363,0.343,9.664,0.469,15.85,0.519c2.842,0.022,5.82,0.029,9.028,0.032
		c0.818,0.004,1.585,9.297,2.585,9.297v5.846c-7,0-13.348-0.004-18.842-0.145c-0.197-0.005-0.369-0.01-0.563-0.016
		c-5.234-0.145-9.763-0.42-13.732-0.945c-0.35-0.046-0.688-0.095-1.03-0.145c-7.864-1.152-13.412-3.367-17.672-7.619
		c-8.813-8.8-8.922-23.256-8.922-51.944C1.957,132.845,2.076,118.388,10.889,109.589z"/>
	<path fill="#6A6A6A" d="M10.939,109.647c4.252-4.246,9.802-6.455,17.672-7.604c0.336-0.049,0.677-0.097,1.021-0.142
		c3.965-0.523,8.499-0.798,13.725-0.943c0.193-0.005,0.342-0.011,0.537-0.016c5.49-0.141,11.824-0.145,18.824-0.145v5.84
		c-1,0-1.832,9.16-2.682,9.165c-3.189,0.003-6.176,0.01-9.001,0.032c-6.181,0.05-11.465,0.177-15.825,0.521
		c-6.905,0.557-11.495,1.672-13.726,3.901c-4.459,4.459-4.475,18.412-4.475,41.286c0,22.874,0.028,36.827,4.487,41.285
		c2.23,2.229,6.824,3.344,13.728,3.902c4.354,0.343,9.642,0.471,15.81,0.521c2.834,0.023,5.805,0.029,9.004,0.033
		c0.849,0.004,1.68,9.174,2.68,9.174v5.831c-7,0-13.332-0.004-18.822-0.145c-0.197-0.005-0.368-0.01-0.563-0.016
		c-5.229-0.145-9.751-0.419-13.717-0.943c-0.35-0.046-0.688-0.095-1.029-0.145c-7.862-1.15-13.407-3.359-17.658-7.602
		c-8.79-8.777-8.901-23.226-8.901-51.895C2.027,132.873,2.149,118.423,10.939,109.647z"/>
	<path fill="#6B6B6B" d="M10.989,109.706c4.243-4.236,9.789-6.44,17.658-7.587c0.336-0.049,0.676-0.096,1.021-0.142
		c3.96-0.521,8.49-0.796,13.71-0.94c0.193-0.006,0.341-0.011,0.536-0.016c5.484-0.14,11.805-0.145,18.805-0.145v5.826
		c-1,0-1.896,9.036-2.775,9.041c-3.182,0.003-6.16,0.01-8.979,0.033c-6.164,0.05-11.435,0.178-15.785,0.522
		c-6.91,0.56-11.503,1.68-13.743,3.919c-4.479,4.479-4.494,18.419-4.494,41.335c0,22.915,0.028,36.855,4.507,41.333
		c2.24,2.24,6.837,3.36,13.745,3.92c4.344,0.344,9.618,0.472,15.771,0.522c2.826,0.023,5.789,0.03,8.98,0.034
		c0.878,0.004,1.773,9.05,2.773,9.05v5.816c-7,0-13.318-0.004-18.803-0.145c-0.197-0.005-0.368-0.01-0.563-0.016
		c-5.223-0.145-9.741-0.418-13.703-0.94c-0.349-0.046-0.688-0.094-1.027-0.144c-7.861-1.147-13.401-3.352-17.644-7.585
		c-8.768-8.753-8.882-23.195-8.882-51.846C2.098,132.9,2.222,118.458,10.989,109.706z"/>
	<path fill="#6C6C6C" d="M11.04,109.764c4.234-4.227,9.776-6.426,17.643-7.57c0.336-0.049,0.676-0.096,1.02-0.141
		c3.957-0.521,8.481-0.794,13.696-0.938c0.193-0.005,0.34-0.011,0.535-0.016c5.479-0.14,11.785-0.145,18.785-0.145v5.811
		c-1,0-1.963,8.913-2.869,8.917c-3.174,0.004-6.145,0.011-8.956,0.034c-6.146,0.051-11.403,0.18-15.744,0.524
		c-6.916,0.563-11.511,1.688-13.762,3.937c-4.5,4.5-4.515,18.427-4.515,41.384c0,22.956,0.027,36.884,4.527,41.383
		c2.25,2.25,6.85,3.375,13.764,3.937c4.334,0.344,9.594,0.473,15.73,0.524c2.818,0.023,5.773,0.03,8.957,0.034
		c0.906,0.004,1.867,8.926,2.867,8.926v5.802c-7,0-13.305-0.005-18.783-0.145c-0.195-0.005-0.367-0.01-0.562-0.016
		c-5.218-0.144-9.731-0.417-13.689-0.938c-0.348-0.046-0.686-0.094-1.025-0.144c-7.86-1.145-13.396-3.344-17.629-7.568
		c-8.745-8.731-8.862-23.166-8.862-51.797C2.168,132.928,2.295,118.494,11.04,109.764z"/>
	<path fill="#6D6D6D" d="M11.091,109.822c4.225-4.217,9.763-6.411,17.628-7.553c0.335-0.049,0.674-0.096,1.018-0.141
		c3.953-0.519,8.474-0.792,13.683-0.935c0.192-0.006,0.339-0.011,0.534-0.016c5.475-0.14,11.766-0.144,18.766-0.144v5.796
		c-1,0-2.027,8.789-2.963,8.793c-3.166,0.004-6.13,0.011-8.933,0.034c-6.131,0.052-11.373,0.181-15.705,0.526
		c-6.92,0.565-11.519,1.695-13.779,3.955c-4.521,4.52-4.535,18.434-4.535,41.433c0,22.998,0.028,36.913,4.548,41.432
		c2.26,2.26,6.863,3.39,13.781,3.955c4.325,0.344,9.57,0.474,15.689,0.525c2.813,0.024,5.76,0.031,8.936,0.035
		c0.936,0.005,1.961,8.803,2.961,8.803v5.788c-7,0-13.289-0.005-18.764-0.145c-0.195-0.005-0.366-0.01-0.561-0.016
		c-5.212-0.144-9.722-0.417-13.675-0.936c-0.348-0.045-0.686-0.093-1.024-0.143c-7.858-1.142-13.392-3.336-17.614-7.55
		c-8.723-8.708-8.845-23.135-8.845-51.748C2.236,132.956,2.368,118.529,11.091,109.822z"/>
	<path fill="#6E6E6E" d="M11.142,109.88c4.215-4.208,9.749-6.396,17.613-7.536c0.334-0.048,0.673-0.095,1.017-0.14
		c3.948-0.517,8.464-0.79,13.668-0.933c0.192-0.005,0.338-0.011,0.533-0.016c5.469-0.14,11.746-0.145,18.746-0.145v5.781
		c-1,0-2.092,8.666-3.059,8.67c-3.156,0.004-6.112,0.012-8.908,0.035c-6.114,0.052-11.343,0.183-15.664,0.528
		c-6.926,0.567-11.527,1.703-13.798,3.973c-4.54,4.54-4.556,18.442-4.556,41.481c0,23.039,0.029,36.942,4.568,41.481
		c2.27,2.27,6.876,3.405,13.8,3.973c4.314,0.345,9.546,0.475,15.649,0.527c2.805,0.024,5.744,0.032,8.911,0.036
		c0.966,0.004,2.056,8.679,3.056,8.679v5.773c-7,0-13.275-0.005-18.744-0.145c-0.195-0.005-0.366-0.01-0.56-0.016
		c-5.206-0.144-9.712-0.416-13.661-0.933c-0.347-0.046-0.685-0.093-1.022-0.143c-7.857-1.139-13.386-3.329-17.6-7.533
		c-8.7-8.685-8.825-23.105-8.825-51.7C2.307,132.984,2.44,118.564,11.142,109.88z"/>
	<path fill="#6F6F6F" d="M11.191,109.938c4.206-4.198,9.736-6.382,17.599-7.518c0.335-0.049,0.673-0.095,1.016-0.14
		c3.944-0.515,8.456-0.787,13.653-0.93c0.192-0.006,0.34-0.011,0.533-0.016c5.463-0.139,11.727-0.144,18.727-0.144v5.767
		c-1,0-2.156,8.542-3.152,8.546c-3.148,0.004-6.097,0.012-8.886,0.036c-6.098,0.053-11.312,0.184-15.624,0.529
		c-6.931,0.57-11.535,1.71-13.815,3.99c-4.561,4.561-4.576,18.45-4.576,41.531c0,23.081,0.028,36.97,4.589,41.53
		c2.279,2.28,6.889,3.42,13.817,3.99c4.306,0.346,9.524,0.477,15.61,0.529c2.797,0.024,5.729,0.032,8.888,0.036
		c0.994,0.005,2.149,8.555,3.149,8.555v5.758c-7,0-13.26-0.005-18.725-0.144c-0.195-0.005-0.365-0.01-0.559-0.016
		c-5.201-0.144-9.701-0.415-13.646-0.931c-0.347-0.045-0.684-0.092-1.021-0.142c-7.855-1.136-13.381-3.32-17.585-7.516
		c-8.679-8.663-8.806-23.075-8.806-51.651C2.377,133.012,2.514,118.6,11.191,109.938z"/>
	<path fill="#707070" d="M11.242,109.996c4.196-4.188,9.723-6.368,17.584-7.501c0.334-0.048,0.672-0.095,1.015-0.14
		c3.939-0.514,8.446-0.785,13.639-0.927c0.192-0.005,0.339-0.011,0.532-0.016c5.459-0.139,11.707-0.144,18.707-0.144v5.752
		c-1,0-2.221,8.417-3.246,8.422c-3.141,0.004-6.081,0.012-8.863,0.036c-6.081,0.054-11.281,0.186-15.583,0.532
		c-6.936,0.572-11.544,1.717-13.834,4.008c-4.581,4.581-4.597,18.457-4.597,41.58c0,23.122,0.029,36.999,4.609,41.579
		c2.289,2.291,6.902,3.436,13.836,4.008c4.296,0.346,9.5,0.478,15.57,0.531c2.789,0.025,5.713,0.033,8.864,0.037
		c1.023,0.005,2.243,8.431,3.243,8.431v5.744c-7,0-13.246-0.005-18.705-0.144c-0.195-0.005-0.365-0.01-0.558-0.016
		c-5.195-0.143-9.691-0.414-13.633-0.928c-0.346-0.045-0.683-0.092-1.02-0.142c-7.854-1.134-13.375-3.313-17.57-7.499
		c-8.656-8.64-8.788-23.044-8.788-51.602C2.445,133.04,2.587,118.635,11.242,109.996z"/>
	<path fill="#717171" d="M11.293,110.054c4.188-4.179,9.71-6.353,17.568-7.484c0.334-0.048,0.672-0.094,1.014-0.139
		c3.937-0.512,8.438-0.783,13.625-0.925c0.192-0.005,0.338-0.011,0.531-0.016c5.453-0.139,11.688-0.144,18.688-0.144v5.737
		c-1,0-2.287,8.294-3.34,8.299c-3.133,0.004-6.065,0.013-8.841,0.037c-6.063,0.054-11.25,0.187-15.542,0.533
		c-6.941,0.575-11.552,1.725-13.854,4.025c-4.601,4.601-4.616,18.465-4.616,41.629c0,23.163,0.028,37.028,4.63,41.627
		c2.301,2.301,6.915,3.451,13.854,4.026c4.285,0.346,9.476,0.479,15.53,0.533c2.781,0.024,5.697,0.033,8.841,0.037
		c1.053,0.005,2.337,8.308,3.337,8.308v5.729c-7,0-13.232-0.005-18.686-0.144c-0.193-0.005-0.364-0.01-0.558-0.016
		c-5.189-0.143-9.681-0.413-13.618-0.925c-0.346-0.045-0.681-0.092-1.019-0.141c-7.853-1.131-13.369-3.305-17.556-7.482
		c-8.633-8.616-8.768-23.014-8.768-51.553C2.516,133.067,2.66,118.67,11.293,110.054z"/>
	<path fill="#727272" d="M11.344,110.112c4.178-4.169,9.696-6.338,17.554-7.467c0.333-0.048,0.671-0.094,1.012-0.138
		c3.933-0.511,8.43-0.78,13.611-0.922c0.191-0.005,0.337-0.011,0.53-0.016c5.447-0.139,11.668-0.144,18.668-0.144v5.723
		c-1,0-2.352,8.17-3.434,8.175c-3.125,0.004-6.051,0.013-8.817,0.038c-6.048,0.054-11.22,0.188-15.503,0.535
		c-6.946,0.578-11.56,1.733-13.871,4.043c-4.621,4.621-4.637,18.473-4.637,41.678c0,23.204,0.029,37.056,4.65,41.676
		c2.311,2.311,6.928,3.466,13.872,4.044c4.276,0.347,9.452,0.48,15.489,0.535c2.775,0.025,5.685,0.033,8.818,0.038
		c1.083,0.005,2.432,8.184,3.432,8.184v5.715c-7,0-13.217-0.005-18.664-0.144c-0.195-0.005-0.365-0.01-0.559-0.016
		c-5.184-0.143-9.671-0.412-13.604-0.923c-0.346-0.045-0.681-0.092-1.018-0.141c-7.851-1.128-13.364-3.297-17.541-7.464
		c-8.61-8.593-8.748-22.984-8.748-51.504C2.586,133.096,2.732,118.705,11.344,110.112z"/>
	<path fill="#737373" d="M11.394,110.17c4.169-4.16,9.684-6.324,17.54-7.449c0.332-0.048,0.669-0.094,1.011-0.138
		c3.928-0.509,8.421-0.778,13.597-0.92c0.191-0.005,0.336-0.011,0.529-0.016c5.443-0.138,11.648-0.144,18.648-0.144v5.708
		c-1,0-2.416,8.046-3.529,8.051c-3.115,0.004-6.033,0.013-8.793,0.038c-6.031,0.055-11.189,0.189-15.462,0.537
		c-6.951,0.58-11.568,1.741-13.89,4.062c-4.642,4.641-4.657,18.48-4.657,41.727c0,23.246,0.028,37.085,4.671,41.726
		c2.32,2.321,6.941,3.481,13.891,4.061c4.267,0.347,9.43,0.481,15.449,0.537c2.768,0.025,5.669,0.034,8.795,0.039
		c1.111,0.005,2.525,8.06,3.525,8.06v5.701c-7,0-13.203-0.006-18.645-0.144c-0.195-0.005-0.365-0.01-0.558-0.016
		c-5.179-0.142-9.661-0.411-13.59-0.92c-0.345-0.045-0.68-0.092-1.016-0.14c-7.85-1.125-13.358-3.29-17.526-7.447
		c-8.588-8.571-8.729-22.954-8.729-51.455C2.656,133.124,2.806,118.74,11.394,110.17z"/>
	<path fill="#747474" d="M11.444,110.229c4.159-4.15,9.67-6.31,17.524-7.432c0.333-0.047,0.669-0.093,1.01-0.138
		c3.924-0.507,8.413-0.775,13.583-0.917c0.19-0.006,0.335-0.011,0.528-0.016c5.438-0.138,11.629-0.144,18.629-0.144v5.693
		c-1,0-2.48,7.922-3.623,7.928c-3.109,0.004-6.018,0.013-8.771,0.039c-6.015,0.056-11.158,0.191-15.422,0.539
		c-6.956,0.583-11.576,1.748-13.907,4.079c-4.662,4.662-4.677,18.488-4.677,41.776c0,23.287,0.028,37.114,4.69,41.774
		c2.33,2.331,6.954,3.496,13.908,4.079c4.258,0.347,9.406,0.482,15.41,0.538c2.76,0.025,5.653,0.035,8.771,0.039
		c1.141,0.005,2.619,7.936,3.619,7.936v5.686c-7,0-13.188-0.006-18.625-0.144c-0.195-0.005-0.364-0.01-0.557-0.015
		c-5.173-0.142-9.65-0.41-13.576-0.918c-0.344-0.044-0.678-0.091-1.014-0.14c-7.849-1.123-13.354-3.282-17.512-7.43
		c-8.566-8.548-8.711-22.923-8.711-51.406C2.725,133.151,2.879,118.776,11.444,110.229z"/>
	<path fill="#757575" d="M11.495,110.287c4.15-4.141,9.657-6.295,17.51-7.415c0.332-0.047,0.668-0.093,1.009-0.137
		c3.92-0.506,8.403-0.773,13.567-0.915c0.191-0.005,0.337-0.011,0.528-0.016c5.432-0.138,11.609-0.144,18.609-0.144v5.679
		c-1,0-2.545,7.798-3.717,7.804c-3.102,0.005-6.002,0.014-8.748,0.04c-5.997,0.056-11.128,0.192-15.381,0.54
		c-6.962,0.585-11.584,1.756-13.926,4.097c-4.683,4.682-4.697,18.495-4.697,41.825c0,23.328,0.027,37.142,4.711,41.823
		c2.34,2.341,6.967,3.512,13.927,4.097c4.247,0.348,9.382,0.484,15.37,0.54c2.752,0.026,5.638,0.035,8.748,0.04
		c1.17,0.005,2.713,7.812,3.713,7.812v5.671c-7,0-13.174-0.006-18.605-0.144c-0.195-0.005-0.363-0.01-0.556-0.016
		c-5.167-0.142-9.641-0.409-13.562-0.915c-0.344-0.044-0.678-0.091-1.013-0.139c-7.847-1.12-13.349-3.274-17.497-7.413
		c-8.544-8.525-8.691-22.894-8.691-51.357C2.795,133.179,2.951,118.811,11.495,110.287z"/>
	<path fill="#767676" d="M11.546,110.345c4.141-4.131,9.644-6.28,17.494-7.397c0.332-0.047,0.668-0.093,1.008-0.137
		c3.916-0.504,8.396-0.771,13.554-0.913c0.191-0.005,0.336-0.01,0.529-0.016c5.426-0.137,11.588-0.143,18.588-0.143v5.664
		c-1,0-2.611,7.675-3.811,7.681c-3.094,0.005-5.986,0.014-8.726,0.04c-5.98,0.057-11.097,0.194-15.341,0.542
		c-6.966,0.588-11.592,1.763-13.943,4.114c-4.703,4.703-4.718,18.503-4.718,41.874c0,23.37,0.028,37.171,4.729,41.872
		c2.352,2.351,6.982,3.527,13.946,4.115c4.238,0.348,9.358,0.485,15.329,0.542c2.746,0.026,5.624,0.036,8.726,0.041
		c1.199,0.006,2.808,7.688,3.808,7.688v5.657c-7,0-13.16-0.006-18.586-0.144c-0.193-0.005-0.363-0.01-0.555-0.016
		c-5.162-0.141-9.631-0.408-13.548-0.913c-0.343-0.044-0.676-0.09-1.011-0.139c-7.846-1.117-13.343-3.266-17.482-7.395
		c-8.521-8.502-8.672-22.863-8.672-51.309C2.865,133.207,3.024,118.846,11.546,110.345z"/>
	<path fill="#777777" d="M11.596,110.403c4.132-4.122,9.631-6.266,17.48-7.38c0.331-0.047,0.667-0.092,1.007-0.136
		c3.911-0.502,8.386-0.769,13.539-0.91c0.19-0.005,0.335-0.011,0.528-0.016c5.42-0.137,11.568-0.143,18.568-0.143v5.649
		c-1,0-2.676,7.551-3.904,7.557c-3.086,0.005-5.972,0.015-8.702,0.041c-5.965,0.058-11.067,0.195-15.301,0.544
		c-6.972,0.59-11.601,1.771-13.962,4.132c-4.724,4.723-4.738,18.511-4.738,41.923c0,23.411,0.027,37.199,4.75,41.921
		c2.361,2.361,6.995,3.542,13.965,4.132c4.229,0.349,9.334,0.486,15.289,0.543c2.738,0.027,5.608,0.036,8.702,0.041
		c1.229,0.006,2.901,7.565,3.901,7.565v5.642c-7,0-13.145-0.006-18.566-0.144c-0.193-0.005-0.362-0.01-0.555-0.015
		c-5.155-0.141-9.62-0.407-13.533-0.91c-0.342-0.044-0.675-0.09-1.009-0.138c-7.845-1.115-13.338-3.259-17.469-7.378
		c-8.498-8.479-8.653-22.833-8.653-51.259C2.934,133.235,3.098,118.881,11.596,110.403z"/>
	<path fill="#787878" d="M11.646,110.461c4.122-4.112,9.617-6.251,17.466-7.363c0.331-0.047,0.665-0.092,1.005-0.136
		c3.907-0.501,8.378-0.767,13.525-0.907c0.19-0.005,0.334-0.01,0.527-0.016c5.414-0.137,11.549-0.143,18.549-0.143v5.635
		c-1,0-2.74,7.427-3.998,7.433c-3.078,0.005-5.956,0.015-8.68,0.042c-5.948,0.058-11.036,0.196-15.261,0.545
		c-6.977,0.593-11.608,1.778-13.979,4.15c-4.743,4.743-4.759,18.518-4.759,41.971c0,23.453,0.028,37.229,4.771,41.97
		c2.371,2.372,7.008,3.558,13.982,4.15c4.219,0.349,9.313,0.487,15.25,0.545c2.73,0.027,5.593,0.037,8.679,0.042
		c1.258,0.006,2.995,7.441,3.995,7.441v5.627c-7,0-13.131-0.006-18.547-0.143c-0.193-0.005-0.361-0.01-0.554-0.016
		c-5.15-0.141-9.61-0.406-13.519-0.907c-0.342-0.044-0.675-0.09-1.008-0.138c-7.843-1.112-13.333-3.251-17.454-7.361
		c-8.476-8.456-8.634-22.802-8.634-51.211C3.004,133.263,3.17,118.917,11.646,110.461z"/>
	<path fill="#797979" d="M11.697,110.519c4.113-4.103,9.604-6.237,17.45-7.346c0.331-0.047,0.665-0.092,1.004-0.135
		c3.903-0.5,8.369-0.765,13.512-0.905c0.189-0.005,0.333-0.011,0.526-0.016c5.41-0.137,11.529-0.143,18.529-0.143v5.62
		c-1,0-2.805,7.304-4.094,7.31c-3.068,0.005-5.938,0.015-8.655,0.042c-5.932,0.059-11.005,0.198-15.22,0.547
		c-6.981,0.595-11.616,1.786-13.999,4.167c-4.763,4.764-4.778,18.526-4.778,42.021c0,23.494,0.029,37.257,4.791,42.019
		c2.383,2.382,7.021,3.573,14.001,4.168c4.209,0.35,9.288,0.489,15.21,0.547c2.723,0.027,5.577,0.037,8.654,0.042
		c1.287,0.006,3.09,7.317,4.09,7.317v5.613c-7,0-13.117-0.006-18.527-0.143c-0.193-0.005-0.361-0.01-0.553-0.015
		c-5.145-0.141-9.6-0.405-13.505-0.905c-0.342-0.044-0.673-0.089-1.007-0.137c-7.841-1.109-13.326-3.243-17.438-7.344
		c-8.454-8.433-8.614-22.772-8.614-51.162C3.074,133.291,3.243,118.952,11.697,110.519z"/>
	<path fill="#7A7A7A" d="M11.748,110.577c4.104-4.093,9.591-6.222,17.436-7.329c0.33-0.047,0.664-0.092,1.003-0.135
		c3.899-0.498,8.36-0.762,13.497-0.902c0.189-0.005,0.334-0.01,0.525-0.016c5.404-0.136,11.51-0.143,18.51-0.143v5.605
		c-1,0-2.869,7.18-4.188,7.186c-3.061,0.005-5.923,0.016-8.633,0.042c-5.914,0.059-10.975,0.199-15.18,0.549
		c-6.986,0.598-11.624,1.793-14.017,4.185c-4.783,4.784-4.799,18.533-4.799,42.069c0,23.535,0.028,37.286,4.812,42.068
		c2.393,2.392,7.034,3.587,14.019,4.186c4.2,0.35,9.265,0.489,15.169,0.549c2.717,0.027,5.563,0.038,8.633,0.042
		c1.316,0.007,3.184,7.194,4.184,7.194v5.599c-7,0-13.102-0.007-18.508-0.144c-0.191-0.005-0.36-0.01-0.552-0.015
		c-5.14-0.14-9.59-0.404-13.49-0.902c-0.342-0.044-0.673-0.089-1.006-0.137c-7.839-1.107-13.321-3.235-17.424-7.327
		c-8.432-8.411-8.595-22.742-8.595-51.113C3.145,133.318,3.316,118.987,11.748,110.577z"/>
	<path fill="#7B7B7B" d="M11.798,110.635c4.095-4.084,9.578-6.208,17.422-7.312c0.329-0.046,0.663-0.091,1.001-0.134
		c3.896-0.496,8.352-0.76,13.482-0.899c0.19-0.005,0.334-0.011,0.525-0.016c5.398-0.136,11.49-0.143,18.49-0.143v5.591
		c-1,0-2.934,7.056-4.281,7.062c-3.053,0.005-5.907,0.016-8.61,0.043c-5.897,0.06-10.943,0.2-15.139,0.551
		c-6.992,0.6-11.633,1.801-14.035,4.203c-4.804,4.804-4.819,18.541-4.819,42.118c0,23.576,0.029,37.314,4.832,42.117
		c2.402,2.402,7.047,3.603,14.037,4.203c4.189,0.35,9.24,0.491,15.129,0.551c2.709,0.027,5.548,0.038,8.609,0.043
		c1.346,0.006,3.277,7.07,4.277,7.07v5.584c-7,0-13.088-0.007-18.486-0.143c-0.193-0.005-0.362-0.01-0.553-0.016
		c-5.134-0.14-9.58-0.403-13.477-0.9c-0.341-0.043-0.672-0.089-1.004-0.136c-7.838-1.104-13.315-3.228-17.409-7.309
		c-8.409-8.388-8.577-22.712-8.577-51.064C3.213,133.346,3.39,119.022,11.798,110.635z"/>
	<path fill="#7C7C7C" d="M11.849,110.693c4.085-4.075,9.564-6.193,17.406-7.294c0.329-0.046,0.663-0.091,1.001-0.134
		c3.891-0.495,8.343-0.757,13.468-0.897c0.189-0.005,0.333-0.011,0.524-0.016c5.395-0.136,11.471-0.143,18.471-0.143v5.576
		c-1,0-3,6.932-4.375,6.939c-3.045,0.005-5.893,0.016-8.587,0.044c-5.882,0.06-10.914,0.202-15.099,0.552
		c-6.997,0.603-11.642,1.809-14.054,4.221c-4.824,4.824-4.84,18.549-4.84,42.167c0,23.618,0.028,37.343,4.853,42.166
		c2.412,2.412,7.061,3.618,14.056,4.221c4.18,0.351,9.216,0.492,15.089,0.552c2.701,0.028,5.532,0.039,8.586,0.044
		c1.374,0.007,3.371,6.946,4.371,6.946v5.57c-7,0-13.072-0.007-18.467-0.143c-0.193-0.005-0.361-0.01-0.552-0.015
		c-5.129-0.14-9.57-0.402-13.463-0.897c-0.34-0.043-0.67-0.088-1.002-0.136c-7.837-1.101-13.311-3.22-17.395-7.292
		c-8.387-8.365-8.558-22.682-8.558-51.016C3.283,133.374,3.462,119.057,11.849,110.693z"/>
	<path fill="#7D7D7D" d="M11.899,110.751c4.076-4.065,9.551-6.178,17.392-7.277c0.329-0.046,0.662-0.091,0.999-0.133
		c3.887-0.493,8.335-0.756,13.454-0.895c0.189-0.005,0.332-0.01,0.523-0.015c5.389-0.136,11.451-0.143,18.451-0.143v5.561
		c-2,0-3.064,6.808-4.469,6.815c-3.037,0.006-5.877,0.017-8.564,0.044c-5.865,0.061-10.883,0.203-15.059,0.554
		c-7.002,0.605-11.648,1.816-14.071,4.239c-4.845,4.844-4.859,18.556-4.859,42.216c0,23.659,0.028,37.372,4.872,42.215
		c2.422,2.422,7.073,3.633,14.073,4.239c4.171,0.351,9.194,0.493,15.05,0.554c2.693,0.028,5.517,0.039,8.562,0.045
		c1.404,0.007,2.466,6.822,4.466,6.822v5.555c-7,0-13.059-0.007-18.447-0.143c-0.193-0.005-0.36-0.01-0.551-0.015
		c-5.123-0.139-9.561-0.401-13.448-0.895c-0.34-0.043-0.67-0.088-1.001-0.135c-7.835-1.099-13.306-3.212-17.38-7.275
		c-8.364-8.342-8.538-22.652-8.538-50.967C3.354,133.402,3.535,119.093,11.899,110.751z"/>
	<path fill="#7E7E7E" d="M11.95,110.81c4.066-4.056,9.537-6.164,17.376-7.26c0.329-0.046,0.661-0.09,0.998-0.133
		c3.883-0.492,8.326-0.753,13.44-0.892c0.188-0.005,0.331-0.011,0.522-0.016c5.383-0.135,11.432-0.143,18.432-0.143v5.546
		c-2,0-3.129,6.685-4.564,6.692c-3.027,0.005-5.859,0.017-8.54,0.045c-5.849,0.062-10.852,0.205-15.018,0.556
		c-7.008,0.608-11.657,1.824-14.09,4.256c-4.865,4.865-4.88,18.564-4.88,42.266c0,23.7,0.027,37.4,4.893,42.264
		c2.432,2.433,7.086,3.648,14.092,4.257c4.16,0.351,9.17,0.494,15.01,0.556c2.686,0.028,5.501,0.04,8.538,0.045
		c1.434,0.007,2.56,6.698,4.56,6.698v5.541c-7,0-13.045-0.007-18.428-0.143c-0.193-0.005-0.36-0.01-0.551-0.015
		c-5.116-0.139-9.549-0.401-13.434-0.893c-0.339-0.043-0.668-0.088-0.999-0.135c-7.834-1.096-13.3-3.205-17.366-7.258
		c-8.342-8.319-8.52-22.621-8.52-50.917C3.422,133.43,3.608,119.128,11.95,110.81z"/>
	<path fill="#7F7F7F" d="M12,110.868c4.058-4.046,9.525-6.149,17.362-7.242c0.328-0.046,0.66-0.09,0.997-0.133
		c3.879-0.49,8.317-0.751,13.426-0.89c0.188-0.005,0.33-0.01,0.521-0.015c5.379-0.135,11.412-0.143,18.412-0.143v5.532
		c-2,0-3.193,6.561-4.658,6.568c-3.02,0.006-5.844,0.017-8.518,0.046c-5.831,0.062-10.821,0.206-14.978,0.558
		c-7.012,0.61-11.665,1.832-14.107,4.274c-4.886,4.885-4.9,18.572-4.9,42.314c0,23.742,0.028,37.429,4.913,42.313
		c2.441,2.443,7.1,3.664,14.109,4.274c4.151,0.352,9.146,0.496,14.969,0.558c2.68,0.029,5.487,0.04,8.517,0.046
		c1.462,0.007,2.653,6.575,4.653,6.575v5.526c-7,0-13.029-0.007-18.408-0.143c-0.191-0.005-0.359-0.01-0.55-0.015
		c-5.111-0.139-9.539-0.399-13.42-0.89c-0.338-0.043-0.667-0.088-0.997-0.134c-7.833-1.093-13.295-3.197-17.352-7.241
		c-8.319-8.296-8.5-22.591-8.5-50.869C3.492,133.458,3.681,119.163,12,110.868z"/>
	<path fill="#808080" d="M12.051,110.925c4.048-4.036,9.512-6.134,17.348-7.225c0.327-0.046,0.659-0.09,0.995-0.132
		c3.875-0.488,8.309-0.749,13.412-0.887c0.188-0.005,0.331-0.011,0.521-0.016c5.373-0.135,11.393-0.142,18.393-0.142v5.517
		c-2,0-3.258,6.437-4.752,6.444c-3.012,0.006-5.828,0.018-8.495,0.046c-5.814,0.063-10.79,0.208-14.937,0.56
		c-7.018,0.613-11.674,1.839-14.126,4.292c-4.906,4.905-4.921,18.579-4.921,42.363c0,23.783,0.027,37.458,4.934,42.361
		c2.451,2.453,7.112,3.679,14.128,4.292c4.142,0.352,9.122,0.497,14.929,0.559c2.672,0.029,5.472,0.041,8.493,0.047
		c1.491,0.007,2.747,6.451,4.747,6.451v5.511c-7,0-13.016-0.007-18.389-0.143c-0.191-0.005-0.358-0.01-0.549-0.015
		c-5.105-0.138-9.529-0.398-13.405-0.887c-0.338-0.042-0.667-0.087-0.996-0.134c-7.831-1.09-13.29-3.189-17.337-7.223
		c-8.297-8.273-8.48-22.561-8.48-50.82C3.563,133.485,3.754,119.198,12.051,110.925z"/>
	<path fill="#808080" d="M12.102,110.983c4.039-4.026,9.498-6.12,17.332-7.208c0.328-0.045,0.659-0.089,0.995-0.131
		c3.87-0.487,8.3-0.747,13.396-0.885c0.188-0.005,0.331-0.01,0.521-0.015c5.367-0.135,11.373-0.143,18.373-0.143v5.502
		c-2,0-3.324,6.313-4.846,6.321c-3.004,0.006-5.813,0.018-8.472,0.047c-5.799,0.063-10.761,0.208-14.897,0.562
		c-7.022,0.615-11.681,1.847-14.145,4.309c-4.925,4.926-4.94,18.587-4.94,42.412c0,23.825,0.028,37.487,4.954,42.411
		c2.463,2.462,7.125,3.694,14.146,4.31c4.132,0.353,9.099,0.498,14.89,0.562c2.664,0.029,5.457,0.041,8.469,0.047
		c1.521,0.007,2.842,6.327,4.842,6.327v5.497c-7,0-13.002-0.008-18.369-0.143c-0.191-0.005-0.358-0.01-0.548-0.015
		c-5.101-0.138-9.52-0.398-13.392-0.885c-0.338-0.043-0.665-0.087-0.995-0.133c-7.829-1.088-13.283-3.181-17.321-7.206
		c-8.274-8.25-8.461-22.531-8.461-50.771C3.633,133.514,3.827,119.233,12.102,110.983z"/>
	<path fill="#818181" d="M12.152,111.042c4.029-4.017,9.484-6.105,17.317-7.19c0.327-0.045,0.658-0.089,0.993-0.131
		c3.866-0.485,8.291-0.744,13.383-0.882c0.188-0.005,0.33-0.011,0.52-0.016c5.363-0.135,11.354-0.142,18.354-0.142v5.488
		c-2,0-3.389,6.189-4.939,6.197c-2.996,0.006-5.798,0.019-8.449,0.048c-5.782,0.063-10.729,0.21-14.856,0.563
		c-7.028,0.618-11.689,1.854-14.163,4.327c-4.945,4.946-4.961,18.594-4.961,42.461c0,23.866,0.029,37.515,4.975,42.46
		c2.473,2.473,7.138,3.709,14.164,4.328c4.122,0.353,9.076,0.499,14.85,0.563c2.656,0.029,5.441,0.042,8.445,0.048
		c1.551,0.007,2.936,6.203,4.936,6.203v5.482c-7,0-12.986-0.008-18.35-0.143c-0.191-0.005-0.357-0.01-0.547-0.015
		c-5.095-0.138-9.51-0.396-13.377-0.882c-0.338-0.042-0.665-0.086-0.994-0.133c-7.827-1.085-13.278-3.173-17.307-7.188
		c-8.252-8.228-8.443-22.5-8.443-50.723C3.701,133.542,3.9,119.269,12.152,111.042z"/>
	<path fill="#828282" d="M12.202,111.1c4.021-4.007,9.473-6.091,17.304-7.173c0.326-0.045,0.657-0.089,0.992-0.131
		c3.862-0.483,8.282-0.742,13.368-0.879c0.188-0.005,0.329-0.01,0.519-0.015c5.357-0.135,11.334-0.142,18.334-0.142v5.473
		c-2,0-3.453,6.065-5.033,6.073c-2.988,0.006-5.782,0.019-8.427,0.048c-5.765,0.064-10.699,0.211-14.816,0.565
		c-7.032,0.621-11.697,1.862-14.181,4.345c-4.966,4.966-4.981,18.602-4.981,42.51c0,23.907,0.028,37.544,4.995,42.509
		c2.482,2.483,7.151,3.725,14.182,4.345c4.113,0.354,9.053,0.5,14.809,0.565c2.65,0.03,5.428,0.042,8.424,0.048
		c1.579,0.008,3.029,6.08,5.029,6.08v5.468c-7,0-12.973-0.008-18.328-0.143c-0.191-0.005-0.358-0.01-0.548-0.015
		c-5.09-0.138-9.5-0.396-13.363-0.88c-0.337-0.042-0.664-0.086-0.992-0.132c-7.826-1.083-13.273-3.166-17.292-7.171
		c-8.229-8.205-8.424-22.47-8.424-50.674C3.771,133.569,3.973,119.304,12.202,111.1z"/>
	<path fill="#838383" d="M12.253,111.158c4.011-3.998,9.459-6.076,17.288-7.156c0.326-0.045,0.656-0.088,0.991-0.13
		c3.858-0.482,8.273-0.739,13.354-0.877c0.188-0.005,0.328-0.01,0.518-0.015c5.352-0.134,11.314-0.142,18.314-0.142v5.458
		c-2,0-3.518,5.942-5.129,5.95c-2.979,0.006-5.765,0.019-8.402,0.049c-5.748,0.065-10.668,0.213-14.775,0.567
		c-7.038,0.623-11.706,1.87-14.199,4.362c-4.986,4.987-5.002,18.61-5.002,42.559c0,23.948,0.029,37.573,5.016,42.558
		c2.492,2.493,7.164,3.74,14.2,4.363c4.103,0.354,9.028,0.501,14.769,0.566c2.643,0.03,5.412,0.042,8.4,0.049
		c1.608,0.008,3.123,5.956,5.123,5.956v5.453c-7,0-12.957-0.008-18.309-0.142c-0.191-0.005-0.358-0.01-0.548-0.015
		c-5.083-0.138-9.488-0.395-13.349-0.877c-0.336-0.042-0.662-0.086-0.99-0.132c-7.825-1.08-13.268-3.158-17.278-7.155
		c-8.207-8.181-8.403-22.439-8.403-50.625C3.842,133.597,4.046,119.339,12.253,111.158z"/>
	<path fill="#848484" d="M12.304,111.216c4.002-3.988,9.445-6.062,17.273-7.139c0.326-0.045,0.655-0.088,0.989-0.129
		c3.854-0.48,8.266-0.738,13.341-0.875c0.188-0.005,0.329-0.01,0.519-0.015c5.346-0.134,11.293-0.142,18.293-0.142v5.444
		c-2,0-3.582,5.818-5.223,5.826c-2.973,0.007-5.749,0.02-8.38,0.05c-5.731,0.065-10.637,0.214-14.735,0.568
		c-7.043,0.625-11.713,1.877-14.217,4.38c-5.007,5.007-5.021,18.617-5.021,42.608c0,23.99,0.027,37.601,5.033,42.606
		c2.504,2.503,7.179,3.755,14.22,4.381c4.094,0.354,9.005,0.503,14.729,0.568c2.635,0.03,5.396,0.043,8.376,0.05
		c1.639,0.008,3.218,5.832,5.218,5.832v5.438c-7,0-12.943-0.008-18.289-0.142c-0.191-0.005-0.357-0.01-0.547-0.015
		c-5.077-0.137-9.479-0.394-13.334-0.875c-0.336-0.042-0.662-0.085-0.989-0.131c-7.823-1.077-13.263-3.15-17.264-7.137
		c-8.185-8.159-8.386-22.41-8.386-50.576C3.91,133.625,4.119,119.375,12.304,111.216z"/>
	<path fill="#858585" d="M12.354,111.274c3.992-3.979,9.432-6.047,17.258-7.121c0.326-0.045,0.655-0.088,0.989-0.129
		c3.85-0.479,8.257-0.735,13.326-0.872c0.187-0.005,0.328-0.01,0.518-0.015c5.34-0.134,11.273-0.142,18.273-0.142v5.429
		c-2,0-3.648,5.694-5.316,5.703c-2.965,0.007-5.734,0.02-8.356,0.05c-5.716,0.066-10.607,0.216-14.695,0.57
		c-7.048,0.628-11.722,1.885-14.235,4.398c-5.027,5.027-5.042,18.625-5.042,42.657c0,24.031,0.028,37.63,5.054,42.655
		c2.514,2.514,7.192,3.771,14.238,4.399c4.084,0.354,8.98,0.504,14.689,0.57c2.627,0.031,5.381,0.043,8.353,0.05
		c1.667,0.008,3.312,5.708,5.312,5.708v5.424c-7,0-12.93-0.008-18.27-0.142c-0.191-0.005-0.356-0.009-0.546-0.015
		c-5.072-0.137-9.469-0.393-13.32-0.872c-0.335-0.042-0.66-0.085-0.987-0.131c-7.822-1.074-13.258-3.143-17.249-7.12
		c-8.162-8.136-8.366-22.379-8.366-50.527C3.98,133.653,4.191,119.41,12.354,111.274z"/>
	<path fill="#868686" d="M12.404,111.332c3.983-3.97,9.419-6.032,17.244-7.104c0.325-0.044,0.654-0.087,0.987-0.129
		c3.846-0.477,8.248-0.733,13.312-0.869c0.188-0.005,0.328-0.011,0.518-0.015c5.334-0.134,11.254-0.142,18.254-0.142v5.415
		c-2,0-3.713,5.57-5.41,5.579c-2.957,0.007-5.719,0.02-8.334,0.051c-5.699,0.067-10.576,0.217-14.654,0.572
		c-7.054,0.631-11.73,1.893-14.254,4.416c-5.048,5.047-5.063,18.633-5.063,42.706c0,24.072,0.027,37.659,5.074,42.704
		c2.523,2.524,7.205,3.786,14.257,4.417c4.073,0.355,8.958,0.505,14.649,0.572c2.619,0.031,5.365,0.044,8.329,0.051
		c1.696,0.008,3.405,5.584,5.405,5.584v5.41c-7,0-12.914-0.008-18.25-0.142c-0.191-0.005-0.356-0.01-0.545-0.015
		c-5.066-0.137-9.459-0.392-13.307-0.87c-0.334-0.042-0.659-0.085-0.985-0.13c-7.821-1.071-13.252-3.135-17.234-7.103
		c-8.14-8.113-8.347-22.349-8.347-50.478C4.051,133.681,4.265,119.445,12.404,111.332z"/>
	<path fill="#878787" d="M12.455,111.39c3.974-3.96,9.406-6.018,17.229-7.087c0.324-0.044,0.653-0.087,0.986-0.128
		c3.842-0.476,8.239-0.73,13.297-0.867c0.188-0.005,0.327-0.01,0.517-0.015c5.33-0.133,11.234-0.142,18.234-0.142v5.4
		c-2,0-3.777,5.446-5.504,5.455c-2.949,0.007-5.703,0.021-8.312,0.052c-5.682,0.067-10.546,0.218-14.614,0.574
		c-7.059,0.633-11.738,1.9-14.271,4.434c-5.068,5.067-5.083,18.64-5.083,42.755c0,24.114,0.028,37.687,5.095,42.753
		c2.533,2.534,7.218,3.8,14.274,4.434c4.064,0.355,8.935,0.506,14.608,0.573c2.613,0.031,5.352,0.045,8.308,0.052
		c1.726,0.008,3.499,5.46,5.499,5.46v5.396c-7,0-12.9-0.009-18.23-0.142c-0.189-0.005-0.355-0.01-0.544-0.015
		c-5.062-0.136-9.449-0.391-13.292-0.867c-0.334-0.042-0.659-0.085-0.984-0.13c-7.819-1.069-13.247-3.127-17.22-7.085
		c-8.117-8.09-8.327-22.319-8.327-50.429C4.121,133.708,4.338,119.48,12.455,111.39z"/>
	<path fill="#888888" d="M12.506,111.448c3.965-3.951,9.393-6.003,17.214-7.069c0.324-0.044,0.653-0.087,0.985-0.128
		c3.838-0.474,8.23-0.729,13.283-0.864c0.187-0.005,0.326-0.011,0.516-0.015c5.324-0.133,11.215-0.142,18.215-0.142v5.385
		c-2,0-3.842,5.323-5.6,5.332c-2.939,0.007-5.686,0.021-8.287,0.052c-5.665,0.068-10.515,0.22-14.573,0.576
		c-7.063,0.636-11.746,1.908-14.291,4.451c-5.088,5.088-5.103,18.648-5.103,42.804c0,24.155,0.027,37.716,5.115,42.802
		c2.545,2.544,7.231,3.815,14.293,4.452c4.055,0.355,8.91,0.507,14.568,0.576c2.607,0.031,5.336,0.045,8.283,0.052
		c1.755,0.009,3.594,5.337,5.594,5.337v5.381c-7,0-12.887-0.009-18.211-0.142c-0.189-0.004-0.355-0.009-0.543-0.015
		c-5.056-0.136-9.438-0.39-13.278-0.865c-0.334-0.041-0.657-0.084-0.983-0.129c-7.817-1.066-13.24-3.119-17.204-7.068
		c-8.096-8.067-8.31-22.289-8.31-50.38C4.189,133.736,4.411,119.515,12.506,111.448z"/>
	<path fill="#898989" d="M12.557,111.506c3.955-3.941,9.379-5.989,17.199-7.052c0.324-0.044,0.651-0.087,0.983-0.127
		c3.834-0.473,8.223-0.726,13.27-0.862c0.187-0.005,0.327-0.01,0.515-0.015c5.318-0.133,11.195-0.142,18.195-0.142v5.371
		c-2,0-3.906,5.199-5.693,5.208c-2.932,0.007-5.67,0.021-8.265,0.053c-5.648,0.068-10.483,0.221-14.533,0.577
		c-7.068,0.639-11.754,1.916-14.309,4.469c-5.107,5.108-5.123,18.655-5.123,42.853c0,24.197,0.028,37.745,5.136,42.852
		c2.555,2.554,7.244,3.831,14.311,4.47c4.045,0.356,8.887,0.508,14.529,0.577c2.6,0.031,5.32,0.045,8.26,0.053
		c1.784,0.008,3.688,5.213,5.688,5.213v5.366c-7,0-12.871-0.009-18.191-0.142c-0.189-0.005-0.354-0.01-0.542-0.015
		c-5.051-0.136-9.429-0.389-13.264-0.862c-0.334-0.042-0.657-0.084-0.982-0.129c-7.815-1.063-13.235-3.111-17.189-7.051
		c-8.073-8.044-8.29-22.259-8.29-50.332C4.26,133.764,4.483,119.55,12.557,111.506z"/>
	<path fill="#8A8A8A" d="M12.606,111.564c3.946-3.932,9.366-5.974,17.186-7.035c0.323-0.044,0.65-0.086,0.982-0.127
		c3.829-0.471,8.213-0.724,13.255-0.859c0.186-0.005,0.326-0.01,0.514-0.015c5.314-0.132,11.176-0.141,18.176-0.141v5.356
		c-2,0-3.971,5.075-5.787,5.084c-2.924,0.007-5.655,0.021-8.241,0.053c-5.633,0.069-10.454,0.222-14.493,0.579
		c-7.074,0.641-11.763,1.923-14.327,4.487c-5.128,5.128-5.144,18.663-5.144,42.901c0,24.238,0.029,37.773,5.156,42.9
		c2.564,2.564,7.257,3.846,14.329,4.487c4.035,0.356,8.862,0.51,14.489,0.579c2.592,0.032,5.305,0.046,8.236,0.053
		c1.813,0.009,3.781,5.089,5.781,5.089v5.352c-7,0-12.857-0.009-18.172-0.142c-0.189-0.005-0.354-0.01-0.542-0.015
		c-5.044-0.136-9.418-0.389-13.249-0.859c-0.333-0.042-0.656-0.084-0.98-0.128c-7.814-1.061-13.23-3.104-17.176-7.034
		c-8.05-8.021-8.27-22.228-8.27-50.283C4.33,133.792,4.557,119.585,12.606,111.564z"/>
	<path fill="#8B8B8B" d="M12.657,111.623c3.937-3.922,9.353-5.959,17.17-7.018c0.323-0.044,0.65-0.086,0.981-0.127
		c3.825-0.469,8.205-0.722,13.241-0.856c0.186-0.005,0.325-0.01,0.513-0.015c5.309-0.132,11.156-0.141,18.156-0.141v5.341
		c-2,0-4.037,4.952-5.881,4.96c-2.916,0.007-5.64,0.022-8.219,0.054c-5.616,0.07-10.423,0.224-14.453,0.581
		c-7.078,0.644-11.771,1.93-14.345,4.504c-5.148,5.149-5.164,18.671-5.164,42.951c0,24.279,0.028,37.802,5.177,42.949
		c2.574,2.574,7.271,3.861,14.347,4.505c4.026,0.356,8.841,0.511,14.448,0.581c2.586,0.032,5.291,0.046,8.214,0.054
		c1.843,0.009,3.876,4.966,5.876,4.966v5.337c-7,0-12.842-0.009-18.15-0.142c-0.189-0.004-0.355-0.009-0.543-0.015
		c-5.039-0.135-9.408-0.387-13.235-0.857c-0.332-0.041-0.654-0.083-0.979-0.128c-7.813-1.058-13.225-3.096-17.161-7.017
		c-8.027-7.999-8.25-22.198-8.25-50.234C4.4,133.82,4.63,119.621,12.657,111.623z"/>
	<path fill="#8C8C8C" d="M12.708,111.681c3.928-3.913,9.34-5.945,17.155-7c0.322-0.044,0.649-0.086,0.98-0.126
		c3.821-0.468,8.195-0.72,13.226-0.854c0.187-0.005,0.325-0.01,0.513-0.015c5.303-0.132,11.137-0.141,18.137-0.141v5.327
		c-2,0-4.102,4.828-5.975,4.836c-2.908,0.008-5.624,0.022-8.196,0.055c-5.599,0.07-10.393,0.225-14.412,0.583
		c-7.084,0.646-11.778,1.938-14.363,4.522c-5.169,5.169-5.185,18.678-5.185,43c0,24.32,0.029,37.831,5.197,42.998
		c2.584,2.584,7.283,3.877,14.365,4.523c4.016,0.357,8.816,0.512,14.408,0.583c2.578,0.032,5.275,0.047,8.19,0.055
		c1.872,0.009,3.97,4.842,5.97,4.842v5.322c-7,0-12.828-0.009-18.131-0.141c-0.189-0.005-0.354-0.01-0.542-0.015
		c-5.033-0.135-9.398-0.386-13.221-0.854c-0.332-0.041-0.654-0.083-0.978-0.127c-7.812-1.056-13.22-3.088-17.146-7
		c-8.005-7.976-8.232-22.168-8.232-50.185C4.469,133.848,4.702,119.656,12.708,111.681z"/>
	<path fill="#8D8D8D" d="M12.759,111.739c3.918-3.903,9.326-5.931,17.14-6.983c0.323-0.043,0.649-0.085,0.979-0.125
		c3.817-0.466,8.188-0.717,13.212-0.852c0.186-0.005,0.324-0.01,0.512-0.015c5.299-0.132,11.117-0.141,18.117-0.141v5.312
		c-2,0-4.166,4.704-6.068,4.713c-2.9,0.008-5.608,0.022-8.174,0.055c-5.582,0.071-10.361,0.227-14.372,0.584
		c-7.089,0.648-11.786,1.945-14.381,4.54c-5.189,5.19-5.204,18.686-5.204,43.049c0,24.362,0.027,37.859,5.217,43.047
		c2.594,2.595,7.296,3.892,14.383,4.541c4.007,0.357,8.793,0.513,14.369,0.584c2.57,0.033,5.26,0.047,8.167,0.055
		c1.901,0.009,4.063,4.718,6.063,4.718v5.308c-7,0-12.814-0.009-18.111-0.141c-0.189-0.005-0.354-0.009-0.541-0.015
		c-5.027-0.135-9.388-0.386-13.207-0.852c-0.331-0.041-0.652-0.083-0.976-0.127c-7.811-1.053-13.215-3.081-17.132-6.982
		c-7.983-7.953-8.213-22.138-8.213-50.136C4.539,133.875,4.775,119.691,12.759,111.739z"/>
	<path fill="#8E8E8E" d="M12.809,111.797c3.909-3.894,9.313-5.916,17.126-6.966c0.322-0.043,0.647-0.085,0.979-0.125
		c3.813-0.464,8.179-0.715,13.197-0.849c0.186-0.005,0.323-0.01,0.511-0.015c5.293-0.131,11.098-0.141,18.098-0.141v5.297
		c-2,0-4.23,4.58-6.164,4.589c-2.891,0.008-5.591,0.023-8.149,0.056c-5.565,0.072-10.331,0.228-14.331,0.586
		c-7.094,0.651-11.795,1.953-14.399,4.558c-5.21,5.21-5.225,18.693-5.225,43.098c0,24.403,0.028,37.888,5.237,43.096
		c2.604,2.604,7.31,3.907,14.401,4.558c3.997,0.358,8.769,0.515,14.329,0.586c2.563,0.033,5.244,0.048,8.144,0.056
		c1.931,0.009,4.157,4.594,6.157,4.594v5.293c-7,0-12.799-0.01-18.092-0.142c-0.189-0.004-0.354-0.009-0.54-0.015
		c-5.022-0.134-9.378-0.384-13.193-0.849c-0.33-0.041-0.651-0.083-0.974-0.126c-7.81-1.05-13.209-3.073-17.117-6.965
		c-7.961-7.93-8.193-22.107-8.193-50.087C4.609,133.903,4.849,119.727,12.809,111.797z"/>
	<path fill="#8F8F8F" d="M12.859,111.855c3.899-3.884,9.3-5.901,17.111-6.949c0.321-0.043,0.646-0.085,0.977-0.125
		c3.809-0.463,8.17-0.712,13.184-0.846c0.185-0.005,0.324-0.01,0.51-0.015c5.289-0.131,11.078-0.141,18.078-0.141v5.282
		c-2,0-4.295,4.456-6.258,4.466c-2.883,0.008-5.576,0.023-8.126,0.056c-5.55,0.072-10.301,0.229-14.292,0.588
		c-7.099,0.654-11.803,1.961-14.417,4.576c-5.23,5.23-5.245,18.701-5.245,43.146c0,24.444,0.027,37.917,5.258,43.145
		c2.613,2.615,7.322,3.922,14.419,4.576c3.988,0.358,8.745,0.516,14.288,0.587c2.557,0.034,5.231,0.049,8.121,0.057
		c1.96,0.01,4.252,4.471,6.252,4.471v5.279c-7,0-12.785-0.01-18.072-0.141c-0.189-0.005-0.353-0.01-0.539-0.015
		c-5.017-0.134-9.368-0.384-13.179-0.847c-0.33-0.04-0.651-0.082-0.973-0.126c-7.808-1.047-13.204-3.065-17.103-6.947
		c-7.938-7.907-8.176-22.077-8.176-50.039C4.678,133.932,4.921,119.762,12.859,111.855z"/>
	<path fill="#909090" d="M12.91,111.913c3.891-3.875,9.287-5.887,17.096-6.932c0.321-0.043,0.646-0.084,0.976-0.125
		c3.806-0.461,8.162-0.71,13.17-0.844c0.185-0.005,0.323-0.01,0.509-0.015c5.283-0.131,11.059-0.141,18.059-0.141v5.268
		c-2,0-4.361,4.333-6.352,4.342c-2.875,0.008-5.561,0.023-8.104,0.057c-5.532,0.072-10.27,0.23-14.251,0.589
		c-7.104,0.656-11.811,1.969-14.437,4.593c-5.25,5.25-5.265,18.709-5.265,43.196c0,24.486,0.028,37.945,5.278,43.194
		c2.625,2.625,7.335,3.938,14.438,4.594c3.978,0.359,8.723,0.517,14.248,0.59c2.549,0.033,5.216,0.049,8.098,0.057
		c1.989,0.01,4.346,4.347,6.346,4.347v5.265c-7,0-12.771-0.01-18.053-0.141c-0.188-0.005-0.352-0.009-0.539-0.015
		c-5.011-0.134-9.357-0.383-13.164-0.844c-0.33-0.04-0.649-0.082-0.972-0.125c-7.806-1.044-13.198-3.057-17.088-6.931
		c-7.915-7.884-8.155-22.047-8.155-49.989C4.748,133.959,4.994,119.797,12.91,111.913z"/>
	<path fill="#919191" d="M12.961,111.971c3.881-3.865,9.273-5.872,17.081-6.915c0.32-0.042,0.646-0.084,0.975-0.124
		c3.801-0.46,8.152-0.708,13.155-0.842c0.185-0.005,0.322-0.01,0.508-0.015c5.277-0.131,11.039-0.141,18.039-0.141v5.253
		c-2,0-4.426,4.208-6.445,4.218c-2.867,0.008-5.545,0.024-8.081,0.058c-5.516,0.073-10.239,0.232-14.21,0.592
		c-7.109,0.659-11.819,1.976-14.455,4.611c-5.271,5.271-5.285,18.716-5.285,43.245c0,24.527,0.027,37.974,5.299,43.243
		c2.635,2.635,7.349,3.953,14.456,4.611c3.968,0.359,8.698,0.519,14.208,0.592c2.541,0.034,5.2,0.049,8.074,0.058
		c2.019,0.01,4.439,4.223,6.439,4.223v5.25c-7,0-12.756-0.01-18.033-0.141c-0.188-0.004-0.352-0.009-0.538-0.015
		c-5.005-0.133-9.348-0.381-13.15-0.841c-0.329-0.04-0.648-0.082-0.97-0.125c-7.805-1.042-13.192-3.05-17.073-6.914
		c-7.893-7.861-8.136-22.017-8.136-49.94C4.818,133.987,5.067,119.832,12.961,111.971z"/>
	<path fill="#929292" d="M13.011,112.029c3.872-3.855,9.261-5.858,17.066-6.897c0.321-0.043,0.646-0.084,0.974-0.124
		c3.797-0.458,8.145-0.706,13.141-0.839c0.185-0.005,0.322-0.01,0.51-0.015c5.271-0.13,11.018-0.14,18.018-0.14v5.238
		c-2,0-4.49,4.085-6.539,4.095c-2.859,0.008-5.529,0.024-8.059,0.058c-5.499,0.074-10.208,0.233-14.17,0.593
		c-7.114,0.661-11.827,1.983-14.473,4.629c-5.291,5.291-5.306,18.724-5.306,43.293c0,24.568,0.028,38.002,5.317,43.292
		c2.646,2.646,7.363,3.968,14.476,4.629c3.959,0.359,8.675,0.52,14.169,0.593c2.533,0.034,5.185,0.05,8.051,0.058
		c2.047,0.01,4.533,4.099,6.533,4.099v5.235c-7,0-12.742-0.01-18.014-0.141c-0.188-0.005-0.351-0.009-0.537-0.015
		c-5-0.133-9.337-0.381-13.136-0.839c-0.329-0.04-0.647-0.081-0.969-0.125c-7.803-1.039-13.188-3.042-17.059-6.896
		c-7.871-7.838-8.116-21.986-8.116-49.892C4.889,134.015,5.141,119.867,13.011,112.029z"/>
	<path fill="#939393" d="M13.062,112.087c3.862-3.846,9.247-5.843,17.052-6.88c0.32-0.042,0.645-0.083,0.973-0.123
		c3.792-0.457,8.135-0.704,13.126-0.836c0.185-0.005,0.321-0.01,0.509-0.015c5.266-0.13,10.998-0.141,17.998-0.141v5.224
		c-2,0-4.555,3.961-6.633,3.971c-2.852,0.009-5.514,0.025-8.036,0.059c-5.482,0.074-10.178,0.235-14.129,0.595
		c-7.12,0.664-11.836,1.991-14.491,4.646c-5.311,5.312-5.326,18.732-5.326,43.342c0,24.61,0.029,38.032,5.338,43.341
		c2.656,2.656,7.376,3.983,14.494,4.647c3.948,0.36,8.65,0.521,14.129,0.595c2.525,0.034,5.169,0.05,8.026,0.059
		c2.077,0.01,4.628,3.975,6.628,3.975v5.221c-7,0-12.727-0.01-17.992-0.141c-0.189-0.004-0.353-0.009-0.538-0.015
		c-4.994-0.133-9.327-0.38-13.122-0.836c-0.328-0.04-0.646-0.081-0.967-0.124c-7.802-1.037-13.182-3.034-17.044-6.879
		c-7.849-7.815-8.099-21.956-8.099-49.843S5.213,119.902,13.062,112.087z"/>
	<path fill="#949494" d="M13.112,112.146c3.853-3.836,9.233-5.829,17.037-6.863c0.319-0.042,0.643-0.083,0.971-0.123
		c3.788-0.455,8.127-0.701,13.112-0.833c0.184-0.005,0.322-0.01,0.508-0.015c5.26-0.13,10.979-0.14,17.979-0.14v5.209
		c-2,0-4.619,3.837-6.729,3.848c-2.842,0.008-5.497,0.025-8.011,0.059c-5.467,0.075-10.147,0.236-14.09,0.597
		c-7.124,0.666-11.844,1.999-14.509,4.664c-5.331,5.332-5.347,18.739-5.347,43.391c0,24.651,0.028,38.06,5.358,43.39
		c2.666,2.666,7.39,3.999,14.512,4.665c3.939,0.36,8.627,0.521,14.088,0.597c2.52,0.035,5.155,0.051,8.005,0.06
		c2.106,0.01,4.722,3.852,6.722,3.852v5.206c-7,0-12.713-0.01-17.973-0.141c-0.189-0.004-0.352-0.009-0.537-0.014
		c-4.988-0.133-9.317-0.379-13.107-0.834c-0.328-0.04-0.646-0.081-0.966-0.124c-7.8-1.034-13.177-3.026-17.029-6.861
		c-7.826-7.792-8.079-21.926-8.079-49.794S5.286,119.938,13.112,112.146z"/>
	<path fill="#959595" d="M13.163,112.204c3.844-3.827,9.221-5.814,17.021-6.845c0.319-0.042,0.643-0.083,0.97-0.122
		c3.785-0.454,8.118-0.699,13.099-0.832c0.184-0.005,0.321-0.01,0.507-0.015c5.256-0.13,10.959-0.14,17.959-0.14v5.194
		c-2,0-4.686,3.714-6.822,3.724c-2.834,0.009-5.481,0.025-7.988,0.06c-5.449,0.076-10.116,0.238-14.049,0.599
		c-7.13,0.668-11.852,2.006-14.527,4.682c-5.352,5.352-5.366,18.747-5.366,43.44c0,24.692,0.028,38.089,5.378,43.439
		c2.676,2.676,7.402,4.013,14.53,4.682c3.93,0.361,8.604,0.523,14.048,0.599c2.512,0.035,5.14,0.052,7.981,0.06
		c2.135,0.011,4.815,3.728,6.815,3.728v5.192c-7,0-12.699-0.011-17.953-0.141c-0.188-0.005-0.351-0.009-0.536-0.015
		c-4.983-0.132-9.308-0.378-13.094-0.832c-0.327-0.04-0.645-0.081-0.964-0.123c-7.799-1.031-13.172-3.019-17.015-6.844
		c-7.804-7.77-8.06-21.896-8.06-49.746C5.098,134.099,5.359,119.973,13.163,112.204z"/>
	<path fill="#969696" d="M13.213,112.262c3.835-3.817,9.208-5.799,17.008-6.828c0.319-0.042,0.642-0.083,0.969-0.122
		c3.78-0.452,8.109-0.697,13.084-0.829c0.184-0.005,0.32-0.01,0.506-0.015c5.25-0.129,10.939-0.14,17.939-0.14v5.18
		c-2,0-4.75,3.59-6.916,3.6c-2.828,0.009-5.466,0.026-7.966,0.061c-5.433,0.076-10.086,0.239-14.009,0.6
		c-7.135,0.671-11.859,2.014-14.545,4.7c-5.372,5.372-5.387,18.754-5.387,43.489c0,24.734,0.027,38.118,5.398,43.488
		c2.686,2.686,7.415,4.029,14.548,4.7c3.92,0.361,8.581,0.524,14.009,0.6c2.504,0.035,5.124,0.052,7.958,0.061
		c2.164,0.01,4.909,3.604,6.909,3.604v5.177c-7,0-12.684-0.011-17.934-0.141c-0.188-0.004-0.351-0.009-0.535-0.015
		c-4.978-0.132-9.298-0.377-13.08-0.829c-0.326-0.039-0.644-0.08-0.962-0.123c-7.798-1.028-13.166-3.011-17-6.827
		c-7.781-7.747-8.042-21.866-8.042-49.697C5.166,134.126,5.432,120.008,13.213,112.262z"/>
	<path fill="#979797" d="M13.264,112.32c3.825-3.808,9.194-5.785,16.993-6.811c0.318-0.042,0.641-0.082,0.967-0.121
		c3.776-0.45,8.102-0.694,13.07-0.826c0.183-0.005,0.319-0.01,0.505-0.015c5.244-0.129,10.92-0.14,17.92-0.14v5.165
		c-2,0-4.814,3.466-7.01,3.477c-2.82,0.009-5.45,0.026-7.943,0.061c-5.416,0.077-10.055,0.241-13.968,0.603
		c-7.14,0.673-11.868,2.021-14.563,4.717c-5.393,5.393-5.407,18.762-5.407,43.538c0,24.775,0.028,38.146,5.419,43.537
		c2.695,2.696,7.429,4.044,14.566,4.718c3.91,0.362,8.557,0.525,13.969,0.602c2.496,0.036,5.108,0.053,7.934,0.062
		c2.194,0.011,5.004,3.48,7.004,3.48v5.163c-7,0-12.67-0.011-17.914-0.141c-0.188-0.004-0.35-0.009-0.535-0.014
		c-4.972-0.132-9.286-0.376-13.064-0.827c-0.326-0.039-0.644-0.08-0.961-0.122c-7.796-1.026-13.161-3.003-16.986-6.81
		c-7.759-7.724-8.021-21.835-8.021-49.647C5.236,134.154,5.505,120.043,13.264,112.32z"/>
	<path fill="#989898" d="M13.314,112.378c3.815-3.798,9.181-5.771,16.978-6.793c0.318-0.042,0.641-0.082,0.967-0.121
		c3.771-0.448,8.092-0.692,13.055-0.824c0.184-0.005,0.319-0.01,0.505-0.015c5.24-0.129,10.9-0.14,17.9-0.14v5.15
		c-2,0-4.879,3.342-7.104,3.353c-2.813,0.009-5.435,0.026-7.92,0.062c-5.4,0.077-10.025,0.242-13.929,0.604
		c-7.145,0.676-11.876,2.029-14.582,4.735c-5.412,5.413-5.427,18.77-5.427,43.587c0,24.816,0.027,38.175,5.439,43.585
		c2.705,2.706,7.441,4.059,14.584,4.736c3.901,0.362,8.533,0.526,13.928,0.604c2.49,0.036,5.095,0.053,7.912,0.062
		c2.223,0.011,5.098,3.356,7.098,3.356v5.148c-7,0-12.654-0.011-17.895-0.14c-0.188-0.005-0.349-0.009-0.534-0.015
		c-4.966-0.131-9.276-0.375-13.051-0.824c-0.326-0.039-0.642-0.08-0.96-0.122c-7.794-1.023-13.155-2.996-16.971-6.793
		c-7.736-7.701-8.002-21.805-8.002-49.599C5.307,134.182,5.578,120.079,13.314,112.378z"/>
	<path fill="#999999" d="M13.365,112.436c3.807-3.789,9.167-5.756,16.963-6.776c0.317-0.042,0.64-0.082,0.965-0.12
		c3.768-0.447,8.084-0.69,13.041-0.821c0.183-0.005,0.318-0.01,0.504-0.015c5.234-0.129,10.881-0.14,17.881-0.14v5.136
		c-2,0-4.943,3.218-7.199,3.229c-2.803,0.009-5.418,0.026-7.896,0.063c-5.384,0.078-9.994,0.243-13.888,0.605
		c-7.15,0.679-11.884,2.037-14.601,4.753c-5.433,5.433-5.447,18.777-5.447,43.636c0,24.858,0.028,38.204,5.46,43.634
		c2.717,2.716,7.454,4.074,14.603,4.753c3.891,0.362,8.509,0.528,13.888,0.606c2.482,0.036,5.079,0.053,7.889,0.063
		c2.252,0.011,5.191,3.233,7.191,3.233v5.133c-7,0-12.641-0.011-17.875-0.14c-0.186-0.004-0.349-0.009-0.533-0.014
		c-4.961-0.131-9.267-0.375-13.037-0.822c-0.325-0.039-0.641-0.079-0.958-0.121c-7.793-1.021-13.149-2.987-16.956-6.775
		c-7.714-7.678-7.982-21.775-7.982-49.55C5.377,134.21,5.651,120.114,13.365,112.436z"/>
	<path fill="#9A9A9A" d="M13.415,112.494c3.798-3.779,9.155-5.741,16.948-6.759c0.317-0.042,0.639-0.082,0.965-0.12
		c3.764-0.445,8.074-0.688,13.026-0.819c0.183-0.005,0.319-0.01,0.503-0.015c5.229-0.128,10.861-0.14,17.861-0.14v5.121
		c-3,0-5.01,3.095-7.293,3.106c-2.795,0.009-5.402,0.027-7.873,0.063c-5.366,0.079-9.964,0.245-13.848,0.607
		c-7.154,0.682-11.892,2.044-14.618,4.771c-5.453,5.454-5.468,18.785-5.468,43.686c0,24.899,0.027,38.232,5.48,43.683
		c2.727,2.727,7.468,4.09,14.62,4.771c3.882,0.363,8.487,0.529,13.849,0.607c2.475,0.036,5.063,0.054,7.865,0.063
		c2.281,0.011,4.285,3.109,7.285,3.109v5.119c-7,0-12.627-0.011-17.855-0.14c-0.186-0.005-0.348-0.009-0.532-0.015
		c-4.955-0.131-9.257-0.373-13.022-0.819c-0.325-0.039-0.64-0.079-0.957-0.121c-7.791-1.018-13.145-2.98-16.941-6.758
		c-7.691-7.655-7.965-21.745-7.965-49.501C5.445,134.238,5.724,120.149,13.415,112.494z"/>
	<path fill="#9B9B9B" d="M13.466,112.552c3.788-3.77,9.142-5.727,16.934-6.742c0.317-0.042,0.638-0.082,0.963-0.12
		c3.76-0.444,8.066-0.686,13.013-0.816c0.183-0.005,0.318-0.01,0.502-0.015c5.225-0.128,10.842-0.14,17.842-0.14v5.106
		c-3,0-5.074,2.971-7.387,2.982c-2.787,0.01-5.387,0.027-7.851,0.064c-5.35,0.079-9.933,0.246-13.807,0.609
		c-7.16,0.684-11.9,2.052-14.637,4.788c-5.474,5.474-5.488,18.792-5.488,43.734c0,24.94,0.028,38.261,5.501,43.732
		c2.736,2.737,7.48,4.105,14.639,4.789c3.872,0.363,8.463,0.53,13.809,0.609c2.467,0.037,5.048,0.054,7.841,0.064
		c2.311,0.011,4.38,2.985,7.38,2.985v5.105c-7,0-12.611-0.012-17.836-0.14c-0.186-0.005-0.347-0.009-0.531-0.015
		c-4.95-0.13-9.247-0.372-13.009-0.816c-0.324-0.038-0.639-0.078-0.955-0.12c-7.79-1.015-13.14-2.972-16.927-6.741
		c-7.669-7.632-7.945-21.714-7.945-49.452C5.516,134.266,5.797,120.184,13.466,112.552z"/>
	<path fill="#9C9C9C" d="M13.517,112.61c3.778-3.761,9.128-5.712,16.919-6.725c0.316-0.042,0.637-0.081,0.961-0.119
		c3.756-0.442,8.058-0.683,12.999-0.813c0.182-0.005,0.317-0.01,0.501-0.015c5.219-0.128,10.822-0.14,17.822-0.14v5.092
		c-3,0-5.139,2.847-7.48,2.858c-2.779,0.009-5.371,0.028-7.828,0.064c-5.333,0.08-9.901,0.247-13.767,0.611
		c-7.165,0.687-11.908,2.06-14.654,4.806c-5.493,5.494-5.509,18.8-5.509,43.783c0,24.982,0.029,38.29,5.521,43.782
		c2.746,2.747,7.493,4.12,14.656,4.807c3.862,0.363,8.439,0.531,13.768,0.611c2.461,0.037,5.034,0.055,7.819,0.064
		c2.34,0.011,4.474,2.861,7.474,2.861v5.09c-7,0-12.598-0.012-17.814-0.14c-0.188-0.004-0.349-0.009-0.532-0.014
		c-4.944-0.13-9.236-0.372-12.994-0.814c-0.324-0.039-0.639-0.078-0.954-0.12c-7.788-1.012-13.134-2.964-16.912-6.724
		c-7.647-7.61-7.926-21.684-7.926-49.404S5.87,120.219,13.517,112.61z"/>
	<path fill="#9D9D9D" d="M13.567,112.668c3.77-3.751,9.114-5.698,16.903-6.708c0.316-0.041,0.637-0.081,0.961-0.118
		c3.751-0.441,8.049-0.681,12.984-0.811c0.182-0.005,0.316-0.01,0.5-0.015c5.213-0.128,10.803-0.14,17.803-0.14v5.077
		c-3,0-5.203,2.724-7.574,2.735c-2.771,0.01-5.356,0.028-7.805,0.065c-5.317,0.081-9.872,0.249-13.727,0.613
		c-7.17,0.689-11.916,2.067-14.673,4.824c-5.514,5.515-5.529,18.808-5.529,43.832c0,25.023,0.028,38.318,5.542,43.831
		c2.756,2.757,7.507,4.135,14.675,4.824c3.853,0.364,8.415,0.533,13.728,0.613c2.453,0.037,5.02,0.056,7.796,0.065
		c2.369,0.012,4.567,2.738,7.567,2.738v5.076c-7,0-12.584-0.012-17.795-0.14c-0.188-0.005-0.348-0.009-0.532-0.015
		c-4.938-0.13-9.226-0.37-12.979-0.812c-0.323-0.038-0.637-0.078-0.952-0.119c-7.787-1.009-13.129-2.957-16.898-6.707
		c-7.624-7.586-7.907-21.654-7.907-49.354S5.942,120.254,13.567,112.668z"/>
	<path fill="#9E9E9E" d="M13.617,112.727c3.761-3.742,9.103-5.683,16.89-6.69c0.315-0.041,0.636-0.08,0.959-0.118
		c3.748-0.439,8.04-0.679,12.97-0.809c0.182-0.005,0.316-0.01,0.5-0.015c5.209-0.127,10.783-0.139,17.783-0.139v5.062
		c-3,0-5.268,2.6-7.668,2.611c-2.764,0.01-5.341,0.028-7.782,0.065c-5.3,0.081-9.841,0.25-13.686,0.615
		c-7.176,0.691-11.925,2.075-14.691,4.841c-5.534,5.535-5.549,18.815-5.549,43.881c0,25.064,0.028,38.347,5.562,43.879
		c2.766,2.767,7.52,4.15,14.693,4.842c3.843,0.364,8.391,0.534,13.688,0.614c2.445,0.038,5.004,0.056,7.772,0.066
		c2.398,0.012,4.661,2.614,7.661,2.614v5.061c-7,0-12.568-0.012-17.775-0.14c-0.186-0.005-0.347-0.009-0.531-0.014
		c-4.933-0.13-9.216-0.37-12.966-0.809c-0.322-0.038-0.636-0.078-0.95-0.119c-7.786-1.007-13.124-2.949-16.884-6.689
		c-7.602-7.563-7.888-21.624-7.888-49.306S6.016,120.29,13.617,112.727z"/>
	<path fill="#9F9F9F" d="M13.668,112.785c3.751-3.732,9.089-5.668,16.875-6.673c0.315-0.041,0.634-0.08,0.958-0.118
		c3.743-0.438,8.031-0.676,12.955-0.806c0.182-0.005,0.317-0.01,0.499-0.015c5.203-0.127,10.764-0.139,17.764-0.139v5.048
		c-3,0-5.332,2.476-7.764,2.487c-2.754,0.01-5.323,0.029-7.758,0.066c-5.283,0.082-9.811,0.251-13.646,0.616
		c-7.181,0.694-11.933,2.083-14.709,4.859c-5.555,5.555-5.569,18.823-5.569,43.93c0,25.106,0.027,38.375,5.582,43.928
		c2.775,2.777,7.532,4.166,14.711,4.86c3.833,0.365,8.369,0.535,13.648,0.616c2.438,0.038,4.988,0.057,7.748,0.066
		c2.428,0.012,4.756,2.49,7.756,2.49v5.046c-7,0-12.555-0.012-17.756-0.14c-0.186-0.004-0.347-0.009-0.53-0.014
		c-4.927-0.129-9.206-0.369-12.951-0.806c-0.322-0.038-0.636-0.077-0.949-0.118c-7.784-1.004-13.118-2.941-16.869-6.672
		c-7.579-7.541-7.868-21.593-7.868-49.257S6.089,120.325,13.668,112.785z"/>
	<path fill="#A0A0A0" d="M13.719,112.843c3.741-3.723,9.075-5.654,16.859-6.656c0.315-0.041,0.634-0.08,0.957-0.117
		c3.739-0.436,8.022-0.674,12.941-0.803c0.182-0.005,0.316-0.01,0.498-0.015c5.197-0.127,10.744-0.139,17.744-0.139v5.033
		c-3,0-5.398,2.352-7.857,2.364c-2.746,0.01-5.308,0.029-7.735,0.067c-5.267,0.082-9.779,0.253-13.604,0.618
		c-7.186,0.697-11.941,2.09-14.729,4.877c-5.574,5.575-5.589,18.831-5.589,43.979c0,25.147,0.028,38.404,5.603,43.977
		c2.785,2.788,7.546,4.181,14.729,4.878c3.823,0.365,8.345,0.536,13.608,0.618c2.43,0.038,4.973,0.057,7.725,0.067
		c2.457,0.012,4.85,2.366,7.85,2.366v5.032c-7,0-12.539-0.012-17.736-0.139c-0.186-0.005-0.346-0.009-0.529-0.015
		c-4.922-0.129-9.196-0.367-12.938-0.804c-0.322-0.038-0.634-0.077-0.948-0.118c-7.782-1.001-13.112-2.933-16.854-6.655
		c-7.557-7.518-7.849-21.563-7.849-49.208S6.162,120.36,13.719,112.843z"/>
	<path fill="#A1A1A1" d="M13.77,112.901c3.732-3.713,9.062-5.64,16.845-6.639c0.314-0.04,0.633-0.079,0.955-0.116
		c3.735-0.435,8.015-0.672,12.928-0.801c0.181-0.005,0.315-0.01,0.499-0.015c5.191-0.126,10.723-0.139,17.723-0.139v5.018
		c-3,0-5.463,2.228-7.951,2.24c-2.738,0.01-5.292,0.029-7.713,0.067c-5.25,0.083-9.748,0.254-13.564,0.62
		c-7.19,0.699-11.948,2.097-14.746,4.895c-5.595,5.596-5.609,18.838-5.609,44.028c0,25.188,0.027,38.433,5.621,44.026
		c2.799,2.798,7.561,4.196,14.749,4.896c3.814,0.366,8.321,0.537,13.567,0.62c2.424,0.038,4.959,0.057,7.703,0.067
		c2.486,0.012,4.943,2.243,7.943,2.243v5.017c-7,0-12.525-0.012-17.717-0.139c-0.186-0.004-0.346-0.009-0.528-0.014
		c-4.916-0.129-9.186-0.367-12.924-0.801c-0.321-0.038-0.633-0.077-0.946-0.117c-7.781-0.999-13.106-2.926-16.839-6.638
		c-7.535-7.495-7.831-21.533-7.831-49.159C5.934,134.433,6.234,120.396,13.77,112.901z"/>
	<path fill="#A2A2A2" d="M13.819,112.958c3.724-3.703,9.049-5.625,16.83-6.621c0.314-0.041,0.633-0.079,0.955-0.116
		c3.73-0.433,8.006-0.67,12.913-0.798c0.181-0.005,0.314-0.01,0.498-0.015c5.186-0.127,10.703-0.139,17.703-0.139v5.003
		c-3,0-5.527,2.104-8.045,2.117c-2.73,0.01-5.277,0.03-7.689,0.068c-5.234,0.083-9.719,0.255-13.524,0.622
		c-7.196,0.702-11.957,2.105-14.765,4.912c-5.615,5.616-5.63,18.846-5.63,44.077c0,25.23,0.028,38.461,5.642,44.075
		c2.809,2.807,7.573,4.211,14.768,4.913c3.804,0.366,8.297,0.538,13.527,0.622c2.416,0.038,4.943,0.058,7.679,0.068
		c2.516,0.012,5.038,2.119,8.038,2.119v5.003c-7,0-12.512-0.013-17.697-0.14c-0.184-0.004-0.345-0.009-0.527-0.014
		c-4.911-0.128-9.176-0.366-12.909-0.799c-0.321-0.037-0.632-0.076-0.945-0.117c-7.779-0.996-13.102-2.917-16.824-6.62
		c-7.513-7.472-7.812-21.503-7.812-49.11C6.004,134.461,6.308,120.431,13.819,112.958z"/>
	<path fill="#A3A3A3" d="M13.87,113.017c3.714-3.693,9.036-5.61,16.815-6.604c0.313-0.04,0.632-0.079,0.953-0.116
		c3.728-0.431,7.997-0.667,12.899-0.796c0.18-0.005,0.313-0.01,0.497-0.015c5.18-0.126,10.684-0.139,17.684-0.139v4.989
		c-3,0-5.592,1.98-8.139,1.993c-2.723,0.01-5.262,0.03-7.667,0.068c-5.217,0.084-9.688,0.257-13.484,0.624
		c-7.2,0.704-11.965,2.113-14.782,4.93c-5.636,5.636-5.65,18.854-5.65,44.126c0,25.271,0.027,38.49,5.662,44.124
		c2.818,2.817,7.587,4.226,14.785,4.931c3.795,0.366,8.273,0.54,13.488,0.624c2.408,0.039,4.928,0.059,7.655,0.069
		c2.545,0.012,5.132,1.995,8.132,1.995v4.988c-7,0-12.496-0.013-17.678-0.139c-0.184-0.005-0.344-0.009-0.527-0.014
		c-4.904-0.129-9.165-0.365-12.895-0.796c-0.32-0.037-0.631-0.076-0.943-0.116c-7.778-0.994-13.097-2.91-16.811-6.604
		c-7.489-7.449-7.791-21.472-7.791-49.061C6.074,134.489,6.381,120.466,13.87,113.017z"/>
	<path fill="#A4A4A4" d="M13.921,113.075c3.704-3.684,9.022-5.595,16.801-6.586c0.313-0.04,0.631-0.078,0.952-0.115
		c3.723-0.429,7.988-0.665,12.884-0.793c0.181-0.005,0.313-0.01,0.497-0.015c5.176-0.126,10.664-0.139,17.664-0.139v4.974
		c-3,0-5.656,1.856-8.234,1.869c-2.713,0.01-5.244,0.03-7.643,0.069c-5.2,0.084-9.657,0.258-13.443,0.625
		c-7.206,0.707-11.974,2.121-14.801,4.948c-5.656,5.656-5.671,18.861-5.671,44.175c0,25.313,0.028,38.519,5.683,44.173
		c2.828,2.828,7.6,4.242,14.804,4.949c3.785,0.367,8.251,0.541,13.448,0.625c2.4,0.039,4.912,0.059,7.632,0.069
		c2.574,0.013,5.226,1.871,8.226,1.871v4.974c-7,0-12.482-0.013-17.656-0.139c-0.186-0.004-0.346-0.009-0.528-0.014
		c-4.898-0.128-9.155-0.364-12.881-0.794c-0.319-0.037-0.63-0.075-0.941-0.116c-7.777-0.99-13.091-2.902-16.796-6.586
		c-7.467-7.426-7.773-21.442-7.773-49.012C6.143,134.517,6.453,120.501,13.921,113.075z"/>
	<path fill="#A5A5A5" d="M13.972,113.133c3.695-3.674,9.009-5.581,16.785-6.569c0.313-0.04,0.63-0.078,0.951-0.115
		c3.719-0.428,7.979-0.663,12.87-0.791c0.181-0.005,0.314-0.01,0.496-0.015c5.17-0.126,10.645-0.139,17.645-0.139v4.959
		c-3,0-5.723,1.733-8.328,1.746c-2.705,0.011-5.229,0.031-7.62,0.07c-5.184,0.085-9.626,0.26-13.403,0.627
		c-7.211,0.709-11.98,2.128-14.818,4.965c-5.676,5.677-5.691,18.869-5.691,44.224c0,25.354,0.029,38.548,5.703,44.222
		c2.838,2.838,7.612,4.257,14.821,4.966c3.775,0.367,8.228,0.542,13.407,0.627c2.395,0.039,4.898,0.06,7.61,0.07
		c2.603,0.012,5.319,1.747,8.319,1.747v4.959c-7,0-12.469-0.013-17.637-0.139c-0.186-0.004-0.345-0.009-0.527-0.014
		c-4.894-0.128-9.146-0.363-12.866-0.791c-0.319-0.037-0.629-0.075-0.94-0.115c-7.775-0.988-13.086-2.895-16.781-6.569
		c-7.444-7.403-7.754-21.412-7.754-48.964S6.526,120.536,13.972,113.133z"/>
	<path fill="#A6A6A6" d="M14.021,113.191c3.687-3.665,8.996-5.566,16.771-6.552c0.313-0.04,0.629-0.078,0.95-0.114
		c3.714-0.426,7.971-0.661,12.855-0.789c0.18-0.005,0.313-0.01,0.495-0.014c5.164-0.126,10.625-0.139,17.625-0.139v4.945
		c-3,0-5.787,1.609-8.422,1.622c-2.697,0.011-5.213,0.031-7.598,0.07c-5.167,0.086-9.596,0.261-13.362,0.629
		c-7.216,0.712-11.989,2.136-14.837,4.983c-5.696,5.697-5.712,18.876-5.712,44.272c0,25.396,0.028,38.577,5.724,44.271
		c2.848,2.848,7.626,4.272,14.84,4.984c3.766,0.367,8.203,0.543,13.367,0.628c2.387,0.04,4.883,0.06,7.586,0.071
		c2.633,0.013,5.414,1.624,8.414,1.624v4.945c-7,0-12.453-0.013-17.617-0.139c-0.186-0.005-0.344-0.009-0.526-0.014
		c-4.888-0.128-9.136-0.362-12.853-0.789c-0.318-0.037-0.628-0.075-0.938-0.115c-7.774-0.985-13.081-2.887-16.767-6.552
		c-7.422-7.38-7.734-21.382-7.734-48.915S6.6,120.571,14.021,113.191z"/>
	<path fill="#A7A7A7" d="M14.072,113.249c3.677-3.655,8.982-5.552,16.757-6.535c0.312-0.04,0.628-0.077,0.948-0.114
		c3.71-0.425,7.962-0.658,12.842-0.786c0.18-0.005,0.313-0.01,0.494-0.015c5.16-0.125,10.605-0.138,17.605-0.138v4.93
		c-3,0-5.852,1.485-8.516,1.498c-2.691,0.011-5.198,0.032-7.574,0.071c-5.151,0.086-9.565,0.263-13.323,0.63
		c-7.221,0.714-11.997,2.144-14.854,5.001c-5.717,5.717-5.731,18.884-5.731,44.321c0,25.437,0.028,38.605,5.743,44.32
		c2.857,2.858,7.639,4.288,14.857,5.002c3.757,0.368,8.18,0.544,13.328,0.63c2.379,0.04,4.867,0.061,7.563,0.071
		c2.662,0.013,5.508,1.5,8.508,1.5v4.93c-7,0-12.439-0.013-17.598-0.139c-0.184-0.004-0.344-0.009-0.525-0.014
		c-4.883-0.127-9.125-0.361-12.838-0.786c-0.318-0.037-0.628-0.075-0.938-0.114c-7.772-0.982-13.075-2.879-16.752-6.534
		c-7.4-7.358-7.715-21.352-7.715-48.866S6.672,120.607,14.072,113.249z"/>
	<path fill="#A8A8A8" d="M14.123,113.307c3.667-3.646,8.97-5.537,16.741-6.517c0.313-0.04,0.628-0.077,0.947-0.114
		c3.707-0.423,7.954-0.656,12.828-0.783c0.179-0.005,0.312-0.01,0.493-0.014c5.154-0.125,10.586-0.138,17.586-0.138v4.915
		c-3,0-5.916,1.362-8.609,1.375c-2.684,0.011-5.183,0.032-7.552,0.072c-5.134,0.086-9.534,0.264-13.282,0.632
		c-7.227,0.717-12.006,2.15-14.874,5.019c-5.736,5.738-5.751,18.892-5.751,44.371c0,25.478,0.027,38.634,5.764,44.369
		c2.867,2.869,7.651,4.303,14.876,5.02c3.747,0.368,8.157,0.545,13.288,0.632c2.371,0.04,4.852,0.061,7.539,0.072
		c2.69,0.013,5.602,1.376,8.602,1.376v4.916c-7,0-12.424-0.013-17.578-0.139c-0.184-0.004-0.343-0.009-0.524-0.014
		c-4.877-0.127-9.115-0.36-12.824-0.784c-0.318-0.037-0.626-0.074-0.937-0.114c-7.771-0.98-13.069-2.872-16.736-6.517
		c-7.378-7.335-7.697-21.321-7.697-48.817S6.745,120.642,14.123,113.307z"/>
	<path fill="#A9A9A9" d="M14.174,113.365c3.658-3.637,8.956-5.522,16.727-6.5c0.312-0.039,0.627-0.077,0.946-0.113
		c3.702-0.422,7.944-0.654,12.813-0.781c0.179-0.005,0.311-0.01,0.492-0.015c5.148-0.125,10.566-0.138,17.566-0.138v4.901
		c-3,0-5.98,1.238-8.703,1.251c-2.676,0.011-5.167,0.032-7.529,0.072c-5.117,0.087-9.504,0.266-13.241,0.634
		c-7.231,0.719-12.014,2.158-14.893,5.037c-5.757,5.758-5.771,18.899-5.771,44.419c0,25.519,0.028,38.663,5.784,44.418
		c2.879,2.878,7.665,4.317,14.895,5.037c3.736,0.369,8.133,0.547,13.248,0.634c2.363,0.04,4.836,0.062,7.516,0.072
		c2.72,0.013,5.695,1.252,8.695,1.252v4.901c-7,0-12.41-0.014-17.559-0.139c-0.184-0.005-0.342-0.009-0.523-0.014
		c-4.872-0.127-9.105-0.359-12.811-0.781c-0.317-0.036-0.625-0.074-0.935-0.113c-7.77-0.977-13.064-2.863-16.722-6.5
		c-7.355-7.312-7.678-21.292-7.678-48.769C6.492,134.656,6.818,120.677,14.174,113.365z"/>
	<path fill="#AAAAAA" d="M14.224,113.423c3.649-3.627,8.943-5.508,16.712-6.483c0.312-0.039,0.627-0.076,0.945-0.112
		c3.698-0.42,7.937-0.652,12.799-0.778c0.18-0.005,0.313-0.01,0.492-0.014c5.145-0.125,10.547-0.138,17.547-0.138v4.886
		c-3,0-6.047,1.114-8.799,1.127c-2.666,0.011-5.149,0.033-7.505,0.073c-5.101,0.088-9.473,0.267-13.201,0.636
		c-7.236,0.722-12.021,2.166-14.91,5.054c-5.777,5.778-5.792,18.907-5.792,44.469c0,25.561,0.027,38.691,5.805,44.467
		c2.889,2.889,7.678,4.333,14.912,5.055c3.728,0.369,8.109,0.548,13.207,0.636c2.357,0.041,4.822,0.062,7.493,0.073
		c2.75,0.013,5.79,1.128,8.79,1.128v4.887c-7,0-12.396-0.014-17.539-0.139c-0.184-0.004-0.342-0.009-0.523-0.014
		c-4.865-0.126-9.095-0.358-12.795-0.778c-0.317-0.036-0.624-0.074-0.934-0.113c-7.768-0.975-13.059-2.856-16.708-6.483
		c-7.332-7.289-7.657-21.261-7.657-48.719C6.563,134.684,6.892,120.712,14.224,113.423z"/>
	<path fill="#ABABAB" d="M14.274,113.481c3.64-3.618,8.93-5.493,16.697-6.465c0.311-0.039,0.625-0.077,0.944-0.112
		c3.693-0.418,7.928-0.64,12.784-0.775c0.179-0.005,0.312-0.01,0.491-0.015c5.139-0.125,10.527-0.138,17.527-0.138v4.871
		c-3,0-6.111,0.99-8.893,1.004c-2.658,0.011-5.134,0.033-7.482,0.074c-5.084,0.088-9.442,0.268-13.16,0.638
		c-7.242,0.724-12.03,2.173-14.929,5.072c-5.798,5.798-5.813,18.915-5.813,44.518c0,25.602,0.028,38.72,5.825,44.516
		c2.898,2.899,7.69,4.348,14.931,5.073c3.718,0.37,8.085,0.549,13.167,0.638c2.352,0.041,4.807,0.063,7.47,0.074
		c2.778,0.014,5.884,1.005,8.884,1.005v4.872c-7,0-12.381-0.014-17.52-0.139c-0.182-0.004-0.341-0.009-0.522-0.014
		c-4.86-0.126-9.085-0.357-12.781-0.776c-0.316-0.036-0.623-0.073-0.932-0.112c-7.767-0.972-13.054-2.848-16.693-6.465
		c-7.31-7.266-7.638-21.23-7.638-48.67C6.633,134.711,6.964,120.748,14.274,113.481z"/>
	<path fill="#ACACAC" d="M14.325,113.54c3.63-3.608,8.917-5.479,16.683-6.448c0.31-0.039,0.624-0.076,0.942-0.112
		c3.69-0.417,7.919-0.647,12.771-0.773c0.179-0.005,0.311-0.01,0.49-0.014c5.133-0.125,10.508-0.138,17.508-0.138v4.857
		c-3,0-6.176,0.866-8.986,0.88c-2.65,0.012-5.119,0.033-7.459,0.074c-5.067,0.089-9.412,0.27-13.121,0.64
		c-7.246,0.727-12.038,2.181-14.946,5.09c-5.818,5.819-5.833,18.922-5.833,44.566c0,25.643,0.027,38.749,5.846,44.564
		c2.908,2.909,7.704,4.363,14.948,5.091c3.708,0.37,8.062,0.55,13.128,0.639c2.344,0.041,4.792,0.063,7.446,0.074
		c2.808,0.014,5.978,0.881,8.978,0.881v4.857c-7,0-12.367-0.014-17.5-0.138c-0.182-0.005-0.34-0.009-0.521-0.014
		c-4.854-0.126-9.074-0.356-12.768-0.773c-0.315-0.036-0.622-0.073-0.93-0.112c-7.766-0.969-13.049-2.84-16.679-6.448
		c-7.288-7.243-7.62-21.2-7.62-48.622S7.037,120.783,14.325,113.54z"/>
	<path fill="#ADADAD" d="M14.376,113.598c3.621-3.599,8.903-5.464,16.667-6.431c0.311-0.039,0.624-0.076,0.941-0.111
		c3.687-0.416,7.911-0.645,12.757-0.771c0.178-0.005,0.31-0.01,0.489-0.014c5.129-0.124,11.488-0.138,17.488-0.138v4.842
		c-3,0-6.24,0.743-9.08,0.757c-2.643,0.011-5.104,0.033-7.437,0.075c-5.051,0.09-9.381,0.271-13.08,0.641
		c-7.252,0.729-12.046,2.189-14.965,5.107c-5.839,5.839-5.854,18.93-5.854,44.616c0,25.685,0.028,38.777,5.866,44.613
		c2.918,2.919,7.717,4.378,14.967,5.108c3.698,0.37,8.039,0.551,13.088,0.641c2.336,0.042,4.776,0.063,7.423,0.075
		c2.837,0.014,6.071,0.757,9.071,0.757v4.843c-6,0-12.354-0.014-17.479-0.138c-0.184-0.004-0.342-0.009-0.522-0.014
		c-4.849-0.126-9.064-0.355-12.753-0.771c-0.315-0.036-0.621-0.073-0.929-0.111c-7.764-0.967-13.043-2.833-16.664-6.431
		c-7.266-7.22-7.601-21.17-7.601-48.573C6.771,134.768,7.11,120.818,14.376,113.598z"/>
	<path fill="#AEAEAE" d="M14.426,113.656c3.612-3.589,8.891-5.45,16.653-6.414c0.31-0.038,0.623-0.075,0.94-0.11
		c3.682-0.414,7.901-0.643,12.742-0.768c0.178-0.005,0.309-0.01,0.488-0.014c5.123-0.124,11.469-0.138,17.469-0.138v4.827
		c-3,0-6.305,0.619-9.174,0.633c-2.635,0.012-5.088,0.034-7.414,0.076c-5.034,0.09-9.351,0.272-13.04,0.643
		c-7.257,0.732-12.054,2.197-14.982,5.125c-5.859,5.859-5.874,18.938-5.874,44.665c0,25.726,0.027,38.806,5.887,44.662
		c2.928,2.929,7.729,4.394,14.984,5.126c3.689,0.371,8.016,0.552,13.047,0.643c2.33,0.042,4.763,0.064,7.4,0.076
		c2.867,0.014,6.166,0.633,9.166,0.633v4.829c-6,0-12.338-0.014-17.459-0.138c-0.184-0.004-0.341-0.009-0.521-0.014
		c-4.844-0.125-9.055-0.354-12.739-0.769c-0.314-0.035-0.62-0.072-0.927-0.111c-7.763-0.963-13.038-2.825-16.649-6.414
		c-7.243-7.198-7.581-21.14-7.581-48.524C6.842,134.795,7.183,120.853,14.426,113.656z"/>
	<path fill="#AFAFAF" d="M14.477,113.714c3.603-3.58,8.877-5.435,16.639-6.396c0.309-0.039,0.622-0.075,0.938-0.11
		c3.678-0.412,7.894-0.64,12.729-0.766c0.178-0.005,0.31-0.01,0.487-0.014c5.117-0.124,11.449-0.138,17.449-0.138v4.813
		c-3,0-6.369,0.495-9.27,0.509c-2.625,0.012-5.07,0.035-7.39,0.076c-5.018,0.091-9.319,0.274-12.999,0.645
		c-7.262,0.734-12.063,2.204-15.001,5.143c-5.879,5.879-5.894,18.945-5.894,44.713c0,25.768,0.027,38.834,5.906,44.711
		c2.938,2.939,7.743,4.409,15.003,5.144c3.679,0.371,7.991,0.554,13.007,0.645c2.322,0.042,4.747,0.064,7.377,0.076
		c2.896,0.014,6.26,0.51,9.26,0.51v4.814c-6,0-12.324-0.014-17.439-0.138c-0.184-0.004-0.341-0.009-0.521-0.014
		c-4.838-0.125-9.045-0.353-12.725-0.766c-0.314-0.036-0.62-0.072-0.926-0.11c-7.761-0.961-13.032-2.817-16.635-6.396
		c-7.221-7.175-7.563-21.11-7.563-48.476C6.91,134.823,7.256,120.889,14.477,113.714z"/>
	<path fill="#B0B0B0" d="M14.527,113.772c3.593-3.57,8.863-5.42,16.623-6.379c0.309-0.038,0.622-0.075,0.938-0.11
		c3.673-0.41,7.884-0.638,12.713-0.763c0.178-0.005,0.31-0.01,0.489-0.014c5.111-0.124,11.428-0.138,17.428-0.138v4.798
		c-3,0-6.436,0.372-9.363,0.386c-2.617,0.012-5.055,0.035-7.367,0.077c-5.001,0.091-9.289,0.275-12.959,0.646
		c-7.267,0.737-12.07,2.211-15.02,5.161c-5.898,5.9-5.913,18.953-5.913,44.762c0,25.809,0.028,38.863,5.925,44.761
		c2.949,2.949,7.758,4.424,15.022,5.162c3.67,0.371,7.968,0.555,12.968,0.646c2.314,0.042,4.731,0.065,7.354,0.077
		c2.925,0.014,6.354,0.386,9.354,0.386v4.8c-6,0-12.309-0.015-17.42-0.138c-0.182-0.004-0.34-0.009-0.521-0.014
		c-4.832-0.125-9.034-0.353-12.71-0.764c-0.314-0.035-0.618-0.072-0.925-0.11c-7.759-0.958-13.026-2.809-16.62-6.379
		c-7.197-7.151-7.543-21.079-7.543-48.426C6.98,134.851,7.329,120.924,14.527,113.772z"/>
	<path fill="#B1B1B1" d="M14.578,113.83c3.584-3.561,8.851-5.406,16.608-6.362c0.309-0.038,0.62-0.074,0.937-0.109
		c3.67-0.409,7.876-0.636,12.699-0.761c0.178-0.005,0.309-0.01,0.488-0.014c5.105-0.123,11.408-0.137,17.408-0.137v4.783
		c-3,0-6.5,0.248-9.457,0.262c-2.609,0.012-5.04,0.035-7.344,0.078c-4.984,0.092-9.259,0.276-12.919,0.648
		c-7.272,0.74-12.078,2.219-15.038,5.179c-5.919,5.92-5.934,18.96-5.934,44.811c0,25.85,0.027,38.892,5.945,44.81
		c2.961,2.959,7.771,4.439,15.041,5.179c3.66,0.372,7.943,0.556,12.928,0.648c2.307,0.042,4.716,0.065,7.33,0.077
		c2.954,0.015,6.447,0.262,9.447,0.262v4.785c-6,0-12.295-0.015-17.4-0.138c-0.182-0.004-0.339-0.009-0.52-0.014
		c-4.826-0.125-9.023-0.352-12.696-0.761c-0.313-0.035-0.617-0.071-0.923-0.109c-7.758-0.956-13.021-2.802-16.605-6.362
		c-7.176-7.128-7.523-21.049-7.523-48.377S7.402,120.959,14.578,113.83z"/>
	<path fill="#B2B2B2" d="M14.628,113.888c3.575-3.551,8.838-5.392,16.594-6.345c0.309-0.038,0.62-0.074,0.937-0.109
		c3.665-0.407,7.866-0.634,12.685-0.758c0.177-0.005,0.308-0.01,0.487-0.014c5.1-0.123,11.389-0.138,17.389-0.138v4.769
		c-3,0-6.564,0.124-9.551,0.139c-2.602,0.012-5.024,0.035-7.321,0.078c-4.968,0.093-9.229,0.278-12.879,0.65
		c-7.276,0.742-12.086,2.227-15.056,5.196c-5.939,5.941-5.954,18.968-5.954,44.86c0,25.891,0.028,38.92,5.966,44.858
		c2.971,2.97,7.784,4.455,15.059,5.197c3.65,0.372,7.922,0.557,12.887,0.65c2.301,0.042,4.702,0.066,7.308,0.078
		c2.983,0.014,6.542,0.138,9.542,0.138v4.771c-6,0-12.281-0.015-17.381-0.138c-0.182-0.004-0.339-0.009-0.519-0.014
		c-4.821-0.125-9.014-0.351-12.682-0.759c-0.313-0.035-0.616-0.071-0.922-0.109c-7.756-0.953-13.016-2.793-16.591-6.345
		c-7.153-7.106-7.504-21.019-7.504-48.329S7.475,120.994,14.628,113.888z"/>
	<path fill="#B3B3B3" d="M62.719,217.849c-7,0-12.678-0.016-17.902-0.151c-5.227-0.135-9.704-0.389-13.582-0.864
		c-7.755-0.95-13.002-2.786-16.567-6.328c-7.131-7.083-7.481-20.989-7.481-48.28s0.359-41.196,7.49-48.279
		c3.565-3.542,8.826-5.377,16.58-6.328c3.879-0.475,8.333-0.729,13.56-0.864c5.226-0.135,10.903-0.151,17.903-0.151v4.754
		c-6,0-12.016,0-16.967,0.093s-9.186,0.279-12.826,0.652c-7.282,0.745-12.089,2.234-15.068,5.214
		c-5.96,5.961-5.972,18.976-5.972,44.909c0,25.933,0.029,38.949,5.988,44.907c2.979,2.98,7.798,4.47,15.077,5.215
		c3.641,0.373,7.851,0.559,12.801,0.652s10.967,0.093,16.967,0.093V217.849z"/>
</g>
<linearGradient id="SVGID_11_" gradientUnits="userSpaceOnUse" x1="-11076.7813" y1="1400.6396" x2="-11012.7813" y2="1400.6396" gradientTransform="matrix(-1 0 0 -1 -10743.0625 1754.5)">
	<stop  offset="0" style="stop-color:#333333"/>
	<stop  offset="0.1212" style="stop-color:#CCCCCC"/>
	<stop  offset="0.497" style="stop-color:#DEDEDE"/>
	<stop  offset="0.7879" style="stop-color:#989898"/>
	<stop  offset="1" style="stop-color:#1A1A1A"/>
</linearGradient>
<path fill="url(#SVGID_11_)" d="M269.719,316.952c0,0,6.004-14.23,32-14.23c24.936,0,32,14.23,32,14.23V405h-64V316.952z"/>
<linearGradient id="SVGID_12_" gradientUnits="userSpaceOnUse" x1="-11363.7813" y1="1400.6396" x2="-11299.7813" y2="1400.6396" gradientTransform="matrix(-1 0 0 -1 -10743.0625 1754.5)">
	<stop  offset="0" style="stop-color:#333333"/>
	<stop  offset="0.1212" style="stop-color:#CCCCCC"/>
	<stop  offset="0.497" style="stop-color:#DEDEDE"/>
	<stop  offset="0.7879" style="stop-color:#989898"/>
	<stop  offset="1" style="stop-color:#1A1A1A"/>
</linearGradient>
<path fill="url(#SVGID_12_)" d="M556.719,316.952c0,0,6.004-14.23,32-14.23c24.936,0,32,14.23,32,14.23V405h-64V316.952z"/>
</svg>
